<?xml version="1.0" encoding="UTF-8"?>
<svg id="_レイヤー_2" data-name="レイヤー 2" xmlns="http://www.w3.org/2000/svg" viewBox="0 0 75.78 32.87">
  <defs>
    <style>
      .cls-1 {
        fill: #231815;
      }
    </style>
  </defs>
  <g>
    <rect class="cls-1" y="11.83" width="32.87" height="8.5"/>
    <rect class="cls-1" x="12.18" width="8.5" height="32.87"/>
  </g>
  <g>
    <path class="cls-1" d="M38.28,11.69c.71-.12,1.65-.22,2.84-.22,1.46,0,2.54.34,3.22.95.63.54,1,1.38,1,2.4s-.31,1.85-.88,2.45c-.78.83-2.06,1.26-3.5,1.26-.44,0-.85-.02-1.19-.1v4.59h-1.48v-11.33ZM39.76,17.21c.32.08.73.12,1.22.12,1.79,0,2.88-.87,2.88-2.45s-1.07-2.25-2.71-2.25c-.65,0-1.14.05-1.4.12v4.46Z"/>
    <path class="cls-1" d="M48.35,11.55h1.48v10.22h4.9v1.24h-6.38v-11.47Z"/>
    <path class="cls-1" d="M58.88,11.55v6.79c0,2.57,1.14,3.66,2.67,3.66,1.7,0,2.79-1.12,2.79-3.66v-6.79h1.5v6.69c0,3.52-1.85,4.97-4.34,4.97-2.35,0-4.12-1.34-4.12-4.9v-6.75h1.5Z"/>
    <path class="cls-1" d="M69.22,21.21c.66.41,1.63.75,2.65.75,1.51,0,2.4-.8,2.4-1.96,0-1.07-.61-1.68-2.16-2.28-1.87-.66-3.03-1.63-3.03-3.25,0-1.79,1.48-3.11,3.71-3.11,1.17,0,2.02.27,2.54.56l-.41,1.21c-.37-.2-1.14-.54-2.18-.54-1.57,0-2.16.94-2.16,1.72,0,1.07.7,1.6,2.28,2.21,1.94.75,2.93,1.68,2.93,3.37,0,1.77-1.31,3.3-4.02,3.3-1.11,0-2.31-.32-2.93-.73l.37-1.24Z"/>
  </g>
</svg>