<?xml version="1.0" encoding="UTF-8"?>
<svg id="_デザイン" data-name="デザイン" xmlns="http://www.w3.org/2000/svg" viewBox="0 0 506.9008 506.9006">
  <defs>
    <style>
      .cls-1, .cls-2 {
        fill: #23ab3a;
      }

      .cls-2 {
        opacity: .6;
      }

      .cls-3 {
        fill: #ffef12;
      }

      .cls-4 {
        fill: #fff;
      }

      .cls-5 {
        fill: #e74d0c;
      }

      .cls-6 {
        fill: #22ab3a;
      }
    </style>
  </defs>
  <g>
    <g>
      <path class="cls-4" d="M497.0483,246.579C493.2563,112.0524,381.1249,6.0626,246.5935,9.8519,112.0564,13.6397,6.0681,125.7676,9.8517,260.2984c3.797,134.5237,115.9262,240.5362,250.4605,236.7498,134.5328-3.7907,240.5226-115.9412,236.7361-250.4692Z"/>
      <path class="cls-1" d="M253.3598,506.9006C116.8848,506.9006,3.9759,397.8608.1017,260.5737-3.8276,120.8811,106.625,4.0344,246.319.1015c139.7152-3.9258,256.5421,106.5119,260.48,246.2031h0c3.9321,139.7011-106.5176,256.5584-246.2116,260.4941-2.4125.0679-4.8293.1019-7.2276.1019ZM253.5452,19.5083c-2.2215,0-4.4416.0311-6.6772.0941C117.9276,23.2324,15.9761,131.0857,19.6026,260.024c3.6379,128.9481,111.5435,230.9145,240.4358,227.2738,128.9403-3.6328,230.889-111.4961,227.2597-240.4442-3.5714-126.7033-107.7925-227.3453-233.7529-227.3453Z"/>
    </g>
    <path class="cls-2" d="M253.4574,458.3564c-112.9867,0-204.9077-91.9259-204.9077-204.9176S140.4707,48.5431,253.4574,48.5431s204.9063,91.916,204.9063,204.8957-91.9209,204.9176-204.9063,204.9176ZM253.4574,55.8471c-108.9598,0-197.6037,88.639-197.6037,197.5917s88.6439,197.6136,197.6037,197.6136,197.6023-88.6489,197.6023-197.6136S362.4158,55.8471,253.4574,55.8471Z"/>
  </g>
  <g>
    <g>
      <path class="cls-6" d="M308.3112,290.9356c.3315-.2314.5882-.506.7735-.8369.1894-.3387.5553-1.2032.8691-3.1924l3.1437-19.9058.9009-6.3616c.1419-1.0051.2911-1.759.4302-2.3223.104-1.065.0652-1.6338.022-1.9062-.0736-.464-.3054-.9498-.673-1.4458-.325.3046-.5796.672-.7665,1.1182-.2075.4958-.5146,1.5021-.7954,3.4858l-3.8383,27.102c-.3059,2.1573-.301,3.0883-.2711,3.4514.0216.2578.093.5302.2049.8136Z"/>
      <path class="cls-6" d="M293.0476,245.8249c.1617.0597.3309.1051.5087.1217,6.2071.5912,12.4883,1.3106,18.6921,2.1331-.0862-.4274-.2008-.7407-.3315-.8801-6.6727-.9044-13.4531-1.6859-20.1433-2.3223-.1778-.0166-.3466-.062-.5082-.1218-.3762,1.2508-.7488,2.5006-1.1185,3.7503.6829.0577,1.3649.1206,2.0477.1804.283-.9541.5663-1.9072.853-2.8613Z"/>
      <path class="cls-6" d="M313.3963,204.2441c.2015.8145-.1202,1.6681-.8081,2.1462-.5064.3521-.8646.7738-1.0942,1.2875-.2026.4559-.4913,1.3793-.7116,3.1869-.8098,6.6415-3.4023,27.8868-3.4023,27.8868.3754.0476.7733.0997,1.2631.1628.2119.0277.4156.0432.6226.062.4886-4.0049,2.5858-21.1901,3.2992-27.0413.2204-1.8076.509-2.7317.7117-3.1869.2297-.5148.5877-.9365,1.0942-1.2872.688-.4794,1.0096-1.333.8081-2.1464-.202-.8147-.8856-1.4193-1.7175-1.521-.0857-.0099-.172-.0199-.2578-.0299.0819.1495.1505.3088.1926.4805Z"/>
      <path class="cls-6" d="M261.6827,266.6827c-3.0756-5.8721-6.2697-11.7168-9.5638-17.4663-.3611-.6286-1.03-1.0151-1.7529-1.016,3.907,6.8207,7.6847,13.7725,11.2751,20.7481l.0416-2.2658Z"/>
      <path class="cls-6" d="M169.7627,274.1048c-.1131-.4783-.2236-.9498-.3316-1.4103-.0957.0662-.198.1262-.3077.1771-.2734.1262-.5635.1882-.8495.1882-.0117,0-.0238-.0023-.0356-.0023.0615.0807.123.1572.1838.2414.3305.4516.8187.7294,1.3406.8059Z"/>
      <path class="cls-6" d="M265.0296,202.888c-.0715-.0653-.1368-.1372-.1971-.2104-.0565.0644-.1152.1274-.1805.1839-.4564.4008-.7632.8699-.9359,1.4368-.155.5081-.3448,1.5287-.3648,3.5034-.0752,7.3124-.1514,14.6237-.2283,21.9361l-.0566,5.435c-.0221,2.1541.1173,3.055.202,3.3993.0852.3432.2817.7085.5794,1.0871.4782-.3609.8248-.7483,1.0518-1.18-.0372-.528-.061-1.2498-.0506-2.237l.0565-5.4351c.077-7.3114.1533-14.6237.2287-21.9351.0198-1.9757.2091-2.9963.3647-3.5033.1123-.3696.2877-.693.5174-.9873-.0144-.0798-.0287-.145-.042-.1949-.0952-.3664-.4307-.827-.9447-1.2985Z"/>
      <path class="cls-6" d="M159.435,281.0505c.3448-.095.663-.199.9629-.3076l-2.8956-10.2823c.576-.1594,1.1552-.3166,1.9238-.5247,1.1838-.3199,2.2505-.4814,3.1724-.4814.6693,0,1.2598.0897,1.7645.2579-.5784-.4848-1.1417-.8402-1.6754-1.0361-.5264-.1938-1.1566-.2923-1.8718-.2923-.9214,0-1.9885.1627-3.1724.4827-.7688.2082-1.3471.3652-1.9239.5247l3.3153,11.7688c.1246-.0343.2569-.0708.4002-.1097Z"/>
      <path class="cls-6" d="M248.8855,191.3318c.2772.8522-.0394,1.7842-.7772,2.2912-.9586.6586-1.6746,1.4168-2.1302,2.2527-.3497.642-.8551,1.9138-1.2802,4.3269-2.4613,13.934-4.6955,28.0396-6.6421,41.9295-.1339.9541-.922,1.6814-1.8835,1.7378-4.0318.2349-8.0971.5126-12.0832.8247-.0514.0045-.1025.0065-.1533.0065.3476.65,1.0256,1.0693,1.7767,1.0693.0526,0,.1058-.001.1592-.0055,3.9861-.3131,8.0513-.591,12.0828-.8256.9619-.0565,1.7501-.7838,1.884-1.7379,1.946-13.8886,4.1808-27.9955,6.6421-41.9283.4251-2.4142.9305-3.6862,1.2803-4.3271.4554-.8369,1.1716-1.5951,2.1302-2.2536.7377-.5071,1.0543-1.4391.7772-2.2904-.2719-.8345-1.0489-1.3956-1.9222-1.3956h-.0024c.0555.1027.1041.2112.1418.3254Z"/>
      <path class="cls-6" d="M263.7461,243.0253c-.325.2171-.7124.3398-1.1191.3398h-.03c-1.9184-.0277-3.8553-.042-5.7559-.042-2.6169,0-5.2537.0266-7.8374.0797h-.0352c.3498.6543,1.0295,1.0693,1.7767,1.0693h.0414c2.583-.0521,5.2205-.0784,7.8372-.0784,1.9005,0,3.8376.0132,5.7559.0407h.0299c.4067,0,.7941-.1227,1.1191-.3398.3211.2304.7084.3699,1.1225.3798,6.2547.1627,12.5964.4516,18.8715.8512-.1235-.4871-.2734-.8414-.4296-.9863-6.714-.4461-13.5205-.7605-20.2246-.9344-.414-.0098-.8014-.1493-1.1224-.3796Z"/>
      <path class="cls-6" d="M201.6036,247.213c.3502.6552,1.0344,1.0691,1.7799,1.0691.0907,0,.182-.0065.2738-.0188,3.8577-.5247,7.803-1.0228,11.7248-1.4778.952-.1105,1.6958-.8755,1.7799-1.8307.4024-4.5584.8391-9.1311,1.2917-13.6939-.4714-1.5686-.9452-3.137-1.4235-4.7045-.5888,5.7628-1.1417,11.5609-1.6509,17.329-.084.9553-.8279,1.7191-1.7798,1.8298-3.922.456-7.8666.9531-11.7249,1.4789-.0907.0121-.1814.0177-.271.0189Z"/>
      <path class="cls-6" d="M355.1879,267.2262c-.1007-.0265-.2027-.0498-.3044-.0709-.9066,3.4892-1.8132,6.9781-2.7221,10.4661.2071.0167.4049.0255.5941.0255.612,0,1.1225-.0963,1.5319-.2757.7942-3.0485,1.5861-6.0969,2.3788-9.1454.0941.0188.1883.041.2813.0653-.3433-.4903-.9188-.84-1.7596-1.0649Z"/>
      <path class="cls-6" d="M335.5897,268.8146c-.2762-.1307-.5695-.1937-.8607-.1937-.001,0-.0027.0012-.0039.0012.217.4063.2996.8844.1999,1.3627l-2.4851,11.9725c-.1893.9099-.9746,1.5739-1.9033,1.6083-.0238.0011-.0477.0023-.0709.0023.347.6475,1.0234,1.0693,1.7767,1.0693.0259,0,.0508,0,.0769-.0012.9288-.0353,1.7141-.6995,1.9027-1.6094l2.4856-11.9725c.1898-.9154-.2722-1.842-1.1179-2.2395Z"/>
      <path class="cls-6" d="M329.0106,261.8775c-.3443-.0663-.6387-.1228-.9104-.1748l-1.5951,8.625c.1196.0223.2452.0467.3812.0732.2768.0532.5486.0797.8071.0797.2646,0,.5246-.0377.7821-.0964l1.4075-7.6111c.2716.052.5655.1084.9103.1748.8985.1727,1.5961.3719,2.1386.57-.0575-.0686-.1113-.1249-.1594-.1704-.3635-.3476-1.335-1.0018-3.7619-1.47Z"/>
      <path class="cls-6" d="M324.8341,289.842l1.9227-10.4129c.2192.042.4568.0873.7229.1395-.0829-.1285-.1555-.2249-.214-.2946-.3211-.3807-.8142-.6297-1.5088-.7637-.293-.0565-.547-.1052-.7827-.1507l-2.0683,11.2023c.1213.0233.2491.0477.388.074.5347.103,1.0477.1695,1.5402.2061Z"/>
      <path class="cls-6" d="M297.6651,264.191c.0155-.135.0315-.2712.0477-.4063-.1003.0155-.2021.0277-.3054.0289.0717.1349.157.2622.2577.3774Z"/>
      <path class="cls-6" d="M322.4727,236.54c-1.909,4.8615-3.8097,9.8306-5.7894,15.1394.6841.1107,1.3698.2301,2.0545.3431,1.8819-5.0354,3.6962-9.7752,5.5175-14.4123.3725-.9475-.0177-2.0245-.9104-2.5126-.3072-.1682-.6406-.248-.9692-.248h-.0062c.2714.5069.3266,1.1213.1032,1.6904Z"/>
      <path class="cls-6" d="M340.2914,258.1562l-1.9239,8.9406c-.1982.922-1.0089,1.5838-1.9527,1.5951h-.0165c.346.6441,1.0183,1.0692,1.7755,1.0692h.0238c.9436-.0111,1.754-.6731,1.9527-1.5951l1.3244-6.1556c.0139-.2834.0051-.4805-.0088-.609-.0581-.5135-.2803-1.0193-.6797-1.5462-.5203-.6852-.5497-1.625-.073-2.3411.1146-.1728.2545-.32.41-.4462-.1887-.1117-.3924-.2004-.6109-.2458-.1489-.0308-.3002-.0608-.449-.0917.2463.4315.3344.9375.2281,1.4258Z"/>
      <path class="cls-6" d="M283.6337,201.3814c.2574.7983-.0039,1.6715-.6582,2.1973-.4792.3853-.8068.8304-1.0012,1.3604-.171.4695-.3963,1.4115-.4919,3.2302l-1.4806,28.0529c.3758.0221.775.0453,1.2659.0753.1914.0121.3806.0198.5678.0255l1.4296-27.0845c.0958-1.8187.321-2.7605.4919-3.23.1945-.5303.5215-.9752,1.0012-1.3603.6542-.5248.9156-1.3994.6583-2.1963-.2575-.7981-.9809-1.3549-1.8183-1.398-.0365-.0022-.0736-.0034-.1101-.0056.0575.1064.1074.2159.1456.3331Z"/>
      <path class="cls-6" d="M273.9828,261.6043c.5547-1.5288,1.2593-2.7022,2.0939-3.4881.3316-.3123.6857-.559,1.0643-.7494l.0903-1.5254c-1.149.0321-2.1115.4273-2.9374,1.2053-.8346.7861-1.5392,1.9595-2.0931,3.4881-.295.8103-1.0638,1.3316-1.8989,1.3316-.1285,0-.2575-.012-.3875-.0375-.1079-.0212-.2103-.0532-.3105-.0897-.2635,9.1775-.5264,18.3552-.7876,27.5338-.0155.5358-.2428,1.0438-.6333,1.4112-.3751.3554-.8721.5523-1.3873.5523-.0189,0-.0383,0-.0582-.001-3.2836-.094-4.8916-.1207-8.1791-.1372.3498.653,1.0272,1.066,1.77,1.0693,3.2965.0167,4.9036.0432,8.1919.1372.0198.0012.0393.0012.0581.0012.5152,0,1.0121-.1971,1.3875-.5525.3902-.3673.6176-.8754.6331-1.4111.2613-9.1788.5241-18.3564.7875-27.5339.1003.0365.2027.0686.3105.0896.1301.0254.2591.0377.3875.0377.8353,0,1.6041-.5214,1.8983-1.3315Z"/>
      <path class="cls-6" d="M292.9357,257.8926c.3478.0475.6764.1272.9898.2312-.714-.6917-1.6605-1.1488-2.7724-1.3005l-2.3391,27.4995c-.177,2.0777-.0823,3.002-.0104,3.3684.094.4771.3586.9674.787,1.4577.5431.6222.6531,1.5121.2778,2.2482-.3474.6808-1.0461,1.1026-1.8003,1.1026-.0604,0-.1218-.0022-.1821-.0078-4.1942-.3796-8.3993-.6819-12.5011-.8998.3304.6154.9591,1.0261,1.6724,1.0636,4.1368.2181,8.3795.5225,12.6114.9055.0602.0056.1216.0078.1822.0078.7541,0,1.4526-.4218,1.8002-1.1025.3753-.7349.2652-1.6249-.2777-2.2471-.4285-.4915-.693-.9818-.7871-1.4589-.072-.3664-.1666-1.2907.0106-3.3684l2.3388-27.4995Z"/>
      <path class="cls-6" d="M248.6569,287.533c-.1035-.351-.2888-1.2609-.3641-3.4184,0,0-.2481-7.0755-.3831-10.9187-.6187-1.1247-1.2358-2.2515-1.8635-3.3718.046,1.2963.4638,13.2213.4638,13.2213.0752,2.1563.2607,3.0672.3641,3.4183.1273.4306.4236.8654.8795,1.2939.5973.5601.7975,1.4245.508,2.1894-.2893.7649-1.0122,1.2808-1.8297,1.3052-2.8674.0875-4.2522.1427-7.055.2856-.0332.0011-.0658.0021-.0974.0021.351.6565,1.0317,1.0693,1.7767,1.0693.0343,0,.0692,0,.1034-.0021,2.8028-.1429,4.1877-.1983,7.0551-.2856.8173-.0244,1.5402-.5392,1.8292-1.3052.2899-.7647.089-1.6293-.5075-2.1894-.4561-.4273-.7523-.8635-.8795-1.2939Z"/>
      <path class="cls-6" d="M237.819,261.4723c-.931-2.6921-2.3939-5.3697-4.6746-7.588-1.1496-1.1179-2.4608-2.0522-3.8921-2.7927.7494.5146,1.4562,1.0881,2.1094,1.7234,4.6247,4.4976,5.8993,10.8856,6.1551,15.4518.3663,6.5408-1.1126,12.8139-4.1633,17.6632-2.8951,4.6005-7.2957,7.5381-12.0742,8.0595-.6157.0675-1.241.1018-1.8587.1018-2.7253,0-5.3287-.6387-7.6466-1.8353,2.7252,1.8875,5.9802,2.9048,9.4293,2.9048.6177,0,1.2431-.0342,1.8586-.1007,4.7785-.5215,9.1793-3.4593,12.0745-8.0597,1.5951-2.5361,2.7555-5.4637,3.4519-8.6119-.2562-5.6386-.5127-11.2773-.7693-16.9162Z"/>
      <path class="cls-6" d="M371.4107,266.9163c-1.0031-1.4523-2.5223-2.7044-4.5302-3.7459,1.1461.7981,2.0664,1.6903,2.748,2.6766,1.668,2.4175,1.9647,5.4228.8805,8.9341-.7792,2.5247-2.2481,4.6512-4.3675,6.3194-1.4932,1.1767-3.1486,1.9371-4.9412,2.2715.2417,1.3549.4399,2.5137.7393,4.2959.113.6663.2242,1.3372.3365,2.008.6051,3.6319,1.2309,7.3877,2.1094,10.9632.5816,2.3664.9796,3.1291,1.1039,3.3273.5984.4704.8867,1.2442.7285,2.0025-.1743.8368-.8585,1.4731-1.7058,1.5883-.42.0577-.8546.0862-1.2911.0862-1.148,0-2.3723-.2001-3.6375-.5953-1.2075-.3776-2.2699-.7969-3.1985-1.2642,1.2675.9177,2.9141,1.6883,4.9811,2.3335,1.2653.3951,2.4891.5966,3.6375.5966.4367,0,.8712-.0298,1.2912-.0863.8472-.1152,1.5315-.7517,1.706-1.5895.1581-.7583-.1303-1.5321-.7285-2.0015-.1245-.1981-.5231-.9619-1.1041-3.3284-.8783-3.5755-1.5044-7.3314-2.1093-10.9631-.1125-.6708-.2236-1.3417-.3366-2.008-.2994-1.7822-.4976-2.9412-.7394-4.2961,1.7928-.3341,3.4481-1.0935,4.9414-2.2713,2.1192-1.6681,3.5881-3.7945,4.3674-6.3194,1.0843-3.5101.7875-6.5165-.881-8.9341Z"/>
      <path class="cls-6" d="M326.3308,298.1604c-5.9044-1.1766-11.9061-2.2481-17.8294-3.18-.3288-.0522-.6303-.1827-.8862-.3709-.2129.074-.4383.1172-.6689.1172-.0925,0-.1866-.0064-.2802-.0197-3.8659-.5392-7.7817-1.0417-11.6442-1.4956.3103.5691.8783.9631,1.5363,1.0406,3.943.4603,7.9433.974,11.8906,1.5254.0936.012.1878.0187.2802.0187.2307,0,.456-.042.6691-.1173.2558.1882.5573.3189.8855.3707,5.3853.8479,10.8325,1.8144,16.2154,2.8681-.0349-.3244-.0907-.5855-.1682-.7572Z"/>
      <path class="cls-6" d="M208.7936,291.302c-.1998-.124-.89-.6366-2.4425-2.494-2.3594-2.8226-4.5749-5.9165-6.718-8.9085-.3935-.5491-.7865-1.0981-1.1793-1.6438-1.0435-1.4524-1.7285-2.3986-2.5595-3.5301,1.4507-1.0936,2.5898-2.5082,3.4006-4.2273.5292-1.1212.885-2.2703,1.0815-3.437.0406-.5081.0942-1.0108.1617-1.5099.0393-.8733-.0045-1.7567-.1478-2.6454-.5845-3.6242-2.1735-6.1867-4.7231-7.6159-.2293-.1284-.4689-.2458-.7141-.3552,1.9277,1.5021,3.1574,3.8144,3.6545,6.9016.4206,2.6069.052,5.1616-1.0954,7.5926-.8107,1.7178-1.9498,3.1324-3.4004,4.2262.8308,1.1312,1.5159,2.0788,2.5592,3.5311.3929.5457.7864,1.0947,1.1794,1.6438,2.1431,2.992,4.3586,6.0859,6.7181,8.9085,1.553,1.8575,2.2425,2.3688,2.4431,2.494.738.1594,1.3341.7216,1.528,1.4666.2151.8259-.1117,1.6981-.8171,2.1785-1.2634.8623-2.8159,1.4434-4.6136,1.7268-1.1872.1872-2.293.2822-3.2853.2822-1.5946,0-2.9367-.2334-4.1007-.7139-.1427-.0588-.285-.1217-.4278-.1892.7427.5367,1.4783.9563,2.21,1.2585,1.1645.4815,2.506.7151,4.1011.7151.9924,0,2.0982-.0952,3.2853-.2834,1.7978-.2833,3.3503-.8646,4.6139-1.7268.7051-.4805,1.0321-1.3526.8169-2.1785-.1937-.7439-.7899-1.3072-1.5287-1.4666Z"/>
      <path class="cls-6" d="M181.7783,201.3361c.02.0088.0389.0178.0581.0265-.2335-.1925-.4881-.3741-.7648-.5433.1919.2169.4284.3974.7067.5168Z"/>
      <path class="cls-6" d="M348.9382,299.1037c-.0144-.3786.0398-1.3129.56-3.3143l.1605-.6176c-.0359-.1782-.073-.3563-.1079-.539-.2644-1.2819-.5347-2.5704-.8092-3.8611l-1.026,3.9486c-.5203,2.0001-.5745,2.9355-.5602,3.3141.0189.5057.2065,1.0271.5718,1.5961.4523.7019.4255,1.6095-.0658,2.2836-.387.5314-.998.8313-1.6339.8313-.1727,0-.3475-.0222-.5198-.0675-4.147-1.1035-8.3471-2.1376-12.4859-3.0717-.4037-.0919-.759-.3023-1.0302-.5922-.6487,1.7123-1.2913,3.4171-1.9188,5.0984-.3017.8058-1.066,1.3117-1.8874,1.314.2479.4627.6686.8303,1.2083.9886.1892.0552.3802.0818.5684.0818.8235,0,1.5912-.5069,1.8934-1.3151.6275-1.6813,1.2701-3.3859,1.919-5.0974.2709.2889.6257.4992,1.0298.5912,4.1383.9354,8.3391,1.968,12.4862,3.0717.1721.0465.347.0686.5199.0686.6357,0,1.2467-.301,1.6332-.8313.4919-.6752.5185-1.5818.0663-2.2835-.3654-.569-.5529-1.0914-.5717-1.5973Z"/>
      <path class="cls-6" d="M217.1931,282.3856c.6402,1.3747,1.9277,3.6651,3.4187,3.7238-.7002-.7959-1.2726-1.8728-1.6362-2.6545-1.6979-3.6517-2.8275-8.1581-3.4507-13.7745-.3497-3.1494-.6256-6.7801.5402-10.0233.5926-1.6516,1.5119-2.5527,2.7313-2.6812.0897-.0087.1787-.0142.2656-.0142.1334,0,.2618.0166.3898.0385-.6145-.645-1.3429-1.1078-2.1724-1.1078-.0869,0-.176.0055-.2657.0143-1.2193.1274-2.1386,1.0295-2.7315,2.6799-1.1655,3.2444-.8898,6.8751-.54,10.0245.6233,5.6154,1.7527,10.1216,3.4509,13.7745Z"/>
      <path class="cls-6" d="M226.9047,193.653c-.1407.4061-.1612.5821-.1639.6131-.0057.0665-.0143.1328-.0271.1993-.1666.8945-.2214,1.7445-.1645,2.526.0992,1.3417.616,3.6118,1.5376,6.749,1.3871,4.7355,2.7602,9.5296,4.1073,14.3347.1572-1.1722.3244-2.3489.4855-3.5233-.9277-3.2644-1.8659-6.5165-2.81-9.7411-.9217-3.137-1.4385-5.4083-1.5376-6.75-.0571-.7816-.0022-1.6316.1643-2.526.0129-.0663.0217-.1328.0272-.1993.0026-.031.0234-.2059.1638-.6121.2219-.642.1063-1.3539-.3072-1.8917-.3835-.5003-.9779-.7904-1.6032-.7904h-.0035c.2636.4915.316,1.0748.1313,1.6118Z"/>
      <path class="cls-6" d="M191.0656,295.267c-.579-.3486-.9769-.7339-1.2181-1.1789-.1806-.3332-.5458-1.1944-.9666-3.2202,0,0-.2546-1.2295-.4825-2.3255-.7024-.9022-1.4102-1.8065-2.1242-2.7142.0718.3464.8241,3.9694.8241,3.9694.4206,2.0269.7865,2.8881.9669,3.2212.2408.445.6386.8303,1.2176,1.1789.7145.4306,1.0921,1.2553.9492,2.0766-.1423.8213-.7744,1.4712-1.5912,1.6361-4.1643.8412-8.3828,1.7743-12.5394,2.7751-.1559.0375-.3132.0553-.4682.0563.0343.0644.0687.1306.1113.1926.3831.5569,1.0102.8769,1.6665.8769.1571,0,.316-.0179.4731-.0565,4.1566-1.0008,8.3751-1.9339,12.5394-2.7741.8168-.1648,1.449-.8158,1.5912-1.6371.1429-.8214-.2347-1.646-.9491-2.0766Z"/>
      <path class="cls-6" d="M201.9472,195.9741c-.2734,1.1436-.3486,2.2063-.2248,3.1549.0987.7537.4269,1.9448.9742,3.5378,2.0667,5.8576,4.1178,11.8153,6.1246,17.7916.1141-1.0626.2313-2.1186.3482-3.1757-1.5464-4.5496-3.1138-9.077-4.6901-13.5468-.5473-1.5928-.8756-2.7838-.9741-3.5365-.124-.9499-.0487-2.0114.2247-3.156.1545-.6477-.02-1.3304-.4665-1.8242-.3863-.4273-.9315-.6653-1.4994-.6663.2297.4304.2989.9354.1832,1.4212Z"/>
      <path class="cls-6" d="M184.9071,271.7138l-1.8126-8.7338c.0974-.0266.1965-.0497.2955-.0708.3155-.0631.6121-.0954.8829-.0954.0625,0,.1361,0,.2175.0045-.7611-1.0725-1.5931-1.0736-2.0002-1.0736-.2707,0-.5673.0321-.8824.0953-.0997.0197-.1987.043-.296.0696l2.1967,10.5867c.5735-.228,1.041-.4903,1.3986-.7825Z"/>
      <path class="cls-6" d="M169.767,276.4713c-.2279-.9011-1.0383-1.5265-1.9586-1.5265h-.0089c.077.1429.1427.2934.1848.4572,1.2437,4.9325,2.4879,9.865,3.7332,14.7975.2303.9132-.2009,1.8639-1.0384,2.2935-.2933.1504-.6088.2224-.9204.2224-.0265,0-.0526-.0033-.0786-.0043.1047.1162.2093.2301.3134.3541.3945.4683.9657.7195,1.548.7195.3115,0,.6271-.0718.9203-.2224.8375-.4284,1.2686-1.3804,1.0383-2.2935-1.2452-4.9325-2.4895-9.865-3.7331-14.7975Z"/>
      <path class="cls-6" d="M137.5587,270.2072c.2219.3111.5339.5546.9039.7007-.2397-.2756-.5403-.507-.9039-.7007Z"/>
      <path class="cls-6" d="M170.2098,309.854c-.7953-.4194-1.3727-.9119-1.7175-1.4654-.3008-.4838-.8062-1.5786-1.5004-4.0404l-3.846-13.6407c.1721-.0476.3564-.0973.5623-.1538.5247-.1439,1.0344-.2171,1.5155-.2171.45,0,.8887.0643,1.3044.1905.1113.0332.222.0763.3338.1184-.6946-.5711-1.4019-.9719-2.1164-1.1876-.4157-.1261-.8546-.1906-1.3039-.1906-.4816,0-.9913.0732-1.5161.2171-.2059.0563-.3902.1063-.5622.154l3.846,13.6395c.694,2.4628,1.1994,3.5565,1.5004,4.0414.3448.5533.9222,1.0461,1.7174,1.4656.7317.3863,1.1546,1.1788,1.0677,2.0014-.087.8222-.6664,1.5087-1.4634,1.7321-4.9558,1.3949-9.9458,2.8903-14.8307,4.4444-.2003.0632-.4068.0952-.61.0952.0571.1064.1213.2104.1993.3078.3897.4904.9762.7615,1.5807.7615.2048,0,.4107-.031.6128-.095,4.8848-1.5543,9.8749-3.0497,14.8306-4.4444.797-.2237,1.3759-.9099,1.4634-1.7323.0868-.8226-.336-1.615-1.0677-2.0016Z"/>
    </g>
    <g>
      <path class="cls-6" d="M178.5787,199.1023c1.0771.4638,1.9323,1.0616,2.5411,1.7778.456.5357,1.1871,1.667,2.096,4.0392,5.2688,13.1646,10.3387,26.5518,15.0652,39.7875.2906.8124,1.0583,1.3415,1.9023,1.3415.0908,0,.1821-.0065.274-.0187,3.8577-.5248,7.8022-1.0227,11.7241-1.4777.9531-.1107,1.6964-.8757,1.7812-1.8308.5085-5.7685,1.0607-11.5664,1.6507-17.3292,1.6977,5.5679,3.3568,11.1514,4.9585,16.6858.2514.8703,1.0472,1.4603,1.9411,1.4603.052,0,.1057-.0024.1583-.0067,3.9866-.3133,8.0518-.5913,12.0831-.8259.9621-.0552,1.7507-.7836,1.8846-1.7367,1.946-13.8898,4.1808-27.9964,6.6415-41.9294.4257-2.4132.9311-3.685,1.2797-4.327.4557-.8369,1.1723-1.594,2.1303-2.2527.7384-.5069,1.0544-1.44.7771-2.2913-.2707-.8345-1.0477-1.3959-1.9211-1.3959-.0182,0-.037,0-.0548.0012-4.099.1107-8.2863.2623-12.4479.4505-.8701.0398-1.6173.6321-1.8536,1.47-.237.8379.0901,1.7335.8108,2.2227,1.0405.7052,1.5508,1.6061,1.6066,2.8369.0337.7562-.0502,1.7292-.2513,2.8903-.0027.0167-.0053.0322-.0088.0489-.8954,6.0525-1.7561,12.1496-2.5708,18.2187-1.3465-4.806-2.7202-9.6002-4.1067-14.3345-.9222-3.137-1.439-5.4085-1.5374-6.7502-.0581-.7815-.0023-1.6316.1643-2.5259.0122-.0653.0204-.133.0271-.1994.0017-.031.0222-.2058.1629-.6121.2218-.642.1072-1.3527-.3062-1.8917-.3848-.5003-.978-.7904-1.6034-.7904-.0488,0-.0967.0012-.1457.0045-6.0559.435-12.1784,1.0018-18.1972,1.6848-.8474.0961-1.5431.7139-1.7395,1.5453-.1959.83.1509,1.6936.8667,2.1584,1.1914.7737,2.1098,1.7478,2.8077,2.9788.704,1.2397,1.1723,2.9388,1.3914,5.0466.1024.9894.1626,1.9714.1782,2.9188.0155.8966-.0459,1.8453-.181,2.8228-.0021.0143-.0045.0287-.0055.0442-.3935,3.3872-.7772,6.8242-1.1484,10.2823-2.0074-5.9763-4.0581-11.9326-6.1242-17.7918-.5485-1.5929-.8755-2.7827-.9746-3.5366-.1234-.9498-.0488-2.0112.2246-3.1559.1545-.6475-.0198-1.3294-.4664-1.8243-.386-.4271-.9322-.6662-1.4995-.6662-.0891,0-.1794.0065-.2689.0188-6.4313.8623-12.9095,1.843-19.254,2.9145-.884.1495-1.5635.8636-1.6703,1.7523-.1069.8899.3847,1.7435,1.2081,2.0976Z"/>
      <path class="cls-6" d="M205.5935,289.0682c-.1999-.1238-.8901-.6365-2.443-2.4938-2.3588-2.8229-4.5749-5.9168-6.7174-8.9075-.393-.5491-.7865-1.0994-1.1789-1.6439-1.0433-1.4534-1.7285-2.3999-2.5593-3.5312,1.4506-1.0935,2.5897-2.5082,3.4004-4.2273,1.147-2.4309,1.515-4.9857,1.0944-7.5925-.5834-3.6241-2.1731-6.1865-4.7233-7.6156-1.6202-.9087-3.6646-1.3693-6.0759-1.3693-1.474,0-3.1152.1727-4.8767.5136-1.3749.2646-3.0662.7074-5.0294,1.3129-3.9494,1.2188-6.5485,1.9968-8.1137,2.3588-1.5319.3044-2.3086.4626-3.8489.7849-.151.032-.2917.0853-.4283.1483-.1368.0045-.2738.0209-.4092.0542-9.4795,2.3555-18.9993,5.0519-28.2947,8.0154-.8364.2667-1.405,1.0415-1.4075,1.9204-.0026.8777.5617,1.6559,1.3972,1.9272.8306.2701,1.4267.6686,1.8213,1.2176.3558.4948.9486,1.6162,1.7517,4.1465,2.6444,8.3463,10.2696,32.39,10.2696,32.39.7128,2.2481.865,3.4768.8661,4.1122.0024.765-.2131,1.5022-.6579,2.2561-.4263.7215-.3627,1.6314.1592,2.2868.3908.4903.9763.7617,1.5818.7617.2037,0,.4108-.031.6116-.0954,4.886-1.5541,9.8761-3.0485,14.8318-4.4432.7957-.2247,1.3754-.9111,1.4622-1.7335.0869-.8222-.3353-1.6149-1.0665-2.0001-.7952-.4196-1.3732-.9133-1.7174-1.4667-.3016-.4838-.8068-1.5784-1.5014-4.0403l-3.845-13.6407c.172-.0466.3563-.0974.5618-.1539.5246-.144,1.0349-.2169,1.516-.2169.4493,0,.8876.064,1.3044.1904,1.1838.3587,2.35,1.2131,3.4647,2.5382.3946.4693.9652.7205,1.5474.7205.3127,0,.6282-.073.9205-.2224.8385-.4295,1.2691-1.3804,1.0384-2.2946-1.2449-4.9314-2.4895-9.8639-3.7332-14.7965-.2269-.9021-1.0372-1.5276-1.9588-1.5276-.0332,0-.0675.0012-.1019.0022-.9618.0489-1.7571.7692-1.8988,1.7225-.2453,1.6548-.6808,2.899-1.2952,3.7004-.5372.7008-1.6769,1.3062-3.2942,1.7501-.1433.0398-.2756.0753-.4008.1095l-3.3141-11.7687c.5763-.1596,1.1545-.3166,1.9239-.5248,1.1827-.3188,2.2504-.4815,3.1724-.4815.7152,0,1.345.0984,1.8718.2922,1.2144.4462,2.5814,1.6748,3.9519,3.552.3907.5358,1.0038.8304,1.6338.8304.2862,0,.5761-.061.8501-.1883.1085-.0497.2108-.1096.3072-.1771,1.9499,8.2988,4.694,19.9735,4.694,19.9735.4144,1.7657.4603,2.7519.4256,3.2676-.04.588-.2314,1.1236-.5867,1.6384-.4754.6896-.4761,1.6005-.0017,2.2913.3817.5567,1.0101.8766,1.6659.8766.1566,0,.3154-.0176.4731-.0553,4.1566-1.0005,8.3751-1.9349,12.5389-2.775.8174-.165,1.45-.8147,1.5917-1.6372.1423-.8213-.2347-1.646-.9486-2.0765-.5794-.3476-.978-.7341-1.2188-1.1789-.1802-.3333-.5451-1.1945-.9657-3.2201,0,0-.7527-3.6242-.8247-3.9694.8098,1.0294,1.6147,2.0555,2.4087,3.0783,2.4696,3.2809,4.7719,5.33,7.0395,6.2651,1.1651.4818,2.5062.7152,4.1013.7152.9923,0,2.0976-.0952,3.2852-.2834,1.7977-.2834,3.3496-.8644,4.6137-1.7257.7053-.4816,1.0319-1.3527.8176-2.1784-.1937-.745-.7904-1.3084-1.5292-1.4678ZM184.0425,269.9459c-.3429.5424-1.0062,1.0107-1.9515,1.3871l-2.1973-10.5868c.0986-.0265.1971-.0498.2968-.0697.3155-.0641.6121-.0963.8816-.0963.6476,0,2.3661,0,3.1692,4.2972.5971,3.1945.1323,4.5461-.1988,5.0685Z"/>
      <path class="cls-6" d="M236.0995,267.1022c-.2553-4.5661-1.5311-10.9529-6.1546-15.4505-3.1892-3.1027-7.6059-4.8108-12.4353-4.8108-.7096,0-1.4292.0377-2.1391.113-5.4445.5722-10.397,3.7757-13.2479,8.5687-2.8216,4.7432-3.8571,10.8147-2.9146,17.0977.9525,6.3495,3.3592,11.6638,6.9604,15.3675,3.0978,3.1858,7.2996,4.939,11.8355,4.939.6176,0,1.243-.0331,1.8586-.1007,4.7774-.5213,9.1784-3.4591,12.0731-8.0595,3.0512-4.8494,4.5296-11.1235,4.1639-17.6644ZM221.8316,282.0293c-.5729,1.8273-1.3794,2.8081-2.3961,2.9122-.0613.0066-.1227.0099-.1825.0099h-.0006c-1.5153,0-2.8287-2.3366-3.4762-3.7292-1.6992-3.653-2.8276-8.1591-3.4521-13.7756-.3492-3.1482-.6243-6.7789.5408-10.0233.5933-1.6506,1.5115-2.5527,2.7309-2.6811.0895-.0088.1798-.0133.2667-.0133,1.6012,0,2.8287,1.7181,3.5764,3.1604,2.0363,3.9252,2.5338,8.7304,2.9733,12.9699.3122,3.0063.5911,7.4362-.5806,11.1701Z"/>
      <path class="cls-6" d="M368.2104,264.6836c-1.7079-2.475-4.9005-4.3702-9.487-5.6309-1.3586-.3731-3.0768-.7285-5.1062-1.0562-4.1022-.6629-6.7866-1.1178-8.3358-1.4843-1.5093-.4051-2.2746-.6076-3.7979-.9996-.1677-.0442-.3364-.0653-.5048-.0653-.6652,0-1.3017.3299-1.683.9021-.4766.7173-.4467,1.6572.073,2.3424.4002.5257.6222,1.0328.6791,1.5463.0404.3643.0422,1.263-.4067,3.1935l-4.9696,21.397c-.1639-.2479-.3775-.467-.647-.6277-.3226-.1914-.6792-.2844-1.0329-.2844-.5782,0-1.1494.2492-1.5451.7184-1.5437,1.8288-3.0507,3.0396-4.4787,3.5998-.8069.3177-1.7312.4781-2.7457.4781-.7235,0-1.5127-.0808-2.3457-.2401-.1383-.0278-.2667-.0521-.3874-.0753l2.0677-11.201c.2364.0442.4898.0939.7827.1494.6947.1339,1.1884.3841,1.5094.7637.2479.2945.7398,1.0528,1.2518,2.8317.2503.8689,1.044,1.4622,1.9416,1.4622.0255,0,.0514,0,.0775-.001.9287-.0357,1.7135-.6997,1.9023-1.6096l2.4862-11.9727c.1898-.9155-.2724-1.8418-1.1188-2.2392-.2755-.1306-.5694-.1925-.8599-.1925-.5988,0-1.185.2655-1.5786.7569-1.17,1.4613-2.3727,2.1708-3.6756,2.1708-.2583,0-.5297-.0265-.8063-.0797-.1356-.0255-.2617-.0498-.3808-.073l1.594-8.6242c.2728.052.5662.1085.9109.175,2.4267.4683,3.399,1.1213,3.762,1.4689.3603.3453,1.0545,1.2962,1.6533,3.7956.2181.9099,1.0321,1.5497,1.9653,1.5497h.0242c.9433-.0111,1.7535-.6741,1.9521-1.5962l1.9246-8.9395c.1133-.5268.0121-1.076-.2813-1.5276-.2933-.4505-.7544-.7659-1.2806-.8767-7.2858-1.5243-14.6957-2.8892-22.0472-4.0725,1.9795-5.3088,3.8802-10.2789,5.7903-15.1394.3719-.9477-.0184-2.0245-.9117-2.5128-.3066-.1682-.6392-.2479-.9686-.2479-.6303,0-1.2463.2944-1.6383.8357-1.326,1.8321-2.8087,3.0939-4.4071,3.7525-1.1097.4572-2.3982.6884-3.8317.6884-.6524,0-1.3498-.0475-2.0726-.1416-.4898-.0641-.8885-.1151-1.2638-.1637,0,0,2.5937-21.2442,3.4029-27.8859.2209-1.8076.5092-2.7319.7122-3.1868.2296-.5147.5874-.9355,1.0932-1.2874.6884-.4783,1.0106-1.3327.8086-2.1464-.2021-.8136-.885-1.4191-1.7174-1.5198-5.041-.6142-10.1909-1.1733-15.3079-1.6638-.0646-.0055-.1289-.0087-.1925-.0087-.7675,0-1.4772.4372-1.8175,1.1379-.3692.7582-.2281,1.6669.3542,2.2781.6154.6465.8042,1.096.854,1.3594.0625.3274.1355,1.2042-.0714,3.3793-.673,7.0711-1.3472,14.1421-2.0208,21.2133-.1732-.0465-.348-.072-.5229-.072-.6787,0-1.3366.3431-1.7164.9531-1.1949,1.9184-2.5841,3.2787-4.1298,4.0458-1.3367.6619-2.9009.984-4.7814.984-.3411,0-.6974-.0111-1.0583-.0332-.4909-.0309-.8905-.0541-1.267-.0762l1.4805-28.053c.0963-1.8176.3211-2.7607.4931-3.2302.1939-.5303.5209-.9751,1.0006-1.3604.6539-.5246.9156-1.399.6583-2.1961-.2579-.798-.9807-1.3537-1.8181-1.398-5.1247-.2678-10.2945-.4727-15.367-.6065-.0183-.0012-.0365-.0012-.0542-.0012-.5894,0-1.1351.2602-1.5127.6873-.3696-.4526-.9248-.7348-1.5315-.7437-2.1358-.0323-4.308-.0476-6.4578-.0476-2.7518,0-5.5545.0263-8.3308.0785-.7698.0143-1.465.466-1.7916,1.1633-.3268.6985-.2285,1.5211.2536,2.1221.4848.6043.7931,1.1667.9172,1.6715.0891.3609.2428,1.2983.2777,3.5278.093,6.9681.1882,13.9362.2834,20.9043l.0885,6.4701c.0299,1.8862-.1057,2.8228-.2247,3.2754-.1366.5203-.4306,1.0228-.8976,1.5364-.5442.5967-.6797,1.4611-.3454,2.1961.3286.7229,1.0489,1.1855,1.8397,1.1855.0139,0,.0277,0,.0414-.001,2.5836-.0521,5.2203-.0787,7.8372-.0787,1.9012,0,3.8371.0144,5.7565.0421h.0294c.4067,0,.7937-.1241,1.1192-.341.3215.2303.7078.3698,1.1229.381,6.7031.1735,13.5106.4879,20.224.9341.3886.3597.7385,1.9947.7303,3.8245-5.0217-.3719-10.0555-.6663-15.0638-.8744-.0275-.0013-.0558-.0023-.0834-.0023-.1574,0-.3111.0243-.4628.0598-.1743-.0543-.357-.0887-.5458-.094-2.9832-.0987-4.4295-.133-7.3693-.1739h-.0289c-.8261,0-1.5713.5047-1.8779,1.2742-.3098.7791-.1062,1.668.5103,2.2348.4577.4205.7544.8312.8357,1.1546.062.2468.202,1.0725.1588,3.4048l-.255,13.8c-3.5996-6.9934-7.3871-13.9627-11.3057-20.8014-.3608-.6287-1.03-1.0161-1.7533-1.0161h-.0438c-3.7429.0818-7.4619.2147-11.0539.3952-.8013.0409-1.5036.5512-1.7881,1.3017-.2851.7504-.0985,1.5983.475,2.1608.5041.4947.835.9951.985,1.4898.1112.3687.3139,1.3328.42,3.6506.4119,9.057.8243,18.1129,1.2353,27.1709.0876,1.9215-.0292,2.8791-.1421,3.3451-.1258.517-.409,1.0029-.8656,1.4866-.5668.601-.7114,1.4855-.3647,2.2349.3316.7185,1.0493,1.1745,1.8348,1.1745.0342,0,.0679-.0012.1029-.0033,2.8026-.1417,4.1875-.1981,7.0554-.2846.8175-.0253,1.5398-.54,1.8293-1.306.2889-.7651.0891-1.6295-.5076-2.1885-.4565-.4283-.7527-.8645-.8795-1.294-.104-.3521-.2887-1.262-.3645-3.4193,0,0-.418-11.9238-.4634-13.2212,3.7226,6.6506,7.3091,13.4039,10.7029,20.1606.3409.6796,1.0355,1.1113,1.7966,1.1147,3.2958.0155,4.9037.0432,8.1919.1372h.0575c.5152,0,1.0123-.196,1.388-.5512.3904-.3687.6171-.8769.6322-1.4125.2617-9.1776.5246-18.3563.7876-27.5337.1007.0364.2036.0696.3115.0896.1294.0255.259.0376.3863.0376.8363,0,1.6045-.5203,1.899-1.3317.555-1.5287,1.2591-2.7019,2.0938-3.4879.8251-.7769,1.7877-1.1723,2.9366-1.2044l-1.6211,27.5505c-.118,1.9912-.372,2.8912-.5124,3.2499-.2054.5237-.5393.9753-1.0196,1.3803-.6336.5347-.8767,1.4025-.6127,2.1884.264.786.9818,1.3317,1.8098,1.3749,4.1372.2182,8.3801.5223,12.6108.9054.0614.0055.1228.0077.1832.0077.7542,0,1.4529-.4217,1.7992-1.1024.3754-.735.2658-1.6251-.2772-2.2471-.4279-.4903-.6925-.9819-.7865-1.4589-.0724-.3653-.1666-1.2895.0094-3.3684l2.3402-27.4996c2.5392.3465,4.2146,2.2881,4.223,4.9768.0037,1.0727.845,1.9559,1.916,2.0126.0358.001.0714.002.1066.002.107,0,.2104-.0132.3127-.0287-.8262,7.0656-1.6531,14.1311-2.4772,21.1989-.2186,1.8983-.4638,2.8326-.6303,3.2821-.1927.519-.5187.9926-.9951,1.451-.564.5425-.7644,1.3604-.5148,2.1021.2495.7416.9043,1.2719,1.6813,1.3627,3.9418.4605,7.9424.9741,11.8901,1.5253.0942.0122.1872.0188.2796.0188.2314,0,.4572-.042.6703-.1173.2557.1893.5564.3187.885.3707,5.9231.9333,11.9248,2.0036,17.8299,3.1814.3226.7062.2716,2.9412-.1291,4.8218-.2213,1.035.3936,2.0655,1.4099,2.3622.1886.0554.3795.082.5683.082.8229,0,1.5912-.507,1.8924-1.315.6281-1.6815,1.2711-3.3851,1.9199-5.0976.2701.2891.6254.4993,1.0301.5912,4.1376.9354,8.3383,1.9692,12.4854,3.0717.1728.0466.3476.0686.5204.0686.6354,0,1.2468-.3009,1.6332-.8313.4919-.6741.5176-1.5817.0664-2.2837-.3663-.5688-.5529-1.0914-.5723-1.5961-.0144-.3796.0392-1.3139.5601-3.3152l1.0266-3.9485c.2747,1.2907.5442,2.5792.8092,3.8623.7682,4.0369,1.9334,6.8971,3.5627,8.7434,1.3527,1.5331,3.4692,2.7341,6.469,3.6707,1.2656.3963,2.4901.5966,3.6385.5966.4365,0,.8711-.0288,1.2901-.0865.8483-.115,1.5313-.7514,1.707-1.5894.1582-.7572-.1307-1.5308-.7286-2.0013-.1244-.1982-.523-.9619-1.104-3.3285-.8785-3.5755-1.5043-7.3312-2.1105-10.9632-.1111-.6707-.2236-1.3404-.3359-2.0078-.2989-1.7821-.4981-2.9413-.7401-4.2961,1.7933-.3343,3.4489-1.0935,4.9426-2.2702,2.1181-1.6694,3.5876-3.7957,4.3674-6.3207,1.0831-3.5102.7871-6.5165-.8817-8.9329ZM264.7168,206.3982l-.2835,10.7671c-.1488,5.6299-.2971,11.2585-.4443,16.8861-.056,2.1264-.3398,2.9312-.4577,3.178-.2254.4671-.59.8812-1.1014,1.2663-.2971-.3784-.4943-.7437-.5784-1.0879-.0859-.3443-.2253-1.2444-.2025-3.3995l.0571-5.4338c.0763-7.3125.1531-14.6248.2273-21.9361.021-1.9747.2098-2.9953.3653-3.5035.1728-.5668.4788-1.0373.936-1.4369.0652-.0575.124-.1207.1798-.1847.0608.074.1257.1449.1976.2114.5136.4703.8501.9321.9453,1.2972.0842.3233.2176,1.1923.1594,3.3763ZM298.6055,248.2788c-.0754-.0089-.1506-.0132-.2246-.0132-.1474,0-.2924.0188-.4329.0498-.1977-.0896-.4069-.1561-.626-.1782-2.8508-.2922-5.7184-.5556-8.593-.7948.3708-1.2509.7427-2.5006,1.1184-3.7514.1623.0598.3309.1052.5093.1218,6.6902.6365,13.4701,1.419,20.1422,2.3235.3581.3786.5901,2.0456.4704,3.8267-4.063-.5868-8.2156-1.1203-12.3638-1.5842ZM312.8239,258.59l-4.2882,27.153c-.3138,1.9891-.6785,2.8536-.869,3.1924-.1848.3299-.4409.6053-.7736.8357-.1113-.2824-.1827-.5558-.2037-.8137-.0299-.363-.0348-1.2939.2706-3.4503l3.8378-27.102c.2812-1.9837.5878-2.991.7953-3.4868.187-.4461.442-.8126.7672-1.117.368.496.5998.9819.673,1.4457.0597.3765.1117,1.3106-.2094,3.343ZM355.5619,271.6274c-.8792,3.126-1.8988,4.131-2.429,4.4521-.4422.2677-1.0467.4041-1.7949.4041-.1886,0-.3868-.009-.5935-.0267.9078-3.4879,1.8149-6.9759,2.7215-10.465.1015.02.2032.0431.3044.0698.926.2479,1.5337.6454,1.8597,1.2167.5064.8887.4827,2.392-.0682,4.349Z"/>
    </g>
    <g>
      <g>
        <path class="cls-5" d="M245.5459,190.7937c-1.23.8456-2.1507,1.832-2.7607,2.9521-.6106,1.1225-1.1119,2.7685-1.4949,4.9426-2.4662,13.9628-4.6856,27.9577-6.6538,41.9991-4.0459.2357-8.0823.5115-12.123.8281-2.5265-8.7315-5.1505-17.4299-7.872-26.1038-.9974,9.036-1.894,18.0774-2.6932,27.132-3.9279.4562-7.8453.9498-11.7634,1.4833-4.7809-13.3839-9.8119-26.6649-15.0929-39.8594-.8065-2.1054-1.6173-3.6386-2.4319-4.5972-.816-.9585-1.9089-1.7334-3.2826-2.3245,6.3819-1.078,12.7716-2.0444,19.1863-2.9057-.3342,1.4004-.4184,2.6975-.2628,3.8874.1185.9056.4771,2.2163,1.0671,3.932,3.1265,8.8643,6.1506,17.7596,9.0767,26.6925.6543-6.542,1.3574-13.0773,2.1148-19.6082.149-1.077.2177-2.1196.201-3.1326-.0177-1.0118-.0808-2.0445-.1898-3.0938-.2485-2.3877-.7914-4.3347-1.6432-5.8358-.852-1.5009-2.0069-2.7298-3.4654-3.6771,6.0258-.6831,12.0661-1.2421,18.1145-1.6761-.1539.4438-.2424.8116-.2674,1.1027-.1993,1.0714-.2634,2.0875-.1931,3.044.1129,1.5319.6585,3.9196,1.6144,7.1706,2.3305,7.9579,4.5816,15.9354,6.7573,23.9363,1.1878-9.3789,2.4757-18.7413,3.8599-28.0939.2263-1.3062.3205-2.4164.2789-3.3263-.0842-1.8663-.9095-3.3451-2.4911-4.419,4.137-.1869,8.2703-.3375,12.4103-.4493Z"/>
        <path class="cls-3" d="M261.903,200.1773c-.7423.6497-1.2541,1.4389-1.5375,2.3675-.2834.9277-.4345,2.2869-.4528,4.0726-.093,9.1232-.1892,18.2466-.2844,27.3699-.0188,1.8243.0686,3.127.2601,3.9051.1931.7805.6336,1.5409,1.3211,2.2881-4.5551-.0663-9.1106-.0553-13.6639.0377.683-.7515,1.1372-1.5441,1.3582-2.3833.2196-.8379.317-2.1121.2905-3.8199-.1246-9.1232-.2501-18.2467-.3725-27.3699-.0283-1.8631-.1404-3.1926-.3355-3.9851-.1947-.7914-.6281-1.6095-1.3033-2.4519,4.9065-.0929,9.8135-.104,14.72-.0308Z"/>
        <path class="cls-5" d="M313.8993,239.0726c-1.9635.8092-4.2678,1.0304-6.9349.6818-1.3006-.1694-1.951-.2512-3.2527-.4095,1.216-9.9625,2.4326-19.9249,3.6469-29.8882.202-1.656.4919-2.9125.8727-3.766.3809-.8533.9747-1.5597,1.7861-2.124-5.0809-.619-10.1611-1.1688-15.2557-1.6571.7721.8112,1.2302,1.6049,1.3764,2.3786.1461.7749.1313,2.0911-.0459,3.9451-.8734,9.1799-1.748,18.3598-2.6228,27.5383-.1765,1.8552-.4893,3.1716-.9309,3.9485-.4423.776-1.1076,1.4367-1.9904,1.9815,6.7767.644,13.5246,1.4234,20.2701,2.3378,3.0513.4327,2.043,7.1408,2.043,7.1408,2.0548-5.5325,4.1547-11.0495,6.3133-16.5432-1.5574,2.1509-3.3113,3.6273-5.2752,4.4356Z"/>
        <path class="cls-5" d="M286.5875,235.993c-1.9.9433-4.1793,1.3217-6.8602,1.158-1.3067-.0798-1.9611-.1163-3.2676-.185.529-10.0221,1.0588-20.0454,1.5867-30.0675.0876-1.667.2917-2.94.6128-3.8179.3203-.8766.8638-1.6238,1.6338-2.2415-5.1053-.2679-10.206-.4693-15.3156-.6053.8252.756,1.3366,1.5163,1.536,2.279.1986.7627.2728,2.0755.2241,3.9384-.2418,9.2185-.4869,18.4361-.7283,27.6533-.0488,1.863-.2701,3.1969-.657,4.0028-.388.8046-1.0056,1.5111-1.8486,2.1132,6.796.1759,13.5721.4902,20.3553.942,3.0685.2212,2.5234,6.9814,2.5234,6.9814,1.668-5.6609,3.386-11.3073,5.1538-16.9372-1.403,2.2526-3.0487,3.8454-4.9486,4.7863Z"/>
      </g>
      <g>
        <path class="cls-5" d="M166.8551,269.8739c-1.6387-2.2458-3.2752-3.6672-4.888-4.2595-1.6128-.5921-3.7094-.5545-6.2686.1374-1.5574.4206-2.3362.6353-3.8909,1.0738,1.4707,5.2191,2.9412,10.4394,4.4105,15.6586.9338-.2624,1.4005-.3919,2.3346-.6488,2.076-.57,3.5306-1.3847,4.363-2.4694.8312-1.0839,1.3941-2.628,1.6914-4.6337,1.2436,4.9324,2.4878,9.865,3.7332,14.7986-1.3749-1.634-2.8542-2.6954-4.4256-3.1714-1.2303-.373-2.5498-.3698-3.9406.0112-1.01.2765-1.5144.4171-2.5233.7007,1.4662,5.1969,2.9302,10.395,4.3956,15.5921.6122,2.1718,1.1904,3.6929,1.7301,4.5606.5419.8688,1.3726,1.5951,2.4907,2.1851-4.9941,1.4046-9.953,2.8902-14.8971,4.4631.6269-1.0605.9426-2.1574.9396-3.2887-.0032-1.1302-.3225-2.7041-.9612-4.7177-3.4236-10.7958-6.848-21.5918-10.2696-32.3888-.7111-2.2416-1.3886-3.8147-2.0367-4.7168-.6471-.8988-1.5928-1.5551-2.8392-1.9602,9.3107-2.9677,18.6843-5.6221,28.1685-7.9787.8949,3.6838,1.7876,7.3687,2.6836,11.0525Z"/>
        <path class="cls-5" d="M205.1668,291.044c-1.0251.6997-2.2865,1.1623-3.7908,1.4003-2.6611.4207-4.7588.3321-6.2996-.3034-1.9315-.7969-3.9855-2.6764-6.1959-5.6132-2.5455-3.2731-5.1169-6.5186-7.722-9.7442.8447,4.0878,1.6948,8.1746,2.5437,12.2614.3631,1.7478.7527,3.0064,1.1678,3.7724.4151.7659,1.066,1.4136,1.9532,1.9482-4.2212.8524-8.4259,1.7835-12.6124,2.7906.5606-.8125.875-1.6958.9386-2.6477.0644-.9531-.0924-2.2415-.4749-3.8665-2.1081-8.9774-4.2196-17.9533-6.3277-26.9306-.3996-1.7003-.8369-2.9245-1.3145-3.6695-.4775-.7449-1.1755-1.347-2.096-1.8053,1.5427-.3233,2.3147-.4803,3.8595-.7882,1.6603-.3818,4.4138-1.2099,8.2847-2.4031,1.9504-.6023,3.5599-1.0174,4.8162-1.2598,4.2185-.8159,7.4299-.5722,9.5817.6344,1.9997,1.1201,3.2345,3.1847,3.7166,6.1743.3586,2.224.0385,4.3592-.9276,6.4081-.9676,2.05-2.4685,3.5467-4.5125,4.5096,1.5607,2.1076,2.3323,3.1659,3.8571,5.2901,2.5947,3.6041,5.1499,7.2737,7.9876,10.6685,1.713,2.0502,2.905,3.114,3.5672,3.1736ZM186.2288,264.5054c-.8489-4.5407-2.9992-6.5021-6.4374-5.8114-.4139.0842-.8119.2047-1.1931.3631-.3826.1572-.7246.3077-1.0257.4483.9945,4.7898,1.9869,9.5805,2.982,14.3701,2.5969-.539,4.326-1.4745,5.1953-2.8482.8697-1.3713,1.035-3.5444.4789-6.5219Z"/>
        <path class="cls-5" d="M234.0808,267.2152c.3194,5.6896-.7954,11.6094-3.856,16.4744-2.3517,3.7382-6.1064,6.6383-10.5816,7.1275-4.4394.4838-8.8887-1.0117-12.0259-4.2384-3.7125-3.819-5.6346-9.0835-6.4099-14.2584-.8038-5.3587-.1535-11.0471,2.652-15.7637,2.5106-4.2196,6.8398-7.0788,11.7225-7.5926,4.6723-.4927,9.5129.7893,12.9531,4.1356,3.7764,3.6739,5.2613,9.0193,5.5458,14.1156ZM224.4228,270.6511c-.4814-4.6458-1.0083-9.4864-3.1896-13.6928-1.5729-3.0331-3.5924-4.462-5.8477-4.2263-1.9987.2104-3.5523,1.5841-4.4235,4.0081-1.2734,3.5467-1.0471,7.3225-.6464,10.9289.5298,4.7731,1.5172,9.8672,3.6281,14.4055,1.6132,3.4693,3.5265,5.102,5.6984,4.8783,1.8773-.1938,3.2812-1.6493,4.1181-4.318,1.1841-3.7747,1.0672-8.0861.6626-11.9837Z"/>
        <path class="cls-5" d="M268.1843,248.1096c-.678.7548-1.1402,1.5374-1.3908,2.3456-.2502.8067-.3992,2.0666-.4477,3.7734-.3234,11.2741-.6465,22.5482-.9676,33.8224-3.2947-.0942-4.9441-.1217-8.2394-.1374-4.6636-9.2848-9.5966-18.3971-14.8184-27.3788.2539,7.1385.4997,14.2783.7521,21.418.0636,1.823.2136,3.1315.4461,3.9196.2324.7882.7134,1.5177,1.4352,2.1951-2.8393.0863-4.2596.1427-7.0971.2877.6946-.736,1.1494-1.5329,1.3591-2.3965.2104-.8644.2773-2.1706.1978-3.9151-.4108-9.057-.8232-18.1138-1.236-27.1707-.0875-1.9395-.2547-3.3207-.5043-4.1444-.2485-.8235-.7498-1.6072-1.5049-2.3477,3.6635-.1849,7.3296-.3133,10.9964-.3931,5.2623,9.1854,10.2341,18.4991,14.9297,27.9866.1345-7.318.2699-14.6347.4051-21.9528.0348-1.9005-.0375-3.2133-.2192-3.9351-.1814-.7217-.6558-1.4389-1.4285-2.1496,2.9335.041,4.3995.0752,7.3324.1728Z"/>
        <path class="cls-5" d="M295.9811,260.6289c-.0129-3.9108-2.7664-6.8563-6.6899-7.038-.5595-.0497-.8384-.0729-1.3975-.1217-.8369,9.8397-1.6742,19.679-2.511,29.5175-.1523,1.7855-.1434,3.0961.0203,3.9306.1645.8347.5819,1.634,1.2477,2.3965-4.223-.3819-8.4533-.6873-12.6871-.9097.7362-.621,1.2691-1.3494,1.5978-2.1875.3276-.8345.5458-2.1264.6481-3.8697.5806-9.8639,1.1623-19.7288,1.7423-29.5927-.6182-.0365-.9281-.0544-1.5468-.0875-1.9321-.1064-3.5772.4859-4.9139,1.7446-1.0669,1.004-1.9403,2.4285-2.6077,4.2694.125-3.5112.2489-7.0233.3753-10.5358,9.3137.3874,18.583,1.0526,27.8573,2.0036-.378,3.4934-.7575,6.987-1.1349,10.4804Z"/>
        <path class="cls-5" d="M311.3999,251.965c-.7427.5601-1.2977,1.284-1.6703,2.1717-.3725.8888-.6825,2.2172-.9332,3.9851-1.2795,9.0335-2.5575,18.0682-3.8376,27.102-.2563,1.8054-.3492,3.1072-.284,3.8998.0652.7946.3515,1.5994.8534,2.4175-3.9751-.5546-7.9483-1.065-11.9349-1.5299.6914-.6651,1.1882-1.3979,1.4877-2.2048.2993-.8049.5491-2.058.7439-3.7547,1.0577-9.0625,2.1176-18.1252,3.178-27.1875.213-1.8509.285-3.1824.2147-3.9905-.0708-.808-.3475-1.6713-.8367-2.5869,4.3485.4872,8.6893,1.046,13.019,1.6782Z"/>
        <path class="cls-5" d="M327.7067,290.1164c-1.759.6908-3.8222.7992-6.211.3409-.9441-.1814-1.4158-.2699-2.3606-.4448.9332-5.0587,1.8687-10.1175,2.8023-15.176,1.1141.2057,1.6715.3109,2.7844.5246,1.1558.2226,2.0485.7062,2.6717,1.4456.6237.7395,1.1765,1.9315,1.6493,3.5755.8286-3.9906,1.6575-7.9821,2.4861-11.9725-1.8791,2.3455-4.0104,3.2774-6.4407,2.8124-.9409-.1803-1.4118-.2689-2.3544-.4426.7764-4.2008,1.553-8.4005,2.3295-12.6003,1.1655.216,1.748.3254,2.9129.5501,2.2587.435,3.8532,1.1092,4.7769,1.9937.9231.8833,1.6693,2.4807,2.2211,4.7842.7695-3.5766,1.1545-5.3642,1.9244-8.9408-7.6786-1.6062-15.3741-3.0207-23.1232-4.2473.6964.8524,1.1141,1.7258,1.2542,2.6113.1406.8855.0697,2.2127-.2086,3.975-1.4308,9.0513-2.8587,18.1017-4.2884,27.153-.2789,1.7633-.6469,3.053-1.1025,3.8654-.4555.8116-1.1346,1.4423-2.0318,1.8951,6.0692.9565,12.1038,2.0345,18.1295,3.24,2.6604.548,1.2335,7.1828,1.2335,7.1828,2.0351-5.4505,4.1129-10.8843,6.2297-16.3028-1.7686,2.0954-3.5249,3.4868-5.2843,4.1775Z"/>
        <path class="cls-5" d="M362.8218,304.3913c-1.2387.1683-2.5875.0213-4.053-.4361-2.594-.8102-4.4488-1.8242-5.5573-3.0795-1.3881-1.5739-2.4044-4.1697-3.0922-7.7848-.839-4.0637-1.7134-8.1139-2.6268-12.1619-1.0499,4.0391-2.1015,8.0782-3.151,12.1187-.4493,1.7278-.6558,3.0285-.6232,3.8986.0328.8712.3311,1.7411.8924,2.6145-4.1672-1.1091-8.3551-2.1397-12.5603-3.0907.8622-.4803,1.5335-1.1323,2.0133-1.958.4794-.8257.91-2.0512,1.288-3.6772,2.0849-8.9828,4.1725-17.9645,6.2582-26.946.3955-1.7014.5451-2.9943.447-3.8744-.0984-.8789-.4564-1.7268-1.0782-2.5448,1.5241.3929,2.2866.5933,3.8079,1.003,1.6589.394,4.4974.8711,8.5079,1.5186,2.0218.3276,3.654.6707,4.8932,1.0107,4.1615,1.1446,6.9519,2.7906,8.359,4.8295,1.3083,1.895,1.507,4.296.6139,7.1895-.6649,2.1519-1.903,3.923-3.6868,5.3276-1.7849,1.4069-3.8038,2.0788-6.0748,2.0324.4704,2.5836.6962,3.8753,1.1301,6.4568.7417,4.3867,1.4186,8.8133,2.4763,13.1193.6387,2.6001,1.2441,4.0856,1.8164,4.4342ZM357.5075,272.1752c1.2513-4.4464.1843-7.1596-3.2163-8.066-.4096-.1086-.822-.1771-1.2346-.2059-.4147-.0289-.7894-.0455-1.1224-.0521-1.2299,4.7344-2.4614,9.4687-3.694,14.2018,2.5748.6697,4.5467.599,5.9399-.2445,1.3931-.8436,2.5072-2.7175,3.3274-5.6333Z"/>
      </g>
    </g>
  </g>
</svg>