<?xml version="1.0" encoding="UTF-8"?>
<svg id="_レイヤー_2" data-name="レイヤー 2" xmlns="http://www.w3.org/2000/svg" viewBox="0 0 612.28 84.15">
  <defs>
    <style>
      .cls-1 {
        fill: #2e270f;
      }

      .cls-2 {
        fill: #23ab3a;
      }

      .cls-3 {
        fill: #8cae27;
      }

      .cls-4 {
        fill: #fff;
      }

      .cls-5 {
        fill: #094;
      }
    </style>
  </defs>
  <path class="cls-1" d="M436.48,32.23c-1.64,0-2.96,1.33-2.96,2.97s1.32,2.96,2.96,2.96,2.96-1.32,2.96-2.96-1.33-2.97-2.96-2.97ZM436.48,36.7c-.83,0-1.5-.67-1.5-1.49s.67-1.5,1.5-1.5,1.5.67,1.5,1.5-.67,1.49-1.5,1.49Z"/>
  <path class="cls-1" d="M457.23,32.23c-1.64,0-2.96,1.33-2.96,2.97s1.33,2.96,2.96,2.96,2.96-1.32,2.96-2.96-1.33-2.97-2.96-2.97ZM457.23,36.7c-.83,0-1.5-.67-1.5-1.49s.67-1.5,1.5-1.5,1.5.67,1.5,1.5-.67,1.49-1.5,1.49Z"/>
  <path class="cls-1" d="M448.9,27.43h15.5c.31,0,.55.25.55.55v1.84c0,.3-.25.55-.55.55h-15.5c-.3,0-.55-.25-.55-.55v-1.84c0-.3.25-.55.55-.55Z"/>
  <path class="cls-3" d="M448.9,23.27h15.5c.31,0,.55.25.55.55v2.62c0,.3-.25.55-.55.55h-15.5c-.3,0-.55-.25-.55-.55v-2.62c0-.3.25-.55.55-.55Z"/>
  <path class="cls-1" d="M448.9,20.68h15.5c.31,0,.55.25.55.55v1c0,.3-.25.55-.55.55h-15.5c-.3,0-.55-.25-.55-.55v-1.01c0-.3.25-.55.55-.55Z"/>
  <path class="cls-1" d="M446.03,20.68h1.32c.3,0,.55.25.55.55v8.6c0,.3-.25.55-.55.55h-1.32c-.3,0-.55-.25-.55-.55v-8.6c0-.3.25-.55.55-.55Z"/>
  <path class="cls-1" d="M465.93,20.68h1.32c.3,0,.55.25.55.55v8.6c0,.3-.25.55-.55.55h-1.32c-.31,0-.55-.25-.55-.55v-8.6c0-.3.25-.55.55-.55Z"/>
  <path class="cls-1" d="M443.9,21.99h.55c.3,0,.55.25.55.55v7.28c0,.3-.25.55-.55.55h-.55c-.31,0-.55-.25-.55-.55v-7.28c0-.3.25-.55.55-.55Z"/>
  <path class="cls-1" d="M463.48,30.92h-21.08v-10.58c0-.3-.25-.55-.55-.55h-10.58c-.3,0-.64.23-.75.51l-1.24,3.18c-.11.28-.29.74-.39,1.03l-.46,1.27c-.1.29-.19.77-.19,1.07v6.87c0,.3.25.55.55.55h3.96c.43-1.66,1.94-2.89,3.73-2.89s3.3,1.23,3.73,2.89h13.29c.43-1.66,1.93-2.89,3.73-2.89s3.3,1.23,3.72,2.89h2.53c.3,0,.55-.25.55-.55v-2.26c0-.3-.25-.55-.55-.55ZM436.37,26.49c0,.3-.22.65-.5.79l-5.08,2.39c-.27.13-.5-.01-.5-.32v-1.82c0-.3.24-.6.54-.65l4.99-.9c.3-.06.54.15.54.45v.06ZM438.2,23.62c0,.3-.25.59-.54.65l-6.82,1.25c-.3.05-.45-.13-.34-.41l1.29-3.33c.11-.29.45-.51.75-.51h5.1c.31,0,.55.24.55.55v1.81Z"/>
  <path class="cls-2" d="M591.71,38.17c-.23-.13-.5-.29-.67-.45-.23-.21-.29-2.33-.25-3.76.12-.07.23-.16.32-.27.29.36.74.59,1.23.59.72,0,1.33-.48,1.53-1.14.09.01.18.02.27.02.99,0,1.8-.81,1.8-1.8,0-.74-.45-1.38-1.09-1.65.78-.35,1.32-1.12,1.32-2.04,0-1.23-1-2.23-2.23-2.23-.07,0-.15,0-.22.02.07-.19.1-.39.1-.59,0-.98-.79-1.77-1.77-1.77-.57,0-1.07.27-1.39.68-.15-.69-.76-1.2-1.5-1.2-.85,0-1.54.69-1.54,1.54,0,.17.03.33.08.49-.23-.2-.52-.33-.85-.33-.7,0-1.26.57-1.26,1.26,0,.23.06.45.17.64-.76.13-1.35.79-1.35,1.59s.55,1.42,1.28,1.58c-.62.29-1.04.91-1.04,1.63,0,1,.81,1.82,1.81,1.82.12,0,.24-.02.36-.04,0,.05,0,.09,0,.14,0,.79.64,1.43,1.44,1.43.46,0,.88-.22,1.14-.57.01.01.04.02.05.04-.04,1.39-.15,3.62-.33,3.82-.19.21-.72.39-.88.55h-10.7v-5.14h2.32c.2,0,.26-.13.14-.29l-8.26-10.4c-.12-.15-.33-.15-.45,0l-8.26,10.4c-.12.16-.06.29.14.29h2.52v5.14h-24.29v-11.26h-5.55v-7.56h-21.78v7.56h-5.56v11.26h-15.77c-.23-.13-.5-.29-.67-.45-.23-.21-.29-2.33-.25-3.76.12-.07.23-.16.32-.27.29.36.74.59,1.23.59.72,0,1.33-.48,1.52-1.14.09.01.18.02.27.02.99,0,1.8-.81,1.8-1.8,0-.74-.45-1.38-1.09-1.65.78-.35,1.32-1.12,1.32-2.04,0-1.23-1-2.23-2.23-2.23-.07,0-.15,0-.22.02.07-.19.1-.39.1-.59,0-.98-.79-1.77-1.77-1.77-.57,0-1.07.27-1.39.68-.15-.69-.77-1.2-1.5-1.2-.85,0-1.54.69-1.54,1.54,0,.17.03.33.08.49-.22-.2-.52-.33-.85-.33-.7,0-1.27.57-1.27,1.26,0,.23.07.45.17.64-.76.13-1.34.79-1.34,1.59s.55,1.42,1.28,1.58c-.62.29-1.04.91-1.04,1.63,0,1,.81,1.82,1.81,1.82.12,0,.24-.02.36-.04,0,.05,0,.09,0,.14,0,.79.64,1.43,1.43,1.43.47,0,.88-.22,1.14-.57.01.01.04.02.05.04-.04,1.39-.15,3.62-.33,3.82-.19.21-.73.39-.89.55h-96.6c-.23-.13-.5-.29-.67-.45-.23-.21-.29-2.33-.25-3.76.12-.07.23-.16.32-.27.29.36.74.59,1.23.59.72,0,1.33-.48,1.53-1.14.09.01.18.02.27.02,1,0,1.8-.81,1.8-1.8,0-.74-.45-1.38-1.09-1.65.78-.35,1.32-1.12,1.32-2.04,0-1.23-1-2.23-2.23-2.23-.07,0-.15,0-.21.02.06-.19.1-.39.1-.59,0-.98-.79-1.77-1.77-1.77-.56,0-1.07.27-1.39.68-.15-.69-.76-1.2-1.5-1.2-.85,0-1.54.69-1.54,1.54,0,.17.03.33.08.49-.22-.2-.52-.33-.85-.33-.7,0-1.26.57-1.26,1.26,0,.23.06.45.17.64-.77.13-1.35.79-1.35,1.59s.55,1.42,1.28,1.58c-.61.29-1.04.91-1.04,1.63,0,1,.81,1.82,1.81,1.82.12,0,.24-.02.36-.04,0,.05,0,.09,0,.14,0,.79.64,1.43,1.44,1.43.46,0,.88-.22,1.14-.57.01.01.03.02.05.03-.04,1.39-.15,3.62-.33,3.82-.19.21-.73.39-.89.55h-29.48v-16.24h-3.26v-2.9h-5.07v-3.87h-6.4v23.01h-11.8c-.23-.13-.5-.29-.67-.45-.23-.21-.29-2.33-.25-3.76.12-.07.23-.16.32-.27.29.36.73.59,1.23.59.72,0,1.33-.48,1.52-1.14.09.01.18.02.28.02.99,0,1.8-.81,1.8-1.8,0-.74-.45-1.38-1.09-1.65.78-.35,1.32-1.12,1.32-2.04,0-1.23-1-2.23-2.23-2.23-.07,0-.15,0-.22.02.07-.19.1-.39.1-.59,0-.98-.79-1.77-1.77-1.77-.56,0-1.07.27-1.39.68-.16-.69-.77-1.2-1.5-1.2-.85,0-1.54.69-1.54,1.54,0,.17.03.33.08.49-.23-.2-.52-.33-.85-.33-.7,0-1.26.57-1.26,1.26,0,.23.06.45.18.64-.76.13-1.35.79-1.35,1.59s.55,1.42,1.28,1.58c-.62.29-1.04.91-1.04,1.63,0,1,.81,1.82,1.81,1.82.12,0,.24-.02.36-.04,0,.05,0,.09,0,.14,0,.79.64,1.43,1.43,1.43.46,0,.88-.22,1.14-.57.01.01.04.02.05.04-.04,1.39-.15,3.62-.33,3.82-.19.21-.72.39-.89.55h-38.18v-15.38h-27.32v15.38h-20.26c-.23-.13-.5-.29-.67-.45-.23-.21-.29-2.33-.25-3.76.12-.07.23-.16.32-.27.29.36.74.59,1.23.59.72,0,1.33-.48,1.53-1.14.09.01.18.02.27.02.99,0,1.8-.81,1.8-1.8,0-.74-.45-1.38-1.09-1.65.78-.35,1.32-1.12,1.32-2.04,0-1.23-1-2.23-2.23-2.23-.07,0-.15,0-.22.02.06-.19.1-.39.1-.59,0-.98-.79-1.77-1.77-1.77-.56,0-1.07.27-1.39.68-.15-.69-.77-1.2-1.5-1.2-.85,0-1.54.69-1.54,1.54,0,.17.03.33.08.49-.23-.2-.52-.33-.85-.33-.7,0-1.27.57-1.27,1.26,0,.23.06.45.17.64-.76.13-1.35.79-1.35,1.59s.55,1.42,1.28,1.58c-.62.29-1.05.91-1.05,1.63,0,1,.81,1.82,1.81,1.82.12,0,.24-.02.36-.04,0,.05,0,.09,0,.14,0,.79.64,1.43,1.43,1.43.47,0,.88-.22,1.14-.57.01.02.04.02.05.04-.04,1.39-.15,3.62-.33,3.81-.19.21-.72.39-.89.55h-16.58v-5.14h2.32c.2,0,.26-.13.14-.29l-8.26-10.4c-.13-.15-.33-.15-.45,0l-8.26,10.4c-.13.16-.06.29.14.29h2.52v5.14h-10.84v-11.26h-5.55v-7.56h-21.78v7.56h-5.56v11.26h-23.71V0h-37.2v38.17h-3.97v-16.24h-3.26v-2.9h-5.08v-3.87h-6.4v23.01h-16.07c-.23-.13-.51-.29-.67-.45-.23-.21-.29-2.33-.25-3.76.12-.07.23-.16.32-.27.29.36.74.59,1.23.59.72,0,1.33-.48,1.53-1.14.09.01.18.02.27.02.99,0,1.8-.81,1.8-1.8,0-.74-.45-1.38-1.09-1.65.78-.35,1.32-1.12,1.32-2.04,0-1.23-1-2.23-2.23-2.23-.07,0-.15,0-.21.02.06-.19.1-.39.1-.59,0-.98-.79-1.77-1.77-1.77-.57,0-1.07.27-1.39.68-.15-.69-.77-1.2-1.5-1.2-.85,0-1.54.69-1.54,1.54,0,.17.03.33.08.49-.23-.2-.52-.33-.85-.33-.7,0-1.26.57-1.26,1.26,0,.23.06.45.17.64-.77.13-1.34.79-1.34,1.59s.54,1.42,1.28,1.58c-.62.29-1.04.91-1.04,1.63,0,1,.81,1.82,1.81,1.82.12,0,.24-.02.36-.04,0,.05,0,.09,0,.14,0,.79.64,1.43,1.44,1.43.47,0,.88-.22,1.14-.57.01.02.04.02.05.04-.04,1.39-.15,3.62-.33,3.81-.19.21-.73.39-.89.55h-18.45V8.62h-16.69V2.29h-7.85v35.89H0v45.98h612.28v-45.98h-20.57ZM571.94,31.85h1.58v1.58h-1.58v-1.58ZM571.94,34.32h1.58v1.58h-1.58v-1.58ZM569.47,31.85h1.59v1.58h-1.59v-1.58ZM569.47,34.32h1.59v1.58h-1.59v-1.58ZM535.71,31.67h1.43v3.21h-1.43v-3.21ZM532.66,34.88h-1.43v-3.21h1.43v3.21ZM531.21,23.02h1.43v3.21h-1.43v-3.21ZM526.55,23.02h1.43v3.21h-1.43v-3.21ZM526.55,31.5h1.43v3.21h-1.43v-3.21ZM521.89,23.02h1.43v3.21h-1.43v-3.21ZM521.89,31.5h1.43v3.21h-1.43v-3.21ZM517.23,23.02h1.43v3.21h-1.43v-3.21ZM517.21,31.67h1.43v3.21h-1.43v-3.21ZM512.72,31.67h1.43v3.21h-1.43v-3.21ZM356.35,24.4h1.15v2.01h-1.15v-2.01ZM356.35,28.72h1.15v2h-1.15v-2ZM356.35,33.03h1.15v2.01h-1.15v-2.01ZM352.14,24.4h1.15v2.01h-1.15v-2.01ZM352.14,28.72h1.15v2h-1.15v-2ZM352.14,33.03h1.15v2.01h-1.15v-2.01ZM347.94,24.4h1.15v2.01h-1.15v-2.01ZM347.94,28.72h1.15v2h-1.15v-2ZM347.94,33.03h1.15v2.01h-1.15v-2.01ZM284.58,25.86h1.55v2.71h-1.55v-2.71ZM284.58,31.1h1.55v2.71h-1.55v-2.71ZM279.55,25.86h1.55v2.71h-1.55v-2.71ZM279.55,31.1h1.55v2.71h-1.55v-2.71ZM274.52,25.86h1.54v2.71h-1.54v-2.71ZM274.52,31.1h1.54v2.71h-1.54v-2.71ZM269.49,25.86h1.55v2.71h-1.55v-2.71ZM269.49,31.1h1.55v2.71h-1.55v-2.71ZM218.24,31.85h1.58v1.58h-1.58v-1.58ZM218.24,34.32h1.58v1.58h-1.58v-1.58ZM215.78,31.85h1.58v1.58h-1.58v-1.58ZM215.78,34.32h1.58v1.58h-1.58v-1.58ZM195.46,31.67h1.43v3.21h-1.43v-3.21ZM192.41,34.88h-1.43v-3.21h1.43v3.21ZM190.96,23.02h1.43v3.21h-1.43v-3.21ZM186.3,23.02h1.43v3.21h-1.43v-3.21ZM186.3,31.5h1.43v3.21h-1.43v-3.21ZM181.64,23.02h1.43v3.21h-1.43v-3.21ZM181.64,31.5h1.43v3.21h-1.43v-3.21ZM176.98,23.02h1.43v3.21h-1.43v-3.21ZM176.96,31.67h1.43v3.21h-1.43v-3.21ZM172.48,31.67h1.43v3.21h-1.43v-3.21ZM100.04,24.4h1.15v2.01h-1.15v-2.01ZM100.04,28.72h1.15v2h-1.15v-2ZM100.04,33.03h1.15v2.01h-1.15v-2.01ZM95.84,24.4h1.15v2.01h-1.15v-2.01ZM95.84,28.72h1.15v2h-1.15v-2ZM95.84,33.03h1.15v2.01h-1.15v-2.01ZM91.63,24.4h1.15v2.01h-1.15v-2.01ZM91.63,28.72h1.15v2h-1.15v-2ZM91.63,33.03h1.15v2.01h-1.15v-2.01ZM44.49,12.16h1.4v2.46h-1.4v-2.46ZM44.49,18.54h1.4v2.46h-1.4v-2.46ZM44.49,24.94h1.4v2.46h-1.4v-2.46ZM44.49,31.33h1.4v2.46h-1.4v-2.46ZM39.92,12.16h1.4v2.46h-1.4v-2.46ZM39.92,18.54h1.4v2.46h-1.4v-2.46ZM39.92,24.94h1.4v2.46h-1.4v-2.46ZM39.92,31.33h1.4v2.46h-1.4v-2.46ZM35.36,12.16h1.4v2.46h-1.4v-2.46ZM35.36,18.54h1.4v2.46h-1.4v-2.46ZM35.36,24.94h1.4v2.46h-1.4v-2.46ZM35.36,31.33h1.4v2.46h-1.4v-2.46ZM30.79,12.16h1.4v2.46h-1.4v-2.46ZM30.79,18.54h1.4v2.46h-1.4v-2.46ZM30.79,24.94h1.4v2.46h-1.4v-2.46ZM30.79,31.33h1.4v2.46h-1.4v-2.46ZM111.53,8.59h28.81v2.1h-28.81v-2.1ZM111.53,13.31h28.81v2.1h-28.81v-2.1ZM111.53,18.03h28.81v2.1h-28.81v-2.1ZM111.53,22.75h28.81v2.1h-28.81v-2.1ZM122.24,29.48h7.39v8.69h-7.39v-8.69Z"/>
  <g>
    <g>
      <path class="cls-4" d="M450.78,24.54s.03.02.03.04c0,.03-.02.03-.08.04-.02.04-.09.22-.11.25h1.09v.33h-.4s0,.01,0,.02c0,.03-.02.04-.07.05-.09.21-.15.3-.2.37.29.16.5.34.57.41-.14.1-.17.14-.27.29-.18-.16-.34-.29-.55-.42-.29.26-.64.37-1.01.43-.04-.15-.08-.23-.16-.38.4,0,.66-.11.83-.22-.12-.04-.19-.07-.25-.09-.01.02-.04.07-.07.1-.12-.09-.27-.14-.34-.16.13-.16.23-.31.27-.39h-.5v-.33h.67c.05-.11.11-.26.16-.38h-.42v.26h-.36v-.6h.84v-.22h.39s.05.02.05.05c0,.03-.04.04-.07.05v.12h.84v.6h-.34v-.26h-.64l.11.05ZM450.47,25.2s-.06.1-.09.16c.1.03.21.07.35.12.04-.05.09-.12.16-.28h-.42Z"/>
      <path class="cls-4" d="M453.83,25.37h.48v.35h-.48v.23h.81v.35h-1.99v-.35h.81v-.23h-.46v-.35h.46v-.21h-.48v-.14c-.15.12-.2.15-.23.16-.02-.05-.06-.14-.27-.29.13-.06.68-.34.98-.98l.37.05s.05.01.05.04c0,.04-.04.05-.05.06.08.13.25.28.4.4.2.17.35.25.55.34-.11.12-.16.19-.23.32-.06-.03-.12-.05-.21-.11v.14h-.51v.21ZM454.05,24.8c-.18-.15-.32-.29-.44-.44-.02.04-.14.22-.38.44h.82Z"/>
      <path class="cls-4" d="M459.07,25.74s-.02.08-.02.1c-.12-.02-.19-.03-.34-.04.07-.29.11-.5.12-.79l.32.04h.36v-.09h-.77v-.31h.03c-.11-.06-.2-.09-.25-.1.19-.25.28-.47.33-.62l.32.07s.04,0,.04.03c0,.03-.03.04-.06.04,0,.03-.02.04-.02.06h.52v.17c.12-.19.17-.31.2-.39l.31.07s.05.01.05.04c0,.03-.04.04-.07.05,0,.02-.01.03-.02.05h.62v.29h-.32c.03.07.04.1.05.14-.17.02-.27.06-.34.08-.02-.12-.04-.16-.06-.22h-.1c-.06.1-.09.16-.15.23h.79v.7h-.75v.09h.88c0,.15-.05.59-.14.73-.04.05-.1.12-.44.1-.02-.14-.06-.26-.11-.37.12.03.19.03.21.03.06,0,.08-.04.1-.18h-.5v.6h-.33v-.45c-.21.23-.44.37-.72.46-.1-.2-.19-.25-.25-.28.16-.04.45-.11.68-.34h-.15ZM459.38,24.41s.07.14.08.16c-.1.01-.28.06-.32.07-.03-.1-.07-.2-.08-.23h-.07c-.05.1-.09.16-.14.23h.89s-.13-.08-.28-.13c.03-.03.06-.06.09-.1h-.16ZM459.51,25.33h-.37s0,.08-.01.09h.38v-.09ZM459.83,25.04h.41v-.09h-.41v.09Z"/>
      <path class="cls-4" d="M463.74,24.93v.44h-2.12v-.44h2.12Z"/>
    </g>
    <g>
      <rect class="cls-5" x="455.49" y="24.85" width="2.27" height=".64"/>
      <rect class="cls-5" x="456.31" y="24.03" width=".64" height="2.27"/>
    </g>
  </g>
</svg>