<?xml version="1.0" encoding="UTF-8"?>
<svg id="_レイヤー_2" data-name="レイヤー 2" xmlns="http://www.w3.org/2000/svg" viewBox="0 0 1207.56 56.7">
  <defs>
    <style>
      .cls-1 {
        fill: #2e270f;
      }

      .cls-2 {
        fill: #23ab3a;
      }

      .cls-3 {
        fill: #8cae27;
      }

      .cls-4 {
        fill: #fff;
      }

      .cls-5 {
        fill: #094;
      }
    </style>
  </defs>
  <rect class="cls-2" y="31.66" width="604.25" height="25.04"/>
  <g>
    <path class="cls-2" d="M190.4,18.72c1.08-.23,1.89-1.19,1.89-2.34s-.86-2.17-1.99-2.36c.16-.28.26-.6.26-.94,0-1.03-.84-1.87-1.87-1.87-.48,0-.92.19-1.26.49.08-.23.12-.47.12-.72,0-1.26-1.02-2.28-2.28-2.28-1.09,0-1.99.76-2.22,1.78-.48-.61-1.23-1.01-2.06-1.01-1.45,0-2.63,1.18-2.63,2.63,0,.3.05.59.15.87-.11-.01-.21-.02-.32-.02-1.82,0-3.3,1.48-3.3,3.3,0,1.34.81,2.5,1.96,3.02-.95.41-1.61,1.35-1.61,2.45,0,1.47,1.19,2.66,2.67,2.66.14,0,.27-.01.4-.03.29.98,1.19,1.7,2.26,1.7.74,0,1.4-.34,1.83-.87.31.39.78.64,1.32.64.48,0,.92-.21,1.23-.53.39.51,1,.84,1.69.84,1.17,0,2.12-.95,2.12-2.12,0-.07,0-.14-.01-.21.17.03.35.05.53.05,1.48,0,2.68-1.2,2.68-2.68,0-1.08-.63-2-1.55-2.43Z"/>
    <path class="cls-2" d="M182.62,19.55c-.49-.31-1.35-.85-1.54-.54-.11.18.63.42,1.15.86.38.32.54.75.7,1.3.27.96-.05,1.59-.73,1.26-.83-.4-1.36-.53-1.74-.45-.39.08.2.25.63.44.42.19,1.38.76,1.61,1.26.23.5.29,6.99-.22,7.45-.5.46-1.7.97-1.54,1.12.15.15,1.58-.46,1.74-.42.15.04-.62,1.04-.31,1.08.31.04.77-.93,1.01-1,.23-.08.5.81.77.69.27-.12-.08-.62.15-.69.23-.08,1.08.73,1.31.58.23-.15-.7-.77-.42-.81.27-.04,1.47.54,1.54.27.08-.27-1.04-.58-1.39-.97-.35-.38-.52-5.82-.52-7.06,0-1.08-.13-1.61.8-2.37.49-.4.9-.48.89-.6,0-.12-.42-.23-.98.09-.67.38-1.05,1.11-1.12.33-.07-.84.58-1.66,1.09-2.12.59-.54-.26-.52-.92.42-.26.37-.39.24-.47-.36-.13-1.07-.04-2.32-.32-2.45-.26-.13-.27.92-.27,1.96,0,1.05-.49,1-.92.73Z"/>
  </g>
  <g>
    <path class="cls-2" d="M157.9,13.91c1.08-.23,1.89-1.19,1.89-2.34s-.86-2.17-1.99-2.36c.16-.28.26-.6.26-.94,0-1.03-.84-1.87-1.87-1.87-.48,0-.92.19-1.26.49.08-.23.12-.47.12-.72,0-1.26-1.02-2.28-2.28-2.28-1.09,0-1.99.76-2.22,1.78-.48-.61-1.23-1.01-2.06-1.01-1.45,0-2.63,1.18-2.63,2.63,0,.3.05.59.15.87-.11-.01-.21-.02-.32-.02-1.82,0-3.3,1.48-3.3,3.3,0,1.34.81,2.5,1.96,3.02-.95.41-1.61,1.35-1.61,2.45,0,1.47,1.19,2.67,2.67,2.67.14,0,.27-.01.4-.03.29.98,1.19,1.7,2.26,1.7.74,0,1.4-.34,1.83-.87.31.39.78.64,1.32.64.48,0,.92-.21,1.23-.53.39.51,1,.84,1.69.84,1.17,0,2.12-.95,2.12-2.12,0-.07,0-.14-.01-.21.17.03.35.05.53.05,1.48,0,2.68-1.2,2.68-2.68,0-1.08-.63-2-1.55-2.43Z"/>
    <path class="cls-2" d="M150.12,14.74c-.49-.31-1.35-.85-1.54-.54-.11.18.63.42,1.15.86.38.32.54.75.7,1.3.27.96-.05,1.59-.73,1.26-.83-.4-1.36-.53-1.74-.45-.39.08.2.25.63.44.42.19,1.38.76,1.61,1.26.23.5.29,16.03-.22,16.49-.5.46-1.7.97-1.54,1.12.15.15,1.58-.46,1.74-.42.15.04-.62,1.04-.31,1.08.31.04.77-.93,1.01-1,.23-.08.5.81.77.69.27-.12-.08-.62.15-.69.23-.08,1.08.73,1.31.58.23-.15-.7-.77-.42-.81.27-.04,1.47.54,1.54.27.08-.27-1.04-.58-1.39-.97-.35-.38-.52-14.86-.52-16.11,0-1.08-.13-1.61.8-2.37.49-.4.9-.48.89-.6,0-.12-.42-.23-.98.09-.67.38-1.05,1.11-1.12.34-.07-.84.58-1.66,1.09-2.12.59-.54-.26-.52-.92.42-.26.37-.39.24-.47-.36-.13-1.07-.04-2.32-.32-2.45-.26-.13-.27.92-.27,1.96,0,1.05-.49,1-.92.73Z"/>
  </g>
  <g>
    <path class="cls-2" d="M434.1,18.72c1.08-.23,1.89-1.19,1.89-2.34s-.86-2.17-1.99-2.36c.16-.28.26-.6.26-.94,0-1.03-.84-1.87-1.87-1.87-.48,0-.92.19-1.26.49.08-.23.12-.47.12-.72,0-1.26-1.02-2.28-2.28-2.28-1.09,0-1.99.76-2.22,1.78-.48-.61-1.23-1.01-2.06-1.01-1.45,0-2.63,1.18-2.63,2.63,0,.3.05.59.15.87-.11-.01-.21-.02-.32-.02-1.82,0-3.3,1.48-3.3,3.3,0,1.34.81,2.5,1.96,3.02-.95.41-1.61,1.35-1.61,2.45,0,1.47,1.19,2.66,2.67,2.66.14,0,.27-.01.4-.03.29.98,1.19,1.7,2.26,1.7.74,0,1.4-.34,1.83-.87.31.39.78.64,1.32.64.48,0,.92-.21,1.22-.53.39.51,1,.84,1.69.84,1.17,0,2.12-.95,2.12-2.12,0-.07,0-.14-.01-.21.17.03.35.05.53.05,1.48,0,2.68-1.2,2.68-2.68,0-1.08-.63-2-1.55-2.43Z"/>
    <path class="cls-2" d="M426.33,19.55c-.49-.31-1.35-.85-1.54-.54-.11.18.63.42,1.15.86.38.32.54.75.7,1.3.27.96-.05,1.59-.73,1.26-.83-.4-1.36-.53-1.74-.45-.39.08.2.25.63.44.43.19,1.38.76,1.61,1.26.23.5.29,6.99-.22,7.45-.5.46-1.7.97-1.54,1.12.15.15,1.58-.46,1.74-.42.15.04-.62,1.04-.31,1.08.31.04.77-.93,1.01-1,.23-.08.5.81.77.69.27-.12-.08-.62.15-.69.23-.08,1.08.73,1.31.58.23-.15-.69-.77-.42-.81.27-.04,1.47.54,1.54.27.08-.27-1.04-.58-1.39-.97-.35-.38-.52-5.82-.52-7.06,0-1.08-.13-1.61.8-2.37.49-.4.9-.48.89-.6,0-.12-.42-.23-.98.09-.67.38-1.05,1.11-1.12.33-.08-.84.58-1.66,1.09-2.12.59-.54-.26-.52-.92.42-.26.37-.39.24-.47-.36-.13-1.07-.04-2.32-.32-2.45-.27-.13-.27.92-.27,1.96,0,1.05-.49,1-.92.73Z"/>
  </g>
  <g>
    <path class="cls-2" d="M75.07,23.93s0,7.69-.61,8.79c-.61,1.1-1.25,2.05-2.2,2.39-.95.34-1.02.83-.15.87.87.04,1.59-.19,2.12-.64.53-.45.72-.26.72.11s-.61,1.48-.34,1.67c.27.19.42.34.68-.11.27-.45.42-1.1.79-1.48.38-.38.91.08,1.1.42.19.34.27,1.33.72,1.36.45.04.64-.3.38-.87-.26-.57-.3-1.21.08-1.25.38-.04,1.52.99,2.73,1.14,1.21.15.68-.57-.34-1.02-1.02-.45-1.97-1.7-2.27-2.69-.3-.98-.68-7.69-.49-9.02,0,0,.8-1.4,1.93-1.55,1.14-.15-.57-.95-1.63-.26-1.23.79-.99.61-1.21.64-.23.04-.42-1.33-1.52-1.86-.77-.37-.19.46.08,1.1.27.64-.05,1.5-.42,1.14-.11-.11-.83-.72-1.4-.61-.78.16.91.61,1.25,1.74Z"/>
    <path class="cls-2" d="M90.75,18.61c.04-.19.07-.39.07-.6,0-1.36-1-2.47-2.3-2.67.19-.31.29-.67.29-1.06,0-1.15-.93-2.08-2.08-2.08-.13,0-.27.01-.39.04.09-.34.14-.7.14-1.07,0-2.06-1.48-3.77-3.43-4.14.23-.41.37-.88.37-1.39,0-1.27-.82-2.34-1.96-2.71-.34-.15-.71-.24-1.1-.24-.29,0-.57.05-.82.13h0c0-1.57-1.26-2.83-2.81-2.83s-2.81,1.26-2.81,2.81h0c-.26-.07-.54-.12-.82-.12-.39,0-.76.09-1.1.24-1.14.38-1.96,1.45-1.96,2.71,0,.5.14.98.37,1.39-1.95.37-3.43,2.08-3.43,4.14,0,.37.05.73.14,1.07-.13-.02-.26-.04-.39-.04-1.15,0-2.08.93-2.08,2.08,0,.39.11.75.29,1.06-1.3.19-2.31,1.31-2.31,2.67,0,.21.02.41.07.6-1.28.05-2.31,1.1-2.31,2.4s1.07,2.4,2.4,2.4c.4,0,.78-.1,1.11-.27.82,1.24,2.23,2.06,3.83,2.06.76,0,1.47-.19,2.1-.51.44.98,1.42,1.66,2.56,1.66.8,0,1.52-.34,2.03-.88.41.24.89.37,1.4.37.32,0,.63-.06.91-.16.29.1.59.16.91.16.51,0,.98-.14,1.4-.37.51.54,1.23.88,2.03.88,1.14,0,2.12-.68,2.56-1.66.63.33,1.34.51,2.1.51,1.6,0,3-.82,3.83-2.06.33.17.71.27,1.11.27,1.33,0,2.4-1.08,2.4-2.4s-1.03-2.35-2.31-2.4Z"/>
  </g>
  <g>
    <path class="cls-2" d="M384.21,22.95l-15.37-19.35c-.23-.29-.61-.29-.84,0l-15.37,19.35c-.23.29-.12.53.26.53h4.32v8.8c0,.37.31.68.68.68h20.7c.37,0,.68-.3.68-.68v-8.8h4.69c.37,0,.49-.24.26-.53ZM367.61,28.82h-2.94v-2.94h2.94v2.94ZM367.61,24.22h-2.94v-2.94h2.94v2.94ZM372.18,28.82h-2.94v-2.94h2.94v2.94ZM372.18,24.22h-2.94v-2.94h2.94v2.94Z"/>
    <rect class="cls-2" x="374.19" y="6.47" width="3.03" height="10.25"/>
  </g>
  <rect class="cls-2" x="599.56" y="31.66" width="608" height="25.04"/>
  <g>
    <path class="cls-2" d="M1015.97,18.72c1.08-.23,1.89-1.19,1.89-2.34s-.86-2.17-2-2.36c.16-.28.26-.6.26-.94,0-1.03-.84-1.87-1.87-1.87-.48,0-.92.19-1.26.49.08-.23.12-.47.12-.72,0-1.26-1.02-2.28-2.28-2.28-1.09,0-1.99.76-2.22,1.78-.48-.61-1.23-1.01-2.06-1.01-1.45,0-2.63,1.18-2.63,2.63,0,.3.05.59.15.87-.11-.01-.21-.02-.32-.02-1.82,0-3.3,1.48-3.3,3.3,0,1.34.81,2.5,1.96,3.02-.95.41-1.61,1.35-1.61,2.45,0,1.47,1.19,2.66,2.66,2.66.14,0,.27-.01.41-.03.29.98,1.19,1.7,2.26,1.7.74,0,1.4-.34,1.83-.87.31.39.78.64,1.32.64.48,0,.92-.21,1.22-.53.39.51,1,.84,1.69.84,1.17,0,2.12-.95,2.12-2.12,0-.07,0-.14-.01-.21.17.03.35.05.53.05,1.48,0,2.69-1.2,2.69-2.68,0-1.08-.63-2-1.55-2.43Z"/>
    <path class="cls-2" d="M1008.19,19.55c-.49-.31-1.35-.85-1.54-.54-.11.18.62.42,1.15.86.38.32.54.75.7,1.3.27.96-.05,1.59-.73,1.26-.83-.4-1.36-.53-1.74-.45-.39.08.2.25.62.44.42.19,1.38.76,1.61,1.26.23.5.29,6.99-.21,7.45-.5.46-1.7.97-1.54,1.12.16.15,1.58-.46,1.74-.42.15.04-.62,1.04-.31,1.08.31.04.77-.93,1-1,.23-.08.5.81.77.69.27-.12-.08-.62.15-.69.23-.08,1.08.73,1.31.58.23-.15-.7-.77-.42-.81.27-.04,1.47.54,1.54.27.08-.27-1.04-.58-1.39-.97-.35-.38-.52-5.82-.52-7.06,0-1.08-.13-1.61.8-2.37.49-.4.9-.48.89-.6,0-.12-.42-.23-.98.09-.67.38-1.05,1.11-1.12.33-.07-.84.58-1.66,1.09-2.12.59-.54-.26-.52-.92.42-.26.37-.4.24-.47-.36-.13-1.07-.04-2.32-.32-2.45-.27-.13-.27.92-.27,1.96,0,1.05-.49,1-.92.73Z"/>
  </g>
  <g>
    <path class="cls-2" d="M919.49,18.72c1.08-.23,1.89-1.19,1.89-2.34s-.86-2.17-2-2.36c.16-.28.26-.6.26-.94,0-1.03-.84-1.87-1.87-1.87-.48,0-.92.19-1.26.49.08-.23.12-.47.12-.72,0-1.26-1.02-2.28-2.28-2.28-1.09,0-1.99.76-2.22,1.78-.48-.61-1.23-1.01-2.06-1.01-1.45,0-2.63,1.18-2.63,2.63,0,.3.05.59.15.87-.11-.01-.21-.02-.32-.02-1.82,0-3.3,1.48-3.3,3.3,0,1.34.81,2.5,1.96,3.02-.95.41-1.61,1.35-1.61,2.45,0,1.47,1.19,2.66,2.66,2.66.14,0,.27-.01.41-.03.29.98,1.19,1.7,2.26,1.7.74,0,1.4-.34,1.83-.87.31.39.78.64,1.32.64.48,0,.92-.21,1.22-.53.39.51,1,.84,1.69.84,1.17,0,2.12-.95,2.12-2.12,0-.07,0-.14-.01-.21.17.03.35.05.53.05,1.48,0,2.69-1.2,2.69-2.68,0-1.08-.63-2-1.55-2.43Z"/>
    <path class="cls-2" d="M911.72,19.55c-.49-.31-1.35-.85-1.54-.54-.11.18.62.42,1.15.86.38.32.54.75.7,1.3.27.96-.05,1.59-.73,1.26-.83-.4-1.36-.53-1.74-.45-.39.08.2.25.62.44.42.19,1.38.76,1.61,1.26.23.5.29,6.99-.21,7.45-.5.46-1.7.97-1.54,1.12.16.15,1.58-.46,1.74-.42.15.04-.62,1.04-.31,1.08.31.04.77-.93,1-1,.23-.08.5.81.77.69.27-.12-.08-.62.15-.69.23-.08,1.08.73,1.31.58.23-.15-.7-.77-.42-.81.27-.04,1.47.54,1.54.27.08-.27-1.04-.58-1.39-.97-.35-.38-.52-5.82-.52-7.06,0-1.08-.13-1.61.8-2.37.49-.4.9-.48.89-.6,0-.12-.42-.23-.98.09-.67.38-1.05,1.11-1.12.33-.07-.84.58-1.66,1.09-2.12.59-.54-.26-.52-.92.42-.26.37-.4.24-.47-.36-.13-1.07-.04-2.32-.32-2.45-.27-.13-.27.92-.27,1.96,0,1.05-.49,1-.92.73Z"/>
  </g>
  <g>
    <path class="cls-2" d="M694,21.27c1.08-.23,1.89-1.19,1.89-2.34s-.86-2.17-2-2.36c.16-.28.26-.6.26-.94,0-1.03-.84-1.87-1.87-1.87-.48,0-.92.19-1.26.49.08-.23.12-.47.12-.72,0-1.26-1.02-2.28-2.28-2.28-1.09,0-1.99.76-2.22,1.78-.48-.61-1.23-1.01-2.06-1.01-1.45,0-2.63,1.18-2.63,2.63,0,.3.05.59.15.87-.11-.01-.21-.02-.32-.02-1.83,0-3.3,1.48-3.3,3.3,0,1.34.81,2.5,1.96,3.02-.95.41-1.62,1.35-1.62,2.45,0,1.47,1.19,2.66,2.67,2.66.14,0,.27-.01.4-.03.29.98,1.19,1.7,2.26,1.7.74,0,1.4-.34,1.83-.87.31.39.78.64,1.32.64.48,0,.92-.21,1.23-.53.39.51,1,.84,1.69.84,1.17,0,2.12-.95,2.12-2.12,0-.07,0-.14,0-.21.17.03.35.05.53.05,1.48,0,2.68-1.2,2.68-2.68,0-1.08-.63-2-1.55-2.43Z"/>
    <path class="cls-2" d="M686.22,22.1c-.49-.31-1.35-.85-1.54-.54-.11.18.62.42,1.15.86.38.32.54.75.7,1.3.27.96-.05,1.59-.73,1.26-.83-.4-1.36-.53-1.74-.45-.39.08.2.25.63.44.42.19,1.38.76,1.61,1.26.23.5.29,6.99-.21,7.45-.5.46-1.7.97-1.54,1.12.15.15,1.58-.46,1.74-.42.15.04-.62,1.04-.31,1.08.31.04.77-.93,1-1,.23-.08.5.81.77.69.27-.12-.08-.62.15-.69.23-.08,1.08.73,1.31.58.23-.15-.7-.77-.43-.81s1.47.54,1.54.27c.08-.27-1.04-.58-1.39-.97-.35-.38-.52-5.82-.52-7.06,0-1.08-.13-1.61.8-2.37.49-.4.9-.48.89-.6,0-.12-.43-.23-.98.09-.67.38-1.05,1.11-1.12.33-.07-.84.58-1.66,1.1-2.12.59-.54-.26-.52-.92.42-.26.37-.4.24-.47-.36-.13-1.07-.04-2.32-.32-2.45-.27-.13-.27.92-.27,1.96,0,1.05-.49,1-.92.73Z"/>
  </g>
  <g>
    <path class="cls-2" d="M983.47,13.91c1.08-.23,1.89-1.19,1.89-2.34s-.86-2.17-2-2.36c.16-.28.26-.6.26-.94,0-1.03-.84-1.87-1.87-1.87-.48,0-.92.19-1.26.49.08-.23.12-.47.12-.72,0-1.26-1.02-2.28-2.28-2.28-1.09,0-1.99.76-2.22,1.78-.48-.61-1.23-1.01-2.06-1.01-1.45,0-2.63,1.18-2.63,2.63,0,.3.05.59.15.87-.11-.01-.21-.02-.32-.02-1.82,0-3.3,1.48-3.3,3.3,0,1.34.81,2.5,1.96,3.02-.95.41-1.61,1.35-1.61,2.45,0,1.47,1.19,2.67,2.66,2.67.14,0,.27-.01.41-.03.29.98,1.19,1.7,2.26,1.7.74,0,1.4-.34,1.83-.87.31.39.78.64,1.32.64.48,0,.92-.21,1.22-.53.39.51,1,.84,1.69.84,1.17,0,2.12-.95,2.12-2.12,0-.07,0-.14-.01-.21.17.03.35.05.53.05,1.48,0,2.69-1.2,2.69-2.68,0-1.08-.63-2-1.55-2.43Z"/>
    <path class="cls-2" d="M975.69,14.74c-.49-.31-1.35-.85-1.54-.54-.11.18.62.42,1.15.86.38.32.54.75.7,1.3.27.96-.05,1.59-.73,1.26-.83-.4-1.36-.53-1.74-.45-.39.08.2.25.62.44.42.19,1.38.76,1.61,1.26.23.5.29,16.03-.21,16.49-.5.46-1.7.97-1.54,1.12.16.15,1.58-.46,1.74-.42.15.04-.62,1.04-.31,1.08.31.04.77-.93,1-1,.23-.08.5.81.77.69.27-.12-.08-.62.15-.69.23-.08,1.08.73,1.31.58.23-.15-.7-.77-.42-.81.27-.04,1.47.54,1.54.27.08-.27-1.04-.58-1.39-.97-.35-.38-.52-14.86-.52-16.11,0-1.08-.13-1.61.8-2.37.49-.4.9-.48.89-.6,0-.12-.42-.23-.98.09-.67.38-1.05,1.11-1.12.34-.07-.84.58-1.66,1.09-2.12.59-.54-.26-.52-.92.42-.26.37-.4.24-.47-.36-.13-1.07-.04-2.32-.32-2.45-.27-.13-.27.92-.27,1.96,0,1.05-.49,1-.92.73Z"/>
  </g>
  <g>
    <path class="cls-2" d="M769.05,13.91c1.08-.23,1.89-1.19,1.89-2.34s-.86-2.17-2-2.36c.16-.28.26-.6.26-.94,0-1.03-.84-1.87-1.87-1.87-.49,0-.92.19-1.26.49.08-.23.12-.47.12-.72,0-1.26-1.02-2.28-2.28-2.28-1.09,0-1.99.76-2.22,1.78-.48-.61-1.23-1.01-2.06-1.01-1.45,0-2.63,1.18-2.63,2.63,0,.3.05.59.15.87-.11-.01-.21-.02-.32-.02-1.82,0-3.3,1.48-3.3,3.3,0,1.34.81,2.5,1.96,3.02-.95.41-1.61,1.35-1.61,2.45,0,1.47,1.19,2.67,2.67,2.67.14,0,.27-.01.4-.03.29.98,1.19,1.7,2.26,1.7.74,0,1.4-.34,1.83-.87.31.39.78.64,1.32.64.48,0,.92-.21,1.22-.53.39.51,1,.84,1.69.84,1.17,0,2.12-.95,2.12-2.12,0-.07,0-.14,0-.21.17.03.35.05.53.05,1.48,0,2.68-1.2,2.68-2.68,0-1.08-.63-2-1.55-2.43Z"/>
    <path class="cls-2" d="M761.27,14.74c-.49-.31-1.35-.85-1.54-.54-.11.18.62.42,1.15.86.38.32.54.75.7,1.3.27.96-.05,1.59-.73,1.26-.83-.4-1.36-.53-1.74-.45-.39.08.2.25.63.44.42.19,1.38.76,1.61,1.26.23.5.29,16.03-.21,16.49-.5.46-1.7.97-1.54,1.12.15.15,1.58-.46,1.74-.42.15.04-.62,1.04-.31,1.08.31.04.77-.93,1-1,.23-.08.5.81.77.69.27-.12-.08-.62.15-.69.23-.08,1.08.73,1.31.58.23-.15-.7-.77-.42-.81.27-.04,1.47.54,1.54.27.08-.27-1.04-.58-1.39-.97-.35-.38-.52-14.86-.52-16.11,0-1.08-.13-1.61.8-2.37.49-.4.9-.48.89-.6,0-.12-.42-.23-.98.09-.67.38-1.05,1.11-1.12.34-.07-.84.58-1.66,1.09-2.12.59-.54-.26-.52-.92.42-.26.37-.4.24-.47-.36-.13-1.07-.04-2.32-.32-2.45-.26-.13-.27.92-.27,1.96,0,1.05-.49,1-.92.73Z"/>
  </g>
  <g>
    <path class="cls-2" d="M1117.64,23.93s0,7.69-.6,8.79c-.61,1.1-1.25,2.05-2.2,2.39-.95.34-1.02.83-.15.87.87.04,1.59-.19,2.12-.64.53-.45.72-.26.72.11s-.6,1.48-.34,1.67c.27.19.42.34.68-.11.26-.45.42-1.1.79-1.48.38-.38.91.08,1.1.42.19.34.26,1.33.72,1.36.46.04.64-.3.38-.87-.27-.57-.3-1.21.08-1.25.38-.04,1.51.99,2.73,1.14,1.21.15.68-.57-.34-1.02-1.02-.45-1.97-1.7-2.27-2.69-.3-.98-.68-7.69-.49-9.02,0,0,.8-1.4,1.93-1.55,1.14-.15-.57-.95-1.63-.26-1.23.79-.99.61-1.21.64-.23.04-.42-1.33-1.52-1.86-.77-.37-.19.46.08,1.1.26.64-.05,1.5-.42,1.14-.11-.11-.83-.72-1.4-.61-.78.16.91.61,1.25,1.74Z"/>
    <path class="cls-2" d="M1133.32,18.61c.04-.19.07-.39.07-.6,0-1.36-1-2.47-2.3-2.67.19-.31.29-.67.29-1.06,0-1.15-.93-2.08-2.08-2.08-.13,0-.26.01-.39.04.09-.34.14-.7.14-1.07,0-2.06-1.48-3.77-3.43-4.14.23-.41.37-.88.37-1.39,0-1.27-.82-2.34-1.96-2.71-.34-.15-.71-.24-1.1-.24-.29,0-.57.05-.82.13h0c0-1.57-1.26-2.83-2.81-2.83s-2.81,1.26-2.81,2.81h0c-.26-.07-.54-.12-.82-.12-.39,0-.76.09-1.1.24-1.14.38-1.96,1.45-1.96,2.71,0,.5.14.97.37,1.39-1.95.37-3.43,2.08-3.43,4.14,0,.37.05.73.14,1.07-.13-.02-.26-.04-.39-.04-1.15,0-2.08.93-2.08,2.08,0,.39.11.75.29,1.06-1.3.19-2.31,1.31-2.31,2.67,0,.21.03.41.07.6-1.28.05-2.31,1.1-2.31,2.4s1.08,2.4,2.4,2.4c.4,0,.78-.1,1.11-.27.82,1.24,2.23,2.06,3.83,2.06.76,0,1.47-.19,2.1-.51.44.98,1.42,1.66,2.56,1.66.8,0,1.52-.34,2.03-.88.41.24.89.37,1.4.37.32,0,.63-.06.91-.16.29.1.59.16.91.16.51,0,.98-.14,1.4-.37.51.54,1.23.88,2.03.88,1.14,0,2.12-.68,2.56-1.66.63.33,1.34.51,2.1.51,1.6,0,3.01-.82,3.83-2.06.33.17.71.27,1.11.27,1.32,0,2.4-1.08,2.4-2.4s-1.03-2.35-2.31-2.4Z"/>
  </g>
  <g>
    <path class="cls-1" d="M521.61,25.95c-1.64,0-2.96,1.33-2.96,2.97s1.33,2.96,2.96,2.96,2.96-1.32,2.96-2.96-1.33-2.97-2.96-2.97ZM521.61,30.42c-.83,0-1.5-.67-1.5-1.5s.67-1.5,1.5-1.5,1.5.67,1.5,1.5-.67,1.5-1.5,1.5Z"/>
    <path class="cls-1" d="M542.36,25.95c-1.64,0-2.97,1.33-2.97,2.97s1.33,2.96,2.97,2.96,2.96-1.32,2.96-2.96-1.33-2.97-2.96-2.97ZM542.36,30.42c-.83,0-1.5-.67-1.5-1.5s.67-1.5,1.5-1.5,1.5.67,1.5,1.5-.67,1.5-1.5,1.5Z"/>
    <g>
      <path class="cls-1" d="M534.03,21.15h15.5c.31,0,.55.25.55.55v1.84c0,.3-.25.55-.55.55h-15.5c-.3,0-.55-.25-.55-.55v-1.84c0-.3.25-.55.55-.55Z"/>
      <path class="cls-3" d="M534.03,16.99h15.5c.31,0,.55.25.55.55v2.62c0,.3-.25.55-.55.55h-15.5c-.3,0-.55-.25-.55-.55v-2.62c0-.3.25-.55.55-.55Z"/>
      <path class="cls-1" d="M534.03,14.39h15.5c.31,0,.55.25.55.55v1c0,.3-.25.55-.55.55h-15.5c-.3,0-.55-.25-.55-.55v-1.01c0-.3.25-.55.55-.55Z"/>
      <path class="cls-1" d="M531.16,14.39h1.32c.3,0,.55.25.55.55v8.6c0,.3-.25.55-.55.55h-1.32c-.3,0-.55-.25-.55-.55v-8.6c0-.3.25-.55.55-.55Z"/>
      <path class="cls-1" d="M551.06,14.39h1.32c.3,0,.55.25.55.55v8.6c0,.3-.25.55-.55.55h-1.32c-.31,0-.55-.25-.55-.55v-8.6c0-.3.25-.55.55-.55Z"/>
      <path class="cls-1" d="M530.13,23.54c0,.3-.25.55-.55.55h-.55c-.3,0-.55-.25-.55-.55v-7.28c0-.3.25-.55.55-.55h.55c.31,0,.55.25.55.55v7.28Z"/>
      <path class="cls-1" d="M548.61,24.64h-21.08v-10.58c0-.3-.25-.55-.55-.55h-10.58c-.3,0-.64.23-.75.51l-1.24,3.18c-.11.28-.29.74-.39,1.03l-.46,1.27c-.1.28-.19.76-.19,1.07v6.87c0,.3.25.55.55.55h3.96c.43-1.66,1.94-2.89,3.73-2.89s3.3,1.23,3.73,2.89h13.29c.43-1.66,1.93-2.89,3.73-2.89s3.3,1.23,3.72,2.89h2.53c.3,0,.55-.25.55-.55v-2.26c0-.3-.25-.55-.55-.55ZM521.5,20.2c0,.3-.22.65-.5.79l-5.08,2.38c-.27.13-.5-.01-.5-.32v-1.82c0-.3.24-.6.54-.65l4.99-.9c.3-.05.54.15.54.46v.06ZM523.33,17.33c0,.3-.25.59-.54.65l-6.82,1.25c-.3.05-.45-.13-.34-.41l1.29-3.33c.11-.29.45-.51.75-.51h5.1c.31,0,.55.25.55.55v1.81Z"/>
    </g>
  </g>
  <g>
    <g>
      <path class="cls-4" d="M535.91,18.26s.03.02.03.04c0,.03-.02.03-.08.04-.02.04-.09.22-.11.25h1.09v.33h-.4s0,.01,0,.02c0,.03-.02.04-.07.05-.09.21-.15.3-.2.37.28.16.5.34.57.41-.14.1-.17.14-.27.29-.18-.16-.34-.29-.55-.42-.29.26-.64.37-1.01.43-.04-.16-.08-.23-.16-.38.4,0,.66-.11.83-.22-.12-.04-.19-.07-.25-.09-.01.02-.04.07-.07.1-.12-.09-.27-.14-.34-.16.13-.16.23-.31.27-.39h-.5v-.33h.67c.05-.11.11-.26.16-.38h-.42v.26h-.36v-.6h.84v-.22h.39s.05.02.05.05c0,.03-.04.04-.07.05v.12h.84v.6h-.34v-.26h-.64l.11.05ZM535.61,18.92s-.06.1-.09.16c.1.03.21.07.35.12.04-.05.09-.12.16-.28h-.42Z"/>
      <path class="cls-4" d="M538.96,19.09h.48v.35h-.48v.23h.81v.35h-1.99v-.35h.81v-.23h-.46v-.35h.46v-.21h-.48v-.14c-.15.12-.2.15-.23.16-.02-.05-.06-.14-.27-.29.13-.06.68-.34.98-.98l.37.05s.05.01.05.04c0,.04-.04.05-.05.06.08.13.25.28.4.4.2.17.35.25.55.34-.11.12-.16.19-.23.32-.06-.03-.12-.05-.21-.11v.14h-.51v.21ZM539.18,18.52c-.18-.15-.32-.29-.44-.44-.02.04-.14.22-.38.44h.82Z"/>
      <path class="cls-4" d="M544.2,19.46s-.02.08-.02.1c-.12-.02-.19-.03-.34-.04.07-.29.11-.5.12-.79l.32.04h.36v-.09h-.77v-.31h.03c-.11-.06-.19-.09-.25-.1.19-.25.28-.47.33-.62l.32.07s.04,0,.04.03c0,.03-.03.04-.06.04,0,.03-.02.04-.02.06h.52v.17c.12-.19.17-.31.2-.39l.31.07s.05.01.05.04c0,.03-.04.04-.07.05,0,.02-.01.03-.02.05h.62v.29h-.32c.03.07.04.1.05.14-.17.02-.27.06-.34.08-.02-.12-.04-.16-.06-.22h-.1c-.06.1-.09.16-.15.23h.79v.7h-.75v.09h.88c0,.15-.05.59-.14.73-.04.05-.1.12-.44.1-.02-.14-.06-.26-.11-.37.12.03.19.03.21.03.06,0,.08-.04.1-.18h-.5v.6h-.33v-.45c-.21.23-.44.37-.72.46-.1-.2-.19-.25-.24-.28.16-.04.45-.11.68-.34h-.15ZM544.51,18.12s.07.14.08.16c-.1.01-.29.06-.32.07-.03-.1-.07-.2-.08-.23h-.07c-.05.1-.09.16-.14.23h.89s-.13-.08-.28-.13c.03-.03.06-.06.09-.1h-.16ZM544.64,19.05h-.37s0,.08-.01.09h.38v-.09ZM544.97,18.76h.41v-.09h-.41v.09Z"/>
      <path class="cls-4" d="M548.87,18.65v.44h-2.12v-.44h2.12Z"/>
    </g>
    <g>
      <rect class="cls-5" x="540.63" y="18.56" width="2.27" height=".64"/>
      <rect class="cls-5" x="541.44" y="17.75" width=".64" height="2.27"/>
    </g>
  </g>
</svg>