<?xml version="1.0" encoding="UTF-8"?>
<svg id="_デザイン" data-name="デザイン" xmlns="http://www.w3.org/2000/svg" viewBox="0 0 244.648 186.6805">
  <defs>
    <style>
      .cls-1 {
        fill: #23ab3a;
      }

      .cls-2 {
        fill: #231815;
      }

      .cls-3 {
        fill: #fff;
      }

      .cls-4 {
        fill: #feef12;
      }
    </style>
  </defs>
  <g>
    <path class="cls-4" d="M122.3255,186.6805C54.7672,186.6805,0,161.302,0,129.9919c0-21.5695,26.0011-40.3233,64.2672-49.9053.1867-5.9032-2.929-11.7697-7.3239-16.354,8.3482,1.6413,18.9377,6.9021,25.6758,12.6411,12.4544-1.9781,25.803-3.0676,39.7064-3.0676,67.5583,0,122.3225,25.3786,122.3225,56.6858s-54.7642,56.6886-122.3225,56.6886Z"/>
    <g>
      <path class="cls-2" d="M48.6966,97.3589v3.8487h4.433v7.2205h-1.0131v-.5122h-9.4136v-.9297h9.4136v-1.9781h-8.8901v-.9522h8.8901v-1.9314h-9.2594v-.9169h4.8151v-3.8487h1.0244ZM45.1932,100.7788c-.4415-.8702-1.1674-1.9427-1.7758-2.6572l.798-.549c.7033.7867,1.2763,1.6088,1.848,2.67l-.8702.5362ZM50.246,100.2652c.607-.6905,1.3583-1.7743,1.7517-2.6926l.9777.5008c-.4301.8462-1.2395,2.0135-1.9073,2.7521l-.8221-.5603Z"/>
      <path class="cls-2" d="M58.1287,108.4408h-.965v-4.8264c-.7514.6905-1.299,1.0485-1.6329,1.2635l-.4047-.9777c1.9781-1.1914,3.0861-2.728,3.4907-3.6944h-3.3364v-.8929h1.8833v-1.9427h.965v1.9427h1.5366v.9056c-.1188.2858-.4287,1.0244-1.2989,2.1083.6325.7273,1.0499,1.0853,1.7163,1.5621l-.5362.8688c-.6311-.5122-.7627-.6551-1.4178-1.4291v5.1122ZM63.4079,97.3702v3.444h2.6219v.9763h-2.6219v5.2438h2.8949v.9778h-6.9474v-.9778h3.0507v-5.2438h-2.4903v-.9763h2.4903v-3.444h1.0018Z"/>
      <path class="cls-2" d="M70.1459,97.9065c-.1656.8221-.5123,2.6219-.5123,5.4928,0,2.3121.2505,3.5997.3934,4.3142l-1.0598.1557c-.1189-.4302-.382-1.4306-.382-4.327,0-2.9898.2858-4.8617.4174-5.7546l1.1433.1189ZM74.9496,99.8846l-.024-2.0857h1.0484l.0241,2.0857h2.3347v1.0004h-2.2993l.024,3.277c1.1193.5603,1.6555,1.0018,2.5257,1.8125l-.7145.9523c-.6919-.8461-1.3343-1.3102-1.8112-1.6442v.334c0,.607,0,2.2158-2.4195,2.2158-2.0022,0-2.5144-1.2862-2.5144-2.0489,0-1.2041,1.0725-2.145,2.67-2.145.416,0,.8221.0481,1.2381.1669l-.0467-2.9204h-3.7298v-1.0004h3.6944ZM75.0444,104.7817c-.2858-.1188-.6084-.2504-1.2041-.2504-1.1192,0-1.7277.5363-1.7277,1.2395,0,.3933.2024,1.156,1.5975,1.156,1.3343,0,1.3343-.9169,1.3343-1.2989v-.8462Z"/>
      <path class="cls-2" d="M85.4061,106.9636c-.2264-.382-.5603-.9183-1.4659-2.0262-.9055,1.596-2.0969,2.6332-2.8596,3.253l-.6678-.8816c.6678-.4895,1.8705-1.4418,2.8129-3.1822-1.1801-1.2508-1.9668-1.8592-2.3602-2.1564l.6905-.6919c.9297.7627,1.5494,1.3357,2.1097,1.9187.2505-.6198.5603-1.5253.7033-3.086h-3.8247v-.9537h2.3941v-1.7984h.9891v1.7984h2.2285v.9537h-.7739c-.2392,2.145-.7146,3.3011-.965,3.8727.5235.5603,1.2621,1.4305,1.8111,2.3601l-.8221.6198ZM87.67,105.5218c-.3579-1.0726-.9183-2.2173-1.5734-3.1823l.8943-.4768c.798,1.1673,1.3343,2.3955,1.6441,3.1935l-.965.4656ZM90.4943,99.6469h1.0966v.989h-1.0966v6.7677c0,.6438-.2745,1.0245-1.2155,1.0245h-1.8111l-.2504-1.0245,1.8833.0128c.2858,0,.3806.0113.3806-.2745v-6.506h-3.086v-.989h3.086v-2.288h1.0131v2.288Z"/>
      <path class="cls-2" d="M93.0865,107.2494c3.1214-.549,4.8731-1.4659,5.9937-2.2639-.0354-.1203-.0962-.2745-.2391-.5363-.941.6551-2.8115,1.548-5.3386,2.0375l-.3212-.8701c2.6926-.3453,4.3977-1.2749,5.1844-1.7645-.1316-.1429-.2505-.249-.4302-.3806-1.5847.774-2.895,1.0966-4.3495,1.3343l-.2972-.8334c.7032-.1076,2.9912-.4302,4.6241-1.4065h-3.8614v-2.3361c-.3693.167-.3821.167-.6325.2745l-.4287-.8348c1.514-.4528,2.7888-1.2862,3.6703-2.3714l1.0485.2037c-.1783.2264-.2731.3325-.4528.5363h4.3496v.7739c-.2731.3212-.44.4642-.9169.8816h2.7054v2.8723h-3.3732c.3339.7867.5716,1.156.7513,1.4305.9891-.5009,1.5366-1.0258,1.8592-1.3229l.75.631c-.75.6311-1.8225,1.2155-2.121,1.3711,1.1913,1.5126,2.5143,2.1083,3.0987,2.3587l-.5603.9183c-1.9427-1.1333-3.5275-2.3955-4.576-5.2919-.3212.2505-.4768.3453-.6084.4174,1.0018.7514,1.6682,1.9187,1.6682,3.4794,0,1.514-.4528,1.8706-1.5479,1.8706h-1.2042l-.2023-.9523h1.2027c.5971,0,.8108-.1203.8108-.9296,0-.0354,0-.3226-.0708-.7627-2.0502,1.4065-4.4217,2.0135-5.8635,2.3347l-.3212-.8688ZM98.2454,100.4449h-3.2643v1.3456h3.2643v-1.3456ZM96.4229,98.8007c-.3579.2858-.7386.5717-1.2989.8929h4.1586c.4641-.3566.6551-.5236.965-.8929h-3.8247ZM102.452,100.4449h-3.301v1.3456h3.301v-1.3456Z"/>
      <path class="cls-2" d="M109.906,97.7876c-.0594.5122-.1429,1.0839-.3099,2.1564l1.3711-.0113c1.8112-.0127,2.4663.9523,2.4663,3.0619,0,1.108-.2264,3.5275-.9169,4.218-.5136.5009-1.0966.6438-1.6569.6438-.6919,0-1.5253-.2136-2.0262-.3452l.0835-1.0372c.5843.1797,1.2989.3821,1.787.3821.4896,0,.9537-.143,1.1688-.6085.3806-.8461.4882-2.7521.4882-3.4199,0-1.2155-.2378-1.9541-1.4659-1.93l-1.4772.024c-.7273,3.9676-1.7277,5.7914-2.3121,6.8512l-1.0003-.4287c.7145-1.132,1.4418-2.3828,2.2511-6.3984l-2.1917.0354-.0128-1.0131,2.3842-.0241c.2137-1.2989.2264-1.8224.2264-2.1804l1.1433.024ZM114.5541,99.6469c-.4174-1.1334-.7032-1.5862-.8702-1.848l.774-.2504c.3693.5122.716,1.2282.9183,1.8111l-.8221.2873ZM115.4951,104.4605c-.1543-2.7761-1.0726-3.7298-1.4178-4.0878l.989-.4174c.7981.9297,1.3825,1.9668,1.6088,4.3736l-1.18.1316ZM116.1035,99.3596c-.1797-.5362-.5603-1.3215-.8829-1.8224l.7754-.2505c.44.6679.6664,1.1914.9055,1.7998l-.798.2731Z"/>
      <path class="cls-2" d="M122.1977,97.7749c-.0354.4174-.0835.8108-.1896,1.5734h3.3124v1.0004h-3.4553c-.2986,1.6215-.9891,5.3273-2.0743,7.6987l-1.0839-.3693c1.132-2.1931,1.7984-5.78,2.0489-7.3294h-1.7631v-1.0004h1.8947c.0707-.6438.0948-1.2041.1188-1.6328l1.1914.0594ZM124.5578,104.2823c-.549.7853-.7032,1.0003-.7032,1.4177,0,1.0598,1.132,1.2027,2.7648,1.2027,1.299,0,2.0376-.0707,2.4309-.1061l-.0113,1.0598c-.4542.0241-.8235.0481-1.7998.0481-1.7404,0-4.385,0-4.385-2.1337,0-.7627.3099-1.2622.8929-2.0135l.8107.525ZM128.8239,101.9221c-.2745-.024-.5603-.0354-1.0131-.0354-1.1433,0-2.5865.143-3.635.5604l-.3212-.9183c1.2041-.4528,2.288-.7146,4.9693-.6792v1.0725Z"/>
      <path class="cls-2" d="M136.0161,97.7155c-.024.8348-.0368,1.4305-.0368,2.2766,0,.9296.1797,1.2508.2859,1.4659.7626-.2391,2.0502-.6565,4.3976-.989l.1189,1.1192c-1.8819.2151-3.5982.5603-4.9693,1.0853-.7853.2971-2.7648,1.0838-2.7648,2.5978,0,1.4772,1.5493,1.5848,4.4698,1.5848,1.9413,0,3.0619-.1189,3.6576-.1911l.0128,1.1079c-.74.0835-1.1928.1316-2.9077.1316-3.2063,0-4.0044-.1669-4.8392-.4881-.965-.3693-1.4772-1.156-1.4772-2.0262,0-1.7645,1.6923-2.9318,3.3492-3.5756-.4061-.6424-.4415-.8334-.4528-4.0991h1.156Z"/>
      <path class="cls-2" d="M151.848,100.3133v.8943c-.8942.7739-1.7871,1.5493-2.6813,2.312.2504-.0722.358-.0835.4882-.0835,1.0131,0,1.156.941,1.156,1.7517v.4995c0,1.1206.2631,1.2636,1.5493,1.2636.8702,0,1.4065-.0595,1.8239-.1076l.0241,1.0485c-.3934.0368-.8349.0722-1.705.0722-1.4773,0-2.7281-.0354-2.7281-1.9781v-.6438c0-.6552-.0608-1.0485-.6678-1.0485-.6085,0-.9891.2858-1.2509.4881-.5122.4769-2.694,2.6941-3.1468,3.1342l-.7499-.8094c.5235-.4768,2.8002-2.6573,3.277-3.0987,1.4772-1.3938,2.5611-2.3234,3.062-2.7649l-5.4816.1076v-1.0245l7.0309-.0127ZM151.8961,99.4672c-.8588-.2972-2.2045-.7146-5.7079-.9056l.1542-.965c1.9668.0708,3.9322.2745,5.8268.8334l-.2731,1.0372Z"/>
      <path class="cls-2" d="M167.3333,102.1966v1.132h-11.0225v-1.132h11.0225Z"/>
      <path class="cls-2" d="M171.022,106.2476c.4528.0241.7627.0354,1.2509.0354,1.3583,0,4.1472,0,5.4574-1.5126.525-.5957.7514-1.2989.7514-2.0262,0-.9296-.334-2.7167-2.9078-2.7167-1.2395,0-3.0393.382-4.2901.6438-1.1206.2377-1.5126.3452-1.8833.44l-.2023-1.1913c.4655-.0595,1.7276-.2731,3.0633-.4995.965-.167,2.2993-.4061,3.3365-.4061,2.8837,0,4.051,1.8239,4.051,3.7425,0,2.5144-1.8224,3.5502-3.444,4.0751-1.3343.4287-3.0266.4882-4.9806.4415l-.2024-1.0259Z"/>
      <path class="cls-2" d="M192.1445,99.3724c-.3821-.0241-.7514-.0481-1.2282-.0481-.6551,0-.8334.0594-1.1079.1429-2.264.7386-4.4571,2.67-4.4571,4.7188,0,1.49,1.2041,2.2413,3.2416,2.5031,1.0726.1429,1.9187.1188,2.4422.1075l-.1655,1.1433c-2.5158-.0481-3.9095-.358-5.0528-.9763-.9537-.525-1.5734-1.6088-1.5734-2.67,0-2.1691,1.763-3.8614,3.6576-4.9212-2.3474.1075-3.4794.2023-5.9937.4046l-.0595-1.1079c.9891,0,6.3999-.2985,7.6026-.3212.3339-.0127,2.4309-.0608,2.67-.0721l.0241,1.0966ZM190.1069,102.9239c-.1202-.2391-.4896-1.0131-1.0371-1.7404l.7145-.382c.5844.7159.8815,1.2989,1.0725,1.6923l-.7499.4301ZM191.536,102.232c-.4174-.7514-.5844-1.0598-1.0371-1.6329l.74-.3806c.2971.3693.8221,1.0839,1.0485,1.5848l-.7514.4287Z"/>
      <path class="cls-2" d="M197.2029,97.7749h1.0839l-.0835,1.6923h3.826v.989h-3.8855l-.1075,2.2413h1.3584c1.7757,0,2.2879-.358,2.5865-.5603l.3934.9169c-.2986.2023-.8816.6084-3.0634.6084h-1.3103c0,2.7167,0,3.2884,2.5144,3.2884,1.3824,0,1.8833-.2137,2.2172-.4401.5236-.3467.941-1.0258.941-1.8833,0-.2745,0-1.132-.7386-2.312l.9296-.4415c.2618.3934.8928,1.3117.8928,2.6941,0,3.3718-3.1341,3.3718-4.1585,3.3718-3.5756,0-3.6463-1.323-3.6463-4.2774h-2.2526v-.965h2.2879l.0963-2.2413h-2.1932v-.989h2.2285l.0835-1.6923Z"/>
      <path class="cls-2" d="M209.1607,108.0588c-.8462-1.2749-1.5848-2.0489-1.9781-2.4663l.9055-.6679c.7754.716,1.6216,1.7164,2.121,2.3956l-1.0484.7386Z"/>
      <path class="cls-2" d="M47.1359,117.1272c.2264-.5122.4287-1.1914.4641-1.323l.9777.2151c-.1429.3933-.2985.7867-.4655,1.1079h4.5052v9.783h-1.0018v-.7018h-6.8752v.7018h-.9891v-9.783h3.3846ZM44.7404,119.8085h6.8752v-1.763h-6.8752v1.763ZM44.7404,122.4785h6.8752v-1.7885h-6.8752v1.7885ZM51.6156,123.3601h-6.8752v1.9413h6.8752v-1.9413Z"/>
      <path class="cls-2" d="M58.1287,126.9229h-.965v-4.8264c-.7514.6905-1.299,1.0485-1.6329,1.2636l-.4047-.9778c1.9781-1.1914,3.0861-2.728,3.4907-3.6944h-3.3364v-.8929h1.8833v-1.9427h.965v1.9427h1.5366v.9056c-.1188.2858-.4287,1.0244-1.2989,2.1083.6325.7273,1.0499,1.0853,1.7163,1.5621l-.5362.8688c-.6311-.5122-.7627-.6551-1.4178-1.4291v5.1122ZM63.4079,115.8523v3.444h2.6219v.9763h-2.6219v5.2438h2.8949v.9778h-6.9474v-.9778h3.0507v-5.2438h-2.4903v-.9763h2.4903v-3.444h1.0018Z"/>
      <path class="cls-2" d="M72.506,116.1495v3.1581c2.6813.7514,4.6113,1.7999,6.0772,2.6573l-.5716,1.0612c-2.1691-1.2989-3.3605-1.8705-5.5056-2.6091v6.2441h-1.1433v-10.5116h1.1433Z"/>
      <path class="cls-2" d="M90.7801,119.51c-.4174,3.659-1.7758,6.3757-7.7582,6.9842l-.44-.9891c3.4793-.3226,6.339-1.2041,6.9347-4.9933h-8.3525v-1.0018h9.616ZM90.1122,116.6631v1.0004h-8.0906v-1.0004h8.0906Z"/>
      <path class="cls-2" d="M95.7438,122.4177c-.2264-1.3102-.6438-2.2286-.9537-2.8596l.9409-.2618c.6438,1.2862.883,2.2286,1.0259,2.8724l-1.0131.249ZM95.7551,125.7075c3.8133-.8221,5.2905-2.4196,5.9937-6.673l1.0485.1783c-.6905,3.42-1.7036,6.2555-6.6248,7.3762l-.4174-.8815ZM98.3176,121.9295c-.1076-.7032-.3099-1.7036-.7868-2.8242l.9537-.2264c.5603,1.514.6792,1.8352.8334,2.8129l-1.0003.2377Z"/>
      <path class="cls-2" d="M115.9592,117.8304c-.8688,4.9453-3.42,7.8643-8.436,8.7105l-.4527-.9891c4.8023-.798,6.5781-3.1808,7.495-6.721h-4.5519c-.7273.9056-1.7999,2.1451-2.9191,2.8242l-.6792-.822c2.2753-1.4532,3.3365-3.3125,3.8954-4.743l1.1801.2151c-.1783.4415-.2859.7146-.774,1.5253h5.2424Z"/>
      <path class="cls-2" d="M120.9115,116.4721c-.3693,1.7517-.5122,3.5274-.5122,5.3499,0,1.5975.0948,3.0987.4401,4.4684l-1.108.1316c-.191-.774-.4046-1.6682-.4046-4.3736,0-3.2049.3212-4.9453.4528-5.6839l1.1319.1076ZM123.9735,121.7272c-.2024.2858-.5717.8221-.5717,1.5607,0,1.0372.7273,1.3824,2.646,1.3824.5957,0,1.6442-.0113,2.6573-.1189v1.0726c-.4302.0354-1.0372.0948-2.1819.0948-1.5013,0-4.1585,0-4.1585-2.3474,0-.9537.4528-1.7164.6551-2.0616l.9537.4174ZM128.4787,117.2942v1.0244h-5.7688v-1.0244h5.7688Z"/>
      <path class="cls-2" d="M137.0872,119.2241h4.4331v.9537h-4.4331v1.8593h5.0061v.9409h-5.0061v2.8596c0,.4896-.1896,1.0726-1.0357,1.0726h-2.3842l-.1896-1.0004,2.1918.0113c.1429,0,.3933,0,.3933-.3452v-2.5979h-5.0287v-.9409h5.0287v-1.8593h-4.4443v-.9537h4.4443v-1.7984c-2.145.1302-3.4907.143-4.4443.143l-.0963-.965c4.1954.0226,6.9475-.2151,9.4505-.7514l.2858.941c-.5957.1316-1.7871.3693-4.1713.5603v1.8705Z"/>
      <path class="cls-2" d="M146.259,118.8916h1.1206v.8929h-1.1206v.2858c.215.5363.6678,1.4305,1.6328,2.4196l-.5476.8702c-.6197-.8816-.9664-1.6456-1.0852-1.9541v5.5042h-.9297v-5.0995c-.4994,1.5126-1.0484,2.2639-1.3696,2.6926l-.5009-1.0244c.989-1.132,1.6088-2.8483,1.8239-3.6944h-1.5735v-.8929h1.6201v-1.6809c-.6664.1188-1.1079.1429-1.4658.1783l-.1543-.8688c1.0004-.0128,2.6219-.2873,3.5742-.6438l.3226.7867c-.2504.1188-.4415.2023-1.347.3806v1.8479ZM147.1645,126.1249c.4656-.1316,1.6569-.4769,2.5385-1.0726l.6197.6071c-.798.5956-1.9427,1.0371-2.6813,1.2508l-.4769-.7853ZM151.5863,115.8764v.6438h2.8709v.7258h-2.8709v.6679h2.5257v.6438h-2.5257v.6792h3.0973v.7386h-7.0422v-.7386h2.9912v-.6792h-2.4663v-.6438h2.4663v-.6679h-2.7889v-.7258h2.7889v-.6438h.9537ZM154.0638,125.0155h-5.8975v-4.4684h5.8975v4.4684ZM153.1583,121.1909h-4.0751v.6552h4.0751v-.6552ZM153.1583,122.4177h-4.0751v.6565h4.0751v-.6565ZM153.1583,123.6459h-4.0751v.6664h4.0751v-.6664ZM152.4565,125.0523c.7145.4882,1.5847.8575,2.3587,1.0726l-.4882.7853c-.8221-.2491-1.7885-.7386-2.4549-1.2155l.5844-.6424Z"/>
      <path class="cls-2" d="M166.1065,118.5209c-.0481.4896-.1316,1.6456-.382,2.8964.6678.2377.8588.334,1.538.6551l-.382,1.0613c-.5476-.2859-.9296-.4656-1.4178-.6792-.8702,3.2176-2.7648,3.8359-3.5147,4.0864l-.6198-.8334c1.3584-.4061,2.5144-1.1079,3.1568-3.6464-1.572-.5603-2.5498-.6551-2.9078-.7032-.6664,2.7761-1.381,4.3849-3.0973,4.3849-1.347,0-1.9314-1.0838-1.9314-2.0969,0-1.323.9891-3.1582,4.2067-3.253.2504-1.2749.3466-2.479.382-2.8964l-3.8133.0354v-1.0117h4.9934c-.334,2.6091-.3693,2.895-.5604,3.9081,1.2749.1075,2.479.4881,2.9431.631.0354-.2023.2024-1.0838.2745-2.6332l1.132.0948ZM157.5149,123.6699c0,.4995.2264,1.132.9523,1.132.8461,0,1.4659-.7386,2.0983-3.5162-3.0039.1203-3.0506,2.0857-3.0506,2.3842Z"/>
      <path class="cls-2" d="M173.8109,116.1381c-.0608.3212-.1075.6311-.2391,1.2395h5.0768v.9891h-5.3513c-.2377.774-.4528,1.132-.6792,1.514.3339-.2264.8702-.5971,1.7885-.5971.6198,0,1.5253.1556,1.8465,1.4659,1.1447-.4641,2.2173-.8221,3.0026-1.0839l.4174,1.0372c-.8929.2377-1.9895.5362-3.2643,1.0244.0467.4882.0594,1.0131.0594,1.3697,0,.4528-.0127.74-.0368.9777h-1.0598c.0354-.3339.0594-.5363.0594-1.0485,0-.2617-.0113-.6197-.024-.8702-.607.2986-2.3955,1.1674-2.3955,2.2045,0,1.1207,1.4418,1.1207,2.7054,1.1207.5249,0,1.6569-.0241,3.1228-.167l.0226,1.0372c-.4754.0353-1.3456.0948-2.9063.0948-1.3357,0-4.0284,0-4.0284-2.0503,0-1.1787,1.132-2.1564,3.3605-3.2162-.1075-.6197-.4046-.9777-1.0485-.9777-.7032,0-1.5606.3933-2.4436,1.323-.798,1.1079-.8815,1.2267-1.6795,2.0969l-.7981-.7145c1.7036-1.5494,2.4904-3.4568,2.8469-4.5406h-2.5257v-.9891h2.7889c.1429-.6791.1542-.989.1783-1.3102l1.2041.0707Z"/>
      <path class="cls-2" d="M42.4284,140.4951c1.4545-1.0371,2.3955-2.4662,3.086-3.7779l.8461.4287c-.5716,1.1094-.965,1.681-1.2621,2.0744v6.172h-1.0131v-4.9679c-.5363.5716-.9424.9055-1.2749,1.1673l-.382-1.0966ZM42.4637,137.003c1.4787-.8093,2.3248-2.1323,2.7054-2.7874l.8462.3933c-.5717,1.1193-1.6796,2.4903-3.0266,3.3478l-.525-.9537ZM53.7013,139.0887h-1.9187v5.3273c0,.6791-.2136.9763-1.0598.9763h-2.0503l-.1782-1.0839,1.93.0241c.2504,0,.3579-.0481.3579-.334v-4.9098h-4.2901v-.965h7.2092v.965ZM53.2372,135.7763h-6.2442v-.9297h6.2442v.9297Z"/>
      <path class="cls-2" d="M57.1042,135.4183c-.0834.573-.2263,1.5621-.2263,3.0152,0,1.8112.1429,3.7299.7867,4.7543.1188.2037.416.4174.798.4174.8928,0,1.5607-1.4065,2.0856-2.7889l.8816.5731c-.7273,1.9413-1.6923,3.3605-3.0747,3.3605-2.3361,0-2.5866-4.1953-2.5866-6.1734,0-1.2268.0962-2.4663.167-3.2771l1.1687.1189ZM64.861,143.4977c.0127-.2731.0241-.5476.0241-.9297,0-4.0397-1.1674-5.2905-2.2158-6.4224l.9536-.525c.7018.6566,2.4536,2.2767,2.4536,6.9955,0,.3226-.0114.5363-.0227.7627l-1.1928.1189Z"/>
      <path class="cls-2" d="M73.1852,136.0027l-.0241-1.2636h1.0485l.0127,1.2636h3.9562v.9536h-3.9448l.0127,1.4886h3.7171v.9296h-3.7171v1.7757c1.3697.5604,2.5497,1.3117,3.6463,2.288l-.7032.9297c-1.0966-1.0372-1.7277-1.5735-2.9318-2.1805v.5363c0,2.121-1.93,2.2285-2.5978,2.2285-1.5735,0-2.6573-.8589-2.6573-2.0375,0-.9296.7626-2.1932,3.0393-2.1932.583,0,.9169.0722,1.1673.1316v-1.4786h-4.433v-.9296h4.4203v-1.4886h-4.6227v-.9536h4.6114ZM73.2205,141.8054c-.273-.0835-.6551-.2024-1.2989-.2024-1.0951,0-1.9894.4528-1.9894,1.3117,0,.8688.965,1.1192,1.6795,1.1192,1.5735,0,1.6088-.8334,1.6088-1.3824v-.8461Z"/>
      <path class="cls-2" d="M86.7885,134.6556h1.0839v1.3824h3.3605v.9778h-3.3605v2.5016c.0481.1797.1075.3934.1556.6565.0354.2505.0708.5476.0708.9056,0,3.4907-2.7408,3.8727-4.8505,3.9916l-.3325-1.0131c3.4072-.0241,3.9194-1.132,4.1585-2.2753-.2023.3212-.6197.9297-1.7757.9297-1.4659,0-2.3474-1.1688-2.3474-2.4437,0-1.3583.965-2.4422,2.5143-2.4422.8335,0,1.132.2491,1.3697.4401l-.0113-1.2508h-5.9697v-.9778h5.9584l-.0241-1.3824ZM86.872,139.9589c-.024-.2618-.2037-1.1801-1.3824-1.1801-.7513,0-1.5013.4415-1.5013,1.4659,0,.6551.3693,1.4899,1.3938,1.4899,1.4418,0,1.4899-1.347,1.4899-1.3824,0-.0835.0113-.2745,0-.3933Z"/>
      <path class="cls-2" d="M98.2341,143.891c1.8705-.167,2.8596-.4641,3.5275-1.132.9168-.9168,1.0357-2.2752,1.0357-3.0025,0-1.3937-.6905-3.5275-3.6223-3.6109-.024,2.3955-.9169,7.7935-3.5501,7.7935-1.3951,0-2.2285-1.6682-2.2285-3.4199,0-2.9559,2.0729-5.3386,5.6117-5.3386,3.3138,0,4.9579,2.0262,4.9579,4.6467,0,4.5292-3.8133,4.9452-5.3867,5.0655l-.3452-1.0018ZM96.1244,136.9804c-1.7036,1.2508-1.7036,3.3237-1.7036,3.6336,0,.8942.2971,2.2526,1.2267,2.2526.6325,0,1.0259-.6311,1.2636-1.0839.358-.7032,1.1206-2.7775,1.2041-5.5777-.4287.0722-1.2041.191-1.9908.7754Z"/>
      <path class="cls-2" d="M116.3893,136.3366c-.382-.0241-.7513-.0481-1.2282-.0481-.6551,0-.8334.0594-1.1079.1429-2.2639.7386-4.4571,2.67-4.4571,4.7188,0,1.49,1.2042,2.2413,3.2417,2.5031,1.0725.1429,1.9187.1189,2.4422.1075l-.1655,1.1433c-2.5144-.0481-3.9096-.358-5.0528-.9763-.9537-.5249-1.5735-1.6088-1.5735-2.67,0-2.1691,1.7631-3.8614,3.6577-4.9212-2.3474.1075-3.4794.2023-5.9938.4047l-.0594-1.1079c.9891,0,6.3998-.2986,7.6026-.3212.3339-.0128,2.4308-.0609,2.67-.0722l.024,1.0966ZM114.3518,139.8881c-.1203-.2391-.4896-1.0131-1.0372-1.7404l.7146-.382c.5844.7159.8815,1.2989,1.0725,1.6923l-.7499.4301ZM115.7809,139.1962c-.4174-.7513-.5844-1.0598-1.0372-1.6329l.7401-.3806c.2971.3693.822,1.0839,1.0484,1.5848l-.7513.4287Z"/>
      <path class="cls-2" d="M120.7799,145.023c-.8461-1.2749-1.5847-2.0489-1.9781-2.4663l.9056-.6678c.7754.7159,1.6215,1.7163,2.121,2.3955l-1.0485.7386Z"/>
      <path class="cls-2" d="M46.2176,153.1972h1.0485v1.5026h2.9558v.9891h-2.9558v1.6314c.3933-.0707,1.0131-.2023,1.9554-.2023.6792,0,1.9187.0962,2.7649.7513.6664.5236,1.1432,1.4532,1.1432,2.4663,0,3.1228-3.8019,3.0634-4.8745,3.0393l-.2023-.9777c1.5621.0127,3.9803.0127,3.9803-2.1692,0-2.0842-2.097-2.1917-2.895-2.1917-.3934,0-1.2042.024-1.872.2504v3.6704c0,.416,0,1.1787-1.3697,1.1787-1.4546,0-2.7054-.8702-2.7054-2.2399,0-1.3583,1.0726-2.6332,3.0266-3.3124v-1.8946h-2.8837v-.9891h2.8837v-1.5026ZM46.2176,158.5839c-1.6442.6551-1.9894,1.7517-1.9894,2.2172,0,.8688.7032,1.3697,1.5366,1.3697.2632,0,.4528-.0354.4528-.3693v-3.2176ZM51.0567,153.1505c1.0117.7499,1.9781,1.8946,2.5979,3.2289l-.9777.5476c-.6552-1.3216-1.1674-2.0376-2.4069-3.1455l.7867-.631Z"/>
      <path class="cls-2" d="M66.2562,153.674v.8942h-8.7827c-.5956.774-1.1687,1.3103-1.6328,1.7164l-.7386-.7273c.774-.5957,1.7036-1.4305,2.4068-2.8596l1.0485.2264c-.167.2971-.2745.4768-.4528.7499h8.1516ZM56.7349,158.7268c.4288.2023,1.1433.5603,2.5017,1.4899.7386-.7739,1.1206-1.3824,1.3711-1.7757l.9055.4414c-.2264.3453-.6324,1.0004-1.4899,1.906,1.1447.8588,1.8465,1.5253,2.3233,1.9781l-.7032.8107c-.4047-.4287-1.1192-1.1913-2.3106-2.1097-1.681,1.5381-3.0874,2.1805-3.5643,2.3956l-.6551-.9056c.549-.2023,1.9314-.7273,3.4327-2.0616-1.0018-.7032-1.8112-1.132-2.3715-1.4305l.5603-.7386ZM64.4563,157.2142c-.1188,1.5847-.1429,2.6445-.1429,3.0138,0,.5844,0,2.5144.6311,2.5144.3467,0,.573-1.5253.6325-1.93l.9055.4415c-.3339,1.7149-.6791,2.5738-1.5734,2.5738-1.5607,0-1.5607-3.0153-1.5607-3.7426,0-1.1914.0595-1.7036.0835-1.9781h-8.1034v-.8928h9.1278ZM65.4213,156.3086h-8.1147v-.8461h8.1147v.8461Z"/>
      <path class="cls-2" d="M70.1105,153.8169v-.9891h.8942v.9891h2.1097v.8589h-2.1097v.8221h1.906v4.5632h-1.906v.9777h2.2045v.8575h-2.2045v1.9908h-.8942v-1.9908h-2.1918v-.8575h2.1918v-.9777h-1.8946v-4.5632h1.8946v-.8221h-2.0857v-.8589h2.0857ZM70.1105,156.2959h-1.0839v1.132h1.0839v-1.132ZM70.1105,158.1438h-1.0839v1.132h1.0839v-1.132ZM72.0886,156.2959h-1.0839v1.132h1.0839v-1.132ZM72.0886,158.1438h-1.0839v1.132h1.0839v-1.132ZM76.5938,159.6691h2.121v.8816h-2.121v2.0615h2.3587v.9169h-6.0645v-.9169h2.7634v-2.0615h-2.2271v-.8816h2.2271v-1.156h.9424v1.156ZM73.0309,158.0236c.559-.1896,1.4645-.5123,2.5257-1.3103-.8461-.965-1.1914-1.7998-1.347-2.1691l.7994-.3339c.5123,1.0725.9523,1.5974,1.2381,1.9073.9183-.9183,1.2169-1.6328,1.3471-1.9668h-4.1699v-.9055h5.2311v.8574c-.1797.4896-.5363,1.49-1.7404,2.6587.8702.7259,1.681,1.0598,2.1337,1.2381l-.5009.8942c-.4881-.215-1.3229-.607-2.336-1.5125-1.132.8928-2.1692,1.2975-2.6814,1.4885l-.4995-.8461Z"/>
      <path class="cls-2" d="M83.0347,153.4363c-.3693,1.7517-.5123,3.5275-.5123,5.3499,0,1.5975.0948,3.0988.4401,4.4684l-1.1079.1316c-.191-.774-.4047-1.6682-.4047-4.3736,0-3.2049.3212-4.9453.4528-5.6839l1.132.1076ZM86.0966,158.6914c-.2023.2858-.5716.8221-.5716,1.5607,0,1.0372.7273,1.3824,2.6459,1.3824.5957,0,1.6442-.0113,2.6573-.1188v1.0725c-.4287.0354-1.0371.0948-2.1818.0948-1.5013,0-4.1586,0-4.1586-2.3474,0-.9537.4528-1.7164.6551-2.0616l.9537.4174ZM90.6018,154.2584v1.0244h-5.7687v-1.0244h5.7687Z"/>
      <path class="cls-2" d="M96.3748,158.0603c-.6551.6424-1.0725,1.3343-1.0725,2.2045,0,1.6315,1.9187,1.7984,3.9562,1.7984,1.9668,0,3.2303-.1542,3.9095-.2377l.0467,1.0966c-1.3583.1061-2.2752.1783-3.5034.1783-2.5257,0-3.3846-.2618-4.051-.5716-.8462-.3934-1.4419-1.2749-1.4419-2.2286,0-1.1319.5717-1.9427,1.3343-2.8129l.8221.573ZM102.4054,154.6871c-1.8239.2745-3.4681,1.2635-3.993,1.5734l-.6792-.7032c.6084-.382.8815-.5009,1.7517-.8348-3.5742.0481-4.1472.0721-4.8137.1075v-1.0966c.5363.0241,3.9435.0368,7.7342,0v.9537ZM101.7729,158.0603c-.3099-.6678-.5957-1.1687-1.0245-1.7644l.7033-.3806c.5829.7258.9537,1.5253,1.0598,1.7517l-.7386.3933ZM103.1553,157.3925c-.3453-.7273-.5717-1.0966-1.0131-1.6923l.7273-.3806c.4414.5476.7867,1.1546,1.0131,1.6682l-.7273.4047Z"/>
      <path class="cls-2" d="M108.0949,157.4632v3.4921c.0948.6085.3693,1.0245.9183,1.299.8688.4287,1.3343.4287,1.739.4287h6.1734l-.1797.9183h-5.9584c-.5957,0-2.0021,0-2.895-1.347-.6678.8574-1.514,1.5253-1.7276,1.6922l-.4655-1.0484c.3098-.2024,1.0371-.7146,1.4305-1.1561v-3.3491h-1.2989v-.9297h2.2639ZM107.7256,155.628c-.334-.5589-.965-1.4291-1.681-2.0248l.6679-.6438c.2617.2264,1.1447.941,1.7871,2.0135l-.774.6551ZM116.6992,154.4848h-3.3846v.822h3.0266v4.2308h-3.0266v.8942h3.5035v.8221h-3.5035v1.0357h-.9536v-1.0357h-3.5275v-.8221h3.5275v-.8942h-2.9559v-4.2308h2.9559v-.822h-3.3846v-.8221h3.3846v-.8462h.9536v.8462h3.3846v.8221ZM112.361,156.0822h-2.0503v.941h2.0503v-.941ZM112.361,157.7505h-2.0503v1.0117h2.0503v-1.0117ZM115.4229,156.0822h-2.1083v.941h2.1083v-.941ZM115.4229,157.7505h-2.1083v1.0117h2.1083v-1.0117Z"/>
      <path class="cls-2" d="M118.2656,162.7424c.2745-.774.5122-1.6795.5956-3.1935l.8462.1075c-.0594,1.1079-.191,2.2767-.5957,3.3959l-.8461-.3099ZM122.5557,154.3659c-.3099.5476-1.0725,1.9059-2.288,3.5388.3934-.0241,1.1914-.0707,1.5848-.0835-.0835-.2618-.1783-.4768-.3099-.798l.7145-.2858c.2745.5603.6325,1.572.7514,2.1563l-.7981.2986c-.0481-.2391-.0721-.382-.1316-.6197-.2263.024-.6197.0707-.8701.0948v5.1957h-.9056v-5.1236c-.4528.0227-1.739.1061-1.9187.1061l-.0707-.9055c.2745,0,.3565,0,.9409-.0113.3693-.5123.549-.7627.7032-1.0018-.1188-.1302-.7626-.8815-1.6441-1.572l.4527-.7273c.2137.1669.2972.2264.4175.3212.4754-.7853.9055-1.7277,1.0951-2.1324l.8702.3212c-.4528.9778-1.2748,2.2639-1.3343,2.3715.1189.1188.4415.4287.6311.6678.6679-1.0484.9424-1.5847,1.2522-2.1804l.8575.3693ZM122.1737,162.4212c-.0595-.6197-.143-1.5493-.4528-2.7407l.7513-.1557c.2505.7032.4047,1.4065.5363,2.6941l-.8348.2023ZM128.8352,154.5329c-.2023.3339-.7032,1.1914-1.954,2.2879,1.2154.6665,2.1691.965,2.7535,1.132l-.4415.9296c-1.6088-.4895-2.4662-1.0484-3.086-1.4786-1.3583.9056-2.2639,1.2154-2.7407,1.3824l-.5123-.8688c.4882-.1556,1.3457-.4301,2.4776-1.1093-.6905-.5957-1.0244-1.0485-1.2395-1.3456-.3933.3693-.6551.5589-.9055.7386l-.5717-.7995c.6198-.3919,1.6088-1.1079,2.3234-2.5964l1.0371.1302c-.0948.2264-.1542.3693-.4046.7626h3.2642v.8349ZM128.7518,163.8517h-.9297v-.549h-3.3124v.549h-.9296v-4.6721h5.1717v4.6721ZM127.8221,160.0611h-3.3124v2.3601h3.3124v-2.3601ZM124.9625,154.5442c-.1302.1556-.1783.2023-.2731.3226.2491.3566.6424.8447,1.3938,1.4291,1.0371-.774,1.4531-1.4291,1.6569-1.7517h-2.7776Z"/>
      <path class="cls-2" d="M139.5309,163.6013c-1.5253-1.2876-3.1936-2.3842-4.9212-3.3973-1.6923-.9891-2.1692-1.2749-2.1692-1.93,0-.5235.3453-.8702,1.3471-1.6555,3.1341-2.4549,3.4793-2.7294,4.3722-3.6591l1.0725.6905c-1.3937,1.3117-1.7149,1.5381-4.5632,3.611-.6084.4415-.7146.549-.798.6325-.1076.1061-.1557.2023-.1557.3099,0,.2023,0,.2858.8702.7499.8702.4768,3.4086,1.8833,5.8622,3.7779l-.9169.8702Z"/>
      <path class="cls-2" d="M147.439,153.2212c-.1188,1.1093-.1316,1.2282-.1782,1.5734h3.3124v.9778h-3.4554c-.3933,2.752-1.1093,5.1589-2.1224,7.7695l-1.0117-.4174c1.1079-2.3234,1.8579-5.7433,2.0842-7.3521h-1.8224v-.9778h1.954c.0722-.7513.0835-1.2041.0948-1.6088l1.1447.0354ZM149.8699,159.8121c-.2858.273-.7145.6905-.7145,1.3456,0,.7626.3452,1.2041,2.728,1.2041.9424,0,1.7163-.0594,2.3601-.1075l.0467,1.0244c-.3693.024-.8221.0594-1.93.0594-1.2862,0-1.9059-.0354-2.6219-.2136-.9055-.2392-1.6441-.9056-1.6441-1.8947,0-1.0371.7513-1.7404,1.0017-1.9781l.774.5604ZM154.0766,157.3684c-.3212-.0113-.6198-.024-1.0726-.024-1.8351,0-2.7167.2632-3.5388.5603l-.3579-.9296c2.0375-.7146,3.9208-.7033,4.9452-.6665l.0241,1.0598ZM152.3489,155.3663c-.1188-.3693-.4287-1.2395-.8107-1.8465l.7626-.2986c.3934.5363.7386,1.4065.8702,1.8111l-.8221.334ZM153.8502,154.9022c-.3099-.8108-.4174-1.0853-.8702-1.7885l.7754-.3085c.3806.5363.6905,1.1079.8928,1.739l-.798.358Z"/>
      <path class="cls-2" d="M162.5437,153.1377c.0707.4655.2023,1.2155.4641,2.1338,1.9781-.0354,3.0393-.2858,3.5628-.4047l.2023,1.0004c-.4881.1188-1.4644.3452-3.4199.4046.6438,1.681,1.5848,2.6941,1.9427,3.0747l-.8942.6085c-.3566-.4174-1.3456-1.5494-2.1083-3.6704-.191.0113-.2745.0113-1.0244.0113h-4.3736v-1.0004h5.0641c-.1783-.5957-.2505-.8702-.5122-2.0502l1.0966-.1076ZM160.8273,158.6787c-1.2749.3933-2.3361,1.0131-2.3361,2.0616,0,1.5974,2.3361,1.5974,3.8968,1.5974,1.6923,0,2.646-.1188,3.1695-.191l-.0226,1.0612c-.9778.1076-2.0149.1302-3.028.1302-2.4182,0-3.1695-.2858-3.7893-.6183-.5603-.2986-1.2508-.9296-1.2508-1.9074s.6679-2.2639,2.9077-2.9431l.4528.8094Z"/>
      <path class="cls-2" d="M170.7362,153.9004c-.0835.573-.2264,1.5621-.2264,3.0152,0,1.8112.1429,3.7299.7867,4.7543.1189.2037.416.4174.7981.4174.8928,0,1.5607-1.4065,2.0856-2.7889l.8815.5731c-.7273,1.9413-1.6922,3.3605-3.0747,3.3605-2.336,0-2.5865-4.1953-2.5865-6.1734,0-1.2268.0962-2.4663.167-3.2771l1.1687.1189ZM178.493,161.9798c.0127-.2731.024-.5476.024-.9297,0-4.0397-1.1673-5.2905-2.2158-6.4224l.9537-.525c.7018.6566,2.4535,2.2767,2.4535,6.9955,0,.3227-.0113.5363-.0226.7627l-1.1928.1189Z"/>
      <path class="cls-2" d="M185.5182,161.7067c0,.9763-.798,1.7757-1.7757,1.7757-.9891,0-1.7758-.7994-1.7758-1.7757,0-.9891.7994-1.7758,1.7758-1.7758.965,0,1.7757.774,1.7757,1.7758ZM182.5624,161.7067c0,.6424.5249,1.1673,1.1801,1.1673.6438,0,1.1687-.5249,1.1687-1.1673,0-.6679-.5363-1.1801-1.1687-1.1801-.6438,0-1.1801.5235-1.1801,1.1801Z"/>
    </g>
  </g>
  <g>
    <g>
      <g>
        <path class="cls-1" d="M111.9001,48.6322c-6.4494-.5689-12.1375,4.1995-12.7035,10.6489-.5659,6.4521,4.2025,12.1375,10.6518,12.7035,6.4494.5688,12.1347-4.1996,12.7035-10.6546.566-6.4465-4.2024-12.1319-10.6518-12.6978ZM110.3521,66.2201c-3.2601-.283-5.6739-3.1724-5.3881-6.4325.283-3.2544,3.1695-5.6796,6.4296-5.3937,3.26.2857,5.6739,3.1752,5.388,6.4296-.2857,3.2628-3.1666,5.6823-6.4295,5.3966Z"/>
        <path class="cls-1" d="M189.049,55.407c-6.4494-.5659-12.1376,4.2024-12.7035,10.6489-.5688,6.455,4.2024,12.1403,10.6518,12.7063,6.4522.566,12.1374-4.2024,12.7035-10.6546.5659-6.4465-4.2024-12.1318-10.6518-12.7006ZM187.5038,72.9977c-3.2629-.2887-5.6795-3.1724-5.3909-6.4352.2859-3.2544,3.1695-5.6796,6.4295-5.391,3.2601.2859,5.6769,3.1751,5.391,6.4295-.2859,3.2601-3.1695,5.6825-6.4296,5.3967Z"/>
        <path class="cls-1" d="M212.0816,53.6582l-73.054-6.4183c-4.2166-.3679-3.195-3.727-2.8271-7.9464l2.6488-30.1328c.6056-6.9135.331-13.5071-25.3899-5.4674-9.4038,2.9374-29.8838,23.1657-33.3533,30.0338-1.2678,2.5073-.7188,12.344-.7188,12.344-.3707,4.2166,2.7478,7.9378,6.9672,8.3086l7.4342.6538c.9537.0849,3.6053.2716,4.4091.0368,2.1336-5.4731,7.6887-9.135,13.8297-8.5945,6.138.5406,10.9716,5.1109,12.1233,10.8724.7527.3736,3.5091.6594,4.4655.7444l5.8919.5178,36.4321,3.1979c.9538.0847,3.8205.6395,4.6128.4074,2.1083-5.3966,7.5842-9.0047,13.6402-8.4755,6.0587.532,10.8187,5.0429,11.9535,10.7225.7414.365,8.7077.764,9.6641.8489l.2462.0226c3.5996.317,2.578-2.3317,2.8695-5.6315.2886-3.3025,1.7574-5.7277-1.845-6.0445ZM213.8729,51.9573c-.0538.5519-.7952.9424-1.6556.8687l-73.2746-6.4351c-.8603-.0764-1.5254-.5915-1.4744-1.1432l.2915-3.3422c.0481-.5434.7895-.9368,1.6527-.8632l73.2746,6.4381c.8603.0736,1.5254.5915,1.4773,1.1348l-.2915,3.3421ZM214.4077,45.8136c-.0452.5547-.7895.9395-1.6498.8602l-73.2775-6.4323c-.8575-.0763-1.5225-.583-1.4744-1.1377l.4187-4.7711c.0481-.5519.7897-.9423,1.6499-.8687l73.2775,6.4379c.8604.0736,1.5254.5887,1.4773,1.1433l-.4217,4.7684ZM215.084,38.1502c-.0508.5546-.7923.9423-1.6526.8687l-73.2804-6.4379c-.8573-.0736-1.5196-.5887-1.4743-1.1404l.1642-1.8254c.0452-.5519.7895-.9424,1.6497-.8687l73.2748,6.438c.8631.0764,1.5252.5886,1.4771,1.1405l-.1585,1.8252Z"/>
      </g>
      <path class="cls-3" d="M130.5519,25.1327c-.1527,1.7545-.8545,1.9752-1.7007,2.2271,0,0-19.0283-1.6895-19.8828-1.763-.8547-.0765-2.5216,2.0375-2.5216,2.0375,0,0-.1725.6594-.8545.6-.6793-.0594-7.4512-.6538-7.4512-.6538-.7726-.0679-1.0499-1.647-.4216-2.5044l13.8439-12.7431c.8121-.7443,3.1496-2.9233,5.6965-2.6997l13.1195,1.1517c.7895.0707,1.4234.1188,1.2847,1.7008l-1.1122,12.6469Z"/>
    </g>
    <g>
      <g>
        <path class="cls-1" d="M145.5883,38.5485c.3014-.0339.5617-.0693,1.2253-.2122l.2406-2.513-.9707-.0934.0948-1.0003.9707.0934.2108-2.206-1.0739-.1018.0962-1.0117,3.2176.307-.0962,1.0117-1.1122-.1061-.2108,2.2045.9395.0905-.0948,1.0004-.9395-.0905-.2066,2.1648c.6325-.1556.8659-.2363,1.1532-.3325l.1344.982c-.9721.3509-2.387.7103-3.4511.8447l-.1273-1.0315ZM150.0779,31.6704l5.6457.5391-.5575,5.8523-1.7461-.167-.1839,1.9201c-.0269.2858.0156.382.3014.4089l.5306.051c.1853.0184.2335-.051.2801-.2307.0906-.3014.167-.8815.1925-1.1461l.931.2844c-.1952,1.5055-.3679,2.2314-1.0527,2.1663l-1.4999-.1429c-.4301-.041-.856-.1231-.7753-.9706l.2334-2.4394-.6721-.0651c-.6749,2.0899-1.8182,2.7224-3.5897,3.1511l-.4019-1.0697c2.4592-.3934,2.82-1.7079,2.9488-2.1805l-1.1433-.1089.5589-5.8523ZM150.7005,35.9351l-.0736.7754,3.5841.3424.075-.7754-3.5855-.3424ZM150.8576,34.3008l-.075.7754,3.584.3425.075-.7754-3.584-.3425ZM151.0118,32.6765l-.0736.7768,3.5841.3424.0736-.7768-3.5841-.3424Z"/>
        <path class="cls-1" d="M154.5562,43.4096c-.1061,0-.2164-.0057-.3311-.0163l-1.5012-.1429c-1.0174-.0976-1.6881-.5207-2.0998-1.0831-.6481.3311-1.3357.5433-2.0262.7103-1.0089.2476-2.0404-.3014-2.4054-1.2735l-.0057-.0155c-.0722.0106-.1443.0198-.2137.029-.5532.0658-1.0881-.0821-1.5182-.4167-.4316-.3354-.7103-.8278-.7768-1.369l-.1274-1.0315c-.0679-.5448.0849-1.0931.4259-1.5239.1175-.15.2562-.2816.409-.392-.2604-.382-.3934-.8532-.3467-1.3484l.0948-1.0004c.034-.3622.1641-.7053.3721-.9975-.2108-.3658-.3042-.791-.2646-1.2176l.0963-1.0117c.0523-.5419.3169-1.0421.7372-1.3888.4188-.3473.9565-.5093,1.5026-.4612l2.8299.2702c.2689-.0934.5604-.1287.866-.1033l5.6456.5391c1.1292.1083,1.9569,1.1108,1.8494,2.2392l-.5434,5.7079c.2363.3877.3453.8554.283,1.3343-.1556,1.2063-.5136,3.9626-2.9516,3.9633Z"/>
      </g>
      <g>
        <path class="cls-1" d="M160.4014,38.6943c-.8405.59-1.4234.7612-1.8055.8787l-.2108-.3807c-1.3499.4387-1.9922.5731-2.4861.6707l.0043-1.1235c.2405-.0297.9636-.1669,1.1319-.2009l.3212-3.3704-1.0003-.0962.0962-1.0103,1.0004.0962.198-2.0743,1.0315.0991-.198,2.0729.7669.0735-.0963,1.0103-.7669-.0736-.29,3.0436c.4754-.0976.5362-.1132.8023-.191l-.0043.4641c1.006-.3792,1.4517-.8306,1.8083-1.2395l-1.7248-.1641.0778-.8066,6.8625.6537-.0778.8066-4.126-.3934c-.1528.2023-.2377.317-.4316.525l4.2166.4032c-.0099.1118-.3113,2.8455-.6565,3.4412-.3212.5561-.7188.5178-1.0358.4881l-1.3796-.1316-.1188-1.0216,1.3371.1274c.3056.0297.3495-.0991.4259-.3608.1231-.4104.2873-1.6003.3212-1.8338l-.491-.0467c-1.0258,1.7871-2.4096,2.5724-3.5741,3.0068l-.5448-.8759c1.422-.4414,2.2356-.9607,3.1695-2.2214l-.7245-.0694c-1.272,1.4348-2.6558,1.9201-3.7779,2.2045l-.4273-.7938c.6197-.1259,1.913-.4032,3.1935-1.5083l-.8164-.0778ZM159.9203,32.61l5.6995.5433-.317,3.3195-5.6994-.5433.3169-3.3195ZM160.6886,34.714l-.058.6028,3.7581.358.0581-.6028-3.7582-.358ZM160.8075,33.4674l-.0566.5929,3.7581.3594.0566-.5943-3.7581-.358Z"/>
        <path class="cls-1" d="M163.9982,44.3597c-.1217,0-.249-.0056-.3792-.0184l-1.3852-.1315c-.3495-.034-.675-.1543-.9509-.3403-.0778.0311-.157.0615-.2363.0912-.907.3417-1.9413-.0078-2.4592-.8369-.7838.0573-1.5564-.358-1.9441-1.0761l-.116-.2165c-.0793.0163-.1557.0319-.2307.0467-.5957.1196-1.2281-.0382-1.7036-.4308-.4754-.392-.7499-.9764-.7471-1.5919l.0043-1.1234c.0028-.8511.5263-1.5912,1.2848-1.8968l.0099-.1047c-.566-.4132-.9042-1.1051-.8334-1.8529l.0962-1.0102c.0523-.5427.3169-1.0422.7372-1.3895.133-.1097.2787-.2009.4315-.2731l.0297-.3163c.0524-.5426.317-1.0421.7372-1.3887.4189-.3467.9438-.5129,1.5041-.4599l1.0315.0991c.399.0382.7613.1889,1.057.4174.0594.0007.1189.0035.1797.0092l5.6994.5433c.5419.0517,1.0414.317,1.3881.7372.3467.4195.5122.96.4613,1.5027l-.2208,2.3014c.0213.0226.0411.046.0609.0693.3466.4203.5122.9615.4598,1.5041l-.0778.8065c-.0382.3842-.1783.733-.3919,1.0224-.1076.943-.3849,2.9431-.8731,3.7864-.4103.7103-1.1942,1.521-2.6233,1.521Z"/>
      </g>
      <g>
        <path class="cls-1" d="M166.5876,36.9044l2.104.2009-.2872,3.0124c.283,1.3456,1.6116,1.473,2.571,1.5649l4.8716.4642-.2815,1.0046-4.7599-.4542c-1.848-.1769-2.4819-1.0726-2.7281-1.4249-.4726.532-1.1928,1.0499-1.5989,1.3103l-.4202-1.1009c.283-.1585.8829-.5037,1.2621-.8178l.2533-2.6446-1.0824-.1033.0962-1.0116ZM167.8992,33.1958c.5604.6112,1.1179,1.5706,1.3273,1.9922l-.9297.5405c-.4358-.8249-.723-1.2748-1.2734-1.9767l.8758-.556ZM172.2785,33.6245c-.4457,1.2239-1.19,2.4309-2.0686,3.6775.4344,1.0414.9098,2.653,1.0286,3.7765l-1.0895.1952c-.4414-2.8242-.774-3.5671-1.0187-4.1274.7357-.8971,1.7248-2.7393,2.0913-3.7666l1.0569.2448ZM174.4759,33.824c-.4867,1.3145-1.2479,2.4988-2.0559,3.6364.392.8419,1.074,2.5767,1.2296,3.8487l-1.0669.1655c-.3721-1.8182-.5277-2.254-1.2678-4.1189,1.4249-2.1818,1.7984-2.7436,2.1465-3.7935l1.0145.2618ZM176.5234,34.0815c-.4089,1.156-1.2636,2.6615-1.8975,3.5898.2731.5928,1.0754,2.752,1.1744,3.884l-1.0866.1542c-.1628-1.2112-.617-2.9346-1.1716-4.1415.7782-1.1405,1.5451-2.5936,1.9795-3.7879l1.0018.3014Z"/>
        <path class="cls-1" d="M175.5669,45.2052c-.0651,0-.1302-.0036-.1967-.0092l-4.7599-.4542c-.9678-.0927-1.8168-.3467-2.5398-.7584-.1996.1422-.3679.2539-.484.3282-.5178.334-1.1616.416-1.7503.2215-.5872-.1932-1.0555-.641-1.2762-1.2183l-.4203-1.1008c-.3636-.9516.0269-2.0263.9155-2.5243.0764-.0432.1486-.0835.2151-.1224-.5589-.4146-.8943-1.1023-.8235-1.8458l.0962-1.0117c.0523-.5419.3169-1.0421.7372-1.3888.0735-.0608.1514-.1167.232-.1662-.0325-.0439-.0679-.0892-.1047-.1359-.358-.4563-.5065-1.0428-.4075-1.6144.0976-.5717.433-1.0754.9226-1.3867l.8758-.5554c.8419-.5369,1.9413-.3884,2.6148.346.0765.0835.1529.1705.2264.2604.4854-.583,1.2735-.8717,2.0446-.6898l1.057.2448c.0085.0021.017.0042.0255.0056.3749-.1358.7924-.1613,1.2084-.0559l.9423.2434c.3778-.116.791-.1245,1.1956-.0035l1.0018.3013c.5377.1621.9863.537,1.2395,1.0379.2547.5009.2929,1.0846.1047,1.6138-.3495.9869-.9536,2.1542-1.5366,3.1235.3651.9883.8306,2.4266.924,3.4864.0084.1068.0099.2123.0028.3155.075.3297.0679.6764-.0255,1.0089l-.2816,1.0046c-.249.8936-1.064,1.4999-1.9752,1.4999Z"/>
      </g>
      <g>
        <path class="cls-1" d="M184.3764,43.6721l-6.6178-.6311-.058.6028-1.0527-.1005.8702-9.1095,8.7104.8306-.8702,9.1095-1.0385-.0991.0566-.6027ZM185.0937,36.1558l-6.6177-.631-.6155,6.4536,6.6177.6325.6155-6.4551ZM179.3236,36.6765l4.7075.45-.4047,4.2477-4.7075-.4486.4047-4.2491ZM180.0098,40.0809l2.6955.2575.2278-2.3785-2.6955-.2575-.2278,2.3785Z"/>
        <path class="cls-1" d="M185.3612,46.4277c-.0651,0-.1316-.0028-.1981-.0092l-1.0386-.0991c-.566-.0544-1.057-.3339-1.3923-.7414l-3.7199-.3544c-.4075.336-.9381.5157-1.5069.4648l-1.0528-.1005c-.5419-.0523-1.0414-.3169-1.388-.7372-.3467-.4202-.5122-.9607-.4613-1.5027l.8702-9.1094c.1089-1.1291,1.1022-1.964,2.2399-1.8494l8.7104.8306c.5419.0524,1.0414.317,1.3881.7372.3466.4195.5122.9608.4612,1.5027l-.8702,9.1094c-.1018,1.0627-.9961,1.8586-2.0417,1.8586Z"/>
      </g>
      <g>
        <path class="cls-1" d="M144.6841,50.161c1.7602-1.572,2.5229-4.2929,2.946-7.086l1.1531.2037c-.7683,4.6043-1.879,6.4055-3.2161,7.7922l-.883-.9099ZM152.247,43.4853c-.0198,2.3785.3184,5.183,1.8324,7.5841l-1.1192.7061c-1.4786-2.3149-1.8819-5.4348-1.838-8.2633l1.1248-.0269ZM155.0642,43.7739c-.0566.5929-.5801,1.016-1.1631.9608-.5928-.0566-1.0173-.5702-.9607-1.1631.0566-.5914.5801-1.0159,1.1631-.9607.5829.0551,1.0173.5716.9607,1.163ZM153.512,43.6254c-.0255.2759.167.5108.4429.5377.266.0254.5122-.1684.5377-.4443.0269-.2745-.1783-.5108-.4443-.5363s-.5094.1684-.5363.4429Z"/>
        <path class="cls-1" d="M152.9616,53.8293c-.6778,0-1.34-.3353-1.7319-.948-.774-1.2119-1.3428-2.6446-1.7022-4.2866-.6919,1.7602-1.5225,2.9063-2.4818,3.9017-.3863.4005-.9183.6268-1.4758.6283h-.0028c-.5547,0-1.0867-.225-1.4744-.624l-.883-.9099c-.3891-.4011-.5985-.9437-.5773-1.5033.0199-.5589.2661-1.0853.6835-1.4581,1.0866-.97,1.8337-2.8873,2.2837-5.8622.0835-.5469.3835-1.0372.832-1.3605.4514-.3212,1.0117-.4492,1.5564-.3537l1.1532.2037c.375.0658.7089.2307.9792.4627.283-.1584.607-.2518.9522-.2603l.7514-.0177c.6339-.6183,1.5267-.9622,2.4733-.8752.8306.0786,1.5805.4762,2.1111,1.1193.5306.6424.7797,1.4538.7004,2.2844-.1358,1.4143-1.2013,2.5208-2.5342,2.7705.2462,1.2374.658,2.3078,1.2424,3.2339.6042.9593.3169,2.2271-.6424,2.832l-1.1192.7061c-.3396.2143-.7188.3169-1.0938.3169ZM154.3001,43.7025c0,.3092.0071.6105.0213.9041.3551-.1216.624-.4407.6636-.8369l-.6849-.0672ZM154.3001,43.6982l.6849.063c.0226-.254-.0595-.5143-.225-.7152-.1556-.1889-.3792-.3149-.6169-.3502.1047.2532.1599.527.157.8065v.1959Z"/>
      </g>
      <g>
        <path class="cls-1" d="M159.7803,43.5744l-.2505,2.6149c2.4153.9423,4.2505,2.2398,4.8957,2.7039l-.6636,1.1221c-1.0782-.7938-2.9813-2.1196-4.3481-2.6106l-.4938,5.1872-1.2254-.1174.8603-9.0161,1.2254.116Z"/>
        <path class="cls-1" d="M158.92,54.6457c-.0651,0-.1302-.0035-.1953-.0099l-1.2254-.1174c-1.1291-.1076-1.9568-1.11-1.8493-2.2392l.8603-9.0161c.1075-1.1291,1.0867-1.9582,2.2385-1.8493l1.2253.116c.5419.0517,1.0428.3163,1.3895.7365.3466.4203.5122.9615.4613,1.5041l-.109,1.1291c1.3216.6283,2.6318,1.4079,3.9081,2.3269.8631.6205,1.1107,1.797.5688,2.7125l-.6636,1.122c-.2957.4995-.7881.8504-1.3569.9665-.5688.1146-1.1617-.0142-1.6272-.358-.4839-.3566-.9481-.682-1.3824-.9714l-.1981,2.0885c-.0524.5426-.317,1.0421-.7372,1.3888-.3693.3056-.832.4704-1.3074.4704Z"/>
      </g>
      <g>
        <path class="cls-1" d="M174.3585,45.8638l-.7131,7.4653-7.5983-.7259.7131-7.4652,7.5983.7258ZM172.9959,46.8557l-5.125-.4881-.4994,5.2282,5.1249.4896.4995-5.2297Z"/>
        <path class="cls-1" d="M173.6454,55.3829c-.0651,0-.1302-.0035-.1953-.0092l-7.5983-.7258c-1.1291-.1083-1.9569-1.1108-1.8493-2.2399l.7131-7.4653c.0524-.5419.317-1.0414.7372-1.3881.4188-.3473.965-.5072,1.5027-.4612l7.5983.7258c1.1291.1083,1.9568,1.1108,1.8493,2.2399l-.7131,7.4653c-.0524.5419-.317,1.0414-.7372,1.388-.3693.3057-.832.4705-1.3074.4705ZM169.6113,49.7472l1.0358.0983.1089-1.1404-1.0357-.0984-.109,1.1405Z"/>
      </g>
      <g>
        <path class="cls-1" d="M185.0499,49.7903l-.1189,1.2353-9.0684-.866.1189-1.2352,9.0684.8659Z"/>
        <path class="cls-1" d="M184.9339,53.0794c-.0651,0-.1316-.0036-.1981-.0092l-9.0685-.866c-.5419-.0523-1.0414-.3176-1.388-.7379-.3481-.4202-.5137-.9607-.4613-1.5034l.1188-1.2352c.109-1.1284,1.0938-1.9533,2.2399-1.8479l9.0684.8659c.542.0524,1.0415.3177,1.3881.7379.3481.4203.5136.9608.4613,1.5034l-.1189,1.2353c-.1033,1.0619-.9961,1.8571-2.0417,1.8571Z"/>
      </g>
      <g>
        <path class="cls-1" d="M188.8589,49.3899c-.4103,4.2887-1.9851,5.4575-2.5398,5.8692l-.8037-.9735c.5051-.3325,1.7885-1.1475,2.1352-4.7825l.2716-2.8398,1.1858.1132-.2491,2.6134ZM191.1978,54.0239c2.4012-.3382,3.2077-3.1568,3.3577-3.6676l1.0004.549c-1.3697,4.4048-4.6524,4.368-5.6301,4.3566l.8235-8.6368,1.1433.1089-.6948,7.2899Z"/>
        <path class="cls-1" d="M190.0206,57.3157c-.0396,0-.0792,0-.1188-.0007-.5745-.0063-1.1193-.2532-1.5027-.6806-.075-.0827-.1429-.1719-.2024-.2645-.2674.2511-.4952.4209-.6537.5383-.8787.6516-2.1125.5002-2.8072-.3417l-.8037-.9735c-.3722-.4499-.5335-1.0357-.4472-1.613.0864-.5766.4146-1.0888.9014-1.41.2504-.1641.9692-.6374,1.2197-3.2622l.2716-2.8398c.1076-1.1291,1.1051-1.9632,2.2399-1.8493l1.1857.1132c.1571.0155.3085.0481.4528.0955.3495-.1932.7598-.2873,1.1886-.2469l1.1433.1089c.5419.0517,1.0414.317,1.388.7365.3467.4202.5122.9608.4613,1.5027l-.1457,1.5274c.5716-.2257,1.2154-.1945,1.7517.0998l1.0003.549c.8561.4697,1.2636,1.4779.9735,2.4103-.6763,2.1741-2.5469,5.8006-7.4964,5.8006Z"/>
      </g>
      <g>
        <path class="cls-1" d="M205.8865,49.3149l-4.1572-.3962-.0566.6028,3.4837.3325-.3948,4.1359-3.4836-.3325-.0637.6636,4.2477.4047-.0906.9395-4.2477-.4047-.1485,1.5621-1.0414-.099.1485-1.5635-4.2986-.4104.0906-.9395,4.2986.4103.0637-.6636-3.4412-.3282.3948-4.1345,3.4411.3282.0566-.6027-4.1557-.3976.0906-.9396,4.1557.3976.0693-.7357,1.0414.1004-.0693.7344,4.1571.3962-.0905.9395ZM197.9896,51.6114l-.0778.8178,2.4097.2292.0778-.8164-2.4097-.2306ZM198.1354,50.0903l-.075.7867,2.4096.2292.075-.7853-2.4096-.2306ZM201.4407,51.941l-.0778.8179,2.4507.2335.0778-.8179-2.4507-.2335ZM201.5864,50.42l-.075.7867,2.4507.2335.075-.7868-2.4507-.2334Z"/>
        <path class="cls-1" d="M200.978,58.8764c-.0651,0-.1316-.0028-.1967-.0092l-1.0414-.099c-.9636-.092-1.7092-.8355-1.8394-1.7538l-2.3121-.2201c-.5419-.0523-1.0414-.3176-1.3894-.7379-.3467-.4202-.5122-.9614-.4599-1.5033l.0906-.9396c.0665-.6862.4626-1.2607,1.0173-1.5812l.208-2.1833c-.0368-.0389-.0722-.0785-.1075-.1202-.3467-.4203-.5122-.9615-.4599-1.5034l.0906-.9395c.1103-1.1292,1.1348-1.9534,2.2398-1.8473l2.5852.2469c.0424-.0431.0891-.0849.1372-.1245.4188-.3466.965-.5164,1.5041-.4605l1.0414.1004c.6297.0609,1.1659.3997,1.497.8837l2.5894.2462c.5419.0516,1.0414.3169,1.3881.7379.348.4202.5136.9614.4612,1.5033l-.0905.9396c-.058.6006-.3693,1.1157-.8179,1.4503l-.2179,2.2922c.0524.0524.1033.1069.15.1649.3481.4202.5136.9614.4613,1.5034l-.0906.9395c-.1103,1.1277-1.115,1.947-2.2398,1.8479l-2.2597-.2158c-.2816.8157-1.0556,1.3824-1.9385,1.3824Z"/>
      </g>
    </g>
    <g>
      <path class="cls-3" d="M145.5883,38.5485c.3014-.0339.5617-.0693,1.2253-.2122l.2406-2.513-.9707-.0934.0948-1.0003.9707.0934.2108-2.206-1.0739-.1018.0962-1.0117,3.2176.307-.0962,1.0117-1.1122-.1061-.2108,2.2045.9395.0905-.0948,1.0004-.9395-.0905-.2066,2.1648c.6325-.1556.8659-.2363,1.1532-.3325l.1344.982c-.9721.3509-2.387.7103-3.4511.8447l-.1273-1.0315ZM150.0779,31.6704l5.6457.5391-.5575,5.8523-1.7461-.167-.1839,1.9201c-.0269.2858.0156.382.3014.4089l.5306.051c.1853.0184.2335-.051.2801-.2307.0906-.3014.167-.8815.1925-1.1461l.931.2844c-.1952,1.5055-.3679,2.2314-1.0527,2.1663l-1.4999-.1429c-.4301-.041-.856-.1231-.7753-.9706l.2334-2.4394-.6721-.0651c-.6749,2.0899-1.8182,2.7224-3.5897,3.1511l-.4019-1.0697c2.4592-.3934,2.82-1.7079,2.9488-2.1805l-1.1433-.1089.5589-5.8523ZM150.7005,35.9351l-.0736.7754,3.5841.3424.075-.7754-3.5855-.3424ZM150.8576,34.3008l-.075.7754,3.584.3425.075-.7754-3.584-.3425ZM151.0118,32.6765l-.0736.7768,3.5841.3424.0736-.7768-3.5841-.3424Z"/>
      <path class="cls-3" d="M160.4014,38.6943c-.8405.59-1.4234.7612-1.8055.8787l-.2108-.3807c-1.3499.4387-1.9922.5731-2.4861.6707l.0043-1.1235c.2405-.0297.9636-.1669,1.1319-.2009l.3212-3.3704-1.0003-.0962.0962-1.0103,1.0004.0962.198-2.0743,1.0315.0991-.198,2.0729.7669.0735-.0963,1.0103-.7669-.0736-.29,3.0436c.4754-.0976.5362-.1132.8023-.191l-.0043.4641c1.006-.3792,1.4517-.8306,1.8083-1.2395l-1.7248-.1641.0778-.8066,6.8625.6537-.0778.8066-4.126-.3934c-.1528.2023-.2377.317-.4316.525l4.2166.4032c-.0099.1118-.3113,2.8455-.6565,3.4412-.3212.5561-.7188.5178-1.0358.4881l-1.3796-.1316-.1188-1.0216,1.3371.1274c.3056.0297.3495-.0991.4259-.3608.1231-.4104.2873-1.6003.3212-1.8338l-.491-.0467c-1.0258,1.7871-2.4096,2.5724-3.5741,3.0068l-.5448-.8759c1.422-.4414,2.2356-.9607,3.1695-2.2214l-.7245-.0694c-1.272,1.4348-2.6558,1.9201-3.7779,2.2045l-.4273-.7938c.6197-.1259,1.913-.4032,3.1935-1.5083l-.8164-.0778ZM159.9203,32.61l5.6995.5433-.317,3.3195-5.6994-.5433.3169-3.3195ZM160.6886,34.714l-.058.6028,3.7581.358.0581-.6028-3.7582-.358ZM160.8075,33.4674l-.0566.5929,3.7581.3594.0566-.5943-3.7581-.358Z"/>
      <path class="cls-3" d="M166.5876,36.9044l2.104.2009-.2872,3.0124c.283,1.3456,1.6116,1.473,2.571,1.5649l4.8716.4642-.2815,1.0046-4.7599-.4542c-1.848-.1769-2.4819-1.0726-2.7281-1.4249-.4726.532-1.1928,1.0499-1.5989,1.3103l-.4202-1.1009c.283-.1585.8829-.5037,1.2621-.8178l.2533-2.6446-1.0824-.1033.0962-1.0116ZM167.8992,33.1958c.5604.6112,1.1179,1.5706,1.3273,1.9922l-.9297.5405c-.4358-.8249-.723-1.2748-1.2734-1.9767l.8758-.556ZM172.2785,33.6245c-.4457,1.2239-1.19,2.4309-2.0686,3.6775.4344,1.0414.9098,2.653,1.0286,3.7765l-1.0895.1952c-.4414-2.8242-.774-3.5671-1.0187-4.1274.7357-.8971,1.7248-2.7393,2.0913-3.7666l1.0569.2448ZM174.4759,33.824c-.4867,1.3145-1.2479,2.4988-2.0559,3.6364.392.8419,1.074,2.5767,1.2296,3.8487l-1.0669.1655c-.3721-1.8182-.5277-2.254-1.2678-4.1189,1.4249-2.1818,1.7984-2.7436,2.1465-3.7935l1.0145.2618ZM176.5234,34.0815c-.4089,1.156-1.2636,2.6615-1.8975,3.5898.2731.5928,1.0754,2.752,1.1744,3.884l-1.0866.1542c-.1628-1.2112-.617-2.9346-1.1716-4.1415.7782-1.1405,1.5451-2.5936,1.9795-3.7879l1.0018.3014Z"/>
      <path class="cls-3" d="M184.3764,43.6721l-6.6178-.6311-.058.6028-1.0527-.1005.8702-9.1095,8.7104.8306-.8702,9.1095-1.0385-.0991.0566-.6027ZM185.0937,36.1558l-6.6177-.631-.6155,6.4536,6.6177.6325.6155-6.4551ZM179.3236,36.6765l4.7075.45-.4047,4.2477-4.7075-.4486.4047-4.2491ZM180.0098,40.0809l2.6955.2575.2278-2.3785-2.6955-.2575-.2278,2.3785Z"/>
      <path class="cls-3" d="M144.6841,50.161c1.7602-1.572,2.5229-4.2929,2.946-7.086l1.1531.2037c-.7683,4.6043-1.879,6.4055-3.2161,7.7922l-.883-.9099ZM152.247,43.4853c-.0198,2.3785.3184,5.183,1.8324,7.5841l-1.1192.7061c-1.4786-2.3149-1.8819-5.4348-1.838-8.2633l1.1248-.0269ZM155.0642,43.7739c-.0566.5929-.5801,1.016-1.1631.9608-.5928-.0566-1.0173-.5702-.9607-1.1631.0566-.5914.5801-1.0159,1.1631-.9607.5829.0551,1.0173.5716.9607,1.163ZM153.512,43.6254c-.0255.2759.167.5108.4429.5377.266.0254.5122-.1684.5377-.4443.0269-.2745-.1783-.5108-.4443-.5363s-.5094.1684-.5363.4429Z"/>
      <path class="cls-3" d="M159.7803,43.5744l-.2505,2.6149c2.4153.9423,4.2505,2.2398,4.8957,2.7039l-.6636,1.1221c-1.0782-.7938-2.9813-2.1196-4.3481-2.6106l-.4938,5.1872-1.2254-.1174.8603-9.0161,1.2254.116Z"/>
      <path class="cls-3" d="M174.3585,45.8638l-.7131,7.4653-7.5983-.7259.7131-7.4652,7.5983.7258ZM172.9959,46.8557l-5.125-.4881-.4994,5.2282,5.1249.4896.4995-5.2297Z"/>
      <path class="cls-3" d="M185.0499,49.7903l-.1189,1.2353-9.0684-.866.1189-1.2352,9.0684.8659Z"/>
      <path class="cls-3" d="M188.8589,49.3899c-.4103,4.2887-1.9851,5.4575-2.5398,5.8692l-.8037-.9735c.5051-.3325,1.7885-1.1475,2.1352-4.7825l.2716-2.8398,1.1858.1132-.2491,2.6134ZM191.1978,54.0239c2.4012-.3382,3.2077-3.1568,3.3577-3.6676l1.0004.549c-1.3697,4.4048-4.6524,4.368-5.6301,4.3566l.8235-8.6368,1.1433.1089-.6948,7.2899Z"/>
      <path class="cls-3" d="M205.8865,49.3149l-4.1572-.3962-.0566.6028,3.4837.3325-.3948,4.1359-3.4836-.3325-.0637.6636,4.2477.4047-.0906.9395-4.2477-.4047-.1485,1.5621-1.0414-.099.1485-1.5635-4.2986-.4104.0906-.9395,4.2986.4103.0637-.6636-3.4412-.3282.3948-4.1345,3.4411.3282.0566-.6027-4.1557-.3976.0906-.9396,4.1557.3976.0693-.7357,1.0414.1004-.0693.7344,4.1571.3962-.0905.9395ZM197.9896,51.6114l-.0778.8178,2.4097.2292.0778-.8164-2.4097-.2306ZM198.1354,50.0903l-.075.7867,2.4096.2292.075-.7853-2.4096-.2306ZM201.4407,51.941l-.0778.8179,2.4507.2335.0778-.8179-2.4507-.2335ZM201.5864,50.42l-.075.7867,2.4507.2335.075-.7868-2.4507-.2334Z"/>
    </g>
    <g>
      <g>
        <path class="cls-3" d="M109.1876,29.0125l-.1132-.1316c-.0098.0806-.0721.5589-.2532.8192l-.2066-.266c.0637-.1033.1599-.2575.1995-.6339l.0707-.6481.2944.0297c.0013-.0452-.0057-.1075-.0128-.1527l-.2731-.0312.0297-.2787.6354.0694.0142-.1104.2857.0311-.0128.109.6481.0707-.0297.2802-.2674-.0297c-.0184.0594-.0496.1245-.0565.1471l.3919.0424-.0326.2773-.5561-.0608-.0127.1443.4824.0525-.0282.266-.4839-.0538-.0141.1272.4187.0454-.0282.2504-.4189-.0467-.0113.1345.5532.0608-.0297.2857-1.405-.1512.0282-.2888.5831.0652.0142-.133-.4288-.0496.0254-.2419ZM109.1211,28.4578l-.0381.3495c.0849-.0821.1612-.2094.2123-.334l-.1742-.0155ZM109.6602,28.6615l.0155-.1457-.3664-.041.2307.0736c-.0155.0466-.0255.065-.0396.0962l.1598.0169ZM109.6178,29.052l.0142-.1273-.2704-.0268c-.0466.0721-.0692.1018-.0834.116l.3396.0381ZM109.448,28.0602c.0056.0396.0085.0482.0184.1542l.3891.0425c.0226-.0722.0312-.0962.0495-.15l-.457-.0467Z"/>
        <path class="cls-3" d="M110.4978,29.5728c.0737-.0086.3156-.0523.5632-.1769l-.5264-.0595.0284-.2532.7358.0792.0099-.0876-.6155-.0652.0226-.2108.6155.0652.01-.0878-.668-.0722.0284-.2434.3748.0411c-.0069-.0595-.0155-.0792-.0268-.1147l-.4088-.0438.0297-.2731.2319.0226c-.014-.068-.0339-.1372-.0579-.2094l.2744-.0282c.024.0791.0397.1485.051.2673l.0778.0086.0255-.2519.2476.0254-.0269.2533.1033.01.0269-.2506.2433.0255-.0254.2519.075.01c.0382-.0722.0878-.1883.1075-.2506l.259.0864c-.0198.0481-.0552.1274-.0934.1924l.2206.0241-.031.2731-.4004-.0439-.0454.1075.375.0397-.0283.2433-.6678-.0722-.0085.0878.6197.0665-.0226.2108-.6226-.0665-.0084.0877.7286.0821-.0269.2519-.5263-.0567c.1996.1727.4104.2476.5235.2888l-.1698.2872c-.2759-.1373-.399-.2264-.573-.4514l-.0425.4018-.2717-.0312.044-.3919c-.1444.1232-.2761.2123-.6567.3114l-.1019-.3099ZM111.3327,28.4154c.0042.0184.0184.0989.0241.116l.3028.0339c.0071-.0169.0184-.041.041-.1089l-.3679-.041Z"/>
        <path class="cls-3" d="M113.0773,29.2275c-.065.0453-.1175.0721-.1995.1089l-.0736-.1767c-.0805.59-.2348.8573-.2886.9466l-.1981-.2803c.1585-.28.2038-.6268.2165-.7443l.1019-.9252.665.0707.0128-.1416.2858.0284-.0198.1471.6918.0721-.0297.2844-1.3654-.147-.0622.5871c.0396-.017.0749-.0283.1584-.0707-.0835-.1061-.0975-.1146-.123-.1443l.1315-.1075.0226-.1841.6538.0709c.0211.0452.0353.0749.065.1216.0807-.0792.1006-.1047.1331-.1486l.1386.1302c-.0863.1005-.092.1062-.1598.1741.0254.0297.0339.0381.0509.0509.0255-.0241.1104-.1061.167-.1839l.15.15c-.0694.0849-.0849.1018-.1727.174.0679.0523.1231.0876.1811.1175l-.1542.2646c-.0439-.0312-.1033-.0765-.2066-.1741l-.0014.0141-.0806-.0084-.0171.1471.3141.0297-.0268.2632-.3156-.034-.0169.1656c-.0029.0142-.0057.0466.0211.0508l.1048.01c.0354.0071.0397-.0113.0736-.1769l.2137.0962c-.0495.334-.1047.3949-.2419.3779l-.3029-.0311c-.0468-.0057-.1585-.017-.1386-.1727l.0368-.3466-.1514-.0184c-.0538.1683-.1458.3863-.5264.4768l-.1119-.293c.0836-.0113.293-.0424.3779-.2093l-.2589-.0268.0268-.2633.3028.0339.017-.1471-.0708-.0085ZM113.0378,28.7578c.0381.0382.0721.0834.1046.1273.0525-.0353.0849-.0665.1232-.1018l-.2278-.0255ZM113.6376,29.0464c-.0621-.0877-.0976-.15-.1217-.2037-.0424.0495-.0692.0849-.1627.1725l.2844.0312ZM113.5146,29.277l-.1217-.0155-.0156.1486.1217.0113.0156-.1444Z"/>
        <path class="cls-3" d="M115.838,29.0535h.014l-.0069.0778.2248.0255-.0268.2447-.2264-.0254-.0269.259-.5263-.0567-.0086.0707.7529.0822-.0284.2532-.4953-.0552c.2165.167.3878.2138.4812.2391l-.1712.276c-.3113-.1315-.4825-.2957-.5787-.4203l-.041.3722-.2646-.0269.041-.3891c-.1119.0877-.3269.2293-.6609.3169l-.1046-.3311c.0975-.0071.3113-.0169.5164-.1231l-.4839-.0494.0282-.2534.7416.0792.0113-.0707-.5193-.0537.0283-.2619-.2264-.024.0268-.2433.2236.0254.0099-.0764c-.0636-.0085-.1189-.0127-.15-.0184l.01-.2278c.0253.0042.266.0297.3112.0325.0312-.0425.0397-.0594.0552-.0933l-.4061-.0425.0297-.2547.7273.0807.0099-.1104.2817.0312-.0128.1089.7272.0778-.0282.2519-.2363-.0255c.0905.0878.1231.1204.1924.2166l-.215.1117ZM114.8008,29.0209l.2518.0255.0084-.0793.2648.0297-.01.0793.2505.0255.0098-.0778.1755.0184c-.0226-.0339-.0283-.0354-.0383-.0523-.0905-.0044-.4837-.0241-.5659-.0297-.0496,0-.225-.0142-.3396-.0255l-.007.0862ZM114.7739,29.2444l-.0113.0949.2547.0255.0113-.0905-.2547-.0299ZM115.4743,28.6841l-.3878-.0424c-.0184.0255-.0495.0652-.0692.0906.1711.0156.4244.0382.5136.0424-.0411-.0395-.0524-.0452-.0905-.0806l.0339-.01ZM115.2917,29.3053l-.0084.0878.2504.0283.0085-.0906-.2505-.0255Z"/>
        <path class="cls-3" d="M116.7251,30.283c.2108-.1357.5689-.3989.8575-1.1687l-.0864-.0085c-.1556.4344-.4202.8206-.7031,1.0032l-.0765-.2278-.0312.0086-.0721.6621-.2617-.0269.0608-.5603c-.2095.0481-.249.0552-.3113.0637l-.0042-.3509c.0636-.0085.1443-.0156.3537-.0623l.0468-.4373-.085-.0113c-.0411.2024-.0905.3043-.1175.3666l-.1656-.266c.0412-.1033.1119-.2788.1529-.7132l.2179.0297c-.0085.0764-.0142.1245-.0339.2604l.0651.0071.0452-.4061.2603.0282-.0437.4047.1215.0157-.0113.1202c.1062-.1712.1727-.3595.2209-.5207l.2702.065c-.0184.0538-.0354.1075-.0736.218l.6197.0665c-.0764.6891-.1485,1.3853-.232,1.6314-.0255.0778-.082.1868-.2052.174l-.3212-.0326-.0127-.3268c-.1203.133-.2307.2179-.3297.2887l-.1146-.2944ZM117.1836,29.0719c-.1402.2674-.2251.3608-.2887.4132l-.1259-.2788-.0142-.0014-.0353.3424c.0368-.0084.0636-.0184.1286-.041l-.0056.2108c.2321-.2123.3679-.4995.426-.6381l-.0849-.0071ZM117.3789,30.3058c.0494.0042.0805.0042.0962-.0496.0253-.075.0763-.4103.0989-.5787-.1315.2901-.2731.4754-.399.6055l.2039.0228Z"/>
        <path class="cls-3" d="M117.908,30.044c.0425-.0042.0665-.0086.1004-.0156l.1359-1.2537.2533.027-.1259,1.1772c.0466-.0113.0749-.0184.1287-.0341l.1401-1.2904.2716.027-.1895,1.7559c.2079-.1018.3311-.2235.3863-.2773-.0468-.1259-.1458-.3934-.1798-.8943l.2562-.0905c.0198.3664.0778.5745.1288.7202.0621-.1047.1711-.2986.2405-.7217l-.6241-.0679.0368-.3282.9198.0962c-.024.1995-.1175.8702-.4274,1.3174.1231.2008.2419.307.3254.3777l-.2108.2873c-.0707-.0708-.1924-.1911-.3254-.4147-.1896.1826-.3395.2817-.4315.3382l-.1062-.242-.0241.2236-.273-.0282.0538-.4911c-.1443.0496-.317.1075-.4387.1387l-.0212-.3367Z"/>
        <path class="cls-3" d="M121.376,31.0344c-.2278-.0905-.433-.2334-.5999-.4245l-.041.3792-.2731-.0297.0396-.3707c-.2151.1415-.4089.2193-.672.2717l-.0962-.3298c.1867-.0042.3691-.0366.5446-.1146l-.4965-.0523.0297-.266.7343.0793.0113-.0906-.5461-.0566.055-.4882c-.0424.0341-.0579.0481-.0989.0765l-.1019-.3085c.1571-.116.3112-.2745.4018-.4755l.2915.0581c-.0156.0297-.0339.0707-.0679.1259l.2434.0283c.0198-.0368.024-.0467.0608-.1571l.283.0468c-.0198.0594-.0382.0906-.0651.1387l.5645.0621-.0255.2378-.5971-.0638-.0084.0879.5434.0594-.0142.1472-.5448-.0581-.0113.0949.5448.055-.017.1514-.542-.0594-.0099.0906.6509.0694-.0283.2405-.6905-.0721-.0099.0876.7372.0822-.0282.2631-.4996-.0523c.2646.1853.4118.215.5122.232l-.1627.3042ZM120.3729,29.2459l-.0085.0891.3283.0368.0098-.0877-.3296-.0382ZM120.346,29.4837l-.0114.0933.3311.0355.0099-.092-.3296-.0368ZM120.3219,29.7271l-.0113.0891.3283.0353.0099-.0905-.3269-.0339Z"/>
        <path class="cls-3" d="M123.3074,29.6535l-.0113.0891-.3579-.0368-.0086.0707.4501.0481-.068.6353-.4486-.0481-.0071.0722.535.0566-.027.2406-.5348-.0594-.0142.1357.5689.0638-.0977.3055-.8999-.0976c-.3141-.0339-.4131-.191-.4584-.2688-.0665.0764-.1669.1755-.2802.2518l-.0609-.3862c.0708-.0368.1514-.0963.1798-.1161l.0496-.4668-.143-.0142.034-.3127.4003.041-.0749.6734c.0042.0906.0113.2435.375.2832l.1542.0182.0127-.1372-.5136-.0552.0269-.2376.5135.0552.0086-.0722-.4499-.0495.065-.6354.4528.0496.0071-.0707-.358-.0397.0099-.092-.1486-.0141.0113-.1047-.2051.215c-.0425-.082-.1585-.2872-.2363-.382l.2093-.2164c.0849.0975.1855.2376.2378.3409l.0297-.2872,1.2678.1372-.0467.4344-.1486-.0169ZM122.4727,29.3591l-.01.0934.2434.027.0113-.0949-.2447-.0255ZM122.4727,29.8883l-.0086.092.1868.0184.01-.0892-.1882-.0212ZM122.4501,30.1063l-.01.0876.1867.0213.01-.0905-.1867-.0184ZM123.2155,29.4412l-.2434-.0297-.0113.0933.2447.0284.01-.092ZM122.9141,29.9379l-.01.0891.1855.0184.0099-.0878-.1854-.0197ZM122.8901,30.1515l-.0086.0905.1841.0213.0098-.0892-.1853-.0226Z"/>
        <path class="cls-3" d="M123.981,30.2916c.0142.0014.0282-.0029.0452-.0029l.0892-.8276.1372.014c.0283-.0594.058-.1343.0737-.1995l.2376.051c-.0226.0651-.0368.1019-.0764.174l.1924.0213-.0439.3932c.0849-.123.1077-.2913.1203-.4017.0058-.051.0071-.0849.01-.1345l.4626.051-.0508.4881c-.0057.0283-.0029.0481.0127.0509.0226.0014.031.0029.0354-.0438.0113-.0679.014-.0849.024-.1698l.1274.0877c-.0525.4103-.1161.4132-.2024.4061l-.099-.0113c-.0792-.0071-.1231-.0439-.1104-.1698l.041-.3593-.0778-.01c-.0496.358-.1684.4797-.2194.5335l-.082-.2222-.0255.218c.0184-.0071.0241-.0044.0538-.0142l-.0071.0721.6027.0651-.0324.2929c-.0226.0806-.0651.2165-.1897.3991.0751.0805.1458.1202.201.1512l-.1245.2845c-.0623-.0438-.1501-.109-.252-.2349-.1244.1033-.1938.1416-.2603.1755l-.082-.2929c.0594-.0284.1244-.0566.2037-.116-.0693-.1514-.0849-.266-.0933-.3537l.1796-.0567-.1896-.0213.0156-.123c-.0269.0071-.034.0099-.051.0128l-.0805.747c-.0128.1232-.0596.1783-.1627.1657l-.1812-.0184-.0043-.2817.1104.0127c.0283.0029.0567.0042.0636-.0523l.0552-.5293c-.0169.0044-.0197.0044-.0494.0086l-.0524.4994-.1005-.0098.0509-.4754c-.0212.0042-.0268.0027-.0438.0071-.0778.549-.157.6918-.2164.7994l-.1374-.2788c.0793-.1429.1146-.2391.1614-.4995-.0142.0015-.0255.0029-.0439.0042l.0042-.0876c-.0297.0169-.0608.0255-.0721.0324l-.0609.5745c-.0155.143-.0481.2336-.2009.2165l-.1528-.0155-.0056-.3254.0734.0071c.0468.0042.0482-.0128.0539-.0496l.0354-.3212c-.0326.0127-.0525.0156-.1119.0297l.0113-.3353c.0397-.0043.0525-.0071.136-.0226l.041-.3863-.1161-.0114.034-.3041.1147.0127.041-.3566.2461.0255-.041.3565.0793.01-.0341.3013-.0763-.0071-.0326.2943c.0255-.0084.0439-.0127.0821-.0282l-.0127.1146ZM124.4578,29.7708l-.1882-.0211-.0567.5264c.0326-.0044.1642-.0199.1954-.0213l.0495-.484ZM124.3842,29.8275c.0029.0508.0057.3014.0071.3566l-.1188.0184c.0084-.0822.0084-.2746.0042-.3679l.1075-.0071ZM124.8144,30.6015c.0255.1174.0523.1797.0736.2263.0552-.0805.0849-.1514.1117-.2079l-.1853-.0184Z"/>
        <path class="cls-3" d="M127.1745,30.0128l-.7089-.0778-.0113.0948.6027.0637-.0975.8943-.6014-.068-.0099.0933.7385.0822-.031.2886-.7386-.082-.0312.2901-.2744-.0297.0324-.2874-.7399-.0792.0324-.2914.7387.082.0098-.0962-.6013-.0637.0963-.8914.6013.065.0099-.0933-.7075-.0765.0283-.2829.7104.0778.0155-.14.2731.0297-.0142.14.709.0765-.0312.2815ZM125.8304,30.1868l-.0115.1217.3241.0354.0155-.1216-.3281-.0355ZM125.7992,30.494l-.0142.1259.3254.0368.0142-.1274-.3254-.0353ZM126.4288,30.2506l-.0126.123.3323.0355.0142-.1217-.3339-.0368ZM126.3963,30.559l-.0127.126.331.0353.0142-.1245-.3325-.0368Z"/>
      </g>
      <path class="cls-3" d="M111.9737,30.4925l-.0255.2377.532.0581-.0142.1131c-.0155.1882-.1075.631-.4201.8462-.1188.0834-.3481.2022-.7711.1938l-.0567-.2674c.2872.0169.6027-.0226.791-.2504.1104-.1317.1656-.3708.1683-.4147l-.7782-.0834-.0395.3636-.2533-.0284.0678-.6126.5122.0538.0255-.2391.2618.0297Z"/>
      <path class="cls-3" d="M114.8163,31.2835c-.0807.7513-.317.9466-.4089,1.0202l-.1825-.242c.0849-.0707.266-.2137.3269-.7797l.0466-.4245.2604.0297-.0425.3963ZM115.1928,31.991c.2913-.0638.3904-.4103.4243-.5462l.2336.1472c-.1387.4499-.44.7498-.9566.7131l.1571-1.4532.2631.0269-.1215,1.1122Z"/>
      <path class="cls-3" d="M117.584,31.2057c-.0723.4499-.2534,1.1785-1.2452,1.2663l-.0891-.266c.7414-.0566.9013-.4287.9947-.7654l-1.0145-.1104.0282-.2675,1.3259.143Z"/>
      <path class="cls-3" d="M119.2225,31.3868l-.1414,1.3059-1.2948-.1401.1416-1.3045,1.2946.1387ZM118.9196,31.6146l-.7512-.0822-.0864.7939.7514.082.0862-.7937Z"/>
      <path class="cls-3" d="M120.0318,31.9471c-.1414-.1232-.3169-.2378-.4881-.3198l.1429-.2179c.2363.1019.4004.215.5136.3041l-.1684.2336ZM119.4715,32.5003c.6438.0184,1.006-.1995,1.2678-.8631l.2363.1556c-.3509.8604-.8773.9919-1.4461,1.0118l-.058-.3043Z"/>
      <path class="cls-3" d="M122.6891,32.1395l-.0269.2491-.515-.0538-.0043.0241c-.0735.4231-.2872.6253-.7937.6707l-.0778-.252c.3819-.0184.5461-.1273.5998-.4442l.0044-.0283-.5986-.0652.0268-.2504,1.3853.15ZM122.6057,31.6895l-.0297.2547-1.125-.1217.0283-.2504,1.1264.1174Z"/>
      <path class="cls-3" d="M123.7447,33.2984l-.2435-.0283.0596-.5604c-.225.1076-.3863.1457-.4712.1614l-.1076-.2265c.1712-.0339.3509-.0806.573-.1981.1869-.0976.3595-.2235.5038-.382l.184.184c-.0567.0537-.1911.1796-.4203.3197l-.0778.7302Z"/>
      <path class="cls-3" d="M124.5059,33.1555c.4288-.1232.5618-.358.6028-.8137l.2716.0326c-.0071.0594-.0127.1033-.0382.2164.2179-.0749.3072-.198.3622-.3013l-1.1022-.1161.0255-.2604,1.4389.1544c-.0962.4145-.2871.6155-.5772.7527l-.15-.2066c-.0778.3184-.208.5928-.6849.7754l-.1485-.2334Z"/>
      <g>
        <path class="cls-3" d="M108.8354,32.7508l-.4925-.0552.0184-.1769.5575.0608-.0085.0779c.0863-.1218.1302-.232.1656-.341l.2052.0523c-.0142.0354-.0199.0538-.0567.1401l.4754.0538-.0254.2307-.2632-.0297-.0297.2886.2816.0297-.0255.232-.2829-.0311-.0594.566-.2167-.0241.0623-.5659-.2871-.0299.0253-.2319.2873.0297.0297-.2872-.0792-.0085c-.0707.1288-.1288.1909-.1642.2334l-.1018-.1458-.017.1656-.4797-.0537.0198-.1713.4712.0496-.0297-.0354.0199-.0226ZM108.425,32.2895l.4769.0537-.0171.1727-.4796-.0524.0198-.174ZM108.35,32.9928l.4768.0523-.0184.1712-.4783-.051.0199-.1725ZM108.3274,33.2304l.4726.051-.0481.4542-.2817-.0311-.0071.0537-.1938-.0213.0581-.5065ZM108.4999,33.4186l-.0113.1132.1076.0113.0142-.1103-.1105-.0142Z"/>
        <path class="cls-3" d="M110.928,32.8002l-.9706-.1031.0255-.228,1.3356.1444-.0226.2264-.1514-.0169-.1146,1.0582c-.0099.1034-.0849.1431-.1585.136l-.3368-.0383-.014-.2491.2646.0299c.0297.0027.0424-.0213.0437-.0439l.0991-.9156ZM110.7766,32.8922l-.0763.7146-.5166-.0552-.0098.0906-.2081-.0226.0878-.8052.723.0778ZM110.2389,33.0451l-.0311.2928.3099.0355.0326-.2972-.3114-.0311Z"/>
        <path class="cls-3" d="M111.7982,32.9813c-.0085-.0353-.0127-.0579-.0213-.0975l.0935-.0113c-.0312-.0058-.1811-.0171-.2037-.0198l-.0128-.201c.0594.0113.1316.0199.2364.0297.2999.0341.5941.051.8955.0354l.0552.1938c-.0679.0042-.147.0086-.2263.0042l.0707.0199c-.0184.0453-.0424.1018-.0608.1372l.2532.0255-.0184.1911-.3466-.0383c.0254.0297.1486.1657.3579.242l-.1075.215c-.0424-.0282-.0579-.0353-.0721-.0466l-.058.5504-.2066-.0255.0056-.0481-.6792-.0736-.0057.0496-.2022-.0226.0608-.5547c-.034.0141-.0397.017-.075.0268l-.0609-.2235c.1529-.0241.2633-.0623.3976-.1586l-.3508-.0366.0197-.1911.2618.0282ZM111.801,33.6451l.2378.0268.0098-.0864-.2376-.0282-.01.0878ZM111.7756,33.8728l.2406.0283.0098-.092-.2405-.0241-.0099.0878ZM112.0685,33.4144l.0213-.1968c-.1062.1006-.1798.1544-.2095.177l.1882.0198ZM112.1095,33.0168l.0156-.1246c-.024-.0014-.1273-.0113-.1499-.0127.0113.0481.0184.1175.0197.1259l.1146.0114ZM112.3048,33.0352l.1244.0141c.0213-.0452.0341-.0806.0525-.1358-.0255-.0029-.1374-.0071-.1614-.0071l-.0155.1288ZM112.2623,33.4341l.184.0199c-.1076-.1104-.1444-.1839-.1614-.2151l-.0226.1952ZM112.2354,33.6917l.2406.0268.0113-.0862-.2419-.0255-.01.0849ZM112.21,33.9224l.242.024.0098-.0878-.2419-.0282-.0099.092Z"/>
        <path class="cls-3" d="M113.4141,33.8812c-.0325.0525-.0396.068-.0594.0992l-.2038-.1105c.0764-.1102.1203-.1867.1741-.297l-.2349-.0255.0211-.2009,1.3344.1428-.0212.201-.8673-.092c-.0128.0311-.0255.0566-.0383.0892l.7811.0835c-.024.1768-.0708.3905-.116.4712-.0113.0253-.0694.123-.1868.1102l-.3085-.0324-.024-.2321.2759.0297c.065.0085.0763-.0496.1004-.1684l-.6268-.068ZM114.3876,32.9474l-.0496.4543-1.0979-.1175.0495-.4556,1.098.1188ZM113.4806,33.0352l-.0113.1019.6778.0721.0113-.1018-.6778-.0722Z"/>
        <path class="cls-3" d="M116.2567,33.5134l-.0438.4047-.4825-.0524-.0071.0807.5405.058c-.0396.2844-.0594.4005-.0962.4471-.0368.051-.0849.0552-.1161.051l-.2447-.0255-.0142-.2279.1698.0184c.0467.0044.0481-.0042.0665-.1089l-.3254-.0354-.0439.409-.2079-.0198.0339-.3127c-.2136.174-.4315.2136-.5193.2249l-.0693-.2362c.1075-.01.249-.0269.4244-.1076l-.3579-.0354c.0636-.1372.0948-.2405.133-.4003l.4443.0452.0071-.082-.5009-.0552.0169-.1698.017.0042-.0864-.1458c.1033-.058.1883-.1556.2435-.2575l.2151.0467c-.0127.0326-.0156.0439-.0284.0694l.2604.0282-.0155.1316c.1018-.0962.1343-.1598.1584-.2123l.2108.0496c-.0126.0284-.0197.0368-.0297.065l.3678.0397-.0197.2023-.2221-.024c.007.0114.0283.0524.0367.0892l-.1004.0254.1853.0184ZM115.33,33.4144c-.0113-.0608-.0142-.075-.027-.1259h-.0169c-.058.0622-.0948.0906-.1188.1075l.1627.0184ZM115.272,33.8162c-.0043.0113-.0127.0466-.0227.0792l.2674.0297.0071-.082-.2518-.0269ZM115.7106,33.454l-.1119-.1274.0086-.0056-.0948-.0084c.0042.0098.0212.0494.0283.0905l-.109.0212.2788.0297ZM115.9482,33.4809c-.0211-.0863-.0268-.1018-.0297-.1259l-.0324-.0014c-.0594.0636-.0864.0891-.1132.1089l.1753.0184ZM116.0218,33.7426l.01-.0806-.276-.0311-.007.0834.273.0283Z"/>
        <path class="cls-3" d="M125.529,35.1902c-.0299.0537-.0412.0665-.0609.0962l-.2051-.1062c.082-.1117.1215-.1868.1767-.2985l-.2376-.0227.0226-.2037,1.34.1443-.0226.2009-.8688-.0934c-.0156.0355-.0269.0566-.0411.0863l.784.0878c-.0255.1783-.0722.392-.1146.4725-.0115.0213-.068.1217-.1897.1104l-.3099-.0326-.0226-.2319.2745.0268c.0665.01.0791-.0481.1032-.1684l-.6281-.0678ZM126.5038,34.2591l-.051.4556-1.0951-.1231.0481-.4527,1.098.1202ZM125.5941,34.344l-.0086.099.6778.075.0113-.1004-.6805-.0736Z"/>
      </g>
      <g>
        <path class="cls-3" d="M109.3547,30.2081c-.1161.1245-.2577.3509-.2958.7316-.0424.3791.0481.6295.1316.7782l-.1727-.0157c-.0381-.0849-.1571-.3438-.1117-.7796.0495-.4372.2193-.6607.2744-.7301l.1742.0156Z"/>
        <path class="cls-3" d="M110.0197,30.4854l.0197-.198.1868.0197-.0226.1995.2631.0284-.0226.2263-.2646-.0297-.0155.1529.283.0297-.0255.2292-.2307-.027c.0764.218.1669.3185.2194.3694l-.1062.2632c-.0906-.1104-.1527-.2505-.1924-.3977l-.0496.4613-.1868-.0198.0567-.498c-.0778.15-.1769.2773-.2928.3821l-.092-.2378c.1641-.1004.2574-.2265.3338-.3537l-.2278-.0255c.0241.0467.0341.0622.0525.0835l-.1345.1712c-.041-.1344-.0439-.1656-.051-.2335l-.0707.665-.1811-.0184.0651-.6027c-.0609.1796-.1203.2631-.1557.3127l-.0282-.3213c.0849-.1075.133-.1966.215-.4159l-.1429-.0184.0226-.2151.1586.0142.0282-.2589.1811.0183-.0282.2603.1244.0128-.0127.0976c.0821-.1401.1089-.2716.1202-.3197l.1728.041c-.0057.0368-.0199.0765-.0412.1472l.0723.0056ZM109.7721,30.842l-.0977-.1089-.1133-.0128-.0084.0722c.0155.075.0538.1669.0977.2589l.0226-.2194.0991.01ZM109.9773,30.8632l.0169-.15-.1259-.0155c-.0326.0736-.068.1274-.0793.1458l.1883.0197Z"/>
        <path class="cls-3" d="M110.6012,30.3439c.0397.0792.1599.3354.1146.7754-.0481.4372-.2207.6594-.2774.7343l-.1712-.0184c.116-.1273.2561-.3536.2986-.7315.0425-.3805-.0481-.6325-.1358-.7768l.1712.017Z"/>
      </g>
      <path class="cls-3" d="M113.4948,32.1339l-.2378-.0241.0581-.549c-.2194.1033-.3779.1372-.4584.1556l-.1006-.2164c.1627-.0383.3367-.0822.5547-.1981.1825-.0949.3509-.2152.4895-.3693l.1784.1796c-.0552.0523-.1868.1713-.4076.3114l-.0763.7103Z"/>
      <g>
        <path class="cls-3" d="M116.9274,34.5448l.0962-.8928-.273-.0297.0254-.2263c.1627.0113.2787-.0071.3622-.2165l.2307.0241-.1471,1.3724-.2944-.0312Z"/>
        <path class="cls-3" d="M117.9731,33.529l.0269-.2576,1.0244.1133-.027.2533c-.0734.0424-.2235.1386-.3862.4428-.1287.2419-.1627.4458-.1881.6255l-.2957-.0326c.0155-.099.0437-.3297.2079-.6254.1274-.2349.2405-.3325.3679-.44l-.7301-.0793Z"/>
        <path class="cls-3" d="M120.128,33.8488c-.0084-.0368-.0353-.1217-.1782-.1372-.2463-.0284-.2873.2051-.3114.3395.0638-.0496.1402-.116.3495-.0948.2675.0283.426.2194.3976.491-.0282.2575-.2178.484-.563.4499-.1473-.0184-.2364-.0763-.2845-.116-.2066-.174-.2108-.457-.1882-.6678.0751-.6849.5208-.6778.6312-.6665.1414.0171.4315.1189.4499.4358l-.3029-.0339ZM120.0969,34.4317c.0142-.1471-.0906-.2307-.2094-.242-.1244-.0169-.2462.0481-.2631.1911-.01.1132.0508.2377.215.2533.1585.0184.2447-.0893.2575-.2024Z"/>
        <path class="cls-3" d="M121.8741,33.9492l-.5419-.058-.0778.2703c.0862-.0567.1937-.051.2589-.0439.2038.0213.4146.1811.3778.4938-.0312.2944-.2448.4826-.5858.4429-.4499-.0467-.4656-.365-.4727-.4754l.2987.0325c.0142.1641.1769.1798.208.1869.1429.0126.2447-.0694.2602-.2039.0157-.1542-.082-.2447-.1951-.2589-.1104-.0113-.1543.0226-.1953.0524l-.3113-.034.2094-.7456.7952.0862-.0283.2547Z"/>
        <path class="cls-3" d="M122.6594,34.8165c.0128.0412.0368.1232.1782.1388.2464.0254.2887-.2038.3114-.3382-.0623.0482-.1401.1147-.3495.0919-.2647-.0282-.4259-.2136-.3948-.4909.0255-.2561.2108-.4883.5589-.4486.1472.017.2377.0778.2858.1174.2094.1742.2094.4571.1868.6665-.0736.6834-.5179.6778-.6297.6622-.14-.0114-.4329-.1147-.4484-.433l.3013.0339ZM122.6919,34.2378c-.017.143.0892.2279.2122.2407.1232.014.2406-.0483.259-.1926.01-.1131-.0551-.2361-.2094-.2532-.1613-.0197-.2504.0878-.2618.2051Z"/>
        <path class="cls-3" d="M124.8568,34.2732l-.5462-.0594-.0792.2703c.092-.0566.1967-.051.2632-.0453.2052.0226.4131.1797.3777.4967-.0339.2928-.2461.481-.5857.4442-.4528-.0495-.4683-.3679-.474-.4796l.3014.0325c.0127.167.1769.1825.2052.1867.1443.0157.2461-.0678.2618-.2037.0155-.1514-.0807-.2447-.1995-.2574-.1077-.0128-.1515.0211-.1897.0508l-.3127-.0353.2108-.7429.7938.0864-.0269.256Z"/>
      </g>
    </g>
  </g>
</svg>