<?xml version="1.0" encoding="UTF-8"?>
<svg id="_デザイン" data-name="デザイン" xmlns="http://www.w3.org/2000/svg" viewBox="0 0 236.3834 150.4037">
  <defs>
    <style>
      .cls-1 {
        fill: #23ab3a;
      }

      .cls-2 {
        fill: #231815;
      }

      .cls-3 {
        fill: #fff;
      }

      .cls-4 {
        fill: #feef12;
      }
    </style>
  </defs>
  <g>
    <path class="cls-4" d="M118.191,35.3822c65.276,0,118.1924,25.7472,118.1924,57.5129,0,14.3943-10.8902,27.5416-28.8573,37.6242.0672.3884.1118.7917.1026,1.2282,2.67,4.9474,5.6131,9.5962,10.0632,13.7371-6.6885-1.0733-15.6841-4.4564-22.6308-8.9337-12.6362,5.2683-27.571,9.2697-43.988,11.5796-5.05.5823-11.984,1.6725-16.7856,1.727-5.2665.3488-10.632.5462-16.0965.5462C52.9164,150.4037,0,124.653,0,92.8951s52.9164-57.5129,118.191-57.5129Z"/>
    <g>
      <path class="cls-2" d="M33.9198,64.2936c.2264-.5122.4273-1.1914.4641-1.323l.9763.2151c-.1415.3933-.2972.786-.4641,1.1079h4.5052v9.7837h-1.0018v-.7033h-6.8767v.7033h-.9876v-9.7837h3.3846ZM31.5228,66.9749h6.8767v-1.7637h-6.8767v1.7637ZM31.5228,69.6442h6.8767v-1.7878h-6.8767v1.7878ZM38.3995,70.5257h-6.8767v1.9428h6.8767v-1.9428Z"/>
      <path class="cls-2" d="M44.8036,74.0893h-.965v-4.8264c-.7499.6912-1.2989,1.0485-1.6329,1.2628l-.4047-.977c1.9782-1.1914,3.0875-2.7287,3.4921-3.6937h-3.3364v-.8943h1.8819v-1.942h.965v1.942h1.5366v.9063c-.1188.2858-.4273,1.0244-1.2989,2.109.6339.7266,1.0499,1.0845,1.7177,1.5607l-.5376.8702c-.6311-.5122-.7613-.6551-1.4178-1.4298v5.1122ZM50.0842,63.0187v3.444h2.6205v.977h-2.6205v5.2431h2.895v.9771h-6.9474v-.9771h3.0506v-5.2431h-2.4903v-.977h2.4903v-3.444h1.0018Z"/>
      <path class="cls-2" d="M59.6577,72.576c1.8706-.167,2.8611-.4648,3.5289-1.1327.9169-.9176,1.0358-2.2759,1.0358-3.0025,0-1.3944-.6905-3.5275-3.6223-3.611-.0255,2.3956-.9169,7.7936-3.5515,7.7936-1.3952,0-2.2272-1.6682-2.2272-3.4199,0-2.9552,2.0715-5.3387,5.6117-5.3387,3.3139,0,4.958,2.0255,4.958,4.6475,0,4.5278-3.8147,4.9452-5.3881,5.0641l-.3453-1.0004ZM57.5495,65.664c-1.7036,1.2515-1.7036,3.3251-1.7036,3.635,0,.8935.2971,2.2519,1.2253,2.2519.6339,0,1.0273-.6318,1.265-1.0846.3565-.7032,1.1206-2.7761,1.2027-5.577-.4302.0714-1.2027.191-1.9894.7747Z"/>
      <path class="cls-2" d="M69.8058,66.0573h1.1206v.8936h-1.1206v.2865c.2151.5362.6678,1.4298,1.6328,2.4188l-.5461.8695c-.6198-.8815-.9679-1.6441-1.0867-1.954v5.5056h-.9282v-5.1002c-.5009,1.5133-1.0499,2.2639-1.3697,2.6926l-.5009-1.0244c.9876-1.132,1.6074-2.8483,1.8225-3.6944h-1.5735v-.8936h1.6216v-1.6802c-.6679.1188-1.1093.1429-1.4659.1789l-.1557-.8701c1.0018-.0121,2.6234-.2859,3.5742-.6431l.3226.786c-.249.1195-.4414.203-1.347.3813v1.8472ZM70.7114,73.2905c.4669-.1308,1.6583-.4768,2.5384-1.0725l.6197.6077c-.798.5957-1.9413,1.0372-2.6799,1.2516l-.4782-.7868ZM75.1345,63.0428v.6431h2.8695v.7272h-2.8695v.6672h2.5243v.6431h-2.5243v.6799h3.0959v.7386h-7.0408v-.7386h2.9912v-.6799h-2.4677v-.6431h2.4677v-.6672h-2.7903v-.7272h2.7903v-.6431h.9537ZM77.6107,72.1826h-5.8976v-4.4691h5.8976v4.4691ZM76.7051,68.3573h-4.0751v.6551h4.0751v-.6551ZM76.7051,69.5848h-4.0751v.6551h4.0751v-.6551ZM76.7051,70.8123h-4.0751v.6671h4.0751v-.6671ZM76.0033,72.218c.7159.4889,1.5847.8582,2.3601,1.0725l-.4896.7868c-.8206-.2505-1.7885-.7386-2.4535-1.2155l.583-.6438Z"/>
      <path class="cls-2" d="M84.0289,68.8695c-.3934-.3452-.9282-.8341-1.4885-1.8705-.7047,1.5012-1.7885,2.1684-2.3121,2.4783l-.5377-.8462c.467-.2384,1.5621-.8221,2.097-2.133h-1.9413v-.7981h2.2045c.1075-.4768.1075-.7272.1075-1.0492h-2.0488v-.822h2.0488v-.7981h.9056v.7981h1.7036v.822h-1.7036c0,.2746,0,.5604-.0962,1.0492h2.0149v.7981h-1.8366c.5971.989,1.1942,1.4185,1.5139,1.6569l-.631.7145ZM89.5585,69.1079v4.9814h-.9763v-.5129h-6.4607v.5129h-.9989v-4.9814h8.4359ZM82.1215,69.93v.9657h6.4607v-.9657h-6.4607ZM82.1215,71.6584v1.0839h6.4607v-1.0839h-6.4607ZM90.4641,69.4539c-1.5734-.9296-2.2045-2.0382-2.4677-2.5978-.4273.9175-1.1546,1.5606-2.3573,2.0849l-.6198-.8582c.4274-.1429,1.5848-.5242,2.1196-1.5847h-1.6073v-.7981h1.8818c.1076-.4527.1076-.7746.1076-1.0492h-1.8112v-.822h1.8112v-.7981h.9056v.7981h2.1677v.822h-2.1677c0,.5844-.0595.9063-.0849,1.0492h2.5157v.7981h-2.145c.382.7273,1.0357,1.5253,2.3007,2.0856l-.549.8702Z"/>
      <path class="cls-2" d="M100.4084,65.9618v.8943c-.8943.7739-1.7857,1.5486-2.68,2.3113.2491-.0715.3566-.0835.4868-.0835,1.0131,0,1.1574.9416,1.1574,1.7517v.5009c0,1.1199.2632,1.2628,1.548,1.2628.8716,0,1.4064-.0594,1.8253-.1068l.0226,1.0485c-.3933.0354-.8348.0714-1.7036.0714-1.4772,0-2.728-.036-2.728-1.9781v-.6438c0-.6551-.0623-1.0484-.6679-1.0484-.6084,0-.9904.2858-1.2508.4888-.5122.4762-2.6941,2.6927-3.1469,3.1341l-.7499-.8107c.5236-.4769,2.7988-2.6573,3.2771-3.0981,1.4772-1.3944,2.561-2.324,3.0619-2.7648l-5.4815.1076v-1.0252l7.0295-.012ZM100.4565,65.1157c-.8575-.2979-2.2045-.7146-5.7079-.9056l.1556-.965c1.9668.0714,3.9307.2738,5.8268.8341l-.2745,1.0365Z"/>
      <path class="cls-2" d="M106.77,68.5476c0,.5724-.4669,1.0131-1.0131,1.0131-.5603,0-1.0131-.4528-1.0131-1.0131,0-.5716.4528-1.0124,1.0131-1.0124.5462,0,1.0131.4408,1.0131,1.0124Z"/>
      <path class="cls-2" d="M110.9356,74.0773h-.9763v-6.2209c-.4047.6318-.6792.9176-.9424,1.2041l-.5009-1.1086c1.2282-1.3583,2.0744-3.3244,2.397-4.9813l.9989.179c-.0934.4648-.2858,1.4185-.9763,2.9318v7.9959ZM111.4478,72.6234c2.2413-1.156,3.2884-2.9672,3.4808-3.277h-3.1468v-.8936h3.5034v-1.2756h-2.7281v-3.8012h6.4579v3.8012h-2.7648v1.2756h3.4694v.8936h-3.1355c.5716,1.0605,1.681,2.3233,3.3138,3.3011l-.6197.8341c-1.098-.7507-2.1111-1.6329-3.028-3.265v3.8607h-.965v-3.8013c-.5717.953-1.5621,2.1804-3.2657,3.1815l-.5717-.8341ZM118.0726,64.2582h-4.5618v2.0496h4.5618v-2.0496Z"/>
      <path class="cls-2" d="M126.5765,63.8408v.8461h-1.8706c.1302.2505.3085.6672.4047,1.0011l-.9169.2858c-.0962-.4287-.3226-.977-.4641-1.2869h-.549c-.4188.5837-.8235,1.0485-1.3357,1.4065l-.6679-.6679c.9679-.7025,1.6329-1.7517,1.8848-2.4783l.9536.1783c-.0962.2505-.1556.3934-.3226.7153h2.8837ZM127.2557,65.7835v.6311h4.8391v2.2165h-.931v-1.4178h-8.7105v1.4178h-.9169v-2.2165h4.7911v-.6311h.5829l-.6678-.4768c.7159-.6438,1.2621-1.3945,1.596-2.3474l.9198.1549c-.0849.2384-.1557.4408-.2859.7266h3.8232v.8461h-2.5129c.2603.4174.3339.5604.5235,1.0365l-.9056.2865c-.1188-.3459-.3933-.9657-.5829-1.323h-.8122c-.0934.155-.4528.7153-.9169,1.0966h.167ZM130.6176,67.8564v2.3715h-6.7352v.7987h7.5672v3.0386h-.9395v-.4888h-6.6277v.4888h-.9537v-6.2088h7.6889ZM123.8824,68.5717v.9416h5.7815v-.9416h-5.7815ZM123.8824,71.7419v1.0718h6.6277v-1.0718h-6.6277Z"/>
      <path class="cls-2" d="M140.859,63.1255c-.0962.3099-.2037.6679-.4528,1.1327h4.5166v.8815h-5.0656c-.6084.8582-1.1093,1.2749-1.4064,1.5374l-.6085-.7386c.2151-.167.2887-.2151.4896-.4054h-2.3941v1.5727h2.1196c-.0226,2.9912-.0934,5.6966-.416,6.4232-.1188.2624-.3226.5242-1.1433.5242h-.9197l-.1783-.953h.9424c.2151,0,.4047,0,.5122-.3219.1415-.4527.249-3.2176.2632-4.7549h-1.1801v.2264c0,2.2526-.3933,4.2066-1.4659,5.756l-.6791-.7867c.4414-.7032,1.2394-1.9661,1.2394-4.9813v-2.7047h-1.0725v-.9176h1.7149v-1.5614h.965v1.5614h1.7178v.8935c.1047-.1068,1.0103-.977,1.5593-2.5144l.9423.1309ZM141.3712,67.4036v-1.775h.8943v1.5486l2.2526-.5716c-.0368,3.2056-.0368,3.5508-.1443,3.9201-.0963.3219-.2859.5844-1.0018.5844h-.7273l-.1302-.9056.6679.0121c.2037,0,.3565-.0481.3933-.4295.0368-.2978.0368-1.4659.0368-2.0135l-1.347.3333v3.8614h-.8943v-3.635l-1.2281.3098v3.7299c0,.5242.1782.5843.5971.5843h2.5242c.5604,0,.7415,0,.7415-1.4659l.9395.2738c-.0962,1.6683-.2377,2.0977-1.2735,2.0977h-3.3025c-.6084,0-1.1432-.1429-1.1432-.9537v-4.0517l-.716.179-.1528-.8582.8688-.2264v-1.6802h.9169v1.4418l1.2281-.3099Z"/>
      <path class="cls-2" d="M151.0184,65.0562v.8582h-4.4826v-.8582h4.4826ZM150.6109,63.376v.8461h-3.6931v-.8461h3.6931ZM150.6109,66.7365v.8582h-3.6931v-.8582h3.6931ZM150.6109,68.4288v.8581h-3.6931v-.8581h3.6931ZM150.6109,70.1444v3.3966h-2.8243v.5363h-.8688v-3.9329h3.6931ZM149.7421,70.9431h-1.9555v1.7758h1.9555v-1.7758ZM157.346,74.0773c-.8461-.2625-1.9186-.6559-3.0987-1.5133-1.3951,1.0484-2.5016,1.3463-3.1101,1.5133l-.5009-.9297c1.5254-.3572,2.3008-.822,2.8469-1.2034-1.0357-.9537-1.4178-1.8231-1.6328-2.3l.8122-.3452c.2009.4528.6197,1.3102,1.5253,2.0729.5716-.5243,1.1319-1.2034,1.6809-2.3474h-4.542v-.9417h5.5523v.9296c-.2009.5243-.6537,1.7043-1.9045,2.9198,1.1206.7032,2.1677,1.0251,2.8101,1.2034l-.4387.9417ZM155.8688,63.376v2.6339c0,.1189.034.3099.2859.3099h.2716c.167,0,.2406-.0715.2858-.2625.0482-.179.1217-.8935.1444-1.2989l.8942.2144c-.0368,2.2044-.631,2.2759-1.0612,2.2759h-.9537c-.1783,0-.798,0-.798-.7627v-2.1924h-1.9074c-.1075,1.7998-.4414,2.5264-1.3923,3.289l-.7159-.7265c.8461-.5363,1.1914-1.5374,1.1914-2.9439,0-.2143,0-.3572-.0114-.5362h3.7666Z"/>
      <path class="cls-2" d="M163.5237,63.364c-.0226.8341-.0368,1.4305-.0368,2.2766,0,.9289.1812,1.2508.2859,1.4652.764-.2384,2.0516-.6551,4.3976-.9891l.1189,1.1207c-1.8819.2143-3.5968.5596-4.9693,1.0838-.7839.2979-2.7648,1.0846-2.7648,2.5979,0,1.4779,1.5507,1.5854,4.4712,1.5854,1.9413,0,3.062-.1195,3.6562-.191l.0142,1.1079c-.7414.0835-1.1942.1316-2.9092.1316-3.2062,0-4.0043-.1669-4.8391-.4888-.965-.3693-1.4772-1.1561-1.4772-2.0255,0-1.7638,1.6923-2.9318,3.3506-3.5749-.4075-.6438-.4415-.8341-.4528-4.0998h1.1546Z"/>
      <path class="cls-2" d="M176.4705,63.0307v2.097h4.6128v5.9584h-1.0018v-.6552h-3.611v3.6343h-1.0244v-3.6343h-3.5628v.6552h-1.0018v-5.9584h4.5646v-2.097h1.0244ZM175.4461,66.0934h-3.5628v3.3718h3.5628v-3.3718ZM180.0815,66.0934h-3.611v3.3718h3.611v-3.3718Z"/>
      <path class="cls-2" d="M187.9769,63.4595v4.1472h-3.4666v6.4706h-.9537v-10.6178h4.4203ZM187.0487,64.2462h-2.5384v.9055h2.5384v-.9055ZM187.0487,65.8429h-2.5384v.965h2.5384v-.965ZM191.3134,72.7783h-5.4334v-4.3495h5.4334v4.3495ZM190.4078,69.2155h-3.6336v1.0011h3.6336v-1.0011ZM190.4078,70.8957h-3.6336v1.0959h3.6336v-1.0959ZM193.6622,73.0882c0,.2384,0,.9891-.8348.9891h-1.7404l-.1783-.9537,1.4659.012c.2151,0,.3452-.0354.3452-.3332v-5.1957h-3.5741v-4.1472h4.5165v9.6287ZM192.7198,64.2462h-2.6459v.9055h2.6459v-.9055ZM192.7198,65.8429h-2.6459v.965h2.6459v-.965Z"/>
      <path class="cls-2" d="M206.9316,72.9573l-.1669.953h-3.5289c-2.2158,0-3.7666-.9056-4.7175-2.0022-.8461,1.1921-1.7998,1.8833-2.2894,2.2406l-.6424-.8221c.5349-.358,1.4773-.989,2.3347-2.2405-.4301-.7033-.7754-1.4893-1.0244-2.5024-.2745.5957-.4896.9417-.6905,1.2508l-.7273-.7506c.6198-.8815,1.5366-2.4903,1.681-6.0772l.9055.024c-.0254.3453-.0367.5596-.1075,1.2749h2.5243c-.0227.9417-.0708,3.0146-.8094,5.3627-.215.6671-.5009,1.1914-.6424,1.4418.034.0594.583.7032,1.4999,1.1914.4188.2264,1.2508.6558,2.6346.6558h3.7666ZM197.8391,65.2352c-.133.7507-.2631,1.3945-.4075,1.8706.1925,1.0492.4896,2.133,1.0018,3.0867.9537-2.0262,1.0499-4.2066,1.0839-4.9573h-1.6782ZM205.1799,70.5024c0,.2143.0453.2738.2377.2738h.2745c.167,0,.201-.2024.2123-.2858.0481-.4649.0594-.6559.0849-1.7277l.8801.1429c0,.9289-.1189,2.109-.2972,2.4068-.1556.2505-.4046.3814-.7131.3814h-.7047c-.1669,0-.9055,0-.9055-.7386v-6.6135h-1.8932v2.4542c0,3.1936-1.0726,4.4451-1.5253,4.9573l-.8235-.6311c.5235-.5603,1.4064-1.4899,1.4064-4.3976v-3.3245h3.7666v7.1024Z"/>
      <path class="cls-2" d="M33.3821,90.3188c-1.1801.5129-2.8724.977-3.8232,1.2395l-.1557-.977c.416-.0955,1.0726-.2859,1.6187-.4295v-3.4793h-1.3442v-.9297h1.3442v-2.7287h-1.463v-.9176h3.8119v.9176h-1.3952v2.7287h1.1801v.9297h-1.1801v3.1815c.5858-.2024.9537-.3453,1.3952-.5122l.0113.977ZM40.2474,81.8227v5.6004h-2.7648v1.3583h2.8837v.8823h-2.8837v1.6802h3.0988v.8936h-7.5672v-.8936h3.5374v-1.6802h-2.8582v-.8823h2.8582v-1.3583h-2.7762v-5.6004h6.472ZM36.5516,82.6802h-1.8593v1.5373h1.8593v-1.5373ZM36.5516,85.0163h-1.8593v1.5606h1.8593v-1.5606ZM39.3305,82.6802h-1.8479v1.5373h1.8479v-1.5373ZM39.3305,85.0163h-1.8479v1.5606h1.8479v-1.5606Z"/>
      <path class="cls-2" d="M49.8068,81.6076c-.0962.3099-.2037.6679-.4527,1.1327h4.5165v.8815h-5.0655c-.6085.8582-1.1094,1.2749-1.4065,1.5374l-.6084-.7386c.215-.167.2886-.2151.4895-.4054h-2.3941v1.5727h2.1196c-.0226,2.9912-.0933,5.6966-.416,6.4232-.1188.2624-.3226.5242-1.1432.5242h-.9198l-.1782-.953h.9423c.2151,0,.4047,0,.5122-.3219.1415-.4527.2491-3.2176.2632-4.7549h-1.1801v.2264c0,2.2526-.3933,4.2066-1.4658,5.756l-.6792-.7867c.4414-.7032,1.2395-1.9661,1.2395-4.9813v-2.7047h-1.0726v-.9176h1.715v-1.5614h.965v1.5614h1.7177v.8935c.1047-.1068,1.0103-.977,1.5593-2.5143l.9423.1308ZM50.3191,85.8857v-1.775h.8942v1.5487l2.2526-.5717c-.0368,3.2056-.0368,3.5508-.1443,3.9201-.0962.3219-.2858.5844-1.0018.5844h-.7273l-.1302-.9056.6679.0121c.2038,0,.3566-.0481.3934-.4295.0367-.2978.0367-1.4659.0367-2.0134l-1.347.3332v3.8614h-.8942v-3.635l-1.2282.3098v3.7299c0,.5242.1783.5843.5971.5843h2.5243c.5603,0,.7414,0,.7414-1.4659l.9395.2738c-.0962,1.6683-.2377,2.0977-1.2734,2.0977h-3.3025c-.6085,0-1.1433-.1429-1.1433-.9537v-4.0517l-.716.179-.1528-.8582.8688-.2264v-1.6802h.9169v1.4418l1.2282-.3099Z"/>
      <path class="cls-2" d="M60.651,83.5383v.8582h-4.4797v-.8582h4.4797ZM60.2464,81.8581v.8461h-3.6931v-.8461h3.6931ZM60.2464,85.2186v.8582h-3.6931v-.8582h3.6931ZM60.2464,86.9109v.8581h-3.6931v-.8581h3.6931ZM60.2464,88.6265v3.3966h-2.8243v.5363h-.8688v-3.9329h3.6931ZM59.3776,89.4252h-1.9555v1.7758h1.9555v-1.7758ZM66.9787,92.5594c-.8461-.2625-1.9187-.6559-3.0987-1.5133-1.3924,1.0485-2.5017,1.3463-3.1101,1.5133l-.5009-.9297c1.5253-.3572,2.3007-.822,2.8497-1.2034-1.0386-.9537-1.4178-1.8231-1.6328-2.3l.8093-.3452c.2038.4528.6198,1.3102,1.5253,2.0729.5717-.5243,1.132-1.2034,1.681-2.3474h-4.5392v-.9417h5.5523v.9296c-.2038.5243-.6565,1.7044-1.9074,2.9198,1.1207.7032,2.1706,1.0251,2.813,1.2034l-.4415.9417ZM65.5015,81.8581v2.6339c0,.1189.0368.3099.2858.3099h.2745c.167,0,.2377-.0715.2858-.2625.0481-.179.1189-.8935.1444-1.2989l.8914.2144c-.034,2.2045-.6311,2.2759-1.0584,2.2759h-.9537c-.1783,0-.798,0-.798-.7627v-2.1924h-1.9074c-.1075,1.7998-.4414,2.5264-1.3951,3.289l-.716-.7265c.8462-.5363,1.1942-1.5374,1.1942-2.9438,0-.2144,0-.3573-.0141-.5363h3.7666Z"/>
      <path class="cls-2" d="M71.5943,82.1206c-.3707,1.7517-.5122,3.5274-.5122,5.3506,0,1.5968.0934,3.098.4386,4.4684l-1.1065.1309c-.1924-.7747-.4047-1.6682-.4047-4.3729,0-3.2056.3198-4.946.4528-5.6846l1.132.1076ZM74.6562,87.3757c-.2037.2858-.5716.8221-.5716,1.5607,0,1.0371.7273,1.3824,2.646,1.3824.5942,0,1.6441-.012,2.6572-.1189v1.0726c-.4301.0353-1.0385.0948-2.1818.0948-1.5027,0-4.16,0-4.16-2.3474,0-.953.4528-1.7157.6566-2.0616l.9536.4174ZM79.1614,82.9426v1.0252h-5.7701v-1.0252h5.7701Z"/>
      <path class="cls-2" d="M92.4139,83.503c-.382-.0241-.7499-.0481-1.2282-.0481-.6537,0-.832.0594-1.1065.1429-2.2639.7393-4.4571,2.6693-4.4571,4.7188,0,1.49,1.2027,2.2406,3.2403,2.5031,1.0725.1429,1.9186.1188,2.4422.1068l-.1642,1.144c-2.5158-.0474-3.9109-.3573-5.0542-.977-.9537-.5243-1.5734-1.6088-1.5734-2.6693,0-2.1684,1.763-3.8607,3.6591-4.9212-2.3489.1068-3.4808.2023-5.9938.4046l-.0594-1.1079c.9876,0,6.3984-.2978,7.6011-.3219.3339-.012,2.4309-.0594,2.6714-.0714l.0227,1.0966Z"/>
      <path class="cls-2" d="M97.386,92.1901c-.8461-1.2756-1.5847-2.0496-1.9781-2.467l.9056-.6672c.7754.7146,1.6215,1.7157,2.1196,2.3949l-1.0471.7393Z"/>
      <path class="cls-2" d="M107.5793,82.359v-.8582h1.0358v.8582h4.3609v.8695h-1.7885c-.1302.6197-.3453,1.1921-.4047,1.3583h2.8724v.8582h-9.2708v2.4309c0,1.4899-.3113,3.444-1.1433,4.6474l-.798-.7025c.7018-.9891.965-2.7649.965-3.8494v-3.3846h2.0262c-.0142-.1188-.1557-.8574-.3481-1.3583h-1.8706v-.8695h4.3637ZM108.6745,86.8274v-1.0725h.9763v1.0725h3.5289v.8702h-3.5289v1.3102h3.028v.8462h-3.028v1.4305h3.9223v.8935h-9.0925v-.8935h4.1939v-1.4305h-3.0506v-.8462h3.0506v-1.3102h-2.3941c-.3707.5957-.5858.8221-.8348,1.0838l-.7641-.6431c.8348-.8107,1.3471-1.9186,1.5367-2.4669l.9423.179c-.1075.3332-.1896.5603-.3933.977h1.9073ZM109.8433,84.5868c.1528-.4287.2716-.9056.3452-1.3583h-4.1713c.2151.7393.2745.9657.3566,1.3583h3.4695Z"/>
      <path class="cls-2" d="M126.3954,92.3683c-2.0234-.7386-3.0252-1.2508-4.4543-2.5617v2.7648h-.9423v-2.7768c-1.3952,1.3463-2.7762,1.966-4.4685,2.5504l-.5235-.8582c1.0952-.3098,2.7507-.8461,4.276-2.133h-4.3128v-.7987h5.0288v-.8695h-4.2421v-.7627h4.2421v-.8341h-4.5279v-.7867h2.7988c-.0708-.2858-.2745-.8815-.3934-1.144h-2.9063v-.8101h2.0602c-.2377-.5242-.3679-.7626-.7981-1.5133l.965-.3219c.1444.2385.4302.7026.8462,1.8352h.8829v-1.8472h.9282v1.8472h1.2282v-1.8472h.931v1.8472h.8462c.3679-.6197.665-1.335.8688-1.8352l.965.3219c-.167.3573-.5349,1.0365-.8349,1.5133h2.097v.8101h-2.9544c-.1557.5122-.2377.7626-.3679,1.144h2.8695v.7867h-4.5618v.8341h4.276v.7627h-4.276v.8695h5.0146v.7987h-4.2901c1.347,1.144,2.4082,1.6208,4.2901,2.121l-.5603.8935ZM122.6542,85.3021c.0482-.1189.2519-.6672.334-1.144h-3.1101c.0594.167.3226.965.3934,1.144h2.3827Z"/>
      <path class="cls-2" d="M134.3701,82.3823v-.8815h.9876v.8815h4.8872v.8582h-9.2v3.8013c0,2.1924-.549,4.1826-1.2282,5.3867l-.798-.7032c.5377-1.0372,1.0612-2.4911,1.0612-4.7309v-4.6121h4.2902ZM137.8735,87.2328h-.6424v1.3583h2.3941v.8341h-2.3941v1.7277c0,.1316,0,.346.3452.346h1.2141c.4641,0,.5009-.2144.5263-1.3471l.9396.2151c-.0482.7025-.1189,1.2275-.2151,1.4539-.2123.4881-.7499.5475-.9282.5475h-1.8819c-.549,0-.9197-.1549-.9197-.81v-2.1331h-1.6329c-.3198,1.4659-1.4291,2.4904-3.1214,3.0868l-.5716-.8702c1.2763-.3693,2.3007-.9297,2.728-2.2166h-2.0969v-.8341h2.2526c.0113-.1075.0113-.1549.0113-.3098v-1.0485h-.5943v-.2505c-.8122.5483-1.2395.7266-1.6583.9056l-.4528-.7867c.4188-.1663.8716-.3453,1.6583-.8341-.5122-.4408-.6452-.5476-1.1687-.8695l.6565-.5363c.5009.3099.965.6792,1.2253.9296.7273-.5483.9198-.7867,1.1688-1.1206h-2.6686v-.7747h4.1345c.2037.2865.3933.5483.7641.9417.1301-.1189.5235-.5363.9282-1.1079l.7018.4287c-.3198.4768-.5462.7506-1.0471,1.2275.2491.2143.3679.3219.5349.4407.0962-.0955.7273-.7032,1.18-1.3704l.7273.4648c-.3679.5363-.6678.8582-1.2395,1.3704.7386.4769,1.2509.6438,1.6329.7627l-.4415.8461c-.4754-.2023-1.1659-.5242-2.0488-1.156v.4889ZM137.4433,86.422c-.8801-.7266-1.381-1.3583-1.7149-1.7991-.2377.3452-.6565.953-1.7036,1.7991h3.4185ZM134.8002,88.5911h1.5112v-1.3583h-1.5112v1.3583Z"/>
      <path class="cls-2" d="M153.0446,92.333c-2.5498-.7507-3.7638-1.6562-4.5618-2.4309v2.6212h-.8829v-2.6332c-.5717.5362-1.9781,1.7276-4.576,2.4903l-.4528-.9176c1.6697-.3693,3.1695-.953,4.2901-1.9067h-4.3382v-.81h5.0769v-.6438h-3.2176v-1.6202h-1.8593v-.7746h1.8593v-.6438h.8829v.6438h2.3347v-.6438h.8829v.6438h2.346v-.6438h.8942v.6438h1.8225v.7746h-1.8225v1.6202h-3.2402v.6438h5.0627v.81h-4.3383c1.3471,1.0485,2.4309,1.4539,4.3043,1.8593l-.4669.9176ZM152.0088,85.1945c-.215-.1903-.4527-.3926-.8348-.6791-5.04.3339-5.5155.37-8.1388.37l-.0594-.7867c.3226,0,1.9187-.0121,2.2752-.0241.4415-.5716.4896-.6671.6085-.8935h-3.2884v-.8221h4.9806v-.8228h.9905v.8228h4.9212v.8221h-2.7308c.2405.1308,1.313.798,2.0516,1.4538l-.7754.5596ZM147.5999,86.4821h-2.3347v.8816h2.3347v-.8816ZM150.4467,83.1811h-3.4072c-.4641.6317-.5122.7032-.6678.8935.2037,0,3.5402-.1068,3.993-.1188-.3226-.2031-.3821-.2385-.6198-.3934l.7018-.3813ZM150.8288,86.4821h-2.346v.8816h2.346v-.8816Z"/>
      <path class="cls-2" d="M158.0167,83.7768v-2.264h.965v2.264h1.1546v.9296h-1.1546v2.7047c.7132-.2144.9056-.2979,1.2282-.4288l.0934.9297c-.3339.1429-.7018.2858-1.3216.4768v4.1585h-.965v-3.8727c-1.0725.2858-1.5847.4047-2.1224.5243l-.1783-.9891c.4302-.0715,1.0499-.179,2.3007-.5242v-2.9792h-.9197c-.0934.6197-.2717,1.4659-.6056,2.133l-.7754-.5483c.549-1.1914.7018-2.7287.7273-4.1111l.8943.0474c-.0142.3813-.0368.7152-.1189,1.5494h.798ZM160.1024,91.6892c2.5724-1.6803,4.0637-4.5279,4.6099-7.5665h-.999c-.5263,2.7641-2.3007,5.2431-3.6845,6.1246l-.6424-.7506c1.763-1.2749,2.9544-3.253,3.3846-5.374h-1.0358c-.2632.6792-.7414,1.7277-1.4206,2.5257l-.7725-.6671c.4159-.4649,1.4064-1.5607,1.9299-4.4805l.9877.0594c-.0708.4054-.1783.9176-.416,1.6803h4.624c.0482,3.8727-.215,7.4002-.5235,8.3058-.0962.2624-.3481,1.001-1.4546,1.001h-1.6809l-.167-.989,1.6555.012c.2406,0,.5377,0,.682-.2858.4868-1.0131.5462-5.756.5717-7.1618h-.1444c-.4895,2.3354-1.347,5.9464-4.825,8.3412l-.6791-.7747Z"/>
      <path class="cls-2" d="M174.2377,91.0581c1.8706-.167,2.8582-.4648,3.5261-1.1327.9169-.9176,1.0357-2.2759,1.0357-3.0025,0-1.3944-.6904-3.5275-3.6222-3.611-.0227,2.3956-.9169,7.7936-3.5487,7.7936-1.3952,0-2.23-1.6682-2.23-3.4199,0-2.9552,2.0743-5.3387,5.6117-5.3387,3.3138,0,4.958,2.0256,4.958,4.6475,0,4.5278-3.8119,4.9452-5.3853,5.0641l-.3453-1.0004ZM172.1266,84.1461c-1.7036,1.2515-1.7036,3.3251-1.7036,3.635,0,.8935.2972,2.2519,1.2282,2.2519.6311,0,1.0244-.6318,1.2621-1.0846.3594-.7032,1.1207-2.7761,1.2056-5.577-.4302.0714-1.2056.191-1.9923.7747Z"/>
      <path class="cls-2" d="M193.6367,91.356l-.1896.9175h-5.9569c-1.9555,0-2.6941-1.001-2.9573-1.347-.7612.8702-.8206.9417-1.6668,1.6803l-.4782-1.0124c.215-.1316.8942-.5724,1.4178-1.1327v-3.3605h-1.2848v-.977h2.2271v3.6109c.2377,1.4539,2.4083,1.6209,2.7535,1.6209h6.1352ZM184.4028,84.2769c-.2151-.3211-.6311-.965-1.7036-2.0134l.6537-.5957c.5603.4761,1.2536,1.1793,1.8253,1.9781l-.7754.631ZM189.8843,81.5008v.7506h3.5996v.8101h-1.7998c-.1189.4054-.2151.6792-.382,1.0846h1.7404v5.8274c0,.5717-.2632.9176-.883.9176h-1.2621l-.1302-.9055,1.1065.0113c.1557,0,.2632-.0234.2632-.2979v-4.7783h-2.3007v.8936h1.93v.7393h-1.93v.8221h1.5253v2.4663h-3.9081v-2.4663h1.514v-.8221h-1.9441v-.7393h1.9441v-.8936h-2.312v5.8155h-.9056v-6.5901h1.6442c-.0481-.1903-.2632-.9891-.2972-1.0846h-1.7404v-.8101h3.5629v-.7506h.965ZM190.4672,84.1461c.1331-.3099.3113-.9297.3453-1.0846h-2.8214c.1415.5603.1528.6197.2603,1.0846h2.2158ZM190.5408,88.0902h-2.2781v1.0252h2.2781v-1.0252Z"/>
      <path class="cls-2" d="M206.4392,81.9295v.9417h-4.3976v3.3605h3.9194v.9296h-3.9194v4.0277h4.7542v.953h-10.9631v-.953h1.7291v-6.3991h1.0131v6.3991h2.4535v-8.3178h-4.8136v-.9417h10.2244Z"/>
      <path class="cls-2" d="M40.771,109.9222l-.167.953h-3.5261c-2.2186,0-3.7666-.9056-4.7202-2.0021-.8462,1.1921-1.7999,1.8833-2.2866,2.2405l-.6452-.8221c.5377-.3579,1.4772-.989,2.3375-2.2405-.4302-.7033-.7754-1.4893-1.0273-2.5024-.2716.5957-.4867.9417-.6905,1.2516l-.7273-.7514c.6198-.8815,1.5395-2.4903,1.681-6.0772l.9056.024c-.0227.3453-.0368.5597-.1076,1.2749h2.5271c-.0226.9417-.0707,3.0146-.8093,5.3627-.2151.6671-.5009,1.1914-.6452,1.4418.0368.0595.5858.7033,1.5026,1.1914.416.2264,1.2509.6558,2.6319.6558h3.7666ZM31.6785,102.2001c-.1302.7507-.2632,1.3945-.4047,1.8706.1896,1.0492.4896,2.1331,1.0018,3.0867.9537-2.0262,1.0471-4.2066,1.0838-4.9573h-1.6809ZM39.0193,107.4673c0,.2144.0481.2738.2377.2738h.2745c.1669,0,.2037-.2023.215-.2858.0481-.4648.0595-.6551.0821-1.7277l.8829.1429c0,.9297-.1188,2.109-.2971,2.4069-.1557.2504-.4047.3813-.716.3813h-.7018c-.167,0-.9056,0-.9056-.7386v-6.6135h-1.896v2.4542c0,3.1936-1.0725,4.4451-1.5253,4.9573l-.8235-.631c.5263-.5604,1.4064-1.49,1.4064-4.3977v-3.3244h3.7667v7.1023Z"/>
      <path class="cls-2" d="M46.6628,108.8016c-1.18.5129-2.8723.977-3.826,1.2395l-.1557-.977c.4189-.0955,1.0726-.2858,1.6216-.4295v-3.4793h-1.3471v-.9297h1.3471v-2.7287h-1.4659v-.9176h3.8147v.9176h-1.3951v2.7287h1.18v.9297h-1.18v3.1815c.5829-.2023.9536-.3453,1.3951-.5122l.0113.977ZM53.5253,100.3055v5.6004h-2.7648v1.3584h2.8837v.8822h-2.8837v1.6802h3.0988v.8936h-7.5672v-.8936h3.5402v-1.6802h-2.861v-.8822h2.861v-1.3584h-2.7761v-5.6004h6.4691ZM49.8323,101.163h-1.8592v1.5373h1.8592v-1.5373ZM49.8323,103.4991h-1.8592v1.5607h1.8592v-1.5607ZM52.6085,101.163h-1.848v1.5373h1.848v-1.5373ZM52.6085,103.4991h-1.848v1.5607h1.848v-1.5607Z"/>
      <path class="cls-2" d="M60.6709,100.2694c-.0623.3219-.1076.6318-.2406,1.2395h5.0769v.9891h-5.3514c-.2377.7747-.4528,1.132-.6792,1.5133.334-.2264.8716-.5957,1.7885-.5957.6198,0,1.5253.1549,1.848,1.4659,1.1432-.4648,2.2158-.8228,3.0025-1.0846l.416,1.0365c-.8943.2384-1.9894.5362-3.2629,1.0251.0453.4882.0594,1.0131.0594,1.3704,0,.4528-.0141.7386-.0368.977h-1.0612c.0368-.3339.0595-.5363.0595-1.0485,0-.2624-.0114-.6197-.0227-.8702-.6084.2979-2.3969,1.1681-2.3969,2.2045,0,1.1207,1.4432,1.1207,2.7054,1.1207.5263,0,1.6583-.0241,3.1242-.167l.0226,1.0365c-.4754.036-1.347.0955-2.9063.0955-1.3357,0-4.0298,0-4.0298-2.0496,0-1.1801,1.132-2.1571,3.362-3.2176-.1076-.6197-.4047-.977-1.0499-.977-.7019,0-1.5621.3933-2.4422,1.3223-.7981,1.1086-.883,1.2274-1.681,2.0976l-.798-.7152c1.7036-1.5487,2.4903-3.4553,2.8468-4.5399h-2.5242v-.9891h2.7874c.1444-.6791.1557-.989.1783-1.3109l1.2056.0714Z"/>
      <path class="cls-2" d="M68.4899,106.1443c1.4545-1.0364,2.3969-2.4669,3.0874-3.7772l.8461.4287c-.5716,1.1079-.965,1.6803-1.2621,2.0737v6.1727h-1.0131v-4.9693c-.5377.5723-.9424.9055-1.2763,1.168l-.382-1.0966ZM68.5267,102.6529c1.4772-.8107,2.3233-2.133,2.7054-2.7888l.8461.3933c-.5716,1.1207-1.681,2.491-3.028,3.3485l-.5235-.953ZM79.7642,104.7386h-1.9187v5.3266c0,.6791-.215.977-1.0612.977h-2.0488l-.1783-1.0846,1.93.0241c.249,0,.3566-.0481.3566-.334v-4.9091h-4.2902v-.9657h7.2106v.9657ZM79.3001,101.4255h-6.2456v-.9297h6.2456v.9297Z"/>
      <path class="cls-2" d="M83.8195,101.0682c-.0821.5716-.2264,1.5607-.2264,3.0145,0,1.8112.1443,3.7299.7867,4.755.1188.2023.416.4167.798.4167.8943,0,1.5621-1.4058,2.0857-2.7882l.8829.5717c-.7273,1.9427-1.6923,3.3605-3.0761,3.3605-2.3347,0-2.5865-4.1946-2.5865-6.1728,0-1.2274.0962-2.4662.1669-3.277l1.1688.1196ZM91.5762,109.1476c.0142-.2745.0255-.5483.0255-.9297,0-4.0397-1.1687-5.2912-2.2158-6.4231l.9508-.5243c.7047.6551,2.4564,2.276,2.4564,6.9948,0,.3219-.0113.5363-.0226.7627l-1.1943.1196Z"/>
      <path class="cls-2" d="M97.6492,110.6729c-.8461-1.2756-1.5847-2.0496-1.9781-2.467l.9056-.6671c.7754.7145,1.6215,1.7156,2.1196,2.3948l-1.0471.7393Z"/>
      <path class="cls-2" d="M112.7411,103.7134c-.034,2.8957-.1896,5.6485-.8688,6.6376-.3452.5002-1.0131.6792-1.6215.6792h-1.8225l-.2037-1.0485,1.9781.012c.3113,0,.7046-.1075.8942-.4648.3453-.6792.5717-2.7054.5858-4.8625h-4.3496c-.2999,2.4316-1.0725,4.4932-3.8854,6.3878l-.6905-.9176c2.3092-1.4418,3.6449-3.0867,3.6449-7.0549v-1.7036h-3.5402v-.9778h11.0366v.9778h-6.4833v1.7396c0,.2618,0,.4528-.0113.5957h5.3372Z"/>
      <path class="cls-2" d="M125.1502,104.8213h-3.0025v1.8119h3.8147v.8935h-3.8147v2.2519h4.9467v.9537h-10.915v-.9537h4.9552v-2.2519h-3.7893v-.8935h3.7893v-1.8119h-2.9658v-.9055c-.8121.4888-1.3102.7152-1.7403.9176l-.5009-.9771c1.896-.7265,3.8486-2.0141,5.173-3.8607h1.0839c1.2027,1.6202,2.9657,3.0507,5.1589,3.8487l-.5009.977c-.416-.1903-.9508-.4287-1.6923-.8935v.8935ZM125.1163,103.9037c-.7386-.4761-2.2045-1.4772-3.4808-3.0619-.965,1.2154-2.1338,2.2639-3.4553,3.0619h6.9361Z"/>
      <path class="cls-2" d="M134.4634,109.5409c1.8706-.1669,2.8611-.4648,3.5289-1.1327.9169-.9175,1.0358-2.2759,1.0358-3.0025,0-1.3944-.6905-3.5275-3.6223-3.6109-.0255,2.3955-.9169,7.7935-3.5515,7.7935-1.3952,0-2.2272-1.6682-2.2272-3.4199,0-2.9552,2.0715-5.3386,5.6117-5.3386,3.3138,0,4.958,2.0255,4.958,4.6474,0,4.5278-3.8147,4.9452-5.3881,5.0641l-.3453-1.0004ZM132.3552,102.6289c-1.7036,1.2515-1.7036,3.3251-1.7036,3.635,0,.8935.2971,2.2519,1.2253,2.2519.6339,0,1.0273-.6318,1.265-1.0846.3565-.7032,1.1206-2.7761,1.2027-5.577-.4302.0714-1.2027.191-1.9894.7747Z"/>
      <path class="cls-2" d="M147.648,100.8418v-.8582h1.0357v.8582h4.3637v.8695h-1.7885c-.1302.6197-.3452,1.1921-.4047,1.3583h2.8724v.8582h-9.2736v2.4309c0,1.4899-.3085,3.444-1.1433,4.6474l-.798-.7025c.7046-.9891.965-2.7648.965-3.8494v-3.3846h2.0262c-.0113-.1188-.1557-.8574-.3453-1.3583h-1.8705v-.8695h4.3609ZM148.7431,105.3102v-1.0725h.9792v1.0725h3.526v.8702h-3.526v1.3103h3.0251v.8461h-3.0251v1.4305h3.9194v.8936h-9.0925v-.8936h4.1939v-1.4305h-3.0506v-.8461h3.0506v-1.3103h-2.3941c-.3707.5957-.5829.8221-.8348,1.0839l-.7612-.6431c.8348-.8108,1.347-1.9187,1.5366-2.467l.9424.179c-.1076.3332-.1925.5596-.3934.977h1.9045ZM149.9119,103.0696c.1556-.4287.2745-.9055.3452-1.3583h-4.1712c.215.7393.2745.9657.3594,1.3583h3.4666Z"/>
      <path class="cls-2" d="M166.4329,110.8512c-2.0262-.7386-3.028-1.2509-4.4571-2.5618v2.7648h-.9424v-2.7768c-1.3923,1.3463-2.7761,1.966-4.4684,2.5504l-.5235-.8582c1.0951-.3098,2.7535-.8461,4.2788-2.133h-4.3156v-.7987h5.0287v-.8695h-4.242v-.7627h4.242v-.8341h-4.5278v-.7867h2.8016c-.0708-.2858-.2745-.8815-.3934-1.144h-2.9091v-.8101h2.063c-.2377-.5242-.3707-.7626-.7981-1.514l.965-.3212c.1415.2385.4273.7033.8462,1.8352h.8801v-1.8472h.931v1.8472h1.2282v-1.8472h.9282v1.8472h.8461c.3708-.6197.6679-1.335.8688-1.8352l.9679.3212c-.167.358-.5377,1.0372-.8349,1.514h2.097v.8101h-2.9544c-.1557.5122-.2406.7627-.3707,1.144h2.8723v.7867h-4.5646v.8341h4.2788v.7627h-4.2788v.8695h5.0174v.7987h-4.2901c1.347,1.144,2.4082,1.6208,4.2901,2.121l-.5603.8936ZM162.6917,103.7849c.0481-.1189.2491-.6672.334-1.144h-3.1101c.0594.167.3198.965.3934,1.144h2.3827Z"/>
      <path class="cls-2" d="M174.3736,100.8651v-.8815h.9876v.8815h4.8873v.8582h-9.2001v3.8013c0,2.1924-.549,4.1826-1.2281,5.3867l-.7981-.7032c.5377-1.0372,1.0612-2.4911,1.0612-4.7309v-4.6121h4.2902ZM177.877,105.7156h-.6424v1.3583h2.3941v.8342h-2.3941v1.7276c0,.1316,0,.346.3453.346h1.214c.4641,0,.5009-.2144.5264-1.3471l.9395.2151c-.0481.7025-.1189,1.2275-.2151,1.4539-.2122.4881-.7499.5476-.9282.5476h-1.8819c-.549,0-.9197-.155-.9197-.8101v-2.133h-1.6329c-.3197,1.4659-1.4291,2.4903-3.1213,3.086l-.5717-.8695c1.2763-.3693,2.3007-.9296,2.728-2.2165h-2.0969v-.8342h2.2526c.0113-.1075.0113-.1549.0113-.3098v-1.0485h-.5943v-.2505c-.8122.5483-1.2395.7266-1.6583.9056l-.4528-.7867c.4188-.1663.8716-.3452,1.6583-.8341-.5122-.4408-.6452-.5476-1.1687-.8695l.6565-.5363c.5009.3099.965.6792,1.2254.9297.7273-.5483.9197-.7868,1.1687-1.1207h-2.6686v-.7747h4.1345c.2038.2866.3934.5483.7641.9417.1302-.1189.5235-.5363.9282-1.1079l.7018.4287c-.3198.4768-.5462.7506-1.047,1.2275.249.2143.3678.3219.5348.4407.0962-.0955.7273-.7032,1.1801-1.3704l.7273.4649c-.3679.5362-.6679.8581-1.2395,1.3703.7386.4769,1.2508.6438,1.6328.7627l-.4414.8461c-.4755-.2023-1.166-.5242-2.0489-1.156v.4889ZM177.4469,104.9048c-.8801-.7266-1.381-1.3583-1.715-1.7991-.2377.3453-.6565.953-1.7036,1.7991h3.4186ZM174.8037,107.0739h1.5112v-1.3583h-1.5112v1.3583Z"/>
      <path class="cls-2" d="M193.017,110.8158c-2.5498-.7506-3.7666-1.6562-4.5646-2.4309v2.6212h-.883v-2.6332c-.5716.5362-1.9781,1.7276-4.5759,2.4903l-.4528-.9176c1.6696-.3693,3.1723-.953,4.2901-1.9067h-4.3354v-.81h5.074v-.6438h-3.2147v-1.6201h-1.8593v-.7747h1.8593v-.6438h.8801v.6438h2.3346v-.6438h.883v.6438h2.3488v-.6438h.8914v.6438h1.8253v.7747h-1.8253v1.6201h-3.2402v.6438h5.0655v.81h-4.3383c1.3471,1.0492,2.4309,1.4539,4.3015,1.8593l-.4641.9176ZM191.9812,103.6774c-.215-.1904-.4527-.3927-.8348-.6792-5.04.3339-5.5183.3693-8.1388.3693l-.0594-.786c.3198,0,1.9187-.0121,2.2752-.0241.4415-.5716.4896-.6671.6085-.8935h-3.2912v-.8221h4.9834v-.8228h.9877v.8228h4.9212v.8221h-2.728c.2377.1309,1.3102.798,2.0488,1.4538l-.7726.5597ZM187.5694,104.965h-2.3346v.8815h2.3346v-.8815ZM190.4191,101.6639h-3.4072c-.4669.6318-.5122.7032-.6678.8935.2009,0,3.5374-.1068,3.9901-.1188-.3197-.2031-.3792-.2385-.6197-.3934l.7046-.3813ZM190.8012,104.965h-2.3488v.8815h2.3488v-.8815Z"/>
      <path class="cls-2" d="M197.9552,102.2596v-2.264h.965v2.264h1.1546v.9296h-1.1546v2.7047c.7131-.2144.9055-.2979,1.2281-.4288l.0934.9297c-.3339.1429-.7018.2858-1.3215.4768v4.1586h-.965v-3.8728c-1.0726.2858-1.5848.4054-2.1225.5243l-.1782-.9891c.4301-.0714,1.0499-.179,2.3007-.5242v-2.9792h-.9197c-.0934.6197-.2717,1.4659-.6056,2.133l-.7754-.5483c.549-1.1913.7018-2.7287.7272-4.1111l.8943.0474c-.0142.3813-.0368.7153-.1189,1.5494h.7981ZM200.0408,110.172c2.5724-1.6803,4.0638-4.5279,4.6099-7.5672h-.9989c-.5264,2.7648-2.3007,5.2438-3.6846,6.1253l-.6424-.7506c1.7631-1.2749,2.9545-3.253,3.3846-5.3747h-1.0357c-.2632.6799-.7415,1.7284-1.4206,2.5264l-.7726-.6671c.416-.4648,1.4065-1.5607,1.93-4.4805l.9876.0594c-.0707.4054-.1783.9176-.416,1.6803h4.6241c.0481,3.8727-.2151,7.4002-.5235,8.3058-.0963.2624-.3481,1.0011-1.4546,1.0011h-1.681l-.1669-.9891,1.6555.012c.2405,0,.5376,0,.682-.2858.4867-1.0131.5461-5.756.5716-7.1625h-.1443c-.4896,2.3361-1.3471,5.9471-4.825,8.3419l-.6792-.7747Z"/>
      <path class="cls-2" d="M34.8367,119.2878v.8462h-1.8706c.1302.2504.3084.6671.4047,1.001l-.9169.2859c-.0962-.4288-.3226-.9771-.4641-1.2869h-.549c-.4189.5836-.8235,1.0484-1.3357,1.4064l-.6679-.6678c.9678-.7026,1.6329-1.7518,1.8847-2.4783l.9537.1783c-.0962.2504-.1557.3933-.3226.7152h2.8837ZM35.5158,121.2305v.6311h4.8392v2.2165h-.9311v-1.4177h-8.7104v1.4177h-.9169v-2.2165h4.791v-.6311h.583l-.6679-.4768c.716-.6438,1.2622-1.3944,1.5961-2.3474l.9197.1549c-.0849.2377-.1556.4408-.2858.7266h3.8232v.8462h-2.513c.2604.4174.334.5603.5236,1.0364l-.9056.2865c-.1189-.3459-.3934-.9657-.583-1.3229h-.8121c-.0934.1549-.4528.7152-.9169,1.0965h.1669ZM38.8778,123.3034v2.3715h-6.7352v.7987h7.5671v3.0387h-.9395v-.4889h-6.6276v.4889h-.9537v-6.2089h7.6889ZM32.1426,124.0187v.9417h5.7815v-.9417h-5.7815ZM32.1426,127.1882v1.0725h6.6276v-1.0725h-6.6276Z"/>
      <path class="cls-2" d="M46.0091,127.2837c-1.1801.5129-2.8723.977-3.826,1.2395l-.1557-.977c.4189-.0955,1.0726-.2858,1.6216-.4295v-3.4793h-1.3471v-.9296h1.3471v-2.7288h-1.4659v-.9176h3.8147v.9176h-1.3951v2.7288h1.18v.9296h-1.18v3.1815c.5829-.2023.9536-.3453,1.3951-.5122l.0113.977ZM52.8716,118.7876v5.6004h-2.7648v1.3584h2.8837v.8822h-2.8837v1.6802h3.0988v.8936h-7.5672v-.8936h3.5402v-1.6802h-2.861v-.8822h2.861v-1.3584h-2.7761v-5.6004h6.4691ZM49.1786,119.6451h-1.8592v1.5373h1.8592v-1.5373ZM49.1786,121.9812h-1.8592v1.5607h1.8592v-1.5607ZM51.9547,119.6451h-1.8479v1.5373h1.8479v-1.5373ZM51.9547,121.9812h-1.8479v1.5607h1.8479v-1.5607Z"/>
      <path class="cls-2" d="M59.3606,118.7515c-.0594.3219-.1075.6318-.2377,1.2395h5.0768v.9891h-5.3513c-.2377.7747-.4528,1.132-.6792,1.5133.3339-.2264.8688-.5957,1.7885-.5957.6198,0,1.5253.1549,1.8451,1.4659,1.1461-.4648,2.2187-.8228,3.0025-1.0846l.4189,1.0365c-.8943.2384-1.9895.5362-3.2657,1.0251.0481.4882.0594,1.0131.0594,1.3704,0,.4528-.0113.7386-.0368.977h-1.0584c.034-.3339.0594-.5363.0594-1.0485,0-.2624-.0113-.6197-.0254-.8702-.6056.2979-2.3941,1.1681-2.3941,2.2045,0,1.1207,1.4404,1.1207,2.7054,1.1207.5235,0,1.6555-.0241,3.1213-.167l.0227,1.0365c-.4754.036-1.3442.0955-2.9063.0955-1.3357,0-4.027,0-4.027-2.0496,0-1.1801,1.132-2.1571,3.3591-3.2176-.1075-.6197-.4047-.977-1.0471-.977-.7046,0-1.5621.3933-2.445,1.3223-.798,1.1086-.8801,1.2274-1.6781,2.0976l-.7981-.7152c1.7036-1.5487,2.4904-3.4553,2.8469-4.5399h-2.5271v-.9891h2.7903c.1415-.6791.1528-.989.1783-1.3109l1.2027.0714Z"/>
      <path class="cls-2" d="M66.5288,124.6264c1.4545-1.0364,2.3969-2.4669,3.0874-3.7772l.8461.4287c-.5716,1.108-.965,1.6803-1.2621,2.0737v6.1727h-1.0131v-4.9693c-.5377.5723-.9424.9055-1.2763,1.168l-.382-1.0966ZM66.5655,121.135c1.4773-.8107,2.3234-2.133,2.7054-2.7888l.8462.3933c-.5717,1.1207-1.681,2.491-3.028,3.3485l-.5236-.953ZM77.8031,123.2207h-1.9187v5.3266c0,.6791-.2151.977-1.0612.977h-2.0488l-.1783-1.0846,1.93.0241c.249,0,.3565-.0481.3565-.3339v-4.9092h-4.2901v-.9657h7.2106v.9657ZM77.339,119.9076h-6.2456v-.9297h6.2456v.9297Z"/>
      <path class="cls-2" d="M81.2046,119.5503c-.082.5716-.2264,1.5607-.2264,3.0145,0,1.8112.1444,3.7299.7868,4.755.1188.2023.416.4167.798.4167.8942,0,1.5621-1.4058,2.0856-2.7882l.883.5717c-.7273,1.9427-1.6923,3.3605-3.0761,3.3605-2.3347,0-2.5866-4.1946-2.5866-6.1727,0-1.2275.0962-2.4663.167-3.2771l1.1687.1196ZM88.9614,127.6297c.0142-.2745.0255-.5483.0255-.9297,0-4.0396-1.1688-5.2912-2.2158-6.4231l.9508-.5243c.7047.6551,2.4564,2.276,2.4564,6.9948,0,.3219-.0114.5363-.0227.7627l-1.1942.1196Z"/>
      <path class="cls-2" d="M96.9049,120.134l-.0226-1.2629h1.0471l.0141,1.2629h3.9562v.9529h-3.9449l.0114,1.49h3.7185v.9296h-3.7185v1.7758c1.3696.5596,2.5497,1.3102,3.6477,2.2879l-.7046.929c-1.0952-1.0365-1.7263-1.5728-2.9318-2.1805v.5363c0,2.121-1.93,2.2285-2.5979,2.2285-1.5734,0-2.6573-.8581-2.6573-2.0382,0-.9289.7641-2.1925,3.0394-2.1925.5829,0,.9169.0715,1.1687.1309v-1.4772h-4.4344v-.9296h4.4203v-1.49h-4.6213v-.9529h4.6099ZM96.9417,125.9374c-.2745-.0835-.6565-.2024-1.2989-.2024-1.0952,0-1.9894.4528-1.9894,1.3103,0,.8702.965,1.1206,1.6781,1.1206,1.5734,0,1.6102-.8341,1.6102-1.3824v-.8461Z"/>
      <path class="cls-2" d="M109.8999,118.7876h1.0838v1.3824h3.3619v.9771h-3.3619v2.5023c.0481.179.1076.3934.1557.6551.0368.2505.0707.5483.0707.9056,0,3.4921-2.7393,3.8734-4.8504,3.9923l-.3311-1.0131c3.4072-.0234,3.9194-1.132,4.1571-2.276-.2009.3219-.6198.9297-1.7744.9297-1.4659,0-2.3488-1.1681-2.3488-2.443,0-1.3583.965-2.4429,2.5158-2.4429.832,0,1.132.2505,1.3697.4408l-.0113-1.2508h-5.9711v-.9771h5.9597l-.0254-1.3824ZM109.9848,124.0902c-.0255-.2618-.2038-1.1794-1.3839-1.1794-.7499,0-1.4998.4408-1.4998,1.4652,0,.6558.3679,1.4899,1.3923,1.4899,1.4433,0,1.4914-1.3463,1.4914-1.3824,0-.0835.0113-.2738,0-.3933Z"/>
      <path class="cls-2" d="M120.1441,127.3552c0,.9777-.798,1.7757-1.7772,1.7757-.9876,0-1.7743-.798-1.7743-1.7757,0-.9891.798-1.7751,1.7743-1.7751.965,0,1.7772.774,1.7772,1.7751ZM117.1869,127.3552c0,.6438.5263,1.168,1.18,1.168.6453,0,1.1688-.5242,1.1688-1.168,0-.6672-.5349-1.1794-1.1688-1.1794-.6423,0-1.18.5242-1.18,1.1794Z"/>
    </g>
  </g>
  <g>
    <path class="cls-3" d="M54.7263,27.6906c2.2668,13.0085-6.4438,25.3885-19.4528,27.6546-13.0048,2.2632-25.3884-6.4437-27.651-19.452-2.2667-13.0091,6.4437-25.3893,19.4528-27.6552,13.0048-2.2632,25.3843,6.445,27.651,19.4526Z"/>
    <path class="cls-3" d="M98.9605,43.1476c-2.3091,8.3879-10.9785,13.314-19.365,11.0055-8.3893-2.3099-13.3147-10.9793-11.0069-19.3686,2.3091-8.3858,10.9814-13.3119,19.3679-11.0041,8.3864,2.31,13.3133,10.9807,11.004,19.3672Z"/>
    <g>
      <g>
        <path class="cls-1" d="M31.1209,57.3995c-5.224,0-10.3136-1.6003-14.6759-4.6679-5.5933-3.9343-9.3203-9.8113-10.4919-16.5486-1.173-6.7365.3467-13.5276,4.2817-19.1209S20.0475,7.7425,26.7855,6.5688c13.892-2.4189,27.1869,6.9248,29.6107,20.8309h0c1.173,6.7373-.3467,13.5277-4.2817,19.121-3.9349,5.5933-9.8127,9.3196-16.5507,10.4933-1.4828.2582-2.9685.3855-4.4429.3855ZM31.1846,9.5756c-1.2608,0-2.5356.1082-3.819.3311-5.8452,1.0187-10.9461,4.2519-14.3589,9.1045-3.4143,4.8533-4.733,10.7451-3.7143,16.591,1.016,5.8452,4.2491,10.9439,9.1024,14.3582,4.8519,3.4136,10.7437,4.7295,16.5889,3.7157,5.8452-1.0188,10.9461-4.2519,14.3589-9.1045,3.4143-4.8526,4.7331-10.7452,3.7143-16.5903h0c-1.8791-10.7827-11.2843-18.4057-21.8723-18.4057Z"/>
        <polygon class="cls-1" points="42.6737 26.3457 43.3799 30.3876 35.0528 31.8365 34.0411 34.2398 34.4896 36.8171 44.2047 35.127 44.9079 39.1709 35.1957 40.8611 36.4196 47.899 31.6824 48.724 30.4556 41.6859 20.7434 43.3782 20.0402 39.3358 29.7524 37.642 29.3038 35.0632 27.5381 33.146 19.211 34.5949 18.5077 30.5545 24.2356 29.5569 15.5789 20.1476 20.4322 19.3014 31.0004 30.7923 37.0635 16.4065 41.9139 15.5623 36.9489 27.3418 42.6737 26.3457"/>
      </g>
      <g>
        <path class="cls-1" d="M83.7698,55.836c-1.4772,0-2.9784-.196-4.4698-.607-8.9665-2.4684-14.2542-11.7731-11.788-20.7404,2.4706-8.9665,11.7809-14.2514,20.7404-11.7844,8.9666,2.4698,14.2528,11.7738,11.7852,20.7397h0c-2.0588,7.4737-8.8661,12.3921-16.2678,12.3921ZM83.7812,24.33c-6.4239,0-12.3299,4.2661-14.1156,10.7508-2.1408,7.7808,2.4465,15.8538,10.2259,17.9961,7.7808,2.1436,15.8517-2.4465,17.9925-10.2259h0c2.1422-7.7794-2.4436-15.8517-10.223-17.9947-1.2947-.3565-2.5979-.5263-3.8798-.5263Z"/>
        <polygon class="cls-1" points="92.1589 38.9559 91.4401 41.5629 86.0732 40.0856 84.7968 41.2318 84.3357 42.8936 90.5996 44.6185 89.8837 47.2268 83.6196 45.5021 82.3688 50.0399 79.3153 49.1972 80.5633 44.6588 74.3035 42.934 75.0196 40.329 81.2821 42.0531 81.7405 40.3913 81.2269 38.7506 75.86 37.272 76.5788 34.6664 80.2675 35.6844 77.7589 27.6439 80.8874 28.5043 83.9536 38.3226 91.6112 31.4573 94.7397 32.319 88.4672 37.9414 92.1589 38.9559"/>
      </g>
      <polygon class="cls-1" points="53.0241 13.5207 51.5921 11.4315 62.4278 0 64.5319 3.0691 53.0241 13.5207"/>
      <polygon class="cls-1" points="59.5697 23.0709 58.1378 20.9824 72.0396 14.0236 74.1423 17.0898 59.5697 23.0709"/>
    </g>
  </g>
</svg>