<?xml version="1.0" encoding="UTF-8"?>
<svg id="_デザイン" data-name="デザイン" xmlns="http://www.w3.org/2000/svg" viewBox="0 0 214.6305 183.5099">
  <defs>
    <style>
      .cls-1 {
        fill: #23ab3a;
      }

      .cls-2 {
        fill: #231815;
      }

      .cls-3 {
        fill: #fff;
      }

      .cls-4 {
        fill: #feef12;
      }
    </style>
  </defs>
  <g>
    <path class="cls-4" d="M107.3156,45.1828C48.0468,45.1828,0,76.1476,0,114.3478c0,17.4478,10.0334,33.3805,26.5728,45.5473-.2589,5.4568-3.0988,10.8049-7.0309,15.0501,5.7334-1.1673,12.5556-4.1663,18.3625-7.8618,5.6839,3.1097,11.8679,5.8512,18.4772,8.1526l16.0993,4.5321c10.927,2.4132,22.6385,3.7418,34.8347,3.7418,59.2681,0,107.3149-30.9655,107.3149-69.1621s-48.0468-69.165-107.3149-69.165Z"/>
    <g>
      <path class="cls-2" d="M34.8783,81.4736c-.3113.1429-.4188.191-1.2989.5603v3.5629c0,.6077-.2858.977-1.0018.977h-1.2508l-.1557-.9891,1.0131.0121c.2151,0,.4174-.0354.4174-.3453v-2.8483c-1.0003.3693-1.1319.4054-1.4899.5122l-.1556-1.0011c.3339-.0948.7159-.1903,1.6455-.5122v-2.8836h-1.5493v-.8936h1.5493v-2.1925h.9778v2.1925h1.1673v.8936h-1.1673v2.5384c.6537-.2505.8461-.346,1.1914-.4889l.1075.9056ZM34.2586,82.8921c.8206-.1429,1.9059-.358,2.561-.5129.0594-.4167.0708-.8695.0708-1.2629v-.2144h-1.8706v-.9055h1.8706v-1.8232h-2.0121v-.9296h2.0121v-1.8112h.9423v5.708c0,2.9077-.8574,4.3495-2.7648,5.4574l-.5957-.81c1.0131-.5603,1.7871-1.2395,2.1578-2.479-.3707.1075-.5377.1549-2.1337.5603l-.2377-.977ZM39.907,75.4324v1.8112h2.1564v.9296h-2.1564v1.8232h2.0121v.9055h-2.0121v1.8586h2.2512v.9296h-2.2512v2.9077h-.9536v-11.1654h.9536Z"/>
      <path class="cls-2" d="M46.7314,76.3614v3.3605h3.0152v-4.218h1.0131v4.218h3.0507v-3.3605h1.0131v4.3021h-4.0638v4.3135h3.5035v-3.5034h1.0131v5.0648h-1.0131v-.6438h-8.02v.6438h-1.0018v-5.0648h1.0018v3.5034h3.5034v-4.3135h-4.0283v-4.3021h1.0131Z"/>
      <path class="cls-2" d="M69.3451,77.1361h-4.9806v.7032h3.9435v2.2759h-3.9435v.6198h4.2066v1.4779h.8462v.8101h-.8462v2.0969h-.965v-.5716h-3.2416v.9416c0,.6311-.2872,1.0365-1.0372,1.0365h-1.9186l-.1302-.965,1.739.012c.2985,0,.3933-.0835.3933-.37v-.6551h-4.3255v-.7507h4.3255v-.7867h-5.0528v-.7747h5.0528v-.7746h-4.2901v-.7266h4.2901v-.6198h-3.9095v-2.2759h3.9095v-.7032h-4.9212v-.8101h4.9212v-.8221h.9537v.8221h4.9806v.8101ZM63.4108,78.5185h-2.9558v.8935h2.9558v-.8935ZM67.3203,78.5185h-2.9558v.8935h2.9558v-.8935ZM67.6061,81.4616h-3.2416v.7746h3.2416v-.7746ZM67.6061,83.0109h-3.2416v.7867h3.2416v-.7867Z"/>
      <path class="cls-2" d="M82.4745,86.3474c-2.0262-.7386-3.0266-1.2508-4.4571-2.5618v2.7648h-.941v-2.7768c-1.3937,1.3463-2.7775,1.9661-4.4698,2.5504l-.5235-.8581c1.0965-.3099,2.7535-.8462,4.2788-2.1331h-4.3142v-.7987h5.0287v-.8695h-4.2434v-.7627h4.2434v-.8341h-4.5292v-.7867h2.8016c-.0722-.2858-.2745-.8815-.3934-1.144h-2.9077v-.81h2.0616c-.2377-.5243-.3707-.7627-.7981-1.514l.965-.3212c.1415.2384.4288.7032.8462,1.8352h.8815v-1.8473h.9296v1.8473h1.2268v-1.8473h.9296v1.8473h.8461c.3693-.6198.6679-1.335.8702-1.8352l.965.3212c-.1669.358-.5362,1.0371-.8334,1.514h2.097v.81h-2.9558c-.1543.5122-.2392.7627-.3693,1.144h2.8723v.7867h-4.5646v.8341h4.2788v.7627h-4.2788v.8695h5.0174v.7987h-4.2901c1.347,1.144,2.4068,1.6209,4.2901,2.121l-.5603.8936ZM78.7333,79.2811c.0467-.1188.2491-.6671.334-1.144h-3.1115c.0608.167.3212.965.3933,1.144h2.3842Z"/>
      <path class="cls-2" d="M96.0071,75.9567c-.4273.5716-1.3103,1.7036-2.9063,3.0145h3.5628v.8702h-4.7075c-.5717.4047-1.1674.7627-1.7758,1.0959h5.1363v5.6011h-.9763v-.5837h-5.5665v.5837h-.965v-4.4804c-1.0244.4046-1.4291.5362-1.9186.6791l-.4401-.8942c.9183-.2264,2.704-.7146,4.8377-2.0015h-4.6594v-.8702h4.1713v-1.5012h-3.3011v-.8221h3.3011v-1.156h.9777v1.156h2.704v.774c.9056-.8815,1.3937-1.5607,1.6682-1.9421l.8575.4769ZM94.3403,81.7714h-5.5665v1.2155h5.5665v-1.2155ZM94.3403,83.7856h-5.5665v1.3343h5.5665v-1.3343ZM91.6108,78.9712c.2731-.1903.9296-.6551,1.8239-1.5012h-2.6573v1.5012h.8334Z"/>
      <path class="cls-2" d="M102.4876,82.058c-.4528-.7153-.5957-1.0605-.7754-1.514v5.9944h-.9523v-5.6846c-.2618.9778-.5363,1.8713-1.2989,2.9792l-.4174-1.2034c.7754-.965,1.3696-2.3594,1.6922-3.9321h-1.5012v-.8823h1.5253v-2.3354h.9523v2.3354h1.2041v.8823h-1.2041v.4287c.2391.6912.6919,1.4779,1.3244,2.1691l-.549.7627ZM102.38,85.3583c.3934-.1549,1.6569-.6791,3.0025-1.6682l.2151.8462c-.6678.4888-1.93,1.2394-2.8483,1.6562l-.3693-.8342ZM109.9472,86.133c-1.2155-.7032-2.1083-1.5012-2.7762-2.6573v2.0857c0,.2497,0,.965-.9168.965h-1.3725l-.1656-.953,1.1192.0113c.2264,0,.3821-.0233.3821-.3813v-3.8013h-3.0507v-.8581h3.0507v-1.0605h-2.5738v-.8221h2.5738v-.965h-2.8724v-.8341h1.6102c-.1202-.3814-.3226-.8221-.5377-1.2516l.8943-.1309c.2377.4408.4641.9297.6084,1.3825h1.6201c.1316-.2505.3693-.7033.5717-1.3825l.9296.143c-.2632.7032-.5122,1.1439-.5716,1.2395h1.6328v.8341h-2.9318v.965h2.646v.8221h-2.646v1.0605h3.1214v.8581h-3.1214v.4295c.3934,1.1079,1.5013,2.6212,3.2658,3.4199l-.4896.8815ZM103.8459,81.6526c.191.1188.8348.5362,1.4659,1.2515l-.6565.6311c-.3326-.3934-.8801-.9176-1.4178-1.2508l.6084-.6318ZM108.279,82.9395c.4174-.334.8928-.8702,1.1673-1.311l.7513.5243c-.3693.5242-.7626.9536-1.2267,1.335l-.6919-.5483Z"/>
      <path class="cls-2" d="M116.7729,75.8966c-.0481.3813-.1075.8581-.3226,2.1811l1.4291-.012c1.8479-.0121,2.5979.9296,2.5979,3.2176,0,1.2034-.2491,3.265-.8929,4.0397-.573.7032-1.3343.7265-1.7871.7265-.7513,0-1.5734-.1429-1.8705-.1903l-.0722-1.0725c1.0372.1903,1.7277.2504,1.9654.2504.1669,0,.764,0,1.0725-.6197.358-.7153.525-2.3715.525-3.2417,0-1.966-.6325-2.1571-1.9428-2.133l-1.2027.0241c-.4528,2.2165-.9296,4.421-2.1932,6.9233l-1.0612-.4287c1.0853-1.8946,1.7645-4.1472,2.1932-6.4706l-1.9894.0354-.0241-1.0252,2.1805-.0113c.1556-1.0492.215-1.6682.2745-2.2879l1.1206.0948ZM122.5629,82.3318c-.3085-3.2056-1.3697-4.397-1.8111-4.8859l.8235-.5242c.5603.5483,1.7389,1.7878,2.1196,5.2197l-1.132.1904Z"/>
      <path class="cls-2" d="M128.292,77.6129c-.2985,1.132-.3466,1.5253-.3579,3.3846,1.7757-1.4426,4.1953-1.4426,4.3863-1.4426,1.9526,0,3.2402,1.1801,3.2402,2.9318,0,3.5508-4.1939,3.5508-5.6711,3.5508-.382,0-1.5508,0-2.8129-.2143l-.0481-1.0124c.5716.0948,1.3697.2377,2.8723.2377,1.9187,0,3.0394-.1783,3.9081-1.0004.4174-.3934.6438-.9891.6438-1.5614,0-1.1199-.8334-1.9541-2.2879-1.9541-1.4065,0-3.1695.5363-4.1826,1.6803-.0241.1068-.0241.1309-.0368.2377l-1.0598-.0233c.0127-.4054.024-2.2647.0353-2.5385.0368-1.3463.2038-1.966.3227-2.4429l1.0484.167ZM133.6901,77.6009c-1.0358-.3814-2.0857-.6912-4.9693-.8101l.1782-1.0131c2.4564.0835,3.7893.3573,5.0415.7627l-.2504,1.0605Z"/>
      <path class="cls-2" d="M144.3532,77.5535h5.0287v.8341h-4.0524c.7046.5362,2.1224,1.3463,4.208,1.8472l-.4414.9289c-2.6219-.8461-3.8133-1.6916-4.7429-2.5858v1.9547h-.9297v-2.0021c-1.5847,1.4539-3.1567,2.1451-4.7075,2.6573l-.3806-.9297c1.1192-.2858,2.6106-.7626,4.0397-1.8705h-3.9322v-.8341h4.9806v-.8462c-2.2285.0955-3.3959.0835-4.0623.0835l-.2037-.8582c.3226.0121.7272.0241,1.3583.0241,2.2639,0,5.2438-.1436,7.4243-.6077l.4655.8341c-.5971.1068-1.8366.3452-4.0524.4761v.8943ZM148.2613,86.5858c-1.1674-.6197-2.5724-1.0959-3.3591-1.3343-1.1094.6792-3.1709,1.2275-5.841,1.3223l-.2858-.977c2.9799-.0234,4.4812-.5957,4.8024-.7266-1.8706-.5009-3.062-.6792-3.8713-.7988.5348-.4527.9876-.8694,1.5253-1.4538h-2.8497v-.8936h3.6237c.4527-.5603.6551-.8935.8461-1.18l.9409.3579c-.3212.4408-.4527.6198-.6197.8221h6.2329v.8936h-2.288c-.2264.4888-.583,1.18-1.3471,1.9427,1.5975.4648,2.6347.965,3.0875,1.1914l-.5971.8341ZM142.4585,82.6176c-.4527.5242-.6438.7273-.8815.9537.9537.1903,2.097.4167,3.0988.6912.8461-.6559,1.1914-1.299,1.381-1.6449h-3.5983Z"/>
      <path class="cls-2" d="M156.5048,77.5054v.8461h-4.4685v-.8461h4.4685ZM156.1114,75.7897v.8582h-3.7298v-.8582h3.7298ZM156.1114,79.1976v.8462h-3.7298v-.8462h3.7298ZM156.1114,80.8899v.8582h-3.7298v-.8582h3.7298ZM156.1114,82.6055v3.4087h-2.7874v.5362h-.9424v-3.9449h3.7298ZM155.1945,83.4283h-1.8705v1.7518h1.8705v-1.7518ZM159.6276,80.2822l3.3959-.2264.024.9296-3.4199.2384v3.9081c0,.2505.0594.3693.3919.3693h1.514c.2632,0,.4047-.0948.4528-.3693.0722-.4881.0849-1.3463.0849-1.6441l.9763.2617c-.0594,2.4196-.3099,2.7054-1.2763,2.7054h-2.0007c-.6085,0-1.1433-.1309-1.1433-.8935v-4.2661l-2.0856.1429-.0368-.9296,2.1224-.1549v-3.0747c-.9183.1075-1.4433.1429-1.9074.1669l-.1782-.9176c.9168-.024,3.4666-.1188,5.7305-1.0845l.5122.8228c-1.2862.5242-2.1083.6671-3.1567.8695v3.1461Z"/>
      <path class="cls-2" d="M171.5641,75.8018c.0722.4648.2023,1.2154.4655,2.133,1.9781-.0361,3.0379-.2865,3.5629-.4054l.2023,1.0011c-.4881.1188-1.4659.3452-3.4199.4054.6424,1.6802,1.5847,2.6926,1.9413,3.074l-.8928.6077c-.358-.4167-1.3457-1.5487-2.1097-3.6704-.1896.012-.2745.012-1.0245.012h-4.3736v-1.0011h5.0641c-.1783-.5957-.249-.8694-.5122-2.0495l1.0966-.1068ZM169.8478,81.3427c-1.2735.3934-2.3347,1.0131-2.3347,2.0616,0,1.5968,2.3347,1.5968,3.8968,1.5968,1.6923,0,2.6459-.1189,3.1695-.1903l-.0241,1.0605c-.9777.1068-2.0135.1308-3.0266.1308-2.4195,0-3.1695-.2858-3.7892-.6197-.5603-.2979-1.2508-.9296-1.2508-1.9067s.6664-2.2639,2.9063-2.9431l.4528.8101Z"/>
      <path class="cls-2" d="M182.3092,75.8732c-.0721,1.2869-.0834,1.6201-.1075,2.7641.0948-.0948,2.0375-2.0375,3.7652-2.0375,2.063,0,1.9781,2.0262,1.9427,2.7287l-.1061,2.4196c-.0127.3693-.0481.965-.0481,1.3223,0,.7746.0821,1.156.5349,1.2989.2745.0835.8235.179,1.2762.179l-.2631,1.0011c-1.7036-.143-2.6205-.2625-2.6205-2.6219,0-.2738.0226-.8816.0353-1.1914l.1189-2.4189c.0354-.7393.0594-1.7284-1.0598-1.7284-1.5621,0-3.5162,2.2526-3.5996,2.3595-.0227,1.5967-.0354,2.2285-.0354,3.7064,0,1.3103.0127,1.8706.024,2.3948h-1.0725c.0226-1.1199.0354-1.4418.0594-4.242-.4895.9891-.8829,1.5133-1.7757,2.5618l-.6919-.977c1.098-.9176,1.9441-2.1451,2.479-3.4914v-1.144l-2.0602.012v-1.0011h2.0715c0-.2023.0254-1.8352.0254-1.8946h1.1079Z"/>
      <path class="cls-2" d="M34.6746,94.3673c-.0354.4167-.0821.8101-.1897,1.5728h3.3125v1.001h-3.4568c-.2971,1.6209-.9876,5.3266-2.0729,7.6981l-1.0852-.3693c1.1333-2.1932,1.7998-5.7794,2.0516-7.3288h-1.7644v-1.001h1.8946c.0708-.6438.0962-1.2035.1189-1.6329l1.1914.0601ZM37.0347,100.8733c-.549.7867-.7032,1.0011-.7032,1.4185,0,1.0605,1.1319,1.2034,2.7648,1.2034,1.2989,0,2.0375-.0715,2.4309-.1075l-.0128,1.0605c-.4528.024-.8206.0481-1.7984.0481-1.7404,0-4.3849,0-4.3849-2.1331,0-.7626.3084-1.2635.8928-2.0142l.8108.5243ZM41.3008,98.5139c-.2745-.0234-.5603-.0354-1.0131-.0354-1.1447,0-2.5852.1429-3.635.5596l-.3212-.9176c1.2041-.4528,2.2879-.7146,4.9693-.6792v1.0726Z"/>
      <path class="cls-2" d="M48.4647,94.8201v-.8581h1.0371v.8581h4.3623v.8695h-1.7885c-.1301.6198-.3452,1.1921-.4046,1.3584h2.8723v.8581h-9.2708v2.4309c0,1.49-.3112,3.444-1.1447,4.6474l-.7994-.7025c.7046-.989.9664-2.7648.9664-3.8494v-3.3845h2.0248c-.0113-.1189-.1542-.8575-.3452-1.3584h-1.8706v-.8695h4.3609ZM49.5627,99.2885v-1.0725h.9763v1.0725h3.5275v.8702h-3.5275v1.3103h3.0266v.8461h-3.0266v1.4305h3.9194v.8936h-9.0911v-.8936h4.1954v-1.4305h-3.0507v-.8461h3.0507v-1.3103h-2.3969c-.3679.5957-.583.8221-.8335,1.0839l-.7626-.6431c.8348-.8108,1.347-1.9187,1.5366-2.467l.9424.179c-.1076.3332-.191.5596-.3934.977h1.9074ZM50.7286,97.048c.1556-.4288.2745-.9056.3467-1.3584h-4.1699c.2137.7393.2731.9657.3566,1.3584h3.4666Z"/>
      <path class="cls-2" d="M66.7968,104.8295c-2.0262-.7386-3.028-1.2508-4.4571-2.5618v2.7648h-.9424v-2.7768c-1.3937,1.3463-2.7761,1.9661-4.4684,2.5504l-.5235-.8581c1.0952-.3099,2.7521-.8462,4.2774-2.1331h-4.3142v-.7987h5.0287v-.8695h-4.242v-.7626h4.242v-.8342h-4.5278v-.7867h2.8002c-.0722-.2858-.2731-.8815-.3934-1.144h-2.9077v-.81h2.063c-.2391-.5243-.3707-.7627-.7994-1.514l.9649-.3212c.143.2384.4288.7032.8462,1.8352h.8815v-1.8472h.931v1.8472h1.2254v-1.8472h.931v1.8472h.8462c.3679-.6198.6664-1.335.8688-1.8352l.965.3212c-.167.358-.5349,1.0371-.8335,1.514h2.0984v.81h-2.9572c-.1543.5122-.2377.7627-.3679,1.144h2.8709v.7867h-4.5632v.8342h4.2774v.7626h-4.2774v.8695h5.0174v.7987h-4.2901c1.3456,1.144,2.4054,1.6209,4.2901,2.1211l-.5603.8935ZM63.0542,97.7632c.0467-.1188.2505-.6671.334-1.144h-3.1115c.0608.167.3226.965.3934,1.144h2.3841Z"/>
      <path class="cls-2" d="M74.2819,94.8435v-.8815h.989v.8815h4.8859v.8581h-9.2v3.8013c0,2.1925-.5476,4.1826-1.2268,5.3867l-.7995-.7032c.5377-1.0372,1.0613-2.491,1.0613-4.7309v-4.612h4.2901ZM77.7853,99.6939h-.6438v1.3584h2.3955v.8341h-2.3955v1.7277c0,.1315,0,.3459.3467.3459h1.214c.4655,0,.5009-.2144.525-1.347l.9409.215c-.0481.7026-.1189,1.2275-.2151,1.4539-.2136.4882-.7499.5476-.9282.5476h-1.8833c-.5476,0-.9183-.1549-.9183-.8101v-2.133h-1.6314c-.3212,1.4659-1.4305,2.4903-3.1228,3.086l-.5717-.8695c1.2763-.3693,2.3007-.9296,2.7281-2.2165h-2.097v-.8341h2.2526c.0113-.1076.0113-.155.0113-.3099v-1.0485h-.5943v-.2504c-.8107.5483-1.2395.7266-1.6569.9055l-.4528-.7867c.4175-.1662.8702-.3452,1.657-.8341-.5123-.4407-.6453-.5476-1.1688-.8695l.6565-.5362c.4995.3098.965.6791,1.2268.9296.7259-.5483.9183-.7867,1.1673-1.1207h-2.6686v-.7746h4.1345c.2024.2865.3934.5483.7627.9416.1316-.1188.5249-.5363.9296-1.1079l.7032.4287c-.3211.4769-.5475.7507-1.0484,1.2275.249.2144.3693.3219.5348.4408.0962-.0955.7273-.7033,1.1801-1.3704l.7273.4648c-.3693.5363-.6679.8582-1.2395,1.3704.7386.4768,1.2508.6438,1.6328.7626l-.4414.8462c-.4755-.2024-1.1674-.5243-2.0489-1.156v.4888ZM77.3566,98.8832c-.8815-.7266-1.3824-1.3584-1.7164-1.7992-.2377.3453-.6551.953-1.7036,1.7992h3.42ZM74.7106,101.0523h1.5126v-1.3584h-1.5126v1.3584Z"/>
      <path class="cls-2" d="M92.4697,104.7941c-2.5498-.7506-3.7666-1.6562-4.5646-2.4309v2.6212h-.8816v-2.6332c-.573.5363-1.9781,1.7277-4.5759,2.4903l-.4528-.9176c1.6682-.3693,3.1695-.9529,4.2901-1.9066h-4.3368v-.8101h5.0754v-.6438h-3.2176v-1.6201h-1.8578v-.7747h1.8578v-.6438h.8816v.6438h2.336v-.6438h.8816v.6438h2.3488v-.6438h.8928v.6438h1.8239v.7747h-1.8239v1.6201h-3.2416v.6438h5.0655v.8101h-4.3383c1.3471,1.0492,2.4309,1.4538,4.3015,1.8592l-.4641.9176ZM91.4325,97.6557c-.2136-.1903-.4528-.3927-.8334-.6792-5.0415.3339-5.5183.3693-8.1388.3693l-.0594-.786c.3198,0,1.9173-.012,2.2752-.024.4415-.5717.4882-.6672.6085-.8936h-3.2898v-.8221h4.982v-.8228h.9877v.8228h4.9212v.8221h-2.728c.2377.1309,1.3102.798,2.0488,1.4539l-.774.5596ZM87.0235,98.9433h-2.336v.8815h2.336v-.8815ZM89.8718,95.6422h-3.4086c-.4655.6318-.5122.7032-.6664.8936.2009,0,3.5388-.1069,3.9916-.1189-.3212-.203-.3807-.2384-.6198-.3934l.7032-.3813ZM90.2539,98.9433h-2.3488v.8815h2.3488v-.8815Z"/>
      <path class="cls-2" d="M96.9523,96.2379v-2.2639h.965v2.2639h1.1574v.9296h-1.1574v2.7047c.7159-.2144.9055-.2978,1.2281-.4287l.0963.9296c-.334.1429-.7047.2858-1.3244.4768v4.1586h-.965v-3.8727c-1.0726.2858-1.5848.4053-2.1196.5242l-.1797-.989c.4287-.0715,1.0484-.179,2.2993-.5243v-2.9792h-.9169c-.0962.6198-.2745,1.4659-.6085,2.1331l-.7739-.5483c.5475-1.1914.7032-2.7288.7272-4.1112l.8929.0474c-.0113.3814-.0354.7153-.1189,1.5494h.7981ZM99.0379,104.1503c2.5752-1.6802,4.0637-4.5278,4.6127-7.5671h-1.0017c-.5236,2.7648-2.3008,5.2438-3.6817,6.1253l-.6439-.7506c1.7645-1.2749,2.9559-3.253,3.3846-5.3747h-1.0371c-.2618.6798-.7387,1.7283-1.4178,2.5264l-.7754-.6672c.4174-.4648,1.4064-1.5607,1.9314-4.4804l.989.0594c-.0707.4054-.1782.9176-.4174,1.6802h4.6227c.0481,3.8728-.2137,7.4002-.5236,8.3058-.0948.2625-.3452,1.0011-1.4545,1.0011h-1.6796l-.1655-.9891,1.6555.0121c.2377,0,.5362,0,.6791-.2859.4896-1.0131.549-5.756.5717-7.1624h-.1429c-.4882,2.336-1.3456,5.947-4.8264,8.3418l-.6792-.7747Z"/>
      <path class="cls-2" d="M109.7307,94.4982c-.167.8221-.5122,2.6212-.5122,5.4936,0,2.312.2504,3.5989.3933,4.3135l-1.0612.1549c-.1188-.4287-.3806-1.4298-.3806-4.3255,0-2.9912.2858-4.8618.416-5.756l1.1447.1195ZM114.533,96.4763l-.024-2.0856h1.0499l.0226,2.0856h2.3361v1.0011h-2.2993l.0226,3.277c1.1207.5596,1.657,1.0011,2.5272,1.8112l-.716.9537c-.6905-.8462-1.3343-1.311-1.8112-1.6449v.3339c0,.6077,0,2.2165-2.4195,2.2165-2.0008,0-2.513-1.2869-2.513-2.0495,0-1.2042,1.0726-2.1451,2.6686-2.1451.4174,0,.8221.0474,1.2395.1663l-.0481-2.9191h-3.7298v-1.0011h3.6944ZM114.6278,101.3742c-.2858-.1196-.607-.2505-1.2027-.2505-1.1206,0-1.729.5363-1.729,1.2395,0,.3934.2037,1.1561,1.5974,1.1561,1.3343,0,1.3343-.9176,1.3343-1.299v-.8461Z"/>
      <path class="cls-2" d="M122.3648,104.6512c-.8461-1.2756-1.5847-2.0495-1.9781-2.467l.9056-.6671c.7754.7145,1.6215,1.7156,2.1224,2.3948l-1.0499.7393Z"/>
      <path class="cls-2" d="M133.1312,93.9499v3.8494h4.433v7.2212h-1.0131v-.5122h-9.4137v-.9296h9.4137v-1.9781h-8.8887v-.9537h8.8887v-1.93h-9.2594v-.9176h4.815v-3.8494h1.0245ZM129.6277,97.3699c-.44-.8695-1.1673-1.9421-1.7757-2.6573l.798-.5483c.7047.7867,1.2763,1.6088,1.8479,2.6693l-.8702.5363ZM134.6805,96.8577c.6085-.6912,1.3584-1.7758,1.7518-2.6934l.9763.5009c-.4273.8461-1.2395,2.0135-1.906,2.7528l-.8221-.5603Z"/>
      <path class="cls-2" d="M142.7628,105.0325h-.965v-4.8264c-.75.6912-1.299,1.0485-1.6329,1.2629l-.4047-.977c1.9781-1.1914,3.086-2.7288,3.4921-3.6938h-3.3378v-.8942h1.8833v-1.942h.965v1.942h1.5366v.9063c-.1189.2858-.4273,1.0244-1.2989,2.1089.6324.7266,1.0499,1.0846,1.7163,1.5607l-.5363.8702c-.631-.5122-.7626-.6551-1.4177-1.4298v5.1122ZM148.0419,93.962v3.4439h2.6219v.9771h-2.6219v5.2431h2.8964v.977h-6.9474v-.977h3.0507v-5.2431h-2.4903v-.9771h2.4903v-3.4439h1.0003Z"/>
      <path class="cls-2" d="M157.8164,103.5193c1.8706-.167,2.8596-.4649,3.5275-1.1327.9169-.9176,1.0357-2.276,1.0357-3.0025,0-1.3945-.6904-3.5275-3.6222-3.611-.0227,2.3955-.9169,7.7936-3.5516,7.7936-1.3937,0-2.2271-1.6683-2.2271-3.42,0-2.9551,2.0729-5.3386,5.6117-5.3386,3.3138,0,4.958,2.0255,4.958,4.6474,0,4.5279-3.8133,4.9453-5.3867,5.0641l-.3453-1.0003ZM155.7067,96.6072c-1.7036,1.2515-1.7036,3.3251-1.7036,3.635,0,.8936.2972,2.2519,1.2282,2.2519.6311,0,1.0244-.6318,1.2621-1.0845.3566-.7033,1.1207-2.7762,1.2028-5.5771-.4274.0715-1.2028.191-1.9895.7747Z"/>
      <path class="cls-2" d="M176.7895,103.9006l-.1669.953h-3.5261c-2.2172,0-3.7666-.9056-4.7203-2.0022-.8461,1.1921-1.7998,1.8833-2.2865,2.2406l-.6453-.8221c.5377-.358,1.4787-.9891,2.3361-2.2406-.4287-.7032-.774-1.4892-1.0244-2.5023-.2745.5957-.4882.9416-.6919,1.2515l-.7273-.7514c.6197-.8815,1.5381-2.4903,1.681-6.0772l.9055.0241c-.0226.3452-.0353.5596-.1075,1.2749h2.5271c-.0241.9416-.0707,3.0145-.8108,5.3626-.2136.6672-.4994,1.1914-.6438,1.4419.0368.0594.5844.7032,1.5027,1.1913.416.2264,1.2508.6559,2.6332.6559h3.7652ZM167.697,96.1785c-.1301.7506-.2617,1.3944-.4046,1.8705.1896,1.0492.4881,2.1331,1.0017,3.0868.9523-2.0262,1.0471-4.2067,1.0839-4.9573h-1.681ZM175.0378,101.4456c0,.2144.0481.2738.2377.2738h.2745c.167,0,.2038-.2023.2151-.2858.0481-.4648.0594-.6551.0835-1.7276l.8815.1429c0,.9296-.1189,2.109-.2971,2.4068-.1557.2504-.4061.3813-.716.3813h-.7032c-.1656,0-.9056,0-.9056-.7386v-6.6135h-1.8946v2.4543c0,3.1935-1.0726,4.445-1.5254,4.9573l-.822-.6311c.5249-.5603,1.4064-1.49,1.4064-4.3977v-3.3244h3.7652v7.1023Z"/>
      <path class="cls-2" d="M182.2258,102.7799c-1.1787.513-2.871.9771-3.8246,1.2395l-.1543-.977c.416-.0955,1.0726-.2858,1.6201-.4294v-3.4794h-1.3456v-.9296h1.3456v-2.7288h-1.4658v-.9175h3.8132v.9175h-1.3951v2.7288h1.1801v.9296h-1.1801v3.1815c.5858-.2023.9537-.3452,1.3951-.5122l.0114.977ZM189.0911,94.2839v5.6003h-2.7648v1.3584h2.8837v.8822h-2.8837v1.6803h3.0987v.8935h-7.5671v-.8935h3.5374v-1.6803h-2.8582v-.8822h2.8582v-1.3584h-2.7762v-5.6003h6.472ZM185.3953,95.1413h-1.8579v1.5374h1.8579v-1.5374ZM185.3953,97.4774h-1.8579v1.5607h1.8579v-1.5607ZM188.1728,95.1413h-1.8465v1.5374h1.8465v-1.5374ZM188.1728,97.4774h-1.8465v1.5607h1.8465v-1.5607Z"/>
      <path class="cls-2" d="M36.9158,123.2055h-1.1206v-3.8848c-1.8111,1.0959-3.444,1.6088-4.2661,1.8472l-.4768-.9897c3.444-.8695,6.2569-2.6927,7.9124-4.7663h-7.0663v-.977h3.9081v-1.6682h1.1207v1.6682h3.3477v.965c-.4994.6438-1.4404,1.8472-3.3591,3.1935v4.6121ZM41.2286,121.1793c-1.2989-.965-2.2866-1.5253-3.7057-2.1684l.6438-.7747c.8942.3693,2.6332,1.2274,3.6817,1.966l-.6198.9771Z"/>
      <path class="cls-2" d="M44.3458,119.0109c-.2264-1.311-.6439-2.2286-.9523-2.8604l.9409-.2617c.6438,1.2869.8815,2.2285,1.0245,2.8716l-1.0131.2505ZM44.3585,122.2999c3.8119-.8228,5.2905-2.4196,5.9937-6.6736l1.0485.179c-.6919,3.4199-1.705,6.2562-6.6262,7.3761l-.416-.8815ZM46.9195,118.522c-.1075-.7032-.3084-1.7036-.7867-2.8243l.9537-.2263c.5603,1.5132.6792,1.8351.8348,2.8122l-1.0018.2384Z"/>
      <path class="cls-2" d="M55.0329,112.7426v3.1582c2.6799.7506,4.6113,1.7991,6.0758,2.6573l-.5717,1.0605c-2.1677-1.2989-3.359-1.8713-5.5041-2.6099v6.2442h-1.1447v-10.5103h1.1447Z"/>
      <path class="cls-2" d="M72.2458,113.4932v.965c0,1.5735-.2505,3.1582-.9183,4.6001-1.1433,2.4903-3.8713,3.5395-6.3758,3.9682l-.3919-.9891c5.8027-.9176,6.3998-4.0517,6.5059-7.531h-6.7932v3.4079h-1.1192v-4.4211h9.0925Z"/>
      <path class="cls-2" d="M85.1459,117.3547v1.1432h-10.581v-1.1432h10.581Z"/>
      <path class="cls-2" d="M96.5815,114.4229c-.8716,4.9452-3.4213,7.865-8.4373,8.7111l-.4542-.989c4.8037-.7988,6.5795-3.1823,7.4964-6.721h-4.5519c-.7273.9055-1.7984,2.145-2.919,2.8242l-.6792-.8221c2.2752-1.4539,3.3364-3.3131,3.8968-4.7429l1.18.2144c-.1797.4407-.2872.7152-.7754,1.5253h5.2438Z"/>
      <path class="cls-2" d="M103.0465,112.7306c-.0595.3219-.1062.6318-.2392,1.2395h5.0769v.989h-5.35c-.2391.7747-.4527,1.132-.6791,1.5133.3325-.2264.8702-.5957,1.7871-.5957.6197,0,1.5253.155,1.8479,1.4659,1.1433-.4648,2.2158-.8228,3.0025-1.0845l.416,1.0364c-.8928.2384-1.9894.5363-3.2643,1.0252.0467.4881.0594,1.0131.0594,1.3703,0,.4528-.0127.7386-.0353.9771h-1.0613c.0368-.334.0595-.5363.0595-1.0485,0-.2625-.0113-.6198-.0227-.8702-.6084.2978-2.3955,1.168-2.3955,2.2045,0,1.1206,1.4419,1.1206,2.704,1.1206.5249,0,1.6569-.024,3.1228-.1669l.0241,1.0364c-.4769.0361-1.3471.0955-2.9078.0955-1.3343,0-4.0283,0-4.0283-2.0495,0-1.1801,1.1319-2.1571,3.3619-3.2176-.1076-.6198-.4061-.9771-1.0499-.9771-.7018,0-1.5607.3934-2.4422,1.323-.7981,1.1079-.8829,1.2268-1.681,2.097l-.798-.7153c1.7036-1.5487,2.4903-3.4553,2.8483-4.5399h-2.5257v-.989h2.7874c.143-.6792.1557-.9891.1783-1.311l1.2042.0715Z"/>
      <path class="cls-2" d="M112.3229,117.7714c-.74-.6318-1.3117-.9891-1.9541-1.299l.5009-.8221c.6905.2738,1.4404.7266,2.0376,1.2749l-.5844.8462ZM110.3802,122.4662c1.1319-1.3343,1.9894-3.2169,2.2526-3.8487l.7739.5716c-.6183,1.5254-1.6088,3.3605-2.4181,4.2307l-.6084-.9536ZM112.8945,114.5658c-.5716-.5002-1.4772-1.0365-2.0248-1.311l.5349-.786c.8107.3212,1.6442.9056,2.0743,1.2629l-.5844.8341ZM118.0662,115.6263h3.3959v.8935h-3.3959v1.9067h2.8355v5.0768h-.9522v-.6438h-4.7076v.6438h-.9763v-5.0768h2.8115v-1.9067h-3.4086v-.8935h3.4086v-1.7043c-1.0838.0835-2.145.0955-3.0025.0955l-.167-.9176c2.0135.024,4.7076-.0835,6.7451-.6912l.3453.8822c-.5236.1429-1.4773.3934-2.9318.5363v1.7991ZM119.9367,119.3207h-4.6948v2.6573h4.6948v-2.6573Z"/>
      <path class="cls-2" d="M126.9634,112.8615c-.0481.3813-.1075.8581-.3226,2.1811l1.4305-.012c1.8465-.012,2.5979.9296,2.5979,3.2176,0,1.2034-.2505,3.265-.8929,4.0397-.5716.7032-1.3357.7266-1.7885.7266-.7499,0-1.5734-.1429-1.8705-.1903l-.0708-1.0726c1.0358.1903,1.7262.2505,1.9654.2505.1669,0,.7626,0,1.0725-.6198.358-.7152.525-2.3714.525-3.2416,0-1.9661-.6325-2.1571-1.9428-2.1331l-1.2041.0241c-.4528,2.2165-.9282,4.421-2.1932,6.9233l-1.0598-.4287c1.0853-1.8946,1.7645-4.1472,2.1918-6.4706l-1.9894.0354-.0227-1.0244,2.1791-.0121c.1556-1.0491.215-1.6682.2745-2.2879l1.1206.0948ZM132.7548,119.2967c-.3099-3.2056-1.3711-4.397-1.8111-4.8859l.822-.5242c.5604.5483,1.7404,1.7878,2.1211,5.2198l-1.132.1903Z"/>
      <path class="cls-2" d="M137.5387,112.8976c0,.0955-.1301,5.2431-.1301,6.2321,0,1.4185.0481,2.8724,2.4309,2.8724,2.9798,0,3.4326-2.2052,3.7651-3.8848l1.0726.2858c-.2731,1.4298-.8815,4.6114-4.767,4.6114-1.1079,0-2.4903-.2618-3.1454-1.4539-.4528-.8221-.4656-2.0616-.4656-3.4914,0-.8221.0722-4.433.0482-5.1716h1.1913Z"/>
      <path class="cls-2" d="M148.4848,123.134c-.8461-1.2756-1.5847-2.0495-1.9781-2.4669l.9056-.6672c.7754.7146,1.6215,1.7156,2.1224,2.3948l-1.0499.7393Z"/>
      <path class="cls-2" d="M164.1766,122.2999l-.191.9176h-5.9583c-1.9541,0-2.6927-1.0011-2.9545-1.347-.764.8702-.8235.9416-1.6696,1.6802l-.4754-1.0124c.215-.1316.8942-.5723,1.4177-1.1326v-3.3606h-1.2876v-.977h2.23v3.611c.2377,1.4538,2.4054,1.6208,2.7507,1.6208h6.138ZM154.9412,115.2209c-.2136-.3212-.6324-.965-1.705-2.0135l.6566-.5957c.5603.4762,1.2508,1.1794,1.8224,1.9781l-.774.6311ZM160.4228,112.4448v.7506h3.5982v.8101h-1.7984c-.1203.4053-.2151.6791-.3806,1.0845h1.7389v5.8275c0,.5716-.2617.9176-.8815.9176h-1.2635l-.1316-.9056,1.1093.0113c.1542,0,.2618-.0233.2618-.2978v-4.7783h-2.2993v.8936h1.93v.7393h-1.93v.8221h1.5253v2.4662h-3.9095v-2.4662h1.5126v-.8221h-1.9413v-.7393h1.9413v-.8936h-2.3107v5.8155h-.9069v-6.5902h1.6456c-.0482-.1903-.2618-.989-.2986-1.0845h-1.739v-.8101h3.5629v-.7506h.965ZM161.0071,115.09c.1302-.3099.3085-.9296.3453-1.0845h-2.8243c.143.5603.1557.6197.2632,1.0845h2.2158ZM161.0779,119.0342h-2.2753v1.0251h2.2753v-1.0251Z"/>
      <path class="cls-2" d="M176.29,112.8735v.9416h-4.3976v3.3606h3.9208v.9296h-3.9208v4.0276h4.7556v.953h-10.963v-.953h1.7262v-6.3991h1.0131v6.3991h2.4564v-8.3178h-4.8151v-.9416h10.2244Z"/>
      <path class="cls-2" d="M189.2977,123.0265h-11.0112v-.9296h1.548v-9.2828h7.9124v9.2828h1.5508v.9296ZM180.825,113.7437v2.133h5.9215v-2.133h-5.9215ZM180.825,116.7823v2.1451h5.9215v-2.1451h-5.9215ZM180.825,119.8329v2.264h5.9215v-2.264h-5.9215Z"/>
      <path class="cls-2" d="M33.0672,139.8043c.4528.024.7612.0361,1.2508.0361,1.3583,0,4.1458,0,5.4575-1.5133.5249-.5957.7513-1.299.7513-2.0262,0-.929-.3339-2.7167-2.9091-2.7167-1.2395,0-3.0379.3813-4.2902.6438-1.1192.2377-1.5126.3452-1.8819.4407l-.2023-1.1921c.4655-.0594,1.7276-.2738,3.0619-.5002.9665-.1669,2.2993-.4054,3.3379-.4054,2.8837,0,4.051,1.8232,4.051,3.7419,0,2.5144-1.8238,3.5515-3.444,4.0758-1.3343.4287-3.0265.4881-4.982.4407l-.2009-1.0251Z"/>
      <path class="cls-2" d="M53.874,141.9854c-.5362-.3572-1.5974-1.0605-3.5515-1.9066-.6551.4768-2.4903,1.5607-5.5876,1.8826l-.3467-1.0485c1.5975-.1429,3.3846-.4408,4.8745-1.2628-.965-.3821-2.0262-.7394-3.8854-1.2516.3565-.4174.9423-1.1086,1.596-2.2405h-2.8709v-.941h3.3845c.4175-.8108.6184-1.3704.7627-1.7878l1.0952.2024c-.1302.3219-.2858.7152-.7132,1.5854h6.4579v.941h-2.1083c-.5731,1.8231-1.3598,2.7174-1.8253,3.1935,1.514.6318,2.6828,1.2989,3.3733,1.7043l-.6552.9296ZM49.059,131.9994v-1.0725h1.0244v1.0725h4.7316v2.5979h-1.0131v-1.6803h-8.4006v1.6803h-1.0131v-2.5979h4.6708ZM48.118,136.158c-.5716,1.001-.9183,1.4538-1.156,1.7637.8575.2504,2.0503.5957,3.2417,1.0485,1.1446-1.0485,1.5974-2.4189,1.7276-2.8122h-3.8133Z"/>
      <path class="cls-2" d="M66.3044,135.7646h-3.0025v1.8118h3.8133v.8936h-3.8133v2.2519h4.9452v.9537h-10.9163v-.9537h4.958v-2.2519h-3.7893v-.8936h3.7893v-1.8118h-2.9672v-.9056c-.8108.4889-1.3102.7153-1.739.9176l-.5009-.977c1.8947-.7266,3.8487-2.0135,5.1717-3.8607h1.0853c1.2027,1.6201,2.9657,3.0506,5.1589,3.8487l-.5009.977c-.416-.1903-.9537-.4287-1.6923-.8935v.8935ZM66.269,134.847c-.7386-.4761-2.2045-1.4772-3.4793-3.062-.965,1.2155-2.1338,2.264-3.4554,3.062h6.9347Z"/>
      <path class="cls-2" d="M72.8033,136.4558c0,.5723-.4656,1.0131-1.0131,1.0131-.5604,0-1.0131-.4528-1.0131-1.0131,0-.5716.4527-1.0124,1.0131-1.0124.5475,0,1.0131.4408,1.0131,1.0124Z"/>
      <path class="cls-2" d="M85.0695,141.9854c-.5377-.3572-1.5975-1.0605-3.5515-1.9066-.6566.4768-2.4904,1.5607-5.5891,1.8826l-.3452-1.0485c1.596-.1429,3.3845-.4408,4.873-1.2628-.965-.3821-2.0262-.7394-3.8854-1.2516.3594-.4174.9423-1.1086,1.5975-2.2405h-2.871v-.941h3.3846c.416-.8108.6183-1.3704.7612-1.7878l1.0966.2024c-.1316.3219-.2858.7152-.7145,1.5854h6.4578v.941h-2.1083c-.5716,1.8231-1.3583,2.7174-1.8238,3.1935,1.514.6318,2.6813,1.2989,3.3718,1.7043l-.6537.9296ZM80.2544,131.9994v-1.0725h1.0244v1.0725h4.7302v2.5979h-1.0117v-1.6803h-8.4005v1.6803h-1.0131v-2.5979h4.6707ZM79.3135,136.158c-.5717,1.001-.9183,1.4538-1.1575,1.7637.8589.2504,2.0517.5957,3.2431,1.0485,1.1433-1.0485,1.5961-2.4189,1.7262-2.8122h-3.8118Z"/>
      <path class="cls-2" d="M88.2885,139.626c.4882-.8341.9891-2.0375,1.2041-4.9219l1.0245.1196c-.1557,1.8472-.4896,4.0156-1.3358,5.5169l-.8928-.7146ZM95.9151,133.4653c-.8589-.4768-2.1323-1.0725-4.7429-1.5734l.2985-.9176c1.7517.2745,3.0974.6671,4.8844,1.4659l-.44,1.0251ZM92.6734,134.1204v6.2683c0,.1549.0241.3693.3453.3693h2.4309c.4174,0,.5122-.2264.5716-.3693.1443-.358.2391-1.3945.2858-1.8947l1.0131.3333c-.3084,2.8242-.9055,2.9077-1.6441,2.9077h-2.9785c-.6438,0-1.0485-.1903-1.0485-1.0131v-6.6015h1.0244ZM98.5851,140.2932c-.3-1.9661-1.0386-4.1232-1.7998-5.6726l.9409-.3813c.7386,1.3824,1.6442,3.7899,1.9541,5.7914l-1.0952.2625Z"/>
      <path class="cls-2" d="M103.4709,132.0114c-.0834.5717-.2263,1.5607-.2263,3.0146,0,1.8111.1429,3.7298.7867,4.7549.1202.2024.4174.4167.7994.4167.8928,0,1.5593-1.4057,2.0842-2.7881l.8816.5716c-.7273,1.9427-1.6923,3.3605-3.0733,3.3605-2.3361,0-2.5866-4.1946-2.5866-6.1727,0-1.2275.0963-2.4663.167-3.277l1.1673.1195ZM111.2291,140.0908c.0113-.2745.0227-.5483.0227-.9296,0-4.0397-1.166-5.2912-2.2158-6.4232l.9536-.5242c.7033.6551,2.455,2.2759,2.455,6.9948,0,.3219-.0128.5363-.0241.7626l-1.1914.1196Z"/>
      <path class="cls-2" d="M118.4171,131.3323c-.0368.4167-.0849.81-.1925,1.5727h3.3139v1.0011h-3.4553c-.2986,1.6208-.9905,5.3265-2.0744,7.698l-1.0838-.3693c1.1319-2.1932,1.7998-5.7801,2.0488-7.3287h-1.763v-1.0011h1.8946c.0722-.6438.0948-1.2034.1189-1.6329l1.1928.0602ZM120.7758,137.8382c-.5476.7867-.7032,1.0011-.7032,1.4185,0,1.0605,1.1319,1.2034,2.7648,1.2034,1.2989,0,2.0375-.0714,2.4309-.1075l-.0113,1.0605c-.4528.024-.8235.0481-1.7999.0481-1.7403,0-4.3863,0-4.3863-2.133,0-.7627.3113-1.2636.8942-2.0142l.8108.5242ZM125.0419,135.4788c-.2745-.0241-.5603-.0354-1.0131-.0354-1.1433,0-2.5865.1429-3.6336.5596l-.3226-.9176c1.2027-.4528,2.288-.7145,4.9693-.6792v1.0726Z"/>
      <path class="cls-2" d="M131.1573,131.3323c-.1188,1.1079-.1302,1.2267-.1783,1.5727h3.3124v.977h-3.4567c-.3934,2.7528-1.1065,5.1596-2.1196,7.7695l-1.0131-.4167c1.1079-2.3241,1.8592-5.744,2.0856-7.3528h-1.8238v-.977h1.954c.0708-.7507.0835-1.2034.0962-1.6088l1.1433.0361ZM133.5882,137.9217c-.2858.2745-.716.6912-.716,1.3463,0,.7627.3467,1.2041,2.7309,1.2041.9395,0,1.7149-.0594,2.3587-.1075l.0467,1.0251c-.3679.0234-.8207.0595-1.93.0595-1.2876,0-1.9073-.0361-2.6205-.2144-.9055-.2384-1.6456-.9056-1.6456-1.8946,0-1.0372.7514-1.7404,1.0004-1.9781l.7754.5596ZM137.7949,135.4788c-.3212-.0121-.6198-.0241-1.0726-.0241-1.8352,0-2.7181.2625-3.5388.5603l-.358-.9296c2.0376-.7145,3.9209-.7025,4.9453-.6671l.0241,1.0605ZM136.0672,133.4766c-.1189-.3693-.4301-1.2388-.8108-1.8465l.7627-.2978c.3933.5362.7386,1.4057.8702,1.8111l-.8221.3332ZM137.5685,133.0125c-.3099-.8108-.4174-1.0845-.8702-1.7878l.7754-.3099c.3806.5363.6905,1.1087.8928,1.7397l-.798.358Z"/>
      <path class="cls-2" d="M142.3835,131.4752c-.2971,1.8705-.4527,3.5628-.4527,5.4574,0,2.634.2985,3.8494.4174,4.3616l-1.1193.1429c-.1556-.9176-.3579-2.2639-.3579-4.5285,0-1.918.1316-3.5982.3579-5.5049l1.1546.0715ZM147.7943,133.8346c-.0113-.3934-.024-2.1451-.0481-2.5023h1.0725c.0114.4046.0114,2.1443.0241,2.5023h2.0375v.965h-2.0248c.0467,2.0375.0595,3.1582-.4782,4.3736-.7132,1.6088-2.1324,2.1564-4.2166,2.455l-.4061-.9537c1.5126-.179,3.0266-.4648,3.6223-1.8946.4655-1.132.4528-1.9428.4174-3.9803h-4.2533v-.965h4.2533Z"/>
      <path class="cls-2" d="M160.7977,131.4872v.9056c-.4895.4287-2.5497,2.3113-3.0025,2.7167.4528-.1903.8688-.3453,1.7857-.3453,3.0633,0,3.277,2.4189,3.277,3.1101,0,1.2628-.7259,3.6343-4.3963,3.6343-2.3841,0-3.0973-1.1199-3.0973-1.9901,0-1.0605.999-1.7758,2.1196-1.7758,2.1338,0,2.2639,2.0262,2.2639,2.2165,0,.2264-.0353.346-.0948.5363,1.5975-.3693,2.1692-1.5253,2.1692-2.6092,0-1.2989-.75-2.2045-2.5017-2.2045-1.8592,0-3.1709,1.0839-3.2303,1.144-.5476.4641-1.4065,1.3343-2.1097,2.109l-.9056-.7032c.334-.2859,1.8593-1.7277,2.4083-2.2519.5943-.5604,3.2515-3.0273,3.7892-3.5516l-5.1249.0595v-1.0004h6.6502ZM158.7715,140.0908c0-.8461-.5235-1.4779-1.323-1.4779-.6324,0-1.1192.4174-1.1192.9056,0,1.144,1.7984,1.1086,2.3347,1.0966.0835-.2144.1075-.3219.1075-.5243Z"/>
      <path class="cls-2" d="M176.4216,140.8655l-.1669.953h-3.5261c-2.2172,0-3.7666-.9056-4.7203-2.0022-.8461,1.1921-1.7998,1.8833-2.2865,2.2406l-.6453-.8221c.5377-.358,1.4787-.9891,2.3361-2.2406-.4287-.7032-.7739-1.4892-1.0244-2.5023-.2745.5957-.4882.9416-.6919,1.2508l-.7273-.7506c.6198-.8815,1.5381-2.4903,1.681-6.0773l.9055.0241c-.0226.3452-.0353.5596-.1075,1.2749h2.5271c-.024.9416-.0707,3.0145-.8108,5.3626-.2136.6672-.4994,1.1914-.6438,1.4419.0368.0594.5844.7032,1.5027,1.1914.416.2264,1.2508.6558,2.6332.6558h3.7652ZM167.3292,133.1434c-.1302.7506-.2618,1.3944-.4047,1.8706.1896,1.0492.4881,2.133,1.0018,3.0867.9522-2.0262,1.047-4.2067,1.0838-4.9573h-1.6809ZM174.6699,138.4106c0,.2143.0481.2737.2377.2737h.2745c.167,0,.2038-.2023.2151-.2858.0481-.4648.0594-.6558.0835-1.7276l.8815.1429c0,.9289-.1189,2.109-.2971,2.4068-.1557.2505-.4061.3813-.716.3813h-.7032c-.1656,0-.9056,0-.9056-.7386v-6.6134h-1.8946v2.4542c0,3.1935-1.0726,4.4451-1.5253,4.9573l-.8221-.6311c.5249-.5603,1.4064-1.4899,1.4064-4.3977v-3.3244h3.7652v7.1024Z"/>
      <path class="cls-2" d="M178.1634,135.3005c1.9668-1.2756,2.8483-2.4429,3.6704-4.4571l1.0004.2384c-.8334,2.0736-1.8706,3.5388-3.9675,5.0288l-.7033-.8101ZM183.6577,141.9854l-.1783-1.0371,1.763.012c.5236,0,.7273-.3099.7868-.4047.4046-.7152.4754-2.7407.5235-4.445h-3.0139c-.3226,3.0265-1.4786,4.6948-4.5052,5.8748l-.5603-.9055c2.4196-.8702,3.826-2.1331,4.0156-4.9693h-2.3827v-.9417h7.4596c0,3.6704-.3453,5.4221-.6424,6.0418-.3339.6672-.907.7747-1.5734.7747h-1.6923ZM186.0405,130.8554c.631,1.5133,1.7517,3.1341,3.6336,4.4451l-.6665.8101c-1.5974-1.0726-3.2643-3.2771-3.9689-4.9573l1.0018-.2979Z"/>
      <path class="cls-2" d="M34.6392,156.6542c-.941.5717-2.3361,1.1794-3.4907,1.5494l-.133-1.0131c.382-.1075.7994-.2264,1.4432-.4648v-3.8494h-1.3357v-.9176h1.3357v-2.5257h.941v2.5257h1.0852v.9176h-1.0852v3.4801c.5957-.2625.8928-.4174,1.1801-.5844l.0594.8822ZM41.7663,155.927c.0113,1.1921-.1075,3.3131-.3594,3.8373-.1542.3219-.3934.6792-1.0952.6792h-1.5366l-.133-.9296,1.4913.012c.334,0,.4274-.2505.4755-.4528.0849-.3813.1556-.977.215-2.3715h-.798c-.6679,1.7638-1.8479,3.0273-3.5162,3.8374l-.5956-.7386c1.7163-.8108,2.728-1.9307,3.2543-3.0988h-1.0131c-1.2649,2.0737-3.1709,2.8009-3.9095,3.0747l-.4287-.7506c.7499-.2504,2.121-.7506,3.3732-2.3241h-1.1333c-.8221.8342-1.5367,1.1921-1.9541,1.4065l-.4415-.7032c1.2877-.5717,1.9428-1.144,2.6573-2.288h-1.8705v-.7747h7.6987v.7747h-4.9339c-.1896.3339-.3099.5363-.5122.8101h5.0655ZM41.3475,149.8023v3.8367h-6.1961v-3.8367h6.1961ZM40.4419,150.5409h-4.409v.8702h4.409v-.8702ZM40.4419,152.0663h-4.409v.8702h4.409v-.8702Z"/>
      <path class="cls-2" d="M54.2235,151.4111c-.3806-.024-.7499-.0481-1.2267-.0481-.6552,0-.8334.0595-1.1079.1429-2.264.7394-4.4571,2.6693-4.4571,4.7189,0,1.4899,1.2041,2.2406,3.2416,2.5031,1.0726.1429,1.9187.1188,2.4436.1068l-.1669,1.144c-2.5158-.0474-3.9095-.3573-5.0542-.9771-.9523-.5242-1.572-1.6088-1.572-2.6693,0-2.1684,1.7644-3.8607,3.6576-4.9212-2.346.1069-3.4779.2024-5.9937.4047l-.0595-1.1079c.9891,0,6.3985-.2978,7.604-.3219.3325-.012,2.4309-.0594,2.6686-.0715l.0226,1.0966ZM52.186,154.962c-.1189-.2385-.4882-1.0131-1.0357-1.7397l.7145-.3814c.5844.7153.8815,1.299,1.0725,1.6923l-.7513.4288ZM53.6165,154.2708c-.4174-.7507-.5844-1.0606-1.0371-1.6322l.7386-.3813c.2985.3693.8235,1.0838,1.0499,1.5847l-.7514.4288Z"/>
      <path class="cls-2" d="M67.3034,159.2641l-.1925.9176h-5.9569c-1.9555,0-2.6941-1.0011-2.9559-1.347-.7626.8702-.8221.9416-1.6682,1.6802l-.4768-1.0124c.215-.1315.8942-.5723,1.4192-1.1326v-3.3605h-1.2876v-.9771h2.2285v3.611c.2377,1.4539,2.4068,1.6208,2.7521,1.6208h6.1381ZM58.0665,152.1851c-.2136-.3212-.631-.965-1.7036-2.0135l.6566-.5957c.5589.4762,1.2508,1.1794,1.8224,1.9781l-.7754.6311ZM63.5481,149.409v.7506h3.5996v.8101h-1.7998c-.1189.4054-.2151.6791-.3806,1.0845h1.7389v5.8275c0,.5717-.2617.9176-.8815.9176h-1.2635l-.1302-.9056,1.1079.0114c.1542,0,.2618-.0234.2618-.2979v-4.7783h-2.2993v.8936h1.9314v.7393h-1.9314v.8221h1.5253v2.4662h-3.9095v-2.4662h1.514v-.8221h-1.9413v-.7393h1.9413v-.8936h-2.3121v5.8155h-.9055v-6.5902h1.6442c-.0482-.1903-.2618-.989-.2972-1.0845h-1.7404v-.8101h3.5629v-.7506h.965ZM64.1339,152.0542c.1301-.3098.3084-.9296.3452-1.0845h-2.8242c.1415.5603.1542.6197.2617,1.0845h2.2173ZM64.2046,155.9984h-2.2767v1.0251h2.2767v-1.0251Z"/>
      <path class="cls-2" d="M79.4153,149.8377v.9417h-4.3976v3.3605h3.9222v.9296h-3.9222v4.0277h4.7556v.9529h-10.963v-.9529h1.7276v-6.3992h1.0131v6.3992h2.455v-8.3178h-4.8151v-.9417h10.2244Z"/>
      <path class="cls-2" d="M92.614,159.3476l-.1669.953h-3.5275c-2.2173,0-3.7652-.9056-4.7189-2.0022-.8461,1.1921-1.7998,1.8833-2.2894,2.2406l-.6424-.8221c.5363-.358,1.4772-.989,2.3347-2.2406-.4273-.7032-.774-1.4892-1.0244-2.5023-.2745.5957-.4882.9416-.6905,1.2508l-.7273-.7506c.6197-.8815,1.5366-2.4903,1.681-6.0772l.9055.024c-.024.3453-.0368.5596-.1075,1.2749h2.5271c-.0255.9416-.0722,3.0145-.8122,5.3626-.2136.6672-.4995,1.1914-.6424,1.4419.0354.0594.583.7032,1.5013,1.1914.4174.2264,1.2522.6558,2.6332.6558h3.7666ZM83.5215,151.6255c-.1316.7506-.2631,1.3944-.4046,1.8706.1896,1.0492.4867,2.133,1.0003,3.0867.9523-2.0262,1.0485-4.2067,1.0839-4.9573h-1.6796ZM90.8623,156.8927c0,.2143.0481.2738.2377.2738h.2745c.167,0,.2024-.2024.2151-.2859.0467-.4648.0594-.6558.0821-1.7276l.8829.1429c0,.9289-.1189,2.109-.2986,2.4068-.1542.2505-.4061.3814-.7145.3814h-.7047c-.1655,0-.9055,0-.9055-.7387v-6.6134h-1.8932v2.4542c0,3.1935-1.0726,4.4451-1.5254,4.9573l-.8235-.6311c.525-.5603,1.4065-1.4899,1.4065-4.3977v-3.3244h3.7666v7.1024Z"/>
      <path class="cls-2" d="M97.8508,158.227c-1.1787.5129-2.871.977-3.8247,1.2395l-.1556-.9771c.4174-.0955,1.0725-.2858,1.6215-.4294v-3.4794h-1.347v-.9296h1.347v-2.7287h-1.4659v-.9176h3.8119v.9176h-1.3923v2.7287h1.1787v.9296h-1.1787v3.1816c.583-.2024.9523-.3453,1.3923-.5123l.0128.9771ZM104.7147,149.7309v5.6004h-2.7648v1.3583h2.8836v.8822h-2.8836v1.6803h3.0987v.8935h-7.5671v-.8935h3.5402v-1.6803h-2.8611v-.8822h2.8611v-1.3583h-2.7776v-5.6004h6.4706ZM101.0217,150.5883h-1.8593v1.5374h1.8593v-1.5374ZM101.0217,152.9244h-1.8593v1.5607h1.8593v-1.5607ZM103.7978,150.5883h-1.8479v1.5374h1.8479v-1.5374ZM103.7978,152.9244h-1.8479v1.5607h1.8479v-1.5607Z"/>
      <path class="cls-2" d="M111.2037,149.6948c-.0595.3219-.1062.6318-.2378,1.2395h5.0769v.989h-5.3514c-.2377.7747-.4527,1.132-.6791,1.5133.3339-.2264.8702-.5957,1.7885-.5957.6197,0,1.5253.155,1.8465,1.4659,1.1447-.4648,2.2172-.8228,3.0039-1.0845l.416,1.0364c-.8942.2384-1.9894.5363-3.2657,1.0252.0481.4881.0594,1.0131.0594,1.3703,0,.4528-.0113.7386-.0339.9771h-1.0612c.0353-.334.0594-.5363.0594-1.0485,0-.2625-.0113-.6198-.0241-.8702-.607.2978-2.3955,1.168-2.3955,2.2045,0,1.1206,1.4433,1.1206,2.7054,1.1206.5235,0,1.6555-.024,3.1214-.1669l.0255,1.0364c-.4783.0361-1.3471.0955-2.9092.0955-1.3329,0-4.0269,0-4.0269-2.0495,0-1.1801,1.1319-2.1571,3.3605-3.2176-.1076-.6198-.4061-.9771-1.0485-.9771-.7032,0-1.5621.3934-2.4422,1.323-.7995,1.1079-.8829,1.2268-1.681,2.097l-.798-.7153c1.7036-1.5486,2.4903-3.4553,2.8469-4.5399h-2.5257v-.989h2.7889c.1415-.6792.1542-.9891.1782-1.311l1.2028.0715Z"/>
      <path class="cls-2" d="M118.3718,155.5697c1.4546-1.0365,2.3955-2.467,3.0874-3.7772l.8462.4287c-.5731,1.1079-.9664,1.6803-1.265,2.0736v6.1727h-1.0117v-4.9693c-.5363.5724-.9409.9056-1.2749,1.1681l-.382-1.0966ZM118.4086,152.0783c1.4772-.8101,2.3233-2.1331,2.704-2.7889l.8461.3934c-.5716,1.1206-1.6795,2.491-3.0266,3.3485l-.5235-.953ZM129.6461,154.1639h-1.9186v5.3266c0,.6792-.2151.977-1.0612.977h-2.0503l-.1783-1.0845,1.9314.024c.249,0,.3566-.0481.3566-.3339v-4.9092h-4.2902v-.9657h7.2106v.9657ZM129.1806,150.8508h-6.2442v-.9296h6.2442v.9296Z"/>
      <path class="cls-2" d="M133.0477,150.4935c-.0835.5717-.2264,1.5607-.2264,3.0146,0,1.8111.1429,3.7298.7867,4.7549.1189.2024.416.4167.798.4167.8943,0,1.5607-1.4057,2.0857-2.7881l.8815.5716c-.7273,1.9428-1.6923,3.3605-3.0747,3.3605-2.3347,0-2.5865-4.1946-2.5865-6.1727,0-1.2275.0962-2.4663.1669-3.277l1.1688.1195ZM140.8045,158.5729c.0127-.2745.024-.5483.024-.9296,0-4.0397-1.1673-5.2912-2.2172-6.4232l.9537-.5242c.7046.6551,2.4563,2.2759,2.4563,6.9948,0,.3219-.0127.5363-.0255.7627l-1.1913.1195Z"/>
      <path class="cls-2" d="M148.748,151.0772l-.0241-1.2628h1.0485l.0128,1.2628h3.9562v.9537h-3.9449l.0127,1.4892h3.7185v.9296h-3.7185v1.7751c1.3697.5603,2.5498,1.311,3.6449,2.288l-.7018.9296c-1.0966-1.0364-1.7291-1.5727-2.9318-2.1804v.5362c0,2.121-1.93,2.2286-2.5978,2.2286-1.5734,0-2.6573-.8582-2.6573-2.0383,0-.9289.7627-2.1924,3.0393-2.1924.583,0,.9169.0714,1.1674.1309v-1.4773h-4.4331v-.9296h4.4203v-1.4892h-4.6226v-.9537h4.6113ZM148.7848,156.8806c-.2745-.0834-.6566-.2023-1.2989-.2023-1.098,0-1.9909.4528-1.9909,1.3102,0,.8702.965,1.1207,1.6796,1.1207,1.5734,0,1.6102-.8341,1.6102-1.3824v-.8462Z"/>
      <path class="cls-2" d="M161.7429,149.7309h1.0853v1.3824h3.3605v.977h-3.3605v2.5024c.0467.1789.1075.3933.1542.6551.0368.2504.0722.5483.0722.9055,0,3.4922-2.7408,3.8735-4.8491,3.9923l-.3339-1.0131c3.4072-.0233,3.9194-1.1319,4.1586-2.2759-.2024.3219-.6198.9296-1.7758.9296-1.4659,0-2.3474-1.168-2.3474-2.4429,0-1.3584.965-2.4429,2.5144-2.4429.8348,0,1.1319.2504,1.3696.4407l-.0113-1.2508h-5.9711v-.977h5.9598l-.0255-1.3824ZM161.8278,155.0334c-.024-.2618-.2037-1.1793-1.3838-1.1793-.7499,0-1.4999.4407-1.4999,1.4651,0,.6559.3679,1.49,1.3938,1.49,1.4418,0,1.4899-1.3471,1.4899-1.3824,0-.0835.0113-.2738,0-.3934Z"/>
      <path class="cls-2" d="M171.9858,158.2984c0,.977-.7981,1.7758-1.7758,1.7758-.9891,0-1.7744-.7988-1.7744-1.7758,0-.989.7981-1.775,1.7744-1.775.965,0,1.7758.7739,1.7758,1.775ZM169.0299,158.2984c0,.6438.525,1.1681,1.1801,1.1681.6438,0,1.1687-.5243,1.1687-1.1681,0-.6671-.5376-1.1793-1.1687-1.1793-.6424,0-1.1801.5242-1.1801,1.1793Z"/>
    </g>
  </g>
  <g>
    <path class="cls-3" d="M192.2578,28.4914c-1.4405-5.0081-27.8307-1.7828-58.9398,7.2007-31.1091,8.9857-55.1619,20.3272-53.7216,25.3319,1.4418,5.0047,27.8293,1.7794,58.9427-7.2034,31.1048-8.9828,55.1576-20.3252,53.7187-25.3292Z"/>
    <g>
      <path class="cls-1" d="M176.8659,22.0251l1.9243,4.2265c6.8484-.1478,10.68.7315,11.0678,2.0609.9423,3.2183-16.5663,15.1485-52.0236,25.5278-35.4615,10.3865-56.6377,9.7801-57.5786,6.5598-.3892-1.3266,2.3644-4.1345,8.2096-7.7037l-.6609-4.5973c-7.8203,4.5568-12.8817,9.2864-11.6463,13.5016,3.1439,10.7458,42.5022,2.3042,62.8775-3.662,20.3683-5.9611,58.0683-20.0838,54.9228-30.8268-1.2339-4.2137-8.0497-5.4709-17.0926-5.0868Z"/>
      <path class="cls-1" d="M145.2262,9.5353c0,5.2693-4.2717,9.5397-9.5397,9.5397s-9.5409-4.2704-9.5409-9.5397c0-5.2643,4.2717-9.5353,9.5409-9.5353s9.5397,4.271,9.5397,9.5353Z"/>
      <path class="cls-1" d="M176.348,9.5353c0,5.2693-4.2689,9.5397-9.5367,9.5397-5.2721,0-9.5396-4.2704-9.5396-9.5397,0-5.2643,4.2675-9.5353,9.5396-9.5353,5.2678,0,9.5367,4.271,9.5367,9.5353Z"/>
      <g>
        <path class="cls-1" d="M104.5604,19.075c5.2707,0,9.5397-4.2704,9.5397-9.5397,0-5.2643-4.269-9.5353-9.5397-9.5353-5.2678,0-9.5367,4.271-9.5367,9.5353,0,5.2693,4.2689,9.5397,9.5367,9.5397Z"/>
        <path class="cls-1" d="M117.5567,45.6534c-.0071-5.4038-.7131-23.9856-12.9963-23.9856s-12.9879,18.5784-12.9963,23.9856v12.7579c6.3602-.215,15.1244-1.2742,25.9926-3.5975v-9.1604Z"/>
        <path class="cls-1" d="M148.6828,46.1876v-.5342h0c-.0113-5.4038-.7159-23.9856-12.9963-23.9856-12.3638,0-12.9992,18.8302-12.9992,24.096h0v7.8919c4.518-1.0683,9.3445-2.3319,14.4751-3.8373,4.0821-1.1929,7.9138-2.4111,11.5204-3.6308Z"/>
        <path class="cls-1" d="M166.8113,21.6678c-11.4555,0-12.8407,16.151-12.9864,22.7192,10.5498-3.8232,18.7679-7.6166,24.6116-10.9049-1.5395-6.0462-4.7853-11.8143-11.6252-11.8143Z"/>
      </g>
    </g>
  </g>
</svg>