<?xml version="1.0" encoding="UTF-8"?>
<svg id="_デザイン" data-name="デザイン" xmlns="http://www.w3.org/2000/svg" viewBox="0 0 217.3508 111.0839">
  <defs>
    <style>
      .cls-1 {
        fill: #231815;
      }

      .cls-2 {
        fill: #feef12;
      }
    </style>
  </defs>
  <path class="cls-2" d="M213.8502,71.7581c-12.1374,22.6209-54.6256,39.3258-105.1804,39.3258C48.6531,111.0839,0,87.5476,0,58.5128S48.6531,5.9346,108.6698,5.9346c11.9973,0,23.7365,1.0647,34.8106,2.9933C150.9641,3.8857,160.3438-.773,167.4667.1078c-3.0882,1.9714-6.4041,6.5533-9.6068,11.9075,34.4816,8.8778,59.4768,26.5247,59.4768,46.4975,0,0,.4319,7.3867-3.4865,13.2453Z"/>
  <g>
    <path class="cls-1" d="M32.3755,28.8427v9.3896h-1.156v-8.3538h-1.7871v-1.0358h2.9431Z"/>
    <path class="cls-1" d="M44.9898,28.8427v1.0358h-5.6725l-.0821,2.8369c.3325-.2858.8928-.7754,2.6926-.7754,1.7036,0,3.4313.4415,3.4313,3.1695,0,2.0022-.7386,3.2176-3.7539,3.2176-2.9303,0-3.6817-1.0598-3.7298-2.9544h1.1447c.0113.941.0241,1.93,2.5979,1.93,1.8111,0,2.6091-.4528,2.6091-2.0729,0-1.2749-.2617-2.2766-2.4422-2.2766-1.9314,0-2.312.5122-2.5738,1.0484h-1.0725l.0948-5.1589h6.7564Z"/>
    <path class="cls-1" d="M55.6727,33.7399v5.398h-.9183v-.5235h-2.7521v.607h-.9183v-5.4815h4.5887ZM52.0023,34.6101v3.1454h2.7521v-3.1454h-2.7521ZM52.2528,28.5555h8.0312v4.1118h-8.0312v-4.1118ZM53.2064,31.7858h6.1367v-2.3601h-6.1367v2.3601ZM61.4514,33.7399v5.4815h-.9169v-.607h-2.9191v.607h-.8942v-5.4815h4.7302ZM57.6154,34.6101v3.1454h2.9191v-3.1454h-2.9191Z"/>
    <path class="cls-1" d="M73.7558,28.663v10.5697h-1.0131v-.583h-6.7677v.583h-.9891v-10.5697h8.7699ZM65.9863,31.6189h6.7564v-2.0376h-6.7564v2.0376ZM65.9863,34.586h6.7564v-2.097h-6.7564v2.097ZM65.9863,35.4803v2.2271h6.7564v-2.2271h-6.7564Z"/>
    <path class="cls-1" d="M82.0205,37.7314c1.8706-.1669,2.8596-.4641,3.5275-1.1319.9169-.9169,1.0357-2.2753,1.0357-3.0025,0-1.3938-.6905-3.5275-3.6222-3.611-.0241,2.3955-.9169,7.7936-3.5502,7.7936-1.3951,0-2.2285-1.6683-2.2285-3.42,0-2.9558,2.0729-5.3386,5.6117-5.3386,3.3138,0,4.958,2.0262,4.958,4.6467,0,4.5293-3.8133,4.9467-5.3867,5.0655l-.3453-1.0018ZM79.9108,30.8208c-1.7036,1.2508-1.7036,3.3237-1.7036,3.6336,0,.8943.2972,2.2526,1.2268,2.2526.6325,0,1.0258-.6311,1.2635-1.0838.358-.7033,1.1207-2.7776,1.2042-5.5778-.4302.0722-1.2042.191-1.9909.7754Z"/>
    <path class="cls-1" d="M95.0268,29.0323v-.8574h1.0357v.8574h4.3623v.8702h-1.7885c-.1302.6198-.3452,1.1914-.4047,1.3584h2.8724v.8588h-9.2722v2.4309c0,1.4886-.3085,3.444-1.1433,4.6467l-.798-.7032c.7032-.989.965-2.7648.965-3.8487v-3.3845h2.0262c-.0127-.1189-.1557-.8575-.3467-1.3584h-1.8705v-.8702h4.3623ZM96.1219,33.5022v-1.0726h.9778v1.0726h3.5274v.8687h-3.5274v1.3117h3.0265v.8461h-3.0265v1.4291h3.9208v.8943h-9.0925v-.8943h4.1939v-1.4291h-3.0506v-.8461h3.0506v-1.3117h-2.3941c-.3707.5957-.5843.8221-.8348,1.0853l-.7627-.6438c.8349-.8108,1.3471-1.9187,1.5367-2.4663l.9423.1783c-.1075.3339-.191.5603-.3933.9778h1.9059ZM97.2907,31.2609c.1542-.4288.2731-.9056.3452-1.3584h-4.1713c.2151.7386.2746.965.358,1.3584h3.4681Z"/>
    <path class="cls-1" d="M113.6334,39.0431c-2.0248-.7386-3.0266-1.2522-4.4557-2.5625v2.7648h-.9424v-2.7761c-1.3937,1.3456-2.7761,1.9654-4.4684,2.5498l-.5235-.8589c1.0952-.3099,2.7521-.8448,4.2774-2.1324h-4.3142v-.798h5.0287v-.8702h-4.242v-.7626h4.242v-.8349h-4.5278v-.7853h2.8002c-.0708-.2872-.2745-.8829-.3934-1.1447h-2.9077v-.8107h2.0616c-.2377-.5236-.3693-.7627-.7981-1.5126l.965-.3226c.143.2391.4288.7032.8462,1.8352h.8815v-1.8465h.9296v1.8465h1.2282v-1.8465h.9296v1.8465h.8462c.3693-.6198.6664-1.3343.8687-1.8352l.9665.3226c-.167.3566-.5363,1.0357-.8349,1.5126h2.097v.8107h-2.9544c-.1557.5122-.2391.7627-.3693,1.1447h2.8709v.7853h-4.5632v.8349h4.2774v.7626h-4.2774v.8702h5.016v.798h-4.2901c1.347,1.1433,2.4082,1.6202,4.2901,2.1211l-.5603.8942ZM109.8922,31.9768c.0482-.1202.2505-.6678.334-1.1447h-3.1101c.0594.167.3212.965.3934,1.1447h2.3827Z"/>
    <path class="cls-1" d="M121.3972,29.0564v-.8815h.9891v.8815h4.8858v.8588h-9.1986v3.8006c0,2.1932-.549,4.1826-1.2282,5.3867l-.798-.7032c.5363-1.0372,1.0612-2.4903,1.0612-4.7316v-4.6113h4.2887ZM124.9006,33.9068h-.6423v1.3584h2.3941v.8334h-2.3941v1.7291c0,.1301,0,.3452.3452.3452h1.2154c.4642,0,.5009-.2151.525-1.347l.9409.215c-.0481.7033-.1188,1.2268-.215,1.4532-.2137.4896-.75.549-.9297.549h-1.8818c-.549,0-.9183-.1556-.9183-.8108v-2.1337h-1.6329c-.3212,1.4659-1.4291,2.4917-3.1214,3.0874l-.5716-.8702c1.2748-.3693,2.2993-.9296,2.728-2.2172h-2.097v-.8334h2.2526c.0114-.1076.0114-.1557.0114-.3099v-1.0485h-.5957v-.2504c-.8108.5476-1.2395.7273-1.6569.9056l-.4528-.7868c.4174-.1669.8702-.3452,1.6569-.8334-.5122-.4414-.6438-.549-1.1674-.8702l.6552-.5362c.5009.3098.965.6791,1.2267.9296.7273-.549.9183-.7867,1.1688-1.1207h-2.67v-.7739h4.1359c.2023.2858.3919.5476.7626.9409.1302-.1188.5236-.5363.9282-1.1079l.7033.4287c-.3212.4769-.5476.7514-1.0485,1.2268.2504.2151.3693.3226.5363.4415.0962-.0948.7272-.7033,1.18-1.3697l.7273.4641c-.3693.5363-.6678.8575-1.2395,1.3711.7386.4754,1.2508.6424,1.6329.7626l-.4415.8448c-.4768-.2024-1.1673-.5236-2.0503-1.1546v.4881ZM124.4719,33.0961c-.8815-.7273-1.3824-1.3584-1.7149-1.7999-.2391.3467-.6565.9537-1.705,1.7999h3.4199ZM121.8274,35.2652h1.5126v-1.3584h-1.5126v1.3584Z"/>
    <path class="cls-1" d="M139.8623,39.0063c-2.5497-.7499-3.7651-1.6555-4.5632-2.4309v2.6219h-.8829v-2.6332c-.5716.5363-1.9781,1.7277-4.576,2.4903l-.4527-.9169c1.6696-.3693,3.1709-.9536,4.2901-1.9073h-4.3368v-.8108h5.0754v-.6424h-3.2162v-1.6215h-1.8592v-.774h1.8592v-.6438h.8815v.6438h2.3347v-.6438h.8829v.6438h2.3474v-.6438h.8929v.6438h1.8238v.774h-1.8238v1.6215h-3.2403v.6424h5.0641v.8108h-4.3382c1.347,1.0485,2.4323,1.4546,4.3029,1.8592l-.4656.9169ZM138.8266,31.8693c-.2151-.191-.4528-.3934-.8348-.6792-5.0401.3325-5.5169.3693-8.1388.3693l-.0595-.7867c.3212,0,1.9187-.0127,2.2753-.024.4415-.5717.4896-.6679.6084-.8943h-3.2897v-.8221h4.982v-.8221h.9891v.8221h4.9212v.8221h-2.7295c.2391.1316,1.3117.7995,2.0503,1.4546l-.774.5603ZM134.4162,33.1555h-2.3347v.8829h2.3347v-.8829ZM137.2645,29.8544h-3.4072c-.4655.6325-.5122.7032-.6679.8943.2024,0,3.5388-.1076,3.9916-.1189-.3212-.2023-.3806-.2391-.6197-.3934l.7032-.382ZM137.6465,33.1555h-2.3474v.8829h2.3474v-.8829Z"/>
    <path class="cls-1" d="M144.6222,30.4515v-2.2653h.965v2.2653h1.1561v.9282h-1.1561v2.7054c.7146-.2136.9056-.2971,1.2282-.4287l.0948.9296c-.3339.1429-.7032.2858-1.323.4768v4.1586h-.965v-3.8727c-1.0725.2858-1.5847.4046-2.121.5235l-.1783-.9891c.4288-.0707,1.0485-.1782,2.2993-.5235v-2.9799h-.9183c-.0948.6198-.273,1.4659-.607,2.1338l-.774-.5476c.5476-1.1928.7019-2.7295.7259-4.1119l.8943.0481c-.0128.3807-.0354.7146-.1189,1.5494h.798ZM146.7079,38.3639c2.5738-1.6809,4.0637-4.5292,4.6113-7.5671h-1.0004c-.5249,2.7648-2.3007,5.2424-3.6831,6.1253l-.6438-.7513c1.7645-1.2749,2.9559-3.253,3.3846-5.374h-1.0358c-.2631.6791-.74,1.7276-1.4192,2.5257l-.7739-.6665c.4174-.4655,1.4064-1.5621,1.93-4.4811l.989.0594c-.0707.4047-.1783.9183-.416,1.6809h4.6227c.0481,3.8728-.2137,7.4002-.5236,8.3058-.0962.2618-.3466,1.0004-1.4545,1.0004h-1.6796l-.167-.9891,1.6555.0114c.2392,0,.5363,0,.6806-.2859.4882-1.0131.5476-5.7546.5717-7.161h-.1429c-.4896,2.3346-1.3471,5.9456-4.8264,8.3411l-.6792-.774Z"/>
    <path class="cls-1" d="M166.3163,29.1526v.7499c-.2505,2.3007-.8108,4.3255-1.8946,6.114.9296,1.1674,1.8465,1.8338,2.312,2.1677l-.5363,1.0018c-.5843-.4415-1.4659-1.1206-2.3714-2.3007-.9183,1.2154-1.9187,1.9555-2.4436,2.3474l-.6424-.8928c.7739-.525,1.6682-1.2282,2.4662-2.3474-.7273-1.1688-1.4064-2.9318-1.6795-5.2552l.9282-.1429c.1316,1.5848.5136,3.1455,1.3357,4.4925,1.1433-2.0389,1.4051-3.993,1.5126-4.9693h-4.0397v-.7627h-.607v9.8778h-.9424v-2.3106c-.7499.249-2.9431.7499-4.0397.8575l-.1429-.9537c.4061-.0467.5731-.0595.8221-.1076v-7.3634h-.7626v-.9055h5.7914v.7032h4.9339ZM159.7141,29.3549h-2.4309v1.7036h2.4309v-1.7036ZM159.7141,31.9047h-2.4309v1.7163h2.4309v-1.7163ZM157.2832,36.5528c1.6456-.3339,1.8239-.3707,2.4309-.549v-1.5126h-2.4309v2.0616Z"/>
    <path class="cls-1" d="M172.6864,34.1092c-.2858.1556-.5603.2985-1.4546.6551v3.4794c0,.2745,0,.9777-.8687.9777h-1.3952l-.1429-1.0244,1.1079.0113c.1557,0,.3339.0127.3339-.2972v-2.7775c-.965.3467-1.156.3933-1.4899.4896l-.1189-1.0018c.4175-.1189.7386-.2137,1.6088-.5122v-2.8724h-1.5734v-.8928h1.5734v-2.1691h.965v2.1691h1.3471v.8928h-1.3471v2.5271c.6679-.2504,1.0259-.4174,1.3711-.5844l.0835.9297ZM173.5792,38.3512c.6792-.2264,1.7518-.6198,2.8016-1.5848-1.1333-1.4177-1.5253-2.8483-1.6809-3.4553-.2377,1.6555-.5235,3.7298-2.5625,5.9457l-.6792-.7386c1.7277-1.8706,2.4918-3.7652,2.5271-8.9737h-1.5493v-.8928h6.1126c-.1783,1.132-.4641,2.1804-.7981,3.253h1.7758c-.1429,1.5607-.5603,3.2657-1.8706,4.8504.8815.8575,1.7631,1.2749,2.2286,1.4886l-.5971.9777c-.5236-.3212-1.3457-.8221-2.2866-1.763-1.1093,1.0484-2.2894,1.5253-2.8851,1.763l-.5363-.8702ZM174.939,29.5445c-.0127.6438-.0127.716-.024.907.2023,2.4776,1.1079,4.3482,2.1323,5.6358,1.132-1.3584,1.323-2.6814,1.4065-3.2884h-1.9541c.4768-1.2282.7627-2.4917.9056-3.2544h-2.4663Z"/>
    <path class="cls-1" d="M183.5844,29.2587c-.0835.5731-.2264,1.5621-.2264,3.0153,0,1.8111.1429,3.7298.7867,4.7542.1188.2038.416.4174.798.4174.8929,0,1.5607-1.4064,2.0857-2.7888l.8815.573c-.7273,1.9413-1.6923,3.3605-3.0747,3.3605-2.3361,0-2.5865-4.1953-2.5865-6.1734,0-1.2268.0962-2.4663.1669-3.277l1.1688.1188ZM191.3411,37.3381c.0128-.2731.0241-.5476.0241-.9296,0-4.0397-1.1673-5.2905-2.2158-6.4225l.9537-.5235c.7018.6551,2.4535,2.2752,2.4535,6.9941,0,.3226-.0113.5362-.0227.7626l-1.1928.1189Z"/>
    <path class="cls-1" d="M31.7444,46.606v.8575h-4.4457v-.8575h4.4457ZM31.3511,44.901v.8589h-3.6591v-.8589h3.6591ZM31.3511,48.3096v.8462h-3.6591v-.8462h3.6591ZM31.3511,50.0019v.8575h-3.6591v-.8575h3.6591ZM31.3511,51.7182v3.42h-2.7408v.5122h-.9183v-3.9322h3.6591ZM30.4215,52.5163h-1.8112v1.8111h1.8112v-1.8111ZM31.5407,48.4285c1.2763-1.4659,1.705-2.9912,1.9187-3.8968l1.0131.167c-.1189.3933-.2377.8221-.4882,1.4659h4.1939v.9296h-2.4422v2.8723h2.5979v.941h-2.5979v4.7429h-.9777v-4.7429h-2.8596v-.941h2.8596v-2.8723h-1.1674c-.5603,1.1914-.9649,1.7036-1.2281,2.0262l-.8221-.6919Z"/>
    <path class="cls-1" d="M49.8756,54.6132c0,.7033-.2985,1.0485-1.156,1.0485h-2.288l-.1797-1.0244,2.2526.0127c.2505,0,.3693-.0835.3693-.4174v-8.211h-8.4727v-.9763h11.0352v.9763h-1.5607v8.5916ZM46.9311,52.5998h-4.5038v.7032h-.9537v-5.8636h5.4575v5.1604ZM45.9548,48.3337h-3.5275v3.3845h3.5275v-3.3845Z"/>
    <path class="cls-1" d="M58.4021,44.8897c-.0608.3212-.1075.6311-.2391,1.2395h5.0769v.989h-5.3514c-.2377.774-.4528,1.132-.6792,1.514.334-.2264.8702-.5971,1.7885-.5971.6198,0,1.5253.1557,1.8465,1.4659,1.1447-.4641,2.2173-.8221,3.0026-1.0838l.4174,1.0371c-.8929.2377-1.9894.5363-3.2643,1.0244.0467.4882.0594,1.0132.0594,1.3697,0,.4528-.0127.74-.0368.9778h-1.0598c.0354-.334.0595-.5363.0595-1.0485,0-.2618-.0114-.6198-.0241-.8702-.607.2985-2.3955,1.1673-2.3955,2.2045,0,1.1206,1.4418,1.1206,2.7054,1.1206.5249,0,1.6569-.024,3.1228-.1669l.0226,1.0371c-.4754.0354-1.3456.0948-2.9063.0948-1.3357,0-4.0284,0-4.0284-2.0503,0-1.1786,1.132-2.1563,3.3605-3.2161-.1075-.6198-.4046-.9778-1.0484-.9778-.7033,0-1.5607.3934-2.4437,1.323-.798,1.1079-.8815,1.2268-1.6795,2.097l-.798-.7146c1.7036-1.5494,2.4903-3.4567,2.8468-4.5406h-2.5256v-.989h2.7888c.1429-.6792.1543-.9891.1783-1.3103l1.2041.0708Z"/>
    <path class="cls-1" d="M77.3653,45.5816v.7499c-.2504,2.3007-.8107,4.3255-1.8946,6.114.9296,1.1674,1.8465,1.8352,2.312,2.1677l-.5362,1.0018c-.5844-.4414-1.4659-1.1206-2.3715-2.3007-.9183,1.2155-1.9187,1.9555-2.4436,2.3474l-.6424-.8928c.774-.525,1.6682-1.2282,2.4663-2.3474-.7273-1.1688-1.4065-2.9318-1.6796-5.2552l.9282-.1429c.1316,1.5848.5136,3.1455,1.3357,4.4925,1.1433-2.0389,1.4051-3.993,1.5126-4.9693h-4.0397v-.7627h-.607v9.8778h-.9423v-2.3106c-.75.249-2.9431.7499-4.0397.8575l-.1429-.9537c.406-.0467.573-.0594.822-.1076v-7.3634h-.7626v-.9055h5.7914v.7032h4.9339ZM70.7632,45.7839h-2.4309v1.7036h2.4309v-1.7036ZM70.7632,48.3337h-2.4309v1.7163h2.4309v-1.7163ZM68.3323,52.9818c1.6456-.3339,1.8238-.3707,2.4309-.549v-1.5126h-2.4309v2.0616Z"/>
    <path class="cls-1" d="M82.0545,44.9251c-.6665,1.3951-1.739,2.6219-2.7281,3.2657l-.3933-.9537c.8334-.5235,1.7758-1.5961,2.2752-2.6927l.8462.3807ZM78.9685,50.657c1.5493-1.1079,2.3474-2.9544,2.5497-3.4072l.8235.3693c-.1443.3566-.4061,1.0131-1.1093,2.0376v6.005h-.965v-4.7783c-.4287.4655-.6905.6551-.9296.8348l-.3693-1.0612ZM89.9202,50.6103h-1.3584v.8575h1.6202v.8461h-1.6202v2.3588c0,.4768-.0594.9777-.9536.9777h-1.5735l-.1542-.9891,1.3584.0114c.2617,0,.3452-.0595.3452-.3693v-1.9895h-5.5763v-.8461h5.5763v-.8575h-5.1957v-.8107h7.5318v.8107ZM89.3599,49.061h-6.3999v-4.0878h6.3999v4.0878ZM83.7595,52.4922c.5603.5717,1.0004,1.1079,1.4291,1.7645l-.798.5829c-.2859-.4528-.8575-1.2508-1.3938-1.8111l.7627-.5363ZM88.4302,45.7953h-4.5632v.8702h4.5632v-.8702ZM88.4302,47.3559h-4.5632v.883h4.5632v-.883Z"/>
    <path class="cls-1" d="M94.8598,45.0567c0,.0948-.1316,5.2438-.1316,6.2328,0,1.4178.0481,2.871,2.4309,2.871,2.9799,0,3.4327-2.2045,3.7666-3.8841l1.0725.2858c-.2745,1.4291-.8829,4.6114-4.7669,4.6114-1.108,0-2.4904-.2618-3.1455-1.4532-.4542-.8221-.4655-2.0616-.4655-3.4921,0-.8221.0722-4.433.0481-5.1716h1.1914Z"/>
    <path class="cls-1" d="M114.7314,46.606c-.3821-.024-.7514-.0481-1.2282-.0481-.6551,0-.8334.0594-1.1079.1429-2.2639.7386-4.4571,2.67-4.4571,4.7189,0,1.4899,1.2041,2.2413,3.2417,2.503,1.0725.143,1.9186.1189,2.4422.1076l-.1656,1.1433c-2.5144-.0481-3.9095-.358-5.0528-.9764-.9537-.5249-1.5734-1.6088-1.5734-2.67,0-2.1691,1.763-3.8614,3.6576-4.9212-2.3474.1076-3.4793.2024-5.9937.4047l-.0594-1.1079c.989,0,6.3998-.2986,7.6025-.3212.3339-.0127,2.4309-.0608,2.67-.0722l.0241,1.0966Z"/>
    <path class="cls-1" d="M120.1945,44.9845h1.0485v1.5027h2.9558v.989h-2.9558v1.6315c.3933-.0708,1.0131-.2024,1.9555-.2024.6791,0,1.9186.0962,2.7648.7514.6664.5235,1.1433,1.4531,1.1433,2.4662,0,3.1228-3.802,3.0634-4.8746,3.0393l-.2023-.9777c1.5621.0127,3.9803.0127,3.9803-2.1691,0-2.0842-2.097-2.1918-2.895-2.1918-.3934,0-1.2042.0241-1.872.2505v3.6704c0,.416,0,1.1786-1.3697,1.1786-1.4546,0-2.7054-.8702-2.7054-2.2399,0-1.3583,1.0726-2.6332,3.0266-3.3124v-1.8946h-2.8837v-.989h2.8837v-1.5027ZM120.1945,50.3712c-1.6442.6551-1.9894,1.7517-1.9894,2.2172,0,.8688.7032,1.3697,1.5366,1.3697.2632,0,.4528-.0354.4528-.3693v-3.2176ZM125.0336,44.9378c1.0117.7499,1.9782,1.8946,2.5979,3.2289l-.9777.5476c-.6552-1.3216-1.1674-2.0375-2.4069-3.1454l.7867-.6311Z"/>
    <path class="cls-1" d="M132.523,45.1161c-.382,1.514-.5009,2.67-.5476,3.2289.6792-1.3937,1.8706-2.3347,3.4072-2.3347,1.7404,0,3.0634,1.4772,3.0634,4.2661,0,3.6704-2.0743,4.9453-6.5781,4.9453l-.2024-1.0131c3.3832.024,5.6952-.4769,5.6952-3.8728,0-.5843,0-3.3732-2.0969-3.3732-1.6683,0-2.6814,1.8479-2.9431,2.3601-.2392.4641-.4175.965-.4175,1.4772,0,.1316.1076,1.2523.1189,1.3952l-1.0598.1542c-.0481-.3806-.0835-.8334-.0835-1.5847,0-.5604,0-2.8243.5235-5.7674l1.1207.1189Z"/>
    <path class="cls-1" d="M144.0166,55.2924c-.8461-1.2749-1.5847-2.0488-1.9781-2.4662l.9056-.6679c.7754.716,1.6215,1.7163,2.121,2.3955l-1.0485.7386Z"/>
    <path class="cls-1" d="M154.118,45.0085c-.0113.3693-.0113.7868-.0113,1.4659,0,1.3952.024,1.7871.2504,2.2767.6551-.2023,1.5848-.5009,4.3255-.9891l.1896,1.1193c-1.0951.1202-7.7214.9055-7.7214,3.635,0,1.3824,1.2282,1.6201,4.2661,1.6201.7032,0,2.2045-.0113,3.826-.1783l.0114,1.0966c-1.2042.0708-2.6219.1075-3.8374.1075-2.0729,0-2.9431-.0834-3.884-.4655-.9664-.3806-1.4787-1.2154-1.4787-2.0375,0-2.2045,2.5385-3.2289,3.3365-3.5629-.3934-.8702-.44-1.4772-.44-4.0878h1.1673ZM157.5139,47.0461c-.3099-1.1914-.583-1.6555-.7386-1.93l.8107-.2264c.3453.5363.6665,1.323.7981,1.8946l-.8702.2618ZM159.0166,46.606c-.2151-.7867-.3821-1.1914-.7401-1.8352l.8221-.2391c.2745.4301.6566,1.2763.7995,1.7998l-.8815.2745Z"/>
    <path class="cls-1" d="M166.3276,45.1996c-.4528.965-1.6456,4.3976-1.7644,4.7429.3339-.2618.8702-.7033,1.8352-.7033,1.954,0,1.954,1.8947,1.954,2.8002v.4656c0,.6791,0,1.596,1.0725,1.596.6438,0,1.7645-.1188,2.0503-3.9081l1.0372.2858c-.2038,2.0376-.5363,4.6708-3.1341,4.6708-1.0613,0-1.7518-.5957-2.0022-1.405-.0722-.2505-.1075-.4769-.1075-1.3117v-.3212c0-.9056-.0482-1.872-1.0839-1.872-.8108,0-1.7758.6325-2.3601,1.9428-.2264.5249-.4769,1.4658-.8943,3.0039l-1.1433-.3339c.4641-1.132,2.097-6.3164,2.455-7.3649.3565-1.0725.607-1.8111.8221-2.5497l1.2635.2618Z"/>
    <path class="cls-1" d="M178.1071,44.9618c-.0241.0708-.2618,1.3584-.2986,1.5367h2.6347v.989h-2.8129c-.2264,1.0966-.941,3.4554-1.1674,4.1232-.3693,1.0485-.74,1.7871-.9664,2.2767l-1.0357-.4896c1.2508-2.1323,1.9894-5.4221,2.0969-5.9103h-2.0856v-.989h2.2639c.0835-.5363.1316-.9891.191-1.5848l1.1801.0481ZM184.8635,47.4635c-.3693-.0241-.5603-.0354-.965-.0354-.8943,0-1.2876.0594-1.5253.0948l.1316,3.802c1.2154.6311,1.8465,1.0725,2.6332,1.7871l-.6551.965c-.7273-.7981-1.0612-1.0131-1.9909-1.6201v.3452c0,.8108,0,2.4549-2.4195,2.4549-2.3828,0-2.7762-1.4772-2.7762-2.1563,0-1.4306,1.3343-2.2413,2.7889-2.2413.5603,0,1.0966.0835,1.4065.1316l-.1911-4.3737c.4882-.0834,1.3938-.2617,3.5629-.2617v1.1079ZM181.4917,51.98c-.3227-.0948-.7514-.2151-1.3358-.2151-1.1319,0-1.8352.5363-1.8352,1.323,0,1.1928,1.49,1.1928,1.7051,1.1928,1.0966,0,1.4659-.4655,1.4659-1.4305v-.8702Z"/>
    <path class="cls-1" d="M32.2807,61.8889v-.8574h1.0357v.8574h4.3623v.8702h-1.7885c-.1301.6198-.3452,1.1914-.4046,1.3584h2.8723v.8588h-9.2722v2.4309c0,1.4886-.3098,3.444-1.1432,4.6467l-.7981-.7032c.7033-.989.965-2.7648.965-3.8487v-3.3845h2.0262c-.0127-.1189-.1556-.8575-.3466-1.3584h-1.8706v-.8702h4.3623ZM33.3759,66.3588v-1.0726h.9777v1.0726h3.5275v.8687h-3.5275v1.3117h3.0266v.8461h-3.0266v1.4291h3.9208v.8943h-9.0924v-.8943h4.1939v-1.4291h-3.0507v-.8461h3.0507v-1.3117h-2.3941c-.3707.5957-.5844.8221-.8348,1.0853l-.7627-.6438c.8348-.8108,1.347-1.9187,1.5366-2.4663l.9424.1783c-.1075.334-.191.5603-.3934.9778h1.906ZM34.5446,64.1175c.1543-.4288.2731-.9056.3453-1.3584h-4.1713c.2151.7386.2745.965.358,1.3584h3.468Z"/>
    <path class="cls-1" d="M50.2916,71.8997c-2.0248-.7386-3.0266-1.2522-4.4557-2.5625v2.7648h-.9423v-2.7761c-1.3937,1.3456-2.7762,1.9654-4.4684,2.5498l-.5236-.8589c1.0952-.3085,2.7521-.8447,4.2774-2.1324h-4.3142v-.798h5.0288v-.8702h-4.242v-.7626h4.242v-.8349h-4.5279v-.7853h2.8002c-.0707-.2872-.2745-.8829-.3933-1.1447h-2.9078v-.8107h2.0616c-.2377-.5236-.3693-.7627-.798-1.5126l.965-.3226c.1429.2391.4287.7032.8461,1.8352h.8816v-1.8465h.9296v1.8465h1.2282v-1.8465h.9296v1.8465h.8461c.3693-.6198.6665-1.3343.8688-1.8352l.9664.3226c-.167.3566-.5363,1.0357-.8348,1.5126h2.0969v.8107h-2.9544c-.1556.5123-.2391.7627-.3693,1.1447h2.871v.7853h-4.5633v.8349h4.2774v.7626h-4.2774v.8702h5.016v.798h-4.2901c1.347,1.1433,2.4083,1.6202,4.2901,2.1211l-.5603.8942ZM46.5505,64.8334c.0481-.1202.2504-.6678.3339-1.1447h-3.11c.0594.167.3212.965.3933,1.1447h2.3828Z"/>
    <path class="cls-1" d="M57.4598,61.913v-.8815h.989v.8815h4.8859v.8589h-9.1986v3.8005c0,2.1932-.549,4.1826-1.2282,5.3867l-.7981-.7032c.5363-1.0372,1.0613-2.4903,1.0613-4.7316v-4.6113h4.2887ZM60.9632,66.7634h-.6424v1.3584h2.3941v.8334h-2.3941v1.7291c0,.1301,0,.3452.3453.3452h1.2154c.4641,0,.5009-.2151.5249-1.347l.941.2151c-.0481.7032-.1189,1.2267-.2151,1.4531-.2136.4896-.7499.549-.9296.549h-1.8819c-.549,0-.9183-.1556-.9183-.8108v-2.1337h-1.6328c-.3212,1.4659-1.4292,2.4917-3.1214,3.0874l-.5717-.8702c1.2749-.3693,2.2993-.9296,2.7281-2.2172h-2.097v-.8334h2.2526c.0113-.1075.0113-.1557.0113-.3099v-1.0485h-.5957v-.2504c-.8107.5476-1.2395.7273-1.6569.9056l-.4528-.7868c.4174-.1669.8702-.3452,1.6569-.8334-.5122-.4414-.6438-.549-1.1673-.8702l.6551-.5362c.5009.3098.965.6792,1.2268.9296.7273-.549.9183-.7867,1.1687-1.1206h-2.67v-.774h4.1359c.2024.2858.392.5476.7627.9409.1302-.1188.5235-.5362.9282-1.1079l.7032.4287c-.3212.4769-.5476.7514-1.0485,1.2268.2505.2151.3694.3226.5363.4415.0962-.0948.7273-.7033,1.1801-1.3697l.7273.4641c-.3693.5363-.6679.8575-1.2395,1.3711.7386.4754,1.2508.6424,1.6328.7626l-.4414.8448c-.4769-.2024-1.1674-.5236-2.0503-1.1546v.4881ZM60.5345,65.9527c-.8815-.7273-1.3824-1.3584-1.715-1.7999-.2391.3467-.6565.9537-1.705,1.7999h3.42ZM57.8899,68.1218h1.5126v-1.3584h-1.5126v1.3584Z"/>
    <path class="cls-1" d="M75.3292,71.8629c-2.5497-.7499-3.7652-1.6555-4.5632-2.4309v2.6219h-.8829v-2.6332c-.5717.5363-1.9781,1.7277-4.576,2.4903l-.4528-.9169c1.6697-.3693,3.1709-.9536,4.2902-1.9073h-4.3369v-.8108h5.0755v-.6424h-3.2162v-1.6215h-1.8593v-.774h1.8593v-.6438h.8815v.6438h2.3347v-.6438h.8829v.6438h2.3474v-.6438h.8928v.6438h1.8239v.774h-1.8239v1.6215h-3.2402v.6424h5.0641v.8108h-4.3382c1.347,1.0485,2.4323,1.4546,4.3028,1.8592l-.4655.9169ZM74.2935,64.7259c-.2151-.191-.4528-.3934-.8349-.6792-5.04.3325-5.5169.3693-8.1388.3693l-.0594-.7867c.3212,0,1.9187-.0127,2.2753-.024.4414-.5717.4895-.6679.6084-.8943h-3.2898v-.8221h4.9821v-.8221h.989v.8221h4.9212v.8221h-2.7294c.2391.1316,1.3116.7995,2.0502,1.4546l-.7739.5603ZM69.8831,66.0121h-2.3347v.8815h2.3347v-.8815ZM72.7314,62.711h-3.4072c-.4656.6325-.5123.7032-.6679.8943.2023,0,3.5388-.1076,3.9916-.1189-.3212-.2023-.3806-.2391-.6198-.3934l.7033-.382ZM73.1134,66.0121h-2.3474v.8815h2.3474v-.8815Z"/>
    <path class="cls-1" d="M79.4948,63.3081v-2.2653h.965v2.2653h1.156v.9282h-1.156v2.7054c.7146-.2136.9056-.2971,1.2282-.4287l.0948.9296c-.3339.1429-.7032.2858-1.323.4768v4.1586h-.965v-3.8727c-1.0725.2858-1.5847.4046-2.121.5235l-.1783-.989c.4288-.0708,1.0485-.1783,2.2993-.5236v-2.9799h-.9183c-.0948.6198-.2731,1.4659-.607,2.1338l-.774-.5476c.5476-1.1928.7018-2.7295.7259-4.1119l.8942.0481c-.0127.3807-.0353.7146-.1188,1.5494h.798ZM81.5805,71.2205c2.5738-1.6809,4.0637-4.5292,4.6113-7.5671h-1.0004c-.5249,2.7648-2.3007,5.2424-3.6831,6.1253l-.6438-.7513c1.7644-1.2749,2.9558-3.253,3.3846-5.374h-1.0358c-.2632.6791-.74,1.7276-1.4192,2.5257l-.774-.6665c.4175-.4655,1.4065-1.5621,1.93-4.4811l.9891.0594c-.0708.4047-.1783.9183-.416,1.681h4.6226c.0482,3.8727-.2136,7.4002-.5235,8.3057-.0962.2618-.3467,1.0004-1.4546,1.0004h-1.6795l-.167-.9891,1.6555.0114c.2391,0,.5363,0,.6806-.2859.4882-1.0131.5476-5.7546.5717-7.161h-.143c-.4895,2.3346-1.347,5.9456-4.8264,8.3411l-.6791-.774Z"/>
    <path class="cls-1" d="M100.4375,63.0336c-.382-.024-.7513-.0481-1.2281-.0481-.6552,0-.8335.0594-1.108.1429-2.2639.7386-4.4571,2.67-4.4571,4.7189,0,1.4899,1.2042,2.2413,3.2417,2.503,1.0725.1429,1.9187.1189,2.4422.1076l-.1655,1.1433c-2.5144-.0482-3.9096-.358-5.0528-.9764-.9537-.5249-1.5735-1.6088-1.5735-2.67,0-2.1691,1.7631-3.8614,3.6577-4.9212-2.3474.1076-3.4794.2024-5.9937.4047l-.0595-1.1079c.9891,0,6.3999-.2986,7.6026-.3212.3339-.0127,2.4309-.0608,2.67-.0722l.024,1.0966ZM98.4,66.5851c-.1203-.2391-.4896-1.0131-1.0372-1.7403l.7146-.3821c.5844.716.8815,1.2989,1.0725,1.6923l-.7499.4301ZM99.8291,65.8932c-.4174-.7513-.5844-1.0598-1.0372-1.6328l.7401-.3806c.2971.3693.8221,1.0838,1.0484,1.5847l-.7513.4287Z"/>
    <path class="cls-1" d="M105.3771,61.4361h1.0839l-.0835,1.6923h3.826v.9891h-3.8854l-.1076,2.2413h1.3584c1.7758,0,2.288-.358,2.5865-.5604l.3934.9169c-.2986.2024-.8815.6085-3.0634.6085h-1.3102c0,2.7167,0,3.2883,2.5143,3.2883,1.3824,0,1.8833-.2137,2.2173-.44.5235-.3467.9409-1.0259.9409-1.8833,0-.2745,0-1.132-.7386-2.3121l.9296-.4414c.2618.3933.8929,1.3116.8929,2.694,0,3.3719-3.1342,3.3719-4.1586,3.3719-3.5756,0-3.6463-1.323-3.6463-4.2774h-2.2526v-.965h2.288l.0962-2.2413h-2.1932v-.9891h2.2286l.0834-1.6923Z"/>
    <path class="cls-1" d="M126.01,70.8866l-.1896.9169h-5.9584c-1.9541,0-2.6941-1.0004-2.9558-1.3456-.7627.8688-.8221.9409-1.6683,1.6795l-.4768-1.0131c.2151-.1302.8942-.5716,1.4178-1.1319v-3.3606h-1.2862v-.9763h2.2285v3.6096c.2377,1.4545,2.4069,1.6215,2.7521,1.6215h6.1367ZM116.776,63.8076c-.2151-.3212-.6325-.965-1.705-2.0135l.6551-.5957c.5603.4769,1.2522,1.1801,1.8239,1.9781l-.774.6311ZM122.2575,61.0315v.7513h3.5982v.8094h-1.7998c-.1188.406-.2136.6791-.3806,1.0852h1.739v5.8268c0,.5716-.2618.9169-.8815.9169h-1.2636l-.1302-.9056,1.1079.0127c.1557,0,.2618-.024.2618-.2985v-4.7783h-2.2993v.8943h1.93v.7386h-1.93v.822h1.5253v2.4663h-3.9081v-2.4663h1.5126v-.822h-1.9427v-.7386h1.9427v-.8943h-2.312v5.8155h-.9056v-6.5895h1.6442c-.0467-.191-.2618-.989-.2972-1.0852h-1.7403v-.8094h3.5628v-.7513h.9664ZM122.8405,63.6774c.1316-.3099.3098-.9296.3466-1.0852h-2.8242c.1429.5603.1542.6197.2618,1.0852h2.2158ZM122.9126,67.6209h-2.2766v1.0258h2.2766v-1.0258Z"/>
    <path class="cls-1" d="M129.7469,61.0428h.965v3.1582l2.561-.4175.0609.9778-2.6219.4287v3.5756c0,.2618.0594.3452.3565.3452h.74c.5123,0,.5957-1.3583.6184-1.8111l.9664.2264c-.191,1.5607-.4174,2.5016-1.3952,2.5016h-1.3937c-.5603,0-.8574-.2971-.8574-.8688v-3.8132l-1.1688.1896-.0594-.965,1.2282-.2024v-3.3251ZM139.3869,61.5564c0,2.9063,0,8.2577-.6551,9.6641-.1429.2972-.4655.8462-1.5253.8462h-1.7291l-.2136-1.0131,1.7757.0113c.1189,0,.5122.0127.7146-.3212.631-1.0258.631-6.8639.631-8.2223h-2.2512c-.0481,5.207-.8701,7.5672-4.1712,9.5806l-.6905-.8588c3.4793-1.8579,3.86-4.5392,3.86-8.7218h-2.1324v-.965h6.3871Z"/>
    <path class="cls-1" d="M144.9816,61.6512c-.3693,1.7517-.5122,3.5275-.5122,5.3499,0,1.5975.0948,3.0988.4401,4.4685l-1.1079.1316c-.191-.774-.4047-1.6683-.4047-4.3737,0-3.2048.3212-4.9452.4528-5.6838l1.1319.1075ZM148.0436,66.9063c-.2023.2859-.5716.8221-.5716,1.5607,0,1.0372.7272,1.3824,2.6459,1.3824.5957,0,1.6442-.0113,2.6573-.1188v1.0725c-.4287.0354-1.0372.0948-2.1819.0948-1.5012,0-4.1585,0-4.1585-2.3474,0-.9537.4528-1.7163.6551-2.0616l.9537.4174ZM152.5488,62.4733v1.0244h-5.7688v-1.0244h5.7688Z"/>
    <path class="cls-1" d="M158.476,65.6555v3.4553c0,.4415.716,1.7517,2.9799,1.7517h6.0178l-.1669.9169h-5.8509c-1.9073,0-2.67-.6664-3.2062-1.2748-.1897.2264-.8221.989-1.5607,1.5734l-.4882-1.0131c.3099-.191.9169-.6311,1.3102-1.1079v-3.3605h-1.18v-.941h2.145ZM158.0954,63.7128c-.3339-.5009-1.0371-1.3711-1.6923-1.8946l.6679-.5957c.774.6197,1.2508,1.156,1.7743,1.8592l-.7499.6311ZM167.3068,69.5155h-3.7893v1.0259h-.9183v-1.0259h-3.6223v-.7499h3.6223v-.7273h-3.1341v-3.6591h3.1341v-.7258h-2.3233v-.7386h2.3233v-.8108h-2.6092v1.2989h-.9183v-2.0856h8.0327v2.0856h-.9423v-1.2989h-2.6446v.8108h2.3587v.7386h-2.3587v.7258h3.1695v3.6591h-3.1695v.7273h3.7893v.7499ZM162.5992,65.0471h-2.2512v.8221h2.2512v-.8221ZM162.5992,66.5017h-2.2512v.8334h2.2512v-.8334ZM165.7814,65.0471h-2.2639v.8221h2.2639v-.8221ZM165.7814,66.5017h-2.2639v.8334h2.2639v-.8334Z"/>
    <path class="cls-1" d="M173.3189,62.3898h1.0131c.1061-.2618.2023-.5122.3919-1.3343l.9297.1189c-.0948.3693-.2972.9169-.416,1.2154h1.4177v3.6945c.1189-.0241.1783-.0354.3694-.0963v.334h3.7298v.8348c-.3099,1.4178-.7033,2.1918-1.2155,2.9431.6905.7145,1.3103,1.0131,1.7164,1.2268l-.4896.8235c-.4401-.2632-.9891-.5844-1.763-1.3825-.6438.7146-1.2395,1.108-1.6442,1.3825l-.5009-.7995c.3933-.2504.9409-.5957,1.5847-1.2862-.798-1.1093-.9536-1.9908-1.0484-2.479l.7739-.2151c.0835.3821.2392,1.1447.7995,2.0149.6424-1.0017.8093-1.8592.8815-2.2285h-2.837v-.4287l-.3566.0948v4.4443c0,.3934-.0962.8348-.822.8348h-1.1207l-.1429-.9536.9056.0127c.191,0,.382,0,.382-.3099v-3.8501c-.2264.0482-.382.0835-.6197.1316v3.3252h-.6438v-3.1936l-.4882.0948c-.024,1.2268-.167,3.1101-.9424,4.7429l-.7145-.6791c.7627-1.49.8221-2.813.8575-3.9095-.1189.024-.167.0367-.3934.0834l-.0948-.6905c-.1075.0835-.2504.1911-.6551.4415v3.7525c0,.3933,0,1.0017-.9778,1.0017h-.9409l-.1075-1.0131.7386.0114c.2617,0,.358-.0354.358-.3099v-2.9431c-.5604.2985-.7981.382-1.0613.4768l-.1542-.989c.2745-.0948.6198-.2137,1.2155-.5122v-2.7054h-1.0966v-.8575h1.0966v-2.2045h.9296v2.2045h.774v.8575h-.774v2.2413c.3806-.1911.5362-.2873.7499-.4175v.8094c.1075-.0226.2391-.0467.4061-.0707v-4.2902ZM174.1169,66.5484c.774-.1189.8702-.1429,1.7404-.2972v-3.0634h-1.7404v3.3606ZM174.9036,65.8338c-.0834-.5363-.191-1.0131-.5009-1.9427l.6198-.1783c.2151.4882.4882,1.4178.5716,1.9059l-.6905.2151ZM180.0272,61.4729v3.0507c0,.2377.0962.2377.358.2377.1429,0,.2264,0,.2264-1.2749l.7032.2505c0,1.6441-.2858,1.8465-.8108,1.8465h-.5603c-.4768,0-.7499-.0708-.7499-.8221v-2.4663h-.9891c-.024,2.1083-.3933,2.8002-.9423,3.42l-.5476-.7627c.5844-.7754.7145-1.4546.6678-3.4794h2.6446Z"/>
    <path class="cls-1" d="M29.1225,78.5443c-.0835.5731-.2264,1.5621-.2264,3.0153,0,1.8111.1429,3.7298.7867,4.7542.1189.2038.416.4174.7981.4174.8928,0,1.5607-1.4064,2.0856-2.7888l.8815.573c-.7272,1.9413-1.6922,3.3605-3.0747,3.3605-2.336,0-2.5865-4.1953-2.5865-6.1734,0-1.2268.0962-2.4663.167-3.277l1.1687.1188ZM36.8793,86.6237c.0127-.2731.0241-.5476.0241-.9296,0-4.0397-1.1674-5.2905-2.2159-6.4225l.9537-.5235c.7018.6551,2.4535,2.2752,2.4535,6.9941,0,.3226-.0113.5363-.0226.7626l-1.1928.1189Z"/>
    <path class="cls-1" d="M43.7135,77.8651c-.0354.4175-.0835.8108-.1896,1.5735h3.3124v1.0003h-3.4553c-.2986,1.6216-.989,5.3273-2.0743,7.6988l-1.0839-.3693c1.132-2.1932,1.7984-5.7801,2.0489-7.3295h-1.7631v-1.0003h1.8947c.0707-.6438.0948-1.2041.1188-1.6329l1.1914.0594ZM46.0737,84.3725c-.549.7853-.7033,1.0004-.7033,1.4178,0,1.0598,1.132,1.2027,2.7648,1.2027,1.299,0,2.0376-.0707,2.4309-.1061l-.0113,1.0598c-.4542.024-.8235.0481-1.7998.0481-1.7404,0-4.3849,0-4.3849-2.1338,0-.7626.3098-1.2621.8928-2.0134l.8108.5249ZM50.3397,82.0124c-.2745-.0241-.5603-.0354-1.0131-.0354-1.1433,0-2.5865.1429-3.635.5603l-.3212-.9183c1.2041-.4528,2.288-.7145,4.9693-.6792v1.0726Z"/>
    <path class="cls-1" d="M55.7915,77.9133c0,.0948-.1315,5.2438-.1315,6.2328,0,1.4178.0481,2.871,2.4308,2.871,2.9799,0,3.4327-2.2045,3.7666-3.8841l1.0726.2858c-.2745,1.4306-.8829,4.6114-4.767,4.6114-1.1079,0-2.4903-.2618-3.1454-1.4532-.4542-.8221-.4656-2.0616-.4656-3.4921,0-.8221.0722-4.433.0482-5.1716h1.1913Z"/>
    <path class="cls-1" d="M70.4547,79.1287l-.0241-1.2636h1.0485l.0128,1.2636h3.9562v.9537h-3.9449l.0127,1.4885h3.7171v.9296h-3.7171v1.7758c1.3697.5603,2.5498,1.3117,3.6463,2.288l-.7032.9296c-1.0966-1.0372-1.7276-1.5734-2.9318-2.1804v.5362c0,2.121-1.93,2.2286-2.5978,2.2286-1.5734,0-2.6573-.8589-2.6573-2.0376,0-.9296.7627-2.1931,3.0393-2.1931.583,0,.9169.0721,1.1674.1316v-1.4787h-4.4331v-.9296h4.4203v-1.4885h-4.6226v-.9537h4.6113ZM70.4901,84.9314c-.2731-.082-.6552-.2023-1.299-.2023-1.0951,0-1.9894.4528-1.9894,1.3116,0,.8688.965,1.1193,1.6796,1.1193,1.5734,0,1.6088-.8334,1.6088-1.3824v-.8462Z"/>
    <path class="cls-1" d="M84.058,77.7817h1.0839v1.3824h3.3605v.9777h-3.3605v2.5016c.0481.1797.1075.3934.1556.6566.0354.2504.0708.5476.0708.9055,0,3.4907-2.7408,3.8728-4.8505,3.9916l-.3325-1.0131c3.4072-.024,3.9194-1.1319,4.1586-2.2752-.2024.3212-.6198.9296-1.7758.9296-1.4659,0-2.3474-1.1687-2.3474-2.4436,0-1.3584.965-2.4422,2.5144-2.4422.8334,0,1.1319.249,1.3696.44l-.0113-1.2508h-5.9697v-.9777h5.9584l-.0241-1.3824ZM84.1415,83.0849c-.024-.2618-.2037-1.1801-1.3824-1.1801-.7513,0-1.5012.4415-1.5012,1.4659,0,.6551.3693,1.49,1.3937,1.49,1.4418,0,1.4899-1.3471,1.4899-1.3824,0-.0835.0113-.2745,0-.3934Z"/>
    <path class="cls-1" d="M94.407,86.3506c0,.9763-.798,1.7758-1.7758,1.7758-.989,0-1.7757-.7995-1.7757-1.7758,0-.989.7994-1.7757,1.7757-1.7757.965,0,1.7758.7739,1.7758,1.7757ZM91.4512,86.3506c0,.6424.5249,1.1674,1.18,1.1674.6438,0,1.1688-.525,1.1688-1.1674,0-.6678-.5363-1.1801-1.1688-1.1801-.6438,0-1.18.5236-1.18,1.1801Z"/>
  </g>
</svg>