<?xml version="1.0" encoding="UTF-8"?>
<svg id="_レイヤー_1" data-name="レイヤー_1" xmlns="http://www.w3.org/2000/svg" version="1.1" viewBox="0 0 793.3 42.9">
  <!-- Generator: Adobe Illustrator 30.2.1, SVG Export Plug-In . SVG Version: 2.1.1 Build 1)  -->
  <defs>
    <style>
      .st0 {
        fill: #fcc800;
      }

      .st1 {
        isolation: isolate;
      }

      .st2 {
        fill: #231815;
      }

      .st3 {
        fill: #003894;
      }

      .st4 {
        fill: #fff;
      }

      .st5 {
        fill: #e94829;
      }

      .st6 {
        fill: #541b86;
      }

      .st7 {
        fill: #f39800;
      }

      .st8 {
        fill: #b60081;
      }

      .st9 {
        fill: #00a0e9;
      }

      .st10 {
        fill: #f39939;
      }

      .st11 {
        fill: #00a040;
      }

      .st12 {
        fill: #feef12;
      }
    </style>
  </defs>
  <g class="st1">
    <g id="_レイヤー_2">
      <g>
        <g>
          <g>
            <path class="st5" d="M10.7,33.6c-2,.7-3.9,1.2-5.9,1.7l-.5-5.6c.8-.1,1.4-.2,2.9-.5v-7.4h-2.1v-4.9h2.1v-5.9h-2.4v-5h9.7v5h-2.3v5.9h1.8v4.9h-1.8v6.2c1.2-.3,1.8-.5,2.4-.7l.2,4.4c3.1-1.2,4.8-2.5,5.6-3.2h-4.4v-7.9h20.8v7.9h-.5l2.3,1.6c-.9.9-1.2,1.2-3,2.7,1.6.7,2.3,1,3,1.2l-2.5,4.5c-5.8-2.6-8.1-4.9-9.6-6.6v6.5h-5.1v-5.1c-3.5,2.6-6.8,4-8.3,4.6l-2.5-4.2h0ZM38.2,15.5v3.9H14.3v-3.9h23.9ZM37.5,5.5v8.9H15.4V5.5s22.1,0,22.1,0ZM19.9,8.9v2.3h2.1v-2.3h-2.1ZM20.8,23.5v1.9h11v-1.9h-11ZM25.3,8.9v2.3h2.1v-2.3h-2.1ZM28.7,28.5c.6.5,1.4,1.1,3,2.1,1.1-1,1.7-1.5,2.3-2.1h-5.3ZM30.7,8.9v2.3h2.3v-2.3h-2.3Z"/>
            <path class="st12" d="M36,42.7c-.6,0-1.2-.1-1.7-.4-1.6-.7-2.9-1.4-4.1-2-.7,1.3-2.1,2.3-3.8,2.3h-5.1c-1.6,0-3-.9-3.7-2.2-1.2.6-2.2,1-2.8,1.3-2,.8-4.3.1-5.4-1.8l-.7-1.3c-.9.3-1.9.5-2.9.8-1.2.3-2.5,0-3.5-.7-1-.7-1.7-1.8-1.8-3.1L0,30c-.2-2,1.1-3.8,2.9-4.4v-.2c-1.2-.7-2.1-2.1-2.1-3.7v-4.9c0-1,.4-2,1-2.8-.8-.8-1.3-1.9-1.3-3.1v-5C.5,3.7,2.4,1.8,4.7,1.8h8.6c.6-.3,1.3-.5,2-.5h22.1c2.3,0,4.2,1.9,4.2,4.2v7.6c.5.7.7,1.5.7,2.4v3.9c0,1.3-.6,2.5-1.5,3.2v3.9c1,.7,1.6,1.8,1.8,3,0,.8,0,1.6-.5,2.3,0,.1.1.3.2.4.5,1.2.4,2.5-.2,3.5l-2.5,4.5c-.8,1.4-2.2,2.2-3.8,2.2h0Z"/>
          </g>
          <g>
            <path class="st5" d="M40.3,28.7c1-.2,1.8-.3,3.5-.8v-10h-3.1v-5.1h3.1V4.7h5.1v8.1h2v5.1h-2v8.4c.6-.2,1-.4,2.4-.9l.2,4.9c-3.8,2-6.9,3-10.6,4l-.7-5.5h0ZM73,18.1v11.3h-5.2v3.2c0,.9,0,1.1.8,1.1h.7c.9,0,1,0,1.2-3l4.2.8c-.4,5.3-.7,6.7-3.9,6.7h-4.6c-3.3,0-3.3-1.7-3.3-3.3v-5.4h-1.9c-.3,4.1-2.3,7.4-9.6,9.2l-2.3-4.7c4-.6,6.6-1.5,7.2-4.6h-3.2v-11.3h20ZM52.6,6.7h7.6v-2h5.3v2h8.3v4.1h-2.8c-.2.9-.3,1.2-.6,2h4v4h-22.9v-4h3.9c-.3-1.5-.3-1.7-.5-2h-2.4s0-4.1,0-4.1ZM58,21.2v1.4h10v-1.5s-10,0-10,0ZM58,24.9v1.5h10v-1.5h-10ZM60.1,10.8c0,.4.3,1.5.4,2h4.6c.2-.5.3-.9.5-2h-5.6Z"/>
            <path class="st12" d="M51.3,42.9c-1.6,0-3.1-.9-3.8-2.3l-1.6-3.3c-1.2.4-2.4.8-3.8,1.1-1.2.3-2.4,0-3.5-.6-1-.7-1.7-1.8-1.8-3l-.7-5.5c-.3-2.3,1.2-4.3,3.5-4.7h0v-2.5c-1.8-.5-3.1-2.1-3.1-4.1v-5.1c0-2,1.3-3.6,3.1-4.1v-4.1c0-2.3,1.9-4.2,4.2-4.2h5.1c1.5,0,2.9.8,3.6,2h4c.8-1.2,2.1-2,3.6-2h5.3c1.5,0,2.9.8,3.6,2h4.7c2.3,0,4.2,1.9,4.2,4.2v3.9c.4.6.6,1.4.6,2.2v4c0,1.3-.6,2.4-1.4,3.2v8.1c1.1.8,1.8,2.2,1.7,3.7-.3,4.5-.8,10.6-8.2,10.6h-4.6c-1.9,0-4.7-.5-6.3-2.9-1.9,1.4-4.4,2.5-7.5,3.2-.3,0-.7.1-1.1.1h0Z"/>
          </g>
          <g>
            <path class="st2" d="M110.3,14.9v4.3h-24v-4.3h24ZM110.3,22.8v4.3h-24v-4.3h24Z"/>
            <path class="st12" d="M110.3,31.3h-24c-2.3,0-4.2-1.9-4.2-4.2v-4.3c0-.6.1-1.2.4-1.8-.2-.5-.4-1.1-.4-1.8v-4.3c0-2.4,1.9-4.2,4.2-4.2h24c2.3,0,4.2,1.9,4.2,4.2v4.3c0,.6-.1,1.2-.4,1.8.2.5.4,1.1.4,1.8v4.3c0,2.3-1.9,4.2-4.2,4.2Z"/>
          </g>
          <g>
            <path class="st10" d="M132.5,17.9h-1.7v9c.7-.2,1.2-.4,2.3-.8v5c-3.2,1.5-7.7,2.9-10.6,3.7l-.8-5.6c1-.1,1.6-.2,3.9-.7v-10.5h-3.3v-5.1h3.3V4.6h5.2v8.2h2.4v2.5l1.3-.4v-7.2h5v5.9l2.8-.7V4.6h5v7.1l7.9-2c0,4-.2,12.5-.6,14.9-.1.9-.5,3.5-3.4,3.5h-2.6l-1-5.2h1.1c1.1,0,1.5,0,1.5-6.5l-2.9.7v12.7h-5v-11.4l-2.8.7v12.5c0,.4.2.8,1,.8h9c1.1,0,1.6,0,1.8-4l4.9,1.1c-.2,4.4-.7,8.1-4.6,8.1h-12.9c-3.8,0-4-2.5-4-3.9v-13.4l-1.7.5-.3-3h0Z"/>
            <path class="st12" d="M151.4,42h-12.9c-4.1,0-6.9-2-7.9-5.3-3.1,1.1-6,1.9-7.1,2.2-1.2.3-2.4.1-3.4-.6-1-.7-1.7-1.7-1.9-2.9l-.8-5.6c-.3-2.3,1.3-4.5,3.6-4.8,0,0,.2,0,.3,0v-2.8c-1.9-.4-3.3-2.1-3.3-4.1v-5.1c0-2,1.4-3.7,3.3-4.1v-4c0-2.3,1.9-4.2,4.2-4.2h5.2c2,0,3.6,1.4,4.1,3.2h3.2c.5-1.8,2.1-3.2,4.1-3.2h5c2.4,0,4.2,1.9,4.2,4.2v1.6l2.6-.7c1.3-.3,2.6,0,3.6.8,1,.8,1.6,2,1.7,3.3,0,4-.2,12.7-.6,15.5,0,.3-.1.7-.2,1,1.1.8,1.8,2.2,1.8,3.7-.2,3.3-.6,12.2-8.9,12.2h0Z"/>
          </g>
          <g>
            <path class="st10" d="M167.8,32.7c-2.9,1-6.3,2.1-9.1,2.6l-.7-5.6c.9-.1,1.7-.2,3.9-.7v-7.4h-3.1v-4.9h3.1v-5.6h-3.5v-4.9h11.7v3.6h8.1v-5h5v5h4.1c-1.1-1.5-2.5-2.5-3.3-3l3.2-2.4c.5.3,2.6,1.8,4,3.3l-2.8,2.2h3.6v5.1h-8.8v1.4c.3,1.4.6,2.9,1.6,5.2.8-1.1,2.2-3.6,3.1-6l4.3,2c-.7,1.6-2.1,4.6-3.8,6.9l-3.3-2c2.8,5.8,6.1,8.4,7.5,9.4l-2.8,5.3c-3.4-3.4-4.8-5.8-6.7-9.7v7.5c0,1,0,3.5-3.3,3.5h-5.6l-.7-5.2h3.5c.8,0,1.1-.2,1.1-.8V14.8h-8.1v-3.8h-3.1v5.6h2.8v1l3.9-2.2c.9,1,3,3.9,4,6.4l-4.3,2.4c-.7-2.2-2.5-5-3.6-6.3v3.5h-2.8v6.2c1.7-.5,2.3-.7,3.2-1l.2,2.3c3.2-2.4,4.3-3.8,4.9-4.5l2.5,4c-2.9,3.9-7.6,7.2-8.3,7.8l-1.7-3.6h0Z"/>
            <path class="st12" d="M179.9,42.6h-5.6c-1.6,0-3-.9-3.7-2.2-.7.2-1.4.2-2.1,0-1.2-.3-2.3-1.2-2.8-2.3v-.2c-2.2.7-4.3,1.2-6.2,1.6-1.1.2-2.3,0-3.3-.8s-1.6-1.7-1.7-2.9l-.7-5.6c-.1-1.1.2-2.3.9-3.2.6-.8,1.6-1.4,2.6-1.6-1.6-.6-2.7-2.2-2.7-4v-4.9c0-1,.3-1.9.9-2.6-.8-.8-1.3-1.9-1.3-3v-4.9c0-2.4,1.9-4.2,4.2-4.2h11.7c1.7,0,3.2,1,3.9,2.5.2-2.2,2-3.9,4.2-3.9h5c.6,0,1.1.1,1.6.3,1.4-1,3.4-1,4.8,0,1.1.8,3.1,2.2,4.7,3.9.7.7,1.1,1.7,1.2,2.6.5.7.8,1.5.8,2.5v5.1c0,.3,0,.6,0,.9.4,1,.5,2.2,0,3.3-.3.7-1.6,3.9-3.6,6.8,1.2,1.3,2.1,2.1,2.7,2.5,1.6,1.3,2.1,3.5,1.2,5.4l-2.8,5.3c-.6,1.2-1.8,2-3.1,2.2-1.3.2-2.7-.3-3.6-1.2-.2-.2-.4-.4-.6-.6-1.5,2.3-4.1,3.2-6.4,3.2h0Z"/>
          </g>
          <g>
            <path class="st2" d="M213.8,18.8v-9.7h4.4v9.7h9.8v4.3h-9.8v9.7h-4.4v-9.7h-9.8v-4.3h9.8,0Z"/>
            <path class="st12" d="M218.2,37.1h-4.4c-2.4,0-4.2-1.9-4.2-4.2v-5.5h-5.6c-2.4,0-4.2-1.9-4.2-4.2v-4.3c0-2.4,1.9-4.2,4.2-4.2h5.6v-5.5c0-2.4,1.9-4.2,4.2-4.2h4.4c2.4,0,4.2,1.9,4.2,4.2v5.5h5.6c2.4,0,4.2,1.9,4.2,4.2v4.3c0,2.3-1.9,4.2-4.2,4.2h-5.6v5.5c0,2.3-1.9,4.2-4.2,4.2Z"/>
          </g>
          <g>
            <path class="st11" d="M258.8,7v5.3h-15.6v6.6h14.9v5.4h-14.9v10.7h-5.9V7s21.4,0,21.4,0Z"/>
            <path class="st12" d="M243.3,39.2h-5.9c-2.4,0-4.2-1.9-4.2-4.2V7c0-2.4,1.9-4.2,4.2-4.2h21.4c2.4,0,4.2,1.9,4.2,4.2v5.3c0,1.5-.8,2.8-1.9,3.5.8.8,1.3,1.9,1.3,3v5.3c0,2.3-1.9,4.2-4.2,4.2h-10.7v6.4c0,2.3-1.9,4.2-4.2,4.2h0Z"/>
          </g>
          <g>
            <path class="st11" d="M282.9,24.1c0,8.5-1.3,11.1-10.1,11.1s-11.2-.6-11.2-10.2,1.6-11.3,10.7-11.3,10.7,1,10.7,10.3h0ZM272.5,30.3c4.7,0,5-.6,5-6.1s-.9-5.4-5.6-5.4-5,.7-5,5.9.4,5.7,5.6,5.7h0Z"/>
            <path class="st12" d="M272.8,39.5c-8.5,0-15.5-1.1-15.5-14.4s3.6-15.5,14.9-15.5,14.9,2.4,14.9,14.6-.5,8.7-2.7,11.5c-2.9,3.5-7.5,3.9-11.6,3.9h0ZM271.2,26c.5,0,1.1,0,1.3,0h.7c0-.7,0-1.5,0-1.8s0-.9,0-1.2c-.8,0-1.6,0-2,0,0,.6,0,1.2,0,1.6,0,.5,0,1,0,1.4h0Z"/>
          </g>
          <g>
            <path class="st11" d="M292.1,14.1l.2,2.1c1.6-2.4,3.1-2.4,9.8-2.3v5.2c-5.3,0-6,0-6.6.2-1.5.3-3.1,1.2-3.1,3.3v12.4h-5.4V14.1h5.2,0Z"/>
            <path class="st12" d="M292.3,39.2h-5.4c-2.4,0-4.2-1.9-4.2-4.2V14.1c0-2.4,1.9-4.2,4.2-4.2h5.2c.5,0,1.1.1,1.5.3,2.1-.6,4.7-.6,8.2-.5h.2c2.3,0,4.2,1.9,4.2,4.2v5.2c0,1.1-.5,2.2-1.3,3s-1.9,1.3-3,1.2c-3.8,0-5,0-5.4,0v11.6c0,2.3-1.9,4.2-4.2,4.2h0Z"/>
          </g>
          <g>
            <path class="st11" d="M310.3,26c0,3.8.1,4.3,5.6,4.3s4.9-.8,5-2.6h5.4c-.2,6.2-3.4,7.5-10,7.5s-11.3-1.2-11.3-10.2.9-11.3,10.5-11.3,8.6.5,10.2,4.1c.5,1.1.9,2.4.7,8.1h-16ZM321,22.2c-.1-3-.5-3.5-5.5-3.5s-5,1-5.2,3.5h10.6Z"/>
            <path class="st12" d="M316.3,39.5c-10.1,0-15.6-2.3-15.6-14.4s1.1-15.5,14.7-15.5,11.3,0,14.1,6.8c.8,2,1.2,3.9,1,9.9,0,.3,0,.6-.1.8,0,.3,0,.6,0,.9-.4,11.6-10.1,11.6-14.2,11.6h0Z"/>
          </g>
          <g>
            <path class="st11" d="M345.3,20.6c0-1.6,0-2.3-5-2.3s-5,0-5,2,0,1.2,1.7,1.4l8.9.7c3.5.3,5.4,1.7,5.4,6.2,0,6.3-4.4,6.6-10.4,6.6-8.6,0-10.8-1.1-10.8-7.5h5.2c0,1.7,0,1.9.4,2.2.9.8,3.9.8,5.2.8,5.2,0,5.2-.8,5.2-2.2s-.2-1.5-2-1.7l-9.1-.8c-3.9-.3-4.8-3.2-4.8-5.7,0-6,4.5-6.6,10.1-6.6,9.4,0,10.2,2.1,10.2,6.9h-5.2,0Z"/>
            <path class="st12" d="M340.8,39.5c-5,0-8.4-.3-11-2.1-3.6-2.4-4-6.5-4-9.7s.4-2,1-2.7c-.6-1.3-.9-2.9-.9-4.6,0-10.8,10.1-10.8,14.4-10.8,9.1,0,14.4,1.8,14.5,11.1,0,.8-.2,1.5-.5,2.1.9,1.6,1.3,3.5,1.3,5.9,0,10.9-9.5,10.9-14.7,10.9h0Z"/>
          </g>
          <g>
            <path class="st11" d="M358.7,9h5.4v5h6.4v5h-6.4v8.8c0,2,.5,2.4,3.7,2.4s2.3,0,2.9,0v5c-1.2.1-2.4.1-2.9.1-7.2,0-9.1-1.2-9.1-5.7v-10.5h-4.4v-5h4.4v-5h0Z"/>
            <path class="st12" d="M367.8,39.5c-4.7,0-13.4,0-13.4-10v-6.2h-.2c-2.4,0-4.2-1.9-4.2-4.2v-5c0-2.4,1.9-4.2,4.2-4.2h.2v-.8c0-2.4,1.9-4.2,4.2-4.2h5.4c2.4,0,4.2,1.9,4.2,4.2v.8h2.1c2.4,0,4.2,1.9,4.2,4.2v5c0,2.4-1.9,4.2-4.2,4.2h-2.1v2.6c1.1,0,1.5,0,1.9,0h.2c1.2,0,2.3.3,3.2,1.1s1.3,1.9,1.3,3.1v5c0,2.2-1.6,4-3.8,4.2-1.5.2-2.8.2-3.4.2h0Z"/>
          </g>
          <g>
            <path class="st2" d="M389.6,18.8v-9.7h4.4v9.7h9.8v4.3h-9.8v9.7h-4.4v-9.7h-9.8v-4.3s9.8,0,9.8,0Z"/>
            <path class="st12" d="M393.9,37.1h-4.4c-2.4,0-4.2-1.9-4.2-4.2v-5.5h-5.6c-2.4,0-4.2-1.9-4.2-4.2v-4.3c0-2.4,1.9-4.2,4.2-4.2h5.6v-5.5c0-2.4,1.9-4.2,4.2-4.2h4.4c2.4,0,4.2,1.9,4.2,4.2v5.5h5.6c2.4,0,4.2,1.9,4.2,4.2v4.3c0,2.3-1.9,4.2-4.2,4.2h-5.6v5.5c0,2.3-1.9,4.2-4.2,4.2Z"/>
          </g>
          <g>
            <path class="st3" d="M415.9,12.2h12.5v5.3c-1.5,10.8-6.3,15.3-10.2,18l-3.1-5.2c6.4-4.2,7.8-9.8,8.2-12.9h-7.5v-5.3h0ZM435.3,8.9c0,1,2,7.3,2.1,7.5,2.7-2.4,5.1-4.9,7.4-7.7l4.7,3.5c-2.7,3.3-8,7.7-9.6,8.9,1.2,1.8,3.3,4.9,9.9,9.5l-3.1,5.4c-5-3.3-9.6-8.8-11.3-13.3v12.1c0,2.9-1.9,3.5-3.4,3.5h-7.1l-1.1-5.5h5.2c.5,0,1-.2,1-.9V4.7h5.5v4.2h0Z"/>
            <path class="st12" d="M431.8,42.5h-7.1c-2,0-3.7-1.4-4.2-3.4-.9.6-2.1.8-3.2.6-1.1-.2-2.1-1-2.8-2l-3.1-5.2c-1.2-2-.6-4.5,1.3-5.8,2.4-1.6,3.9-3.3,4.8-5.1h-1.7c-2.4,0-4.2-1.9-4.2-4.2v-5.3c0-2.4,1.9-4.2,4.2-4.2h9.6v-3.3c0-2.4,1.9-4.2,4.2-4.2h5.5c2.4,0,4.2,1.9,4.2,4.2v3.5c.7-.7,1.3-1.5,1.9-2.2,1.4-1.8,4-2.1,5.9-.7l4.7,3.5c.9.7,1.5,1.8,1.7,2.9.1,1.2-.2,2.3-1,3.2-1.8,2.2-4.7,4.9-7,6.9,1.3,1.4,3.3,3.2,6.4,5.3,1.8,1.3,2.4,3.7,1.3,5.6l-3.1,5.4c-.6,1-1.6,1.7-2.7,2-1.1.3-2.3,0-3.3-.6-1.6-1.1-3.3-2.4-4.8-3.8-.4,4.1-3.4,6.8-7.6,6.8h0Z"/>
          </g>
          <g>
            <path class="st2" d="M471.1,18.8v-9.7h4.4v9.7h9.8v4.3h-9.8v9.7h-4.4v-9.7h-9.8v-4.3s9.8,0,9.8,0Z"/>
            <path class="st12" d="M475.4,37.1h-4.4c-2.4,0-4.2-1.9-4.2-4.2v-5.5h-5.6c-2.4,0-4.2-1.9-4.2-4.2v-4.3c0-2.4,1.9-4.2,4.2-4.2h5.6v-5.5c0-2.4,1.9-4.2,4.2-4.2h4.4c2.4,0,4.2,1.9,4.2,4.2v5.5h5.6c2.4,0,4.2,1.9,4.2,4.2v4.3c0,2.3-1.9,4.2-4.2,4.2h-5.6v5.5c0,2.3-1.9,4.2-4.2,4.2Z"/>
          </g>
          <g>
            <path class="st0" d="M512.9,28.9h-11.7l-2.2,6.1h-6.7l10.9-27.9h7.6l10.9,27.9h-6.6l-2.2-6.1h0ZM503,23.8h8.1l-4-11.2-4,11.2h0Z"/>
            <path class="st12" d="M521.8,39.2h-6.6c-1.8,0-3.4-1.1-4-2.8l-1.2-3.3h-5.8l-1.2,3.3c-.6,1.7-2.2,2.8-4,2.8h-6.7c-1.4,0-2.7-.7-3.5-1.8s-1-2.6-.5-4l10.9-27.9c.6-1.6,2.2-2.7,4-2.7h7.6c1.8,0,3.3,1.1,4,2.7l10.9,27.9c.5,1.3.3,2.8-.5,3.9s-2.1,1.8-3.5,1.8Z"/>
          </g>
          <g>
            <path class="st0" d="M530.1,14.1v2.3c1.6-2.1,4.1-2.6,7.5-2.6,5.8,0,8,1.6,8,6.7v14.5h-5.3v-13.3c0-1.8-.9-2.9-4.2-2.9-5.1,0-5.6,1.7-5.6,4v12.2h-5.3V14h5.1,0Z"/>
            <path class="st12" d="M545.6,39.2h-5.3c-2.3,0-4.2-1.9-4.2-4.2v-12h0c-.6,0-1,0-1.4,0v11.9c0,2.3-1.9,4.2-4.2,4.2h-5.3c-2.3,0-4.2-1.9-4.2-4.2V14.1c0-2.4,1.9-4.2,4.2-4.2h5.1c.7,0,1.3.1,1.8.4,1.9-.6,3.8-.7,5.6-.7,3,0,12.3,0,12.3,11v14.5c0,2.3-1.9,4.2-4.2,4.2h0Z"/>
          </g>
          <g>
            <path class="st0" d="M556.5,7v4.9h-5.6v-4.9h5.6ZM556.5,14.1v20.9h-5.4V14.1h5.4Z"/>
            <path class="st12" d="M556.5,39.2h-5.4c-2.3,0-4.2-1.9-4.2-4.2V14.1c0-.3,0-.6,0-.9-.1-.4-.2-.8-.2-1.3v-4.9c0-2.4,1.9-4.2,4.2-4.2h5.6c2.3,0,4.2,1.9,4.2,4.2v4.9c0,.4,0,.8-.2,1.2,0,.3.1.6.1,1v20.9c0,2.3-1.9,4.2-4.2,4.2h0Z"/>
          </g>
          <g>
            <path class="st0" d="M567.2,14.1v2.2c.7-.8,2.1-2.5,6-2.5s4.8,1.5,5.6,2.8c1.5-2.8,5.4-2.9,6.1-2.9,5.3,0,6.6,2.8,6.6,6v15.2h-5.4v-13.6c0-1.7-1-2.5-3-2.5s-3.6.7-3.6,3.1v13h-5.3v-13.4c0-.9,0-2.8-3.1-2.8s-3.6,2.2-3.6,3.4v12.8h-5.4V14.1h5.2Z"/>
            <path class="st12" d="M591.5,39.2h-5.4c-1.3,0-2.5-.6-3.3-1.6-.8,1-2,1.6-3.3,1.6h-5.3c-1.4,0-2.6-.6-3.3-1.6-.8,1-2,1.6-3.3,1.6h-5.4c-2.3,0-4.2-1.9-4.2-4.2V14.1c0-2.4,1.9-4.2,4.2-4.2h5.2c.6,0,1.2.1,1.7.4,1.2-.4,2.6-.6,4.3-.6,2.5,0,4.4.5,5.8,1.3,1.7-.9,3.7-1.3,6-1.3,6.8,0,10.8,3.8,10.8,10.2v15.2c0,2.3-1.9,4.2-4.2,4.2h0Z"/>
          </g>
          <g>
            <path class="st0" d="M616.6,30c0,2.7.2,4,.5,4.9h-5c-.1-.9-.2-1.4-.2-2.1-1.3,2.1-3,2.3-7.5,2.3s-8.6-.2-8.6-6.4.2-6.2,5.4-6.5l9.1-.5c.6,0,1.4,0,1.4-1.5s-1.1-2-4.6-2-5.4.2-5.3,2.4h-5.2c0-5.9,3.3-6.9,10-6.9s10.2.4,10.2,6.9v9.4ZM611.6,25.3c-.2.3-.5.8-2,.8l-6.6.4c-2.2.1-2.3,1.2-2.3,2.1,0,1.8,1.3,2,4.8,2s6.1-.2,6.1-3.2v-2.2h0Z"/>
            <path class="st12" d="M604.2,39.5c-3.8,0-12.9,0-12.9-10.7s.5-4.5,1.2-6c-.4-.7-.6-1.4-.6-2.2.1-11.1,9.7-11.1,14.3-11.1s14.5,0,14.5,11.1v9.4c0,2.4.2,3.3.3,3.9.3,1.3,0,2.6-.8,3.6-.8,1-2,1.6-3.3,1.6h-5c-.5,0-1.1,0-1.5-.3-2,.6-4.1.6-6.2.6h0Z"/>
          </g>
          <g>
            <path class="st0" d="M627.5,7v27.9h-5.4V7s5.4,0,5.4,0Z"/>
            <rect class="st12" x="617.8" y="2.8" width="13.9" height="36.4" rx="4.2" ry="4.2"/>
          </g>
          <g>
            <path class="st2" d="M647.3,18.8v-9.7h4.4v9.7h9.8v4.3h-9.8v9.7h-4.4v-9.7h-9.8v-4.3s9.8,0,9.8,0Z"/>
            <path class="st12" d="M651.7,37.1h-4.4c-2.3,0-4.2-1.9-4.2-4.2v-5.5h-5.6c-2.3,0-4.2-1.9-4.2-4.2v-4.3c0-2.4,1.9-4.2,4.2-4.2h5.6v-5.5c0-2.4,1.9-4.2,4.2-4.2h4.4c2.3,0,4.2,1.9,4.2,4.2v5.5h5.6c2.3,0,4.2,1.9,4.2,4.2v4.3c0,2.3-1.9,4.2-4.2,4.2h-5.6v5.5c0,2.3-1.9,4.2-4.2,4.2Z"/>
          </g>
          <g>
            <path class="st6" d="M682.2,5.8c-2.1,4.2-4.3,6.7-7.6,9.4l-1.7-5.6c2-1.3,3.5-3.4,4.5-5.1l4.8,1.3h0ZM686.4,15.6v-2.9h-4.3v-4.8h4.3v-3.1h5v3.1h4.3v4.8h-4.3v2.9h4.9v4.8h-4.9v2.8h4.6v4.9h-4.6v3c2.5-.3,3.9-.5,5-.7v2.6h2.8c.8,0,1-.1,1-1.2v-11.8h-3.2v-5.1h10.1v5.1h-1.8v14.4c0,1.9,0,3.8-3.2,3.8h-5.2l-.5-3.1c-7.7,1.3-9.8,1.5-14.5,1.9l-.6-5c1.3,0,2.8-.1,5.2-.3v-3.6h-4.4v-4.9h4.4v-2.8h-4.6v-2.7c-.2.3-.5.9-1.2,2v18.5h-4.9v-12.3c-.8.7-1,.9-1.8,1.5l-1-7c2.5-1.9,4.1-3.8,6-7.7l4.1,2.5-.2.4h3.7,0ZM706.4,10.7h-9.3v-5h9.3v5Z"/>
            <path class="st12" d="M702,42.5h-5.2c-1.7,0-3.2-1-3.9-2.5-4,.6-6.2.9-9.2,1.2-.8.8-1.9,1.3-3.1,1.3h-4.9c-2.3,0-4.2-1.9-4.2-4.2v-7.4c-.9-.7-1.6-1.7-1.7-2.8l-1-7c-.2-1.5.4-3,1.6-4,.1,0,.2-.2.3-.3,0-.1,0-.2-.1-.3l-1.7-5.6c-.5-1.8.2-3.7,1.7-4.8,1.1-.7,2.3-2.1,3.1-3.6,1-1.7,2.9-2.5,4.8-2l4.8,1.3s0,0,0,0c.8-.8,1.9-1.3,3.1-1.3h5c1.4,0,2.7.7,3.4,1.7.7-.4,1.5-.7,2.3-.7h9.3c2.3,0,4.2,1.9,4.2,4.2v5c0,.6-.1,1.1-.3,1.6.5.7.9,1.6.9,2.6v5.1c0,1.5-.7,2.7-1.8,3.5v10.9c0,6.7-4,8.1-7.4,8.1h0Z"/>
          </g>
          <g>
            <path class="st2" d="M728.8,18.8v-9.7h4.4v9.7h9.8v4.3h-9.8v9.7h-4.4v-9.7h-9.8v-4.3s9.8,0,9.8,0Z"/>
            <path class="st12" d="M733.2,37.1h-4.4c-2.3,0-4.2-1.9-4.2-4.2v-5.5h-5.6c-2.3,0-4.2-1.9-4.2-4.2v-4.3c0-2.4,1.9-4.2,4.2-4.2h5.6v-5.5c0-2.4,1.9-4.2,4.2-4.2h4.4c2.3,0,4.2,1.9,4.2,4.2v5.5h5.6c2.3,0,4.2,1.9,4.2,4.2v4.3c0,2.3-1.9,4.2-4.2,4.2h-5.6v5.5c0,2.3-1.9,4.2-4.2,4.2Z"/>
          </g>
          <g>
            <path class="st8" d="M768.9,4.8h5.7v5.5c0,1.8.5,7.3,3.3,12.9,3,6.1,9,8.9,11.1,10l-3.5,5.1c-6.3-3.5-11.3-9-13.7-16.6-2.2,7.8-8.1,13.4-13.8,16.6l-3.6-5c5.3-2.3,9.1-5.7,11.6-10.8,1.8-3.6,2.9-8.2,2.9-12.2v-5.5h0Z"/>
            <path class="st12" d="M785.5,42.6c-.7,0-1.4-.2-2.1-.5-4.8-2.7-8.8-6.3-11.7-10.6-2.9,4.2-6.9,7.9-11.7,10.6-1.9,1.1-4.3.5-5.5-1.2l-3.6-5c-.7-1-1-2.4-.6-3.6.3-1.2,1.2-2.2,2.4-2.8,4.5-2,7.5-4.8,9.5-8.8,1.5-3.1,2.5-7,2.5-10.3v-5.5c0-2.4,1.9-4.2,4.2-4.2h5.7c2.3,0,4.2,1.9,4.2,4.2v5.5s0,5.4,2.8,11.1c2.4,4.8,7.3,7.1,9.1,8,1.1.5,2,1.5,2.3,2.7s.1,2.5-.6,3.5l-3.5,5.1c-.8,1.2-2.2,1.8-3.5,1.8h0Z"/>
          </g>
        </g>
        <g>
          <g>
            <path class="st5" d="M10.7,33.6c-2,.7-3.9,1.2-5.9,1.7l-.5-5.6c.8-.1,1.4-.2,2.9-.5v-7.4h-2.1v-4.9h2.1v-5.9h-2.4v-5h9.7v5h-2.3v5.9h1.8v4.9h-1.8v6.2c1.2-.3,1.8-.5,2.4-.7l.2,4.4c3.1-1.2,4.8-2.5,5.6-3.2h-4.4v-7.9h20.8v7.9h-.5l2.3,1.6c-.9.9-1.2,1.2-3,2.7,1.6.7,2.3,1,3,1.2l-2.5,4.5c-5.8-2.6-8.1-4.9-9.6-6.6v6.5h-5.1v-5.1c-3.5,2.6-6.8,4-8.3,4.6l-2.5-4.2h0ZM38.2,15.5v3.9H14.3v-3.9h23.9ZM37.5,5.5v8.9H15.4V5.5s22.1,0,22.1,0ZM19.9,8.9v2.3h2.1v-2.3h-2.1ZM20.8,23.5v1.9h11v-1.9h-11ZM25.3,8.9v2.3h2.1v-2.3h-2.1ZM28.7,28.5c.6.5,1.4,1.1,3,2.1,1.1-1,1.7-1.5,2.3-2.1h-5.3ZM30.7,8.9v2.3h2.3v-2.3h-2.3Z"/>
            <path class="st4" d="M36,40.5c-.3,0-.6,0-.9-.2-2.9-1.3-5-2.5-6.6-3.7v1.6c0,1.2-1,2.1-2.1,2.1h-5.1c-1.2,0-2.1-1-2.1-2.1v-1.2c-2.2,1.3-4.1,2.1-5.2,2.6-1,.4-2.2,0-2.7-.9l-1.6-2.7c-1.4.4-2.9.8-4.4,1.2-.6.2-1.2,0-1.8-.3s-.8-.9-.9-1.5l-.5-5.6c-.1-1.1.7-2.1,1.8-2.3h.2c.3,0,.5,0,.8-.1v-3.5c-1.2,0-2.1-1-2.1-2.1v-4.9c0-1.2.9-2.1,2.1-2.1v-1.6h-.3c-1.2,0-2.1-1-2.1-2.1v-5c0-1.2.9-2.1,2.1-2.1h9.3c.4-.3.9-.5,1.4-.5h22.1c1.2,0,2.1.9,2.1,2.1v8.4c.5.4.7,1,.7,1.6v3.9c0,1-.6,1.8-1.5,2v6.2l.8.6c.5.4.9.9.9,1.6,0,.6-.2,1.3-.6,1.7s-.3.3-.5.5c.4.2.8.6,1,1.1.2.6.2,1.2-.1,1.8l-2.5,4.5c-.4.7-1.1,1.1-1.9,1.1h0ZM23.5,36.1h.8v-4.4c0-.9.5-1.7,1.4-2,.4-.2.8-.2,1.2,0-.4-.6-.5-1.3-.3-2,0,0,0,0,0-.1h-4.5c0,0,0,.1,0,.2.3.9,0,1.8-.7,2.4h-.1c-1,.8-2.7,2.2-6,3.5-.6.2-1.4.2-1.9-.2s-.9-1-1-1.7v-1.7c-.7.1-1.3,0-1.8-.4-.5-.4-.8-1-.8-1.7v-6.2c0-1,.8-1.9,1.8-2.1v-.7c-1-.2-1.8-1-1.8-2.1v-5.9c0-1.2,1-2.1,2.1-2.1h.2v-.7h-5.4v.7h.3c1.2,0,2.1,1,2.1,2.1v5.9c0,1.2-.9,2.1-2.1,2.1v.7c1.2,0,2.1,1,2.1,2.1v7.4c0,1-.7,1.8-1.6,2.1-.4,0-.8.2-1.1.2v1.2c1.3-.3,2.4-.7,3.4-1,1-.3,2,0,2.5.9l1.5,2.6c1.6-.8,3.8-1.9,6.1-3.6.6-.5,1.5-.6,2.2-.2s1.2,1.1,1.2,1.9v3h0ZM29,31.4c1.1,1.1,2.9,2.6,6.2,4.3l.3-.7c-.2-.1-.5-.2-.8-.4-.7-.3-1.1-.9-1.2-1.7,0-.4,0-.9.2-1.3-.2.2-.4.3-.6.5-.7.6-1.7.7-2.5.2-.6-.4-1.1-.7-1.5-1h0ZM33.7,26.3h.3c.2,0,.4,0,.6,0v-3.8h-.9c.1.3.2.6.2.9v1.9c0,.3,0,.6-.2.9ZM18,26.3h.8c-.1-.3-.2-.6-.2-.9v-1.9c0-.3,0-.6.2-.9h-.8v3.7ZM34.8,12.3h.5v-4.7h-.6c.2.4.4.8.4,1.2v2.3c0,.4-.1.8-.3,1.1ZM17.5,12.3h.6c-.2-.3-.3-.7-.3-1.1v-2.3c0-.5.1-.9.4-1.2h-.6v4.7Z"/>
          </g>
          <g>
            <path class="st5" d="M40.3,28.7c1-.2,1.8-.3,3.5-.8v-10h-3.1v-5.1h3.1V4.7h5.1v8.1h2v5.1h-2v8.4c.6-.2,1-.4,2.4-.9l.2,4.9c-3.8,2-6.9,3-10.6,4l-.7-5.5h0ZM73,18.1v11.3h-5.2v3.2c0,.9,0,1.1.8,1.1h.7c.9,0,1,0,1.2-3l4.2.8c-.4,5.3-.7,6.7-3.9,6.7h-4.6c-3.3,0-3.3-1.7-3.3-3.3v-5.4h-1.9c-.3,4.1-2.3,7.4-9.6,9.2l-2.3-4.7c4-.6,6.6-1.5,7.2-4.6h-3.2v-11.3h20ZM52.6,6.7h7.6v-2h5.3v2h8.3v4.1h-2.8c-.2.9-.3,1.2-.6,2h4v4h-22.9v-4h3.9c-.3-1.5-.3-1.7-.5-2h-2.4s0-4.1,0-4.1ZM58,21.2v1.4h10v-1.5s-10,0-10,0ZM58,24.9v1.5h10v-1.5h-10ZM60.1,10.8c0,.4.3,1.5.4,2h4.6c.2-.5.3-.9.5-2h-5.6Z"/>
            <path class="st4" d="M51.3,40.8c-.8,0-1.5-.4-1.9-1.2l-2.3-4.7c0,0,0-.2-.1-.3-1.7.6-3.4,1.2-5.4,1.7-.6.2-1.2,0-1.7-.3s-.8-.9-.9-1.5l-.7-5.5c-.1-1.1.6-2.2,1.8-2.4.6-.1,1.1-.2,1.8-.3v-6.2h-1c-1.2,0-2.1-1-2.1-2.1v-5.1c0-1.2,1-2.1,2.1-2.1h1v-6c0-1.2,1-2.1,2.1-2.1h5.1c1.2,0,2.1.9,2.1,2.1v.5c.4-.4.9-.6,1.5-.6h5.5c0-1.1,1-2,2.1-2h5.3c1.1,0,2.1.9,2.1,2h6.2c1.2,0,2.1.9,2.1,2.1v4.1c0,.2,0,.3,0,.5.4.4.7,1,.7,1.6v4c0,.9-.6,1.7-1.4,2v10.6c1,.2,1.7,1.2,1.7,2.2-.3,4.7-.6,8.7-6.1,8.7h-4.6c-4.5,0-5.2-2.8-5.4-4.5-1.8,2.3-4.8,3.9-9,5-.2,0-.3,0-.5,0h0ZM52.1,35.5l.3.6c5.5-1.8,6.2-4.5,6.4-6.9,0-.3,0-.5.2-.7h-.9c.2.4.3.9.2,1.3-.7,3.5-3.3,5-6.2,5.7h0ZM65.1,35.9c.1,0,.4.1,1.1.1h4.6c.9,0,1.1-.1,1.1-.1.3-.3.4-1.5.6-2.7-.3,1.5-1,2.6-3.1,2.6h-.7c-3,0-3-2.4-3-3.2v-3.2c0-.3,0-.6.2-.9h-1c.1.3.2.6.2.9v5.4c0,.3,0,.8,0,1.1h0ZM42.6,30.4v1.1c2.3-.6,4.4-1.4,6.8-2.5v-.6c-.6.1-1.2,0-1.7-.3-.6-.4-.9-1-.9-1.7v-8.4c0-1.1.9-2.1,2-2.1v-.9c-1.1,0-2-1-2-2.1v-6h-.9v6c0,1.2-1,2.1-2.1,2.1h-1v.9h1c1.2,0,2.1,1,2.1,2.1v10c0,1-.7,1.8-1.6,2-.7.2-1.2.3-1.7.4h0ZM69.9,27.3h1v-7.1h-1c.2.3.2.6.2,1v1.4c0,.4-.1.8-.3,1.1.2.3.3.7.3,1.1v1.5c0,.3,0,.6-.2.9h0ZM55.1,27.3h1c-.1-.3-.2-.6-.2-.9v-1.5c0-.4.1-.8.3-1.1-.2-.3-.3-.7-.3-1.1v-1.5c0-.3,0-.7.2-1h-1v7.1h0ZM66.2,14.7h3.1c-.2-.1-.5-.4-.7-.6-.4-.5-.5-1.2-.3-1.9h0c.2-.8.3-1.1.5-1.8.2-.7.7-1.3,1.3-1.5h-3.7c.3.1.6.3.8.6.4.5.6,1.1.5,1.7-.2,1.3-.4,1.9-.7,2.6-.2.4-.5.7-.9,1h0ZM56.5,14.7h3c-.5-.3-.9-.8-1-1.4-.1-.5-.4-1.7-.4-2-.1-.6,0-1.3.4-1.8.2-.3.5-.5.9-.6h-3.7c.5.2,1,.6,1.2,1.2.2.5.3.8.6,2.4.1.6,0,1.3-.4,1.8-.2.2-.4.4-.6.5h0ZM60.9,8.7h3.8c-.8-.3-1.3-1-1.4-1.9h-1c0,.9-.6,1.6-1.4,1.9h0Z"/>
          </g>
          <g>
            <path class="st2" d="M110.3,14.9v4.3h-24v-4.3h24ZM110.3,22.8v4.3h-24v-4.3h24Z"/>
            <path class="st4" d="M110.3,29.2h-24c-1.2,0-2.1-1-2.1-2.1v-4.3c0-.7.4-1.4.9-1.8-.6-.4-.9-1-.9-1.8v-4.3c0-1.2.9-2.1,2.1-2.1h24c1.2,0,2.1,1,2.1,2.1v4.3c0,.7-.4,1.4-.9,1.8.6.4.9,1,.9,1.8v4.3c0,1.2-.9,2.1-2.1,2.1ZM88.5,24.9h19.8c0,0-19.8,0-19.8,0h0ZM88.5,17.1h19.8c0,0-19.8,0-19.8,0h0Z"/>
          </g>
          <g>
            <path class="st10" d="M132.5,17.9h-1.7v9c.7-.2,1.2-.4,2.3-.8v5c-3.2,1.5-7.7,2.9-10.6,3.7l-.8-5.6c1-.1,1.6-.2,3.9-.7v-10.5h-3.3v-5.1h3.3V4.6h5.2v8.2h2.4v2.5l1.3-.4v-7.2h5v5.9l2.8-.7V4.6h5v7.1l7.9-2c0,4-.2,12.5-.6,14.9-.1.9-.5,3.5-3.4,3.5h-2.6l-1-5.2h1.1c1.1,0,1.5,0,1.5-6.5l-2.9.7v12.7h-5v-11.4l-2.8.7v12.5c0,.4.2.8,1,.8h9c1.1,0,1.6,0,1.8-4l4.9,1.1c-.2,4.4-.7,8.1-4.6,8.1h-12.9c-3.8,0-4-2.5-4-3.9v-13.4l-1.7.5-.3-3h0Z"/>
            <path class="st4" d="M151.4,39.9h-12.9c-1.8,0-6.1-.6-6.1-6h0c-3.8,1.4-8,2.6-9.3,2.9-.6.2-1.2,0-1.7-.3s-.9-.9-.9-1.5l-.8-5.6c-.2-1.2.6-2.2,1.8-2.4.6,0,1.1-.2,2.1-.4v-6.6h-1.2c-1.2,0-2.1-1-2.1-2.1v-5.1c0-1.2.9-2.1,2.1-2.1h1.2v-6.1c0-1.2.9-2.1,2.1-2.1h5.2c1.2,0,2.1.9,2.1,2.1v1.8c.4-.4,1-.7,1.6-.7h5c.2,0,.5,0,.7.1v-1.2c0-1.2.9-2.1,2.1-2.1h5c1.2,0,2.1.9,2.1,2.1v4.4l5.2-1.3c.6-.2,1.3,0,1.8.4.5.4.8,1,.8,1.7,0,4-.2,12.6-.6,15.2-.1.9-.4,1.8-.7,2.5h.6c1,.4,1.7,1.3,1.6,2.3-.2,3.5-.5,10.1-6.8,10.1h0ZM134.7,18.4c.4,0,.8.2,1.1.4.5.4.8,1,.8,1.7v13.4c0,1.2,0,1.7,1.9,1.7h12.9c1.2,0,2-.3,2.4-4.3l-.7-.2c-.3,1.9-1.1,3.5-3.7,3.5h-9c-1.8,0-3.1-1.2-3.1-2.9v-12.5c0-1,.7-1.8,1.6-2.1l2.8-.7c.6-.2,1.3,0,1.8.4s.8,1,.8,1.7v9.3h.7v-10.6c0-1,.7-1.8,1.6-2.1l2.9-.7c.6-.2,1.3,0,1.8.4.5.4.8,1,.8,1.7,0,4.7,0,7.6-2.3,8.4l.2,1.2h.8c.5,0,1.1,0,1.3-1.7.3-1.8.5-7.6.6-11.9l-5.2,1.3c-.6.2-1.3,0-1.8-.4s-.8-1-.8-1.7v-5h-.7v6.3c0,1-.7,1.8-1.6,2.1l-2.8.7c-.6.2-1.3,0-1.8-.4s-.8-1-.8-1.7v-3.8h-.7v5.1c0,1-.6,1.8-1.6,2h-.6c0,.3,0,.5.1.6v.7c0,0,0,0,0,0ZM124.1,30.9l.2,1.2c2.2-.7,4.7-1.5,6.8-2.3v-.7c-.6,0-1.1,0-1.6-.4-.5-.4-.9-1-.9-1.7v-9c0-1.2.9-2.1,2.1-2.1h.4c0-.1,0-.3,0-.4v-.4h-.3c-1.2,0-2.1-1-2.1-2.1v-6.1h-1v6.1c0,1.2-.9,2.1-2.1,2.1h-1.2v.9h1.2c1.2,0,2.1,1,2.1,2.1v10.5c0,1-.7,1.9-1.7,2.1-.8.2-1.4.3-1.9.4h0Z"/>
          </g>
          <g>
            <path class="st10" d="M167.8,32.7c-2.9,1-6.3,2.1-9.1,2.6l-.7-5.6c.9-.1,1.7-.2,3.9-.7v-7.4h-3.1v-4.9h3.1v-5.6h-3.5v-4.9h11.7v3.6h8.1v-5h5v5h4.1c-1.1-1.5-2.5-2.5-3.3-3l3.2-2.4c.5.3,2.6,1.8,4,3.3l-2.8,2.2h3.6v5.1h-8.8v1.4c.3,1.4.6,2.9,1.6,5.2.8-1.1,2.2-3.6,3.1-6l4.3,2c-.7,1.6-2.1,4.6-3.8,6.9l-3.3-2c2.8,5.8,6.1,8.4,7.5,9.4l-2.8,5.3c-3.4-3.4-4.8-5.8-6.7-9.7v7.5c0,1,0,3.5-3.3,3.5h-5.6l-.7-5.2h3.5c.8,0,1.1-.2,1.1-.8V14.8h-8.1v-3.8h-3.1v5.6h2.8v1l3.9-2.2c.9,1,3,3.9,4,6.4l-4.3,2.4c-.7-2.2-2.5-5-3.6-6.3v3.5h-2.8v6.2c1.7-.5,2.3-.7,3.2-1l.2,2.3c3.2-2.4,4.3-3.8,4.9-4.5l2.5,4c-2.9,3.9-7.6,7.2-8.3,7.8l-1.7-3.6h0Z"/>
            <path class="st4" d="M179.9,40.4h-5.6c-1.1,0-2-.8-2.1-1.9l-.2-1.6c-.4.3-.7.5-1.1.8h-.2c-.5.5-1.2.7-1.8.5-.6-.2-1.1-.6-1.4-1.2l-.9-1.9c-2.6.9-5.2,1.7-7.6,2.1-.6,0-1.2,0-1.6-.4s-.8-.9-.9-1.4l-.7-5.6c0-.6,0-1.1.4-1.6.4-.5.9-.7,1.4-.8.6,0,1.1-.2,2.1-.3v-3.6h-1c-1.2,0-2.1-1-2.1-2.1v-4.9c0-1.2.9-2.1,2.1-2.1h1v-1.4h-1.4c-1.2,0-2.1-1-2.1-2.1v-4.9c0-1.2.9-2.1,2.1-2.1h11.7c1.2,0,2.1.9,2.1,2.1v1.5h3.9v-2.9c0-1.2.9-2.1,2.1-2.1h5c.7,0,1.3.3,1.7.8l1.1-.8c.7-.6,1.7-.6,2.5,0,1,.7,2.9,2.1,4.3,3.6.4.4.6,1,.6,1.6,0,.1,0,.2,0,.3.5.4.8,1,.8,1.7v5.1c0,.4-.1.8-.3,1.1.5.6.7,1.5.4,2.2-.8,2-2.4,5.1-4,7.4,0,.1-.2.2-.3.3,1.8,2.3,3.3,3.5,4.1,4.1.8.6,1.1,1.8.6,2.7l-2.8,5.3c-.3.6-.9,1-1.6,1.1s-1.4-.1-1.8-.6c-1.2-1.2-2.2-2.3-3-3.4-.1,5-4.2,5.4-5.5,5.4h0ZM176.2,36.2h3.7c1.1,0,1.2-.2,1.2-1.3v-7.5c0-1,.7-1.8,1.6-2.1.8-.2,1.6.1,2.1.7-.5-.8-1-1.8-1.5-2.8,0-.2-.1-.3-.2-.5-.1-.1-.2-.3-.2-.4-1.1-2.5-1.5-4.4-1.8-5.6,0-.1,0-.3,0-.4v-1.4c0-1.2.9-2.1,2.1-2.1h6.7v-.9h-1.5c-.2,0-.4,0-.6,0-.2,0-.4,0-.6,0h-4.1c-1.2,0-2.1-1-2.1-2.1v-2.9h-.8v2.9c0,1.2-.9,2.1-2.1,2.1h-6v.9h6c1.2,0,2.1,1,2.1,2.1v17.4c0,1.4-.8,3-3.2,3h-1.1v1c.1,0,.1,0,.1,0ZM185.1,26.4c1.4,2.8,2.4,4.7,4.3,6.9l.6-1.2c-1.3-1.1-3.1-3-4.9-5.8ZM167.8,30.5c.8,0,1.6.5,1.9,1.2l.6,1.2c2-1.6,3.7-3.2,4.9-4.6l-.2-.4c-.8.7-1.8,1.6-3.3,2.7-.6.5-1.4.5-2.1.2-.6-.3-1-.8-1.2-1.4-.2,0-.5.2-.8.2-.6.2-1.3,0-1.9-.3s-.9-1-.9-1.7v-6.2c0-1.2.9-2.1,2.1-2.1h.6v-.6h-.6c-1.2,0-2.1-1-2.1-2.1v-5.6c0-1.2.9-2.1,2.1-2.1h1v-.7h-7.4v.7h1.4c1.2,0,2.1,1,2.1,2.1v5.6c0,1.2-.9,2.1-2.1,2.1h-1v.6h1c1.2,0,2.1,1,2.1,2.1v7.4c0,1-.7,1.9-1.7,2.1-.8.2-1.5.3-2,.4l.2,1.2c2.1-.5,4.4-1.3,6.6-2,.2,0,.4-.1.7-.1h0ZM170.2,24.6c.4,0,.8,0,1.1.3-.2-.5-.4-1-.6-1.4-.3.1-.6.2-.9.2h-.6v1.2c.1,0,.2,0,.4-.1.2,0,.5-.1.7-.1h0ZM187.5,21.1l.4.2c.6-1,1.2-2.1,1.6-3l-.4-.2c-.5,1.1-1.1,2.1-1.6,2.9ZM172.7,18.4c.6.8,1.1,1.8,1.6,2.8l.5-.3c-.6-1-1.2-2-1.8-2.8l-.4.2Z"/>
          </g>
          <g>
            <path class="st2" d="M213.8,18.8v-9.7h4.4v9.7h9.8v4.3h-9.8v9.7h-4.4v-9.7h-9.8v-4.3h9.8,0Z"/>
            <path class="st4" d="M218.2,35h-4.4c-1.2,0-2.1-1-2.1-2.1v-7.6h-7.7c-1.2,0-2.1-1-2.1-2.1v-4.3c0-1.2.9-2.1,2.1-2.1h7.7v-7.6c0-1.2.9-2.1,2.1-2.1h4.4c1.2,0,2.1,1,2.1,2.1v7.6h7.7c1.2,0,2.1,1,2.1,2.1v4.3c0,1.2-.9,2.1-2.1,2.1h-7.7v7.6c0,1.2-.9,2.1-2.1,2.1ZM215.9,30.7h.1v-7.6c0-1.2.9-2.1,2.1-2.1h7.7c0,0-7.7,0-7.7,0-1.2,0-2.1-1-2.1-2.1v-7.6h-.1v7.6c0,1.2-.9,2.1-2.1,2.1h-7.7c0,0,7.7,0,7.7,0,1.2,0,2.1,1,2.1,2.1v7.6Z"/>
          </g>
          <g>
            <path class="st11" d="M258.8,7v5.3h-15.6v6.6h14.9v5.4h-14.9v10.7h-5.9V7s21.4,0,21.4,0Z"/>
            <path class="st4" d="M243.3,37.1h-5.9c-1.2,0-2.1-1-2.1-2.1V7c0-1.2.9-2.1,2.1-2.1h21.4c1.2,0,2.1.9,2.1,2.1v5.3c0,1.2-1,2.1-2.1,2.1h-13.4v2.3h12.8c1.2,0,2.1,1,2.1,2.1v5.3c0,1.2-1,2.1-2.1,2.1h-12.8v8.5c0,1.2-.9,2.1-2.1,2.1h0ZM239.5,32.8h1.6v-8.5c0-1.2.9-2.1,2.1-2.1h12.8v-1.1h-12.8c-1.2,0-2.1-1-2.1-2.1v-6.6c0-1.2.9-2.1,2.1-2.1h13.4v-1.1h-17.2v23.7h0Z"/>
          </g>
          <g>
            <path class="st11" d="M282.9,24.1c0,8.5-1.3,11.1-10.1,11.1s-11.2-.6-11.2-10.2,1.6-11.3,10.7-11.3,10.7,1,10.7,10.3h0ZM272.5,30.3c4.7,0,5-.6,5-6.1s-.9-5.4-5.6-5.4-5,.7-5,5.9.4,5.7,5.6,5.7h0Z"/>
            <path class="st4" d="M272.8,37.3c-8.3,0-13.4-.8-13.4-12.3s2.6-13.4,12.8-13.4,7.2.2,9.6,2.1c2.3,1.9,3.2,5,3.2,10.3,0,9.2-1.8,13.3-12.2,13.3ZM272.2,15.9c-7.8,0-8.5.9-8.5,9.1s1.6,8,9.1,8,8-1.4,8-9-1.8-8.2-8.5-8.2h0ZM272.5,32.4c-6.4,0-7.7-1.3-7.7-7.8s.6-8,7.2-8,7.7.7,7.7,7.6-.6,8.2-7.1,8.2ZM269.3,27.9c.5.2,2.4.2,3.2.2,1.9,0,2.5-.1,2.6-.2.2-.4.2-2.7.2-3.7,0-2.4-.2-3-.3-3.1-.3-.2-2-.2-3.1-.2-2,0-2.5.2-2.7.3-.2.4-.2,2.5-.2,3.5s0,2.8.2,3.3h0Z"/>
          </g>
          <g>
            <path class="st11" d="M292.1,14.1l.2,2.1c1.6-2.4,3.1-2.4,9.8-2.3v5.2c-5.3,0-6,0-6.6.2-1.5.3-3.1,1.2-3.1,3.3v12.4h-5.4V14.1h5.2,0Z"/>
            <path class="st4" d="M292.3,37.1h-5.4c-1.2,0-2.1-1-2.1-2.1V14.1c0-1.2,1-2.1,2.1-2.1h5.2c.5,0,1,.2,1.3.5,1.8-.8,4.3-.8,8.4-.7h.2c1.2,0,2.1,1,2.1,2.1v5.2c0,.6-.2,1.1-.6,1.5s-1,.6-1.5.6c-5.2,0-5.7,0-6.2.1-1.4.3-1.4,1-1.4,1.2v12.4c0,1.2-1,2.1-2.1,2.1h0ZM289.1,32.8h1.1v-10.3c0-1.8.8-3.3,2.1-4.2-.2,0-.3,0-.5,0-.9-.2-1.5-1-1.6-1.9h0c0-.1-1.1-.1-1.1-.1v16.6h0ZM299.9,15.9c-4.8,0-5.1.2-5.9,1.4,0,0,0,0,0,0,.3-.1.6-.2,1-.2.7-.1,1.4-.2,4.9-.2v-.9h0Z"/>
          </g>
          <g>
            <path class="st11" d="M310.3,26c0,3.8.1,4.3,5.6,4.3s4.9-.8,5-2.6h5.4c-.2,6.2-3.4,7.5-10,7.5s-11.3-1.2-11.3-10.2.9-11.3,10.5-11.3,8.6.5,10.2,4.1c.5,1.1.9,2.4.7,8.1h-16ZM321,22.2c-.1-3-.5-3.5-5.5-3.5s-5,1-5.2,3.5h10.6Z"/>
            <path class="st4" d="M316.3,37.3c-9.3,0-13.5-1.8-13.5-12.3s.9-13.4,12.6-13.4,10,.4,12.1,5.4c.6,1.4,1,2.9.9,9,0,.3,0,.6-.2.8.1.3.2.6.2.9-.3,8.8-6.4,9.5-12.1,9.5h0ZM315.5,15.9c-8.1,0-8.4,1.8-8.4,9.1s1.9,8,9.2,8,7-.8,7.6-3.2h-1.2c-.8,2.2-3,2.6-6.7,2.6s-5.2,0-6.5-1.5c-1.3-1.3-1.3-3.1-1.2-5,0-.8.5-1.6,1.2-1.9-.2-.1-.5-.3-.7-.5-.4-.4-.6-1-.6-1.6.2-4.3,1.9-5.6,7.3-5.6s7.4.5,7.6,5.6c0,.6-.2,1.1-.6,1.5,0,0-.2.2-.3.3h2.1c0-3.8-.3-4.6-.6-5.2-.9-2.3-2.6-2.8-8.2-2.8h0ZM313.5,28.2c.6,0,1.4,0,2.5,0s1.6,0,2,0h-4.5Z"/>
          </g>
          <g>
            <path class="st11" d="M345.3,20.6c0-1.6,0-2.3-5-2.3s-5,0-5,2,0,1.2,1.7,1.4l8.9.7c3.5.3,5.4,1.7,5.4,6.2,0,6.3-4.4,6.6-10.4,6.6-8.6,0-10.8-1.1-10.8-7.5h5.2c0,1.7,0,1.9.4,2.2.9.8,3.9.8,5.2.8,5.2,0,5.2-.8,5.2-2.2s-.2-1.5-2-1.7l-9.1-.8c-3.9-.3-4.8-3.2-4.8-5.7,0-6,4.5-6.6,10.1-6.6,9.4,0,10.2,2.1,10.2,6.9h-5.2,0Z"/>
            <path class="st4" d="M340.8,37.3c-8.9,0-12.9-1.4-12.9-9.7s.7-1.9,1.7-2.1c-1-1.3-1.6-3.1-1.6-5.2,0-8.7,8-8.7,12.3-8.7,9.4,0,12.3,2.1,12.3,9,0,.6-.2,1.1-.6,1.5-.1.2-.3.3-.5.4,1.3,1.4,1.9,3.4,1.9,6.1,0,8.8-7.2,8.8-12.5,8.8h0ZM332.2,29.8c.3,2.5,1.6,3.3,8.6,3.3s8.3-.7,8.3-4.5-1-3.9-3.4-4l-8.9-.7c-2.4-.2-3.7-1.4-3.7-3.5,0-4.1,3.8-4.1,7.1-4.1s5,.2,6.1,1.4c.3.3.5.6.6.9h1.2c-.4-1.9-1.8-2.6-8-2.6s-8,1.1-8,4.4,1.1,3.4,2.9,3.5l9.1.8c3.2.3,3.9,2.2,3.9,3.8,0,4-3.2,4.3-7.3,4.3s-5.4-.2-6.6-1.3c-.6-.5-.8-1-.9-1.6h-1,0ZM337.6,28.4c.3,0,.8,0,1.4.1h-1.4Z"/>
          </g>
          <g>
            <path class="st11" d="M358.7,9h5.4v5h6.4v5h-6.4v8.8c0,2,.5,2.4,3.7,2.4s2.3,0,2.9,0v5c-1.2.1-2.4.1-2.9.1-7.2,0-9.1-1.2-9.1-5.7v-10.5h-4.4v-5h4.4v-5h0Z"/>
            <path class="st4" d="M367.8,37.4c-6.1,0-11.2-.6-11.2-7.8v-8.4h-2.3c-1.2,0-2.1-1-2.1-2.1v-5c0-1.2,1-2.1,2.1-2.1h2.3v-2.9c0-1.2,1-2.1,2.1-2.1h5.4c1.2,0,2.1,1,2.1,2.1v2.9h4.2c1.2,0,2.1,1,2.1,2.1v5c0,1.2-1,2.1-2.1,2.1h-4.2v6.8c.3,0,.8,0,1.6,0,1.7,0,2.1,0,2.6,0h.2c.6,0,1.2.2,1.6.6.4.4.7,1,.7,1.5v5c0,1.1-.8,2-1.9,2.1-1.3.2-2.6.2-3.1.2h0ZM356.4,16.9h2.3c1.2,0,2.1,1,2.1,2.1v10.5c0,2.5,0,3.6,7,3.6h.8v-.8h-.8c-2.9,0-5.8-.3-5.8-4.5v-8.8c0-1.2,1-2.1,2.1-2.1h4.2v-.8h-4.2c-1.2,0-2.1-1-2.1-2.1v-2.9h-1.2v2.9c0,1.2-1,2.1-2.1,2.1h-2.3s0,.8,0,.7Z"/>
          </g>
          <g>
            <path class="st2" d="M389.6,18.8v-9.7h4.4v9.7h9.8v4.3h-9.8v9.7h-4.4v-9.7h-9.8v-4.3s9.8,0,9.8,0Z"/>
            <path class="st4" d="M393.9,35h-4.4c-1.2,0-2.1-1-2.1-2.1v-7.6h-7.7c-1.2,0-2.1-1-2.1-2.1v-4.3c0-1.2,1-2.1,2.1-2.1h7.7v-7.6c0-1.2,1-2.1,2.1-2.1h4.4c1.2,0,2.1,1,2.1,2.1v7.6h7.7c1.2,0,2.1,1,2.1,2.1v4.3c0,1.2-1,2.1-2.1,2.1h-7.7v7.6c0,1.2-1,2.1-2.1,2.1ZM391.7,30.7h.1v-7.6c0-1.2,1-2.1,2.1-2.1h7.7c0,0-7.7,0-7.7,0-1.2,0-2.1-1-2.1-2.1v-7.6h-.1v7.6c0,1.2-1,2.1-2.1,2.1h-7.7c0,0,7.7,0,7.7,0,1.2,0,2.1,1,2.1,2.1v7.6Z"/>
          </g>
          <g>
            <path class="st3" d="M415.9,12.2h12.5v5.3c-1.5,10.8-6.3,15.3-10.2,18l-3.1-5.2c6.4-4.2,7.8-9.8,8.2-12.9h-7.5v-5.3h0ZM435.3,8.9c0,1,2,7.3,2.1,7.5,2.7-2.4,5.1-4.9,7.4-7.7l4.7,3.5c-2.7,3.3-8,7.7-9.6,8.9,1.2,1.8,3.3,4.9,9.9,9.5l-3.1,5.4c-5-3.3-9.6-8.8-11.3-13.3v12.1c0,2.9-1.9,3.5-3.4,3.5h-7.1l-1.1-5.5h5.2c.5,0,1-.2,1-.9V4.7h5.5v4.2h0Z"/>
            <path class="st4" d="M431.8,40.4h-7.1c-1,0-1.9-.7-2.1-1.7l-.7-3.3c-.9.8-1.7,1.4-2.5,1.9-.5.3-1.1.5-1.7.3-.6-.1-1.1-.5-1.4-1l-3.1-5.2c-.6-1-.3-2.2.6-2.9,4.4-2.9,6.1-6.5,6.8-9h-4.9c-1.2,0-2.1-1-2.1-2.1v-5.3c0-1.2,1-2.1,2.1-2.1h11.8v-5.4c0-1.2,1-2.1,2.1-2.1h5.5c1.2,0,2.1.9,2.1,2.1v4.1c0,.5.5,2.1,1,3.7,1.7-1.7,3.3-3.4,4.7-5.2.7-.9,2-1,2.9-.4l4.7,3.5c.5.4.8.9.8,1.5s-.1,1.2-.5,1.6c-2.2,2.7-6,6-8.4,8,1.3,1.7,3.6,4.1,8.2,7.3.9.6,1.2,1.8.6,2.8l-3.1,5.4c-.3.5-.8.9-1.4,1s-1.2,0-1.7-.3c-3-2-5.8-4.6-8-7.4v4.4c0,3.4-2.2,5.7-5.6,5.7h0ZM426.5,36.1h5.4c1,0,1.3-.3,1.3-1.4v-12.1c0-1,.7-1.9,1.8-2.1,1-.2,2,.4,2.4,1.4,1.3,3.6,4.7,7.9,8.6,11l1-1.7c-5.8-4.2-7.8-7.2-8.9-8.9-.6-.9-.4-2.2.5-2.9,1.3-1,5.1-4.1,7.8-6.9l-1.2-.9c-1.9,2.2-4,4.3-6.3,6.4-.5.4-1.2.6-1.8.5-.6-.1-1.2-.5-1.5-1.1-.2-.4-2.3-7.1-2.3-8.4v-2.1h-1.2v25.1c0,1.7-1.3,3-3.1,3h-2.6l.2,1.2h0ZM418,31l.9,1.5c3.1-2.6,6.3-6.9,7.5-15.1v-3h-8.3v1.1h5.4c.6,0,1.2.3,1.6.7s.6,1.1.5,1.7c-.8,5.5-3.3,9.8-7.5,13.1h0ZM426.1,30.6h1.6v-2.8c-.5,1-1,2-1.6,2.8Z"/>
          </g>
          <g>
            <path class="st2" d="M471.1,18.8v-9.7h4.4v9.7h9.8v4.3h-9.8v9.7h-4.4v-9.7h-9.8v-4.3s9.8,0,9.8,0Z"/>
            <path class="st4" d="M475.4,35h-4.4c-1.2,0-2.1-1-2.1-2.1v-7.6h-7.7c-1.2,0-2.1-1-2.1-2.1v-4.3c0-1.2,1-2.1,2.1-2.1h7.7v-7.6c0-1.2,1-2.1,2.1-2.1h4.4c1.2,0,2.1,1,2.1,2.1v7.6h7.7c1.2,0,2.1,1,2.1,2.1v4.3c0,1.2-1,2.1-2.1,2.1h-7.7v7.6c0,1.2-1,2.1-2.1,2.1ZM473.2,30.7h.1v-7.6c0-1.2,1-2.1,2.1-2.1h7.7c0,0-7.7,0-7.7,0-1.2,0-2.1-1-2.1-2.1v-7.6h-.1v7.6c0,1.2-1,2.1-2.1,2.1h-7.7c0,0,7.7,0,7.7,0,1.2,0,2.1,1,2.1,2.1v7.6Z"/>
          </g>
          <g>
            <path class="st0" d="M512.9,28.9h-11.7l-2.2,6.1h-6.7l10.9-27.9h7.6l10.9,27.9h-6.6l-2.2-6.1h0ZM503,23.8h8.1l-4-11.2-4,11.2h0Z"/>
            <path class="st4" d="M521.8,37.1h-6.6c-.9,0-1.7-.6-2-1.4l-1.7-4.7h-8.8l-1.7,4.7c-.3.8-1.1,1.4-2,1.4h-6.7c-.7,0-1.4-.3-1.8-.9-.4-.6-.5-1.3-.2-2l10.9-27.9c.3-.8,1.1-1.4,2-1.4h7.6c.9,0,1.7.5,2,1.4l10.9,27.9c.2.7.2,1.4-.2,2-.4.6-1,.9-1.8.9ZM516.6,32.8h2l-9.2-23.7h-4.7l-9.3,23.7h2.1l1.7-4.7c.3-.8,1.1-1.4,2-1.4h11.7c.9,0,1.7.6,2,1.4l1.7,4.7h0ZM511.1,26h-8.1c-.7,0-1.3-.3-1.7-.9-.4-.6-.5-1.3-.3-1.9l4-11.2c.3-.8,1.1-1.4,2-1.4s1.7.6,2,1.4l4,11.2c.2.7.1,1.4-.3,1.9-.4.6-1,.9-1.7.9h0ZM506,21.7h2l-1-2.8-1,2.8h0Z"/>
          </g>
          <g>
            <path class="st0" d="M530.1,14.1v2.3c1.6-2.1,4.1-2.6,7.5-2.6,5.8,0,8,1.6,8,6.7v14.5h-5.3v-13.3c0-1.8-.9-2.9-4.2-2.9-5.1,0-5.6,1.7-5.6,4v12.2h-5.3V14h5.1,0Z"/>
            <path class="st4" d="M545.6,37.1h-5.3c-1.2,0-2.1-1-2.1-2.1v-13.3c0-.4,0-.5,0-.5,0,0-.4-.3-2.1-.3-3.5,0-3.5.5-3.5,1.9v12.2c0,1.2-1,2.1-2.1,2.1h-5.3c-1.2,0-2.1-1-2.1-2.1V14c0-1.2,1-2.1,2.1-2.1h5.1c.6,0,1.2.2,1.5.7,1.8-.8,3.9-1,5.9-1,5,0,10.2,1,10.2,8.8v14.5c0,1.2-1,2.1-2.1,2.1h0ZM542.4,32.8h1.1v-12.3c0-4.2-1.7-4.6-5.9-4.6s-3.9.3-4.9,1c.9-.2,2-.3,3.3-.3,4.2,0,6.4,1.7,6.4,5v11.2ZM527.2,32.8h1.1v-10.1c0-1.9.4-3.3,1.4-4.3h0c-.9-.2-1.5-1-1.5-2v-.3h-1v16.6h0Z"/>
          </g>
          <g>
            <path class="st0" d="M556.5,7v4.9h-5.6v-4.9h5.6ZM556.5,14.1v20.9h-5.4V14.1h5.4Z"/>
            <path class="st4" d="M556.5,37.1h-5.4c-1.2,0-2.1-1-2.1-2.1V14.1c0-.4,0-.7.2-1-.2-.3-.3-.7-.3-1.2v-4.9c0-1.2,1-2.1,2.1-2.1h5.6c1.2,0,2.1.9,2.1,2.1v4.9c0,.4-.1.8-.3,1.1.2.3.3.6.3,1v20.9c0,1.2-1,2.1-2.1,2.1ZM553.2,32.8h1.2v-16.6h-1.2v16.6ZM553.1,9.8h1.3v-.6h-1.3v.6Z"/>
          </g>
          <g>
            <path class="st0" d="M567.2,14.1v2.2c.7-.8,2.1-2.5,6-2.5s4.8,1.5,5.6,2.8c1.5-2.8,5.4-2.9,6.1-2.9,5.3,0,6.6,2.8,6.6,6v15.2h-5.4v-13.6c0-1.7-1-2.5-3-2.5s-3.6.7-3.6,3.1v13h-5.3v-13.4c0-.9,0-2.8-3.1-2.8s-3.6,2.2-3.6,3.4v12.8h-5.4V14.1h5.2Z"/>
            <path class="st4" d="M591.5,37.1h-5.4c-1.2,0-2.1-1-2.1-2.1v-13.6c0-.2,0-.3,0-.3,0,0-.3,0-.9,0-1.5,0-1.5.2-1.5,1v13c0,1.2-1,2.1-2.1,2.1h-5.3c-1.2,0-2.1-1-2.1-2.1v-13.4c0-.1,0-.4,0-.5,0,0-.3-.1-1-.1-1.5,0-1.5.2-1.5,1.2v12.8c0,1.2-1,2.1-2.1,2.1h-5.4c-1.2,0-2.1-1-2.1-2.1V14.1c0-1.2,1-2.1,2.1-2.1h5.2c.6,0,1.1.2,1.5.6,1.1-.5,2.6-.9,4.6-.9,2.9,0,4.5.7,5.7,1.7,2.1-1.5,4.8-1.7,6-1.7,5.6,0,8.7,2.9,8.7,8.1v15.2c0,1.2-1,2.1-2.1,2.1h0ZM588.3,32.8h1.1v-13.1c0-2.5-.7-3.9-4.4-3.9s-2.5,0-3.6,1c.5-.1,1.1-.1,1.7-.1,3.8,0,5.2,2.4,5.2,4.6v11.5h0ZM576.2,32.8h1.1v-10.9c0-1,.2-2.2.9-3.3-.5-.1-1-.5-1.2-.9-.7-1.2-1.1-1.8-3.8-1.8s-2.8.4-3.4.9c.4,0,.8,0,1.2,0,1.6,0,5.2.5,5.2,4.9v11.2h0ZM564.2,32.8h1.1v-10.6c0-1.8.5-3.1,1.3-3.9-.8-.3-1.3-1-1.4-1.9v-.2h-1v16.6Z"/>
          </g>
          <g>
            <path class="st0" d="M616.6,30c0,2.7.2,4,.5,4.9h-5c-.1-.9-.2-1.4-.2-2.1-1.3,2.1-3,2.3-7.5,2.3s-8.6-.2-8.6-6.4.2-6.2,5.4-6.5l9.1-.5c.6,0,1.4,0,1.4-1.5s-1.1-2-4.6-2-5.4.2-5.3,2.4h-5.2c0-5.9,3.3-6.9,10-6.9s10.2.4,10.2,6.9v9.4ZM611.6,25.3c-.2.3-.5.8-2,.8l-6.6.4c-2.2.1-2.3,1.2-2.3,2.1,0,1.8,1.3,2,4.8,2s6.1-.2,6.1-3.2v-2.2h0Z"/>
            <path class="st4" d="M604.2,37.3c-4,0-10.7,0-10.7-8.5s.6-4.8,1.8-6.2c-.2,0-.4-.2-.5-.4-.4-.4-.6-1-.6-1.5,0-8.3,6.1-9,12.2-9s12.4,0,12.4,9v9.4c0,2.5.2,3.5.4,4.4.2.6,0,1.3-.4,1.8s-1,.8-1.7.8h-5c-.5,0-1-.2-1.3-.5-1.7.7-3.8.8-6.4.8h0ZM610,23.9l-8.9.5c-2.9.2-3.4,1.6-3.4,4.4s1.3,4.3,6.5,4.3,4.4-.2,5-.6c-1.3.3-2.7.3-3.7.3-2.9,0-7,0-7-4.2s2.3-4.1,4.3-4.2l6.6-.4c.2,0,.4,0,.5,0,0,0,0,0,0,0h0ZM613.9,32.8h.6c0-.7,0-1.6,0-2.8v-9.4c0-4-1.3-4.8-8.1-4.8s-7.2.7-7.7,2.7h1.1c.2-.4.4-.7.7-1,1.2-1.3,3.1-1.3,6.5-1.3s6.8,0,6.8,4.1-.2,2.2-1.4,3c.9.3,1.5,1.1,1.5,2v2.2c0,1.5-.5,2.6-1.2,3.4.8.3,1.3,1,1.3,1.9h0s0,0,0,0ZM604.9,28.6h.7c1.6,0,2.6,0,3.1-.2l-3.8.2h0Z"/>
          </g>
          <g>
            <path class="st0" d="M627.5,7v27.9h-5.4V7s5.4,0,5.4,0Z"/>
            <path class="st4" d="M627.5,37.1h-5.4c-1.2,0-2.1-1-2.1-2.1V7c0-1.2,1-2.1,2.1-2.1h5.4c1.2,0,2.1.9,2.1,2.1v27.9c0,1.2-1,2.1-2.1,2.1ZM624.2,32.8h1.2V9.1h-1.2v23.7Z"/>
          </g>
          <g>
            <path class="st2" d="M647.3,18.8v-9.7h4.4v9.7h9.8v4.3h-9.8v9.7h-4.4v-9.7h-9.8v-4.3s9.8,0,9.8,0Z"/>
            <path class="st4" d="M651.7,35h-4.4c-1.2,0-2.1-1-2.1-2.1v-7.6h-7.7c-1.2,0-2.1-1-2.1-2.1v-4.3c0-1.2,1-2.1,2.1-2.1h7.7v-7.6c0-1.2,1-2.1,2.1-2.1h4.4c1.2,0,2.1,1,2.1,2.1v7.6h7.7c1.2,0,2.1,1,2.1,2.1v4.3c0,1.2-1,2.1-2.1,2.1h-7.7v7.6c0,1.2-1,2.1-2.1,2.1ZM649.4,30.7h.1v-7.6c0-1.2,1-2.1,2.1-2.1h7.7c0,0-7.7,0-7.7,0-1.2,0-2.1-1-2.1-2.1v-7.6h-.1v7.6c0,1.2-1,2.1-2.1,2.1h-7.7c0,0,7.7,0,7.7,0,1.2,0,2.1,1,2.1,2.1v7.6Z"/>
          </g>
          <g>
            <path class="st6" d="M682.2,5.8c-2.1,4.2-4.3,6.7-7.6,9.4l-1.7-5.6c2-1.3,3.5-3.4,4.5-5.1l4.8,1.3h0ZM686.4,15.6v-2.9h-4.3v-4.8h4.3v-3.1h5v3.1h4.3v4.8h-4.3v2.9h4.9v4.8h-4.9v2.8h4.6v4.9h-4.6v3c2.5-.3,3.9-.5,5-.7v2.6h2.8c.8,0,1-.1,1-1.2v-11.8h-3.2v-5.1h10.1v5.1h-1.8v14.4c0,1.9,0,3.8-3.2,3.8h-5.2l-.5-3.1c-7.7,1.3-9.8,1.5-14.5,1.9l-.6-5c1.3,0,2.8-.1,5.2-.3v-3.6h-4.4v-4.9h4.4v-2.8h-4.6v-2.7c-.2.3-.5.9-1.2,2v18.5h-4.9v-12.3c-.8.7-1,.9-1.8,1.5l-1-7c2.5-1.9,4.1-3.8,6-7.7l4.1,2.5-.2.4h3.7,0ZM706.4,10.7h-9.3v-5h9.3v5Z"/>
            <path class="st4" d="M702,40.4h-5.2c-1,0-1.9-.8-2.1-1.8l-.2-1c-5.7.9-8,1.2-12,1.5-.3.7-1.1,1.3-1.9,1.3h-4.9c-1.2,0-2.1-1-2.1-2.1v-8.8c-.2,0-.3,0-.5-.1-.7-.3-1.2-.9-1.3-1.7l-1-7c-.1-.8.2-1.5.8-2,.7-.5,1.3-1.1,1.9-1.7-.5-.3-.8-.7-1-1.2l-1.7-5.6c-.3-.9,0-1.9.9-2.4,2-1.3,3.3-3.5,3.8-4.4.5-.9,1.5-1.3,2.4-1l4.8,1.3c.6.2,1.1.6,1.4,1.2,0,.2.1.3.2.5v-.8c0-1.2,1-2.1,2.1-2.1h5c1.2,0,2.1.9,2.1,2.1v1h1.5c0-1.2,1-2.1,2.1-2.1h9.3c1.2,0,2.1.9,2.1,2.1v5c0,1-.7,1.8-1.6,2.1h0c1.2,0,2.1,1,2.1,2.1v5.1c0,1.1-.8,2-1.8,2.1v12.3c0,1.8,0,6-5.3,6h0ZM698.6,36.1h3.4c.7,0,.9-.1.9-.1,0-.2,0-1,0-1.6v-14.4c0-1.1.8-2,1.8-2.1v-.8h-5.8v.8h1.1c1.2,0,2.1,1,2.1,2.1v11.8c0,2.2-1,3.3-3.1,3.3h-.8l.2,1ZM677.8,36.1h.6v-16.4c0-.4.1-.8.3-1.1.4-.7.7-1.1.9-1.5.2-.3.3-.5.4-.6,0-.1.2-.3.3-.4l-.7-.4c-1.3,2.3-2.7,4-4.5,5.6l.4,2.5c.3,0,.7,0,1,.2.8.3,1.3,1.1,1.3,1.9v10.2h0ZM683.6,34v.7c3.2-.3,5.5-.6,10.8-1.5,0,0,0-.2,0-.3v-.2c-.8.1-1.7.2-2.7.4-.6,0-1.2-.1-1.7-.5-.5-.4-.7-1-.7-1.6v-3c0-1.2,1-2.1,2.1-2.1h2.5v-.6h-2.5c-1.2,0-2.1-1-2.1-2.1v-2.8c0-1.2,1-2.1,2.1-2.1h2.8v-.5h-2.8c-1.2,0-2.1-1-2.1-2.1v-2.9c0-1.2,1-2.1,2.1-2.1h2.2v-.6h-2.2c-1.2,0-2.1-1-2.1-2.1v-1h-.7v1c0,1.2-1,2.1-2.1,2.1h-2.2v.6h2.2c1.2,0,2.1,1,2.1,2.1v2.9c0,1.2-1,2.1-2.1,2.1h-2.5v.5h2.5c1.2,0,2.1,1,2.1,2.1v2.8c0,1.2-1,2.1-2.1,2.1h-2.3v.6h2.3c1.2,0,2.1,1,2.1,2.1v3.6c0,1.1-.8,2-1.9,2.1-1.2.1-2.2.2-3,.2h0ZM697.9,28.9s0,0,.1.1v-.5c0,.1,0,.3-.1.4ZM697.8,22.1c.1.2.2.5.3.7v-.7h-.3ZM675.4,10.5l.3,1c1.3-1.3,2.4-2.7,3.4-4.2l-.7-.2c-.7,1.1-1.7,2.3-3,3.4h0ZM699.3,8.6h5v-.8h-5v.8Z"/>
          </g>
          <g>
            <path class="st2" d="M728.8,18.8v-9.7h4.4v9.7h9.8v4.3h-9.8v9.7h-4.4v-9.7h-9.8v-4.3s9.8,0,9.8,0Z"/>
            <path class="st4" d="M733.2,35h-4.4c-1.2,0-2.1-1-2.1-2.1v-7.6h-7.7c-1.2,0-2.1-1-2.1-2.1v-4.3c0-1.2,1-2.1,2.1-2.1h7.7v-7.6c0-1.2,1-2.1,2.1-2.1h4.4c1.2,0,2.1,1,2.1,2.1v7.6h7.7c1.2,0,2.1,1,2.1,2.1v4.3c0,1.2-1,2.1-2.1,2.1h-7.7v7.6c0,1.2-1,2.1-2.1,2.1ZM730.9,30.7h.1v-7.6c0-1.2,1-2.1,2.1-2.1h7.7c0,0-7.7,0-7.7,0-1.2,0-2.1-1-2.1-2.1v-7.6h-.1v7.6c0,1.2-1,2.1-2.1,2.1h-7.7c0,0,7.7,0,7.7,0,1.2,0,2.1,1,2.1,2.1v7.6Z"/>
          </g>
          <g>
            <path class="st8" d="M768.9,4.8h5.7v5.5c0,1.8.5,7.3,3.3,12.9,3,6.1,9,8.9,11.1,10l-3.5,5.1c-6.3-3.5-11.3-9-13.7-16.6-2.2,7.8-8.1,13.4-13.8,16.6l-3.6-5c5.3-2.3,9.1-5.7,11.6-10.8,1.8-3.6,2.9-8.2,2.9-12.2v-5.5h0Z"/>
            <path class="st4" d="M785.5,40.4c-.3,0-.7,0-1-.3-5.6-3.1-9.9-7.5-12.7-12.9-2.7,5.2-7.2,9.7-12.8,12.8-1,.5-2.1.3-2.8-.6l-3.6-5c-.4-.5-.5-1.2-.3-1.8s.6-1.1,1.2-1.4c5-2.2,8.3-5.3,10.6-9.8,1.7-3.4,2.7-7.6,2.7-11.3v-5.5c0-1.2,1-2.1,2.1-2.1h5.7c1.2,0,2.1.9,2.1,2.1v5.5c0,.2,0,5.9,3,12,2.7,5.5,8.1,8,10.1,9,.6.3,1,.8,1.2,1.4.2.6,0,1.2-.3,1.8l-3.5,5.1c-.4.6-1.1.9-1.8.9h0ZM757.5,34.1l1,1.4c3.5-2.3,9.1-6.9,11.2-14.4.3-.9,1.1-1.5,2-1.5h0c.9,0,1.8.6,2,1.5,1.9,6.1,5.6,10.9,11.1,14.4l1-1.5c-3-1.6-7.3-4.6-9.9-9.8-3.4-6.9-3.5-13.2-3.5-13.9v-3.4h-1.5v3.4c0,4.3-1.2,9.2-3.1,13.2-2.3,4.6-5.7,8.1-10.3,10.6h0Z"/>
          </g>
        </g>
        <g>
          <path class="st5" d="M10.7,33.6c-2,.7-3.9,1.2-5.9,1.7l-.5-5.6c.8-.1,1.4-.2,2.9-.5v-7.4h-2.1v-4.9h2.1v-5.9h-2.4v-5h9.7v5h-2.3v5.9h1.8v4.9h-1.8v6.2c1.2-.3,1.8-.5,2.4-.7l.2,4.4c3.1-1.2,4.8-2.5,5.6-3.2h-4.4v-7.9h20.8v7.9h-.5l2.3,1.6c-.9.9-1.2,1.2-3,2.7,1.6.7,2.3,1,3,1.2l-2.5,4.5c-5.8-2.6-8.1-4.9-9.6-6.6v6.5h-5.1v-5.1c-3.5,2.6-6.8,4-8.3,4.6l-2.5-4.2h0ZM38.2,15.5v3.9H14.3v-3.9h23.9ZM37.5,5.5v8.9H15.4V5.5s22.1,0,22.1,0ZM19.9,8.9v2.3h2.1v-2.3h-2.1ZM20.8,23.5v1.9h11v-1.9h-11ZM25.3,8.9v2.3h2.1v-2.3h-2.1ZM28.7,28.5c.6.5,1.4,1.1,3,2.1,1.1-1,1.7-1.5,2.3-2.1h-5.3ZM30.7,8.9v2.3h2.3v-2.3h-2.3Z"/>
          <path class="st5" d="M40.3,28.7c1-.2,1.8-.3,3.5-.8v-10h-3.1v-5.1h3.1V4.7h5.1v8.1h2v5.1h-2v8.4c.6-.2,1-.4,2.4-.9l.2,4.9c-3.8,2-6.9,3-10.6,4l-.7-5.5h0ZM73,18.1v11.3h-5.2v3.2c0,.9,0,1.1.8,1.1h.7c.9,0,1,0,1.2-3l4.2.8c-.4,5.3-.7,6.7-3.9,6.7h-4.6c-3.3,0-3.3-1.7-3.3-3.3v-5.4h-1.9c-.3,4.1-2.3,7.4-9.6,9.2l-2.3-4.7c4-.6,6.6-1.5,7.2-4.6h-3.2v-11.3h20ZM52.6,6.7h7.6v-2h5.3v2h8.3v4.1h-2.8c-.2.9-.3,1.2-.6,2h4v4h-22.9v-4h3.9c-.3-1.5-.3-1.7-.5-2h-2.4s0-4.1,0-4.1ZM58,21.2v1.4h10v-1.5s-10,0-10,0ZM58,24.9v1.5h10v-1.5h-10ZM60.1,10.8c0,.4.3,1.5.4,2h4.6c.2-.5.3-.9.5-2h-5.6Z"/>
          <path class="st2" d="M110.3,14.9v4.3h-24v-4.3h24ZM110.3,22.8v4.3h-24v-4.3h24Z"/>
          <path class="st9" d="M132.5,17.9h-1.7v9c.7-.2,1.2-.4,2.3-.8v5c-3.2,1.5-7.7,2.9-10.6,3.7l-.8-5.6c1-.1,1.6-.2,3.9-.7v-10.5h-3.3v-5.1h3.3V4.6h5.2v8.2h2.4v2.5l1.3-.4v-7.2h5v5.9l2.8-.7V4.6h5v7.1l7.9-2c0,4-.2,12.5-.6,14.9-.1.9-.5,3.5-3.4,3.5h-2.6l-1-5.2h1.1c1.1,0,1.5,0,1.5-6.5l-2.9.7v12.7h-5v-11.4l-2.8.7v12.5c0,.4.2.8,1,.8h9c1.1,0,1.6,0,1.8-4l4.9,1.1c-.2,4.4-.7,8.1-4.6,8.1h-12.9c-3.8,0-4-2.5-4-3.9v-13.4l-1.7.5-.3-3h0Z"/>
          <path class="st9" d="M167.8,32.7c-2.9,1-6.3,2.1-9.1,2.6l-.7-5.6c.9-.1,1.7-.2,3.9-.7v-7.4h-3.1v-4.9h3.1v-5.6h-3.5v-4.9h11.7v3.6h8.1v-5h5v5h4.1c-1.1-1.5-2.5-2.5-3.3-3l3.2-2.4c.5.3,2.6,1.8,4,3.3l-2.8,2.2h3.6v5.1h-8.8v1.4c.3,1.4.6,2.9,1.6,5.2.8-1.1,2.2-3.6,3.1-6l4.3,2c-.7,1.6-2.1,4.6-3.8,6.9l-3.3-2c2.8,5.8,6.1,8.4,7.5,9.4l-2.8,5.3c-3.4-3.4-4.8-5.8-6.7-9.7v7.5c0,1,0,3.5-3.3,3.5h-5.6l-.7-5.2h3.5c.8,0,1.1-.2,1.1-.8V14.8h-8.1v-3.8h-3.1v5.6h2.8v1l3.9-2.2c.9,1,3,3.9,4,6.4l-4.3,2.4c-.7-2.2-2.5-5-3.6-6.3v3.5h-2.8v6.2c1.7-.5,2.3-.7,3.2-1l.2,2.3c3.2-2.4,4.3-3.8,4.9-4.5l2.5,4c-2.9,3.9-7.6,7.2-8.3,7.8l-1.7-3.6h0Z"/>
          <path class="st2" d="M213.8,18.8v-9.7h4.4v9.7h9.8v4.3h-9.8v9.7h-4.4v-9.7h-9.8v-4.3h9.8,0Z"/>
          <path class="st11" d="M258.8,7v5.3h-15.6v6.6h14.9v5.4h-14.9v10.7h-5.9V7s21.4,0,21.4,0Z"/>
          <path class="st11" d="M282.9,24.1c0,8.5-1.3,11.1-10.1,11.1s-11.2-.6-11.2-10.2,1.6-11.3,10.7-11.3,10.7,1,10.7,10.3h0ZM272.5,30.3c4.7,0,5-.6,5-6.1s-.9-5.4-5.6-5.4-5,.7-5,5.9.4,5.7,5.6,5.7h0Z"/>
          <path class="st11" d="M292.1,14.1l.2,2.1c1.6-2.4,3.1-2.4,9.8-2.3v5.2c-5.3,0-6,0-6.6.2-1.5.3-3.1,1.2-3.1,3.3v12.4h-5.4V14.1h5.2,0Z"/>
          <path class="st11" d="M310.3,26c0,3.8.1,4.3,5.6,4.3s4.9-.8,5-2.6h5.4c-.2,6.2-3.4,7.5-10,7.5s-11.3-1.2-11.3-10.2.9-11.3,10.5-11.3,8.6.5,10.2,4.1c.5,1.1.9,2.4.7,8.1h-16ZM321,22.2c-.1-3-.5-3.5-5.5-3.5s-5,1-5.2,3.5h10.6Z"/>
          <path class="st11" d="M345.3,20.6c0-1.6,0-2.3-5-2.3s-5,0-5,2,0,1.2,1.7,1.4l8.9.7c3.5.3,5.4,1.7,5.4,6.2,0,6.3-4.4,6.6-10.4,6.6-8.6,0-10.8-1.1-10.8-7.5h5.2c0,1.7,0,1.9.4,2.2.9.8,3.9.8,5.2.8,5.2,0,5.2-.8,5.2-2.2s-.2-1.5-2-1.7l-9.1-.8c-3.9-.3-4.8-3.2-4.8-5.7,0-6,4.5-6.6,10.1-6.6,9.4,0,10.2,2.1,10.2,6.9h-5.2,0Z"/>
          <path class="st11" d="M358.7,9h5.4v5h6.4v5h-6.4v8.8c0,2,.5,2.4,3.7,2.4s2.3,0,2.9,0v5c-1.2.1-2.4.1-2.9.1-7.2,0-9.1-1.2-9.1-5.7v-10.5h-4.4v-5h4.4v-5h0Z"/>
          <path class="st2" d="M389.6,18.8v-9.7h4.4v9.7h9.8v4.3h-9.8v9.7h-4.4v-9.7h-9.8v-4.3s9.8,0,9.8,0Z"/>
          <path class="st3" d="M415.9,12.2h12.5v5.3c-1.5,10.8-6.3,15.3-10.2,18l-3.1-5.2c6.4-4.2,7.8-9.8,8.2-12.9h-7.5v-5.3h0ZM435.3,8.9c0,1,2,7.3,2.1,7.5,2.7-2.4,5.1-4.9,7.4-7.7l4.7,3.5c-2.7,3.3-8,7.7-9.6,8.9,1.2,1.8,3.3,4.9,9.9,9.5l-3.1,5.4c-5-3.3-9.6-8.8-11.3-13.3v12.1c0,2.9-1.9,3.5-3.4,3.5h-7.1l-1.1-5.5h5.2c.5,0,1-.2,1-.9V4.7h5.5v4.2h0Z"/>
          <path class="st2" d="M471.1,18.8v-9.7h4.4v9.7h9.8v4.3h-9.8v9.7h-4.4v-9.7h-9.8v-4.3s9.8,0,9.8,0Z"/>
          <path class="st7" d="M512.9,28.9h-11.7l-2.2,6.1h-6.7l10.9-27.9h7.6l10.9,27.9h-6.6l-2.2-6.1h0ZM503,23.8h8.1l-4-11.2-4,11.2h0Z"/>
          <path class="st7" d="M530.1,14.1v2.3c1.6-2.1,4.1-2.6,7.5-2.6,5.8,0,8,1.6,8,6.7v14.5h-5.3v-13.3c0-1.8-.9-2.9-4.2-2.9-5.1,0-5.6,1.7-5.6,4v12.2h-5.3V14h5.1,0Z"/>
          <path class="st7" d="M556.5,7v4.9h-5.6v-4.9h5.6ZM556.5,14.1v20.9h-5.4V14.1h5.4Z"/>
          <path class="st7" d="M567.2,14.1v2.2c.7-.8,2.1-2.5,6-2.5s4.8,1.5,5.6,2.8c1.5-2.8,5.4-2.9,6.1-2.9,5.3,0,6.6,2.8,6.6,6v15.2h-5.4v-13.6c0-1.7-1-2.5-3-2.5s-3.6.7-3.6,3.1v13h-5.3v-13.4c0-.9,0-2.8-3.1-2.8s-3.6,2.2-3.6,3.4v12.8h-5.4V14.1h5.2Z"/>
          <path class="st7" d="M616.6,30c0,2.7.2,4,.5,4.9h-5c-.1-.9-.2-1.4-.2-2.1-1.3,2.1-3,2.3-7.5,2.3s-8.6-.2-8.6-6.4.2-6.2,5.4-6.5l9.1-.5c.6,0,1.4,0,1.4-1.5s-1.1-2-4.6-2-5.4.2-5.3,2.4h-5.2c0-5.9,3.3-6.9,10-6.9s10.2.4,10.2,6.9v9.4ZM611.6,25.3c-.2.3-.5.8-2,.8l-6.6.4c-2.2.1-2.3,1.2-2.3,2.1,0,1.8,1.3,2,4.8,2s6.1-.2,6.1-3.2v-2.2h0Z"/>
          <path class="st7" d="M627.5,7v27.9h-5.4V7s5.4,0,5.4,0Z"/>
          <path class="st2" d="M647.3,18.8v-9.7h4.4v9.7h9.8v4.3h-9.8v9.7h-4.4v-9.7h-9.8v-4.3s9.8,0,9.8,0Z"/>
          <path class="st6" d="M682.2,5.8c-2.1,4.2-4.3,6.7-7.6,9.4l-1.7-5.6c2-1.3,3.5-3.4,4.5-5.1l4.8,1.3h0ZM686.4,15.6v-2.9h-4.3v-4.8h4.3v-3.1h5v3.1h4.3v4.8h-4.3v2.9h4.9v4.8h-4.9v2.8h4.6v4.9h-4.6v3c2.5-.3,3.9-.5,5-.7v2.6h2.8c.8,0,1-.1,1-1.2v-11.8h-3.2v-5.1h10.1v5.1h-1.8v14.4c0,1.9,0,3.8-3.2,3.8h-5.2l-.5-3.1c-7.7,1.3-9.8,1.5-14.5,1.9l-.6-5c1.3,0,2.8-.1,5.2-.3v-3.6h-4.4v-4.9h4.4v-2.8h-4.6v-2.7c-.2.3-.5.9-1.2,2v18.5h-4.9v-12.3c-.8.7-1,.9-1.8,1.5l-1-7c2.5-1.9,4.1-3.8,6-7.7l4.1,2.5-.2.4h3.7,0ZM706.4,10.7h-9.3v-5h9.3v5Z"/>
          <path class="st2" d="M728.8,18.8v-9.7h4.4v9.7h9.8v4.3h-9.8v9.7h-4.4v-9.7h-9.8v-4.3s9.8,0,9.8,0Z"/>
          <path class="st8" d="M768.9,4.8h5.7v5.5c0,1.8.5,7.3,3.3,12.9,3,6.1,9,8.9,11.1,10l-3.5,5.1c-6.3-3.5-11.3-9-13.7-16.6-2.2,7.8-8.1,13.4-13.8,16.6l-3.6-5c5.3-2.3,9.1-5.7,11.6-10.8,1.8-3.6,2.9-8.2,2.9-12.2v-5.5h0Z"/>
        </g>
      </g>
    </g>
  </g>
</svg>