<?xml version="1.0" encoding="UTF-8"?>
<svg id="_レイヤー_2" xmlns="http://www.w3.org/2000/svg" version="1.1" viewBox="0 0 525.7 28.9">
  <!-- Generator: Adobe Illustrator 30.2.1, SVG Export Plug-In . SVG Version: 2.1.1 Build 1)  -->
  <defs>
    <style>
      .st0 {
        fill: #23ab3a;
      }
    </style>
  </defs>
  <g>
    <path class="st0" d="M187.3,8.9h6.1v-2.6h2.6v2.6h6.2v9.5h-2.6v-.7h-3.6v4.7h-2.6v-4.7h-3.5v.7h-2.6v-9.5ZM190,11.4v3.8h3.5v-3.8h-3.5ZM196.1,11.4v3.8h3.6v-3.8h-3.6Z"/>
    <path class="st0" d="M214.4,6.8h7v6.6h-4.6v9h-2.4V6.8ZM216.8,8.6v.8h2.2v-.8h-2.2ZM216.8,10.9v.8h2.2v-.8h-2.2ZM225.8,20h.8c.5,0,.5-.3.5-.6v-6h-4.7v-6.6h7.1v13.8c0,1.8-1.4,1.8-1.5,1.8h-3.3l-.3-1.6h-6.4v-6.7h7.6v5.8h0ZM220.5,16v.8h3v-.8h-3ZM220.5,18.1v.9h3v-.9h-3ZM224.8,8.6v.8h2.4v-.8h-2.4ZM224.8,10.9v.8h2.4v-.8h-2.4Z"/>
    <path class="st0" d="M240.8,14.1c.9-1.4,1.9-3.2,2-7.8h2.4c0,1,0,1.4-.1,1.9h3.4c0,3.2-.4,7.2-1.8,10,1.1,1,2.9,1.6,4.6,1.6h6.2l-.5,2.5h-5.5c-3.7,0-5.6-1.6-6.1-2.1-1.1,1.3-2.2,2.1-2.8,2.5l-1.6-2.3c.7-.5,1.7-1.2,2.8-2.5-.1-.3-.4-.9-.8-2.1-.4.6-.5.8-.7,1.1l-1.5-2.7h0ZM244.8,10.5c-.1.5-.2,1.2-.5,1.9.3,1.6.6,2.6.8,3,.4-1.1.9-2.4,1-4.9h-1.3ZM255,6.8v9.2c0,.2,0,.4.1.4.4,0,.4,0,.5-.1,0-.1,0-2.4,0-2.6l1.8.4c0,2.2-.2,3.4-.3,3.6-.1.5-.2,1.2-1.3,1.2h-1.9c-1,0-1.3-.8-1.3-1.3v-8.2h-1.2v2c0,1.1,0,4.9-1.9,7.7l-2.1-1.3c1.7-2.2,1.7-5.5,1.7-6.5v-4.4h5.8Z"/>
    <path class="st0" d="M273.5,19.9c-.9.4-3.9,1.2-5,1.5l-.3-2.6c0,0,1.7-.4,2-.5v-3.7h-1.5v-2.4h1.5v-2.7h-1.7v-2.4h5.6v2.4h-1.4v2.7h1.3v2.4h-1.3v3.1c.8-.2,1-.3,1.4-.5v2.5c-.1,0,4,0,4,0v-1.2h-3.5v-2.1h3.5v-1.2h-3.5V6.7h9.6v8.5h-3.7v1.2h3.8v2.1h-3.8v1.2h4.1v2.3h-11v-2.1h0ZM276.6,8.9v1.2h1.4v-1.2h-1.4ZM276.6,11.8v1.3h1.4v-1.3h-1.4ZM280.3,8.9v1.2h1.4v-1.2h-1.4ZM280.3,11.8v1.3h1.4v-1.3h-1.4Z"/>
    <path class="st0" d="M301.7,16c0,1.5-.1,4.7-.4,5.6-.3.9-1.2.9-1.6.9h-1.2l-.6-2.4c-.4,1.3-.7,1.8-1,2.4l-1.6-2c1.3-2.4,1.3-4.8,1.3-5.8v-4h-1v-2.4h2.1v-2h2.5v2h1.8v.9c1.2-1.4,1.6-2.5,1.8-3l2.5.2c-.1.4-.2.7-.4,1.1h5.8v2.3h-7.1c-.2.3-.5.7-1,1.3h1.3v1.6l1-.2v-2.2h2.1v1.7l3.4-.9c0,1.2,0,3.6-.2,5.5-.1,1.2-.6,1.4-1,1.5l1.6.4c-.1,2.4-.2,3.6-2.1,3.6h-5.1c-.6,0-1.9,0-1.9-1.8v-4.7l-1,.2h0ZM298.9,19.9c.4,0,.5-.2.5-.4.1-.6.2-1.8.3-5h-.9v.3c0,.5,0,2.6-.8,5.1h.9ZM302.7,13.3v-1.3c0,0-.1.1-.3.2l-1-1.6h-2.7v1.5h3.1c0,.4,0,.6,0,1.4l.9-.2h0ZM308.4,18.2l-.3-2.1h.5c.2,0,.4,0,.4-.3,0-.1,0-1.4,0-1.7l-1.2.3v4.5h-2.1v-4l-1,.2v4c0,.6.3.6.6.6h3.4c.6,0,.7-.1.8-1.5h-1.2,0Z"/>
    <path class="st0" d="M322.7,9.2h6.8v1.9h-6.8s0-1.9,0-1.9ZM323.2,6.8h5.8v1.8h-5.8v-1.8ZM323.2,11.8h5.8v1.9h-5.8v-1.9ZM328.9,20.8v1h-3.5v.6h-2.3v-5.6h5.8v3c.5,0,1.4-.2,2.6-.8-.9-.9-1.4-1.5-1.7-2.1l1.9-1.1h-2.1v-2.4h8.4v2.4c-.3.6-.9,1.7-2.2,3.1,1.5.5,2.5.7,3.3.8l-1.1,2.6c-.8-.2-2.4-.7-4.3-1.7-1.2.8-2.5,1.3-4,1.7l-.8-1.6h0ZM323.2,14.3h5.8v1.9h-5.8v-1.9ZM325.5,18.7v1.3h1.4v-1.3h-1.4ZM329.1,12c1.1-.9,1.5-2.2,1.5-4.2s0-.7,0-1h5.8v3.2c0,.2,0,.3.3.3s.5,0,.5-.2c0-.5.1-1.3.1-1.7l1.9.5c0,.3,0,2-.3,2.8,0,.2-.3,1.1-1.4,1.1h-2c-.8,0-1.3-.3-1.3-1.2v-2.5h-1.3c-.2,2-.5,3-1.8,4.3l-1.8-1.4h0ZM331.8,16c.7,1.1,1.5,1.7,1.8,2,1.2-.9,1.5-1.6,1.7-2h-3.5Z"/>
  </g>
  <rect class="st0" width="525.7" height="2.8"/>
  <rect class="st0" y="26" width="525.7" height="2.8"/>
</svg>