<?xml version="1.0" encoding="UTF-8"?>
<svg id="_デザイン" data-name="デザイン" xmlns="http://www.w3.org/2000/svg" viewBox="0 0 200.0511 200.0736">
  <defs>
    <style>
      .cls-1 {
        fill: #231815;
      }

      .cls-2 {
        fill: #fff;
      }

      .cls-3 {
        fill: #e74d0c;
      }

      .cls-4 {
        fill-rule: evenodd;
      }

      .cls-4, .cls-5 {
        fill: #004f8d;
      }

      .cls-6 {
        opacity: .6;
      }

      .cls-7, .cls-5 {
        opacity: .5;
      }
    </style>
  </defs>
  <g id="pRwYfK" class="cls-7">
    <path class="cls-4" d="M97.7156,164.1016h-9.2509c-.3495-.0722-.6947-.1811-1.0457-.2123-6.7606-.5857-13.2014-2.2766-19.2108-5.4928-20.2027-10.8173-26.6463-36.4605-18.4042-54.951,3.6802-8.2606,9.4901-14.8005,16.6709-20.1137,3.8841-2.8737,8.0638-5.3456,12.1191-7.983,1.4404-.9382,1.4475-.917.9677-2.4946-1.9625-6.4494-3.9222-12.9008-5.8791-19.3524-.0749-.2454-.1173-.4994-.1909-.8234.9875.6027,1.8295,1.1991,2.7422,1.6561,4.9424,2.4811,10.0433,2.4217,15.188.7762,2.6842-.8597,5.299-1.9378,7.9875-2.7825,1.521-.4769,3.127-.682,4.6962-1.0096h5.7262c.8717.2079,1.7433.4167,2.673.6395-.0778.3389-.1246.5844-.1912.8236-1.8563,6.7839-3.7042,13.5721-5.5961,20.3462-.198.706-.0678,1.0797.5392,1.4263,1.3046.7457,2.5795,1.5431,3.8755,2.3042,7.7908,4.5646,14.925,9.9387,20.2919,17.3035,10.4013,14.2755,12.4996,29.6348,4.8631,45.7199-6.4225,13.5284-17.8213,20.6895-32.292,23.3269-2.0772.3778-4.1841.5986-6.2796.8929Z"/>
    <path class="cls-5" d="M97.7156,164.1016h-9.2509c-.3495-.0722-.6947-.1811-1.0457-.2123-6.7606-.5857-13.2014-2.2766-19.2108-5.4928-20.2027-10.8173-26.6463-36.4605-18.4042-54.951,3.6802-8.2606,9.4901-14.8005,16.6709-20.1137,3.8841-2.8737,8.0638-5.3456,12.1191-7.983,1.4404-.9382,1.4475-.917.9677-2.4946-1.9625-6.4494-3.9222-12.9008-5.8791-19.3524-.0749-.2454-.1173-.4994-.1909-.8234.9875.6027,1.8295,1.1991,2.7422,1.6561,4.9424,2.4811,10.0433,2.4217,15.188.7762,2.6842-.8597,5.299-1.9378,7.9875-2.7825,1.521-.4769,3.127-.682,4.6962-1.0096h5.7262c.8717.2079,1.7433.4167,2.673.6395-.0778.3389-.1246.5844-.1912.8236-1.8563,6.7839-3.7042,13.5721-5.5961,20.3462-.198.706-.0678,1.0797.5392,1.4263,1.3046.7457,2.5795,1.5431,3.8755,2.3042,7.7908,4.5646,14.925,9.9387,20.2919,17.3035,10.4013,14.2755,12.4996,29.6348,4.8631,45.7199-6.4225,13.5284-17.8213,20.6895-32.292,23.3269-2.0772.3778-4.1841.5986-6.2796.8929Z"/>
  </g>
  <g>
    <path class="cls-3" d="M170.5022,29.0387c-39.1969-38.914-102.5289-38.6897-141.4528.5067-38.9295,39.1984-38.7003,102.5571.4996,141.4838,39.1984,38.9267,102.5245,38.6904,141.4568-.5009,38.9226-39.1969,38.6977-102.5585-.5036-141.4896Z"/>
    <path class="cls-2" d="M100.0067,190.0043c-23.6311.0007-45.8657-9.1619-62.6428-25.8222-16.8535-16.7361-26.1808-39.0385-26.2643-62.7914h0c-.1727-49.0479,39.5804-89.0967,88.6156-89.2742h.3042c48.8979,0,88.7628,39.7014,88.9354,88.6488.1712,49.0352-39.5819,89.0677-88.6156,89.239h-.3325ZM100.0194,19.4353c-.0934,0-.1853,0-.2787.0007-44.9998.1627-81.4801,36.9161-81.323,81.9293h0c.0764,21.7994,8.6369,42.2639,24.1037,57.6232,15.3947,15.2879,35.8011,23.6962,57.4867,23.6969.1019,0,.2023,0,.3056-.0007,44.9983-.1563,81.48-36.8942,81.323-81.8939-.1599-44.9169-36.7463-81.3555-81.6173-81.3555Z"/>
  </g>
  <g>
    <g>
      <path class="cls-2" d="M78.9827,59.4807c.6395-.1316,1.1899-.2646,2.5794-.706v-5.4221h-2.0941v-2.1592h2.0941v-4.7614h-2.3148v-2.1818h6.9431v2.1818h-2.4026v4.7614h2.0277v2.1592h-2.0277v4.6736c1.323-.4627,1.8083-.6835,2.4026-.9481l.4854,2.0715c-2.0065.948-4.9595,2.0064-7.2078,2.513l-.4853-2.1819ZM87.1823,43.8526h12.1898v12.6298h-3.7694v4.1444c0,.617.1104.8151.7273.8151h1.1461c.3976,0,.4853-.1543.5518-.5505.1316-.6607.1755-1.9172.1755-2.4903l2.0502.4188c-.1103,3.2615-.3311,4.8491-1.8069,4.8491h-3.2402c-.9268,0-1.8522-.0877-1.8522-1.9173v-5.2693h-1.4545c-1.0146,4.6071-3.328,6.1947-7.0324,7.4724l-1.0796-2.2031c5.1802-1.3456,5.6867-4.2321,5.8636-5.2693h-2.4691v-12.6298ZM89.3868,45.8151v1.6739h7.737v-1.6739h-7.737ZM89.3868,49.3185v1.6753h7.737v-1.6753h-7.737ZM89.3868,52.846v1.6753h7.737v-1.6753h-7.737Z"/>
      <path class="cls-2" d="M84.8674,65.495c-.573,0-1.1178-.3219-1.3824-.8624l-1.0711-2.1854c-.9197.2915-1.8111.5384-2.6077.7181-.3991.0891-.8165.0169-1.1631-.2024-.3453-.2186-.5901-.5667-.6792-.9657l-.4853-2.1818c-.0892-.4033-.0128-.825.2108-1.1716.225-.3467.5787-.5886.9834-.6714.3735-.0771.723-.1549,1.3484-.3368v-2.7429h-.5532c-.8504,0-1.5395-.6897-1.5395-1.5401v-2.1592c0-.8504.6891-1.5402,1.5395-1.5402h.5532v-1.681h-.7739c-.8504,0-1.5409-.6898-1.5409-1.5402v-2.1818c0-.8504.6905-1.5402,1.5409-1.5402h6.9021c.2731-.2469.6353-.3976,1.0329-.3976h12.1898c.8504,0,1.5395.6898,1.5395,1.5402v12.6298c0,.3149-.0934.6071-.2561.8511.6862.1854,1.1617.82,1.1376,1.5388-.0962,2.8228-.2151,6.3369-3.3464,6.3369h-3.2402c-2.8044,0-3.3931-1.8805-3.3931-3.4575v-.8383c-1.4701,2.3297-3.6491,3.5331-6.4436,4.4974-.1656.0573-.3354.0842-.5024.0842ZM85.3273,54.8927v.8837c.0594-.0262.116-.0517.1755-.0778.0452-.0206.0919-.0382.14-.0545v-.7514h-.3155ZM82.6601,52.273c.0057.0049.0099.0099.0142.0148.0056-.0049.0099-.0099.0155-.0148-.0056-.005-.0099-.0099-.0155-.0149-.0043.005-.0085.0099-.0142.0149ZM85.3273,49.6532h.3155v-1.681h-.3155v1.681Z"/>
    </g>
    <g>
      <path class="cls-2" d="M112.0006,56.7697c-1.6753,1.4319-2.8865,1.9172-3.6803,2.2483l-.5292-.7711c-2.8002,1.2112-4.1444,1.63-5.1802,1.9385l-.2207-2.4026c.508-.109,2.0276-.5504,2.3814-.6608v-7.2743h-2.1607v-2.1818h2.1607v-4.4741h2.2257v4.4741h1.6527v2.1818h-1.6527v6.5697c.9919-.3085,1.1249-.3538,1.6753-.5731l.0877.9919c2.0729-1.0145,2.9318-2.0729,3.6152-3.0209h-3.7255v-1.7404h14.8131v1.7404h-8.9057c-.2858.4641-.4401.7272-.815,1.2126h9.1038c0,.2433-.0892,6.1508-.7061,7.495-.573,1.2565-1.4319,1.2565-2.1153,1.2565h-2.9757l-.4627-2.1607h2.8865c.6622,0,.7273-.2858.8377-.8589.1768-.9041.2872-3.4836.3084-3.9901h-1.0569c-1.8296,4.034-4.6298,5.9951-7.0323,7.1639l-1.3442-1.763c2.953-1.2353,4.5844-2.513,6.3262-5.4009h-1.5649c-2.4253,3.3279-5.2905,4.6509-7.6266,5.4886l-1.081-1.6088c1.3017-.3976,4.0128-1.2565,6.5257-3.8798h-1.7644ZM109.731,43.8526h12.2987v7.1639h-12.2987v-7.1639ZM111.8025,45.5052v1.2792h8.1119v-1.2792h-8.1119ZM111.8025,48.1951v1.3003h8.1119v-1.3003h-8.1119Z"/>
      <path class="cls-2" d="M112.5312,65.4738c-.4698,0-.9268-.2137-1.2268-.6064l-1.2423-1.6307c-.4217.1762-.8306.3311-1.2225.4712-.658.2384-1.4051-.0042-1.797-.5907l-1.0811-1.6088c-.1514-.2243-.2377-.4804-.2575-.7429-1.1418.4337-1.9356.682-2.653.8957-.4443.1316-.9211.058-1.3032-.2002-.382-.259-.6282-.675-.6707-1.1348l-.2207-2.4026c-.0707-.7761.4485-1.4836,1.2112-1.647.2151-.046.6947-.1769,1.1631-.3092v-4.5795h-.6198c-.8503,0-1.5408-.6898-1.5408-1.5402v-2.1818c0-.8504.6905-1.5402,1.5408-1.5402h.6198v-2.9339c0-.8504.6905-1.5402,1.5409-1.5402h2.2257c.7542,0,1.3824.5427,1.514,1.2593.283-.3643.723-.5985,1.2197-.5985h12.2987c.8504,0,1.5409.6898,1.5409,1.5402v6.6856c.7995.0552,1.432.7217,1.432,1.5367v1.7404c0,.5044-.242.9522-.617,1.2331-.0014.3983-.0594,6.4019-.8461,8.1169-.982,2.1542-2.7563,2.1542-3.5147,2.1542h-2.9757c-.7259,0-1.3541-.5072-1.5055-1.2175l-.0269-.1231c-.7159.4917-1.4871.9374-2.3134,1.3399-.2151.1047-.4457.155-.6721.155ZM105.8583,48.7568c.0084.0085.0184.0177.0254.0262.0085-.0085.0184-.0177.0269-.0262-.0085-.0085-.0184-.0177-.0269-.0262-.007.0085-.017.0177-.0254.0262Z"/>
    </g>
    <g>
      <path class="cls-2" d="M44.3786,89.9319c3.4383-3.7256,4.5179-9.6995,4.849-15.7611l2.513.1981c-.7061,10.0079-2.7111,14.0858-5.2905,17.326l-2.0715-1.763ZM59.1903,74.1057c.4415,5.091,1.7418,11.021,5.4674,15.8474l-2.2484,1.7418c-3.6378-4.6509-5.1363-11.2418-5.6216-17.3034l2.4026-.2858ZM65.2746,74.1495c0,1.2777-1.0357,2.2923-2.2922,2.2923-1.2791,0-2.2937-1.0146-2.2937-2.2923,0-1.2791,1.0372-2.2922,2.2937-2.2922s2.2922,1.0131,2.2922,2.2922ZM61.924,74.1495c0,.5943.4627,1.057,1.0584,1.057.573,0,1.0569-.4627,1.0569-1.057,0-.5957-.4839-1.0583-1.0569-1.0583s-1.0584.4626-1.0584,1.0583Z"/>
      <path class="cls-2" d="M62.4107,93.2351c-.4584,0-.9112-.203-1.214-.5914-3.3209-4.2456-5.3216-10.3447-5.9442-18.1291-.0665-.8249.532-1.555,1.3527-1.6527l2.4026-.2858c.1599-.017.3183-.012.4712.017.5985-1.34,1.9441-2.276,3.5034-2.276,2.1125,0,3.8331,1.7192,3.8331,3.8324s-1.7206,3.8324-3.8331,3.8324c-.6523,0-1.2664-.1634-1.8041-.4513.8023,4.6629,2.3517,8.4416,4.6991,11.4816.5193.6721.3947,1.6385-.2759,2.1585l-2.2484,1.7418c-.2816.2172-.6127.3226-.9424.3226ZM62.9824,73.6663c-.266,0-.4839.2165-.4839.4832,0,.266.2179.4818.4839.4818s.4825-.2158.4825-.4818c0-.2575-.2264-.4832-.4825-.4832ZM46.4501,93.2351c-.3637,0-.7188-.1294-.9976-.3672l-2.0715-1.763c-.3197-.2717-.515-.6622-.5405-1.0803-.024-.4188.1217-.8292.4061-1.1369,2.6361-2.8561,4.0482-7.5594,4.443-14.8011.0226-.4139.2122-.8016.5235-1.0747s.7075-.4117,1.1362-.3764l2.513.1981c.8419.0665,1.4743.8002,1.4149,1.6435-.7145,10.1219-2.7648,14.5867-5.6216,18.1772-.2603.3261-.641.5334-1.057.5737-.0495.005-.099.0071-.1485.0071Z"/>
    </g>
    <g>
      <path class="cls-2" d="M76.6253,72.7601v5.6428c5.3556,1.5211,9.5439,3.9236,11.0211,4.7839l-1.1914,2.5342c-2.4677-1.4772-6.8101-3.9236-9.8297-4.6948v11.1979h-2.6459v-19.464h2.6459Z"/>
      <path class="cls-2" d="M76.6253,93.7643h-2.6459c-.8504,0-1.5409-.6898-1.5409-1.5402v-19.464c0-.8504.6905-1.5402,1.5409-1.5402h2.6459c.8504,0,1.5395.6898,1.5395,1.5402v4.496c3.3987,1.0675,6.8427,2.612,10.257,4.6.6891.4018.9579,1.2635.6183,1.9859l-1.1914,2.5341c-.1853.3941-.5277.6912-.9451.8179-.4118.1273-.8646.0721-1.2395-.1514-2.9233-1.7503-5.5042-3.0811-7.4993-3.877v9.0585c0,.8504-.6891,1.5402-1.5395,1.5402ZM75.5189,79.4747v.4797c.0509-.0517.1047-.0998.1613-.1443.0452-.0347.0905-.0666.1372-.0956-.1089-.0672-.2094-.1478-.2985-.2398Z"/>
    </g>
    <g>
      <path class="cls-2" d="M109.5753,74.6787v16.1121h-16.3993v-16.1121h16.3993ZM106.8643,77.0813h-11.0649v11.2857h11.0649v-11.2857Z"/>
      <path class="cls-2" d="M109.5753,92.331h-16.3993c-.8503,0-1.5408-.6898-1.5408-1.5402v-16.1121c0-.8504.6905-1.5401,1.5408-1.5401h16.3993c.8504,0,1.5409.6897,1.5409,1.5401v16.1121c0,.8504-.6905,1.5402-1.5409,1.5402ZM97.3402,86.8268h7.9846v-8.2053h-7.9846v8.2053Z"/>
    </g>
    <g>
      <path class="cls-2" d="M134.5478,80.8946v2.6672h-19.573v-2.6672h19.573Z"/>
      <path class="cls-2" d="M114.9755,79.3544h19.5737c.8497,0,1.5395.6898,1.5395,1.5395v2.6679c0,.8501-.6901,1.5402-1.5402,1.5402h-19.5723c-.8504,0-1.5409-.6905-1.5409-1.5409v-2.6665c0-.8501.6901-1.5402,1.5402-1.5402Z"/>
    </g>
    <g>
      <path class="cls-2" d="M143.9148,79.2632c0,9.258-3.1299,12.0794-4.2321,13.0713l-1.9173-1.9187c1.0146-.815,3.5926-2.8214,3.5926-10.6673v-6.1282h2.5568v5.6429ZM149.8661,88.6967c5.0698-1.2127,6.2159-7.4059,6.4366-8.5294l2.2484.9693c-2.0276,9.6981-9.06,10.2937-11.1527,10.4706v-18.6491h2.4677v15.7386Z"/>
      <path class="cls-2" d="M139.6827,93.8747c-.3948,0-.7896-.1514-1.0895-.4514l-1.9173-1.9187c-.3084-.3098-.4726-.7357-.4485-1.173.024-.4365.232-.8426.573-1.1164.8433-.677,3.0167-2.4224,3.0167-9.4667v-6.1282c0-.8503.6905-1.5401,1.5409-1.5401h2.5568c.8504,0,1.5409.6898,1.5409,1.5401v5.6429c0,9.9492-3.5699,13.1604-4.7429,14.216-.2929.2646-.6622.3955-1.0301.3955ZM147.3984,93.1474c-.3848,0-.757-.1436-1.0428-.4061-.3169-.2915-.4966-.7032-.4966-1.1341v-18.6491c0-.8503.689-1.5401,1.5394-1.5401h2.4677c.8504,0,1.5409.6898,1.5409,1.5401v13.3544c2.1139-1.5593,3.0082-4.5201,3.3746-6.3928.0892-.457.3863-.8737.7981-1.0909.4146-.2165.907-.2582,1.3329-.0757l2.2483.9692c.6721.2901,1.0471,1.0131.8971,1.7298-1.0315,4.9368-4.0439,10.9723-12.5294,11.6896-.0439.0036-.0877.0057-.1302.0057Z"/>
    </g>
    <g>
      <path class="cls-2" d="M38.2957,105.3492c-.5957,6.039-1.6102,9.633-3.8798,12.3214l-2.0729-1.4545c2.3587-2.9318,3.219-7.1201,3.5275-11.198l2.4252.3311ZM43.9824,100.8964v18.516c0,.7273-.0665,2.1819-2.2045,2.1819h-3.7921l-.6169-2.4465h3.4836c.682,0,.682-.2872.682-.573v-17.6784h2.4479ZM51.3656,117.7371c-2.0715-3.4609-3.1299-6.3927-3.9236-12.5209l2.4252-.3297c.573,4.3638,1.3881,7.4059,3.6591,11.2857l-2.1607,1.5649Z"/>
      <path class="cls-2" d="M41.7779,123.1345h-3.7921c-.706,0-1.3215-.4797-1.4927-1.1638l-.617-2.4465c-.1174-.4598-.0141-.9487.2774-1.323.2929-.3742.74-.5935,1.2154-.5935h2.6247v-16.7113c0-.8504.6905-1.5402,1.5409-1.5402h2.4479c.8504,0,1.5409.6898,1.5409,1.5402v18.516c0,3.3591-2.6191,3.7221-3.7454,3.7221ZM51.3656,119.2773c-.1033,0-.2066-.0106-.3099-.0311-.423-.087-.7895-.3474-1.0116-.7181-2.3192-3.8748-3.362-7.1844-4.1289-13.1138-.1089-.8398.4797-1.6102,1.3188-1.7241l2.4252-.3297c.4117-.0545.8178.0538,1.1433.3021.3254.249.5391.6169.5914,1.0237.5264,4.0093,1.2339,6.9029,3.461,10.7077.4004.6841.2165,1.5607-.4245,2.0255l-2.1606,1.5649c-.266.1917-.583.2929-.9042.2929ZM34.4145,119.2108c-.3056,0-.6155-.0913-.8829-.2794l-2.0729-1.4546c-.3495-.2448-.5816-.6226-.641-1.045-.0594-.4216.058-.8489.3254-1.1814,1.7885-2.2236,2.8328-5.6089,3.1922-10.3483.0311-.4238.2363-.815.5674-1.0817.331-.2667.7527-.3828,1.1758-.3283l2.4252.3311c.8207.1118,1.4065.8532,1.3244,1.6774-.6551,6.6376-1.8423,10.3285-4.235,13.1633-.3028.3594-.7386.5469-1.1786.5469Z"/>
    </g>
    <g>
      <path class="cls-2" d="M72.9224,119.677h-13.2029v1.3669h-2.4252v-18.6038h18.0533v18.6038h-2.4252v-1.3669ZM72.9224,104.7988h-13.2029v12.5195h13.2029v-12.5195Z"/>
      <path class="cls-2" d="M75.3476,122.5841h-2.4252c-.7924,0-1.4447-.5979-1.531-1.3669h-10.1409c-.0863.769-.7386,1.3669-1.531,1.3669h-2.4252c-.8504,0-1.5409-.6898-1.5409-1.5402v-18.6038c0-.8504.6905-1.5402,1.5409-1.5402h18.0533c.8504,0,1.5395.6898,1.5395,1.5402v18.6038c0,.8504-.6891,1.5402-1.5395,1.5402ZM61.2604,115.7781h10.1211v-9.4391h-10.1211v9.4391Z"/>
    </g>
    <g>
      <path class="cls-2" d="M96.8139,120.2501h-14.284v1.3003h-2.2695v-19.6621h18.8018v19.6621h-2.2483v-1.3003ZM96.8139,104.0263h-14.284v13.9316h14.284v-13.9316ZM84.5802,106.3185h10.1608v9.1703h-10.1608v-9.1703ZM86.7408,113.4612h5.8183v-5.1363h-5.8183v5.1363Z"/>
      <path class="cls-2" d="M99.0622,123.0906h-2.2483c-.7698,0-1.4065-.5638-1.5211-1.3003h-11.2418c-.1146.7365-.7513,1.3003-1.5211,1.3003h-2.2695c-.8504,0-1.5409-.6898-1.5409-1.5402v-19.6621c0-.8504.6905-1.5402,1.5409-1.5402h18.8018c.8504,0,1.5409.6898,1.5409,1.5402v19.6621c0,.8504-.6905,1.5402-1.5409,1.5402ZM88.2803,111.921h2.7379v-2.0559h-2.7379v2.0559Z"/>
    </g>
    <g>
      <path class="cls-2" d="M102.4992,115.7746c.5065-.0877.8603-.1542,1.4333-.2646v-12.9822h2.0941v12.4983c.6835-.1542,1.3004-.3311,2.3135-.6169v-13.5567h2.2045v20.7418h-2.2045v-5.0698c-2.3135.7273-2.6446.815-5.224,1.5437l-.6169-2.2936ZM114.3805,105.1511c.5504,2.9092,1.4758,5.7306,3.0634,8.2209,1.896-3.1511,2.3814-7.0082,2.5794-9.1689h-8.4642v-2.3813h11.0876c-.2646,3.7694-.9481,9.2368-3.7256,13.5793,1.8508,2.203,3.6591,3.3279,4.6722,3.9887l-1.4758,2.2045c-.9919-.6834-2.7337-1.896-4.7401-4.276-2.2031,2.3361-4.0553,3.5714-5.1137,4.276l-1.521-2.0276c1.1022-.6608,3.219-1.9626,5.2466-4.2109-2.3587-3.901-3.328-8.177-3.6817-9.7207l2.0729-.484Z"/>
      <path class="cls-2" d="M112.2652,123.1345c-.3043,0-.6056-.0899-.8617-.2618-.2448.1656-.5406.2618-.8589.2618h-2.2045c-.8504,0-1.5409-.6898-1.5409-1.5402v-2.9806c-.7952.2398-1.4673.4294-2.7408.7888l-.5235.1479c-.3962.1125-.8207.0608-1.1786-.1429-.3594-.2031-.6212-.5412-.7273-.9395l-.617-2.2937c-.1131-.4174-.0438-.8638.1897-1.2289.232-.3643.6084-.6148,1.0343-.6883.0537-.0092.1061-.0184.1556-.0276v-11.7017c0-.8504.6905-1.5402,1.5409-1.5402h2.0941c.2816,0,.5462.0757.7726.208v-.3431c0-.8504.6905-1.5402,1.5409-1.5402h2.2045c.6494,0,1.2041.4012,1.4305.9693h10.6716c.4273,0,.8348.1776,1.1263.4903.2914.312.44.7315.4103,1.1574-.2547,3.6286-.8843,8.8321-3.3605,13.2885,1.3456,1.4093,2.5908,2.2187,3.4596,2.7825l.1528.0998c.3438.2242.5843.578.6664.9812.0835.404,0,.8235-.2278,1.1653l-1.4758,2.2045c-.2292.3424-.5872.5787-.9919.6558-.4047.0792-.8235-.0099-1.1631-.2441-.8277-.5709-2.2413-1.5451-3.9236-3.3032-1.8112,1.7255-3.3209,2.7301-4.2024,3.3166-.2618.1748-.5589.2583-.8518.2583ZM112.0855,110.5421v6.2888c.6211-.4649,1.306-1.0322,1.995-1.7093-.8532-1.5748-1.5026-3.1589-1.995-4.5795ZM116.0728,105.7433c.3311,1.5126.7556,2.8837,1.2791,4.1309.5094-1.4963.7881-2.9827.9494-4.1309h-2.2285Z"/>
    </g>
    <g>
      <path class="cls-2" d="M145.8335,105.0846c-.4627-.0438-.9707-.0877-1.9173-.0877-1.9837,0-3.3294.5292-4.3651,1.0358-3.1299,1.5649-5.9286,4.5844-5.9286,7.56,0,3.3507,3.8571,4.5406,10.2046,4.3425l-.3523,2.6234c-4.7387-.0227-7.0974-.5731-9.1038-1.6088-1.9838-1.0146-3.2841-3.1087-3.2841-5.159,0-2.2695,1.1687-5.7079,6.0843-8.7062-3.4384.1981-6.8555.4627-10.2726.75l-.0877-2.513c1.521,0,3.1737-.0891,4.6948-.1542,1.896-.0892,12.0129-.4854,14.2839-.5731l.0439,2.4903ZM141.5575,111.6967c-.8815-1.7192-1.3895-2.4677-1.9625-3.2615l1.5437-.815c.5943.7273,1.388,1.8069,2.0502,3.1738l-1.6314.9027ZM144.3789,110.3525c-1.2126-2.005-1.3668-2.2257-2.0064-3.0634l1.6315-.8376c.7272.8815,1.6526,2.2257,1.9611,2.953l-1.5862.948Z"/>
      <path class="cls-2" d="M143.4748,122.0987h-.0071c-4.6156-.0219-7.3634-.5214-9.8028-1.7807-2.462-1.2579-4.1175-3.8826-4.1175-6.5272,0-1.5663.4542-4.1698,2.8879-6.8505-1.6328.1203-3.4072.2611-5.4079.4288-.4175.041-.8363-.1026-1.1518-.3828-.3141-.2801-.5009-.677-.5165-1.098l-.0877-2.5129c-.0141-.4174.1415-.8228.4316-1.1235.29-.3007.6905-.4705,1.1079-.4705,1.2267,0,2.5398-.0594,3.7977-.116l.8306-.0368c1.8918-.0891,12.0186-.4853,14.291-.573.4047-.022.8164.1351,1.1178.4195.3.2844.474.6778.4811,1.0923l.0439,2.4904c.0084.4379-.1713.8588-.4924,1.1567-.2307.2129-.5165.3481-.8207.3933.5207.7266,1.0541,1.56,1.323,2.1953.2999.7082.0325,1.5289-.6283,1.9237l-1.5861.948c-.2788.1676-.5844.237-.8957.2143-.0991.097-.2122.1826-.3382.2526l-1.6314.9027c-.3665.201-.7966.2463-1.1942.1253-.3991-.121-.7316-.399-.9226-.7705-.8405-1.6392-1.3116-2.3304-1.8408-3.0626-.1203-.167-.2038-.3545-.2505-.5504-1.7772,1.4354-2.9318,3.2536-2.9318,4.8065,0,.5724.1642.9877.5349,1.3471.7796.7549,2.8101,1.6293,8.0808,1.456.4669-.0064.8886.1719,1.1914.5072.3028.3361.4428.7889.3834,1.2374l-.3523,2.6233c-.1033.7648-.7556,1.335-1.5267,1.335ZM138.5606,104.4196c.0312.0658.058.1344.0807.2059.0127.0417.024.0835.0339.1252.0623-.0325.1246-.0644.1868-.0955.1825-.0891.3764-.1804.583-.271-.2943.0121-.5901.0234-.8844.0354Z"/>
    </g>
    <g>
      <path class="cls-2" d="M154.5595,101.8444h2.5795l-.0665,2.9091h7.1851v2.3149h-7.229l-.0665,3.6591h1.3668c2.6234,0,4.4529-.4189,5.5099-.6608l.7287,2.1818c-2.4253.75-6.1947.75-6.6135.75h-1.0358c0,4.5179.2646,5.2452,4.518,5.2452,2.5129,0,4.8716-.242,4.8716-3.5048,0-1.9612-.4853-3.1964-1.1234-4.6284l2.3134-.706c.8377,1.7192,1.323,3.5713,1.323,5.4674,0,5.1348-4.2321,5.7079-7.4285,5.7079-6.2597,0-6.9205-2.1592-6.9205-7.5813h-3.9237v-2.271h3.9237l.0438-3.6591h-3.6378v-2.3149h3.6591l.0226-2.9091Z"/>
      <path class="cls-2" d="M161.3923,122.12c-7.0748,0-8.269-3.0684-8.4359-7.5814h-2.4083c-.8504,0-1.5395-.6898-1.5395-1.5401v-2.271c0-.8504.6891-1.5402,1.5395-1.5402h2.4012l.0071-.5787h-2.0786c-.8504,0-1.5395-.6898-1.5395-1.5402v-2.3149c0-.8503.6891-1.5401,1.5395-1.5401h2.1309l.0113-1.381c.0057-.8462.6934-1.5282,1.5395-1.5282h2.5795c.4145,0,.8121.167,1.1008.4634.2901.2964.4485.6976.4386,1.1122l-.0297,1.3336h5.6089c.8504,0,1.5409.6898,1.5409,1.5401v2.3149c0,.8263-.6509,1.5006-1.4688,1.5388.0779.0261.1543.0587.2264.0969.058-.0255.1175-.0481.1783-.0665l2.3135-.7061c.7343-.2207,1.5012.1175,1.8352.7981.9805,2.0141,1.4772,4.0807,1.4772,6.1423,0,4.8094-3.0167,7.2481-8.968,7.2481ZM158.4718,114.5344c.0665,2.1691.4726,2.1691,2.9644,2.1691,3.0591,0,3.3308-.5094,3.3308-1.9646,0-.334-.0156-.6417-.0453-.9311-2.1125.5858-4.8958.7054-6.2499.7266ZM155.5118,111.863c.0665.0608.1287.128.1825.1995.0622-.08.1302-.1535.2052-.2193-.0114-.0121-.0241-.0241-.0368-.0368-.0524-.0538-.1019-.1118-.1458-.1727-.0608.0835-.1287.1599-.2051.2293ZM158.5412,108.6086l-.0113.578c2.1988-.0191,3.7736-.3502,4.7754-.578h-4.7641ZM155.5429,105.9202c.0226.0212.0453.0431.0679.0658.0594.0594.1132.1238.1613.1917.075-.1061.1641-.2024.2632-.2858-.0226-.0198-.0439-.0404-.0637-.0616-.0622-.0629-.1174-.1309-.1669-.2023-.075.1082-.1628.2066-.2618.2922Z"/>
    </g>
    <g>
      <path class="cls-2" d="M62.4079,130.6854h2.4252v2.4917h4.7826v2.2922h-4.7826v2.6007c.6835-.1316,1.7857-.3523,3.461-.3523,4.1656,0,6.9432,1.9172,6.9432,5.8635,0,4.9368-4.4529,6.0164-8.8392,5.9075l-.5292-2.2272c2.8653.0227,4.0991-.1316,5.3556-.8815.8829-.5065,1.5649-1.2338,1.5649-2.9756,0-3.5049-3.7468-3.5049-4.6722-3.5049-1.6979,0-2.7549.2873-3.2841.4189v6.1493c0,.75,0,2.5795-3.1298,2.5795-3.5049,0-4.8944-2.4026-4.8944-4.1005,0-2.7762,2.4691-5.2014,5.599-6.2371v-3.2403h-5.3344v-2.2922h5.3344v-2.4917ZM62.4079,141.0244c-2.4903,1.057-3.2402,2.6672-3.2402,3.9449,0,1.7418,1.7191,1.8295,2.2045,1.8295,1.0357,0,1.0357-.3523,1.0357-.7711v-5.0033ZM71.2698,130.3769c2.0276,1.4107,3.8345,3.4836,4.9594,5.8862l-2.1607,1.3881c-1.7191-3.1299-3.0421-4.7175-4.5844-5.7306l1.7857-1.5437Z"/>
      <path class="cls-2" d="M66.9655,151.0359c-.1995,0-.4005-.0021-.6056-.0078-.699-.0169-1.299-.503-1.4603-1.1836l-.0226-.0941c-.9791.6849-2.2441.837-3.1737.837-4.1798,0-6.4352-2.9063-6.4352-5.6407,0-2.9877,2.2087-5.8155,5.5989-7.2955v-.6417h-3.7935c-.8504,0-1.5408-.6898-1.5408-1.5402v-2.2922c0-.8504.6904-1.5402,1.5408-1.5402h3.7935v-.9515c0-.8504.6905-1.5402,1.5409-1.5402h2.4252c.8504,0,1.5409.6898,1.5409,1.5402v.9515h1.5961c.0637-.3389.2405-.6509.5065-.8815l1.7857-1.5437c.5349-.4613,1.3088-.5009,1.8876-.0991,2.3261,1.6188,4.2703,3.9258,5.4744,6.4975.3269.699.0863,1.5317-.5631,1.9491l-1.8989,1.2204c1.0513,1.2232,1.6159,2.8462,1.6159,4.8016,0,2.0722-.6566,3.7631-1.9513,5.0252-1.654,1.6131-4.2972,2.4295-7.8614,2.4295ZM66.374,141.5649v4.1586c2.4875-.0014,3.2572-.1868,4.0609-.6658.4302-.2469.8136-.4676.8136-1.6533,0-.6375,0-1.9647-3.1313-1.9647-.7089,0-1.2819.0545-1.7432.1252ZM60.867,144.2215c-.1047.2405-.1585.491-.1585.7478,0,.1047.0142.1599.0199.1726.0141.0099.0608.0319.1386.0538v-.9742ZM70.8297,136.4166c.2971.0602.583.1309.8589.213-.191-.3042-.3792-.5879-.5632-.8518-.0481.237-.1514.4549-.2957.6388ZM63.4366,134.3232c.0665.0601.1287.1259.1839.1967.0552-.0708.1175-.1366.184-.1967-.0665-.0601-.1288-.1259-.184-.1967-.0552.0708-.1174.1366-.1839.1967Z"/>
    </g>
    <g>
      <path class="cls-2" d="M83.4129,133.3978c-.5943.7712-1.3004,1.565-2.7549,2.9304l-1.6753-1.6527c1.3894-1.1022,2.9756-2.5568,4.2321-5.1575l2.4026.5731c-.4189.6834-.5066.8815-.7712,1.2565h15.1655v2.0502h-16.5988ZM90.7536,149.8849c-.6622-.6835-1.896-1.9399-3.9901-3.5487-3.086,2.7336-5.3344,3.6802-6.2824,4.0991l-1.4984-2.0927c3.3279-1.0811,4.9155-2.4026,5.9951-3.3068-1.7842-1.2791-3.086-1.9838-3.901-2.4252l1.3003-1.6965c.75.3749,2.0715,1.0357,4.2109,2.5341,1.0796-1.1899,1.7192-2.138,2.2696-2.9756l2.0064,1.0584c-.3537.573-.948,1.5423-2.4917,3.2176,2.029,1.521,3.2855,2.6021,3.9901,3.219l-1.6088,1.9173ZM79.4892,137.9158h16.753c-.0665.7273-.133,1.5649-.133,3.1086,0,3.8784.5731,6.6347,1.2353,6.6347.4839,0,.7485-1.6314,1.0131-3.3293l2.0064.948c-.8164,4.5193-1.9173,4.9155-3.1299,4.9155-1.0145,0-1.6314-.5065-1.9399-.948-.948-1.3216-1.5876-4.4076-1.5876-7.1851,0-.9707.0227-1.6088.0439-2.0729h-14.2613v-2.0715ZM98.4241,134.6755v2.0064h-15.3409v-2.0064h15.3409Z"/>
      <path class="cls-2" d="M80.5122,151.945c-.498,0-.9947-.2094-1.2833-.6134l-1.4985-2.0927c-.2858-.399-.3636-.9105-.2108-1.3774.1528-.4663.5207-.832.9876-.9834,1.7263-.5618,2.9247-1.1794,3.8261-1.7652-.8306-.52-1.4872-.8758-1.9866-1.1461-.3962-.2144-.6806-.5929-.774-1.0336-.0948-.4408.0071-.902.2816-1.2593l.1117-.1465h-.4768c-.8504,0-1.5409-.6898-1.5409-1.5401v-2.0715c0-.571.3113-1.069.7726-1.335l-.8193-.8087c-.3141-.3099-.4811-.7393-.457-1.1793.0241-.4408.2349-.8497.5815-1.1242,1.3216-1.0485,2.6969-2.334,3.802-4.6205.3156-.6509,1.0287-.9955,1.7447-.8285l2.4025.5731c.4797.1146.8759.452,1.0641.9076.0424.0998.0722.2031.092.3071h12.8803c.8504,0,1.5409.6898,1.5409,1.5402v2.0502c0,.8504-.6905,1.5402-1.5409,1.5402h-.0481v1.7439c0,.8504-.6891,1.5402-1.5395,1.5402h-.6636c-.0594.6848-.1104,1.4496-.1104,2.8023,0,.7054.0184,1.3421.051,1.9123.4131-.1952.8985-.1974,1.3144.0007l2.0065.9481c.6296.2971.9819.9805.8574,1.6661-.6707,3.7107-1.7163,6.1819-4.6453,6.1819-1.3215,0-2.4889-.5851-3.202-1.606-.2179-.3028-.4146-.6565-.5929-1.0478l-1.5055,1.7949c-.2801.3346-.6891.5342-1.1249.5497-.4344.0142-.8574-.1542-1.1616-.4676-.4726-.4882-1.3711-1.4157-2.8498-2.6276-2.6799,2.1875-4.6905,3.0733-5.6046,3.4758-.2136.0934-.4471.1401-.6806.1401ZM90.6136,144.5243c.781.6113,1.4177,1.1348,1.9342,1.5706-.2391-1.2494-.3622-2.5646-.3792-3.7454-.2887.467-.7117,1.1511-1.555,2.1748Z"/>
    </g>
    <g>
      <path class="cls-2" d="M102.8303,131.2584h3.7029v-1.4984h2.0715v1.4984h3.7029v2.0291h-3.7029v1.1673h3.5487v8.9722h-3.5487v1.4758h3.8798v2.029h-3.8798v3.5035h-2.0715v-3.5035h-3.8572v-2.029h3.8572v-1.4758h-3.4822v-8.9722h3.4822v-1.1673h-3.7029v-2.0291ZM104.814,136.2631v1.8734h1.7192v-1.8734h-1.7192ZM104.814,139.7227v1.896h1.7192v-1.896h-1.7192ZM108.6047,136.2631v1.8734h1.7191v-1.8734h-1.7191ZM108.6047,139.7227v1.896h1.7191v-1.896h-1.7191ZM122.8886,132.4272c-.3311.9254-.9919,2.6459-2.9756,4.6948,1.4772,1.1687,2.6884,1.6979,3.5713,2.0276l-1.1475,2.0291c-.7924-.3538-2.3573-1.0811-4.0765-2.6234-.8603.7047-2.1606,1.6315-4.6962,2.5568l-1.2565-1.8733c.9268-.3085,2.6233-.9042,4.4755-2.2045-.6622-.7938-1.4333-1.8522-2.2271-3.7907l1.8083-.6834h-3.3733v-2.0729h9.8976v1.9399ZM119.2296,140.3849v2.0502h3.659v2.005h-3.659v3.2841h4.1444v2.1607h-11.0664v-2.1607h4.7401v-3.2841h-4.0567v-2.005h4.0567v-2.0502h2.1819ZM116.4746,132.5602c.3297.7711.7486,1.7404,1.9173,3.1072,1.2338-1.3668,1.8069-2.5129,2.0941-3.1072h-4.0114Z"/>
      <path class="cls-2" d="M108.6047,151.9754h-2.0715c-.8504,0-1.5395-.6897-1.5395-1.5401v-1.9633h-2.3177c-.8504,0-1.5394-.6898-1.5394-1.5402v-2.029c0-.4146.1627-.7902.4287-1.0676-.0354-.1294-.0538-.2667-.0538-.4082v-8.9722c0-.1097.0113-.2165.0326-.3198-.1599-.2434-.2547-.5341-.2547-.8475v-2.0291c0-.8504.6905-1.5402,1.5409-1.5402h2.1634c.0227-.8312.7033-1.4984,1.5395-1.4984h2.0715c.8362,0,1.5168.6672,1.5394,1.4984h1.5126c.266-.4612.7641-.7711,1.3343-.7711h9.8976c.8504,0,1.5409.6898,1.5409,1.5402v1.9399c0,.1768-.0311.3523-.0906.5186-.2476.6933-.7626,2.1316-2.1379,3.8932.7145.4259,1.3244.682,1.8224.8681.4217.157.7542.4917.9084.9154.1542.4231.1146.8929-.1075,1.2855l-.8249,1.4603c.266.2766.4301.6522.4301,1.0668v2.005c0,.8504-.6905,1.5402-1.5409,1.5402h-2.1182v.2037h2.6036c.8503,0,1.5394.6898,1.5394,1.5402v2.1607c0,.8503-.6891,1.5401-1.5394,1.5401h-11.0664c-.8504,0-1.5395-.6898-1.5395-1.5401v-1.4129h-.624v1.9633c0,.8504-.689,1.5401-1.5394,1.5401ZM114.0254,146.184h1.4814v-.2037h-1.4814v.2037ZM113.6943,135.0816v1.9633c.2716-.1267.5603-.271.8603-.4358-.2802-.4323-.5689-.9332-.8603-1.5275ZM122.8886,132.4272h.0142-.0142Z"/>
    </g>
    <g>
      <path class="cls-2" d="M131.1534,131.0603c-.5519,3.3733-.8816,6.7677-.8816,10.1834,0,2.646.1755,5.3783.8377,7.9365l-2.4465.3085c-.6395-2.5795-.8376-5.3132-.8376-8.1346,0-1.19.0439-4.716.815-10.5145l2.513.2207ZM136.5755,140.716c-.4854.7711-1.0132,1.7404-1.0132,2.8652,0,2.3588,2.4904,2.3588,5.2679,2.3588,2.2484,0,3.5261-.1557,4.3425-.2646v2.4464c-1.456.1316-3.1313.1316-4.034.1316-2.8879,0-7.8473,0-7.8473-4.5844,0-1.7192.7499-3.0195,1.2564-3.8572l2.0277.9042ZM144.7977,132.3607v2.2936h-10.9107v-2.2936h10.9107Z"/>
      <path class="cls-2" d="M128.6616,151.0288c-.699,0-1.3215-.4754-1.4942-1.1694-.6013-2.4295-.8829-5.132-.8829-8.5053,0-2.0474.1443-5.5692.8292-10.7175.1089-.8165.8489-1.3909,1.6611-1.3315l2.513.2207c.4273.0375.8192.2512,1.0824.5893.2618.3389.3721.7712.3028,1.1936-.0071.0445-.0141.0877-.0212.1315.2816-.3763.7301-.6197,1.2352-.6197h10.9107c.8504,0,1.5409.6898,1.5409,1.5402v2.2936c0,.8504-.6905,1.5402-1.5409,1.5402h-10.9107c-.8503,0-1.5394-.6898-1.5394-1.5402v-1.1461c-.3594,2.7061-.5349,5.2544-.5349,7.7355,0,.4663.0057.9176.017,1.3541.2448-1.6717,1.0018-2.9232,1.4008-3.5833.4004-.6629,1.2338-.9247,1.9442-.6092l2.0276.9042c.4089.1818.7174.5313.8475.9586.1288.4273.0665.89-.1712,1.2685-.4032.6403-.7754,1.3315-.7754,2.0446,0,.6042.5632.8186,3.727.8186,2.2569,0,3.4808-.1634,4.1388-.2512.4372-.0601.8829.0743,1.2182.3679.334.2922.5264.7146.5264,1.1589v2.4464c0,.7966-.6084,1.4624-1.4022,1.5338-1.5253.138-3.2473.138-4.1727.138-2.4606,0-7.8106,0-9.1024-4.1133.1287,1.1292.3155,2.1557.5646,3.1136.1103.4288.0311.8844-.2165,1.2508-.2491.3665-.6424.6085-1.0825.6637l-2.4464.3084c-.0651.0085-.1302.012-.1939.012Z"/>
    </g>
  </g>
  <g class="cls-6">
    <path class="cls-2" d="M164.0444,65.9753c-.692-1.6314-1.8352-3.0082-3.2799-3.9816-.7202-.4888-1.5183-.8773-2.3714-1.1433-.8518-.2639-1.7618-.4061-2.6927-.4061h-81.5989c-1.1517,0-2.2936.1818-3.3704.5582-.808.2788-1.582.6678-2.2908,1.1574-1.0682.7287-1.9979,1.6818-2.7351,2.8009-.7047,1.0712-1.2353,2.2902-1.5848,3.6166l-8.0029,21.982-.0368.15c-.1006.399-.2307.7387-.3835,1.0442-.2306.4528-.515.8376-.8703,1.2028-.3564.3593-.7851.6989-1.2847,1.016l-18.9164,12.0892c-2.605,1.6641-4.1813,4.5421-4.1813,7.6294v13.1138c0,1.2423.2533,2.4423.7117,3.529.6935,1.63,1.8352,3.0053,3.2799,3.9816.7217.4896,1.5169.8744,2.3729,1.1404.8518.2633,1.7601.4076,2.6912.4076h13.8326c-.0042.1046-.0098.2094-.0098.3141,0,6.6163,5.3853,12.0016,12.0029,12.0016s11.9989-5.3853,11.9989-12.0016c0-.1047-.0042-.2095-.0071-.3141h53.0847c-.0014.1046-.0056.2094-.0056.3141,0,6.6163,5.3838,12.0016,12.0002,12.0016s12.0003-5.3853,12.0003-12.0016c0-.1047-.0015-.2095-.0071-.3141h1.3102c1.2409,0,2.4407-.2518,3.5261-.7131,1.6286-.6877,3.0068-1.8338,3.9816-3.2799.4881-.7216.8759-1.5169,1.1404-2.3715.2675-.8489.4089-1.7601.4089-2.6941v-57.3062c0-1.2424-.2533-2.4401-.713-3.5233ZM142.397,142.1146c-3.2741,0-5.9358-2.6601-5.9358-5.9371,0-.1047.0043-.2095.0085-.3141h11.8545c.0043.1046.01.2094.01.3141,0,3.277-2.6644,5.9371-5.9372,5.9371ZM65.3259,142.1146c-3.2741,0-5.9371-2.6601-5.9371-5.9371,0-.1047.0042-.2095.0099-.3141h11.8531c.0042.1046.0084.2094.0084.3141,0,3.277-2.6628,5.9371-5.9343,5.9371ZM36.5091,126.8048v-13.1138c0-1.0215.5206-1.9724,1.3824-2.5214l18.9164-12.0836c1.067-.682,2.1437-1.5451,3.0691-2.6885.4599-.5716.88-1.2111,1.2339-1.913.3267-.6452.59-1.3441.7937-2.0828l8.0114-22.0117.0383-.1563c.1782-.7124.4244-1.2926.7088-1.7616.2123-.3531.4429-.6446.6877-.8851.3693-.3615.7712-.619,1.2211-.8009.45-.1776.9522-.2766,1.5296-.2766h81.5989c.4217,0,.8079.0821,1.1645.2327.5306.2258.9918.6077,1.3187,1.0853.1599.2412.2873.503.3735.7796.0863.2788.1345.5767.1345.8915v57.3062c-.0015.4246-.0835.8094-.2364,1.166-.2221.532-.6042.9961-1.0852,1.3188-.2391.1612-.4994.2886-.7797.3735-.2787.0876-.5716.1358-.8899.1358H39.5002c-.4202,0-.8064-.085-1.1645-.2349-.532-.2236-.9932-.6055-1.3173-1.0867-.1627-.2376-.2886-.5009-.375-.7782-.0848-.2801-.133-.5773-.1343-.8943Z"/>
  </g>
  <g>
    <path class="cls-1" d="M78.9827,59.4807c.6395-.1316,1.1899-.2646,2.5794-.706v-5.4221h-2.0941v-2.1592h2.0941v-4.7614h-2.3148v-2.1818h6.9431v2.1818h-2.4026v4.7614h2.0277v2.1592h-2.0277v4.6736c1.323-.4627,1.8083-.6835,2.4026-.9481l.4854,2.0715c-2.0065.948-4.9595,2.0064-7.2078,2.513l-.4853-2.1819ZM87.1823,43.8526h12.1898v12.6298h-3.7694v4.1444c0,.617.1104.8151.7273.8151h1.1461c.3976,0,.4853-.1543.5518-.5505.1316-.6607.1755-1.9172.1755-2.4903l2.0502.4188c-.1103,3.2615-.3311,4.8491-1.8069,4.8491h-3.2402c-.9268,0-1.8522-.0877-1.8522-1.9173v-5.2693h-1.4545c-1.0146,4.6071-3.328,6.1947-7.0324,7.4724l-1.0796-2.2031c5.1802-1.3456,5.6867-4.2321,5.8636-5.2693h-2.4691v-12.6298ZM89.3868,45.8151v1.6739h7.737v-1.6739h-7.737ZM89.3868,49.3185v1.6753h7.737v-1.6753h-7.737ZM89.3868,52.846v1.6753h7.737v-1.6753h-7.737Z"/>
    <path class="cls-1" d="M112.0006,56.7697c-1.6753,1.4319-2.8865,1.9172-3.6803,2.2483l-.5292-.7711c-2.8002,1.2112-4.1444,1.63-5.1802,1.9385l-.2207-2.4026c.508-.109,2.0276-.5504,2.3814-.6608v-7.2743h-2.1607v-2.1818h2.1607v-4.4741h2.2257v4.4741h1.6527v2.1818h-1.6527v6.5697c.9919-.3085,1.1249-.3538,1.6753-.5731l.0877.9919c2.0729-1.0145,2.9318-2.0729,3.6152-3.0209h-3.7255v-1.7404h14.8131v1.7404h-8.9057c-.2858.4641-.4401.7272-.815,1.2126h9.1038c0,.2433-.0892,6.1508-.7061,7.495-.573,1.2565-1.4319,1.2565-2.1153,1.2565h-2.9757l-.4627-2.1607h2.8865c.6622,0,.7273-.2858.8377-.8589.1768-.9041.2872-3.4836.3084-3.9901h-1.0569c-1.8296,4.034-4.6298,5.9951-7.0323,7.1639l-1.3442-1.763c2.953-1.2353,4.5844-2.513,6.3262-5.4009h-1.5649c-2.4253,3.3279-5.2905,4.6509-7.6266,5.4886l-1.081-1.6088c1.3017-.3976,4.0128-1.2565,6.5257-3.8798h-1.7644ZM109.731,43.8526h12.2987v7.1639h-12.2987v-7.1639ZM111.8025,45.5052v1.2792h8.1119v-1.2792h-8.1119ZM111.8025,48.1951v1.3003h8.1119v-1.3003h-8.1119Z"/>
    <path class="cls-1" d="M44.3786,89.9319c3.4383-3.7256,4.5179-9.6995,4.849-15.7611l2.513.1981c-.7061,10.0079-2.7111,14.0858-5.2905,17.326l-2.0715-1.763ZM59.1903,74.1057c.4415,5.091,1.7418,11.021,5.4674,15.8474l-2.2484,1.7418c-3.6378-4.6509-5.1363-11.2418-5.6216-17.3034l2.4026-.2858ZM65.2746,74.1495c0,1.2777-1.0357,2.2923-2.2922,2.2923-1.2791,0-2.2937-1.0146-2.2937-2.2923,0-1.2791,1.0372-2.2922,2.2937-2.2922s2.2922,1.0131,2.2922,2.2922ZM61.924,74.1495c0,.5943.4627,1.057,1.0584,1.057.573,0,1.0569-.4627,1.0569-1.057,0-.5957-.4839-1.0583-1.0569-1.0583s-1.0584.4626-1.0584,1.0583Z"/>
    <path class="cls-1" d="M76.6253,72.7601v5.6428c5.3556,1.5211,9.5439,3.9236,11.0211,4.7839l-1.1914,2.5342c-2.4677-1.4772-6.8101-3.9236-9.8297-4.6948v11.1979h-2.6459v-19.464h2.6459Z"/>
    <path class="cls-1" d="M109.5753,74.6787v16.1121h-16.3993v-16.1121h16.3993ZM106.8643,77.0813h-11.0649v11.2857h11.0649v-11.2857Z"/>
    <path class="cls-1" d="M134.5478,80.8946v2.6672h-19.573v-2.6672h19.573Z"/>
    <path class="cls-1" d="M143.9148,79.2632c0,9.258-3.1299,12.0794-4.2321,13.0713l-1.9173-1.9187c1.0146-.815,3.5926-2.8214,3.5926-10.6673v-6.1282h2.5568v5.6429ZM149.8661,88.6967c5.0698-1.2127,6.2159-7.4059,6.4366-8.5294l2.2484.9693c-2.0276,9.6981-9.06,10.2937-11.1527,10.4706v-18.6491h2.4677v15.7386Z"/>
    <path class="cls-1" d="M38.2957,105.3492c-.5957,6.039-1.6102,9.633-3.8798,12.3214l-2.0729-1.4545c2.3587-2.9318,3.219-7.1201,3.5275-11.198l2.4252.3311ZM43.9824,100.8964v18.516c0,.7273-.0665,2.1819-2.2045,2.1819h-3.7921l-.6169-2.4465h3.4836c.682,0,.682-.2872.682-.573v-17.6784h2.4479ZM51.3656,117.7371c-2.0715-3.4609-3.1299-6.3927-3.9236-12.5209l2.4252-.3297c.573,4.3638,1.3881,7.4059,3.6591,11.2857l-2.1607,1.5649Z"/>
    <path class="cls-1" d="M72.9224,119.677h-13.2029v1.3669h-2.4252v-18.6038h18.0533v18.6038h-2.4252v-1.3669ZM72.9224,104.7988h-13.2029v12.5195h13.2029v-12.5195Z"/>
    <path class="cls-1" d="M96.8139,120.2501h-14.284v1.3003h-2.2695v-19.6621h18.8018v19.6621h-2.2483v-1.3003ZM96.8139,104.0263h-14.284v13.9316h14.284v-13.9316ZM84.5802,106.3185h10.1608v9.1703h-10.1608v-9.1703ZM86.7408,113.4612h5.8183v-5.1363h-5.8183v5.1363Z"/>
    <path class="cls-1" d="M102.4992,115.7746c.5065-.0877.8603-.1542,1.4333-.2646v-12.9822h2.0941v12.4983c.6835-.1542,1.3004-.3311,2.3135-.6169v-13.5567h2.2045v20.7418h-2.2045v-5.0698c-2.3135.7273-2.6446.815-5.224,1.5437l-.6169-2.2936ZM114.3805,105.1511c.5504,2.9092,1.4758,5.7306,3.0634,8.2209,1.896-3.1511,2.3814-7.0082,2.5794-9.1689h-8.4642v-2.3813h11.0876c-.2646,3.7694-.9481,9.2368-3.7256,13.5793,1.8508,2.203,3.6591,3.3279,4.6722,3.9887l-1.4758,2.2045c-.9919-.6834-2.7337-1.896-4.7401-4.276-2.2031,2.3361-4.0553,3.5714-5.1137,4.276l-1.521-2.0276c1.1022-.6608,3.219-1.9626,5.2466-4.2109-2.3587-3.901-3.328-8.177-3.6817-9.7207l2.0729-.484Z"/>
    <path class="cls-1" d="M145.8335,105.0846c-.4627-.0438-.9707-.0877-1.9173-.0877-1.9837,0-3.3294.5292-4.3651,1.0358-3.1299,1.5649-5.9286,4.5844-5.9286,7.56,0,3.3507,3.8571,4.5406,10.2046,4.3425l-.3523,2.6234c-4.7387-.0227-7.0974-.5731-9.1038-1.6088-1.9838-1.0146-3.2841-3.1087-3.2841-5.159,0-2.2695,1.1687-5.7079,6.0843-8.7062-3.4384.1981-6.8555.4627-10.2726.75l-.0877-2.513c1.521,0,3.1737-.0891,4.6948-.1542,1.896-.0892,12.0129-.4854,14.2839-.5731l.0439,2.4903ZM141.5575,111.6967c-.8815-1.7192-1.3895-2.4677-1.9625-3.2615l1.5437-.815c.5943.7273,1.388,1.8069,2.0502,3.1738l-1.6314.9027ZM144.3789,110.3525c-1.2126-2.005-1.3668-2.2257-2.0064-3.0634l1.6315-.8376c.7272.8815,1.6526,2.2257,1.9611,2.953l-1.5862.948Z"/>
    <path class="cls-1" d="M154.5595,101.8444h2.5795l-.0665,2.9091h7.1851v2.3149h-7.229l-.0665,3.6591h1.3668c2.6234,0,4.4529-.4189,5.5099-.6608l.7287,2.1818c-2.4253.75-6.1947.75-6.6135.75h-1.0358c0,4.5179.2646,5.2452,4.518,5.2452,2.5129,0,4.8716-.242,4.8716-3.5048,0-1.9612-.4853-3.1964-1.1234-4.6284l2.3134-.706c.8377,1.7192,1.323,3.5713,1.323,5.4674,0,5.1348-4.2321,5.7079-7.4285,5.7079-6.2597,0-6.9205-2.1592-6.9205-7.5813h-3.9237v-2.271h3.9237l.0438-3.6591h-3.6378v-2.3149h3.6591l.0226-2.9091Z"/>
    <path class="cls-1" d="M62.4079,130.6854h2.4252v2.4917h4.7826v2.2922h-4.7826v2.6007c.6835-.1316,1.7857-.3523,3.461-.3523,4.1656,0,6.9432,1.9172,6.9432,5.8635,0,4.9368-4.4529,6.0164-8.8392,5.9075l-.5292-2.2272c2.8653.0227,4.0991-.1316,5.3556-.8815.8829-.5065,1.5649-1.2338,1.5649-2.9756,0-3.5049-3.7468-3.5049-4.6722-3.5049-1.6979,0-2.7549.2873-3.2841.4189v6.1493c0,.75,0,2.5795-3.1298,2.5795-3.5049,0-4.8944-2.4026-4.8944-4.1005,0-2.7762,2.4691-5.2014,5.599-6.2371v-3.2403h-5.3344v-2.2922h5.3344v-2.4917ZM62.4079,141.0244c-2.4903,1.057-3.2402,2.6672-3.2402,3.9449,0,1.7418,1.7191,1.8295,2.2045,1.8295,1.0357,0,1.0357-.3523,1.0357-.7711v-5.0033ZM71.2698,130.3769c2.0276,1.4107,3.8345,3.4836,4.9594,5.8862l-2.1607,1.3881c-1.7191-3.1299-3.0421-4.7175-4.5844-5.7306l1.7857-1.5437Z"/>
    <path class="cls-1" d="M83.4129,133.3978c-.5943.7712-1.3004,1.565-2.7549,2.9304l-1.6753-1.6527c1.3894-1.1022,2.9756-2.5568,4.2321-5.1575l2.4026.5731c-.4189.6834-.5066.8815-.7712,1.2565h15.1655v2.0502h-16.5988ZM90.7536,149.8849c-.6622-.6835-1.896-1.9399-3.9901-3.5487-3.086,2.7336-5.3344,3.6802-6.2824,4.0991l-1.4984-2.0927c3.3279-1.0811,4.9155-2.4026,5.9951-3.3068-1.7842-1.2791-3.086-1.9838-3.901-2.4252l1.3003-1.6965c.75.3749,2.0715,1.0357,4.2109,2.5341,1.0796-1.1899,1.7192-2.138,2.2696-2.9756l2.0064,1.0584c-.3537.573-.948,1.5423-2.4917,3.2176,2.029,1.521,3.2855,2.6021,3.9901,3.219l-1.6088,1.9173ZM79.4892,137.9158h16.753c-.0665.7273-.133,1.5649-.133,3.1086,0,3.8784.5731,6.6347,1.2353,6.6347.4839,0,.7485-1.6314,1.0131-3.3293l2.0064.948c-.8164,4.5193-1.9173,4.9155-3.1299,4.9155-1.0145,0-1.6314-.5065-1.9399-.948-.948-1.3216-1.5876-4.4076-1.5876-7.1851,0-.9707.0227-1.6088.0439-2.0729h-14.2613v-2.0715ZM98.4241,134.6755v2.0064h-15.3409v-2.0064h15.3409Z"/>
    <path class="cls-1" d="M102.8303,131.2584h3.7029v-1.4984h2.0715v1.4984h3.7029v2.0291h-3.7029v1.1673h3.5487v8.9722h-3.5487v1.4758h3.8798v2.029h-3.8798v3.5035h-2.0715v-3.5035h-3.8572v-2.029h3.8572v-1.4758h-3.4822v-8.9722h3.4822v-1.1673h-3.7029v-2.0291ZM104.814,136.2631v1.8734h1.7192v-1.8734h-1.7192ZM104.814,139.7227v1.896h1.7192v-1.896h-1.7192ZM108.6047,136.2631v1.8734h1.7191v-1.8734h-1.7191ZM108.6047,139.7227v1.896h1.7191v-1.896h-1.7191ZM122.8886,132.4272c-.3311.9254-.9919,2.6459-2.9756,4.6948,1.4772,1.1687,2.6884,1.6979,3.5713,2.0276l-1.1475,2.0291c-.7924-.3538-2.3573-1.0811-4.0765-2.6234-.8603.7047-2.1606,1.6315-4.6962,2.5568l-1.2565-1.8733c.9268-.3085,2.6233-.9042,4.4755-2.2045-.6622-.7938-1.4333-1.8522-2.2271-3.7907l1.8083-.6834h-3.3733v-2.0729h9.8976v1.9399ZM119.2296,140.3849v2.0502h3.659v2.005h-3.659v3.2841h4.1444v2.1607h-11.0664v-2.1607h4.7401v-3.2841h-4.0567v-2.005h4.0567v-2.0502h2.1819ZM116.4746,132.5602c.3297.7711.7486,1.7404,1.9173,3.1072,1.2338-1.3668,1.8069-2.5129,2.0941-3.1072h-4.0114Z"/>
    <path class="cls-1" d="M131.1534,131.0603c-.5519,3.3733-.8816,6.7677-.8816,10.1834,0,2.646.1755,5.3783.8377,7.9365l-2.4465.3085c-.6395-2.5795-.8376-5.3132-.8376-8.1346,0-1.19.0439-4.716.815-10.5145l2.513.2207ZM136.5755,140.716c-.4854.7711-1.0132,1.7404-1.0132,2.8652,0,2.3588,2.4904,2.3588,5.2679,2.3588,2.2484,0,3.5261-.1557,4.3425-.2646v2.4464c-1.456.1316-3.1313.1316-4.034.1316-2.8879,0-7.8473,0-7.8473-4.5844,0-1.7192.7499-3.0195,1.2564-3.8572l2.0277.9042ZM144.7977,132.3607v2.2936h-10.9107v-2.2936h10.9107Z"/>
  </g>
</svg>