<?xml version="1.0" encoding="UTF-8"?>
<svg id="_デザイン" data-name="デザイン" xmlns="http://www.w3.org/2000/svg" viewBox="0 0 200.0528 200.0443">
  <defs>
    <style>
      .cls-1, .cls-2, .cls-3, .cls-4 {
        fill: #fff;
      }

      .cls-1, .cls-4 {
        fill-rule: evenodd;
      }

      .cls-2, .cls-4, .cls-5 {
        opacity: .6;
      }

      .cls-6 {
        fill: #231815;
      }

      .cls-7 {
        fill: #e74d0c;
      }
    </style>
  </defs>
  <g>
    <path class="cls-7" d="M99.6712.0006C44.4273.1959-.1932,45.1355.0006,100.3716c.1939,55.2497,45.1371,99.8716,100.381,99.672,55.2397-.1937,99.8588-45.1347,99.6706-100.3766C199.857,44.4273,154.9195-.1961,99.6712.0006Z"/>
    <path class="cls-3" d="M100.0196,189.9762c-48.8908,0-88.7501-39.6838-88.9241-88.6157v-.0007c-.1684-49.033,39.5861-89.0684,88.6199-89.246h.3042c48.9007,0,88.767,39.6887,88.9411,88.6192.1669,49.0345-39.589,89.0684-88.6213,89.2432h-.3198ZM18.4136,101.3344c.1613,44.9021,36.7421,81.3229,81.606,81.3229.099,0,.1953,0,.2943-.0007,44.9969-.1599,81.4814-36.8991,81.3286-81.8974-.1613-44.9014-36.7505-81.3265-81.6229-81.3265-.0934,0-.1854,0-.2788.0007-44.9954.1627-81.4771,36.9069-81.3272,81.901h0Z"/>
  </g>
  <g class="cls-5">
    <path class="cls-1" d="M98.944,54.4869c-7.8473.1436-14.8655,7.253-14.9999,15.0848-.0255,1.5436.5942,2.7478,2.1946,2.8193,1.5861.0707,2.2921-1.0478,2.4423-2.5965.6126-6.2894,4.3693-10.1876,10.5667-10.8286,1.63-.1683,2.847-.6282,2.7422-2.4104-.1047-1.8111-1.4673-2.1988-2.9459-2.0686Z"/>
    <path class="cls-1" d="M144.504,72.831c0-21.9877-17.8891-39.8748-39.8762-39.8748s-39.8748,17.8871-39.8748,39.8748,17.8879,39.874,39.8748,39.874,39.8762-17.8871,39.8762-39.874ZM104.6278,103.5688c-16.9468,0-30.7369-13.7887-30.7369-30.7378s13.7901-30.7376,30.7369-30.7376,30.737,13.7879,30.737,30.7376-13.7872,30.7378-30.737,30.7378Z"/>
    <path class="cls-1" d="M163.1206,120.4605l-9.5595-9.561h0l-12.2931-12.2917-12.6228,12.6264,12.2903,12.291h0l9.5609,9.5602c3.9986,3.9971,10.1083,4.428,13.5806.9564,3.4724-3.473,3.0422-9.5834-.9564-13.5813Z"/>
  </g>
  <g>
    <path class="cls-2" d="M91.6855,169.1417c-5.722,0-11.1031-2.2278-15.1485-6.2746-4.0467-4.0461-6.2738-9.4257-6.2738-15.1478,0-11.8127,9.6103-21.4231,21.4223-21.4231s21.421,9.6104,21.421,21.4231-9.609,21.4224-21.421,21.4224ZM91.6855,130.4038c-9.5481,0-17.3162,7.7674-17.3162,17.3155,0,4.6255,1.8013,8.9737,5.0712,12.2436,3.2714,3.2707,7.6195,5.0719,12.245,5.0712,9.5467,0,17.3148-7.7674,17.3148-17.3148s-7.7681-17.3155-17.3148-17.3155Z"/>
    <path class="cls-4" d="M84.4988,146.2876v-2.4543h3.3265c-.9904-1.5741-1.8508-2.9417-2.7945-4.443h2.9799c1.173,1.7971,2.3954,3.6697,3.7184,5.6973,1.2848-1.9808,2.472-3.8125,3.7043-5.7135h3.0026c-.9254,1.4694-1.7829,2.8321-2.7747,4.4076h3.2049v2.4429h-4.6341c-.9917.8319-.7004,1.7659-.5927,2.8398h5.2324v2.7995h-5.2976v4.2009h-3.5274v-4.0878h-5.5283v-2.9013h5.3627c.1075-1.0456.3269-1.9321-.5772-2.7881h-4.8052Z"/>
  </g>
  <g>
    <path class="cls-2" d="M51.2066,140.8137c-5.7221,0-11.1032-2.2279-15.1485-6.2747-4.0468-4.046-6.2739-9.4257-6.2739-15.1477,0-11.8128,9.6104-21.4231,21.4224-21.4231s21.4209,9.6103,21.4209,21.4231-9.6089,21.4224-21.4209,21.4224ZM51.2066,102.0758c-9.5481,0-17.3162,7.7674-17.3162,17.3155,0,4.6255,1.8012,8.9736,5.0712,12.2436,3.2713,3.2706,7.6195,5.0719,12.245,5.0711,9.5467,0,17.3147-7.7673,17.3147-17.3147s-7.768-17.3155-17.3147-17.3155Z"/>
    <path class="cls-4" d="M44.0198,117.9595v-2.4542h3.3266c-.9905-1.5742-1.8508-2.9417-2.7945-4.4431h2.9798c1.173,1.7971,2.3955,3.6699,3.7185,5.6975,1.2847-1.981,2.472-3.8127,3.7043-5.7137h3.0026c-.9255,1.4695-1.7829,2.8321-2.7747,4.4076h3.2048v2.4429h-4.634c-.9918.8321-.7004,1.7659-.5928,2.8398h5.2325v2.7995h-5.2977v4.201h-3.5273v-4.0877h-5.5284v-2.9015h5.3628c.1075-1.0456.3268-1.9321-.5773-2.7881h-4.8052Z"/>
  </g>
  <g>
    <g>
      <path class="cls-3" d="M65.1028,91.7746c-1.8734.4634-6.7012,1.1469-8.4218,1.3011l-.3311-2.2484c.8377-.0665,1.7857-.1323,3.727-.3311v-5.9951h-3.5289v-2.0722h3.5289v-1.8734h-2.0715v-1.4327c-.5518.5285-.8376.7712-1.1687,1.0358l-.8179-2.2922c1.5678-1.0138,3.2855-3.108,3.9251-5.0259h2.4903c.5943,1.3668,1.896,2.8879,3.4157,3.7255l-1.2989,1.8954c-1.8083-1.2565-3.0195-3.1519-3.2629-3.5268-.4188.7273-1.1235,1.9399-2.6233,3.5268h5.6004v2.0941h-2.1168v1.8734h3.1723v2.0722h-3.1723v5.7305c1.6753-.22,2.6007-.4407,3.1723-.573l.0679,1.6095c3.461-1.8734,4.2986-4.8936,4.7599-6.9213h-4.1656v-2.2044h4.4543c.0198-.2201.0424-.4408.0424-.7931v-2.2045h-2.1167c-.5717,1.6753-.8801,2.138-1.0782,2.4245l-1.964-1.0138c.7952-1.1461,1.7659-3.681,1.964-6.6128l2.2243.3085c-.0651.5072-.1302,1.168-.5066,2.6891h1.4772v-4.0998h2.2498v4.0998h4.1203v2.2045h-4.1203v2.2264c0,.3304-.0226.4846-.0453.7712h4.5845v2.2044h-4.3637c.2631.9474,1.2111,4.4522,4.7174,7.0536l-1.3895,2.1599c-2.4026-2.2045-3.7043-4.254-4.5618-6.6566-.948,2.7995-2.8214,5.202-5.3796,6.6785l-1.1886-1.8076ZM58.5997,85.7356c.2632,1.2339.2858,1.4765.5716,3.703l-1.7856.2646c-.0651-1.4992-.3736-3.108-.5292-3.7695l1.7432-.1981ZM65.2132,85.6472c-.0679.9261-.4189,2.6672-.6849,3.5487l-1.63-.2865c.3311-1.2784.5066-3.2841.5292-3.5049l1.7857.2427Z"/>
      <path class="cls-3" d="M66.2928,95.1224c-.5023,0-.9933-.2455-1.289-.694l-.6071-.9254c-2.3474.4613-6.1366.9777-7.5784,1.1065-.8179.0764-1.5423-.5016-1.6612-1.3095l-.3311-2.2484c-.0623-.4217.0538-.8504.3198-1.1836.1783-.2243.4146-.3927.6792-.4882-.0906-1.2494-.3382-2.5412-.4684-3.0931-.0608-.2617-.0523-.532.0212-.7838-.2306-.2696-.3693-.6198-.3693-1.0018v-2.0722c0-.5243.2618-.9869.6608-1.265-.1217-.1422-.2193-.307-.283-.4874l-.8178-2.2923c-.2406-.6735.0141-1.4234.6141-1.8111,1.3527-.8751,2.803-2.7287,3.2996-4.2201.2109-.6289.7995-1.0527,1.4617-1.0527h2.4903c.6127,0,1.1673.3636,1.4121.9261.317.728.9693,1.6441,1.8324,2.3615.0283-.2448.0523-.4945.0693-.7492.0283-.4259.2335-.8214.5646-1.0909.3311-.2696.7655-.3905,1.1843-.3304l1.4588.2023c.1061-.7464.7485-1.3194,1.5239-1.3194h2.2498c.8504,0,1.5395.6898,1.5395,1.5402v2.5596h2.5808c.8504,0,1.5395.6898,1.5395,1.5402v2.2045c0,.6777-.4372,1.2536-1.0456,1.4595.8164.0389,1.4658.7124,1.4658,1.5381v2.2044c0,.8504-.6905,1.5402-1.5408,1.5402h-2.172c.7952,1.7369,1.947,3.1667,3.444,4.2767.6509.4825.815,1.3881.3764,2.0701l-1.3895,2.1599c-.2448.3821-.6466.636-1.098.6941-.4415.0601-.9027-.0857-1.2381-.3927-1.4857-1.364-2.636-2.728-3.5317-4.2158-1.1673,1.8373-2.7379,3.3633-4.5986,4.4372-.242.1394-.5066.2059-.7683.2059ZM66.2956,88.499c.0425.0361.0835.075.1231.1153.8306-.8319,1.3414-1.7736,1.6923-2.7273h-1.3725c-.0637.7195-.2462,1.7397-.4429,2.612ZM71.5394,85.1682c-.0155.0672-.0325.1359-.0509.2059.0368-.0042.075-.0071.1118-.0092-.0213-.0651-.0411-.1309-.0609-.1967ZM71.3413,83.3719c.0029.005.0071.0092.0113.0142.0708.0884.1302.1839.1797.2844.0425-.0849.092-.1663.15-.2427.0184-.024.0368-.0474.0566-.07-.0665-.0509-.1287-.1082-.1853-.1705-.0014-.0014-.0029-.0028-.0043-.0042-.0636.0693-.1344.1322-.208.1888ZM71.555,78.0425c.017.0163.0339.0333.0495.0503.0156-.017.0326-.034.0495-.0503-.0169-.0162-.0339-.0332-.0495-.0502-.0156.017-.0325.034-.0495.0502Z"/>
    </g>
    <g>
      <path class="cls-3" d="M84.6093,92.8111c-1.2791-1.8741-2.5582-3.4164-3.9024-4.8498l2.029-1.4326c1.4999,1.3449,3.2629,3.3945,4.2109,4.6955l-2.3375,1.5869Z"/>
      <path class="cls-3" d="M84.6107,94.3513c-.4924,0-.9749-.2349-1.2734-.6721-1.132-1.6584-2.3248-3.1405-3.7539-4.6644-.3042-.3248-.4542-.7662-.4089-1.2091.0453-.4436.2802-.8454.6438-1.1022l2.029-1.4327c.5858-.4139,1.381-.3693,1.9173.1111,1.5749,1.4121,3.4185,3.5515,4.4274,4.9353.2448.3375.3438.7599.2717,1.1709-.0708.4118-.3071.7761-.6523,1.0103l-2.3375,1.5869c-.2646.1797-.566.266-.8632.266Z"/>
    </g>
    <g>
      <path class="cls-3" d="M102.9698,85.9556c.9253,0,2.0714,0,6.2823-.4188.1529-.6169.2406-1.4326.2406-1.8295v-1.0358h-5.7532v-2.2045h5.7532v-2.9317h-6.1268v-2.2038h6.1268v-2.5568h2.3375v10.7126c0,.8815-.0877,1.3661-.133,1.763.5971-.0877.948-.1542,2.0064-.3969v2.0722c-1.0131.1981-1.6527.3304-2.6233.4846-.8603,2.0722-2.247,3.8798-6.3702,6.194l-1.4772-2.2257c3.0875-1.3669,4.4317-2.888,4.9382-3.5714-.9027.1104-2.2696.2427-4.958.4853l-.2433-2.3368ZM117.3202,72.7747v2.5568h6.4126v2.2038h-6.4126v3.2628h5.906v2.1819h-5.906v3.6371h6.6107v2.1819h-6.6107v4.7613h-2.3601v-20.7856h2.3601Z"/>
      <path class="cls-3" d="M104.7116,95.1443c-.5009,0-.9891-.244-1.2848-.6883l-1.4772-2.2257c-.2505-.3785-.3226-.8476-.1953-1.2834.1274-.4358.4401-.7931.8546-.977.1189-.0524.2349-.1054.3481-.1585-.6664-.1118-1.2027-.6558-1.2763-1.3591l-.2433-2.3368c-.0453-.4344.0962-.8666.3877-1.1906.2929-.3248.7088-.5094,1.1447-.5094.7032,0,1.5423,0,3.9109-.2038h-3.1412c-.8504,0-1.5409-.6898-1.5409-1.5402v-2.2045c0-.6303.3792-1.1729.9226-1.4107-.7344-.1174-1.2961-.7541-1.2961-1.521v-2.2038c0-.8504.6905-1.5402,1.5408-1.5402h4.5859v-1.0166c0-.8504.6905-1.5402,1.5409-1.5402h2.3375c.8504,0,1.5409.6898,1.5409,1.5402v10.5753c.0155-.0042.0325-.0071.0481-.0106v-10.5647c0-.8504.6905-1.5402,1.5409-1.5402h2.3601c.8504,0,1.5409.6898,1.5409,1.5402v1.0166h4.8717c.8503,0,1.5408.6898,1.5408,1.5402v2.2038c0,.8504-.6905,1.5401-1.5408,1.5401h-4.8717v.1826h4.3651c.8504,0,1.5409.6898,1.5409,1.5401v2.1819c0,.8504-.6905,1.5402-1.5409,1.5402h-4.3651v.5568h5.0698c.8503,0,1.5408.6898,1.5408,1.5401v2.1819c0,.8504-.6905,1.5402-1.5408,1.5402h-5.0698v3.2211c0,.8504-.6905,1.5402-1.5409,1.5402h-2.3601c-.8504,0-1.5409-.6898-1.5409-1.5402v-5.0096c-.4542.0891-.849.1662-1.2763.2426-1.0089,2.0319-2.6955,3.918-6.6786,6.1537-.2377.1337-.4966.1973-.7527.1973ZM109.5153,87.0544c.0071.0141.0156.0283.0227.0424.007-.017.0155-.034.0226-.0509-.0156.0028-.0297.0056-.0453.0085Z"/>
    </g>
    <g>
      <path class="cls-3" d="M135.1967,91.7746c-1.8734.4634-6.7012,1.1469-8.4218,1.3011l-.3311-2.2484c.8377-.0665,1.7857-.1323,3.727-.3311v-5.9951h-3.5289v-2.0722h3.5289v-1.8734h-2.0715v-1.4327c-.5518.5285-.8376.7712-1.1687,1.0358l-.8179-2.2922c1.5678-1.0138,3.2855-3.108,3.9251-5.0259h2.4903c.5943,1.3668,1.896,2.8879,3.4157,3.7255l-1.2989,1.8954c-1.8083-1.2565-3.0195-3.1519-3.2629-3.5268-.4188.7273-1.1235,1.9399-2.6233,3.5268h5.6004v2.0941h-2.1168v1.8734h3.1723v2.0722h-3.1723v5.7305c1.6753-.22,2.6007-.4407,3.1723-.573l.0679,1.6095c3.461-1.8734,4.2987-4.8936,4.7599-6.9213h-4.1656v-2.2044h4.4543c.0198-.2201.0424-.4408.0424-.7931v-2.2045h-2.1167c-.5717,1.6753-.8801,2.138-1.0782,2.4245l-1.964-1.0138c.7952-1.1461,1.7659-3.681,1.964-6.6128l2.2243.3085c-.0651.5072-.1302,1.168-.5066,2.6891h1.4772v-4.0998h2.2498v4.0998h4.1203v2.2045h-4.1203v2.2264c0,.3304-.0226.4846-.0453.7712h4.5845v2.2044h-4.3637c.2631.9474,1.2112,4.4522,4.7174,7.0536l-1.3895,2.1599c-2.4026-2.2045-3.7043-4.254-4.5618-6.6566-.948,2.7995-2.8214,5.202-5.3796,6.6785l-1.1886-1.8076ZM128.6936,85.7356c.2632,1.2339.2858,1.4765.5716,3.703l-1.7856.2646c-.0651-1.4992-.3736-3.108-.5292-3.7695l1.7432-.1981ZM135.3071,85.6472c-.0679.9261-.4189,2.6672-.6849,3.5487l-1.63-.2865c.3311-1.2784.5066-3.2841.5292-3.5049l1.7857.2427Z"/>
      <path class="cls-3" d="M136.3867,95.1224c-.5023,0-.9933-.2455-1.289-.694l-.6071-.9254c-2.3474.4613-6.1366.9777-7.5784,1.1065-.8363.0764-1.5423-.5016-1.6612-1.3095l-.3311-2.2484c-.0622-.4217.0538-.8504.3198-1.1836.1783-.2243.4146-.3927.6792-.4882-.0906-1.2494-.3382-2.5412-.4684-3.0931-.0608-.2617-.0523-.532.0212-.7838-.2306-.2696-.3693-.6198-.3693-1.0018v-2.0722c0-.5243.2618-.9869.6608-1.265-.1217-.1422-.2193-.307-.283-.4874l-.8178-2.2923c-.2406-.6735.0141-1.4234.6141-1.8111,1.3527-.8751,2.803-2.7287,3.2996-4.2201.2109-.6289.7995-1.0527,1.4617-1.0527h2.4903c.6127,0,1.1673.3636,1.4121.9261.317.728.9693,1.6441,1.8324,2.3615.0283-.2448.0523-.4945.0693-.7492.0283-.4259.2335-.8214.5646-1.0909.3311-.2696.7655-.3905,1.1843-.3304l1.4588.2023c.1061-.7464.7485-1.3194,1.5239-1.3194h2.2498c.8504,0,1.5395.6898,1.5395,1.5402v2.5596h2.5808c.8504,0,1.5395.6898,1.5395,1.5402v2.2045c0,.6777-.4372,1.2536-1.0456,1.4595.8164.0389,1.4658.7124,1.4658,1.5381v2.2044c0,.8504-.6904,1.5402-1.5408,1.5402h-2.172c.7952,1.7369,1.947,3.1667,3.444,4.2767.6509.4825.815,1.3881.3764,2.0701l-1.3895,2.1599c-.2448.3821-.6466.636-1.098.6941-.4471.0601-.9042-.0857-1.2381-.3927-1.4857-1.364-2.636-2.728-3.5317-4.2158-1.1673,1.8373-2.7379,3.3633-4.5986,4.4372-.242.1394-.5066.2059-.7683.2059ZM136.3895,88.499c.0425.0361.0835.075.1231.1153.8306-.8319,1.3414-1.7736,1.6923-2.7273h-1.3725c-.0637.7195-.2462,1.7397-.4429,2.612ZM141.6333,85.1682c-.0155.0672-.0325.1359-.0509.2059.0368-.0042.075-.0071.1118-.0092-.0213-.0651-.0411-.1309-.0609-.1967ZM141.4352,83.3719c.0029.005.0071.0092.0113.0142.0708.0884.1302.1839.1797.2844.0425-.0849.092-.1663.15-.2427.0184-.024.0368-.0474.0566-.07-.0665-.0509-.1287-.1082-.1853-.1705-.0014-.0014-.0029-.0028-.0043-.0042-.0636.0693-.1344.1322-.208.1888ZM141.6489,78.0425c.017.0163.0339.0333.0495.0503.0156-.017.0326-.034.0495-.0503-.0169-.0162-.0339-.0332-.0495-.0502-.0156.017-.0325.034-.0495.0502Z"/>
    </g>
    <g>
      <path class="cls-3" d="M33.4277,120.3751c2.6431-.1988,5.0683-1.2126,5.906-1.698h-4.2307v-9.8304h16.9285v9.8304h-3.86c2.0064.948,3.4411,1.4553,5.6881,1.698l-1.1914,2.0057c-2.8639-.5073-4.8476-1.3004-6.721-2.6234l1.3215-1.0803h-7.4935l1.63,1.2346c-1.1688.7718-4.5618,2.0941-6.789,2.5129l-1.1885-2.0495ZM34.1097,102.3663h18.9575v5.3124h-18.9575v-5.3124ZM36.2689,106.1576h3.4836v-2.0502h-3.4836v2.0502ZM37.3726,111.712h12.3865v-1.19h-12.3865v1.19ZM37.3726,114.3573h12.3865v-1.3004h-12.3865v1.3004ZM37.3726,117.1348h12.3865v-1.2791h-12.3865v1.2791ZM41.824,106.1576h3.4836v-2.0502h-3.4836v2.0502ZM47.3565,106.1576h3.4836v-2.0502h-3.4836v2.0502Z"/>
      <path class="cls-3" d="M34.6162,123.9648c-.5419,0-1.0541-.2865-1.3328-.7676l-1.1886-2.0496c-.266-.4584-.2773-1.0216-.0297-1.4906.2476-.4691.7188-.7782,1.2466-.8179.0863-.0063.1726-.0141.2575-.0219-.0043-.0467-.0071-.0927-.0071-.1401v-9.558c-.5801-.2207-.9933-.7824-.9933-1.4404v-5.3124c0-.8504.6905-1.5402,1.5409-1.5402h18.9575c.8504,0,1.5409.6898,1.5409,1.5402v5.3124c0,.6742-.433,1.2466-1.0372,1.456v9.5424c0,.0375,0,.075-.0028.1118.1486.0198.3.0382.457.0552.5207.0559.9778.3735,1.2127.8419.2334.469.2136,1.0251-.0538,1.4758l-1.1914,2.0057c-.3283.5518-.9551.8426-1.5932.7301-3.0493-.5405-5.2453-1.4022-7.3408-2.8823-.2788-.1966-.4811-.4789-.5816-.798h-1.5621c-.0806.3976-.3169.752-.6607.9799-1.4518.9586-5.0939,2.3162-7.3536,2.7407-.0948.0184-.191.0269-.2844.0269Z"/>
    </g>
    <g>
      <path class="cls-3" d="M60.408,104.1958c-.1557.9699-.4188,2.6226-.4188,5.4221,0,2.1606.1754,6.9658,1.4743,8.5088.2208.2639.6622.5504,1.2141.5504,1.4093,0,2.5554-2.4245,3.3506-4.6064l2.1139,1.1462c-1.497,4.0998-3.3478,6.0835-5.6853,6.0835-4.1656,0-5.0032-6.2816-5.0032-11.8367,0-2.4684.1981-4.5406.2858-5.5764l2.6686.3085ZM73.9406,118.9198c-.0651-4.1437-.1104-6.2817-1.0357-8.7727-.8377-2.2922-1.9187-3.6591-2.8215-4.5625l1.9612-1.4553c2.7563,2.9756,4.6948,5.9739,4.6948,14.6363l-2.7988.1542Z"/>
      <path class="cls-3" d="M62.4568,122.8406c-4.3424,0-6.5427-4.5009-6.5427-13.3769,0-2.3312.174-4.3482.2674-5.432l.0227-.2745c.0353-.4153.2377-.7981.5603-1.062.3226-.2646.7372-.3848,1.1518-.3381l2.6686.3084c.4174.0488.7966.2653,1.0513.6.2532.3353.3594.7591.2929,1.1744-.15.931-.3991,2.4889-.3991,5.178,0,4.2562.5759,6.8802,1.1122,7.5169.0071-.0085.7712-.3863,1.9385-3.5911.1542-.421.4825-.7542.9013-.9134.4203-.1584.8872-.128,1.2805.0863l2.114,1.1462c.6707.3643.9749,1.1652.7117,1.8825-.6396,1.7546-2.5908,7.0953-7.1314,7.0953ZM73.9406,120.46c-.3891,0-.7641-.1472-1.0499-.4132-.307-.2858-.4839-.6841-.4896-1.103-.0679-4.2568-.1273-6.0715-.9395-8.2604-.7966-2.1784-1.7899-3.3316-2.4677-4.01-.3169-.317-.4796-.7556-.4471-1.202.034-.4464.2589-.8568.6183-1.1235l1.9612-1.4553c.6296-.4676,1.5125-.387,2.0488.1903,2.7931,3.0153,5.1037,6.2768,5.1037,15.6827,0,.8178-.6381,1.4927-1.4545,1.538l-2.7988.1542c-.0283.0015-.0566.0022-.0849.0022Z"/>
    </g>
    <g>
      <path class="cls-3" d="M93.1613,106.5545c.2632,3.8353,1.4546,6.0836,2.0941,7.2955,1.8932-3.4602,2.4026-6.4805,2.6432-8.2216h-7.2502v-1.3003h-1.1037v18.0307h-2.2243v-4.0121c-2.1394.6835-5.5778,1.4107-7.2078,1.6095l-.4188-2.1825c.3085,0,1.1461-.1543,1.4093-.1981v-13.2475h-1.2791v-2.0722h11.1979v1.1242h9.2142v2.2483c-.9707,6.194-2.6686,9.0593-3.5261,10.4919,1.5876,2.1161,3.1723,3.2183,4.1656,3.8579l-1.3017,2.2264c-.8603-.6176-2.4026-1.7418-4.2534-4.1005-1.8507,2.3148-3.4383,3.5713-4.2986,4.2547l-1.4546-1.9837c.9028-.6396,2.5583-1.8522,4.3213-4.3645-.9254-1.6314-2.4252-4.4967-2.8667-9.1257l2.1394-.3304ZM83.2849,104.3281v2.7549h4.0355v-2.7549h-4.0355ZM83.2849,109.0668v2.7556h4.0355v-2.7556h-4.0355ZM87.3204,113.85h-4.0355v3.3287c2.4253-.4408,2.9969-.595,4.0355-.9042v-2.4245Z"/>
      <path class="cls-3" d="M89.5447,123.899h-2.2243c-.8504,0-1.5409-.6898-1.5409-1.5402v-1.9759c-1.9866.5086-4.2123.9473-5.4801,1.1022-.8179.0976-1.548-.4429-1.6994-1.2388l-.4188-2.1826c-.0863-.4506.0326-.9168.3254-1.2713.2646-.3198.6467-.5186,1.057-.5532v-10.3929c-.7273-.1238-1.2805-.7563-1.2805-1.5182v-2.0722c0-.8504.6905-1.5402,1.5409-1.5402h11.1979c.7061,0,1.3018.4754,1.4829,1.1242h7.7313c.8504,0,1.5394.6898,1.5394,1.5402v2.2483c0,.08-.0056.1599-.0184.2385-.8433,5.381-2.2313,8.3991-3.185,10.1147,1.1489,1.335,2.2611,2.1373,3.1369,2.7019.6934.4464.9127,1.3598.4967,2.0722l-1.3018,2.2264c-.2193.3743-.5858.6389-1.0103.7287-.4301.0899-.8659-.0035-1.2182-.2554-.6566-.4712-1.8763-1.347-3.3605-2.9728-1.4235,1.5635-2.612,2.508-3.3209,3.0712-.3269.2603-.7556.3792-1.1702.3261-.1882-.0255-.3693-.0842-.5348-.1719-.2208.1217-.4741.191-.7443.191ZM91.0856,113.7701v3.2685c.3141-.3367.6424-.7188.9805-1.1525-.3297-.6289-.665-1.33-.9805-2.116ZM95.2979,115.3895c.0085.0205.017.0403.0255.0608.0099-.0212.0212-.0424.0325-.0636-.0198.0014-.0382.0021-.058.0028ZM94.7602,107.1686c.116,1.0924.3113,2.0241.5405,2.82.3566-1.0124.6014-1.9576.7768-2.82h-1.3173Z"/>
    </g>
    <g>
      <path class="cls-3" d="M110.1124,102.6747c-.4188,1.5869-.5744,2.7995-.8376,4.9375,1.3866-1.9618,3.393-3.1518,5.7079-3.1518,2.9544,0,5.7758,2.5129,5.7758,7.6485,0,6.2817-3.0421,9.3677-12.2789,9.4123l-.4613-2.3368c4.9806-.0658,10.2273-.2865,10.2273-6.9213,0-4.7393-2.1621-5.5105-3.3733-5.5105-.7273,0-4.1231.2865-5.906,5.9513.0198,1.8734.1076,2.4245.2406,3.1745l-2.4026.2419c-.133-1.0577-.1755-1.7192-.1755-3.328,0-.948,0-5.8416.9254-10.2937l2.5582.1761Z"/>
      <path class="cls-3" d="M108.4796,123.0614c-.7358,0-1.3683-.52-1.5112-1.2417l-.4613-2.3368c-.0877-.4485.0269-.9133.3156-1.2685.2872-.3551.7188-.5638,1.1758-.5702,6.1395-.0806,8.7062-.8468,8.7062-5.3811,0-1.1935-.1783-3.9703-1.8324-3.9703-.4768,0-2.8935.2271-4.3623,4.6446.0241,1.601.1033,2.0552.2137,2.6721.075.4217-.0297.8561-.2887,1.1978-.2575.3417-.648.5603-1.0739.6034l-2.4026.242c-.8376.0771-1.5777-.5115-1.6824-1.34-.1471-1.1708-.1882-1.9271-.1882-3.5204,0-2.2405.1246-6.5986.958-10.6071.157-.7542.8235-1.2636,1.6144-1.2233l2.5583.1762c.4584.0318.8786.266,1.1461.6395.2674.3729.3537.8462.2363,1.2905-.0595.2292-.1146.4506-.1656.6678,1.0952-.5355,2.2922-.8157,3.5473-.8157,3.5232,0,7.3167,2.8752,7.3167,9.1887,0,7.5283-4.2604,10.9065-13.8127,10.9525h-.0071ZM108.297,108.8029c-.0353.5462-.0608,1.0704-.0806,1.5628.2137-.4606.4386-.8801.6721-1.2621-.0566-.0149-.1132-.0333-.1684-.0545-.157-.0609-.2985-.1443-.4231-.2462Z"/>
    </g>
    <g>
      <path class="cls-3" d="M136.2749,104.5927v-2.0283h2.4252v2.0283h7.055v2.2257h-7.055v2.271h6.6786v2.2038h-6.6786v2.9537c.7924.375,3.8798,1.7411,6.5258,4.2102l-1.6102,2.0276c-2.8441-2.4903-3.3054-2.8872-4.9156-3.7468v.4408c0,1.5649-.133,2.0722-.4839,2.5787-1.1036,1.6096-3.3959,1.6534-4.2562,1.6534-4.4288,0-5.2891-2.4245-5.2891-3.9675,0-3.086,3.0648-4.1218,5.5551-4.1218,1.0132,0,1.6074.1316,2.0489.2201v-2.2484h-7.8247v-2.2038h7.8247v-2.271h-8.2435v-2.2257h8.2435ZM136.3202,115.7899c-.5943-.1981-1.2791-.4188-2.2498-.4188-1.2565,0-3.0846.4188-3.0846,2.0057,0,1.4772,1.5197,1.8076,2.8441,1.8076,2.4903,0,2.4903-1.2565,2.4903-2.1599v-1.2346Z"/>
      <path class="cls-3" d="M133.96,122.951c-5.0358,0-6.8285-2.8448-6.8285-5.5077,0-2.1904,1.1164-3.7029,2.7195-4.6099h-1.4008c-.8504,0-1.5409-.6898-1.5409-1.5402v-2.2038c0-.3587.1231-.6884.3283-.9501-.4471-.2696-.7471-.7606-.7471-1.3209v-2.2257c0-.8504.6905-1.5402,1.5409-1.5402h6.7026v-.4881c0-.8504.6905-1.5402,1.5409-1.5402h2.4252c.8504,0,1.5409.6898,1.5409,1.5402v.4881h5.5141c.8504,0,1.5409.6898,1.5409,1.5402v2.2257c0,.5483-.2873,1.0301-.7188,1.3032.2136.2646.3424.6013.3424.9678v2.2038c0,.8504-.6905,1.5402-1.5409,1.5402h-5.1377v.4407c1.3725.6743,3.843,2.0107,6.0362,4.0567.5872.5483.6537,1.4553.1542,2.0842l-1.6102,2.0277c-.2618.3296-.6466.5376-1.0669.5758-.423.0361-.8348-.0969-1.1531-.3749-1.2169-1.0662-1.9796-1.7298-2.5639-2.2003-.1147.4273-.2901.8087-.5547,1.1914-1.0527,1.5352-2.912,2.3163-5.5226,2.3163ZM134.0704,116.9113c-.7796,0-1.5437.2306-1.5437.4655.0439.0863.4259.2674,1.3032.2674.7555,0,.9678-.1443.9692-.1457-.0198-.0191-.0198-.3042-.0198-.474v-.0566c-.2137-.0354-.4471-.0566-.7089-.0566ZM137.3517,110.1917c.0481.0474.0934.0983.1358.1521.0425-.0538.0877-.1047.1358-.1521-.0481-.0482-.0933-.0991-.1358-.1529-.0424.0538-.0877.1047-.1358.1529ZM137.3389,105.7056c.0538.0509.1033.1054.1486.1634.0453-.058.0948-.1125.1486-.1634-.0538-.051-.1033-.1055-.1486-.1635-.0453.058-.0948.1125-.1486.1635Z"/>
    </g>
    <g>
      <path class="cls-3" d="M161.1809,102.5205h2.5582v2.3807h6.2824v2.2702h-6.2824v4.6729c.1557.6396.3538,1.4992.3538,2.7995,0,6.414-5.1137,6.8993-8.951,7.1193l-.7698-2.336c5.4646-.1104,6.6107-1.1681,7.1201-2.8653-.4868.4181-.9933.8815-2.4253.8815-2.7789,0-4.6523-2.0283-4.6523-4.5632,0-2.0935,1.4121-4.5406,4.7174-4.5406.9933,0,1.5876.2207,2.1819.5292l-.0425-1.6973h-10.5385v-2.2702h10.4933l-.0453-2.3807ZM161.4016,112.5935c0-.6827-.1528-1.0357-.4386-1.3442-.4868-.5072-1.1461-.7492-1.7857-.7492-.9933,0-2.3375.6169-2.3375,2.3142,0,1.3222.815,2.3141,2.2696,2.3141,1.214,0,2.2922-.6834,2.2922-2.116v-.4189Z"/>
      <path class="cls-3" d="M155.1419,123.3033c-.6622,0-1.2537-.4238-1.4631-1.0584l-.7697-2.3361c-.1528-.4641-.0764-.9727.2066-1.3718.2815-.399.7372-.6402,1.2253-.6501.3721-.0071.7188-.0191,1.0414-.0354-1.5409-1.0881-2.5073-2.8745-2.5073-4.9714,0-1.5084.5349-3.0266,1.5834-4.1685h-3.7256c-.8504,0-1.5409-.6898-1.5409-1.5402v-2.2702c0-.8504.6905-1.5402,1.5409-1.5402h8.9241l-.0156-.8115c-.0085-.4132.15-.8122.4401-1.1079.29-.295.6862-.4613,1.0994-.4613h2.5582c.8504,0,1.5395.6898,1.5395,1.5402v.8405h4.7429c.8504,0,1.5409.6898,1.5409,1.5402v2.2702c0,.8504-.6905,1.5402-1.5409,1.5402h-4.7429v2.9502c.1797.7563.3537,1.676.3537,2.982,0,8.0603-7.0252,8.4635-10.4027,8.6567-.0297.0021-.0594.0028-.0877.0028ZM162.2223,115.2282c.0311.0177.0623.0361.0934.0559.0736.0481.1415.1011.2051.1584.0199-.2355.0298-.4832.0312-.7428-.0934.1868-.2052.3636-.3297.5285ZM159.1773,112.0403c-.5292,0-.798.2603-.798.774,0,.7138.3778.774.7301.774.7513,0,.7513-.375.7513-.5759v-.4189c0-.2271-.0254-.3049-.0254-.3056-.1514-.1471-.3976-.2476-.658-.2476ZM162.0893,110.1994c.0382.0411.075.0828.1089.1253v-.1953c-.0212.0156-.0452.0304-.0679.0453-.0141.0085-.0269.017-.041.0247ZM162.2888,106.0154c.0806.0701.1528.1486.2165.2342.058-.0771.1217-.1486.1924-.2137-.0792-.0728-.1514-.1549-.2151-.244-.0466.0665-.099.1294-.157.1882-.0113.012-.0241.024-.0368.0353Z"/>
    </g>
  </g>
  <g>
    <path class="cls-6" d="M65.1028,91.7746c-1.8734.4634-6.7012,1.1469-8.4218,1.3011l-.3311-2.2484c.8377-.0665,1.7857-.1323,3.727-.3311v-5.9951h-3.5289v-2.0722h3.5289v-1.8734h-2.0715v-1.4327c-.5518.5285-.8376.7712-1.1687,1.0358l-.8179-2.2922c1.5678-1.0138,3.2855-3.108,3.9251-5.0259h2.4903c.5943,1.3668,1.896,2.8879,3.4157,3.7255l-1.2989,1.8954c-1.8083-1.2565-3.0195-3.1519-3.2629-3.5268-.4188.7273-1.1235,1.9399-2.6233,3.5268h5.6004v2.0941h-2.1168v1.8734h3.1723v2.0722h-3.1723v5.7305c1.6753-.22,2.6007-.4407,3.1723-.573l.0679,1.6095c3.461-1.8734,4.2986-4.8936,4.7599-6.9213h-4.1656v-2.2044h4.4543c.0198-.2201.0424-.4408.0424-.7931v-2.2045h-2.1167c-.5717,1.6753-.8801,2.138-1.0782,2.4245l-1.964-1.0138c.7952-1.1461,1.7659-3.681,1.964-6.6128l2.2243.3085c-.0651.5072-.1302,1.168-.5066,2.6891h1.4772v-4.0998h2.2498v4.0998h4.1203v2.2045h-4.1203v2.2264c0,.3304-.0226.4846-.0453.7712h4.5845v2.2044h-4.3637c.2631.9474,1.2111,4.4522,4.7174,7.0536l-1.3895,2.1599c-2.4026-2.2045-3.7043-4.254-4.5618-6.6566-.948,2.7995-2.8214,5.202-5.3796,6.6785l-1.1886-1.8076ZM58.5997,85.7356c.2632,1.2339.2858,1.4765.5716,3.703l-1.7856.2646c-.0651-1.4992-.3736-3.108-.5292-3.7695l1.7432-.1981ZM65.2132,85.6472c-.0679.9261-.4189,2.6672-.6849,3.5487l-1.63-.2865c.3311-1.2784.5066-3.2841.5292-3.5049l1.7857.2427Z"/>
    <path class="cls-6" d="M84.6093,92.8111c-1.2791-1.8741-2.5582-3.4164-3.9024-4.8498l2.029-1.4326c1.4999,1.3449,3.2629,3.3945,4.2109,4.6955l-2.3375,1.5869Z"/>
    <path class="cls-6" d="M102.9698,85.9556c.9253,0,2.0714,0,6.2823-.4188.1529-.6169.2406-1.4326.2406-1.8295v-1.0358h-5.7532v-2.2045h5.7532v-2.9317h-6.1268v-2.2038h6.1268v-2.5568h2.3375v10.7126c0,.8815-.0877,1.3661-.133,1.763.5971-.0877.948-.1542,2.0064-.3969v2.0722c-1.0131.1981-1.6527.3304-2.6233.4846-.8603,2.0722-2.247,3.8798-6.3702,6.194l-1.4772-2.2257c3.0875-1.3669,4.4317-2.888,4.9382-3.5714-.9027.1104-2.2696.2427-4.958.4853l-.2433-2.3368ZM117.3202,72.7747v2.5568h6.4126v2.2038h-6.4126v3.2628h5.906v2.1819h-5.906v3.6371h6.6107v2.1819h-6.6107v4.7613h-2.3601v-20.7856h2.3601Z"/>
    <path class="cls-6" d="M135.1967,91.7746c-1.8734.4634-6.7012,1.1469-8.4218,1.3011l-.3311-2.2484c.8377-.0665,1.7857-.1323,3.727-.3311v-5.9951h-3.5289v-2.0722h3.5289v-1.8734h-2.0715v-1.4327c-.5518.5285-.8376.7712-1.1687,1.0358l-.8179-2.2922c1.5678-1.0138,3.2855-3.108,3.9251-5.0259h2.4903c.5943,1.3668,1.896,2.8879,3.4157,3.7255l-1.2989,1.8954c-1.8083-1.2565-3.0195-3.1519-3.2629-3.5268-.4188.7273-1.1235,1.9399-2.6233,3.5268h5.6004v2.0941h-2.1168v1.8734h3.1723v2.0722h-3.1723v5.7305c1.6753-.22,2.6007-.4407,3.1723-.573l.0679,1.6095c3.461-1.8734,4.2987-4.8936,4.7599-6.9213h-4.1656v-2.2044h4.4543c.0198-.2201.0424-.4408.0424-.7931v-2.2045h-2.1167c-.5717,1.6753-.8801,2.138-1.0782,2.4245l-1.964-1.0138c.7952-1.1461,1.7659-3.681,1.964-6.6128l2.2243.3085c-.0651.5072-.1302,1.168-.5066,2.6891h1.4772v-4.0998h2.2498v4.0998h4.1203v2.2045h-4.1203v2.2264c0,.3304-.0226.4846-.0453.7712h4.5845v2.2044h-4.3637c.2631.9474,1.2112,4.4522,4.7174,7.0536l-1.3895,2.1599c-2.4026-2.2045-3.7043-4.254-4.5618-6.6566-.948,2.7995-2.8214,5.202-5.3796,6.6785l-1.1886-1.8076ZM128.6936,85.7356c.2632,1.2339.2858,1.4765.5716,3.703l-1.7856.2646c-.0651-1.4992-.3736-3.108-.5292-3.7695l1.7432-.1981ZM135.3071,85.6472c-.0679.9261-.4189,2.6672-.6849,3.5487l-1.63-.2865c.3311-1.2784.5066-3.2841.5292-3.5049l1.7857.2427Z"/>
    <path class="cls-6" d="M33.4277,120.3751c2.6431-.1988,5.0683-1.2126,5.906-1.698h-4.2307v-9.8304h16.9285v9.8304h-3.86c2.0064.948,3.4411,1.4553,5.6881,1.698l-1.1914,2.0057c-2.8639-.5073-4.8476-1.3004-6.721-2.6234l1.3215-1.0803h-7.4935l1.63,1.2346c-1.1688.7718-4.5618,2.0941-6.789,2.5129l-1.1885-2.0495ZM34.1097,102.3663h18.9575v5.3124h-18.9575v-5.3124ZM36.2689,106.1576h3.4836v-2.0502h-3.4836v2.0502ZM37.3726,111.712h12.3865v-1.19h-12.3865v1.19ZM37.3726,114.3573h12.3865v-1.3004h-12.3865v1.3004ZM37.3726,117.1348h12.3865v-1.2791h-12.3865v1.2791ZM41.824,106.1576h3.4836v-2.0502h-3.4836v2.0502ZM47.3565,106.1576h3.4836v-2.0502h-3.4836v2.0502Z"/>
    <path class="cls-6" d="M60.408,104.1958c-.1557.9699-.4188,2.6226-.4188,5.4221,0,2.1606.1754,6.9658,1.4743,8.5088.2208.2639.6622.5504,1.2141.5504,1.4093,0,2.5554-2.4245,3.3506-4.6064l2.1139,1.1462c-1.497,4.0998-3.3478,6.0835-5.6853,6.0835-4.1656,0-5.0032-6.2816-5.0032-11.8367,0-2.4684.1981-4.5406.2858-5.5764l2.6686.3085ZM73.9406,118.9198c-.0651-4.1437-.1104-6.2817-1.0357-8.7727-.8377-2.2922-1.9187-3.6591-2.8215-4.5625l1.9612-1.4553c2.7563,2.9756,4.6948,5.9739,4.6948,14.6363l-2.7988.1542Z"/>
    <path class="cls-6" d="M93.1613,106.5545c.2632,3.8353,1.4546,6.0836,2.0941,7.2955,1.8932-3.4602,2.4026-6.4805,2.6432-8.2216h-7.2502v-1.3003h-1.1037v18.0307h-2.2243v-4.0121c-2.1394.6835-5.5778,1.4107-7.2078,1.6095l-.4188-2.1825c.3085,0,1.1461-.1543,1.4093-.1981v-13.2475h-1.2791v-2.0722h11.1979v1.1242h9.2142v2.2483c-.9707,6.194-2.6686,9.0593-3.5261,10.4919,1.5876,2.1161,3.1723,3.2183,4.1656,3.8579l-1.3017,2.2264c-.8603-.6176-2.4026-1.7418-4.2534-4.1005-1.8507,2.3148-3.4383,3.5713-4.2986,4.2547l-1.4546-1.9837c.9028-.6396,2.5583-1.8522,4.3213-4.3645-.9254-1.6314-2.4252-4.4967-2.8667-9.1257l2.1394-.3304ZM83.2849,104.3281v2.7549h4.0355v-2.7549h-4.0355ZM83.2849,109.0668v2.7556h4.0355v-2.7556h-4.0355ZM87.3204,113.85h-4.0355v3.3287c2.4253-.4408,2.9969-.595,4.0355-.9042v-2.4245Z"/>
    <path class="cls-6" d="M110.1124,102.6747c-.4188,1.5869-.5744,2.7995-.8376,4.9375,1.3866-1.9618,3.393-3.1518,5.7079-3.1518,2.9544,0,5.7758,2.5129,5.7758,7.6485,0,6.2817-3.0421,9.3677-12.2789,9.4123l-.4613-2.3368c4.9806-.0658,10.2273-.2865,10.2273-6.9213,0-4.7393-2.1621-5.5105-3.3733-5.5105-.7273,0-4.1231.2865-5.906,5.9513.0198,1.8734.1076,2.4245.2406,3.1745l-2.4026.2419c-.133-1.0577-.1755-1.7192-.1755-3.328,0-.948,0-5.8416.9254-10.2937l2.5582.1761Z"/>
    <path class="cls-6" d="M136.2749,104.5927v-2.0283h2.4252v2.0283h7.055v2.2257h-7.055v2.271h6.6786v2.2038h-6.6786v2.9537c.7924.375,3.8798,1.7411,6.5258,4.2102l-1.6102,2.0276c-2.8441-2.4903-3.3054-2.8872-4.9156-3.7468v.4408c0,1.5649-.133,2.0722-.4839,2.5787-1.1036,1.6096-3.3959,1.6534-4.2562,1.6534-4.4288,0-5.2891-2.4245-5.2891-3.9675,0-3.086,3.0648-4.1218,5.5551-4.1218,1.0132,0,1.6074.1316,2.0489.2201v-2.2484h-7.8247v-2.2038h7.8247v-2.271h-8.2435v-2.2257h8.2435ZM136.3202,115.7899c-.5943-.1981-1.2791-.4188-2.2498-.4188-1.2565,0-3.0846.4188-3.0846,2.0057,0,1.4772,1.5197,1.8076,2.8441,1.8076,2.4903,0,2.4903-1.2565,2.4903-2.1599v-1.2346Z"/>
    <path class="cls-6" d="M161.1809,102.5205h2.5582v2.3807h6.2824v2.2702h-6.2824v4.6729c.1557.6396.3538,1.4992.3538,2.7995,0,6.414-5.1137,6.8993-8.951,7.1193l-.7698-2.336c5.4646-.1104,6.6107-1.1681,7.1201-2.8653-.4868.4181-.9933.8815-2.4253.8815-2.7789,0-4.6523-2.0283-4.6523-4.5632,0-2.0935,1.4121-4.5406,4.7174-4.5406.9933,0,1.5876.2207,2.1819.5292l-.0425-1.6973h-10.5385v-2.2702h10.4933l-.0453-2.3807ZM161.4016,112.5935c0-.6827-.1528-1.0357-.4386-1.3442-.4868-.5072-1.1461-.7492-1.7857-.7492-.9933,0-2.3375.6169-2.3375,2.3142,0,1.3222.815,2.3141,2.2696,2.3141,1.214,0,2.2922-.6834,2.2922-2.116v-.4189Z"/>
  </g>
</svg>