<?xml version="1.0" encoding="UTF-8"?>
<svg id="_デザイン" data-name="デザイン" xmlns="http://www.w3.org/2000/svg" viewBox="0 0 200.0485 200.0535">
  <defs>
    <style>
      .cls-1 {
        fill-rule: evenodd;
      }

      .cls-1, .cls-2 {
        fill: #fff;
      }

      .cls-3 {
        fill: #231815;
      }

      .cls-4 {
        fill: #e74d0c;
      }

      .cls-5 {
        opacity: .6;
      }
    </style>
  </defs>
  <g>
    <path class="cls-4" d="M.0006,100.378c.1939,55.244,45.1369,99.8688,100.3767,99.6749,55.2412-.201,99.8631-45.1371,99.6706-100.3781C199.8569,44.4287,154.9081-.1918,99.6727.0006,44.4273.1979-.1919,45.1404.0006,100.378Z"/>
    <path class="cls-2" d="M100.0153,189.9818c-48.8908,0-88.7486-39.6845-88.9227-88.6177v-.0008c-.1726-49.0337,39.5819-89.0698,88.6213-89.2474h.3071c48.895,0,88.7641,39.6909,88.9382,88.622.1698,49.0352-39.5861,89.0699-88.6227,89.2439h-.3212ZM18.4108,101.3379c.1613,44.9035,36.7406,81.3251,81.6045,81.3251.099,0,.1967,0,.2957-.0007,45.0012-.1592,81.4857-36.8992,81.3301-81.8989-.1613-44.9014-36.752-81.3286-81.6201-81.3286-.0963,0-.1854,0-.2816.0007-44.9997.1627-81.4815,36.9076-81.3286,81.9024h0Z"/>
  </g>
  <g id="_4QtLe8" data-name="4QtLe8" class="cls-5">
    <path class="cls-1" d="M42.0374,148.2261l6.0687-104.846s19.0834.1197,27.4176,0c2.1238-.0297,2.6487.6616,2.7562,2.6985.5618,10.6106,2.8102,43.7722,2.8102,43.7722,0,0,23.7571-16.8083,35.9681-25.4495v24.4307c11.7314-8.2988,22.9872-16.2607,34.5361-24.4312,2.6673,28.19,7.9449,83.9384,7.9449,83.9384l-117.5018-.1131ZM112.7453,107.8645c0,4.4465-.0368,8.7048.0538,12.9602.01.4182.7783,1.1688,1.2071,1.1767,4.2532.0891,8.508.0544,12.9028.0544v-14.1913h-14.1637ZM72.6669,107.8249v14.0653h13.8679v-14.0653h-13.8679Z"/>
  </g>
  <g>
    <g>
      <path class="cls-2" d="M68.3127,48.0527h6.1267c.3085-.7273.5066-1.2784.8603-2.5349l2.513.1762c-.068.1768-.5519,1.6533-.9254,2.3587h8.0879v18.2953h-2.3149v-1.3003h-12.0356v1.3003h-2.312v-18.2953ZM82.6603,50.1907h-12.0356v2.6233h12.0356v-2.6233ZM82.6603,54.9081h-12.0356v2.9318h12.0356v-2.9318ZM70.6247,59.9114v2.9983h12.0356v-2.9983h-12.0356Z"/>
      <path class="cls-2" d="M84.9752,67.8882h-2.3149c-.7697,0-1.4065-.5639-1.5211-1.3003h-8.9934c-.1146.7364-.7514,1.3003-1.5211,1.3003h-2.312c-.8504,0-1.5409-.6898-1.5409-1.5402v-18.2953c0-.8504.6905-1.5402,1.5409-1.5402h5.0726c.1245-.3608.2575-.7924.4315-1.4121.1981-.7032.8674-1.1546,1.5904-1.1192l2.513.1761c.4867.0347.9296.2972,1.1914.7096.2618.4118.3141.9233.1387,1.3789l-.0595.1691c-.0099.0325-.0212.0651-.0339.0976h5.8183c.8503,0,1.5408.6898,1.5408,1.5402v18.2953c0,.8504-.6905,1.5402-1.5408,1.5402Z"/>
    </g>
    <g>
      <path class="cls-2" d="M95.2477,66.37h-2.2696v-8.5081c-1.3244,1.2345-1.9837,1.6307-2.6686,2.0495l-.9706-2.2483c2.8214-1.6527,4.9834-4.0334,5.9965-6.436h-5.6852v-2.1606h3.3279v-3.4383h2.2696v3.4383h2.578v2.1606c-.3735.8377-.8801,1.9392-2.2243,3.7249,1.1235,1.2784,1.6527,1.6534,3.0846,2.7111l-1.0583,2.0941c-1.0358-.8377-1.6301-1.4327-2.38-2.3142v8.927ZM102.7639,45.6282h2.3149v6.2378h4.7174v2.3587h-4.7174v9.0592h5.224v2.3588h-13.094v-2.3588h5.5551v-9.0592h-4.6071v-2.3587h4.6071v-6.2378Z"/>
      <path class="cls-2" d="M95.2477,67.9101h-2.2696c-.8504,0-1.5409-.6898-1.5409-1.5401v-5.3443c-.0976.0615-.1952.121-.2914.1797-.3792.2327-.8575.3014-1.2862.1641-.4245-.1351-.7867-.4379-.9636-.8475l-.9707-2.2484c-.3084-.7145-.0368-1.5465.6353-1.9392,1.623-.9515,3.0493-2.2073,4.0893-3.5671h-2.9997c-.8504,0-1.5409-.6898-1.5409-1.5402v-2.1606c0-.8504.6905-1.5402,1.5409-1.5402h1.787v-1.8981c0-.8504.6905-1.5402,1.5409-1.5402h2.2696c.8504,0,1.5409.6898,1.5409,1.5402v1.8981h1.0371c.8504,0,1.5409.6898,1.5409,1.5402v1.2593h1.8564v-4.6976c0-.8504.6905-1.5402,1.5409-1.5402h2.3149c.8504,0,1.5409.6898,1.5409,1.5402v4.6976h3.1765c.8504,0,1.5409.6898,1.5409,1.5402v2.3587c0,.8504-.6905,1.5402-1.5409,1.5402h-3.1765v5.9789h3.6831c.8504,0,1.5395.6898,1.5395,1.5401v2.3588c0,.8504-.6891,1.5402-1.5395,1.5402h-13.094c-.208,0-.4061-.0411-.5872-.1161-.2547.5002-.774.8433-1.3739.8433ZM96.7886,61.0483v.7535c.133-.0375.2745-.058.4202-.058h4.0142v-5.9789h-2.5087c.2165.1641.4599.3438.7443.5539l.1429.1055c.6042.4464.798,1.2628.4585,1.9335l-1.0584,2.0941c-.2094.4153-.5957.7139-1.0513.8115-.4019.0828-.8207.0071-1.1617-.2151ZM93.5144,56.4179c.0269.0099.0523.0205.0778.0318.1217.0524.2349.1203.3354.1995.1457-.2405.3551-.4407.6112-.5737-.0311-.0347-.0622-.0708-.0948-.1069-.0806-.0926-.1486-.1924-.2052-.2978-.2306.2547-.4726.5037-.7244.7471ZM103.7544,53.0454c.0594.0502.116.1047.167.1634.0509-.0587.1075-.1132.1669-.1634-.0594-.0503-.116-.1048-.1669-.1635-.051.0587-.1076.1132-.167.1635Z"/>
    </g>
    <g>
      <path class="cls-2" d="M122.3582,62.9974c2.6233-.1103,8.0001-.3523,8.0001-7.1858,0-1.7411-.5943-5.7532-5.7956-6.0836-.3538,3.6591-.7273,7.6047-2.4026,10.7565-.3736.6834-1.6753,3.1079-4.2335,3.1079-2.8865,0-4.3411-3.306-4.3411-6.392,0-5.3125,3.7468-9.7866,10.2952-9.7866,7.3153,0,9.234,5.0252,9.234,8.6405,0,8.7507-7.8247,9.1695-10.117,9.2799l-.6395-2.3368ZM115.9881,57.5308c0,2.3806.9254,3.6371,2.029,3.6371,2.9516,0,3.8119-8.2435,4.0326-11.3295-5.2693.9253-6.0616,5.7532-6.0616,7.6924Z"/>
      <path class="cls-2" d="M122.9977,66.8744c-.6919,0-1.3017-.462-1.4857-1.1334l-.4442-1.6236c-1.1249.7952-2.2427,1.0152-3.1412,1.0152-3.8614,0-5.882-3.9902-5.882-7.9322,0-6.6687,4.8674-11.3267,11.8361-11.3267,7.952,0,10.7748,5.4843,10.7748,10.1806,0,3.8316-1.5055,10.3333-11.5842,10.818-.024.0014-.0495.0021-.0736.0021ZM125.9324,51.5137c-.3439,3.2954-.8632,6.7783-2.4125,9.6938-.034.0623-.068.1231-.1019.1832,2.9587-.2504,5.3994-1.1659,5.3994-5.5791,0-1.6477-.5391-3.5975-2.885-4.2979ZM120.2966,52.0768c-2.6106,1.5402-2.7676,4.7196-2.7676,5.454,0,1.4906.4315,2.0495.5391,2.1082.457-.1273,1.613-2.22,2.2285-7.5622Z"/>
    </g>
    <g>
      <path class="cls-2" d="M42.3681,85.2942c1.6753-2.3148,2.6431-4.629,2.8214-10.7126h2.0715c-.0226.7273-.0226,1.4107-.1104,2.4246h4.7401c-.0452,3.7248-.5065,8.4203-2.5356,12.3214,2.5554,3.0421,6.3475,3.1525,7.0748,3.1525h7.3861l-.3764,2.2922h-6.9418c-2.7789,0-5.9739-.97-8.334-3.5713-1.432,1.9844-2.9516,3.1963-3.9902,3.9901l-1.364-2.0283c.6169-.4188,2.4224-1.5869,3.9449-3.901-.5292-.9261-1.1914-2.2265-1.6329-3.9237-.5065,1.0357-.7471,1.3888-1.1008,1.9173l-1.6527-1.9612ZM46.9073,79.1661c-.2208,1.5211-.5066,2.5787-.5717,2.7775.3736,2.1819.8801,3.7249,1.6074,5.224.7273-1.6314,1.565-4.1663,1.698-8.0015h-2.7337ZM60.5757,75.1766v12.7622c0,.3749,0,.5957.3283.5957h.4641c.1981,0,.3084-.2208.3311-.375.0424-.2426.0424-.6169.1528-3.086l2.0064.375c-.0226.8596-.1754,4.1217-.7046,4.6728-.5066.5292-1.1235.5512-1.3018.5512h-2.0036c-.7301,0-1.4574-.7054-1.4574-1.565v-11.749h-2.9742v4.2102c0,.7718-.0877,2.6014-.5745,4.7174-.549,2.4684-1.6753,3.8133-2.1592,4.3864l-1.8083-1.565c1.1263-1.1687,2.4026-2.9098,2.4026-7.7589v-6.172h7.2983Z"/>
      <path class="cls-2" d="M44.1736,96.7313c-.0835,0-.167-.0071-.2505-.0205-.4188-.0686-.7909-.3078-1.0272-.6601l-1.364-2.0283c-.474-.704-.2887-1.6576.4131-2.1338.6254-.4238,1.8409-1.2444,2.9969-2.7379-.0835-.1641-.1698-.3382-.2561-.5221-.1769.0849-.3707.1365-.5688.1471-.4528.0319-.9622-.157-1.2735-.5277l-1.6526-1.9612c-.4556-.5412-.4854-1.3222-.0708-1.8953,1.323-1.8288,2.3503-3.715,2.53-9.8551.024-.8327.706-1.4949,1.5394-1.4949h2.0715c.4174,0,.8164.169,1.1065.4683s.4457.7032.433,1.1199l-.0128.4528c-.0028.126-.0056.2533-.0099.3835h2.9587v-.2894c0-.8504.6905-1.5402,1.5409-1.5402h7.2983c.8504,0,1.5409.6898,1.5409,1.5402v8.3794c.0057.0014.0113.0021.0184.0035l2.0064.375c.7443.1393,1.2763.798,1.2565,1.5543-.1061,4.063-.682,5.1582-1.0089,5.5615.2292.0919.4372.2398.6014.4329.2929.3446.4188.8002.3452,1.2466l-.3764,2.2922c-.1216.7443-.7655,1.2905-1.5196,1.2905h-6.9418c-3.0421,0-5.9343-1.0202-8.1742-2.8441-1.2961,1.4801-2.5398,2.4309-3.2147,2.9467-.2703.2065-.6.3162-.9353.3162ZM54.5947,90.7163c.8787.2024,1.5791.2236,1.8352.2236h1.0174c-.3736-.5179-.5957-1.1539-.5957-1.8324v-5.5911c-.0864.8645-.2378,1.9391-.508,3.115-.4202,1.8882-1.1546,3.2246-1.7489,4.0849ZM60.1753,87.9324v.0036-.0036ZM45.1117,83.6904c-.017.0368-.034.0729-.0509.1089.024-.0014.0523,0,.075-.0014-.0071-.0353-.0156-.0714-.0241-.1075Z"/>
    </g>
    <g>
      <path class="cls-2" d="M65.9101,91.3778c.6169-.1768.7697-.2207,2.7535-.8596v-6.0177h-2.2243v-2.2265h2.2243v-4.5186h-2.4252v-2.2038h7.1002v2.2038h-2.4054v4.5186h2.029v2.2265h-2.029v5.224c.7499-.2646,1.3668-.5073,2.4054-.9261v2.1606c-1.8083.8377-4.8731,2.0057-7.1002,2.5568l-.3283-2.138ZM74.0857,75.1547h12.2563v10.5584h-5.0486v2.2038h5.2693v2.0502h-5.2693v2.513h5.6004v2.116h-14.2174v-2.116h6.4578v-2.513h-5.1787v-2.0502h5.1787v-2.2038h-5.0485v-10.5584ZM76.2024,77.1604v2.3368h2.9318v-2.3368h-2.9318ZM76.2024,81.3041v2.4471h2.9318v-2.4471h-2.9318ZM81.2934,77.1604v2.3368h2.9318v-2.3368h-2.9318ZM81.2934,81.3041v2.4471h2.9318v-2.4471h-2.9318Z"/>
      <path class="cls-2" d="M86.8938,96.1363h-14.2174c-.8504,0-1.5409-.6898-1.5409-1.5402v-1.052c-1.514.5773-3.1638,1.1291-4.5278,1.4666-.4189.1054-.8632.0269-1.224-.2136-.3594-.2399-.6013-.6198-.6678-1.0478l-.3283-2.138c-.1174-.7662.3523-1.5006,1.098-1.7142.4698-.1344.665-.191,1.6371-.5016v-3.3549h-.6834c-.8504,0-1.5409-.6898-1.5409-1.5401v-2.2265c0-.8504.6905-1.5402,1.5409-1.5402h.6834v-1.4383h-.8843c-.8504,0-1.5409-.6897-1.5409-1.5401v-2.2038c0-.8504.6905-1.5402,1.5409-1.5402h6.8158c.2731-.2469.6339-.3969,1.0315-.3969h12.2563c.8504,0,1.5409.6898,1.5409,1.5402v10.5584c0,.3792-.1373.7265-.3651.9954.3566.2816.5858.7181.5858,1.2084v2.0502c0,.4528-.1967.8603-.508,1.1419.4981.2554.8391.7733.8391,1.3711v2.116c0,.8504-.6905,1.5402-1.5409,1.5402ZM72.474,86.0406v1.4461c0-.0007.0015-.0014.0029-.0014.0835-.2887.2504-.5419.4712-.7337-.1797-.1966-.3085-.4407-.3679-.711h-.1062ZM69.7276,83.3869c.0241.0233.0481.0474.0708.0721.0226-.0247.0467-.0488.0707-.0721-.024-.0227-.0481-.0467-.0707-.0715-.0227.0248-.0467.0488-.0708.0715ZM72.474,80.7338h.0722l-.0722-1.4383v1.4383Z"/>
    </g>
    <g>
      <path class="cls-2" d="M97.1183,79.541h-3.5912v2.4904h3.8572c-.0227,2.4471-.1104,9.6987-.5943,11.749-.266,1.1681-.7499,1.4107-2.3149,1.4107h-1.8083l-.3735-2.1825h1.7404c.2858,0,.5065,0,.6169-.242.3962-.8603.5292-7.2304.5518-8.5527h-1.6753v.97c0,2.8433-.5065,6.5243-2.8214,9.9407l-1.4998-1.8514c.7499-1.2565,2.1818-3.7249,2.1818-8.0893v-5.6429h-1.7857v-2.1825h3.0648v-2.7769h2.2696v2.7769h2.912v1.543c.1981-.1981,1.8281-1.763,2.8214-4.4302l2.2243.2646c-.1528.4846-.3311,1.0576-.682,1.7849h8.0879v2.1387h-9.4123c-1.0131,1.3662-1.9385,2.16-2.6431,2.7769l-1.3895-1.7192.2632-.1762ZM99.1926,83.6628v-2.9318h2.1139v2.4245l1.964-.4846v-3.1299h2.0715v2.6227l4.2533-1.0577c-.0226,5.3343-.0424,6.9432-.3735,7.8027-.1981.4854-.7726.8377-1.8536.8377h-1.3867l-.266-2.1161h1.0358c.3537,0,.5292-.1103.6395-.3969.1104-.3304.1557-2.8214.1557-3.3725l-2.2045.5292v6.7451h-2.0715v-6.2598l-1.964.4846v6.789c0,.4407.0906.6176.7075.6176h5.3344c.7046,0,.8574-.1104.9254-2.513l2.1365.617c-.2858,3.6152-.7923,4.0121-2.6006,4.0121h-6.5032c-1.2763,0-2.1139-.5292-2.1139-1.8741v-7.1639l-1.1037.2646-.2207-2.1161,1.3244-.3304Z"/>
      <path class="cls-2" d="M94.4751,96.7313h-1.8083c-.3877,0-.7471-.145-1.0201-.387-.2491.1917-.5533.3056-.8759.3191-.4867.0035-.9565-.191-1.2621-.5695l-1.4999-1.8515c-.4061-.5016-.457-1.2041-.1259-1.7588.6381-1.0683,1.9653-3.2905,1.9653-7.2997v-4.1027h-.2462c-.8503,0-1.5408-.6898-1.5408-1.5402v-2.1825c0-.8504.6905-1.5402,1.5408-1.5402h1.5239v-1.2367c0-.8504.6905-1.5401,1.5409-1.5401h2.2696c.8504,0,1.5409.6897,1.5409,1.5401v1.2367h1.3711c.1486,0,.2915.0212.4273.0601.3382-.5497.6735-1.1991.9509-1.9448.2476-.6657.9126-1.0725,1.6257-.9919l2.2243.2646c.4542.0545.8632.3085,1.1108.694.208.3219.2872.7075.2278,1.0804h5.8848c.8504,0,1.5408.6897,1.5408,1.5401v2.1387c0,.6827-.4442,1.2615-1.0597,1.4638.2278.2752.3565.6247.3537.989-.0227,5.6273-.0453,7.1371-.4344,8.2386l.1372.0396c.7033.2031,1.166.8723,1.108,1.6018-.2519,3.1793-.6948,5.4305-4.1359,5.4305h-6.5032c-1.514,0-2.6431-.5907-3.2218-1.6173-.6905,1.7631-2.2102,1.9258-3.6096,1.9258ZM99.1926,83.6628h.0141-.0141Z"/>
    </g>
    <g>
      <path class="cls-2" d="M112.9686,78.3504h8.5293v2.0064h-8.5293v-2.0064ZM113.6732,75.2424h7.0323v1.9838h-7.0323v-1.9838ZM113.6732,81.5248h7.0323v1.9838h-7.0323v-1.9838ZM120.7055,93.8462v.4408h-5.0712v.9261h-1.9611v-7.1859h7.0323v4.9594c.9028-.1761,2.6884-.595,4.8052-1.8734-1.9187-1.7637-2.578-3.1298-2.9091-3.8352l1.8054-.7273c.3764.6827,1.1037,2.0276,2.779,3.3499,1.8083-1.5211,2.513-2.9756,2.8639-3.7468h-8.0879v-2.2045h10.448v2.2045c-.3764.8596-1.214,2.7111-3.4383,4.9375,1.0131.595,2.445,1.3223,5.091,1.9618l-.948,2.16c-.9905-.2646-3.0648-.8377-5.841-2.6892-2.6657,2.0277-4.8051,2.4684-5.7758,2.6892l-.7924-1.3669ZM113.6732,84.6985h7.0323v2.0064h-7.0323v-2.0064ZM115.6343,89.8348v2.5568h3.1299v-2.5568h-3.1299ZM120.9036,81.326c2.0715-1.168,2.247-4.3418,2.247-5.1575,0-.3969-.0198-.6615-.0425-.9261h7.2078v4.6729c0,.2427.0877.5511.5065.5511h.3736c.266,0,.4414-.22.4867-.4627.0425-.1761.2208-1.5649.2632-2.6452l2.029.4407c-.065,3.7914-.5942,4.8279-2.2497,4.8279h-1.9612c-1.5422,0-1.5875-1.2346-1.5875-1.4327v-3.7914h-2.9092c-.3311,2.9976-.9904,4.3418-2.6657,5.5983l-1.698-1.6753Z"/>
      <path class="cls-2" d="M133.1147,96.7532c-.1316,0-.2646-.017-.3976-.0523-.8773-.2342-2.8101-.7507-5.3924-2.3191-2.4465,1.6463-4.4034,2.0884-5.3995,2.3134-.6537.1493-1.422-.1266-1.7602-.7096l-.092-.1585h-3.0251c-.2377.5448-.7811.9261-1.4136.9261h-1.9611c-.8504,0-1.5409-.6898-1.5409-1.5401v-7.1859c0-.2363.0538-.4605.15-.6615-.0962-.2002-.15-.4245-.15-.6608v-2.0064c0-.2108.0425-.4117.1203-.5949-.0778-.1833-.1203-.3842-.1203-.595v-1.8579c-.423-.2745-.7046-.7513-.7046-1.2939v-2.0064c0-.5427.2816-1.0195.7046-1.294v-1.814c0-.8504.6905-1.5402,1.5409-1.5402h7.0323c.4854,0,.9197.225,1.2013.5766.0212-.0268.0439-.053.0665-.0778.2915-.3176.7033-.4988,1.1348-.4988h7.2078c.8504,0,1.5409.6898,1.5409,1.5402v.5787c.1372-.0099.2787.0022.416.0326l2.029.4407c.7174.1557,1.2253.7967,1.2126,1.531-.0325,1.8847-.0764,4.4882-1.6272,5.6881.0411.138.0623.2844.0623.4358v2.2045c0,.213-.0439.4231-.1288.6176-.2745.6269-.9041,2.0659-2.3516,3.8501.757.3142,1.7064.6325,2.9558.9346.4429.1068.815.4047,1.0174.8129.2023.4089.2136.8858.0311,1.3032l-.948,2.1599c-.2505.5702-.8122.9211-1.4107.9211ZM122.2464,89.7471v1.2275c.2264-.0814.4698-.1755.7245-.2844-.2816-.3354-.5207-.6509-.7245-.9431ZM127.0629,87.694c.0325.0347.0651.07.0976.1047.0326-.0354.0637-.07.0934-.1047h-.191ZM125.3169,82.4092h1.5635c-.1642-.3885-.2434-.8059-.2434-1.2148l-.034-2.2512c-.2589,1.4454-.6607,2.5441-1.2861,3.466ZM130.1687,79.7179v.0035-.0035Z"/>
    </g>
    <g>
      <path class="cls-2" d="M145.7445,75.3747c-.0651.5073-.1302.9261-.3509,1.9618h8.9708v2.2703h-9.6103c-.2661.9042-.5292,1.4327-.75,1.8961.8603-.375,1.4546-.6396,2.5583-.6396,1.9158,0,2.8865.7719,3.526,2.5568,2.1592-.9034,4.1006-1.4326,5.2891-1.763l.5518,2.4684c-1.0131.2207-2.6884.6176-5.3994,1.5876.1104,1.0138.1104,2.138.0651,4.0998h-2.4677c.0651-.5731.0877-.9042.0877-1.6534,0-.6169-.0226-1.0584-.0453-1.4546-.9904.4847-3.6364,1.785-3.6364,3.4164,0,1.8734,2.4903,1.8734,4.6071,1.8734.2858,0,2.513,0,5.5098-.2426v2.3806c-1.6526.0665-3.5034.1104-5.1589.1104-2.4026,0-4.6722-.0439-6.1918-1.2565-.4188-.3304-1.3895-1.2565-1.3895-2.7775,0-2.2477,2.1819-3.8353,5.9739-5.819-.2207-.6834-.5518-1.3442-1.7206-1.3442-1.9611,0-3.8996,1.763-4.5844,2.7549-1.3668,2.0057-1.5197,2.2264-2.5554,3.461l-1.8083-1.8741c2.2271-2.1819,3.9675-4.8271,4.9806-7.7809h-4.4288v-2.2703h5.0684c.1981-1.0138.2433-1.521.2858-2.1599l2.6233.1981Z"/>
      <path class="cls-2" d="M149.4913,95.7833c-2.4167,0-5.1561,0-7.1526-1.5925-.5872-.4634-1.9682-1.79-1.9682-3.9817,0-.0531,0-.1061.0014-.1592-.0537.0644-.1089.1316-.1683.2016-.2802.3347-.6905.5342-1.1263.5497-.4373.0198-.8589-.1556-1.1617-.4697l-1.8083-1.8741c-.5886-.6092-.5745-1.5777.0297-2.1699,1.5536-1.5217,2.8271-3.2713,3.751-5.1405h-2.121c-.8504,0-1.5409-.6898-1.5409-1.5402v-2.2703c0-.8503.6905-1.5401,1.5409-1.5401h3.7567c.0283-.2491.0439-.474.0609-.7217.0268-.4103.2164-.7923.5277-1.0619.3085-.2681.7132-.4018,1.1249-.3721l2.6233.1981c.4217.0318.8108.2356,1.0782.5631.266.3269.3877.75.334,1.1688-.0099.0764-.0198.1507-.0297.2257h7.1214c.8504,0,1.5409.6898,1.5409,1.5401v2.2703c0,.2144-.0439.4182-.1231.6035.1174.034.2278.0807.3297.1415.3622.2172.6763.5575.7683.9693l.5518,2.4683c.0892.4005.0156.8193-.2051,1.1645-.2194.346-.5689.5894-.9693.6764-.931.203-2.2116.5143-4.1118,1.1518.0297.8192.0184,1.78-.0114,3.0662-.0042.1867-.041.365-.1061.5292.7386-.0354,1.5819-.0864,2.4974-.1606.433-.0347.8532.111,1.1688.4032.3155.2915.4966.7018.4966,1.132v2.3806c0,.8264-.6537,1.5055-1.4786,1.5388-1.7885.0722-3.6435.1118-5.2212.1118ZM146.619,89.44c-.5151.4366-.5448.6665-.5462.6828.0976.0955.3184.1634.6056.2115-.0792-.22-.109-.4577-.0821-.6955.0085-.0693.0156-.1351.0227-.1988ZM142.7307,82.3434c-.0708.1471-.1429.2936-.2179.4393.1202-.0835.2448-.1656.3721-.2441-.0566-.0615-.109-.1266-.1542-.1952ZM150.6275,81.147c.0764.1019.15.2087.2222.3191.307-.1132.607-.2193.8985-.3191h-1.1207ZM143.4693,78.7402c.0014.0028.0042.0056.0056.0085.0029-.005.0071-.0106.0114-.0156-.0057.0021-.0114.005-.017.0071ZM144.1145,78.1947c-.0028.005-.0071.0106-.0113.0163.0056-.0028.0113-.0057.017-.0078-.0015-.0028-.0043-.0057-.0057-.0085Z"/>
    </g>
    <g>
      <path class="cls-2" d="M34.3001,103.2917c-4.4317,3.7687-4.9156,7.8905-4.9156,10.448s.4839,6.6786,4.9156,10.448h-2.6885c-1.5649-1.4772-4.5844-4.629-4.5844-10.448s3.0195-8.9715,4.5844-10.448h2.6885Z"/>
      <path class="cls-2" d="M34.3001,125.7279h-2.6885c-.3933,0-.7711-.15-1.0569-.4202-1.2537-1.1829-5.0684-4.7833-5.0684-11.568s3.8147-10.3857,5.0684-11.5679c.2858-.2703.6636-.4203,1.0569-.4203h2.6885c.6452,0,1.2225.4026,1.446,1.0089.2222.6056.0439,1.2862-.4485,1.7043-3.9194,3.3336-4.3722,6.8901-4.3722,9.275s.4528,5.9407,4.3722,9.275c.4924.4182.6707,1.0988.4485,1.7044-.2235.6063-.8008,1.0088-1.446,1.0088Z"/>
    </g>
    <g>
      <path class="cls-2" d="M40.0108,106.2228c-.8377.1323-1.5225.1769-2.5356.2427l-.3311-1.9838c1.9385-.0219,4.6495-.3969,6.6135-1.0803l.7273,1.8741c-.5971.1981-1.3018.4188-2.3602.6169v2.9976h1.9612v2.116h-1.9612v.7938c.133.2866,1.0358,2.3807,2.9771,3.8353l-1.1461,2.0502c-.6396-.6834-1.2565-1.4553-1.831-3.2848v9.6549h-2.1139v-8.6184c-.6622,2.1599-1.2791,3.1518-2.2724,4.4082l-1.0358-2.5787c2.1593-2.3368,3.1073-5.8197,3.2176-6.2605h-2.7761v-2.116h2.8667v-2.6672ZM43.4916,122.204c.6622-.1543,2.9091-.728,4.5646-1.6973h-2.5582v-8.3765h11.3507v8.3765h-2.7535c.3736.2639,1.6753.9919,4.1883,1.6746l-1.0358,1.8741c-1.5451-.4188-3.4609-1.3229-4.7174-2.2045l1.1886-1.3442h-5.3118l1.2565,1.2784c-1.3668.9919-3.594,1.8515-5.0684,2.2703l-1.1036-1.8514ZM50.0824,103.4014h2.1819v1.0803h5.1589v1.7192h-5.1589v1.0364h4.4316v1.4107h-4.4316v.9473h5.6655v1.6753h-13.3346v-1.6753h5.4872v-.9473h-4.4288v-1.4107h4.4288v-1.0364h-5.1136v-1.7192h5.1136v-1.0803ZM47.5921,113.5629v.9699h7.1851v-.9699h-7.1851ZM47.5921,115.7235v.9699h7.1851v-.9699h-7.1851ZM47.5921,117.9053v.9919h7.1851v-.9919h-7.1851Z"/>
      <path class="cls-2" d="M57.2477,125.5956c-.133,0-.2688-.017-.4032-.0538-1.6909-.4584-3.7808-1.4347-5.1985-2.4301-.2604-.1826-.4542-.4387-.5618-.7309-.1075.2576-.2858.4832-.5164.6509-1.5508,1.1256-3.9605,2.0531-5.5523,2.5052-.6141.174-1.2777-.0531-1.6555-.5617-.2802.3763-.7301.6204-1.2353.6204h-2.1139c-.8504,0-1.5395-.6898-1.5395-1.5402v-2.8553c-.2872.1556-.6268.215-.9536.1698-.5434-.0786-1.0032-.4408-1.2084-.9509l-1.0358-2.5787c-.2221-.5519-.1061-1.1822.2986-1.6187.9664-1.0464,1.7078-2.4628,2.2059-3.6754h-.6339c-.8504,0-1.5409-.6898-1.5409-1.5402v-2.116c0-.5738.3141-1.074.7797-1.3393-.2179-.2193-.3722-.5058-.4274-.832l-.3311-1.9837c-.0735-.4436.0496-.8971.3382-1.2424.2887-.3445.7146-.5461,1.1645-.5511,1.6258-.0184,4.235-.3374,6.1239-.9947.7769-.271,1.6428.1231,1.9428.8971l.0368.0976h3.3817c.1953-.6261.7796-1.0803,1.4701-1.0803h2.1819c.6905,0,1.2749.4542,1.4701,1.0803h3.6888c.8504,0,1.5409.6898,1.5409,1.5402v1.7192c0,.5525-.2915,1.0364-.7287,1.3081v.5766c.7046.1422,1.2338.7641,1.2338,1.5097v1.6753c0,.6905-.4542,1.2749-1.0796,1.4709v7.7652c0,.0354-.0014.0701-.0042.1047.0976.0276.1995.0559.3014.0835.457.1238.8305.4507,1.0145.8865.1853.4351.1585.931-.0694,1.3449l-1.0357,1.8741c-.2759.4995-.798.7952-1.3485.7952ZM43.6642,119.1979v1.3746c.0906-.0233.1882-.0502.2943-.0799v-1.2671h-.0028c-.0976,0-.1953-.0092-.2915-.0276ZM40.5174,113.9824c.0382.0134.0764.0283.1131.0446.0779-.3113.2505-.5872.4882-.7924-.0608-.1111-.1203-.2243-.1769-.3375-.1174.3283-.2589.6948-.4244,1.0853ZM43.6642,107.3498h.2788c-.0807-.0714-.1529-.1514-.2165-.2377-.0198.0049-.0411.0106-.0623.0156v.2221Z"/>
    </g>
    <g>
      <path class="cls-2" d="M68.1797,114.4451c-.7952-.7054-1.5876-1.4553-2.7139-3.2183-.2632.4846-1.5848,2.9756-3.9675,4.2102l-1.2565-2.0064c.9282-.4847,2.5356-1.3442,3.5487-3.3061h-3.2176v-1.8076h3.8798c.0877-.3742.1556-.8157.1556-1.1899v-.4634h-3.6392v-1.8734h3.6392v-1.3888h2.0942v1.3888h3.0619v1.8734h-3.0619v.5072c0,.1542-.0906.8815-.1557,1.1461h3.594v1.8076h-2.9997c.8603,1.3449,1.5876,1.9619,2.4931,2.6233l-1.4545,1.6973ZM62.7547,114.8193h16.1814v9.3239h-2.2724v-.9035h-11.6818v.9035h-2.2272v-9.3239ZM64.9819,118.0376h11.6818v-1.3887h-11.6818v1.3887ZM64.9819,121.3218h11.6818v-1.565h-11.6818v1.565ZM80.17,115.3705c-1.7432-1.19-3.1073-2.2484-4.3213-4.4968-.9254,1.6973-2.6884,2.866-4.3213,3.681l-1.3866-2.0057c.8603-.3084,2.6007-.9918,3.6817-2.4245h-2.6686v-1.8076h3.4383c.068-.3084.1557-.7273.1557-1.2119v-.4414h-3.2205v-1.8734h3.2205v-1.3888h2.1139v1.3888h3.8572v1.8734h-3.8572v.4414c0,.3523-.0877.8377-.1528,1.2119h4.5392v1.8076h-3.6138c1.1914,2.0722,2.8667,2.8214,3.8345,3.2622l-1.2989,1.9838Z"/>
      <path class="cls-2" d="M78.9361,125.6833h-2.2724c-.624,0-1.1602-.3707-1.4022-.9034h-8.8774c-.242.5327-.7782.9034-1.4022.9034h-2.2272c-.8503,0-1.5408-.6897-1.5408-1.5401v-7.1922c-.409-.0772-.7839-.3191-1.0216-.6969l-1.2565-2.0064c-.2278-.3636-.2929-.8065-.1797-1.2204.1118-.4146.3919-.7634.7726-.9622.2207-.1153.4839-.2525.7669-.4252-.7188-.1308-1.2636-.7598-1.2636-1.5154v-1.8076c0-.4443.1882-.8447.4896-1.1256-.0595-.1648-.092-.3424-.092-.5277v-1.8734c0-.8504.6891-1.5402,1.5395-1.5402h2.1068c.075-.7797.733-1.3888,1.5324-1.3888h2.0942c.7994,0,1.4574.6091,1.5324,1.3888h1.5295c.3283,0,.6311.1026.8815.2773.2505-.1747.5533-.2773.8815-.2773h1.6881c.075-.7797.7329-1.3888,1.5324-1.3888h2.1139c.7995,0,1.4574.6091,1.5324,1.3888h2.3248c.8504,0,1.5409.6898,1.5409,1.5402v1.8734c0,.1528-.0227.2999-.0637.4393.3608.2816.5929.7209.5929,1.214v1.8076c0,.7938-.6014,1.4475-1.3726,1.531.2392.1238.4642.2264.6651.3177.4089.186.7287.5475.8532.9791.1259.4316.0693.902-.1769,1.2784l-1.2989,1.9838c-.2264.3438-.5801.5836-.982.665v7.2637c0,.8504-.6905,1.5401-1.5409,1.5401ZM65.4615,109.6993c.0665,0,.1316.0043.1953.0121.0113-.0375.0226-.075.0368-.1125-.0679-.0453-.133-.0962-.1939-.1521-.0764.0707-.1598.1337-.249.1874.0085.0255.0156.051.0241.0765.0608-.0078.1231-.0128.1867-.0114Z"/>
    </g>
    <g>
      <path class="cls-2" d="M99.2803,109.0223v1.9837c-.7499.6177-3.9222,3.3287-4.5844,3.8798.2207-.0665.4414-.1103.7697-.1103,1.6555,0,2.1847,1.4545,2.1847,3.1298v.8596c0,1.323.0198,2.0057,1.9385,2.0057,1.1008,0,2.9544-.0658,3.9675-.1761v2.4245c-2.2271.0665-3.4836.0665-3.9902.0665-3.6137,0-4.3184-1.3888-4.3184-3.8133v-.8157c0-.6834,0-1.6753-1.1687-1.6753-.8377,0-1.698.353-2.38.9699-.8603.7938-4.542,4.5406-5.3344,5.2679l-1.7658-1.8069c.1556-.1104,3.6392-3.3945,4.2109-3.9237,1.1914-1.1461,2.029-1.9179,6.7012-6.0836l-9.2368.2201v-2.3361l13.0062-.0665ZM99.2803,107.7877c-1.1914-.3742-3.8147-1.2119-10.7338-1.4984l.3509-2.2484c5.357.1981,8.3114.6615,10.9347,1.3442l-.5518,2.4026Z"/>
      <path class="cls-2" d="M99.569,124.6257h-.0029c-4.0524,0-5.8579-1.6513-5.8579-5.3535v-.8157c0-.0269,0-.0566-.0014-.0878-.3466.08-.6834.2618-.9749.5243-.4146.3827-1.5394,1.5097-2.6544,2.624-1.1405,1.1412-2.2696,2.2682-2.6715,2.6368-.614.5624-1.5635.5362-2.1422-.058l-1.7659-1.8069c-.3155-.3226-.474-.7662-.4329-1.2155.041-.4485.2759-.8567.6424-1.1178.14-.1252,1.9158-1.7927,2.8709-2.6877l1.1857-1.11c.8433-.8115,1.4886-1.4171,3.6011-3.3138l-5.0542.1202c-.4132.0128-.8165-.1471-1.1122-.4372-.2971-.29-.4641-.6877-.4641-1.1022v-2.3361c0-.8476.6834-1.5359,1.531-1.5402l1.3838-.0071c-.1075-.0778-.2066-.1698-.2929-.2752-.2787-.3389-.399-.781-.3311-1.2147l.3509-2.2484c.1161-.752.7655-1.3024,1.5197-1.3024.0198,0,.0396,0,.058.0007,4.8971.1811,8.16.5851,11.2658,1.393.8066.2101,1.3004,1.023,1.1136,1.8352l-.5518,2.4026c-.0212.0941-.0524.1853-.0906.2731.0849.1924.1302.4025.1302.6169v1.9837c0,.4606-.2066.8964-.5617,1.1886-.3778.3113-1.3754,1.1581-2.3517,1.988.757.7301,1.2834,1.9243,1.2834,3.7227v.8596c0,.1267,0,.3.0042.45.0977.0092.2264.0156.3934.0156,1.0952,0,2.8837-.0673,3.8005-.167.4373-.0467.8702.0927,1.1957.3841.3254.2922.5108.7096.5108,1.1469v2.4245c0,.8327-.6608,1.5147-1.4942,1.5395-2.247.0672-3.5176.0672-4.0326.0672ZM93.2187,115.3202c-.0015,0-.0015.0007-.0015.0007h.0015v-.0007ZM96.9159,110.5745c.0099.0212.0184.0431.0269.0651.034.0842.0594.1698.0764.2561.133-.1125.2618-.2208.3835-.3233l-.4868.0021Z"/>
    </g>
    <g>
      <path class="cls-2" d="M113.7185,113.7397c0,1.2784-1.0131,2.2923-2.2922,2.2923s-2.3149-1.0139-2.2923-2.2923c0-1.2784,1.0358-2.2929,2.2923-2.2929s2.2922,1.0145,2.2922,2.2929Z"/>
      <path class="cls-2" d="M111.4263,117.5721c-1.0485,0-2.0262-.4075-2.7521-1.1468-.7146-.7273-1.098-1.6909-1.0796-2.7132-.0014-2.0856,1.7191-3.8055,3.8317-3.8055s3.8317,1.7199,3.8317,3.8331-1.7192,3.8324-3.8317,3.8324ZM111.4263,112.987c-.4146,0-.7514.3374-.7514.7527-.0056.2696.1033.4323.1967.5264.1429.1457.3396.2257.5547.2257.4287,0,.7513-.3233.7513-.7521,0-.4153-.3368-.7527-.7513-.7527Z"/>
    </g>
    <g>
      <path class="cls-2" d="M120.7706,113.4971c-.4415.6388-.7499.9918-1.2989,1.5868l-1.0159-2.7994c1.7856-2.0277,3.1298-5.3564,3.6817-8.9489l2.3375.3523c-.1783.9919-.4868,2.7995-1.4348,5.4447v14.9448h-2.2696v-10.5803ZM123.8128,121.0133c2.4478-1.2565,4.474-3.086,5.906-5.444h-5.2438v-2.0942h6.3474v-2.1606h-5.0259v-7.2297h12.4092v7.2297h-5.1561v2.1606h6.3701v2.0942h-5.2467c2.0942,3.4602,4.5618,4.9813,5.5976,5.6202l-1.3442,2.0502c-3.4383-2.4026-5.0684-5.5105-5.3768-6.1055v6.9432h-2.2272v-6.9432c-1.2791,2.1161-2.9968,4.276-5.6881,5.9074l-1.3215-2.0283ZM128.001,106.1351v3.1737h8.0228v-3.1737h-8.0228Z"/>
      <path class="cls-2" d="M133.0496,125.6175h-2.2272c-.8504,0-1.5394-.6897-1.5394-1.5401v-2.3821c-1.0117,1.04-2.1168,1.9158-3.3506,2.6636-.4401.2661-.9636.2873-1.3994.1005-.1698.6657-.774,1.1581-1.4928,1.1581h-2.2696c-.8504,0-1.5395-.6897-1.5395-1.5401v-7.4724c-.0212-.0035-.0424-.0071-.0636-.0113-.5264-.1061-.9608-.479-1.1433-.9841l-1.0159-2.7995c-.1925-.5292-.0807-1.1213.2914-1.5437,1.5636-1.7751,2.8031-4.8271,3.3153-8.165.1301-.8383.9154-1.4086,1.7517-1.289l2.3375.3523c.3127.0474.6013.1889.8277.4026.0863-.0149.1741-.0227.2646-.0227h12.4092c.8503,0,1.5408.6898,1.5408,1.5402v7.2297c0,.225-.0495.4393-.1358.6325.7598.0934,1.3499.7421,1.3499,1.5281v2.0942c0,.8503-.6905,1.5401-1.5409,1.5401h-2.2073c1.381,1.5445,2.6926,2.3531,3.3647,2.7684.3552.2179.6056.5709.6962.977.0905.4054.0127.8313-.2151,1.1794l-1.3442,2.0502c-.2278.3481-.5872.5887-.9961.6679-.4047.0771-.832-.0113-1.173-.2497-1.1659-.8143-2.1451-1.7079-2.9544-2.5795v2.1543c0,.8504-.6905,1.5401-1.5409,1.5401ZM124.5797,117.1094v1.6647c.7315-.4945,1.4008-1.0499,2.005-1.6647h-2.005ZM131.2568,115.6563c.2646.0778.4967.2235.6792.4139.1868-.1953.4259-.3432.699-.4196-.0113-.225.0255-.4521.1132-.665-.317-.063-.5985-.2222-.8122-.4464-.2094.22-.4853.3778-.7938.4429.0892.2157.1274.4464.1146.6742ZM120.7706,111.9569c.1528,0,.3071.0226.4585.07.0948.0297.1853.0679.2702.1132v-1.6661c-.2717.5271-.5617,1.0259-.8688,1.4893.0467-.0043.0934-.0064.1401-.0064ZM129.5405,107.7686h4.9424v-.0934h-4.9424v.0934Z"/>
    </g>
    <g>
      <path class="cls-2" d="M145.9002,106.7081c-1.2141,1.6973-2.0715,2.3142-2.4705,2.6007l-1.6074-1.5211c1.4545-1.0357,3.0619-2.953,3.526-4.5625l2.1592.4188c-.0877.3531-.1528.5512-.4386,1.1462h4.9354v1.9179h-3.2176c.266.4189.5292.948.6848,1.3888l-2.0743.815c-.2207-.7273-.6169-1.6746-.9028-2.2038h-.5942ZM152.6014,108.6254l-1.2791-.9035c.5942-.5292,2.2271-2.0276,2.9968-4.4747l2.0715.3311c-.0877.3084-.1528.6388-.3962,1.2119h6.6786v1.9179h-4.3637c.3085.4408.6169.9035.8603,1.4546l-2.0291.8596c-.1754-.3969-.6169-1.5211-1.1008-2.3142h-1.0584c-.5943.9254-1.1036,1.543-1.5225,1.9399v1.0358h8.8633v4.1882h-2.1394v-2.3587h-15.5843v2.3587h-2.0941v-4.1882h8.818v-1.0584h1.2791ZM145.2153,112.4387h14.2854v4.5632h-12.1035v1.2784h13.6882v5.819h-2.2045v-.948h-11.4837v.948h-2.1819v-11.6606ZM147.3972,115.3485h9.9188v-1.3222h-9.9188v1.3222ZM147.3972,121.4102h11.4837v-1.543h-11.4837v1.543Z"/>
      <path class="cls-2" d="M161.0854,125.6395h-2.2045c-.6409,0-1.1899-.3913-1.422-.948h-8.6397c-.232.5567-.781.948-1.422.948h-2.1819c-.8504,0-1.5409-.6898-1.5409-1.5402v-8.6871h-1.1701c-.8504,0-1.5409-.6898-1.5409-1.5402v-4.1882c0-.1776.0311-.3481.0863-.5066l-.2858-.2709c-.3354-.3163-.5094-.7662-.4783-1.2254.0326-.4599.2675-.8808.6438-1.1475,1.2919-.9204,2.6106-2.5958,2.9389-3.7348.2221-.7669.9933-1.2367,1.7729-1.0853l2.1592.4189c.4146.0806.7783.3275,1.0061.6834.0863.1358.15.2823.1896.4344h3.0082c.2235,0,.4372.0481.6282.1337.0821-.1967.1542-.3962.2179-.5985.2292-.7287.9466-1.1801,1.7121-1.0591l2.0715.3311c.4344.07.8192.3219,1.0555.6933.0991.1542.167.324.2052.4995h4.7783c.8504,0,1.5395.6898,1.5395,1.5402v1.9179c0,.7896-.5929,1.4404-1.3584,1.5296.5886.2165,1.0075.7825,1.0075,1.4461v4.1882c0,.8504-.6891,1.5402-1.5395,1.5402h-1.2805l.0438,1.3279c.8504,0,1.5409.6898,1.5409,1.5402v5.819c0,.8504-.6905,1.5402-1.5409,1.5402Z"/>
    </g>
    <g>
      <path class="cls-2" d="M165.6274,124.1877c4.4317-3.7694,4.9156-7.8912,4.9156-10.448s-.4839-6.6793-4.9156-10.448h2.6884c1.565,1.4765,4.5845,4.6283,4.5845,10.448s-3.0195,8.9708-4.5845,10.448h-2.6884Z"/>
      <path class="cls-2" d="M168.3158,125.7279h-2.6884c-.6452,0-1.2225-.4025-1.4461-1.0088-.2221-.6056-.0438-1.2862.4486-1.7044,3.9194-3.3343,4.3722-6.8901,4.3722-9.275s-.4528-5.9414-4.3722-9.275c-.4924-.4181-.6707-1.0987-.4486-1.7043.2236-.6063.8009-1.0089,1.4461-1.0089h2.6884c.3934,0,.7712.15,1.057.4203,1.2537,1.1822,5.0684,4.7811,5.0684,11.5679s-3.8147,10.3851-5.0684,11.568c-.2858.2702-.6636.4202-1.057.4202Z"/>
    </g>
    <g>
      <path class="cls-2" d="M79.1342,137.182h8.1332v8.3765h-5.9287c-.133,3.7906-.5292,5.5544-1.7856,7.362l-1.9385-1.6095c.5518-.9254,1.5196-2.5569,1.5196-6.3921v-7.7369ZM88.0852,135.1543h-10.0094v-2.1606h10.0094v2.1606ZM81.3387,139.3199v4.0121h3.727v-4.0121h-3.727ZM98.4879,134.2502c-1.63.6834-3.5911,1.2345-7.3181,1.5875v3.1738h7.4059v2.2045h-2.4026v11.7045h-2.2696v-11.7045h-2.7337c.0227,2.0276-.0226,7.6266-2.9544,11.616l-2.0489-1.5868c2.7337-2.9757,2.7337-7.7809,2.7337-8.6631v-8.7281c2.8865-.0446,5.4872-.5957,8.1558-1.6973l1.4319,2.0935Z"/>
      <path class="cls-2" d="M79.5531,154.4606c-.3566,0-.7061-.1245-.9834-.3551l-1.9385-1.6095c-.5844-.4846-.7287-1.3223-.3396-1.9739.4867-.8171,1.3017-2.184,1.3017-5.6032v-7.7369c0-.1889.034-.3694.0963-.5363-.6636-.1712-1.1546-.774-1.1546-1.4914v-2.1606c0-.8504.6905-1.5402,1.5408-1.5402h10.0094c.6,0,1.1207.3431,1.3739.844,2.438-.1011,4.6807-.6034,7.0097-1.5642.6707-.2794,1.4475-.0467,1.8578.554l1.432,2.0934c.2617.382.3381.8617.2066,1.3053-.1316.4443-.4542.8058-.8816.9848-1.8097.7584-3.7199,1.2282-6.3729,1.5508v.2497h5.865c.8504,0,1.5409.6898,1.5409,1.5402v2.2045c0,.8504-.6905,1.5402-1.5409,1.5402h-.8617v10.1643c0,.8503-.6905,1.5401-1.5409,1.5401h-2.2696c-.8504,0-1.5409-.6898-1.5409-1.5401v-6.6397c-.4782,2.9834-1.4503,5.4822-2.9063,7.4632-.2462.3346-.6169.556-1.0272.6133-.4132.0538-.8292-.0544-1.1575-.3077l-2.0488-1.5869c-.3396-.2639-.5547-.6586-.5915-1.0881-.0354-.4294.109-.8539.4004-1.1716.7217-.7845,1.2933-1.8472,1.6895-3.1044h-3.9152c-.1825,2.8116-.6353,4.755-1.988,6.7013-.2462.3537-.6296.5886-1.0569.6466-.0694.0092-.1387.0141-.208.0141ZM82.8782,141.7919h.6466v-.9318h-.6466v.9318Z"/>
    </g>
    <g>
      <path class="cls-2" d="M101.1339,143.1778c1.1688-.7273,3.6591-2.2703,6.0843-6.4585h-5.9315v-2.1826h6.9899c.2858-.6389.5065-1.2338.815-2.4245l2.5554.1103c-.1981.6835-.4386,1.4327-.815,2.3142h11.2206v2.1826h-12.2111c-.5094.9699-.8376,1.4991-1.1036,1.8953h11.0224v12.3879c0,1.0138-.5518,1.896-1.6979,1.896h-3.8147l-.4613-2.1387h3.2629c.4613,0,.4613-.3304.4613-.595v-1.9399h-9.7632v4.7614h-2.2498v-10.2719c-1.2989,1.3011-2.1167,1.896-2.8865,2.4691l-1.4772-2.0057ZM107.7474,140.7307v1.8741h9.7632v-1.8741h-9.7632ZM107.7474,144.5001v1.896h9.7632v-1.896h-9.7632Z"/>
      <path class="cls-2" d="M107.7474,154.5264h-2.2498c-.8504,0-1.5409-.6898-1.5409-1.5401v-6.8859c-.1146.087-.2278.1712-.3381.2533-.3283.244-.7938.3749-1.19.3205-.4061-.0609-.815-.2477-1.057-.5773l-1.4772-2.0057c-.2547-.346-.3537-.7818-.2731-1.2035.0807-.4216.334-.7909.699-1.0173l.0085-.0057c.8292-.5157,2.3446-1.4588,4.0114-3.6053h-3.0535c-.8504,0-1.5409-.6898-1.5409-1.5401v-2.1826c0-.8504.6905-1.5402,1.5409-1.5402h5.9442c.1132-.3332.2307-.7315.3693-1.2706.1812-.7025.7783-1.1829,1.5579-1.1525l2.5554.1104c.4726.0205.9084.2568,1.1843.6402.2759.3842.3594.8731.2278,1.3273-.0311.1089-.0651.2235-.1019.3452h9.0289c.8503,0,1.5408.6898,1.5408,1.5402v2.1826c0,.8503-.6905,1.5401-1.5408,1.5401h-.7938c.0269.1139.0424.2328.0424.3552v12.3879c0,1.9908-1.3626,3.4362-3.2388,3.4362h-3.8147c-.7259,0-1.3527-.5065-1.5055-1.2154l-.4613-2.1387c-.0976-.4549.0141-.9304.307-1.2919.0071-.0092.0156-.0184.0227-.0276h-3.3237v3.2212c0,.8503-.6891,1.5401-1.5395,1.5401ZM105.8839,141.2238c.0679.0176.1358.0396.2023.0672.0411.0177.0821.0361.1203.0566v-.496c-.1075.1281-.2151.2519-.3226.3722Z"/>
    </g>
  </g>
  <g>
    <path class="cls-3" d="M68.3127,48.0527h6.1267c.3085-.7273.5066-1.2784.8603-2.5349l2.513.1762c-.068.1768-.5519,1.6533-.9254,2.3587h8.0879v18.2953h-2.3149v-1.3003h-12.0356v1.3003h-2.312v-18.2953ZM82.6603,50.1907h-12.0356v2.6233h12.0356v-2.6233ZM82.6603,54.9081h-12.0356v2.9318h12.0356v-2.9318ZM70.6247,59.9114v2.9983h12.0356v-2.9983h-12.0356Z"/>
    <path class="cls-3" d="M95.2477,66.37h-2.2696v-8.5081c-1.3244,1.2345-1.9837,1.6307-2.6686,2.0495l-.9706-2.2483c2.8214-1.6527,4.9834-4.0334,5.9965-6.436h-5.6852v-2.1606h3.3279v-3.4383h2.2696v3.4383h2.578v2.1606c-.3735.8377-.8801,1.9392-2.2243,3.7249,1.1235,1.2784,1.6527,1.6534,3.0846,2.7111l-1.0583,2.0941c-1.0358-.8377-1.6301-1.4327-2.38-2.3142v8.927ZM102.7639,45.6282h2.3149v6.2378h4.7174v2.3587h-4.7174v9.0592h5.224v2.3588h-13.094v-2.3588h5.5551v-9.0592h-4.6071v-2.3587h4.6071v-6.2378Z"/>
    <path class="cls-3" d="M122.3582,62.9974c2.6233-.1103,8.0001-.3523,8.0001-7.1858,0-1.7411-.5943-5.7532-5.7956-6.0836-.3538,3.6591-.7273,7.6047-2.4026,10.7565-.3736.6834-1.6753,3.1079-4.2335,3.1079-2.8865,0-4.3411-3.306-4.3411-6.392,0-5.3125,3.7468-9.7866,10.2952-9.7866,7.3153,0,9.234,5.0252,9.234,8.6405,0,8.7507-7.8247,9.1695-10.117,9.2799l-.6395-2.3368ZM115.9881,57.5308c0,2.3806.9254,3.6371,2.029,3.6371,2.9516,0,3.8119-8.2435,4.0326-11.3295-5.2693.9253-6.0616,5.7532-6.0616,7.6924Z"/>
    <path class="cls-3" d="M42.3681,85.2942c1.6753-2.3148,2.6431-4.629,2.8214-10.7126h2.0715c-.0226.7273-.0226,1.4107-.1104,2.4246h4.7401c-.0452,3.7248-.5065,8.4203-2.5356,12.3214,2.5554,3.0421,6.3475,3.1525,7.0748,3.1525h7.3861l-.3764,2.2922h-6.9418c-2.7789,0-5.9739-.97-8.334-3.5713-1.432,1.9844-2.9516,3.1963-3.9902,3.9901l-1.364-2.0283c.6169-.4188,2.4224-1.5869,3.9449-3.901-.5292-.9261-1.1914-2.2265-1.6329-3.9237-.5065,1.0357-.7471,1.3888-1.1008,1.9173l-1.6527-1.9612ZM46.9073,79.1661c-.2208,1.5211-.5066,2.5787-.5717,2.7775.3736,2.1819.8801,3.7249,1.6074,5.224.7273-1.6314,1.565-4.1663,1.698-8.0015h-2.7337ZM60.5757,75.1766v12.7622c0,.3749,0,.5957.3283.5957h.4641c.1981,0,.3084-.2208.3311-.375.0424-.2426.0424-.6169.1528-3.086l2.0064.375c-.0226.8596-.1754,4.1217-.7046,4.6728-.5066.5292-1.1235.5512-1.3018.5512h-2.0036c-.7301,0-1.4574-.7054-1.4574-1.565v-11.749h-2.9742v4.2102c0,.7718-.0877,2.6014-.5745,4.7174-.549,2.4684-1.6753,3.8133-2.1592,4.3864l-1.8083-1.565c1.1263-1.1687,2.4026-2.9098,2.4026-7.7589v-6.172h7.2983Z"/>
    <path class="cls-3" d="M65.9101,91.3778c.6169-.1768.7697-.2207,2.7535-.8596v-6.0177h-2.2243v-2.2265h2.2243v-4.5186h-2.4252v-2.2038h7.1002v2.2038h-2.4054v4.5186h2.029v2.2265h-2.029v5.224c.7499-.2646,1.3668-.5073,2.4054-.9261v2.1606c-1.8083.8377-4.8731,2.0057-7.1002,2.5568l-.3283-2.138ZM74.0857,75.1547h12.2563v10.5584h-5.0486v2.2038h5.2693v2.0502h-5.2693v2.513h5.6004v2.116h-14.2174v-2.116h6.4578v-2.513h-5.1787v-2.0502h5.1787v-2.2038h-5.0485v-10.5584ZM76.2024,77.1604v2.3368h2.9318v-2.3368h-2.9318ZM76.2024,81.3041v2.4471h2.9318v-2.4471h-2.9318ZM81.2934,77.1604v2.3368h2.9318v-2.3368h-2.9318ZM81.2934,81.3041v2.4471h2.9318v-2.4471h-2.9318Z"/>
    <path class="cls-3" d="M97.1183,79.541h-3.5912v2.4904h3.8572c-.0227,2.4471-.1104,9.6987-.5943,11.749-.266,1.1681-.7499,1.4107-2.3149,1.4107h-1.8083l-.3735-2.1825h1.7404c.2858,0,.5065,0,.6169-.242.3962-.8603.5292-7.2304.5518-8.5527h-1.6753v.97c0,2.8433-.5065,6.5243-2.8214,9.9407l-1.4998-1.8514c.7499-1.2565,2.1818-3.7249,2.1818-8.0893v-5.6429h-1.7857v-2.1825h3.0648v-2.7769h2.2696v2.7769h2.912v1.543c.1981-.1981,1.8281-1.763,2.8214-4.4302l2.2243.2646c-.1528.4846-.3311,1.0576-.682,1.7849h8.0879v2.1387h-9.4123c-1.0131,1.3662-1.9385,2.16-2.6431,2.7769l-1.3895-1.7192.2632-.1762ZM99.1926,83.6628v-2.9318h2.1139v2.4245l1.964-.4846v-3.1299h2.0715v2.6227l4.2533-1.0577c-.0226,5.3343-.0424,6.9432-.3735,7.8027-.1981.4854-.7726.8377-1.8536.8377h-1.3867l-.266-2.1161h1.0358c.3537,0,.5292-.1103.6395-.3969.1104-.3304.1557-2.8214.1557-3.3725l-2.2045.5292v6.7451h-2.0715v-6.2598l-1.964.4846v6.789c0,.4407.0906.6176.7075.6176h5.3344c.7046,0,.8574-.1104.9254-2.513l2.1365.617c-.2858,3.6152-.7923,4.0121-2.6006,4.0121h-6.5032c-1.2763,0-2.1139-.5292-2.1139-1.8741v-7.1639l-1.1037.2646-.2207-2.1161,1.3244-.3304Z"/>
    <path class="cls-3" d="M112.9686,78.3504h8.5293v2.0064h-8.5293v-2.0064ZM113.6732,75.2424h7.0323v1.9838h-7.0323v-1.9838ZM113.6732,81.5248h7.0323v1.9838h-7.0323v-1.9838ZM120.7055,93.8462v.4408h-5.0712v.9261h-1.9611v-7.1859h7.0323v4.9594c.9028-.1761,2.6884-.595,4.8052-1.8734-1.9187-1.7637-2.578-3.1298-2.9091-3.8352l1.8054-.7273c.3764.6827,1.1037,2.0276,2.779,3.3499,1.8083-1.5211,2.513-2.9756,2.8639-3.7468h-8.0879v-2.2045h10.448v2.2045c-.3764.8596-1.214,2.7111-3.4383,4.9375,1.0131.595,2.445,1.3223,5.091,1.9618l-.948,2.16c-.9905-.2646-3.0648-.8377-5.841-2.6892-2.6657,2.0277-4.8051,2.4684-5.7758,2.6892l-.7924-1.3669ZM113.6732,84.6985h7.0323v2.0064h-7.0323v-2.0064ZM115.6343,89.8348v2.5568h3.1299v-2.5568h-3.1299ZM120.9036,81.326c2.0715-1.168,2.247-4.3418,2.247-5.1575,0-.3969-.0198-.6615-.0425-.9261h7.2078v4.6729c0,.2427.0877.5511.5065.5511h.3736c.266,0,.4414-.22.4867-.4627.0425-.1761.2208-1.5649.2632-2.6452l2.029.4407c-.065,3.7914-.5942,4.8279-2.2497,4.8279h-1.9612c-1.5422,0-1.5875-1.2346-1.5875-1.4327v-3.7914h-2.9092c-.3311,2.9976-.9904,4.3418-2.6657,5.5983l-1.698-1.6753Z"/>
    <path class="cls-3" d="M145.7445,75.3747c-.0651.5073-.1302.9261-.3509,1.9618h8.9708v2.2703h-9.6103c-.2661.9042-.5292,1.4327-.75,1.8961.8603-.375,1.4546-.6396,2.5583-.6396,1.9158,0,2.8865.7719,3.526,2.5568,2.1592-.9034,4.1006-1.4326,5.2891-1.763l.5518,2.4684c-1.0131.2207-2.6884.6176-5.3994,1.5876.1104,1.0138.1104,2.138.0651,4.0998h-2.4677c.0651-.5731.0877-.9042.0877-1.6534,0-.6169-.0226-1.0584-.0453-1.4546-.9904.4847-3.6364,1.785-3.6364,3.4164,0,1.8734,2.4903,1.8734,4.6071,1.8734.2858,0,2.513,0,5.5098-.2426v2.3806c-1.6526.0665-3.5034.1104-5.1589.1104-2.4026,0-4.6722-.0439-6.1918-1.2565-.4188-.3304-1.3895-1.2565-1.3895-2.7775,0-2.2477,2.1819-3.8353,5.9739-5.819-.2207-.6834-.5518-1.3442-1.7206-1.3442-1.9611,0-3.8996,1.763-4.5844,2.7549-1.3668,2.0057-1.5197,2.2264-2.5554,3.461l-1.8083-1.8741c2.2271-2.1819,3.9675-4.8271,4.9806-7.7809h-4.4288v-2.2703h5.0684c.1981-1.0138.2433-1.521.2858-2.1599l2.6233.1981Z"/>
    <path class="cls-3" d="M34.3001,103.2917c-4.4317,3.7687-4.9156,7.8905-4.9156,10.448s.4839,6.6786,4.9156,10.448h-2.6885c-1.5649-1.4772-4.5844-4.629-4.5844-10.448s3.0195-8.9715,4.5844-10.448h2.6885Z"/>
    <path class="cls-3" d="M40.0108,106.2228c-.8377.1323-1.5225.1769-2.5356.2427l-.3311-1.9838c1.9385-.0219,4.6495-.3969,6.6135-1.0803l.7273,1.8741c-.5971.1981-1.3018.4188-2.3602.6169v2.9976h1.9612v2.116h-1.9612v.7938c.133.2866,1.0358,2.3807,2.9771,3.8353l-1.1461,2.0502c-.6396-.6834-1.2565-1.4553-1.831-3.2848v9.6549h-2.1139v-8.6184c-.6622,2.1599-1.2791,3.1518-2.2724,4.4082l-1.0358-2.5787c2.1593-2.3368,3.1073-5.8197,3.2176-6.2605h-2.7761v-2.116h2.8667v-2.6672ZM43.4916,122.204c.6622-.1543,2.9091-.728,4.5646-1.6973h-2.5582v-8.3765h11.3507v8.3765h-2.7535c.3736.2639,1.6753.9919,4.1883,1.6746l-1.0358,1.8741c-1.5451-.4188-3.4609-1.3229-4.7174-2.2045l1.1886-1.3442h-5.3118l1.2565,1.2784c-1.3668.9919-3.594,1.8515-5.0684,2.2703l-1.1036-1.8514ZM50.0824,103.4014h2.1819v1.0803h5.1589v1.7192h-5.1589v1.0364h4.4316v1.4107h-4.4316v.9473h5.6655v1.6753h-13.3346v-1.6753h5.4872v-.9473h-4.4288v-1.4107h4.4288v-1.0364h-5.1136v-1.7192h5.1136v-1.0803ZM47.5921,113.5629v.9699h7.1851v-.9699h-7.1851ZM47.5921,115.7235v.9699h7.1851v-.9699h-7.1851ZM47.5921,117.9053v.9919h7.1851v-.9919h-7.1851Z"/>
    <path class="cls-3" d="M68.1797,114.4451c-.7952-.7054-1.5876-1.4553-2.7139-3.2183-.2632.4846-1.5848,2.9756-3.9675,4.2102l-1.2565-2.0064c.9282-.4847,2.5356-1.3442,3.5487-3.3061h-3.2176v-1.8076h3.8798c.0877-.3742.1556-.8157.1556-1.1899v-.4634h-3.6392v-1.8734h3.6392v-1.3888h2.0942v1.3888h3.0619v1.8734h-3.0619v.5072c0,.1542-.0906.8815-.1557,1.1461h3.594v1.8076h-2.9997c.8603,1.3449,1.5876,1.9619,2.4931,2.6233l-1.4545,1.6973ZM62.7547,114.8193h16.1814v9.3239h-2.2724v-.9035h-11.6818v.9035h-2.2272v-9.3239ZM64.9819,118.0376h11.6818v-1.3887h-11.6818v1.3887ZM64.9819,121.3218h11.6818v-1.565h-11.6818v1.565ZM80.17,115.3705c-1.7432-1.19-3.1073-2.2484-4.3213-4.4968-.9254,1.6973-2.6884,2.866-4.3213,3.681l-1.3866-2.0057c.8603-.3084,2.6007-.9918,3.6817-2.4245h-2.6686v-1.8076h3.4383c.068-.3084.1557-.7273.1557-1.2119v-.4414h-3.2205v-1.8734h3.2205v-1.3888h2.1139v1.3888h3.8572v1.8734h-3.8572v.4414c0,.3523-.0877.8377-.1528,1.2119h4.5392v1.8076h-3.6138c1.1914,2.0722,2.8667,2.8214,3.8345,3.2622l-1.2989,1.9838Z"/>
    <path class="cls-3" d="M99.2803,109.0223v1.9837c-.7499.6177-3.9222,3.3287-4.5844,3.8798.2207-.0665.4414-.1103.7697-.1103,1.6555,0,2.1847,1.4545,2.1847,3.1298v.8596c0,1.323.0198,2.0057,1.9385,2.0057,1.1008,0,2.9544-.0658,3.9675-.1761v2.4245c-2.2271.0665-3.4836.0665-3.9902.0665-3.6137,0-4.3184-1.3888-4.3184-3.8133v-.8157c0-.6834,0-1.6753-1.1687-1.6753-.8377,0-1.698.353-2.38.9699-.8603.7938-4.542,4.5406-5.3344,5.2679l-1.7658-1.8069c.1556-.1104,3.6392-3.3945,4.2109-3.9237,1.1914-1.1461,2.029-1.9179,6.7012-6.0836l-9.2368.2201v-2.3361l13.0062-.0665ZM99.2803,107.7877c-1.1914-.3742-3.8147-1.2119-10.7338-1.4984l.3509-2.2484c5.357.1981,8.3114.6615,10.9347,1.3442l-.5518,2.4026Z"/>
    <path class="cls-3" d="M113.7185,113.7397c0,1.2784-1.0131,2.2923-2.2922,2.2923s-2.3149-1.0139-2.2923-2.2923c0-1.2784,1.0358-2.2929,2.2923-2.2929s2.2922,1.0145,2.2922,2.2929Z"/>
    <path class="cls-3" d="M120.7706,113.4971c-.4415.6388-.7499.9918-1.2989,1.5868l-1.0159-2.7994c1.7856-2.0277,3.1298-5.3564,3.6817-8.9489l2.3375.3523c-.1783.9919-.4868,2.7995-1.4348,5.4447v14.9448h-2.2696v-10.5803ZM123.8128,121.0133c2.4478-1.2565,4.474-3.086,5.906-5.444h-5.2438v-2.0942h6.3474v-2.1606h-5.0259v-7.2297h12.4092v7.2297h-5.1561v2.1606h6.3701v2.0942h-5.2467c2.0942,3.4602,4.5618,4.9813,5.5976,5.6202l-1.3442,2.0502c-3.4383-2.4026-5.0684-5.5105-5.3768-6.1055v6.9432h-2.2272v-6.9432c-1.2791,2.1161-2.9968,4.276-5.6881,5.9074l-1.3215-2.0283ZM128.001,106.1351v3.1737h8.0228v-3.1737h-8.0228Z"/>
    <path class="cls-3" d="M145.9002,106.7081c-1.2141,1.6973-2.0715,2.3142-2.4705,2.6007l-1.6074-1.5211c1.4545-1.0357,3.0619-2.953,3.526-4.5625l2.1592.4188c-.0877.3531-.1528.5512-.4386,1.1462h4.9354v1.9179h-3.2176c.266.4189.5292.948.6848,1.3888l-2.0743.815c-.2207-.7273-.6169-1.6746-.9028-2.2038h-.5942ZM152.6014,108.6254l-1.2791-.9035c.5942-.5292,2.2271-2.0276,2.9968-4.4747l2.0715.3311c-.0877.3084-.1528.6388-.3962,1.2119h6.6786v1.9179h-4.3637c.3085.4408.6169.9035.8603,1.4546l-2.0291.8596c-.1754-.3969-.6169-1.5211-1.1008-2.3142h-1.0584c-.5943.9254-1.1036,1.543-1.5225,1.9399v1.0358h8.8633v4.1882h-2.1394v-2.3587h-15.5843v2.3587h-2.0941v-4.1882h8.818v-1.0584h1.2791ZM145.2153,112.4387h14.2854v4.5632h-12.1035v1.2784h13.6882v5.819h-2.2045v-.948h-11.4837v.948h-2.1819v-11.6606ZM147.3972,115.3485h9.9188v-1.3222h-9.9188v1.3222ZM147.3972,121.4102h11.4837v-1.543h-11.4837v1.543Z"/>
    <path class="cls-3" d="M165.6274,124.1877c4.4317-3.7694,4.9156-7.8912,4.9156-10.448s-.4839-6.6793-4.9156-10.448h2.6884c1.565,1.4765,4.5845,4.6283,4.5845,10.448s-3.0195,8.9708-4.5845,10.448h-2.6884Z"/>
    <path class="cls-3" d="M79.1342,137.182h8.1332v8.3765h-5.9287c-.133,3.7906-.5292,5.5544-1.7856,7.362l-1.9385-1.6095c.5518-.9254,1.5196-2.5569,1.5196-6.3921v-7.7369ZM88.0852,135.1543h-10.0094v-2.1606h10.0094v2.1606ZM81.3387,139.3199v4.0121h3.727v-4.0121h-3.727ZM98.4879,134.2502c-1.63.6834-3.5911,1.2345-7.3181,1.5875v3.1738h7.4059v2.2045h-2.4026v11.7045h-2.2696v-11.7045h-2.7337c.0227,2.0276-.0226,7.6266-2.9544,11.616l-2.0489-1.5868c2.7337-2.9757,2.7337-7.7809,2.7337-8.6631v-8.7281c2.8865-.0446,5.4872-.5957,8.1558-1.6973l1.4319,2.0935Z"/>
    <path class="cls-3" d="M101.1339,143.1778c1.1688-.7273,3.6591-2.2703,6.0843-6.4585h-5.9315v-2.1826h6.9899c.2858-.6389.5065-1.2338.815-2.4245l2.5554.1103c-.1981.6835-.4386,1.4327-.815,2.3142h11.2206v2.1826h-12.2111c-.5094.9699-.8376,1.4991-1.1036,1.8953h11.0224v12.3879c0,1.0138-.5518,1.896-1.6979,1.896h-3.8147l-.4613-2.1387h3.2629c.4613,0,.4613-.3304.4613-.595v-1.9399h-9.7632v4.7614h-2.2498v-10.2719c-1.2989,1.3011-2.1167,1.896-2.8865,2.4691l-1.4772-2.0057ZM107.7474,140.7307v1.8741h9.7632v-1.8741h-9.7632ZM107.7474,144.5001v1.896h9.7632v-1.896h-9.7632Z"/>
  </g>
</svg>