<?xml version="1.0" encoding="UTF-8"?>
<svg id="_デザイン" data-name="デザイン" xmlns="http://www.w3.org/2000/svg" viewBox="0 0 200.05 200.0522">
  <defs>
    <style>
      .cls-1 {
        fill-rule: evenodd;
      }

      .cls-1, .cls-2 {
        fill: #fff;
      }

      .cls-3 {
        fill: #231815;
      }

      .cls-4 {
        fill: #e74d0c;
      }

      .cls-5 {
        opacity: .6;
      }
    </style>
  </defs>
  <g>
    <path class="cls-4" d="M200.0494,99.6691C199.8542,44.4216,154.911-.1919,99.6698.0006,44.4259.1839-.1988,45.1347.0007,100.3794c.1952,55.2454,45.1369,99.856,100.3766,99.6722,55.2469-.1982,99.8701-45.1456,99.6721-100.3825Z"/>
    <path class="cls-2" d="M100.0182,189.9832c-48.8923,0-88.7529-39.6844-88.9269-88.617v-.0007c-.1684-49.0345,39.5875-89.0712,88.6227-89.2481h.307c48.8965,0,88.7656,39.6915,88.9397,88.6227.1655,49.0352-39.5904,89.0691-88.6227,89.2431h-.3198ZM18.4094,101.34c.1613,44.9028,36.7435,81.3244,81.6088,81.3244.099,0,.1953,0,.2943-.0007,44.9969-.1592,81.4814-36.8991,81.33-81.8989-.1613-44.9006-36.7519-81.3286-81.6215-81.3286-.0962,0-.1853,0-.2816.0007-44.9969.162-81.48,36.9069-81.33,81.9031h0Z"/>
  </g>
  <g id="bugnTM" class="cls-5">
    <g>
      <path class="cls-1" d="M131.1158,162.6925h-61.1472c-.5036-.2122-1.0047-.4259-1.5069-.6424-4.4289-1.8932-7.4597-5.149-7.9138-9.9513-1.1632-12.3385-1.9922-24.7051-2.9687-37.0633-.7357-9.3443-1.4997-18.6873-2.2313-28.0345-.3495-4.4881-.6523-8.9779-.9791-13.5424h92.3469c-.8052,10.6899-1.5777,21.1479-2.3829,31.6-.9012,11.6451-1.8308,23.2845-2.7535,34.9253-.3211,4.0397-.4697,8.1021-1.0229,12.1106-.7642,5.5466-4.402,8.7501-9.4406,10.598ZM83.2537,146.497c-.3355-5.7943-.6623-11.5828-1.0133-17.3728-.7343-12.2959-1.5097-24.5849-2.2158-36.8849-.1853-3.236-1.5437-5.1434-3.8316-5.0217-2.3347.1272-3.5516,2.0814-3.3167,5.3429.0171.239.0608.4739.0765.713.7541,12.6129,1.5125,25.2229,2.2653,37.8373.3255,5.473.6084,10.946.9862,16.4191.1938,2.8554,2.1833,4.4415,4.5958,3.7284,2.4153-.7117,2.6828-2.6516,2.4536-4.7613ZM128.3,90.6134c.051-1.4234-1.2098-3.2261-3.3435-3.3901-2.2018-.1727-3.7412,1.5875-3.8728,4.4613-.0636,1.3498-.0508,2.7067-.1372,4.0538-1.0626,16.9724-2.1451,33.9377-3.2048,50.9114-.1854,2.9827,1.071,4.6736,3.4014,4.7627,2.2867.0934,3.6323-1.5352,3.7737-4.5208.1882-4.0439.3666-8.0963.6155-12.1417.8802-14.2768,1.7871-28.5495,2.7677-44.1366ZM104.0082,119.3455v-24.5947c0-1.0344.0071-2.0673-.0044-3.1017-.0339-2.8199-1.3527-4.4712-3.5203-4.4329-2.1394.041-3.3761,1.6865-3.4058,4.5475-.0029.3156-.0029.6354-.0029.9524,0,17.8312,0,35.6596.0029,53.4866,0,.7159-.0468,1.4418.0481,2.1478.2518,1.9371,1.4205,3.0111,3.3506,3.0436,1.93.0311,3.1511-.9834,3.4553-2.9233.1146-.7004.0708-1.4262.0721-2.1422.0044-8.9963.0044-17.9883.0044-26.9831Z"/>
      <path class="cls-1" d="M51.1229,56.2337c.3622-1.8756.5517-3.6026,1.0428-5.241.6734-2.2505,2.2851-3.5347,4.6608-3.8424,9.8906-1.2798,19.7741-2.5823,30.1314-3.9364.2504-.8362.6651-2.4358,1.2141-3.9936,1.1206-3.1901,3.461-4.6461,6.7818-4.2662,4.5887.5229,9.1675,1.0626,13.752,1.6047,3.9279.4633,5.7786,2.324,6.1451,6.2555.1358,1.4793.1429,2.972.6352,3.8528,9.3232,3.5417,18.6449,7.0855,27.9695,10.6235,2.2313.844,3.5274,2.4591,3.6533,4.8116.0906,1.7106-.1159,3.4341-.1966,5.34-31.9865-3.7433-63.6389-7.4448-95.7894-11.2085Z"/>
    </g>
  </g>
  <g>
    <g>
      <path class="cls-2" d="M74.9849,64.9302c-.0439,1.565-.133,5.357.4627,6.6347,2.8214-.9692,7.4058-1.7856,7.8912-1.8734l.5065,2.5569c-1.4319.1768-5.8848.7272-9.3458,2.0502-1.0796.4189-4.5193,1.7192-4.5193,4.409,0,2.3135,2.2045,2.6007,7.87,2.6007,3.4821,0,5.5098-.2207,6.6785-.3537v2.4917c-2.6233.1981-4.7825.2419-6.2159.2419-4.4528,0-7.3846-.2645-9.0811-1.4319-1.0145-.706-1.8083-1.8748-1.8083-3.3506,0-3.9024,3.9236-5.6655,5.8197-6.5243-.4189-.9042-.9042-2.1607-.815-7.4512h2.5568ZM80.7593,68.3912c-.3085-1.6753-.5731-2.6233-1.0796-3.8572l1.8507-.3084c.4415.948.9919,2.578,1.2353,3.7029l-2.0064.4627ZM83.7576,67.7743c-.3523-1.6541-.5066-2.0276-1.1461-3.5926l1.8507-.3537c.3311.6622,1.1249,2.6898,1.2791,3.5048l-1.9837.4415Z"/>
      <path class="cls-2" d="M78.3128,85.2284c-4.7372,0-7.8841-.2787-9.9541-1.7036-1.5763-1.0959-2.4762-2.7782-2.4762-4.6191,0-4.0291,3.2006-6.1819,5.4461-7.3217-.3028-1.2083-.5009-3.0853-.44-6.6799.0141-.8405.699-1.514,1.5395-1.514h2.5568c.416,0,.8136.1683,1.1036.4662.2901.2985.4472.7011.4358,1.1171-.065,2.317-.0141,3.7482.0694,4.6304.8857-.2455,1.8267-.4733,2.7223-.6742-.0311-.0835-.0551-.1705-.0721-.2597-.2873-1.5656-.5278-2.428-.9891-3.5508-.1783-.4337-.1485-.9246.0793-1.3343.2278-.4096.6296-.6926,1.0923-.7697l1.8508-.3085c.2547-.0424.5051-.0205.7372.0566.099-.0417.2009-.0743.3084-.0941l1.8508-.3537c.6763-.1309,1.3583.208,1.6668.8235.3721.7443,1.2253,2.9063,1.4149,3.9074.1543.8171-.3678,1.6095-1.18,1.7899l-1.3046.2908c.0339.0842.0608.1726.0792.2653l.5066,2.5568c.0835.4195-.0128.8553-.2632,1.202-.2505.3467-.6339.5731-1.0598.6261-1.4079.1741-5.6966.7032-8.9835,1.9604-2.3531.912-3.5289,1.9067-3.5289,2.97,0,.7032.9777,1.0605,6.3291,1.0605,3.4821,0,5.4489-.2235,6.5045-.3438.4287-.0495.8716.0891,1.1999.3813.3268.2922.5136.7103.5136,1.149v2.4917c0,.8058-.6198,1.4751-1.4234,1.5359-2.6969.2038-4.9312.2462-6.332.2462Z"/>
    </g>
    <g>
      <path class="cls-2" d="M98.1292,65.2175c-.4414,1.3215-2.469,7.0747-2.844,8.2647.4853-.3523,1.3456-.9692,2.844-.9692,3.5487,0,3.6365,3.4171,3.6365,5.0032v.948c0,.6396,0,2.646,1.8734,2.646,1.7644,0,2.9105-1.8522,3.3732-6.7012l2.3149.6834c-.5957,5.2014-1.9187,8.4416-5.9739,8.4416-1.8069,0-3.2177-1.1022-3.703-2.4026-.3084-.815-.3749-2.138-.3749-2.6233v-.7485c0-1.4107,0-2.8441-1.6527-2.8441-2.4917,0-3.7482,2.6899-4.2109,3.9237-.0439.1104-1.1461,4.3199-1.3003,4.9156l-2.5342-.7273c1.7191-5.2028,4.8052-15.1881,5.7744-18.318l2.7775.508Z"/>
      <path class="cls-2" d="M92.1115,85.2949c-.143,0-.2859-.0198-.4245-.0594l-2.5342-.7273c-.4033-.116-.7414-.3905-.9367-.7612-.1967-.3707-.2321-.8051-.1019-1.2027,1.6343-4.9446,4.5264-14.2875,5.616-17.8051l.1499-.4853c.2293-.7457.9792-1.207,1.7489-1.0591l2.7776.508c.4386.0799.8221.3466,1.0485.7308.2278.3848.2759.8482.1344,1.272-.1797.5391-.6226,1.814-1.1108,3.2176-.2363.6792-.4839,1.3888-.7159,2.0595,2.3658-.1252,5.5438.8376,5.5438,6.5335v.948c0,.8448.1372,1.0521.1797,1.0959-.0043-.0056.0551.0099.1528.0099.8348,0,1.5225-1.9837,1.8394-5.3075.0439-.4577.2901-.8723.6721-1.1298.3806-.2568.8589-.3318,1.2975-.2009l2.3149.6834c.7174.2122,1.1801.9091,1.0937,1.6527-.3636,3.1829-1.122,9.8063-7.5034,9.8063-2.3177,0-4.3864-1.3683-5.1462-3.4044-.4585-1.2119-.4726-2.9657-.4726-3.1617v-.7485c0-.3905,0-1.0089-.0708-1.3032-1.4715-.0629-2.4776,2.0361-2.8101,2.9233-.082.2851-1.1036,4.1918-1.2508,4.7613-.1047.4019-.3665.745-.7273.9509-.2349.1344-.498.203-.764.203ZM97.7755,76.4692h0ZM93.9806,74.3007c-.1047.334-.2094.6693-.3155,1.0054.2023-.2342.4131-.4486.6339-.6417-.1274-.1054-.2335-.2285-.3184-.3637Z"/>
    </g>
    <g>
      <path class="cls-2" d="M120.1261,64.776c-.0665.3085-.5066,2.4691-.5504,2.646h4.6283v2.2922h-5.0471c-.5731,2.8865-2.4253,8.9708-3.6379,11.7045l-2.3587-1.0584c.4641-.9707,2.3587-5.1802,3.5713-10.6461h-3.5713v-2.2922h4.0128c.1754-.9707.2858-1.7418.4188-2.6899l2.5342.0439ZM132.3598,69.6915c-.7273-.0665-1.19-.0877-1.8961-.0877-1.3668,0-1.9611.0877-2.5341.1755l.2207,6.6135c3.1299,1.4545,4.1656,2.469,4.716,2.9968l-1.4545,2.3149c-.5066-.5066-1.565-1.5862-3.3068-2.6672,0,.4627,0,2.138-.4627,2.9756-.7046,1.323-2.6233,1.7631-4.143,1.7631-4.6509,0-5.1589-2.9757-5.1589-4.0553,0-2.5794,2.1168-4.2533,5.5551-4.2533.8815,0,1.3881.0877,1.8296.1754l-.2646-7.9789c1.6753-.3523,2.9982-.5065,6.8766-.5518l.0227,2.5794ZM125.7916,77.8912c-.5292-.1755-1.1249-.3523-2.0503-.3523-1.8295,0-3.0634.815-3.0634,2.1606,0,1.5423,1.7404,1.8295,2.6446,1.8295,2.4691,0,2.4691-1.4772,2.4691-2.0941v-1.5437Z"/>
      <path class="cls-2" d="M123.4993,85.3162c-3.7651,0-5.6796-1.7475-6.38-3.7207-.0651.1564-.1302.3057-.1924.4479-.1656.3742-.474.6671-.8575.8136-.3806.1464-.8065.1344-1.1815-.0333l-2.3587-1.0584c-.3778-.1698-.6721-.4853-.815-.8744-.1429-.3898-.1231-.8207.0566-1.1949.1981-.4132,1.7814-3.7928,3.0025-8.4416h-1.613c-.8504,0-1.5395-.6898-1.5395-1.5402v-2.2922c0-.8504.6891-1.5402,1.5395-1.5402h2.7082c.0679-.4422.1302-.8794.1981-1.3633.1075-.762.7584-1.3265,1.5253-1.3265h.0269l2.5342.0438c.4598.0085.8928.2222,1.18.583.2859.3608.3962.8313.2986,1.2819l-.1613.7811h2.7337c.3325,0,.641.1054.8928.2851.0156-.0035.0311-.0071.0467-.0099,1.7786-.3743,3.1681-.5384,7.1752-.5851h.0184c.4033,0,.7896.1578,1.0782.4401.2915.2865.4585.677.4613,1.0866l.0226,2.5795c.0043.4351-.1754.8518-.4966,1.1461-.3198.295-.7542.4429-1.1829.4011-.6735-.0615-1.1023-.0813-1.756-.0813-.3749,0-.6834.0071-.9466.0184l.1415,4.247c2.67,1.33,3.6831,2.3021,4.252,2.8476.5263.5058.648,1.3335.2603,1.9519l-1.4546,2.3148c-.2504.3969-.6664.6587-1.1319.7111-.4769.0523-.9296-.1104-1.2622-.4415-.2433-.2434-.5631-.5639-.9763-.9275-.0948.3389-.2136.6346-.3551.8921-.849,1.594-2.9063,2.5583-5.4915,2.5583ZM123.7413,79.079c-.5264,0-1.5239.1295-1.5239.6205.0679.116.4867.2894,1.1051.2894.7089,0,.8985-.1578.8999-.1592.0283-.0587.0283-.2858.0283-.3948v-.3304c-.1528-.0163-.3212-.0255-.5094-.0255ZM127.3183,77.6889c.0014.0077.0014.0148.0028.0226.0057-.0035.0113-.0064.017-.0099-.0071-.0043-.0127-.0085-.0198-.0127ZM120.3921,71.2544c-.2674,1.1093-.6353,2.4563-1.0485,3.8479,1.19-.7527,2.745-1.1751,4.5519-1.1751.0793,0,.1571.0007.2321.0021l-.0892-2.6749h-3.6463ZM117.9386,68.7584c.0028.0021.0042.0042.0056.0063.0043-.0056.0085-.012.0142-.0176-.0071.0042-.0127.0077-.0198.0113ZM118.3744,68.3862c-.0014.0008-.0014.0015-.0028.0029l.0042-.0021c-.0014,0-.0014-.0008-.0014-.0008Z"/>
    </g>
    <g>
      <path class="cls-2" d="M28.7853,94.2367h7.0012v-1.4772h2.1818v1.4772h7.1186v2.005h-2.8355c-.1585.8164-.4358,1.7418-.5547,2.1168h4.501v2.005h-15.2702v3.9901c0,.7061,0,6.2824-1.9427,9.0373l-1.5876-1.7856c1.548-2.7988,1.548-6.414,1.548-7.0309v-6.2159h3.1921c-.0594-.7273-.1783-1.3895-.3764-2.1168h-2.9756v-2.005ZM33.981,104.5744c-.5943.9692-.9113,1.3442-1.289,1.763l-1.606-1.6088c1.388-1.4334,2.1224-2.9983,2.4988-3.9902l1.9639.375c-.1782.5518-.2985.9254-.5362,1.4546h2.6969v-1.6753h2.0035v1.6753h5.7122v2.0064h-5.7122v1.9837h4.9184v1.9611h-4.9184v2.2045h6.4848v2.0729h-15.2702v-2.0729h6.7819v-2.2045h-4.8972v-1.9611h4.8972v-1.9837h-3.7284ZM33.6838,96.2417c.1189.4415.3382,1.5876.4373,2.1168h5.5918c.1783-.7273.2972-1.3669.416-2.1168h-6.4451Z"/>
      <path class="cls-2" d="M28.9848,114.9311c-.4387,0-.8575-.1868-1.1504-.5172l-1.5876-1.7856c-.4343-.4882-.5136-1.1971-.198-1.7687,1.2239-2.2116,1.3555-5.1321,1.3555-6.2852v-6.2159c0-.3693.1316-.7089.3481-.9742-.3113-.2823-.508-.6898-.508-1.1426v-2.005c0-.8504.6905-1.5402,1.5409-1.5402h5.4617c.0339-.8213.7103-1.4772,1.5395-1.4772h2.1818c.8292,0,1.5055.6559,1.5395,1.4772h5.5791c.8504,0,1.5409.6898,1.5409,1.5402v2.005c0,.2158-.0453.421-.1245.607.7046.1415,1.2353.7634,1.2353,1.5098v2.005c0,.6523-.4061,1.2097-.9792,1.4347.1316.2264.2066.4896.2066.7698v2.0064c0,.6247-.3721,1.1623-.907,1.4043.0722.179.1132.3743.1132.5794v1.9611c0,.2378-.0552.4634-.1514.6644h.1769c.8504,0,1.5409.6898,1.5409,1.5401v2.0729c0,.8504-.6905,1.5402-1.5409,1.5402h-15.2702c-.225,0-.4386-.0481-.6311-.1344-.0169.0255-.0353.0509-.0523.0764-.2717.3842-.7032.6233-1.173.6502-.0283.0014-.058.0021-.0863.0021Z"/>
    </g>
    <g>
      <path class="cls-2" d="M48.7432,111.1426c1.9625-.6608,4.4217-1.6088,6.7026-3.4157h-6.7224v-1.8296h8.2095v-1.3229h-6.8215v-1.698h6.8215v-1.3216h-7.2389v-1.8083h4.2647c-.0594-.2419-.3382-1.3003-.5363-1.7191h-4.699v-1.8961h3.1129c-.1387-.3296-.774-1.8295-1.1504-2.7322l2.063-.6396c.4952,1.0358.7924,1.9173,1.19,3.3718h1.2098v-3.2402h1.9427v3.2402h1.7248v-3.2402h1.9442v3.2402h1.289c.3764-.9027.873-2.4464,1.0909-3.3944l2.063.6622c-.0608.1981-.4966,1.5649-1.0909,2.7322h3.0534v1.8961h-4.7995c-.0594.2433-.416,1.4545-.4952,1.7191h4.501v1.8083h-7.4356v1.3216h6.9799v1.698h-6.9799v1.3229h8.2293v1.8296h-6.7026c2.1819,1.8295,4.184,2.6672,6.8017,3.3944l-1.1504,2.005c-2.7959-1.0357-4.7995-2.005-7.178-4.3637v4.6283h-2.0036v-4.6071c-2.2215,2.1833-4.5024,3.3068-7.1596,4.3213l-1.0301-1.9625ZM55.525,98.0274c.0991.2646.4755,1.4772.5547,1.7191h3.6888c.1783-.5065.3169-1.0131.4372-1.7191h-4.6807Z"/>
      <path class="cls-2" d="M58.9365,114.9311h-2.0036c-.8504,0-1.5395-.6898-1.5395-1.5402v-1.3612c-1.5734,1.0591-3.2246,1.8098-5.0711,2.5144-.7287.2745-1.5494-.0318-1.9131-.723l-1.03-1.9626c-.2095-.3997-.2335-.8709-.0651-1.289.1669-.4188.5108-.7428.9381-.8865.3806-.128.774-.2653,1.1758-.416h-.7046c-.8504,0-1.5409-.6897-1.5409-1.5401v-1.8296c0-.7994.6098-1.4567,1.388-1.5331v-1.4878c0-.0842.0071-.1662.0199-.2469-.2703-.2773-.4373-.6565-.4373-1.0747v-1.8083c0-.0948.0099-.1881.0255-.278-.5815-.22-.9961-.7825-.9961-1.4411v-1.8961c0-.8503.6905-1.5401,1.5409-1.5401h.7937l-.2532-.5993c-.167-.4004-.1571-.8525.0269-1.2458.1839-.3927.5249-.6898.9395-.8179l2.063-.6395c.641-.2017,1.3286.0424,1.7078.5744.283-.3141.6919-.5122,1.1476-.5122h1.9427c.3198,0,.6169.0977.8617.2639.2462-.1662.5433-.2639.8631-.2639h1.9442c.4443,0,.8461.1889,1.1263.4903.1287-.1797.2957-.3318.4924-.4429.3749-.2143.8221-.2596,1.2324-.128l2.063.6622c.8023.2575,1.248,1.1128,1.0018,1.9186-.0085.0276-.0977.3156-.2491.7401h.7386c.8504,0,1.5409.6898,1.5409,1.5401v1.8961c0,.5957-.3396,1.1128-.8348,1.3689.0269.1125.041.23.041.3502v1.8083c0,.4351-.1811.8278-.4711,1.108.0099.07.0141.1415.0141.2136v1.5084c.7117.1358,1.2508.7612,1.2508,1.5125v1.8296c0,.8504-.6905,1.5401-1.5409,1.5401h-.7258c.399.1302.8107.2519,1.2366.3701.4585.1273.832.4598,1.0132.8992.1811.44.1471.9388-.0892,1.3512l-1.1503,2.005c-.375.653-1.1617.9403-1.8706.6778-1.971-.7294-3.5586-1.439-5.1023-2.5066v1.3272c0,.8504-.6905,1.5402-1.5409,1.5402ZM57.4706,107.3406c.0198.0071.0396.0148.058.0226.1443.0609.2773.1422.3934.2399.1231-.1076.266-.1967.4216-.2625.0099-.0035.0184-.0071.0269-.0106-.1599-.063-.307-.1528-.4358-.2625-.1358.116-.2929.2094-.4641.2731Z"/>
    </g>
    <g>
      <path class="cls-2" d="M71.0202,94.4574h7.1978v-1.6314h2.0432v1.6314h7.9323v2.005h-15.1712v7.0097c0,.5731-.0792,5.6655-1.9625,9.8311l-1.6668-1.6088c1.0909-2.6021,1.6272-5.4235,1.6272-8.2888v-8.9482ZM76.6715,103.3179c-.8532.6608-1.606,1.1022-2.6177,1.6314l-.9918-1.7644c.5956-.2858,1.3088-.5943,2.3601-1.2777-1.0711-1.0145-1.19-1.1249-1.6852-1.4546l1.4079-1.19c.7131.4839,1.5069,1.2777,1.7644,1.5423.9325-.7711,1.2098-1.1022,1.5862-1.5876h-3.768v-1.7191h6.8427c.3169.3976.6735.8815,1.2296,1.4772.7527-.8589,1.1701-1.5649,1.4276-1.9838l1.3881.948c-.7542,1.2339-1.0117,1.5211-1.6258,2.2045.1981.1755.3368.3085.733.617,1.0117-1.0796,1.4475-1.7857,1.8253-2.3814l1.4871,1.0584c-.3368.5065-.7938,1.19-1.8649,2.2922.5362.3311,1.1503.6622,2.3997,1.1688l-.931,1.9611c-.873-.4188-2.1026-1.0358-3.4115-2.0715v.9254h-.8928v2.138h3.8473v1.9186h-3.8473v2.8865c0,.1995,0,.5292.358.5292h1.9427c.5547,0,.5745-.4188.6948-2.4676l1.9031.44c-.1783,2.0941-.317,4.034-1.705,4.034h-3.4907c-1.5862,0-1.5862-1.0145-1.5862-1.5875v-3.8346h-2.3403c-.5561,2.5569-1.705,4.0992-5.1561,5.5764l-1.2098-2.0064c3.1525-1.1023,3.9859-2.1593,4.4415-3.57h-3.2317v-1.9186h3.5303c0-.109.0198-.1981.0198-.4189v-1.7191h-.8334v-.3962ZM83.1562,101.8633c-1.0315-.9706-1.8833-2.0276-2.5186-2.8002-.4556.7061-1.0513,1.6102-2.3007,2.8002h4.8193ZM81.4512,103.7141h-2.0432v1.6979c0,.242-.0198.3523-.0198.4401h2.063v-2.138Z"/>
      <path class="cls-2" d="M73.9548,114.8872c-.525,0-1.0329-.2702-1.3187-.7449l-.1514-.2512c-.0071.0156-.0142.0311-.0213.0467-.2066.4563-.6226.7839-1.1135.878-.4953.0948-.999-.0566-1.3598-.4047l-1.6668-1.6088c-.4571-.4408-.5957-1.1178-.3509-1.7036,1.0003-2.3856,1.5069-4.9743,1.5069-7.6931v-8.9482c0-.8503.6905-1.5401,1.5409-1.5401h5.6584v-.0913c0-.8504.6891-1.5402,1.5394-1.5402h2.0432c.8504,0,1.5395.6898,1.5395,1.5402v.0913h6.3928c.8503,0,1.5394.6898,1.5394,1.5401v2.005c0,.7103-.4796,1.3082-1.1348,1.4864l.3297.2342c.6778.4825.8504,1.415.3891,2.1076-.1669.2526-.3764.5681-.6848.9664.1585.0672.3297.1387.5164.2151.3934.1592.7033.4733.8561.868.1542.3955.1387.8363-.0439,1.2197l-.931,1.9612c-.0764.1627-.1811.3098-.3071.4344v1.7425c.6665.2235,1.1065.8772,1.0457,1.5918-.2009,2.3637-.4627,5.4433-3.2402,5.4433h-3.4907c-.9396,0-3.1271-.3049-3.1271-3.1277v-1.352c-.931,1.988-2.5526,3.3124-5.3499,4.5094-.1967.0842-.4019.1245-.6056.1245Z"/>
    </g>
    <g>
      <path class="cls-2" d="M106.5652,99.615c-.4754-.4627-.7938-.75-1.1107-1.0146-3.5898.4854-9.7972.8603-13.9416.8815l-.099-1.7842c.515,0,2.895-.0453,3.4511-.0453.4358-.7485.5942-1.1461.7329-1.4546h-4.8986v-1.8734h8.3299v-1.5423h2.0233v1.5423h8.3086v1.8734h-3.7878c.3566.2434,1.7461,1.1688,2.7167,2.1819l-1.6654,1.2791v.948h2.7563v1.7631h-2.7563v2.9756h-5.6513v1.0145h8.4076v1.8946h-6.8412c3.0732,2.2045,5.7107,2.6234,6.8412,2.8215l-1.0116,2.0941c-1.1306-.3523-4.7387-1.4758-7.396-4.2534v4.5845h-1.8253v-4.6736c-.5546.5518-3.0535,3.1313-7.536,4.4316l-.9127-2.138c.7542-.1103,2.3007-.3976,4.2053-1.3017.8716-.4174,1.8238-.9693,2.5384-1.565h-6.7437v-1.8946h8.4487v-1.0145h-5.6117v-2.9756h-2.837v-1.7631h2.837v-.9918h1.8239v.9918h3.7878v-.9918h1.8253v.9918h3.7878v-.9918h1.8041ZM95.3602,102.3699v1.2791h3.7878v-1.2791h-3.7878ZM104.0466,96.1978h-5.9895c-.1387.2434-.7132,1.1249-.9112,1.4107.3169,0,5.988-.198,6.7422-.2419-.2179-.1542-.3764-.2646-.9126-.6396l1.0711-.5292ZM100.9733,102.3699v1.2791h3.7878v-1.2791h-3.7878Z"/>
      <path class="cls-2" d="M100.9733,115.0415h-1.8253c-.8504,0-1.5395-.6898-1.5395-1.5402v-1.3973c-2.0474,1.4086-4.0538,2.1953-5.5678,2.6347-.7485.2165-1.5395-.1592-1.8451-.8745l-.9126-2.138c-.1882-.4393-.1613-.9416.0735-1.3583.1741-.3127.4514-.5511.7783-.6799-.5717-.225-.9764-.7818-.9764-1.4334v-1.8946c0-.8504.6905-1.5401,1.5409-1.5401h1.2961v-.9099h-1.2961c-.8504,0-1.5409-.6898-1.5409-1.5401v-1.7631c0-.5815.3227-1.0881.7995-1.3505l-.0821-1.473c-.0042-.0934-.0014-.1861.0099-.2773-.4358-.2724-.7273-.7563-.7273-1.3082v-1.8734c0-.8503.6905-1.5401,1.5409-1.5401l6.789-.0022c0-.8503.6905-1.5401,1.5409-1.5401h2.0233c.8504,0,1.5409.6898,1.5409,1.5401v.0022h6.7677c.8504,0,1.5395.6898,1.5395,1.5401v1.8734c0,.7429-.5249,1.3633-1.2253,1.5084.1174.2426.1712.515.1499.7902-.0155.2102-.0735.4118-.1698.595.7203.1295,1.2664.7584,1.2664,1.5154v1.7631c0,.8503-.6905,1.5401-1.5409,1.5401h-1.2168v.9099h1.2168c.8504,0,1.5409.6897,1.5409,1.5401v1.8946c0,.6396-.3905,1.1886-.9466,1.4214.3113.1464.5787.3884.7344.6898.2207.4294.2688.9451.058,1.3802l-1.0117,2.0942c-.3311.6848-1.1192,1.0272-1.8465.8001-.9042-.2823-3.1299-.9756-5.3952-2.4662v1.3272c0,.8504-.6905,1.5402-1.5409,1.5402ZM100.0451,107.6116c.0184.0127.0354.0254.0523.0389.0057-.0043.0114-.0085.017-.0121-.0184-.012-.0368-.0247-.0537-.0375-.0057.0036-.0099.0071-.0156.0107Z"/>
    </g>
    <g>
      <path class="cls-2" d="M113.988,99.3504c-.1981,1.4984-.4754,2.6884-.8518,3.7029l-1.6668-1.2565c.7344-2.1153.9325-3.4171,1.0711-7.4497l1.8451.1316c-.0594.9706-.1202,1.8521-.1797,2.6672h1.091v-4.3638h2.0035v4.3638h1.7843v2.2045h-1.7843v4.4967c1.0315-.3085,1.3881-.4415,2.0418-.6834l.1599,2.1606c-1.19.4188-1.5678.5504-2.2017.7485v7.4059h-2.0035v-6.789c-1.0315.3085-2.1409.5957-3.3903.9042l-.4174-2.2923c.7542-.133,1.6866-.3084,3.8077-.8815v-5.0697h-1.3089ZM118.9856,111.7156c2.1225-1.5211,5.8707-4.6722,7.7144-13.7547h-1.4475c-.7528,4.0128-3.0337,8.9057-5.8494,11.2205l-1.5282-1.6979c.8928-.7046,2.1819-1.7192,3.5105-4.2533,1.2296-2.3588,1.705-4.409,1.8847-5.2693h-1.2296c-.3976,1.1022-1.2494,3.2629-2.3007,4.6071l-1.5861-1.4985c1.1885-1.5876,2.3191-3.5925,3.1128-8.2874l2.1225.1981c-.1387.7047-.2986,1.565-.675,2.9318h7.2786c-.1783,10.2047-.1981,11.3508-.3962,13.5114-.1995,2.1606-.3778,4.0553-2.5583,4.0553h-2.9558l-.3368-2.2696h2.7167c.6354,0,.8929,0,1.0514-1.1461.1981-1.5876.4754-5.1363.5942-10.2938-1.0102,5.0471-3.4496,10.1608-7.635,13.7095l-1.4872-1.7631Z"/>
      <path class="cls-2" d="M127.0381,115.0188h-2.9558c-.7627,0-1.4121-.5589-1.5239-1.3138l-.0057-.0389c-.3509.3432-.7131.6721-1.0838.987-.3113.2646-.7004.3919-1.1249.3601-.4075-.034-.7853-.2285-1.0485-.5413l-.5051-.5999c-.1741.6601-.7754,1.1468-1.49,1.1468h-2.0035c-.8504,0-1.5409-.6898-1.5409-1.5401v-4.7635c-.4726.1231-.965.2469-1.4801.3743-.4145.1011-.8503.0276-1.2055-.2024-.358-.2313-.6028-.5992-.6792-1.0173l-.4174-2.2922c-.0736-.4033.017-.8193.2519-1.1561.2334-.336.5928-.5652.9961-.6367.0821-.0141.1684-.0297.2632-.0467l-.9424-.7117c-.5348-.4018-.7471-1.103-.5278-1.7347.6509-1.8777.8476-2.9601.9863-6.9977.0141-.4181.1981-.8122.5093-1.0916.3099-.2802.7358-.4231,1.1391-.3912l1.1065.0785v-.1076c0-.8503.6905-1.5401,1.5409-1.5401h2.0035c.8504,0,1.5409.6898,1.5409,1.5401v2.8236h.2349c.2405-.8589.4669-1.8706.6721-3.0804.1344-.7959.8617-1.3456,1.6612-1.277l2.1224.1981c.4344.0411.8306.2632,1.0909.612.2604.3488.3608.7917.2773,1.219l-.0311.1563c-.0538.2788-.1146.5858-.1896.9381h5.3132c.4131,0,.8093.1663,1.098.4606.29.295.4485.6933.4414,1.1065-.1797,10.3348-.1995,11.4109-.4018,13.6253-.2009,2.1726-.5037,5.4546-4.0921,5.4546ZM125.8001,109.6689h.2094c.0155-.1252.0297-.2597.0452-.4026-.0834.1352-.1683.2696-.2546.4026ZM128.2154,98.2325c.0212.0015.041.0036.0622.0057.0453.005.0892.012.133.0212.0057-.2617.0099-.5306.0142-.8072h-.2717c.0877.2476.1104.5165.0623.7803Z"/>
    </g>
    <g>
      <path class="cls-2" d="M137.3362,94.1037c-.4953,3.3733-.7938,6.7677-.7938,10.1834,0,2.646.1599,5.3783.7541,7.9365l-2.2016.3084c-.5745-2.5794-.7528-5.3131-.7528-8.1345,0-1.19.0396-4.716.733-10.5145l2.2611.2207ZM142.2149,103.7593c-.4358.7712-.9126,1.7404-.9126,2.8653,0,2.3587,2.2413,2.3587,4.7401,2.3587,2.0233,0,3.1723-.1556,3.9066-.2645v2.4464c-1.3088.1316-2.8157.1316-3.6293.1316-2.5979,0-7.0592,0-7.0592-4.5844,0-1.7192.6735-3.0196,1.1291-3.8572l1.8253.9041ZM149.6123,95.4041v2.2936h-9.817v-2.2936h9.817Z"/>
      <path class="cls-2" d="M135.0935,114.0722c-.7118,0-1.3428-.4931-1.5013-1.2055-.5391-2.4189-.7895-5.1101-.7895-8.4692,0-2.0425.1287-5.5558.7428-10.697.099-.8313.8277-1.4313,1.6795-1.3506l2.2611.2207c.4189.041.8037.2519,1.0627.5844.2278.2893.341.6494.3268,1.0138.2561-.1917.5745-.3049.9197-.3049h9.817c.8504,0,1.5409.6898,1.5409,1.5402v2.2936c0,.8504-.6905,1.5402-1.5409,1.5402h-9.817c-.6381,0-1.1843-.3877-1.4192-.9403-.1966,2.0708-.2943,4.0532-.2943,5.9895,0,.0071.0015.0149.0015.022.2943-.9792.7032-1.7298.9536-2.1897.3948-.7266,1.2919-1.0117,2.0361-.6445l1.8253.9042c.3792.1881.6651.5235.7882.9275.1245.4046.0778.8426-.1302,1.2105-.3707.6558-.7131,1.3647-.7131,2.1075,0,.5278,0,.8186,3.1992.8186,2.0092,0,3.0973-.1613,3.6802-.2476.4557-.0651.8943.0643,1.2325.3572.3396.2922.5334.7181.5334,1.166v2.4464c0,.791-.5985,1.4532-1.3852,1.5324-1.3853.1394-2.946.1394-3.7836.1394-2.0404,0-6.2499,0-7.9068-3.0514.1019.7351.2307,1.4277.3835,2.0892.0976.4217.0141.8645-.2306,1.2204-.2448.3566-.6269.5936-1.0556.6537l-2.2017.3085c-.0721.0099-.1443.0148-.215.0148Z"/>
    </g>
    <g>
      <path class="cls-2" d="M157.2134,93.7514h2.3205l-.0594,2.9091h6.4649v2.3149h-6.5045l-.0594,3.6591h1.2295c2.3602,0,4.0058-.4189,4.958-.6608l.6537,2.1818c-2.1818.75-5.572.75-5.9484.75h-.9325c0,4.5179.2377,5.2452,4.0652,5.2452,2.2611,0,4.3821-.242,4.3821-3.5049,0-1.9611-.4358-3.1963-1.0103-4.6283l2.0814-.706c.7542,1.7191,1.19,3.5713,1.19,5.4674,0,5.1348-3.8076,5.7079-6.6828,5.7079-5.6315,0-6.2272-2.1592-6.2272-7.5813h-3.5303v-2.271h3.5303l.0396-3.6591h-3.2728v-2.3149h3.2926l.0198-2.9091Z"/>
      <path class="cls-2" d="M163.3614,114.0269c-6.4961,0-7.5912-3.0683-7.7455-7.5813h-2.012c-.8504,0-1.5409-.6898-1.5409-1.5401v-2.271c0-.8504.6905-1.5402,1.5409-1.5402h2.0064l.007-.5787h-1.7163c-.8504,0-1.5409-.6898-1.5409-1.5402v-2.3149c0-.8504.6905-1.5401,1.5409-1.5401h1.763l.0099-1.3796c.0057-.8462.6934-1.5296,1.5395-1.5296h2.3205c.4146,0,.8108.167,1.1009.462.2886.2957.4471.6954.4386,1.1093l-.0269,1.3379h4.8929c.8504,0,1.5395.6897,1.5395,1.5401v2.3149c0,.815-.6325,1.4822-1.4334,1.5366.0581.0198.1161.0425.1727.0687.0198-.0078.0396-.0149.0594-.022l2.0814-.706c.7612-.2554,1.5847.1096,1.9059.8397.8759,1.9965,1.3202,4.044,1.3202,6.0865,0,3.3067-1.4277,7.248-8.2237,7.248ZM160.8866,106.4386c.0566,2.1719.4005,2.1719,2.5144,2.1719,2.4167,0,2.8412-.2936,2.8412-1.9647,0-.3127-.0113-.602-.0354-.8751-1.8238.5157-4.0934.6403-5.3202.6679ZM158.1742,103.77c.0212.0191.041.0382.0608.058.0255-.0262.0524-.0517.0807-.0764-.0128-.0121-.0255-.0241-.0382-.0368-.0071-.0078-.0156-.0156-.0227-.0241-.0255.0276-.0523.0538-.0806.0793ZM160.9503,100.5156l-.0099.5759c1.8861-.0354,3.2431-.3573,4.1062-.5759h-4.0963ZM158.1996,97.8265c.0241.0212.0467.0431.0694.0657.0113.0121.024.0248.0353.0375.0425-.0459.0878-.0891.1345-.1294-.0213-.0198-.0439-.0404-.0651-.0616-.0128-.0141-.0269-.0283-.0397-.0431-.0424.0467-.0863.0898-.1344.1309Z"/>
    </g>
    <g>
      <path class="cls-2" d="M79.5255,128.8974c.6622.5292,1.8521,1.4984,3.5048,3.1964.3976-1.0584.8164-2.4026,1.1249-4.8279h-6.7239v-2.2483h4.1883v-3.3506h2.3375v3.3506h3.8571v2.2483h-1.2791c-.5292,3.0861-1.1234,5.0033-1.8069,6.6348.9254,1.0796,2.4465,2.8652,3.2176,4.3198l-1.8946,1.4772c-.4415-.7499-1.1249-1.8734-2.4026-3.5048-1.6102,2.8653-3.659,4.6297-5.0259,5.7305l-1.5876-2.0276c.9481-.7046,3.2403-2.4238,4.9821-5.6202-2.0503-2.2271-3.3945-3.2402-4.1883-3.8359l1.6966-1.5423ZM89.7541,129.9331c.6382.9254,1.6301,2.4903,2.9531,5.8636l-2.2696,1.1022c-.6622-1.9186-1.6753-4.1217-2.8002-5.8423l2.1167-1.1235ZM96.2346,121.667v4.0779h1.8508v2.3587h-1.8508v12.2337c0,1.6965-.9268,2.005-2.6233,2.005h-3.3732l-.5943-2.2484h3.461c.7046,0,.7485-.0877.7485-.5504v-11.4399h-5.3556v-2.3587h5.3556v-4.0779h2.3813Z"/>
      <path class="cls-2" d="M93.6113,143.8824h-3.3732c-.699,0-1.3103-.4704-1.4886-1.1468l-.5943-2.2483c-.0382-.1444-.0551-.2915-.0509-.4373l-1.1065.8625c-.3481.2723-.7966.3792-1.2352.2985-.4344-.0835-.8136-.3502-1.0386-.7322-.1896-.3219-.5009-.8504-.9947-1.5749-1.3824,1.8784-2.8922,3.2141-4.1402,4.2187-.3226.2582-.7329.3743-1.1418.3311-.409-.0474-.7825-.2561-1.0372-.5808l-1.5876-2.0277c-.2561-.3268-.3693-.7435-.3141-1.1546.0552-.4117.2745-.7831.6084-1.0308.7825-.5822,2.4946-1.855,3.9831-4.1691-1.5253-1.5657-2.5483-2.3333-3.1949-2.8193-.3679-.2752-.5929-.7004-.6141-1.1596-.0227-.4584.1627-.9027.5023-1.2119l.5462-.4966c-.808-.0474-1.4475-.7174-1.4475-1.5374v-2.2483c0-.8504.689-1.5402,1.5394-1.5402h2.6474v-1.8104c0-.8504.6905-1.5402,1.5409-1.5402h2.3375c.8504,0,1.5395.6898,1.5395,1.5402v1.8104h2.3176c.5519,0,1.0372.2908,1.3089.7273h3.1893v-2.5377c0-.8504.6905-1.5402,1.5409-1.5402h2.3813c.8504,0,1.5395.6898,1.5395,1.5402v2.5377h.3113c.8504,0,1.5409.6898,1.5409,1.5402v2.3587c0,.8504-.6905,1.5402-1.5409,1.5402h-.3113v10.6935c0,3.5451-3.1327,3.5451-4.1628,3.5451ZM89.4825,138.1066c.0113.1549-.0014.3099-.0354.4599.0651-.0085.1302-.0128.1967-.0128h2.6686v-.8532l-1.2013.5837c-.3976.1931-.8561.2059-1.2636.0375-.133-.0552-.2547-.1274-.365-.2151ZM86.5012,133.6071c.6367.7562,1.4178,1.7205,2.0672,2.682-.5037-1.2742-1.1136-2.5384-1.7404-3.6117-.1033.3156-.2122.6247-.3268.9297ZM91.4125,129.6438c.2702.4216.5702.9232.8999,1.5416v-1.5416h-.8999ZM81.8163,128.8061c.1443.1267.2957.2618.4556.4082.0283-.1308.0566-.2667.0835-.4082h-.5391ZM94.8437,126.9242c.0736.0609.1401.1288.1995.2024.0609-.0736.1274-.1415.201-.2024-.0736-.0608-.1401-.1287-.201-.2023-.0594.0736-.1259.1415-.1995.2023Z"/>
    </g>
    <g>
      <path class="cls-2" d="M110.2087,121.7335h2.271v2.0276h8.6185v2.1819h-16.3555v7.4285c0,.5518-.0665,2.4903-.573,4.6736-.4854,2.1153-1.3442,3.3944-1.8961,4.1882l-1.7856-1.7644c.5957-.8589,1.9837-2.8865,1.9837-6.9432v-9.7646h7.737v-2.0276ZM108.4018,132.688c-.5066,4.9382-1.5649,6.8328-2.2257,7.8035l-1.8083-1.1461c.6395-1.1023,1.4772-2.646,2.0064-7.0535l2.0276.3961ZM110.6063,126.2741c1.3668.6834,3.2841,1.8521,4.9594,3.3067l-1.5437,1.8295c-1.7404-1.6753-3.3718-2.6233-4.8929-3.3506l1.4772-1.7856ZM109.4375,131.1019h2.1819v8.2647c0,.508.2646.508.6834.508h1.9187c.5278,0,.6381-.1981.7046-.4853.0878-.3962.1769-1.698.2873-3.2841l2.2922.44c-.4188,4.0779-.5731,5.4447-2.6898,5.4447h-3.5487c-.6396,0-1.8296-.1981-1.8296-1.5861v-9.3019ZM118.8724,131.3665c.484,1.0796,2.0928,4.6056,2.6672,8.5081l-2.3813.6169c-.3524-2.6898-1.3004-5.8197-2.5795-8.3326l2.2936-.7924Z"/>
      <path class="cls-2" d="M102.2736,143.7735c-.4032,0-.7923-.1585-1.0824-.4443l-1.7857-1.7645c-.532-.5263-.6098-1.359-.1825-1.9738.5108-.7372,1.7079-2.4642,1.7079-6.0652v-9.7646c0-.8504.6904-1.5402,1.5408-1.5402h6.1975v-.4874c0-.8504.6891-1.5402,1.5395-1.5402h2.271c.8504,0,1.5409.6898,1.5409,1.5402v.4874h7.0776c.8504,0,1.5408.6898,1.5408,1.5402v2.1819c0,.8504-.6904,1.5401-1.5408,1.5401h-5.6726c.3806.2901.7669.6021,1.1504.9346.5914.5144.6976,1.3824.2702,2.0192l1.5239-.5264c.7542-.2582,1.582.0983,1.9074.8263l-1.4051.6297,1.4391-.5561c.5334,1.19,2.1592,4.8115,2.752,8.8399.1146.7782-.3763,1.5183-1.1376,1.7149l-2.3814.617c-.4273.1124-.8815.0332-1.2479-.2137-.0665-.046-.1302-.0962-.1896-.1507-.5604,1.2176-1.5112,1.9123-3.2912,1.9123h-3.5487c-1.9343,0-3.2601-1.1574-3.3634-2.9042-.1584.2816-.3113.5221-.4542.7323-.4669.6862-1.3951.8801-2.0983.4344l-.7302-.4634c-.4117.8185-.8206,1.4064-1.0824,1.7835-.2603.3728-.6707.6127-1.1235.6544-.0467.0043-.0948.0064-.1415.0064ZM113.1603,138.3337h.3438c.051-.5936.1104-1.4432.1656-2.2271.0297-.4394.2518-.8992.6013-1.1681.3481-.2688.7952-.4294,1.2324-.3459l.5321.1018c-.2561-.6402-.5349-1.2578-.8292-1.8366-.0538-.1068-.0948-.2179-.1231-.3311-.2646.2519-.6127.4026-.982.4217-.3084.0212-.665-.0757-.9409-.2618v5.6471ZM106.3742,130.7517c.099,0,.1967.0092.2957.0283l1.2296.2405c.0325-.6247.4372-1.1503.9961-1.3605-.1471-.0735-.29-.1436-.4315-.2108-.4274-.2044-.7372-.595-.8391-1.0584-.0679-.3063-.0396-.6225.0764-.9077h-1.4192v3.2714c.0311-.0021.0608-.0028.092-.0028Z"/>
    </g>
  </g>
  <g>
    <path class="cls-3" d="M74.9849,64.9302c-.0439,1.565-.133,5.357.4627,6.6347,2.8214-.9692,7.4058-1.7856,7.8912-1.8734l.5065,2.5569c-1.4319.1768-5.8848.7272-9.3458,2.0502-1.0796.4189-4.5193,1.7192-4.5193,4.409,0,2.3135,2.2045,2.6007,7.87,2.6007,3.4821,0,5.5098-.2207,6.6785-.3537v2.4917c-2.6233.1981-4.7825.2419-6.2159.2419-4.4528,0-7.3846-.2645-9.0811-1.4319-1.0145-.706-1.8083-1.8748-1.8083-3.3506,0-3.9024,3.9236-5.6655,5.8197-6.5243-.4189-.9042-.9042-2.1607-.815-7.4512h2.5568ZM80.7593,68.3912c-.3085-1.6753-.5731-2.6233-1.0796-3.8572l1.8507-.3084c.4415.948.9919,2.578,1.2353,3.7029l-2.0064.4627ZM83.7576,67.7743c-.3523-1.6541-.5066-2.0276-1.1461-3.5926l1.8507-.3537c.3311.6622,1.1249,2.6898,1.2791,3.5048l-1.9837.4415Z"/>
    <path class="cls-3" d="M98.1292,65.2175c-.4414,1.3215-2.469,7.0747-2.844,8.2647.4853-.3523,1.3456-.9692,2.844-.9692,3.5487,0,3.6365,3.4171,3.6365,5.0032v.948c0,.6396,0,2.646,1.8734,2.646,1.7644,0,2.9105-1.8522,3.3732-6.7012l2.3149.6834c-.5957,5.2014-1.9187,8.4416-5.9739,8.4416-1.8069,0-3.2177-1.1022-3.703-2.4026-.3084-.815-.3749-2.138-.3749-2.6233v-.7485c0-1.4107,0-2.8441-1.6527-2.8441-2.4917,0-3.7482,2.6899-4.2109,3.9237-.0439.1104-1.1461,4.3199-1.3003,4.9156l-2.5342-.7273c1.7191-5.2028,4.8052-15.1881,5.7744-18.318l2.7775.508Z"/>
    <path class="cls-3" d="M120.1261,64.776c-.0665.3085-.5066,2.4691-.5504,2.646h4.6283v2.2922h-5.0471c-.5731,2.8865-2.4253,8.9708-3.6379,11.7045l-2.3587-1.0584c.4641-.9707,2.3587-5.1802,3.5713-10.6461h-3.5713v-2.2922h4.0128c.1754-.9707.2858-1.7418.4188-2.6899l2.5342.0439ZM132.3598,69.6915c-.7273-.0665-1.19-.0877-1.8961-.0877-1.3668,0-1.9611.0877-2.5341.1755l.2207,6.6135c3.1299,1.4545,4.1656,2.469,4.716,2.9968l-1.4545,2.3149c-.5066-.5066-1.565-1.5862-3.3068-2.6672,0,.4627,0,2.138-.4627,2.9756-.7046,1.323-2.6233,1.7631-4.143,1.7631-4.6509,0-5.1589-2.9757-5.1589-4.0553,0-2.5794,2.1168-4.2533,5.5551-4.2533.8815,0,1.3881.0877,1.8296.1754l-.2646-7.9789c1.6753-.3523,2.9982-.5065,6.8766-.5518l.0227,2.5794ZM125.7916,77.8912c-.5292-.1755-1.1249-.3523-2.0503-.3523-1.8295,0-3.0634.815-3.0634,2.1606,0,1.5423,1.7404,1.8295,2.6446,1.8295,2.4691,0,2.4691-1.4772,2.4691-2.0941v-1.5437Z"/>
    <path class="cls-3" d="M28.7853,94.2367h7.0012v-1.4772h2.1818v1.4772h7.1186v2.005h-2.8355c-.1585.8164-.4358,1.7418-.5547,2.1168h4.501v2.005h-15.2702v3.9901c0,.7061,0,6.2824-1.9427,9.0373l-1.5876-1.7856c1.548-2.7988,1.548-6.414,1.548-7.0309v-6.2159h3.1921c-.0594-.7273-.1783-1.3895-.3764-2.1168h-2.9756v-2.005ZM33.981,104.5744c-.5943.9692-.9113,1.3442-1.289,1.763l-1.606-1.6088c1.388-1.4334,2.1224-2.9983,2.4988-3.9902l1.9639.375c-.1782.5518-.2985.9254-.5362,1.4546h2.6969v-1.6753h2.0035v1.6753h5.7122v2.0064h-5.7122v1.9837h4.9184v1.9611h-4.9184v2.2045h6.4848v2.0729h-15.2702v-2.0729h6.7819v-2.2045h-4.8972v-1.9611h4.8972v-1.9837h-3.7284ZM33.6838,96.2417c.1189.4415.3382,1.5876.4373,2.1168h5.5918c.1783-.7273.2972-1.3669.416-2.1168h-6.4451Z"/>
    <path class="cls-3" d="M48.7432,111.1426c1.9625-.6608,4.4217-1.6088,6.7026-3.4157h-6.7224v-1.8296h8.2095v-1.3229h-6.8215v-1.698h6.8215v-1.3216h-7.2389v-1.8083h4.2647c-.0594-.2419-.3382-1.3003-.5363-1.7191h-4.699v-1.8961h3.1129c-.1387-.3296-.774-1.8295-1.1504-2.7322l2.063-.6396c.4952,1.0358.7924,1.9173,1.19,3.3718h1.2098v-3.2402h1.9427v3.2402h1.7248v-3.2402h1.9442v3.2402h1.289c.3764-.9027.873-2.4464,1.0909-3.3944l2.063.6622c-.0608.1981-.4966,1.5649-1.0909,2.7322h3.0534v1.8961h-4.7995c-.0594.2433-.416,1.4545-.4952,1.7191h4.501v1.8083h-7.4356v1.3216h6.9799v1.698h-6.9799v1.3229h8.2293v1.8296h-6.7026c2.1819,1.8295,4.184,2.6672,6.8017,3.3944l-1.1504,2.005c-2.7959-1.0357-4.7995-2.005-7.178-4.3637v4.6283h-2.0036v-4.6071c-2.2215,2.1833-4.5024,3.3068-7.1596,4.3213l-1.0301-1.9625ZM55.525,98.0274c.0991.2646.4755,1.4772.5547,1.7191h3.6888c.1783-.5065.3169-1.0131.4372-1.7191h-4.6807Z"/>
    <path class="cls-3" d="M71.0202,94.4574h7.1978v-1.6314h2.0432v1.6314h7.9323v2.005h-15.1712v7.0097c0,.5731-.0792,5.6655-1.9625,9.8311l-1.6668-1.6088c1.0909-2.6021,1.6272-5.4235,1.6272-8.2888v-8.9482ZM76.6715,103.3179c-.8532.6608-1.606,1.1022-2.6177,1.6314l-.9918-1.7644c.5956-.2858,1.3088-.5943,2.3601-1.2777-1.0711-1.0145-1.19-1.1249-1.6852-1.4546l1.4079-1.19c.7131.4839,1.5069,1.2777,1.7644,1.5423.9325-.7711,1.2098-1.1022,1.5862-1.5876h-3.768v-1.7191h6.8427c.3169.3976.6735.8815,1.2296,1.4772.7527-.8589,1.1701-1.5649,1.4276-1.9838l1.3881.948c-.7542,1.2339-1.0117,1.5211-1.6258,2.2045.1981.1755.3368.3085.733.617,1.0117-1.0796,1.4475-1.7857,1.8253-2.3814l1.4871,1.0584c-.3368.5065-.7938,1.19-1.8649,2.2922.5362.3311,1.1503.6622,2.3997,1.1688l-.931,1.9611c-.873-.4188-2.1026-1.0358-3.4115-2.0715v.9254h-.8928v2.138h3.8473v1.9186h-3.8473v2.8865c0,.1995,0,.5292.358.5292h1.9427c.5547,0,.5745-.4188.6948-2.4676l1.9031.44c-.1783,2.0941-.317,4.034-1.705,4.034h-3.4907c-1.5862,0-1.5862-1.0145-1.5862-1.5875v-3.8346h-2.3403c-.5561,2.5569-1.705,4.0992-5.1561,5.5764l-1.2098-2.0064c3.1525-1.1023,3.9859-2.1593,4.4415-3.57h-3.2317v-1.9186h3.5303c0-.109.0198-.1981.0198-.4189v-1.7191h-.8334v-.3962ZM83.1562,101.8633c-1.0315-.9706-1.8833-2.0276-2.5186-2.8002-.4556.7061-1.0513,1.6102-2.3007,2.8002h4.8193ZM81.4512,103.7141h-2.0432v1.6979c0,.242-.0198.3523-.0198.4401h2.063v-2.138Z"/>
    <path class="cls-3" d="M106.5652,99.615c-.4754-.4627-.7938-.75-1.1107-1.0146-3.5898.4854-9.7972.8603-13.9416.8815l-.099-1.7842c.515,0,2.895-.0453,3.4511-.0453.4358-.7485.5942-1.1461.7329-1.4546h-4.8986v-1.8734h8.3299v-1.5423h2.0233v1.5423h8.3086v1.8734h-3.7878c.3566.2434,1.7461,1.1688,2.7167,2.1819l-1.6654,1.2791v.948h2.7563v1.7631h-2.7563v2.9756h-5.6513v1.0145h8.4076v1.8946h-6.8412c3.0732,2.2045,5.7107,2.6234,6.8412,2.8215l-1.0116,2.0941c-1.1306-.3523-4.7387-1.4758-7.396-4.2534v4.5845h-1.8253v-4.6736c-.5546.5518-3.0535,3.1313-7.536,4.4316l-.9127-2.138c.7542-.1103,2.3007-.3976,4.2053-1.3017.8716-.4174,1.8238-.9693,2.5384-1.565h-6.7437v-1.8946h8.4487v-1.0145h-5.6117v-2.9756h-2.837v-1.7631h2.837v-.9918h1.8239v.9918h3.7878v-.9918h1.8253v.9918h3.7878v-.9918h1.8041ZM95.3602,102.3699v1.2791h3.7878v-1.2791h-3.7878ZM104.0466,96.1978h-5.9895c-.1387.2434-.7132,1.1249-.9112,1.4107.3169,0,5.988-.198,6.7422-.2419-.2179-.1542-.3764-.2646-.9126-.6396l1.0711-.5292ZM100.9733,102.3699v1.2791h3.7878v-1.2791h-3.7878Z"/>
    <path class="cls-3" d="M113.988,99.3504c-.1981,1.4984-.4754,2.6884-.8518,3.7029l-1.6668-1.2565c.7344-2.1153.9325-3.4171,1.0711-7.4497l1.8451.1316c-.0594.9706-.1202,1.8521-.1797,2.6672h1.091v-4.3638h2.0035v4.3638h1.7843v2.2045h-1.7843v4.4967c1.0315-.3085,1.3881-.4415,2.0418-.6834l.1599,2.1606c-1.19.4188-1.5678.5504-2.2017.7485v7.4059h-2.0035v-6.789c-1.0315.3085-2.1409.5957-3.3903.9042l-.4174-2.2923c.7542-.133,1.6866-.3084,3.8077-.8815v-5.0697h-1.3089ZM118.9856,111.7156c2.1225-1.5211,5.8707-4.6722,7.7144-13.7547h-1.4475c-.7528,4.0128-3.0337,8.9057-5.8494,11.2205l-1.5282-1.6979c.8928-.7046,2.1819-1.7192,3.5105-4.2533,1.2296-2.3588,1.705-4.409,1.8847-5.2693h-1.2296c-.3976,1.1022-1.2494,3.2629-2.3007,4.6071l-1.5861-1.4985c1.1885-1.5876,2.3191-3.5925,3.1128-8.2874l2.1225.1981c-.1387.7047-.2986,1.565-.675,2.9318h7.2786c-.1783,10.2047-.1981,11.3508-.3962,13.5114-.1995,2.1606-.3778,4.0553-2.5583,4.0553h-2.9558l-.3368-2.2696h2.7167c.6354,0,.8929,0,1.0514-1.1461.1981-1.5876.4754-5.1363.5942-10.2938-1.0102,5.0471-3.4496,10.1608-7.635,13.7095l-1.4872-1.7631Z"/>
    <path class="cls-3" d="M137.3362,94.1037c-.4953,3.3733-.7938,6.7677-.7938,10.1834,0,2.646.1599,5.3783.7541,7.9365l-2.2016.3084c-.5745-2.5794-.7528-5.3131-.7528-8.1345,0-1.19.0396-4.716.733-10.5145l2.2611.2207ZM142.2149,103.7593c-.4358.7712-.9126,1.7404-.9126,2.8653,0,2.3587,2.2413,2.3587,4.7401,2.3587,2.0233,0,3.1723-.1556,3.9066-.2645v2.4464c-1.3088.1316-2.8157.1316-3.6293.1316-2.5979,0-7.0592,0-7.0592-4.5844,0-1.7192.6735-3.0196,1.1291-3.8572l1.8253.9041ZM149.6123,95.4041v2.2936h-9.817v-2.2936h9.817Z"/>
    <path class="cls-3" d="M157.2134,93.7514h2.3205l-.0594,2.9091h6.4649v2.3149h-6.5045l-.0594,3.6591h1.2295c2.3602,0,4.0058-.4189,4.958-.6608l.6537,2.1818c-2.1818.75-5.572.75-5.9484.75h-.9325c0,4.5179.2377,5.2452,4.0652,5.2452,2.2611,0,4.3821-.242,4.3821-3.5049,0-1.9611-.4358-3.1963-1.0103-4.6283l2.0814-.706c.7542,1.7191,1.19,3.5713,1.19,5.4674,0,5.1348-3.8076,5.7079-6.6828,5.7079-5.6315,0-6.2272-2.1592-6.2272-7.5813h-3.5303v-2.271h3.5303l.0396-3.6591h-3.2728v-2.3149h3.2926l.0198-2.9091Z"/>
    <path class="cls-3" d="M79.5255,128.8974c.6622.5292,1.8521,1.4984,3.5048,3.1964.3976-1.0584.8164-2.4026,1.1249-4.8279h-6.7239v-2.2483h4.1883v-3.3506h2.3375v3.3506h3.8571v2.2483h-1.2791c-.5292,3.0861-1.1234,5.0033-1.8069,6.6348.9254,1.0796,2.4465,2.8652,3.2176,4.3198l-1.8946,1.4772c-.4415-.7499-1.1249-1.8734-2.4026-3.5048-1.6102,2.8653-3.659,4.6297-5.0259,5.7305l-1.5876-2.0276c.9481-.7046,3.2403-2.4238,4.9821-5.6202-2.0503-2.2271-3.3945-3.2402-4.1883-3.8359l1.6966-1.5423ZM89.7541,129.9331c.6382.9254,1.6301,2.4903,2.9531,5.8636l-2.2696,1.1022c-.6622-1.9186-1.6753-4.1217-2.8002-5.8423l2.1167-1.1235ZM96.2346,121.667v4.0779h1.8508v2.3587h-1.8508v12.2337c0,1.6965-.9268,2.005-2.6233,2.005h-3.3732l-.5943-2.2484h3.461c.7046,0,.7485-.0877.7485-.5504v-11.4399h-5.3556v-2.3587h5.3556v-4.0779h2.3813Z"/>
    <path class="cls-3" d="M110.2087,121.7335h2.271v2.0276h8.6185v2.1819h-16.3555v7.4285c0,.5518-.0665,2.4903-.573,4.6736-.4854,2.1153-1.3442,3.3944-1.8961,4.1882l-1.7856-1.7644c.5957-.8589,1.9837-2.8865,1.9837-6.9432v-9.7646h7.737v-2.0276ZM108.4018,132.688c-.5066,4.9382-1.5649,6.8328-2.2257,7.8035l-1.8083-1.1461c.6395-1.1023,1.4772-2.646,2.0064-7.0535l2.0276.3961ZM110.6063,126.2741c1.3668.6834,3.2841,1.8521,4.9594,3.3067l-1.5437,1.8295c-1.7404-1.6753-3.3718-2.6233-4.8929-3.3506l1.4772-1.7856ZM109.4375,131.1019h2.1819v8.2647c0,.508.2646.508.6834.508h1.9187c.5278,0,.6381-.1981.7046-.4853.0878-.3962.1769-1.698.2873-3.2841l2.2922.44c-.4188,4.0779-.5731,5.4447-2.6898,5.4447h-3.5487c-.6396,0-1.8296-.1981-1.8296-1.5861v-9.3019ZM118.8724,131.3665c.484,1.0796,2.0928,4.6056,2.6672,8.5081l-2.3813.6169c-.3524-2.6898-1.3004-5.8197-2.5795-8.3326l2.2936-.7924Z"/>
  </g>
</svg>