<?xml version="1.0" encoding="UTF-8"?>
<svg id="_デザイン" data-name="デザイン" xmlns="http://www.w3.org/2000/svg" viewBox="0 0 200.0507 200.0555">
  <defs>
    <style>
      .cls-1 {
        fill: #231815;
      }

      .cls-2 {
        fill: #fff;
      }

      .cls-3 {
        fill: #e74d0c;
      }
    </style>
  </defs>
  <g>
    <path class="cls-3" d="M29.0472,29.5489c-38.9253,39.1999-38.7002,102.5311.5038,141.4613,39.1899,38.9232,102.5289,38.6982,141.4542-.5071,38.9239-39.1992,38.696-102.5283-.5009-141.4543-39.197-38.9268-102.5303-38.7017-141.4571.5001Z"/>
    <path class="cls-2" d="M100.0201,189.9054c-48.8484,0-88.6737-39.6527-88.8463-88.5428h0c-.1712-48.9828,39.5479-88.9835,88.5392-89.1682h.3028c48.8583,0,88.6892,39.6548,88.8605,88.5435.1726,48.9885-39.5451,88.9892-88.5393,89.1675h-.3169ZM18.492,101.3371c.1598,44.8604,36.7081,81.2494,81.5281,81.2494.099,0,.1924,0,.2915-.0007,44.9572-.1634,81.405-36.8687,81.2465-81.8224-.1585-44.859-36.7123-81.2501-81.5408-81.2501-.0934,0-.184,0-.2774.0007-44.953.1684-81.3993,36.8779-81.2479,81.8231h0Z"/>
  </g>
  <g>
    <g>
      <path class="cls-2" d="M80.8699,49.7021h6.1211c.3084-.7266.5065-1.277.8603-2.532l2.5101.1761c-.0651.1762-.5518,1.6513-.9254,2.3559h8.0822v18.277h-2.312v-1.299h-12.0243v1.299h-2.312v-18.277ZM95.2062,51.8387h-12.0243v2.6198h12.0243v-2.6198ZM95.2062,56.5505h-12.0243v2.9289h12.0243v-2.9289ZM83.1819,61.5495v2.9948h12.0243v-2.9948h-12.0243Z"/>
      <path class="cls-2" d="M97.5182,69.5192h-2.312c-.7683,0-1.4051-.5631-1.5211-1.2989h-8.9821c-.116.7358-.7527,1.2989-1.5211,1.2989h-2.312c-.8504,0-1.5409-.6898-1.5409-1.5401v-18.277c0-.8504.6905-1.5402,1.5409-1.5402h5.0684c.1245-.3601.2561-.7916.4301-1.41.1981-.7032.866-1.1694,1.5904-1.1185l2.5101.1762c.484.0339.924.2936,1.1858.7011.2631.4075.3197.9148.1514,1.3697-.0326.0934-.0651.1874-.0977.2815h5.8098c.8504,0,1.5409.6898,1.5409,1.5402v18.277c0,.8503-.6905,1.5401-1.5409,1.5401Z"/>
    </g>
    <g>
      <path class="cls-2" d="M109.101,68.001h-2.2667v-8.4996c-1.3216,1.2331-1.9838,1.6293-2.6658,2.0481l-.9678-2.2462c2.8186-1.652,4.9749-4.0298,5.9881-6.4303h-5.6797v-2.1578h3.3252v-3.4348h2.2667v3.4348h2.5781v2.1578c-.3764.837-.883,1.9378-2.2243,3.7213,1.1234,1.2777,1.6498,1.652,3.0817,2.709l-1.0555,2.092c-1.0358-.837-1.63-1.4312-2.38-2.3121v8.9178ZM116.6116,47.2804h2.312v6.2315h4.7118v2.3559h-4.7118v9.0507h5.2184v2.3559h-13.0798v-2.3559h5.5494v-9.0507h-4.6043v-2.3559h4.6043v-6.2315Z"/>
      <path class="cls-2" d="M109.101,69.5412h-2.2667c-.8504,0-1.5409-.6898-1.5409-1.5402v-5.3358c-.0906.0566-.1811.1125-.2703.167-.3792.2341-.8645.3077-1.2961.1705-.4259-.1345-.7966-.433-.9734-.8441l-.9679-2.2462c-.307-.7138-.0339-1.5451.6368-1.9378,1.6187-.9494,3.0421-2.203,4.0807-3.5614h-2.9941c-.8503,0-1.5394-.6898-1.5394-1.5402v-2.1578c0-.8504.6891-1.5402,1.5394-1.5402h1.7843v-1.8946c0-.8504.6905-1.5402,1.5409-1.5402h2.2667c.8504,0,1.5395.6898,1.5395,1.5402v1.8946h1.0386c.8504,0,1.5409.6898,1.5409,1.5402v1.2565h1.8521v-4.6913c0-.8504.6891-1.5402,1.5395-1.5402h2.312c.8504,0,1.5409.6898,1.5409,1.5402v4.6913h3.1709c.8504,0,1.5395.6898,1.5395,1.5402v2.3559c0,.8504-.6891,1.5401-1.5395,1.5401h-3.1709v5.9704h3.6775c.8504,0,1.5394.6898,1.5394,1.5402v2.3559c0,.8504-.689,1.5402-1.5394,1.5402h-13.0798c-.208,0-.4061-.0411-.5873-.116-.2546.5001-.7739.8426-1.3739.8426ZM110.6405,62.6864v.7499c.1344-.0374.2759-.058.4217-.058h4.0099v-5.9704h-2.5044c.2193.1663.4655.3481.7541.5611l.1288.0948c.6042.4464.7994,1.2628.4613,1.9335l-1.0556,2.092c-.2094.4153-.5957.7139-1.0513.8115-.4089.0863-.8221.0078-1.1645-.2144ZM107.3734,58.0588c.0254.0092.0495.0191.075.0297.1216.0531.2334.1203.3339.1988.1443-.2391.3537-.4386.6084-.5709-.0297-.0347-.0608-.0693-.092-.1047-.082-.0927-.1499-.1917-.2051-.2964-.2307.2532-.4712.5016-.7202.7435ZM117.6035,54.6898c.0594.0495.1132.1026.1641.1599.0509-.0573.1047-.1104.1641-.1599-.0594-.0495-.1132-.1026-.1641-.1599-.0509.0573-.1047.1104-.1641.1599Z"/>
    </g>
    <g>
      <path class="cls-2" d="M53.2755,76.1617v3.7871h8.368v11.4286h-2.3346v-1.2331h-6.0334v6.6722h-2.312v-6.6722h-5.8777v1.2331h-2.2923v-11.4286h8.17v-3.7871h2.312ZM45.0858,82.2389v5.6153h5.8777v-5.6153h-5.8777ZM53.2755,82.2389v5.6153h6.0334v-5.6153h-6.0334Z"/>
      <path class="cls-2" d="M53.2755,98.3567h-2.312c-.8504,0-1.5409-.6898-1.5409-1.5402v-5.132h-2.8271c-.1429.7032-.7641,1.2331-1.5097,1.2331h-2.2923c-.8503,0-1.5394-.6898-1.5394-1.5402v-11.4286c0-.8503.6891-1.5401,1.5394-1.5401h6.6291v-2.247c0-.8504.6905-1.5402,1.5409-1.5402h2.312c.8504,0,1.5395.6898,1.5395,1.5402v2.247h6.8285c.8504,0,1.5395.6898,1.5395,1.5401v11.4286c0,.8504-.6891,1.5402-1.5395,1.5402h-2.3346c-.7457,0-1.3669-.5299-1.5098-1.2331h-2.9841v5.132c0,.8504-.6891,1.5402-1.5395,1.5402ZM51.9936,88.9996c.0438.0396.0863.0821.1259.1266.0396-.0445.0821-.087.1259-.1266-.0438-.0403-.0863-.0828-.1259-.1274-.0396.0446-.0821.0871-.1259.1274ZM54.815,86.314h2.953v-2.5349h-2.953v2.5349ZM46.6266,86.314h2.796v-2.5349h-2.796v2.5349ZM51.9936,81.0935c.0438.0404.0863.0828.1259.1274.0396-.0446.0821-.087.1259-.1274-.0438-.0396-.0863-.082-.1259-.1266-.0396.0446-.0821.087-.1259.1266Z"/>
    </g>
    <g>
      <path class="cls-2" d="M67.2835,77.0425h8.3652v8.0377h-6.1861v11.7144h-2.1791v-19.7521ZM69.4626,78.848v1.4532h4.0524v-1.4532h-4.0524ZM69.4626,81.7989v1.4531h4.0524v-1.4531h-4.0524ZM81.883,86.3352v8.1693h-10.2188v-8.1693h10.2188ZM73.7357,88.1188v1.5189h6.0532v-1.5189h-6.0532ZM73.7357,91.1135v1.5855h6.0532v-1.5855h-6.0532ZM84.1271,85.0802h-6.5172v-8.0377h8.7189v17.682c0,.6169,0,2.0701-1.4744,2.0701h-3.3676l-.3537-2.2017h2.4875c.266,0,.5065-.0884.5065-.5292v-8.9835ZM79.7464,78.848v1.4532h4.3807v-1.4532h-4.3807ZM79.7464,81.7989v1.4531h4.3807v-1.4531h-4.3807Z"/>
      <path class="cls-2" d="M84.8544,98.3347h-3.3676c-.757,0-1.4008-.549-1.5211-1.2961l-.1598-.994h-8.1417c-.2363,0-.4613-.053-.6608-.1485v.8985c0,.8503-.6905,1.5401-1.5408,1.5401h-2.1791c-.8504,0-1.5409-.6898-1.5409-1.5401v-19.7521c0-.8504.6905-1.5401,1.5409-1.5401h8.3652c.3722,0,.7146.1323.9806.3523.266-.22.6084-.3523.9806-.3523h8.7189c.8504,0,1.5409.6897,1.5409,1.5401v17.682c0,3.3499-2.3078,3.6102-3.0153,3.6102Z"/>
    </g>
    <g>
      <path class="cls-2" d="M90.6246,86.9076c1.6725-2.3121,2.6403-4.6241,2.8186-10.702h2.0686c-.0226.7266-.0226,1.4093-.1103,2.4224h4.7344c-.0425,3.7213-.5066,8.4119-2.5328,12.3094,2.5554,3.0386,6.3418,3.1489,7.0691,3.1489h7.3776l-.3736,2.2901h-6.9361c-2.7761,0-5.9682-.9692-8.3255-3.5678-1.432,1.9824-2.9488,3.1936-3.9845,3.986l-1.3669-2.0263c.6169-.4181,2.4224-1.5847,3.9421-3.8974-.5292-.9247-1.1886-2.2236-1.6301-3.9195-.5065,1.0351-.747,1.3874-1.1008,1.9159l-1.6498-1.9597ZM95.1609,80.7858c-.2207,1.5196-.5065,2.5766-.5745,2.7747.3764,2.1797.883,3.7213,1.6074,5.2184.7273-1.6294,1.565-4.1614,1.698-7.9931h-2.7309ZM108.8124,76.7999v12.7501c0,.3743,0,.5943.3311.5943h.4613c.198,0,.3084-.22.331-.3743.0425-.2419.0425-.6162.1529-3.0824l2.0035.3742c-.0198.8589-.1754,4.1175-.7046,4.6679-.5066.5285-1.1207.5504-1.2989.5504h-2.0036c-.7273,0-1.4517-.7046-1.4517-1.5628v-11.737h-2.9743v4.206c0,.7704-.0877,2.5985-.5716,4.7125-.5519,2.4662-1.6725,3.809-2.1592,4.3813l-1.8055-1.5628c1.1235-1.1673,2.3997-2.907,2.3997-7.7511v-6.1663h7.2899Z"/>
      <path class="cls-2" d="M92.4301,98.3347c-.0821,0-.1656-.0063-.2491-.0205-.4188-.0679-.7909-.3063-1.0272-.6586l-1.3669-2.0263c-.4754-.7039-.2914-1.6597.4118-2.1358.6254-.4217,1.8408-1.2416,2.994-2.733-.0835-.1641-.1684-.3375-.2547-.5207-.1768.0842-.3693.1351-.566.1464-.5164.0227-.9635-.1577-1.2762-.527l-1.6499-1.9597c-.4542-.5406-.4839-1.3216-.0693-1.8947,1.3216-1.8274,2.3474-3.7121,2.5271-9.8445.0241-.8327.7061-1.4949,1.5395-1.4949h2.0686c.4174,0,.8165.1691,1.1065.4684.2901.2992.4457.7032.433,1.1199l-.0127.4528c-.0029.1252-.0057.2518-.0099.3813h2.953v-.2879c0-.8504.6905-1.5402,1.5408-1.5402h7.2899c.8504,0,1.5409.6898,1.5409,1.5402v8.3701c.0056.0014.0113.0021.0184.0036l2.0035.3742c.7415.1387,1.2749.7945,1.2565,1.5494-.092,4.0199-.6877,5.1568-1.0089,5.5593.2293.092.4358.2392.6.4323.2929.3445.4202.7994.3466,1.2452l-.3735,2.2901c-.1217.7456-.7641,1.2925-1.5197,1.2925h-6.9361c-3.0393,0-5.9286-1.0188-8.1656-2.8405-1.2961,1.4786-2.5356,2.4273-3.2092,2.9417-.2702.2073-.5999.3169-.9352.3169ZM102.8427,92.324c.8773.2009,1.5734.2222,1.8295.2222h1.0145c-.3721-.5172-.5928-1.1518-.5928-1.8289v-5.5812c-.0849.8617-.2363,1.9335-.5052,3.1065-.423,1.8939-1.1531,3.2254-1.746,4.0814ZM108.4119,89.5436v.0029-.0029ZM93.3653,85.3094c-.0169.0347-.0325.0686-.0481.1026.0227-.0007.0481-.0007.0708-.0007-.0071-.034-.0156-.0672-.0227-.1019Z"/>
    </g>
    <g>
      <path class="cls-2" d="M115.4627,92.9848c.6169-.1762.7725-.22,2.7534-.8582v-6.0121h-2.2243v-2.2236h2.2243v-4.5144h-2.4223v-2.2017h7.0917v2.2017h-2.3998v4.5144h2.0234v2.2236h-2.0234v5.219c.7471-.2638,1.364-.5065,2.3998-.9246v2.1578c-1.8055.8369-4.8674,2.0035-7.0917,2.554l-.3311-2.1359ZM123.6326,76.7779h12.245v10.5478h-5.0429v2.2024h5.2636v2.0474h-5.2636v2.5108h5.5919v2.114h-14.2033v-2.114h6.4522v-2.5108h-5.1731v-2.0474h5.1731v-2.2024h-5.0429v-10.5478ZM125.7465,78.7822v2.334h2.929v-2.334h-2.929ZM125.7465,82.9217v2.4443h2.929v-2.4443h-2.929ZM130.8347,78.7822v2.334h2.9289v-2.334h-2.9289ZM130.8347,82.9217v2.4443h2.9289v-2.4443h-2.9289Z"/>
      <path class="cls-2" d="M136.4266,97.7405h-14.2033c-.8504,0-1.5409-.6898-1.5409-1.5402v-1.0478c-1.5112.5759-3.1567,1.1263-4.5193,1.4631-.4203.1068-.8618.0261-1.2226-.213-.3594-.2391-.6027-.619-.6692-1.0463l-.3311-2.1359c-.1189-.7669.3523-1.5034,1.0994-1.7164l.0141-.0042c.4599-.1316.6622-.1896,1.623-.4959v-3.3492h-.6849c-.8503,0-1.5408-.6898-1.5408-1.5402v-2.2236c0-.8504.6905-1.5402,1.5408-1.5402h.6849v-1.434h-.8829c-.8504,0-1.5409-.6898-1.5409-1.5402v-2.2017c0-.8504.6905-1.5401,1.5409-1.5401h6.8073c.2731-.247.6339-.3969,1.0315-.3969h12.245c.8504,0,1.5409.6897,1.5409,1.5401v10.5478c0,.3792-.1373.7259-.3651.994.3566.2823.5844.7188.5844,1.2084v2.0474c0,.4528-.1939.8596-.5052,1.1412.4953.2561.8335.7732.8335,1.3696v2.114c0,.8504-.6891,1.5402-1.5395,1.5402ZM122.0252,87.6547v1.4333c.0849-.2844.2504-.5348.4698-.7244-.1797-.1967-.3085-.4394-.3679-.7089h-.1019ZM119.2816,85.0023c.0241.0234.0467.0467.0693.0708.0227-.0241.0453-.0474.0694-.0708-.0241-.0226-.0467-.0459-.0694-.07-.0226.0241-.0452.0474-.0693.07ZM122.0252,82.3507h.0679l-.0679-1.434v1.434Z"/>
    </g>
    <g>
      <path class="cls-2" d="M149.7498,89.7481c-1.6725,1.4312-2.8837,1.9158-3.6789,2.2462l-.5264-.7711c-2.7987,1.2112-4.1401,1.63-5.1759,1.9378l-.2207-2.3998c.5066-.1104,2.0262-.5504,2.38-.6608v-7.2665h-2.1593v-2.1804h2.1593v-4.4698h2.2243v4.4698h1.6498v2.1804h-1.6498v6.5619c.9904-.3085,1.1206-.3524,1.6724-.5724l.0878.9905c2.0686-1.0124,2.9289-2.0694,3.6109-3.0167h-3.7213v-1.7397h14.7976v1.7397h-8.8944c-.2887.4627-.4415.7266-.815,1.2112h9.0924c0,.2427-.0877,6.1437-.7046,7.4872-.5716,1.2551-1.4319,1.2551-2.1139,1.2551h-2.9714l-.4641-2.1578h2.8865c.6593,0,.7272-.2865.8348-.8589.1783-.9027.2886-3.4794.3084-3.9859h-1.0555c-1.8281,4.0298-4.6241,5.9895-7.0238,7.1568l-1.3442-1.7616c2.9516-1.2331,4.5787-2.5108,6.3191-5.3952h-1.5621c-2.4224,3.3251-5.2862,4.646-7.6209,5.4829l-1.0782-1.6074c1.2989-.3961,4.0072-1.255,6.5173-3.8755h-1.7602ZM147.4802,76.8444h12.2874v7.1562h-12.2874v-7.1562ZM149.5517,78.4957v1.277h8.102v-1.277h-8.102ZM149.5517,81.182v1.2996h8.102v-1.2996h-8.102Z"/>
      <path class="cls-2" d="M150.2804,98.4451c-.4684,0-.9268-.2137-1.2254-.6056l-1.2437-1.6293c-.4203.1754-.8292.3304-1.2211.4705-.658.2384-1.4022-.0043-1.7984-.5915l-1.0782-1.6074c-.15-.2235-.2363-.4782-.2561-.7386-1.1433.4351-1.9357.682-2.6502.8943-.4443.1294-.9183.058-1.3018-.201-.382-.2589-.6282-.6749-.6707-1.1348l-.2207-2.3997c-.0707-.774.4457-1.4801,1.2055-1.6456.2179-.0474.699-.179,1.1674-.3113v-4.571h-.6184c-.8503,0-1.5394-.6898-1.5394-1.5402v-2.1804c0-.8504.6891-1.5402,1.5394-1.5402h.6184v-2.9296c0-.8504.6905-1.5402,1.5409-1.5402h2.2243c.7527,0,1.3795.5398,1.514,1.2536.2815-.3608.7202-.5928,1.214-.5928h12.2874c.8504,0,1.5409.6897,1.5409,1.5401v6.6765c.7995.0559,1.432.7223,1.432,1.5366v1.7397c0,.5044-.2434.9523-.6184,1.2331-.0014.4111-.0594,6.3992-.8447,8.1077-.9806,2.1529-2.7549,2.1529-3.5133,2.1529h-2.9714c-.7259,0-1.3527-.5066-1.5055-1.2162l-.0269-.1217c-.7146.491-1.4829.936-2.3078,1.3372-.2151.1047-.4457.1549-.6721.1549ZM143.616,81.7437c.0084.0085.0155.0163.024.0248.0085-.0085.0156-.0163.0241-.0248-.0085-.0085-.0156-.0163-.0241-.0248-.0085.0085-.0156.0163-.024.0248Z"/>
    </g>
  </g>
  <g>
    <path class="cls-1" d="M80.8699,49.7021h6.1211c.3084-.7266.5065-1.277.8603-2.532l2.5101.1761c-.0651.1762-.5518,1.6513-.9254,2.3559h8.0822v18.277h-2.312v-1.299h-12.0243v1.299h-2.312v-18.277ZM95.2062,51.8387h-12.0243v2.6198h12.0243v-2.6198ZM95.2062,56.5505h-12.0243v2.9289h12.0243v-2.9289ZM83.1819,61.5495v2.9948h12.0243v-2.9948h-12.0243Z"/>
    <path class="cls-1" d="M109.101,68.001h-2.2667v-8.4996c-1.3216,1.2331-1.9838,1.6293-2.6658,2.0481l-.9678-2.2462c2.8186-1.652,4.9749-4.0298,5.9881-6.4303h-5.6797v-2.1578h3.3252v-3.4348h2.2667v3.4348h2.5781v2.1578c-.3764.837-.883,1.9378-2.2243,3.7213,1.1234,1.2777,1.6498,1.652,3.0817,2.709l-1.0555,2.092c-1.0358-.837-1.63-1.4312-2.38-2.3121v8.9178ZM116.6116,47.2804h2.312v6.2315h4.7118v2.3559h-4.7118v9.0507h5.2184v2.3559h-13.0798v-2.3559h5.5494v-9.0507h-4.6043v-2.3559h4.6043v-6.2315Z"/>
    <path class="cls-1" d="M53.2755,76.1617v3.7871h8.368v11.4286h-2.3346v-1.2331h-6.0334v6.6722h-2.312v-6.6722h-5.8777v1.2331h-2.2923v-11.4286h8.17v-3.7871h2.312ZM45.0858,82.2389v5.6153h5.8777v-5.6153h-5.8777ZM53.2755,82.2389v5.6153h6.0334v-5.6153h-6.0334Z"/>
    <path class="cls-1" d="M67.2835,77.0425h8.3652v8.0377h-6.1861v11.7144h-2.1791v-19.7521ZM69.4626,78.848v1.4532h4.0524v-1.4532h-4.0524ZM69.4626,81.7989v1.4531h4.0524v-1.4531h-4.0524ZM81.883,86.3352v8.1693h-10.2188v-8.1693h10.2188ZM73.7357,88.1188v1.5189h6.0532v-1.5189h-6.0532ZM73.7357,91.1135v1.5855h6.0532v-1.5855h-6.0532ZM84.1271,85.0802h-6.5172v-8.0377h8.7189v17.682c0,.6169,0,2.0701-1.4744,2.0701h-3.3676l-.3537-2.2017h2.4875c.266,0,.5065-.0884.5065-.5292v-8.9835ZM79.7464,78.848v1.4532h4.3807v-1.4532h-4.3807ZM79.7464,81.7989v1.4531h4.3807v-1.4531h-4.3807Z"/>
    <path class="cls-1" d="M90.6246,86.9076c1.6725-2.3121,2.6403-4.6241,2.8186-10.702h2.0686c-.0226.7266-.0226,1.4093-.1103,2.4224h4.7344c-.0425,3.7213-.5066,8.4119-2.5328,12.3094,2.5554,3.0386,6.3418,3.1489,7.0691,3.1489h7.3776l-.3736,2.2901h-6.9361c-2.7761,0-5.9682-.9692-8.3255-3.5678-1.432,1.9824-2.9488,3.1936-3.9845,3.986l-1.3669-2.0263c.6169-.4181,2.4224-1.5847,3.9421-3.8974-.5292-.9247-1.1886-2.2236-1.6301-3.9195-.5065,1.0351-.747,1.3874-1.1008,1.9159l-1.6498-1.9597ZM95.1609,80.7858c-.2207,1.5196-.5065,2.5766-.5745,2.7747.3764,2.1797.883,3.7213,1.6074,5.2184.7273-1.6294,1.565-4.1614,1.698-7.9931h-2.7309ZM108.8124,76.7999v12.7501c0,.3743,0,.5943.3311.5943h.4613c.198,0,.3084-.22.331-.3743.0425-.2419.0425-.6162.1529-3.0824l2.0035.3742c-.0198.8589-.1754,4.1175-.7046,4.6679-.5066.5285-1.1207.5504-1.2989.5504h-2.0036c-.7273,0-1.4517-.7046-1.4517-1.5628v-11.737h-2.9743v4.206c0,.7704-.0877,2.5985-.5716,4.7125-.5519,2.4662-1.6725,3.809-2.1592,4.3813l-1.8055-1.5628c1.1235-1.1673,2.3997-2.907,2.3997-7.7511v-6.1663h7.2899Z"/>
    <path class="cls-1" d="M115.4627,92.9848c.6169-.1762.7725-.22,2.7534-.8582v-6.0121h-2.2243v-2.2236h2.2243v-4.5144h-2.4223v-2.2017h7.0917v2.2017h-2.3998v4.5144h2.0234v2.2236h-2.0234v5.219c.7471-.2638,1.364-.5065,2.3998-.9246v2.1578c-1.8055.8369-4.8674,2.0035-7.0917,2.554l-.3311-2.1359ZM123.6326,76.7779h12.245v10.5478h-5.0429v2.2024h5.2636v2.0474h-5.2636v2.5108h5.5919v2.114h-14.2033v-2.114h6.4522v-2.5108h-5.1731v-2.0474h5.1731v-2.2024h-5.0429v-10.5478ZM125.7465,78.7822v2.334h2.929v-2.334h-2.929ZM125.7465,82.9217v2.4443h2.929v-2.4443h-2.929ZM130.8347,78.7822v2.334h2.9289v-2.334h-2.9289ZM130.8347,82.9217v2.4443h2.9289v-2.4443h-2.9289Z"/>
    <path class="cls-1" d="M149.7498,89.7481c-1.6725,1.4312-2.8837,1.9158-3.6789,2.2462l-.5264-.7711c-2.7987,1.2112-4.1401,1.63-5.1759,1.9378l-.2207-2.3998c.5066-.1104,2.0262-.5504,2.38-.6608v-7.2665h-2.1593v-2.1804h2.1593v-4.4698h2.2243v4.4698h1.6498v2.1804h-1.6498v6.5619c.9904-.3085,1.1206-.3524,1.6724-.5724l.0878.9905c2.0686-1.0124,2.9289-2.0694,3.6109-3.0167h-3.7213v-1.7397h14.7976v1.7397h-8.8944c-.2887.4627-.4415.7266-.815,1.2112h9.0924c0,.2427-.0877,6.1437-.7046,7.4872-.5716,1.2551-1.4319,1.2551-2.1139,1.2551h-2.9714l-.4641-2.1578h2.8865c.6593,0,.7272-.2865.8348-.8589.1783-.9027.2886-3.4794.3084-3.9859h-1.0555c-1.8281,4.0298-4.6241,5.9895-7.0238,7.1568l-1.3442-1.7616c2.9516-1.2331,4.5787-2.5108,6.3191-5.3952h-1.5621c-2.4224,3.3251-5.2862,4.646-7.6209,5.4829l-1.0782-1.6074c1.2989-.3961,4.0072-1.255,6.5173-3.8755h-1.7602ZM147.4802,76.8444h12.2874v7.1562h-12.2874v-7.1562ZM149.5517,78.4957v1.277h8.102v-1.277h-8.102ZM149.5517,81.182v1.2996h8.102v-1.2996h-8.102Z"/>
  </g>
  <g>
    <rect class="cls-3" x="29.752" y="107.5871" width="138.2782" height="26.7766" rx="3.606" ry="3.606"/>
    <path class="cls-2" d="M162.8058,135.2189H34.9761c-3.352,0-6.0786-2.7273-6.0786-6.0801v-16.3271c0-3.3527,2.7266-6.0801,6.0786-6.0801h127.8297c3.352,0,6.0786,2.7274,6.0786,6.0801v16.3271c0,3.3528-2.7266,6.0801-6.0786,6.0801ZM34.9761,108.4423c-2.4096,0-4.3693,1.9597-4.3693,4.3694v16.3271c0,2.4097,1.9597,4.3694,4.3693,4.3694h127.8297c2.4096,0,4.3693-1.9597,4.3693-4.3694v-16.3271c0-2.4097-1.9597-4.3694-4.3693-4.3694H34.9761Z"/>
  </g>
  <g>
    <path class="cls-2" d="M39.392,113.445l2.6403,13.1117,2.6205-13.1117h3.1638l2.6205,13.1117,2.6403-13.1117h2.4068l-3.4539,15.2617h-3.1836l-2.6021-13.0339-2.6389,13.0339h-3.1652l-3.4737-15.2617h2.4252Z"/>
    <path class="cls-2" d="M68.7579,113.445v2.092h-8.1911v4.6092h7.8034v2.0722h-7.8034v6.4883h-2.3107v-15.2617h10.5018Z"/>
    <path class="cls-2" d="M75.7817,121.9673v2.0913h-5.2608v-2.0913h5.2608Z"/>
    <path class="cls-2" d="M92.5914,128.7067h-2.6205l-1.398-3.7185h-6.9686l-1.398,3.7185h-2.6205l5.9598-15.2617h3.0662l5.9796,15.2617ZM82.3032,122.974h5.5707l-2.7959-7.3981-2.7748,7.3981Z"/>
    <path class="cls-2" d="M97.7305,126.1117v2.595h-2.5045v-2.595h2.5045Z"/>
    <path class="cls-2" d="M109.4548,113.445c3.1836,0,3.8628,2.2661,3.8628,3.9902,0,1.3364-.3877,2.7308-2.0192,3.3117,1.4957.445,2.5229,1.1425,2.5229,3.6795,0,2.5569-.7174,4.2803-4.2505,4.2803h-8.1912v-15.2617h8.0752ZM103.611,115.479v4.4352h4.9891c2.155,0,2.4083-.9877,2.4083-2.4019,0-1.6265-.7584-2.0333-2.3304-2.0333h-5.067ZM103.611,121.8894v4.784h5.5721c1.4178,0,2.3488-.3488,2.3488-2.4019,0-2.3821-1.5918-2.3821-2.6205-2.3821h-5.3004Z"/>
    <path class="cls-2" d="M131.0752,128.7067h-2.6205l-1.3965-3.7185h-6.9687l-1.3979,3.7185h-2.6205l5.9598-15.2617h3.0676l5.9767,15.2617ZM120.7885,122.974h5.5707l-2.7945-7.3981-2.7762,7.3981Z"/>
    <path class="cls-2" d="M143.2636,118.132c0-1.9752-.5065-2.8468-3.7666-2.8468-2.1167,0-3.6689.2327-3.6689,2.4789,0,1.3754.7768,1.8013,1.9795,1.9173l4.3099.4457c1.5918.1741,4.0765.6198,4.0765,4.2024,0,4.3383-3.6888,4.5321-6.2895,4.5321-4.9693,0-6.3871-1.3944-6.4635-5.2289h2.3092c0,2.1882.4274,3.1567,4.194,3.1567,2.8921,0,3.959-.5228,3.959-2.4599,0-1.7814-1.0103-2.1111-2.097-2.2271l-4.8334-.5037c-2.9686-.3099-3.3577-2.634-3.3577-3.9895,0-4.3184,4.0184-4.3184,5.7461-4.3184,5.7645,0,6.1338,2.1691,6.1918,4.8412h-2.2894Z"/>
    <path class="cls-2" d="M160.6916,113.445v2.092h-8.9496v4.3574h8.5039v2.034h-8.5039v4.687h9.0854v2.0913h-11.3748v-15.2617h11.239Z"/>
  </g>
</svg>