<?xml version="1.0" encoding="UTF-8"?>
<svg id="_デザイン" data-name="デザイン" xmlns="http://www.w3.org/2000/svg" width="130" height="48.577" version="1.1" viewBox="0 0 130 48.577">
  <!-- Generator: Adobe Illustrator 30.2.1, SVG Export Plug-In . SVG Version: 2.1.1 Build 1)  -->
  <path d="M129.397.952c-.143-.067-.293-.104-.45-.104-.168,0-.296.042-.368.063-.021.008-.054.02-.108.031-.309.071-.622.134-.942.188.03-.554-.339-.894-.597-1.012-.143-.067-.296-.102-.453-.102-.17,0-.296.036-.367.061-.023.008-.055.019-.108.031-2.589.597-5.415.597-9.689.597h-23.216c-3.634,0-6.787.649-9.374,1.929-.892.443-1.716.957-2.471,1.549.519-.839.687-1.549.718-1.694.036-.159.09-.551-.088-.937-.207-.445-.671-.716-1.24-.716-.041.003-.079.003-.109.003h-1.073c-.015-.039-.026-.08-.047-.124-.208-.445-.671-.715-1.239-.715-.042,0-.079,0-.109.004h-5.579c-1.165,0-2.226.283-3.159.835h-1.108c-.016-.039-.028-.08-.049-.124-.205-.448-.671-.715-1.239-.715-.043,0-.079,0-.107.004h-5.583c-2.482,0-4.488,1.278-5.801,3.694-.418.768-.715,1.566-.926,2.312-.126-2.528-2.066-4.538-4.444-4.579-.723-.525-1.599-.837-2.541-.834-2.491-.003-4.52,2.165-4.52,4.832,0,1.976,1.138,3.629,2.728,4.381.567.262,1.143.422,1.715.392,1.246,1.111,4.912,1.647,6.6-1.894v21.346c0-.176-.355-.139-.355-.139,0,0-.016-8.891-.016-11.61s-.494-3.213-1.317-3.954c-.823-.74-1.516-1.189-2.344-1.622-.374-.232-.799-.269-1.328-.106-.498-.507-1.791-1.988-4.56.173l-.004.006c-.394.306-.82.689-1.278,1.158-.028-.024-.051-.051-.078-.072-.161-.139-.311-.277-.463-.409-1.376-1.234-2.464-2.206-3.725-2.206-.113,0-.224.01-.333.031-.717-.531-1.396-.865-2.137-.865-.67,0-1.294.283-1.849.839-1.383,1.382-2.654,3.125-2.71,3.197-.124.175-.191.381-.191.597-.001.188.053.865.767,1.58.641.639,2.737,3.481,2.786,4.397.058,1.045-.528,2.471-.842,3.239-.041.1-.082.195-.114.28-.007.023-.023.049-.036.08l-4.344-8.794c0-.009-.005-.009-.006-.015-.159-.306-1.61-2.994-3.898-2.994-.098,0-.191.008-.288.015-.597-.48-1.33-.851-2.179-.851-2.221,0-4.022,3.063-4.359,3.681-.141.257-.163.566-.061.839.058.144.355.89.923,1.359.145.164.519.792.878,1.472l-1.813,4.043c-1.516-2.874-3.239-6.144-3.66-6.943-.479-.911-1.265-1.815-2.164-2.484-.974-.724-2.01-1.138-3.017-1.203-.904-.555-1.848-.849-2.755-.849-2.079,0-2.755.654-3.871,1.735-.141.134-.29.277-.455.436-1.342,1.265-2.271,2.39-2.437,2.598-.391.43-.606,1.185-.185,1.892l.028.041c.2.34.579.967,1.396.967h.001c.287,0,.579-.082.887-.261.027-.013.055-.031.085-.047.02.043.046.088.072.134l.027.041c.2.34.578.968,1.395.968.29.002.581-.082.888-.261.077-.043.168-.097.273-.162.127-.071.358-.21.612-.348.675,1.527,6.749,14.234,7.221,15.227.095.237.353.721,1.001,1.256l.163.129c.459.384.856.711,1.413.711.266,0,.491-.073.683-.19.065.062.134.124.212.18l.158.138c.46.377.857.706,1.415.706.871,0,1.3-.793,1.529-1.223.349-.646,3.04-5.692,4.97-9.311l4.347,8.748c.416.915.836,1.524,1.543,1.524.378.003.726-.206,1.022-.489.385.803.794,1.325,1.445,1.325,1.153-.003,2.018-1.924,2.026-1.941.24-.538,5.028-9.656,8.187-15.654.007-.013.013-.031.021-.043.027-.061.269-.585.485-1.343.107.051.219.103.338.134v11.714c0,2.682.84,3.569,1.413,3.863,1.374,1.197,2.407,1.805,3.07,1.802.175-.002.355-.02.538-.054.819.592,1.465.891,1.929.891,1.163,0,2.469-.775,3.987-2.366.165.173.327.286.474.36,1.374,1.197,2.407,1.804,3.068,1.803.178,0,.356-.018.537-.054.819.589,1.467.891,1.933.891,1.239-.004,2.648-.884,4.297-2.703.166-.181.374-.443.6-.752.259.45.555.69.808.815,1.374,1.197,2.407,1.804,3.07,1.803.175.002.355-.018.536-.054.82.591,1.466.891,1.93.891,1.241,0,2.647-.884,4.297-2.698.285-.314.689-.862,1.103-1.467.188,3.412,1.26,6.533,3.07,8.876,1.767,2.285,4.227,3.823,7.226,4.554,1.953.868,4.213,1.319,6.73,1.319,6.106,0,11.233-2.126,14.821-6.14,3.411-3.821,5.287-9.201,5.449-15.605.551-.104,1.07-.229,1.548-.364l.184.51c.291,1.393,1.018,1.65,1.433,1.686h.085c.406,0,.754-.181,1.032-.524.334,1.106.972,1.329,1.352,1.357.028.002.058.002.085.002.791,0,1.366-.679,1.622-1.92l2.516-11.378c.195-.937-.35-1.6-.989-1.771-.129-.036-.259-.052-.383-.052-.448,0-.815.209-1.06.484-.053-.664-.509-1.133-1.025-1.266-.13-.031-.259-.051-.384-.051-.649,0-1.13.443-1.323.888-1.232,2.734-3.392,4.185-5.564,4.94-.792-2.725-2.113-5.102-3.944-7.085-1.055-1.14-2.251-2.126-3.582-2.96l11.193.005c9.617,0,11.751-5.374,12.179-7.022l.005-.016c.226-.757-.234-1.2-.543-1.341ZM65.327,8.827v19.629c-.1-.085-.209-.161-.338-.229-.162-.085-.346-.129-.536-.129-.212,0-.412.057-.597.146V8.557c.001-.956.782-1.239.998-1.301.224-.03.44-.067.65-.107-.126.692-.175,1.286-.178,1.678ZM80.885,24.5c-1.15,1.276-2.037,2.821-2.592,4.443-.047-.005-.09-.005-.136-.005-.401,0-.765.198-1.04.417-.082-.417-.354-.847-.893-1.126-.162-.084-.347-.131-.535-.131-.21,0-.413.057-.596.144V8.557c0-.944.767-1.234,1.001-1.301,1.241-.161,2.228-.525,3.01-.983-.247.293-.482.602-.704.921-2.533,3.651-2.755,7.636-2.766,8.771-.003.301-.008,1.089.752,1.362.113.041.232.062.354.062.709,0,.991-.603,1.16-.963.038-.083.076-.165.111-.227.04-.077.084-.149.127-.226-.026.35-.032.631-.036.829-.001.296-.006,1.086.753,1.359.115.043.233.062.352.062.709,0,.993-.603,1.162-.966.038-.079.075-.156.11-.223,2.697-5.014,8.255-6.772,11.393-7.371,1.288.008,2.489.137,3.601.39,1.238.576,2.329,1.354,3.265,2.321,1.808,1.88,3.055,4.49,3.714,7.77h-10.777c-5.665-.003-8.993,2.368-10.789,4.356ZM100.481,37.898c-1.72,3.122-4.173,4.775-7.292,4.915-1.114.051-2.162-.026-3.13-.217-.912-.463-1.706-1.071-2.365-1.823-1.536-1.75-2.26-4.252-1.937-6.698.343-2.617,1.309-4.341,3.031-5.43,1.612-1.014,3.943-1.521,7.338-1.583l6.843.026c-.123,4.35-.978,8.067-2.488,10.809Z" fill="#23ab3a"/>
  <g>
    <path d="M126.504,1.032c-.044-.023-.065.008-.276.06-2.667.61-5.521.62-9.915.62-2.842,0-6.001,0-23.216-.005-15.073,0-16.437,11.415-16.459,14.267-.004.314.028.386.082.407.102.033.239-.361.398-.657,2.794-5.192,8.449-7.203,12.187-7.901l.003-.005c9.097.005,13.199,5.849,14.338,13.332h-11.975c-9.397,0-13.029,6.868-13.029,11.604-.003,6.251,3.178,13.979,13.579,13.979,11.836,0,19.259-8.272,19.27-21.596,2.911-.387,5.057-1.54,5.057-1.54l1.112,3.11s.181.924.535.947c.413.031.65-1.125.65-1.125l2.512-11.373s.102-.491-.263-.589c-.37-.098-.521.267-.521.267-2.008,4.469-6.252,5.854-9.413,6.209-1.281-7.481-6.121-11.757-11.628-13.562,4.412,0,10.168.005,15.75.005,8.746,0,10.788-4.643,11.206-6.268.023-.089.061-.17.013-.188ZM93.234,43.822c-8.333.365-11.615-5.623-10.944-10.715.79-6.003,4.736-7.764,11.359-7.887l10.337.036c.005.237.006.474.006.711,0,9.633-3.422,17.531-10.758,17.856Z" fill="#ea5006"/>
    <path d="M78.518,1.446s-.664,3.435-5.085,3.987c0,0-1.816.392-1.814,2.29-.001,1.897-.003,21.083-.003,21.95,0,.873.472,1.978,1.738,1.107l1.773-1.339s.435-.421.633-.318c.484.251.354.632.354.632,0,0-1.971,3.157-2.76,4.026-.792.87-2.292,2.368-3.554,2.368-.649,0-2.528-1.657-2.528-1.657,0,0-.948-.237-.947-3.002V8.827c0-1.972,1.266-7.815,6.163-7.815s5.617.002,5.617.002c0,0,.32-.035.394.127.058.132.021.306.021.306Z" fill="#ea5006"/>
    <path d="M67.274,1.446s-.663,3.435-5.086,3.987c0,0-1.814.392-1.814,2.286s-.004,21.086,0,21.953c-.003.873.472,1.978,1.737,1.107l1.778-1.341s.43-.419.63-.316c.481.251.355.63.355.63,0,0-1.975,3.159-2.764,4.029-.79.868-2.292,2.368-3.555,2.368-.649,0-2.528-1.657-2.528-1.657,0,0-.944-.237-.944-3.002V8.827c0-1.972,1.266-7.817,6.16-7.815h5.618s.323-.033.394.129c.062.127.021.306.021.306Z" fill="#ea5006"/>
    <path d="M50.294,16.879c0-2.764-.946-2.999-.946-2.999,0,0-1.882-1.66-2.528-1.658-1.265-.002-2.766,1.499-3.554,2.371l-1.817,1.733s-.473.396-.08.713c.395.314.711.477.948.077.237-.394,1.423-1.418,1.423-1.418,0,0,1.342-.796,1.342,1.418v13.742c0,2.761.946,3.001.946,3.001,0,0,1.88,1.658,2.528,1.658,1.263,0,2.764-1.498,3.554-2.368l1.814-1.735s.474-.397.08-.716c-.396-.314-.711-.468-.947-.078-.237.397-1.42,1.421-1.42,1.421,0,0-1.344.791-1.344-1.421v-13.741Z" fill="#feef12"/>
    <path d="M51.047,5.429c-.003,2.116-1.575,3.83-3.517,3.83s-3.512-1.714-3.511-3.83c0-2.116,1.572-3.828,3.514-3.828,1.939.002,3.515,1.712,3.515,3.828Z" fill="#feef12"/>
    <path d="M1.174,16.956s-.315.314-.08.711c.239.396.397.711.948.396.555-.316,1.975-1.264,2.687-1.025.711.232,1.657.782,2.053,1.735.395.947,7.263,15.317,7.263,15.317,0,0,.105.376.71.87.87.711,1.028.949,1.58-.078.553-1.027,6.952-13.031,6.952-13.031l6.634,13.345s.425.949.63.949c.205.002.79-.633,1.106-1.341.317-.711,8.213-15.713,8.213-15.713,0,0,1.818-3.872-.237-5.686-2.054-1.818-3.316-3.161-4.661-1.818-1.339,1.342-2.604,3.081-2.604,3.081,0,0,0,.392.474.865.473.474,3,3.636,3.078,5.056.079,1.421-.709,3.159-1.028,3.949-.315.791-2.131,3.79-2.131,3.79l-6.554-13.267s-1.263-2.446-3.002-2.446c-1.736-.005-3.474,3.159-3.474,3.159,0,0,.237.63.63.944.395.319,1.344,2.209,1.344,2.209l-3.79,8.454s-5.37-10.19-6.159-11.688c-.789-1.504-2.685-3.161-4.579-3.164-1.899,0-2.212.556-3.636,1.897-1.42,1.344-2.368,2.528-2.368,2.528Z" fill="#ea5006"/>
  </g>
</svg>