<?xml version="1.0" encoding="UTF-8"?>
<svg id="_レイヤー_2" data-name="レイヤー 2" xmlns="http://www.w3.org/2000/svg" viewBox="0 0 197.9 107.13">
  <defs>
    <style>
      .cls-1 {
        fill: #ffef12;
      }

      .cls-2 {
        fill: #e74d0c;
      }

      .cls-3 {
        fill: #22ab3a;
      }
    </style>
  </defs>
  <g>
    <path class="cls-3" d="M144.38,84.61c.27-.19.49-.42.64-.69.16-.28.46-1,.72-2.64l2.6-16.49.75-5.27c.12-.83.24-1.46.36-1.92.09-.88.05-1.35.02-1.58-.06-.38-.25-.79-.56-1.2-.27.25-.48.56-.63.93-.17.41-.43,1.24-.66,2.89l-3.18,22.45c-.25,1.79-.25,2.56-.22,2.86.02.21.08.44.17.67Z"/>
    <path class="cls-3" d="M131.74,47.25c.13.05.27.09.42.1,5.14.49,10.34,1.09,15.48,1.77-.07-.35-.17-.61-.27-.73-5.53-.75-11.14-1.4-16.68-1.92-.15-.01-.29-.05-.42-.1-.31,1.04-.62,2.07-.93,3.11.57.05,1.13.1,1.7.15.23-.79.47-1.58.71-2.37Z"/>
    <path class="cls-3" d="M148.59,12.81c.17.67-.1,1.38-.67,1.78-.42.29-.72.64-.91,1.07-.17.38-.41,1.14-.59,2.64-.67,5.5-2.82,23.1-2.82,23.1.31.04.64.08,1.05.13.18.02.34.04.52.05.4-3.32,2.14-17.55,2.73-22.4.18-1.5.42-2.26.59-2.64.19-.43.49-.78.91-1.07.57-.4.84-1.1.67-1.78-.17-.67-.73-1.18-1.42-1.26-.07,0-.14-.02-.21-.02.07.12.12.26.16.4Z"/>
    <path class="cls-3" d="M105.76,64.53c-2.55-4.86-5.19-9.7-7.92-14.47-.3-.52-.85-.84-1.45-.84,3.24,5.65,6.36,11.41,9.34,17.18l.03-1.88Z"/>
    <path class="cls-3" d="M29.63,70.67c-.09-.4-.19-.79-.27-1.17-.08.05-.16.1-.25.15-.23.1-.47.16-.7.16,0,0-.02,0-.03,0,.05.07.1.13.15.2.27.37.68.6,1.11.67Z"/>
    <path class="cls-3" d="M108.53,11.69c-.06-.05-.11-.11-.16-.17-.05.05-.1.11-.15.15-.38.33-.63.72-.78,1.19-.13.42-.29,1.27-.3,2.9-.06,6.06-.13,12.11-.19,18.17l-.05,4.5c-.02,1.78.1,2.53.17,2.82.07.28.23.59.48.9.4-.3.68-.62.87-.98-.03-.44-.05-1.04-.04-1.85l.05-4.5c.06-6.06.13-12.11.19-18.17.02-1.64.17-2.48.3-2.9.09-.31.24-.57.43-.82-.01-.07-.02-.12-.03-.16-.08-.3-.36-.68-.78-1.08Z"/>
    <path class="cls-3" d="M21.08,76.43c.29-.08.55-.16.8-.25l-2.4-8.52c.48-.13.96-.26,1.59-.43.98-.27,1.86-.4,2.63-.4.55,0,1.04.07,1.46.21-.48-.4-.95-.7-1.39-.86-.44-.16-.96-.24-1.55-.24-.76,0-1.65.13-2.63.4-.64.17-1.12.3-1.59.43l2.75,9.75c.1-.03.21-.06.33-.09Z"/>
    <path class="cls-3" d="M95.16,2.12c.23.71-.03,1.48-.64,1.9-.79.55-1.39,1.17-1.76,1.87-.29.53-.71,1.59-1.06,3.58-2.04,11.54-3.89,23.22-5.5,34.73-.11.79-.76,1.39-1.56,1.44-3.34.19-6.71.42-10.01.68-.04,0-.08,0-.13,0,.29.54.85.89,1.47.89.04,0,.09,0,.13,0,3.3-.26,6.67-.49,10.01-.68.8-.05,1.45-.65,1.56-1.44,1.61-11.5,3.46-23.19,5.5-34.73.35-2,.77-3.05,1.06-3.58.38-.69.97-1.32,1.76-1.87.61-.42.87-1.19.64-1.9-.23-.69-.87-1.16-1.59-1.16h0c.05.09.09.17.12.27Z"/>
    <path class="cls-3" d="M107.47,44.93c-.27.18-.59.28-.93.28h-.02c-1.59-.02-3.19-.03-4.77-.03-2.17,0-4.35.02-6.49.07h-.03c.29.54.85.89,1.47.89h.03c2.14-.04,4.32-.06,6.49-.06,1.57,0,3.18.01,4.77.03h.02c.34,0,.66-.1.93-.28.27.19.59.31.93.31,5.18.13,10.43.37,15.63.7-.1-.4-.23-.7-.36-.82-5.56-.37-11.2-.63-16.75-.77-.34,0-.66-.12-.93-.31Z"/>
    <path class="cls-3" d="M56,48.4c.29.54.86.89,1.47.89.08,0,.15,0,.23-.02,3.19-.43,6.46-.85,9.71-1.22.79-.09,1.4-.73,1.47-1.52.33-3.78.69-7.56,1.07-11.34-.39-1.3-.78-2.6-1.18-3.9-.49,4.77-.95,9.57-1.37,14.35-.07.79-.69,1.42-1.47,1.52-3.25.38-6.52.79-9.71,1.22-.08.01-.15.01-.22.02Z"/>
    <path class="cls-3" d="M183.2,64.98c-.08-.02-.17-.04-.25-.06-.75,2.89-1.5,5.78-2.25,8.67.17.01.34.02.49.02.51,0,.93-.08,1.27-.23.66-2.52,1.31-5.05,1.97-7.57.08.02.16.03.23.05-.28-.41-.76-.7-1.46-.88Z"/>
    <path class="cls-3" d="M166.97,66.29c-.23-.11-.47-.16-.71-.16,0,0,0,0,0,0,.18.34.25.73.17,1.13l-2.06,9.92c-.16.75-.81,1.3-1.58,1.33-.02,0-.04,0-.06,0,.29.54.85.89,1.47.89.02,0,.04,0,.06,0,.77-.03,1.42-.58,1.58-1.33l2.06-9.92c.16-.76-.23-1.53-.93-1.85Z"/>
    <path class="cls-3" d="M161.52,60.55c-.29-.05-.53-.1-.75-.14l-1.32,7.14c.1.02.2.04.32.06.23.04.45.07.67.07s.43-.03.65-.08l1.17-6.3c.23.04.47.09.75.14.74.14,1.32.31,1.77.47-.05-.06-.09-.1-.13-.14-.3-.29-1.11-.83-3.12-1.22Z"/>
    <path class="cls-3" d="M158.07,83.71l1.59-8.62c.18.03.38.07.6.12-.07-.11-.13-.19-.18-.24-.27-.32-.67-.52-1.25-.63-.24-.05-.45-.09-.65-.12l-1.71,9.28c.1.02.21.04.32.06.44.09.87.14,1.28.17Z"/>
    <path class="cls-3" d="M135.56,62.46c.01-.11.03-.22.04-.34-.08.01-.17.02-.25.02.06.11.13.22.21.31Z"/>
    <path class="cls-3" d="M156.11,39.56c-1.58,4.03-3.16,8.14-4.79,12.54.57.09,1.13.19,1.7.28,1.56-4.17,3.06-8.1,4.57-11.94.31-.78-.01-1.68-.75-2.08-.25-.14-.53-.21-.8-.21h0c.22.42.27.93.09,1.4Z"/>
    <path class="cls-3" d="M170.87,57.46l-1.59,7.4c-.16.76-.84,1.31-1.62,1.32h-.01c.29.53.84.89,1.47.89h.02c.78,0,1.45-.56,1.62-1.32l1.1-5.1c.01-.23,0-.4,0-.5-.05-.43-.23-.84-.56-1.28-.43-.57-.46-1.35-.06-1.94.09-.14.21-.26.34-.37-.16-.09-.32-.17-.51-.2-.12-.03-.25-.05-.37-.08.2.36.28.78.19,1.18Z"/>
    <path class="cls-3" d="M123.94,10.44c.21.66,0,1.38-.55,1.82-.4.32-.67.69-.83,1.13-.14.39-.33,1.17-.41,2.68l-1.23,23.23c.31.02.64.04,1.05.06.16.01.32.02.47.02l1.18-22.43c.08-1.51.27-2.29.41-2.68.16-.44.43-.81.83-1.13.54-.43.76-1.16.55-1.82-.21-.66-.81-1.12-1.51-1.16-.03,0-.06,0-.09,0,.05.09.09.18.12.28Z"/>
    <path class="cls-3" d="M115.95,60.32c.46-1.27,1.04-2.24,1.73-2.89.27-.26.57-.46.88-.62l.07-1.26c-.95.03-1.75.35-2.43,1-.69.65-1.27,1.62-1.73,2.89-.24.67-.88,1.1-1.57,1.1-.11,0-.21-.01-.32-.03-.09-.02-.17-.04-.26-.07-.22,7.6-.44,15.2-.65,22.8-.01.44-.2.86-.52,1.17-.31.29-.72.46-1.15.46-.02,0-.03,0-.05,0-2.72-.08-4.05-.1-6.77-.11.29.54.85.88,1.47.89,2.73.01,4.06.04,6.78.11.02,0,.03,0,.05,0,.43,0,.84-.16,1.15-.46.32-.3.51-.73.52-1.17.22-7.6.43-15.2.65-22.8.08.03.17.06.26.07.11.02.21.03.32.03.69,0,1.33-.43,1.57-1.1Z"/>
    <path class="cls-3" d="M131.65,57.25c.29.04.56.11.82.19-.59-.57-1.38-.95-2.3-1.08l-1.94,22.78c-.15,1.72-.07,2.49,0,2.79.08.4.3.8.65,1.21.45.52.54,1.25.23,1.86-.29.56-.87.91-1.49.91-.05,0-.1,0-.15,0-3.47-.31-6.96-.56-10.35-.75.27.51.79.85,1.39.88,3.43.18,6.94.43,10.44.75.05,0,.1,0,.15,0,.62,0,1.2-.35,1.49-.91.31-.61.22-1.35-.23-1.86-.35-.41-.57-.81-.65-1.21-.06-.3-.14-1.07,0-2.79l1.94-22.78Z"/>
    <path class="cls-3" d="M94.97,81.79c-.09-.29-.24-1.04-.3-2.83,0,0-.21-5.86-.32-9.04-.51-.93-1.02-1.86-1.54-2.79.04,1.07.38,10.95.38,10.95.06,1.79.22,2.54.3,2.83.11.36.35.72.73,1.07.49.46.66,1.18.42,1.81-.24.63-.84,1.06-1.52,1.08-2.37.07-3.52.12-5.84.24-.03,0-.05,0-.08,0,.29.54.85.89,1.47.89.03,0,.06,0,.09,0,2.32-.12,3.47-.16,5.84-.24.68-.02,1.28-.45,1.51-1.08.24-.63.07-1.35-.42-1.81-.38-.35-.62-.72-.73-1.07Z"/>
    <path class="cls-3" d="M86,60.21c-.77-2.23-1.98-4.45-3.87-6.28-.95-.93-2.04-1.7-3.22-2.31.62.43,1.21.9,1.75,1.43,3.83,3.72,4.89,9.02,5.1,12.8.3,5.42-.92,10.61-3.45,14.63-2.4,3.81-6.04,6.24-10,6.67-.51.06-1.03.08-1.54.08-2.26,0-4.41-.53-6.33-1.52,2.26,1.56,4.95,2.41,7.81,2.41.51,0,1.03-.03,1.54-.08,3.96-.43,7.6-2.86,10-6.68,1.32-2.1,2.28-4.53,2.86-7.13-.21-4.67-.42-9.34-.64-14.01Z"/>
    <path class="cls-3" d="M196.64,64.72c-.83-1.2-2.09-2.24-3.75-3.1.95.66,1.71,1.4,2.28,2.22,1.38,2,1.63,4.49.73,7.4-.65,2.09-1.86,3.85-3.62,5.23-1.24.97-2.61,1.6-4.09,1.88.2,1.12.36,2.08.61,3.56.09.55.19,1.11.28,1.66.5,3.01,1.02,6.12,1.75,9.08.48,1.96.81,2.59.91,2.76.5.39.73,1.03.6,1.66-.14.69-.71,1.22-1.41,1.32-.35.05-.71.07-1.07.07-.95,0-1.96-.17-3.01-.49-1-.31-1.88-.66-2.65-1.05,1.05.76,2.41,1.4,4.13,1.93,1.05.33,2.06.49,3.01.49.36,0,.72-.02,1.07-.07.7-.1,1.27-.62,1.41-1.32.13-.63-.11-1.27-.6-1.66-.1-.16-.43-.8-.91-2.76-.73-2.96-1.25-6.07-1.75-9.08-.09-.56-.19-1.11-.28-1.66-.25-1.48-.41-2.44-.61-3.56,1.48-.28,2.86-.91,4.09-1.88,1.76-1.38,2.97-3.14,3.62-5.23.9-2.91.65-5.4-.73-7.4Z"/>
    <path class="cls-3" d="M159.3,90.6c-4.89-.97-9.86-1.86-14.77-2.63-.27-.04-.52-.15-.73-.31-.18.06-.36.1-.55.1-.08,0-.15,0-.23-.02-3.2-.45-6.44-.86-9.64-1.24.26.47.73.8,1.27.86,3.27.38,6.58.81,9.85,1.26.08.01.16.02.23.02.19,0,.38-.03.55-.1.21.16.46.26.73.31,4.46.7,8.97,1.5,13.43,2.38-.03-.27-.08-.49-.14-.63Z"/>
    <path class="cls-3" d="M61.96,84.92c-.17-.1-.74-.53-2.02-2.07-1.95-2.34-3.79-4.9-5.56-7.38-.33-.45-.65-.91-.98-1.36-.86-1.2-1.43-1.99-2.12-2.92,1.2-.91,2.14-2.08,2.82-3.5.44-.93.73-1.88.9-2.85.03-.42.08-.84.13-1.25.03-.72,0-1.45-.12-2.19-.48-3-1.8-5.12-3.91-6.31-.19-.11-.39-.2-.59-.29,1.6,1.24,2.61,3.16,3.03,5.72.35,2.16.04,4.27-.91,6.29-.67,1.42-1.61,2.59-2.82,3.5.69.94,1.26,1.72,2.12,2.92.33.45.65.91.98,1.36,1.77,2.48,3.61,5.04,5.56,7.38,1.29,1.54,1.86,1.96,2.02,2.07.61.13,1.11.6,1.27,1.21.18.68-.09,1.41-.68,1.8-1.05.71-2.33,1.2-3.82,1.43-.98.16-1.9.23-2.72.23-1.32,0-2.43-.19-3.4-.59-.12-.05-.24-.1-.35-.16.62.44,1.22.79,1.83,1.04.96.4,2.08.59,3.4.59.82,0,1.74-.08,2.72-.23,1.49-.23,2.77-.72,3.82-1.43.58-.4.85-1.12.68-1.8-.16-.62-.65-1.08-1.27-1.21Z"/>
    <path class="cls-3" d="M39.59,10.41s.03.01.05.02c-.19-.16-.4-.31-.63-.45.16.18.35.33.59.43Z"/>
    <path class="cls-3" d="M178.03,91.38c-.01-.31.03-1.09.46-2.74l.13-.51c-.03-.15-.06-.3-.09-.45-.22-1.06-.44-2.13-.67-3.2l-.85,3.27c-.43,1.66-.48,2.43-.46,2.74.02.42.17.85.47,1.32.37.58.35,1.33-.05,1.89-.32.44-.83.69-1.35.69-.14,0-.29-.02-.43-.06-3.43-.91-6.91-1.77-10.34-2.54-.33-.08-.63-.25-.85-.49-.54,1.42-1.07,2.83-1.59,4.22-.25.67-.88,1.09-1.56,1.09.21.38.55.69,1,.82.16.05.31.07.47.07.68,0,1.32-.42,1.57-1.09.52-1.39,1.05-2.8,1.59-4.22.22.24.52.41.85.49,3.43.77,6.91,1.63,10.34,2.54.14.04.29.06.43.06.53,0,1.03-.25,1.35-.69.41-.56.43-1.31.05-1.89-.3-.47-.46-.9-.47-1.32Z"/>
    <path class="cls-3" d="M68.92,77.53c.53,1.14,1.6,3.04,2.83,3.08-.58-.66-1.05-1.55-1.36-2.2-1.41-3.02-2.34-6.76-2.86-11.41-.29-2.61-.52-5.62.45-8.3.49-1.37,1.25-2.11,2.26-2.22.07,0,.15-.01.22-.01.11,0,.22.01.32.03-.51-.53-1.11-.92-1.8-.92-.07,0-.15,0-.22.01-1.01.11-1.77.85-2.26,2.22-.97,2.69-.74,5.69-.45,8.3.52,4.65,1.45,8.38,2.86,11.41Z"/>
    <path class="cls-3" d="M76.96,4.04c-.12.34-.13.48-.14.51,0,.06-.01.11-.02.16-.14.74-.18,1.44-.14,2.09.08,1.11.51,2.99,1.27,5.59,1.15,3.92,2.29,7.89,3.4,11.87.13-.97.27-1.95.4-2.92-.77-2.7-1.55-5.4-2.33-8.07-.76-2.6-1.19-4.48-1.27-5.59-.05-.65,0-1.35.14-2.09.01-.05.02-.11.02-.17,0-.03.02-.17.14-.51.18-.53.09-1.12-.25-1.57-.32-.41-.81-.65-1.33-.65h0c.22.41.26.89.11,1.33Z"/>
    <path class="cls-3" d="M47.28,88.2c-.48-.29-.81-.61-1.01-.98-.15-.28-.45-.99-.8-2.67,0,0-.21-1.02-.4-1.93-.58-.75-1.17-1.5-1.76-2.25.06.29.68,3.29.68,3.29.35,1.68.65,2.39.8,2.67.2.37.53.69,1.01.98.59.36.9,1.04.79,1.72-.12.68-.64,1.22-1.32,1.35-3.45.7-6.94,1.47-10.39,2.3-.13.03-.26.05-.39.05.03.05.06.11.09.16.32.46.84.73,1.38.73.13,0,.26-.01.39-.05,3.44-.83,6.94-1.6,10.39-2.3.68-.14,1.2-.68,1.32-1.36.12-.68-.19-1.36-.79-1.72Z"/>
    <path class="cls-3" d="M56.29,5.96c-.23.95-.29,1.83-.19,2.61.08.62.35,1.61.81,2.93,1.71,4.85,3.41,9.79,5.07,14.74.09-.88.19-1.75.29-2.63-1.28-3.77-2.58-7.52-3.88-11.22-.45-1.32-.73-2.31-.81-2.93-.1-.79-.04-1.67.19-2.61.13-.54-.02-1.1-.39-1.51-.32-.35-.77-.55-1.24-.55.19.36.25.77.15,1.18Z"/>
    <path class="cls-3" d="M42.18,68.69l-1.5-7.23c.08-.02.16-.04.24-.06.26-.05.51-.08.73-.08.05,0,.11,0,.18,0-.63-.89-1.32-.89-1.66-.89-.22,0-.47.03-.73.08-.08.02-.16.04-.25.06l1.82,8.77c.47-.19.86-.41,1.16-.65Z"/>
    <path class="cls-3" d="M29.64,72.63c-.19-.75-.86-1.26-1.62-1.26h0c.06.12.12.24.15.38,1.03,4.09,2.06,8.17,3.09,12.26.19.76-.17,1.54-.86,1.9-.24.12-.5.18-.76.18-.02,0-.04,0-.07,0,.09.1.17.19.26.29.33.39.8.6,1.28.6.26,0,.52-.06.76-.18.69-.35,1.05-1.14.86-1.9-1.03-4.09-2.06-8.17-3.09-12.26Z"/>
    <path class="cls-3" d="M2.96,67.44c.18.26.44.46.75.58-.2-.23-.45-.42-.75-.58Z"/>
    <path class="cls-3" d="M30,100.28c-.66-.35-1.14-.76-1.42-1.21-.25-.4-.67-1.31-1.24-3.35l-3.19-11.3c.14-.04.3-.08.47-.13.43-.12.86-.18,1.26-.18.37,0,.74.05,1.08.16.09.03.18.06.28.1-.58-.47-1.16-.8-1.75-.98-.34-.1-.71-.16-1.08-.16-.4,0-.82.06-1.26.18-.17.05-.32.09-.47.13l3.19,11.3c.57,2.04.99,2.95,1.24,3.35.29.46.76.87,1.42,1.21.61.32.96.98.88,1.66-.07.68-.55,1.25-1.21,1.43-4.1,1.16-8.24,2.39-12.28,3.68-.17.05-.34.08-.51.08.05.09.1.17.16.25.32.41.81.63,1.31.63.17,0,.34-.03.51-.08,4.05-1.29,8.18-2.53,12.28-3.68.66-.19,1.14-.75,1.21-1.43.07-.68-.28-1.34-.88-1.66Z"/>
  </g>
  <g>
    <path class="cls-3" d="M36.94,8.56c.89.38,1.6.88,2.1,1.47.38.44.98,1.38,1.74,3.35,4.36,10.9,8.56,21.99,12.48,32.95.24.67.88,1.11,1.58,1.11.08,0,.15,0,.23-.02,3.19-.43,6.46-.85,9.71-1.22.79-.09,1.4-.73,1.48-1.52.42-4.78.88-9.58,1.37-14.35,1.41,4.61,2.78,9.24,4.11,13.82.21.72.87,1.21,1.61,1.21.04,0,.09,0,.13,0,3.3-.26,6.67-.49,10.01-.68.8-.05,1.45-.65,1.56-1.44,1.61-11.5,3.46-23.19,5.5-34.73.35-2,.77-3.05,1.06-3.58.38-.69.97-1.32,1.76-1.87.61-.42.87-1.19.64-1.9-.22-.69-.87-1.16-1.59-1.16-.02,0-.03,0-.05,0-3.39.09-6.86.22-10.31.37-.72.03-1.34.52-1.54,1.22-.2.69.07,1.44.67,1.84.86.58,1.28,1.33,1.33,2.35.03.63-.04,1.43-.21,2.39,0,.01,0,.03,0,.04-.74,5.01-1.45,10.06-2.13,15.09-1.12-3.98-2.25-7.95-3.4-11.87-.76-2.6-1.19-4.48-1.27-5.59-.05-.65,0-1.35.14-2.09.01-.05.02-.11.02-.17,0-.03.02-.17.13-.51.18-.53.09-1.12-.25-1.57-.32-.41-.81-.65-1.33-.65-.04,0-.08,0-.12,0-5.02.36-10.09.83-15.07,1.4-.7.08-1.28.59-1.44,1.28-.16.69.12,1.4.72,1.79.99.64,1.75,1.45,2.33,2.47.58,1.03.97,2.43,1.15,4.18.08.82.13,1.63.15,2.42.01.74-.04,1.53-.15,2.34,0,.01,0,.02,0,.04-.33,2.81-.64,5.65-.95,8.52-1.66-4.95-3.36-9.88-5.07-14.74-.45-1.32-.73-2.3-.81-2.93-.1-.79-.04-1.67.19-2.61.13-.54-.02-1.1-.39-1.51-.32-.35-.77-.55-1.24-.55-.07,0-.15,0-.22.02-5.33.71-10.69,1.53-15.95,2.41-.73.12-1.29.72-1.38,1.45-.09.74.32,1.44,1,1.74Z"/>
    <path class="cls-3" d="M59.31,83.07c-.17-.1-.74-.53-2.02-2.07-1.95-2.34-3.79-4.9-5.56-7.38-.33-.45-.65-.91-.98-1.36-.86-1.2-1.43-1.99-2.12-2.92,1.2-.91,2.14-2.08,2.82-3.5.95-2.01,1.25-4.13.91-6.29-.48-3-1.8-5.12-3.91-6.31-1.34-.75-3.04-1.13-5.03-1.13-1.22,0-2.58.14-4.04.43-1.14.22-2.54.59-4.17,1.09-3.27,1.01-5.42,1.65-6.72,1.95-1.27.25-1.91.38-3.19.65-.12.03-.24.07-.35.12-.11,0-.23.02-.34.04-7.85,1.95-15.74,4.18-23.43,6.64C.47,63.25,0,63.89,0,64.62c0,.73.47,1.37,1.16,1.6.69.22,1.18.55,1.51,1.01.29.41.79,1.34,1.45,3.43,2.19,6.91,8.51,26.83,8.51,26.83.59,1.86.72,2.88.72,3.41,0,.63-.18,1.24-.54,1.87-.35.6-.3,1.35.13,1.89.32.41.81.63,1.31.63.17,0,.34-.03.51-.08,4.05-1.29,8.18-2.52,12.28-3.68.66-.19,1.14-.75,1.21-1.44.07-.68-.28-1.34-.88-1.66-.66-.35-1.14-.76-1.42-1.21-.25-.4-.67-1.31-1.24-3.35l-3.18-11.3c.14-.04.3-.08.47-.13.43-.12.86-.18,1.26-.18.37,0,.74.05,1.08.16.98.3,1.95,1,2.87,2.1.33.39.8.6,1.28.6.26,0,.52-.06.76-.18.69-.36,1.05-1.14.86-1.9-1.03-4.08-2.06-8.17-3.09-12.25-.19-.75-.86-1.27-1.62-1.27-.03,0-.06,0-.08,0-.8.04-1.46.64-1.57,1.43-.2,1.37-.56,2.4-1.07,3.06-.44.58-1.39,1.08-2.73,1.45-.12.03-.23.06-.33.09l-2.74-9.75c.48-.13.96-.26,1.59-.43.98-.26,1.86-.4,2.63-.4.59,0,1.11.08,1.55.24,1.01.37,2.14,1.39,3.27,2.94.32.44.83.69,1.35.69.24,0,.48-.05.7-.16.09-.04.17-.09.25-.15,1.61,6.87,3.89,16.54,3.89,16.54.34,1.46.38,2.28.35,2.71-.03.49-.19.93-.49,1.36-.39.57-.39,1.33,0,1.9.32.46.84.73,1.38.73.13,0,.26-.01.39-.05,3.44-.83,6.94-1.6,10.38-2.3.68-.14,1.2-.67,1.32-1.36.12-.68-.19-1.36-.79-1.72-.48-.29-.81-.61-1.01-.98-.15-.28-.45-.99-.8-2.67,0,0-.62-3-.68-3.29.67.85,1.34,1.7,1.99,2.55,2.05,2.72,3.95,4.41,5.83,5.19.97.4,2.08.59,3.4.59.82,0,1.74-.08,2.72-.23,1.49-.23,2.77-.72,3.82-1.43.58-.4.85-1.12.68-1.8-.16-.62-.65-1.08-1.27-1.22ZM41.46,67.23c-.28.45-.83.84-1.62,1.15l-1.82-8.77c.08-.02.16-.04.25-.06.26-.05.51-.08.73-.08.54,0,1.96,0,2.62,3.56.49,2.65.11,3.77-.16,4.2Z"/>
    <path class="cls-3" d="M84.57,64.87c-.21-3.78-1.27-9.07-5.1-12.8-2.64-2.57-6.3-3.98-10.3-3.98-.59,0-1.18.03-1.77.09-4.51.47-8.61,3.13-10.97,7.1-2.34,3.93-3.19,8.96-2.41,14.16.79,5.26,2.78,9.66,5.76,12.73,2.57,2.64,6.05,4.09,9.8,4.09.51,0,1.03-.03,1.54-.08,3.96-.43,7.6-2.86,10-6.68,2.53-4.02,3.75-9.21,3.45-14.63ZM72.76,77.24c-.47,1.51-1.14,2.33-1.98,2.41-.05,0-.1,0-.15,0h0c-1.26,0-2.34-1.94-2.88-3.09-1.41-3.03-2.34-6.76-2.86-11.41-.29-2.61-.52-5.61.45-8.3.49-1.37,1.25-2.11,2.26-2.22.07,0,.15-.01.22-.01,1.33,0,2.34,1.42,2.96,2.62,1.69,3.25,2.1,7.23,2.46,10.74.26,2.49.49,6.16-.48,9.25Z"/>
    <path class="cls-3" d="M193.99,62.87c-1.41-2.05-4.06-3.62-7.86-4.66-1.13-.31-2.55-.6-4.23-.87-3.4-.55-5.62-.93-6.9-1.23-1.25-.34-1.88-.5-3.15-.83-.14-.04-.28-.05-.42-.05-.55,0-1.08.27-1.39.75-.39.59-.37,1.37.06,1.94.33.44.52.86.56,1.28.03.3.03,1.05-.34,2.64l-4.12,17.72c-.14-.21-.31-.39-.54-.52-.27-.16-.56-.24-.86-.24-.48,0-.95.21-1.28.59-1.28,1.51-2.53,2.52-3.71,2.98-.67.26-1.43.4-2.27.4-.6,0-1.25-.07-1.94-.2-.11-.02-.22-.04-.32-.06l1.71-9.28c.2.04.41.08.65.12.58.11.98.32,1.25.63.21.24.61.87,1.04,2.35.21.72.86,1.21,1.61,1.21.02,0,.04,0,.06,0,.77-.03,1.42-.58,1.58-1.33l2.06-9.92c.16-.76-.23-1.53-.93-1.85-.23-.11-.47-.16-.71-.16-.5,0-.98.22-1.31.63-.97,1.21-1.97,1.8-3.04,1.8-.21,0-.44-.02-.67-.07-.11-.02-.22-.04-.32-.06l1.32-7.14c.23.04.47.09.75.15,2.01.39,2.82.93,3.12,1.22.3.29.87,1.07,1.37,3.14.18.75.85,1.28,1.63,1.28h.02c.78,0,1.45-.56,1.62-1.32l1.59-7.4c.09-.44,0-.89-.23-1.27-.24-.37-.62-.63-1.06-.73-6.03-1.26-12.17-2.39-18.26-3.37,1.64-4.4,3.21-8.51,4.8-12.54.31-.78-.02-1.68-.76-2.08-.25-.14-.53-.21-.8-.21-.52,0-1.03.24-1.36.69-1.1,1.52-2.33,2.56-3.65,3.11-.92.38-1.99.57-3.17.57-.54,0-1.12-.04-1.72-.12-.41-.05-.74-.1-1.05-.14,0,0,2.15-17.59,2.82-23.1.18-1.5.42-2.26.59-2.64.19-.43.49-.77.91-1.07.57-.4.84-1.1.67-1.78-.17-.67-.73-1.18-1.42-1.26-4.18-.51-8.44-.97-12.68-1.38-.05,0-.11,0-.16,0-.64,0-1.22.36-1.51.94-.31.63-.19,1.38.29,1.89.51.54.67.91.71,1.13.05.27.11,1-.06,2.8-.56,5.86-1.12,11.71-1.67,17.57-.14-.04-.29-.06-.43-.06-.56,0-1.11.28-1.42.79-.99,1.59-2.14,2.72-3.42,3.35-1.11.55-2.4.81-3.96.81-.28,0-.58,0-.88-.03-.41-.03-.74-.04-1.05-.06l1.23-23.23c.08-1.51.27-2.29.41-2.68.16-.44.43-.81.83-1.13.54-.43.76-1.16.55-1.82-.21-.66-.81-1.12-1.51-1.16-4.24-.22-8.53-.39-12.73-.5-.02,0-.03,0-.04,0-.49,0-.94.22-1.25.57-.31-.37-.77-.61-1.27-.62-1.77-.03-3.57-.04-5.35-.04-2.28,0-4.6.02-6.9.06-.64.01-1.21.39-1.48.96-.27.58-.19,1.26.21,1.76.4.5.66.97.76,1.38.07.3.2,1.08.23,2.92.08,5.77.16,11.54.23,17.31l.07,5.36c.02,1.56-.09,2.34-.19,2.71-.11.43-.36.85-.74,1.27-.45.49-.56,1.21-.29,1.82.27.6.87.98,1.52.98.01,0,.02,0,.03,0,2.14-.04,4.32-.07,6.49-.07,1.57,0,3.18.01,4.77.03h.02c.34,0,.66-.1.93-.28.27.19.59.31.93.32,5.55.14,11.19.4,16.75.77.32.3.61,1.65.6,3.17-4.16-.31-8.33-.55-12.48-.72-.02,0-.05,0-.07,0-.13,0-.26.02-.38.05-.14-.05-.3-.07-.45-.08-2.47-.08-3.67-.11-6.1-.14h-.02c-.68,0-1.3.42-1.56,1.06-.26.65-.09,1.38.42,1.85.38.35.62.69.69.96.05.2.17.89.13,2.82l-.21,11.43c-2.98-5.79-6.12-11.56-9.36-17.23-.3-.52-.85-.84-1.45-.84h-.04c-3.1.07-6.18.18-9.15.33-.66.03-1.25.46-1.48,1.08-.24.62-.08,1.32.39,1.79.42.41.69.82.82,1.23.09.31.26,1.1.35,3.02.34,7.5.68,15,1.02,22.5.07,1.59-.02,2.38-.12,2.77-.1.43-.34.83-.72,1.23-.47.5-.59,1.23-.3,1.85.27.6.87.97,1.52.97.03,0,.06,0,.09,0,2.32-.12,3.47-.16,5.84-.24.68-.02,1.28-.45,1.52-1.08.24-.63.07-1.35-.42-1.81-.38-.35-.62-.72-.73-1.07-.09-.29-.24-1.05-.3-2.83,0,0-.35-9.88-.38-10.95,3.08,5.51,6.05,11.1,8.86,16.7.28.56.86.92,1.49.92,2.73.01,4.06.04,6.78.11h.05c.43,0,.84-.16,1.15-.46.32-.31.51-.73.52-1.17.22-7.6.43-15.2.65-22.8.08.03.17.06.26.07.11.02.21.03.32.03.69,0,1.33-.43,1.57-1.1.46-1.27,1.04-2.24,1.73-2.89.68-.64,1.48-.97,2.43-1l-1.34,22.82c-.1,1.65-.31,2.39-.42,2.69-.17.43-.45.81-.84,1.14-.52.44-.73,1.16-.51,1.81.22.65.81,1.1,1.5,1.14,3.43.18,6.94.43,10.44.75.05,0,.1,0,.15,0,.62,0,1.2-.35,1.49-.91.31-.61.22-1.35-.23-1.86-.35-.41-.57-.81-.65-1.21-.06-.3-.14-1.07,0-2.79l1.94-22.78c2.1.29,3.49,1.9,3.5,4.12,0,.89.7,1.62,1.59,1.67.03,0,.06,0,.09,0,.09,0,.17-.01.26-.02-.68,5.85-1.37,11.7-2.05,17.56-.18,1.57-.38,2.35-.52,2.72-.16.43-.43.82-.82,1.2-.47.45-.63,1.13-.43,1.74.21.61.75,1.05,1.39,1.13,3.26.38,6.58.81,9.85,1.26.08.01.16.02.23.02.19,0,.38-.03.56-.1.21.16.46.26.73.31,4.91.77,9.88,1.66,14.77,2.63.27.58.22,2.44-.11,3.99-.18.86.33,1.71,1.17,1.96.16.05.31.07.47.07.68,0,1.32-.42,1.57-1.09.52-1.39,1.05-2.8,1.59-4.22.22.24.52.41.85.49,3.43.77,6.91,1.63,10.34,2.54.14.04.29.06.43.06.53,0,1.03-.25,1.35-.69.41-.56.43-1.31.06-1.89-.3-.47-.46-.9-.47-1.32-.01-.31.03-1.09.46-2.75l.85-3.27c.23,1.07.45,2.14.67,3.2.64,3.34,1.6,5.71,2.95,7.24,1.12,1.27,2.87,2.26,5.36,3.04,1.05.33,2.06.49,3.01.49.36,0,.72-.02,1.07-.07.7-.1,1.27-.62,1.41-1.32.13-.63-.11-1.27-.6-1.66-.1-.16-.43-.8-.91-2.76-.73-2.96-1.25-6.07-1.75-9.08-.09-.56-.19-1.11-.28-1.66-.25-1.48-.41-2.44-.61-3.56,1.49-.28,2.86-.91,4.09-1.88,1.75-1.38,2.97-3.14,3.62-5.23.9-2.91.65-5.4-.73-7.4ZM108.28,14.6l-.23,8.92c-.12,4.66-.25,9.32-.37,13.99-.05,1.76-.28,2.43-.38,2.63-.19.39-.49.73-.91,1.05-.25-.31-.41-.62-.48-.9-.07-.29-.19-1.03-.17-2.82l.05-4.5c.06-6.06.13-12.11.19-18.17.02-1.64.17-2.48.3-2.9.14-.47.4-.86.78-1.19.05-.05.1-.1.15-.15.05.06.1.12.16.18.43.39.7.77.78,1.07.07.27.18.99.13,2.8ZM136.34,49.28c-.06,0-.12-.01-.19-.01-.12,0-.24.02-.36.04-.16-.07-.34-.13-.52-.15-2.36-.24-4.74-.46-7.12-.66.31-1.04.62-2.07.93-3.11.13.05.27.09.42.1,5.54.53,11.16,1.18,16.68,1.92.3.31.49,1.69.39,3.17-3.37-.49-6.8-.93-10.24-1.31ZM148.12,57.82l-3.55,22.49c-.26,1.65-.56,2.36-.72,2.64-.15.27-.37.5-.64.69-.09-.23-.15-.46-.17-.67-.02-.3-.03-1.07.22-2.86l3.18-22.45c.23-1.64.49-2.48.66-2.89.15-.37.37-.67.64-.93.3.41.5.81.56,1.2.05.31.09,1.09-.17,2.77ZM183.51,68.62c-.73,2.59-1.57,3.42-2.01,3.69-.37.22-.87.33-1.49.33-.16,0-.32,0-.49-.02.75-2.89,1.5-5.78,2.25-8.67.08.02.17.04.25.06.77.21,1.27.53,1.54,1.01.42.74.4,1.98-.06,3.6Z"/>
  </g>
  <g>
    <g>
      <path class="cls-2" d="M92.4,1.67c-1.02.7-1.78,1.52-2.29,2.44-.51.93-.92,2.29-1.24,4.09-2.04,11.56-3.88,23.15-5.51,34.78-3.35.2-6.69.42-10.04.69-2.09-7.23-4.27-14.44-6.52-21.62-.83,7.48-1.57,14.97-2.23,22.47-3.25.38-6.5.79-9.74,1.23-3.96-11.08-8.13-22.08-12.5-33.01-.67-1.74-1.34-3.01-2.01-3.81-.68-.79-1.58-1.44-2.72-1.93,5.29-.89,10.58-1.69,15.89-2.41-.28,1.16-.35,2.23-.22,3.22.1.75.4,1.84.88,3.26,2.59,7.34,5.09,14.71,7.52,22.11.54-5.42,1.12-10.83,1.75-16.24.12-.89.18-1.76.17-2.59-.01-.84-.07-1.69-.16-2.56-.21-1.98-.66-3.59-1.36-4.83-.71-1.24-1.66-2.26-2.87-3.05,4.99-.57,9.99-1.03,15-1.39-.13.37-.2.67-.22.91-.17.89-.22,1.73-.16,2.52.09,1.27.55,3.25,1.34,5.94,1.93,6.59,3.79,13.2,5.6,19.82.98-7.77,2.05-15.52,3.2-23.27.19-1.08.27-2,.23-2.75-.07-1.55-.75-2.77-2.06-3.66,3.43-.15,6.85-.28,10.28-.37Z"/>
      <path class="cls-1" d="M105.95,9.45c-.61.54-1.04,1.19-1.27,1.96-.23.77-.36,1.89-.38,3.37-.08,7.56-.16,15.11-.24,22.67-.02,1.51.06,2.59.22,3.23.16.65.52,1.28,1.09,1.9-3.77-.06-7.55-.05-11.32.03.57-.62.94-1.28,1.12-1.97.18-.69.26-1.75.24-3.16-.1-7.56-.21-15.11-.31-22.67-.02-1.54-.12-2.64-.28-3.3-.16-.66-.52-1.33-1.08-2.03,4.06-.08,8.13-.09,12.19-.03Z"/>
      <path class="cls-2" d="M149.01,41.66c-1.63.67-3.53.85-5.74.56-1.08-.14-1.62-.21-2.69-.34,1.01-8.25,2.01-16.5,3.02-24.75.17-1.37.41-2.41.72-3.12.32-.71.81-1.29,1.48-1.76-4.21-.51-8.42-.97-12.63-1.37.64.67,1.02,1.33,1.14,1.97.12.64.11,1.73-.04,3.27-.72,7.6-1.45,15.21-2.17,22.81-.15,1.54-.41,2.63-.77,3.27-.37.64-.92,1.19-1.65,1.64,5.61.53,11.2,1.18,16.79,1.94,2.53.36,1.69,5.91,1.69,5.91,1.7-4.58,3.44-9.15,5.23-13.7-1.29,1.78-2.74,3-4.37,3.67Z"/>
      <path class="cls-2" d="M126.39,39.11c-1.57.78-3.46,1.09-5.68.96-1.08-.07-1.62-.1-2.71-.15.44-8.3.88-16.6,1.31-24.9.07-1.38.24-2.43.51-3.16.27-.73.72-1.34,1.35-1.86-4.23-.22-8.45-.39-12.68-.5.68.63,1.11,1.26,1.27,1.89.16.63.23,1.72.19,3.26-.2,7.63-.4,15.27-.6,22.9-.04,1.54-.22,2.65-.54,3.32-.32.67-.83,1.25-1.53,1.75,5.63.15,11.24.41,16.86.78,2.54.18,2.09,5.78,2.09,5.78,1.38-4.69,2.8-9.36,4.27-14.03-1.16,1.87-2.52,3.18-4.1,3.96Z"/>
    </g>
    <g>
      <path class="cls-2" d="M27.23,67.17c-1.36-1.86-2.71-3.04-4.05-3.53s-3.07-.46-5.19.11c-1.29.35-1.93.53-3.22.89,1.22,4.32,2.44,8.65,3.65,12.97.77-.22,1.16-.32,1.93-.54,1.72-.47,2.92-1.15,3.61-2.05.69-.9,1.15-2.18,1.4-3.84,1.03,4.09,2.06,8.17,3.09,12.26-1.14-1.35-2.36-2.23-3.67-2.63-1.02-.31-2.11-.31-3.26,0-.84.23-1.25.35-2.09.58,1.21,4.3,2.43,8.61,3.64,12.91.51,1.8.99,3.06,1.43,3.78.45.72,1.14,1.32,2.06,1.81-4.14,1.16-8.24,2.39-12.34,3.7.52-.88.78-1.79.78-2.72,0-.94-.27-2.24-.8-3.91-2.84-8.94-5.67-17.88-8.51-26.82-.59-1.86-1.15-3.16-1.69-3.91-.54-.74-1.32-1.29-2.35-1.62,7.71-2.46,15.47-4.66,23.33-6.61.74,3.05,1.48,6.1,2.22,9.15Z"/>
      <path class="cls-2" d="M58.96,84.7c-.85.58-1.89.96-3.14,1.16-2.2.35-3.94.28-5.22-.25-1.6-.66-3.3-2.22-5.13-4.65-2.11-2.71-4.24-5.4-6.4-8.07.7,3.39,1.4,6.77,2.11,10.16.3,1.45.62,2.49.97,3.12.34.63.88,1.17,1.62,1.61-3.5.71-6.98,1.48-10.45,2.31.46-.67.72-1.4.78-2.19.05-.79-.08-1.86-.39-3.2-1.75-7.44-3.49-14.87-5.24-22.3-.33-1.41-.69-2.42-1.09-3.04s-.97-1.12-1.74-1.5c1.28-.27,1.92-.4,3.2-.65,1.38-.32,3.66-1,6.86-1.99,1.62-.5,2.95-.84,3.99-1.04,3.49-.68,6.15-.47,7.94.53,1.66.93,2.68,2.64,3.08,5.11.3,1.84.03,3.61-.77,5.31-.8,1.7-2.04,2.94-3.74,3.73,1.29,1.75,1.93,2.62,3.19,4.38,2.15,2.98,4.27,6.02,6.62,8.84,1.42,1.7,2.41,2.58,2.95,2.63ZM43.27,62.72c-.7-3.76-2.48-5.39-5.33-4.81-.34.07-.67.17-.99.3-.32.13-.6.25-.85.37.82,3.97,1.65,7.93,2.47,11.9,2.15-.45,3.58-1.22,4.3-2.36.72-1.14.86-2.94.4-5.4Z"/>
      <path class="cls-2" d="M82.9,64.97c.26,4.71-.66,9.61-3.19,13.64-1.95,3.1-5.06,5.5-8.76,5.9-3.68.4-7.36-.84-9.96-3.51-3.07-3.16-4.67-7.52-5.31-11.81-.67-4.44-.13-9.15,2.2-13.06,2.08-3.49,5.66-5.86,9.71-6.29,3.87-.41,7.88.65,10.73,3.43,3.13,3.04,4.36,7.47,4.59,11.69ZM74.9,67.81c-.4-3.85-.84-7.86-2.64-11.34-1.3-2.51-2.98-3.7-4.84-3.5-1.66.17-2.94,1.31-3.66,3.32-1.05,2.94-.87,6.06-.54,9.05.44,3.95,1.26,8.17,3,11.93,1.34,2.87,2.92,4.23,4.72,4.04,1.55-.16,2.72-1.37,3.41-3.58.98-3.13.88-6.7.55-9.93Z"/>
      <path class="cls-2" d="M111.15,49.14c-.56.63-.94,1.27-1.15,1.94-.21.67-.33,1.71-.37,3.13-.27,9.34-.54,18.67-.8,28.01-2.73-.08-4.09-.1-6.82-.11-3.86-7.69-7.95-15.24-12.27-22.68.21,5.91.41,11.83.62,17.74.05,1.51.18,2.59.37,3.25.19.65.59,1.26,1.19,1.82-2.35.07-3.53.12-5.88.24.58-.61.95-1.27,1.13-1.98.17-.72.23-1.8.16-3.24-.34-7.5-.68-15-1.02-22.5-.07-1.61-.21-2.75-.42-3.43-.21-.68-.62-1.33-1.25-1.94,3.03-.15,6.07-.26,9.11-.33,4.36,7.61,8.48,15.32,12.36,23.18.11-6.06.22-12.12.34-18.18.03-1.57-.03-2.66-.18-3.26-.15-.6-.54-1.19-1.18-1.78,2.43.03,3.64.06,6.07.14Z"/>
      <path class="cls-2" d="M134.17,59.51c-.01-3.24-2.29-5.68-5.54-5.83-.46-.04-.69-.06-1.16-.1-.69,8.15-1.39,16.3-2.08,24.45-.13,1.48-.12,2.56.02,3.26.14.69.48,1.35,1.03,1.98-3.5-.32-7-.57-10.51-.75.61-.51,1.05-1.12,1.32-1.81.27-.69.45-1.76.54-3.2.48-8.17.96-16.34,1.44-24.51-.51-.03-.77-.05-1.28-.07-1.6-.09-2.96.4-4.07,1.44-.88.83-1.61,2.01-2.16,3.54.1-2.91.21-5.82.31-8.73,7.71.32,15.39.87,23.07,1.66-.31,2.89-.63,5.79-.94,8.68Z"/>
      <path class="cls-2" d="M146.94,52.34c-.62.46-1.07,1.06-1.38,1.8-.31.74-.57,1.84-.77,3.3-1.06,7.48-2.12,14.96-3.18,22.45-.21,1.5-.29,2.57-.24,3.23.05.66.29,1.32.71,2-3.29-.46-6.58-.88-9.88-1.27.57-.55.98-1.16,1.23-1.83.25-.67.45-1.7.62-3.11.88-7.51,1.75-15.01,2.63-22.52.18-1.53.24-2.64.18-3.3-.06-.67-.29-1.38-.69-2.14,3.6.4,7.2.87,10.78,1.39Z"/>
      <path class="cls-2" d="M160.44,83.93c-1.46.57-3.17.66-5.14.28-.78-.15-1.17-.22-1.96-.37.77-4.19,1.55-8.38,2.32-12.57.92.17,1.38.26,2.31.43.96.18,1.7.58,2.21,1.2.52.61.97,1.6,1.37,2.96.69-3.31,1.37-6.61,2.06-9.92-1.56,1.94-3.32,2.71-5.33,2.33-.78-.15-1.17-.22-1.95-.37.64-3.48,1.29-6.96,1.93-10.44.97.18,1.45.27,2.41.46,1.87.36,3.19.92,3.96,1.65.76.73,1.38,2.05,1.84,3.96.64-2.96.96-4.44,1.59-7.4-6.36-1.33-12.73-2.5-19.15-3.52.58.71.92,1.43,1.04,2.16.12.73.06,1.83-.17,3.29-1.18,7.5-2.37,14.99-3.55,22.49-.23,1.46-.54,2.53-.91,3.2-.38.67-.94,1.19-1.68,1.57,5.03.79,10.02,1.69,15.02,2.68,2.2.45,1.02,5.95,1.02,5.95,1.69-4.51,3.41-9.01,5.16-13.5-1.46,1.74-2.92,2.89-4.38,3.46Z"/>
      <path class="cls-2" d="M189.53,95.76c-1.03.14-2.14.02-3.36-.36-2.15-.67-3.68-1.51-4.6-2.55-1.15-1.3-1.99-3.45-2.56-6.45-.69-3.37-1.42-6.72-2.18-10.07-.87,3.35-1.74,6.69-2.61,10.04-.37,1.43-.54,2.51-.52,3.23.03.72.27,1.44.74,2.17-3.45-.92-6.92-1.77-10.4-2.56.71-.4,1.27-.94,1.67-1.62.4-.68.75-1.7,1.07-3.05,1.73-7.44,3.46-14.88,5.18-22.32.33-1.41.45-2.48.37-3.21-.08-.73-.38-1.43-.89-2.11,1.26.33,1.89.49,3.15.83,1.37.33,3.72.72,7.05,1.26,1.67.27,3.03.56,4.05.84,3.45.95,5.76,2.31,6.92,4,1.08,1.57,1.25,3.56.51,5.95-.55,1.78-1.58,3.25-3.05,4.41-1.48,1.17-3.15,1.72-5.03,1.68.39,2.14.58,3.21.94,5.35.61,3.63,1.17,7.3,2.05,10.87.53,2.15,1.03,3.38,1.5,3.67ZM185.13,69.07c1.04-3.68.15-5.93-2.66-6.68-.34-.09-.68-.15-1.02-.17-.34-.02-.65-.04-.93-.04-1.02,3.92-2.04,7.84-3.06,11.76,2.13.55,3.77.5,4.92-.2,1.15-.7,2.08-2.25,2.76-4.67Z"/>
    </g>
  </g>
</svg>