<?xml version="1.0" encoding="UTF-8"?>
<svg id="_デザイン" data-name="デザイン" xmlns="http://www.w3.org/2000/svg" width="400" height="149.468" version="1.1" viewBox="0 0 400 149.468">
  <!-- Generator: Adobe Illustrator 30.2.1, SVG Export Plug-In . SVG Version: 2.1.1 Build 1)  -->
  <path d="M398.144,2.93c-.442-.206-.903-.319-1.387-.319-.518,0-.909.129-1.132.192-.063.024-.166.061-.332.096-.951.219-1.913.411-2.899.577.092-1.703-1.043-2.75-1.837-3.114-.44-.205-.91-.315-1.395-.315-.523,0-.912.11-1.128.188-.072.024-.169.057-.332.097-7.965,1.837-16.661,1.837-29.811,1.837h-71.434c-11.182,0-20.883,1.998-28.845,5.934-2.744,1.362-5.281,2.945-7.603,4.767,1.599-2.583,2.115-4.767,2.209-5.212.111-.49.278-1.695-.271-2.882-.638-1.369-2.066-2.202-3.815-2.202-.127.009-.243.009-.335.009h-3.301c-.046-.12-.081-.247-.144-.383-.638-1.369-2.064-2.2-3.811-2.2-.129,0-.243,0-.337.014h-17.167c-3.585,0-6.848.87-9.721,2.569h-3.409c-.048-.12-.087-.247-.151-.383-.63-1.378-2.064-2.2-3.813-2.2-.131,0-.243,0-.328.014h-17.178c-7.637,0-13.808,3.931-17.848,11.366-1.288,2.363-2.2,4.819-2.849,7.115-.389-7.779-6.356-13.963-13.674-14.09-2.226-1.615-4.92-2.575-7.819-2.566-7.666-.009-13.909,6.662-13.909,14.868,0,6.081,3.503,11.167,8.394,13.48,1.745.807,3.516,1.299,5.276,1.205,3.835,3.419,15.113,5.068,20.307-5.829v65.679c0-.54-1.093-.429-1.093-.429,0,0-.048-27.358-.048-35.723s-1.52-9.885-4.052-12.166c-2.534-2.278-4.664-3.658-7.211-4.989-1.152-.713-2.46-.827-4.086-.326-1.533-1.559-5.51-6.116-14.031.531l-.013.018c-1.213.94-2.523,2.121-3.933,3.564-.087-.072-.158-.158-.241-.223-.494-.429-.957-.853-1.425-1.26-4.233-3.796-7.583-6.787-11.462-6.787-.348,0-.689.03-1.026.094-2.206-1.634-4.294-2.662-6.575-2.662-2.062,0-3.981.871-5.689,2.583-4.255,4.252-8.167,9.614-8.339,9.837-.38.538-.588,1.172-.588,1.837-.004.578.162,2.662,2.359,4.863,1.972,1.966,8.421,10.712,8.571,13.53.177,3.214-1.624,7.603-2.591,9.966-.125.309-.254.6-.35.862-.022.07-.07.151-.11.245l-13.366-27.058c-.002-.029-.015-.029-.02-.046-.49-.943-4.955-9.212-11.993-9.212-.302,0-.588.024-.888.046-1.837-1.478-4.091-2.619-6.704-2.619-6.835,0-12.375,9.424-13.412,11.326-.433.791-.503,1.741-.188,2.582.179.444,1.093,2.74,2.84,4.183.446.505,1.598,2.438,2.7,4.53l-5.578,12.442c-4.666-8.845-9.966-18.905-11.263-21.362-1.474-2.803-3.894-5.585-6.66-7.642-2.998-2.228-6.186-3.501-9.284-3.702-2.781-1.708-5.685-2.611-8.477-2.611-6.398,0-8.477,2.012-11.91,5.34-.433.411-.892.853-1.399,1.342-4.13,3.892-6.988,7.353-7.5,7.994-1.203,1.323-1.865,3.645-.569,5.823l.086.127c.616,1.045,1.782,2.976,4.296,2.976h.004c.883,0,1.782-.252,2.729-.804.083-.04.169-.097.262-.145.061.134.142.271.221.414l.083.125c.617,1.047,1.778,2.98,4.292,2.98.892.006,1.789-.254,2.733-.803.238-.131.516-.299.839-.498.389-.219,1.102-.647,1.882-1.069,2.078,4.699,20.768,43.797,22.217,46.853.293.728,1.087,2.22,3.081,3.866l.501.395c1.413,1.181,2.633,2.187,4.347,2.187.82,0,1.511-.223,2.101-.586.199.19.413.381.651.556l.487.424c1.417,1.159,2.637,2.174,4.356,2.174,2.678,0,4.001-2.44,4.706-3.763,1.073-1.988,9.354-17.514,15.292-28.65l13.375,26.916c1.281,2.816,2.574,4.688,4.747,4.688,1.163.009,2.233-.634,3.145-1.504,1.185,2.471,2.442,4.078,4.447,4.078,3.549-.009,6.208-5.919,6.234-5.972.739-1.655,15.47-29.711,25.191-48.165.022-.042.039-.096.063-.131.083-.188.829-1.801,1.493-4.132.328.158.673.317,1.041.411v36.043c0,8.252,2.584,10.983,4.346,11.886,4.229,3.682,7.406,5.554,9.446,5.545.538-.007,1.093-.062,1.655-.166,2.519,1.821,4.506,2.742,5.937,2.742,3.579,0,7.596-2.386,12.269-7.281.507.533,1.006.881,1.458,1.109,4.229,3.684,7.406,5.551,9.442,5.547.546,0,1.095-.056,1.653-.166,2.521,1.813,4.513,2.742,5.948,2.742,3.813-.011,8.147-2.72,13.222-8.318.511-.556,1.152-1.365,1.847-2.313.796,1.384,1.708,2.123,2.486,2.508,4.226,3.684,7.405,5.551,9.446,5.547.538.005,1.093-.056,1.651-.166,2.523,1.819,4.51,2.742,5.938,2.742,3.82,0,8.145-2.72,13.222-8.302.877-.966,2.119-2.652,3.394-4.516.579,10.5,3.876,20.103,9.446,27.31,5.438,7.032,13.008,11.764,22.235,14.011,6.009,2.672,12.962,4.058,20.707,4.058,18.789,0,34.562-6.542,45.602-18.892,10.495-11.757,16.268-28.311,16.766-48.017,1.695-.319,3.293-.704,4.763-1.119l.566,1.57c.896,4.286,3.131,5.077,4.41,5.186h.26c1.248,0,2.32-.555,3.174-1.614,1.028,3.404,2.991,4.089,4.161,4.174.086.007.177.007.261.007,2.433,0,4.204-2.09,4.989-5.908l7.74-35.011c.601-2.882-1.078-4.924-3.044-5.449-.396-.112-.795-.16-1.179-.16-1.379,0-2.507.643-3.26,1.489-.162-2.042-1.565-3.485-3.153-3.896-.4-.097-.796-.157-1.182-.157-1.999,0-3.477,1.364-4.071,2.733-3.792,8.412-10.436,12.877-17.121,15.201-2.438-8.383-6.503-15.699-12.135-21.8-3.245-3.51-6.927-6.542-11.023-9.109l34.44.015c29.591,0,36.157-16.537,37.473-21.608l.015-.048c.695-2.329-.719-3.691-1.67-4.126ZM146.244,28.491c-5.963,0-10.806-5.274-10.804-11.786-.002-6.511,4.836-11.779,10.812-11.779,5.967.007,10.815,5.267,10.815,11.779-.009,6.512-4.847,11.786-10.823,11.786ZM122.675,58.748s-24.297,46.163-25.272,48.349c-.973,2.178-2.775,4.133-3.404,4.126-.63,0-1.937-2.921-1.937-2.921l-20.412-41.061s-19.689,36.935-21.39,40.095c-1.697,3.159-2.182,2.425-4.861.238-1.86-1.522-2.184-2.678-2.184-2.678,0,0-21.133-44.214-22.349-47.129-1.218-2.932-4.128-4.627-6.317-5.339-2.191-.737-6.559,2.18-8.267,3.153-1.694.966-2.18,0-2.917-1.22-.724-1.22.247-2.187.247-2.187,0,0,2.917-3.643,7.288-7.777,4.379-4.129,5.342-5.838,11.186-5.838,5.827.009,11.663,5.108,14.09,9.734,2.427,4.609,18.951,35.962,18.951,35.962l11.663-26.013s-2.919-5.814-4.135-6.796c-1.212-.967-1.94-2.906-1.94-2.906,0,0,5.346-9.734,10.688-9.719,5.348,0,9.236,7.526,9.236,7.526l20.166,40.823s5.587-9.227,6.555-11.661c.981-2.429,3.406-7.777,3.164-12.151-.24-4.37-8.015-14.099-9.472-15.557-1.458-1.454-1.458-2.662-1.458-2.662,0,0,3.89-5.352,8.011-9.481,4.137-4.132,8.02,0,14.342,5.593,6.323,5.582.728,17.497.728,17.497ZM165.922,96.656l-5.582,5.34c-2.429,2.678-7.047,7.287-10.934,7.287-1.997,0-7.78-5.101-7.78-5.101,0,0-2.911-.737-2.911-9.234v-42.283c0-6.813-4.13-4.364-4.13-4.364,0,0-3.647,3.153-4.377,4.364-.731,1.229-1.701.728-2.917-.238-1.209-.973.245-2.193.245-2.193l5.591-5.333c2.425-2.683,7.043-7.301,10.935-7.294,1.988-.007,7.779,5.101,7.779,5.101,0,0,2.91.721,2.91,9.227v42.281c0,6.807,4.135,4.373,4.135,4.373,0,0,3.638-3.153,4.369-4.373.728-1.2,1.695-.728,2.915.239,1.212.982-.247,2.202-.247,2.202ZM201.006,27.159v60.397c-.308-.26-.643-.496-1.039-.704-.498-.26-1.064-.396-1.648-.396-.654,0-1.266.175-1.837.451l.004-60.578c0-2.941,2.403-3.811,3.066-4.001.688-.094,1.355-.205,2-.33-.389,2.13-.54,3.958-.546,5.162ZM191.347,16.718s-5.582,1.207-5.582,7.034-.011,64.882-.002,67.549c-.009,2.688,1.452,6.085,5.344,3.407l5.471-4.126s1.323-1.29,1.938-.973c1.48.774,1.093,1.939,1.093,1.939,0,0-6.076,9.72-8.504,12.396-2.431,2.672-7.054,7.286-10.939,7.286-1.996,0-7.78-5.099-7.78-5.099,0,0-2.906-.728-2.906-9.236V27.159c0-6.068,3.894-24.054,18.955-24.047h17.287s.995-.103,1.212.396c.19.389.063.942.063.942,0,0-2.04,10.568-15.649,12.269ZM234.197,91.555s-6.064,9.713-8.493,12.389c-2.438,2.679-7.053,7.286-10.937,7.286-1.996,0-7.78-5.099-7.78-5.099,0,0-2.917-.728-2.914-9.236V27.159c0-6.068,3.894-24.047,18.961-24.047s17.283.007,17.283.007c0,0,.986-.109,1.213.389.18.407.064.942.064.942,0,0-2.043,10.568-15.647,12.269,0,0-5.587,1.207-5.582,7.045-.004,5.836-.009,64.87-.009,67.538,0,2.688,1.452,6.085,5.348,3.407l5.456-4.119s1.338-1.297,1.948-.98c1.489.774,1.089,1.946,1.089,1.946ZM240.479,89.038c-1.233,0-2.353.61-3.201,1.283-.252-1.283-1.089-2.606-2.749-3.463-.498-.258-1.069-.403-1.646-.403-.645,0-1.271.175-1.835.444V26.328c0-2.906,2.362-3.796,3.079-4.001,3.82-.496,6.855-1.616,9.26-3.024-.761.901-1.482,1.852-2.165,2.834-7.795,11.234-8.477,23.497-8.51,26.986-.008.927-.026,3.352,2.314,4.192.348.127.713.19,1.088.19,2.182,0,3.051-1.854,3.569-2.962.118-.254.234-.508.341-.698.125-.236.26-.459.391-.695-.079,1.076-.098,1.941-.112,2.55-.004.912-.019,3.341,2.318,4.183.354.133.717.19,1.084.19,2.182,0,3.055-1.854,3.575-2.974.116-.243.232-.481.339-.686,8.3-15.428,25.401-20.838,35.057-22.679,3.962.024,7.66.422,11.082,1.198,3.809,1.773,7.167,4.165,10.045,7.141,5.564,5.785,9.4,13.816,11.429,23.908h-33.161c-17.431-.009-27.67,7.285-33.196,13.403-3.538,3.927-6.269,8.681-7.977,13.67-.144-.015-.278-.015-.42-.015ZM389.206,3.755c-1.286,4.998-7.568,19.285-34.48,19.285-17.173,0-34.884-.015-48.46-.015,16.944,5.554,31.838,18.708,35.778,41.728,9.726-1.093,22.784-5.355,28.963-19.106,0,0,.463-1.124,1.603-.823,1.121.302.809,1.813.809,1.813l-7.729,34.994s-.73,3.557-2.001,3.461c-1.089-.07-1.646-2.912-1.646-2.912l-3.422-9.57s-6.603,3.549-15.562,4.738c-.035,40.998-22.873,66.449-59.292,66.449-32.005,0-41.794-23.778-41.783-43.013,0-14.573,11.175-35.707,40.088-35.707h36.847c-3.505-23.024-16.126-41.006-44.118-41.022l-.011.015c-11.503,2.147-28.901,8.335-37.499,24.31-.487.91-.909,2.121-1.224,2.02-.169-.064-.265-.284-.254-1.251.068-8.777,4.264-43.899,50.642-43.899,52.971.015,62.69.015,71.434.015,13.519,0,22.301-.03,30.507-1.907.647-.157.713-.254.849-.184.149.057.033.306-.039.579Z" fill="#fff"/>
  <path d="M253.201,101.869c-2.064,15.666,8.036,34.093,33.675,32.969,22.574-.999,33.102-25.301,33.102-54.941,0-.728-.004-1.456-.019-2.186l-31.807-.109c-20.376.381-32.518,5.799-34.95,24.268ZM316.827,83.351c-.379,13.386-3.009,24.822-7.655,33.26-5.291,9.608-12.841,14.691-22.438,15.122-3.428.157-6.654-.081-9.63-.667-2.808-1.426-5.25-3.295-7.277-5.608-4.725-5.385-6.953-13.084-5.961-20.608,1.056-8.051,4.028-13.356,9.326-16.708,4.961-3.12,12.131-4.681,22.578-4.869l21.056.078Z" fill="#fff"/>
</svg>