<?xml version="1.0" encoding="UTF-8"?>
<svg id="_レイヤー_2" data-name="レイヤー 2" xmlns="http://www.w3.org/2000/svg" xmlns:xlink="http://www.w3.org/1999/xlink" viewBox="0 0 162.43 142.95">
  <defs>
    <style>
      .cls-1 {
        fill: none;
      }

      .cls-2 {
        fill: #231815;
      }

      .cls-3 {
        fill: #fff;
      }

      .cls-4 {
        clip-path: url(#clippath);
      }
    </style>
    <clipPath id="clippath">
      <circle class="cls-1" cx="81.39" cy="71.47" r="68.81" transform="translate(-21.84 104.27) rotate(-58.91)"/>
    </clipPath>
  </defs>
  <g class="cls-4">
    <g>
      <g>
        <path class="cls-2" d="M94.6,141.02c-17.58-14.04-32.7-43.75-37.17-64.35-4.46-20.6-2.99-53.91,7.2-73.97l.8.41c-10.1,19.88-11.55,52.92-7.12,73.37,4.43,20.45,19.42,49.92,36.85,63.84l-.56.71Z"/>
        <path class="cls-2" d="M93.21,139.76c-22.51-2.38-51.21-25.31-58.34-58.21-3.23-14.93-1.71-31.3,4.28-46.1,5.57-13.75,14.58-25.06,24.74-31.03l.46.78c-19.24,11.32-35.64,43.66-28.59,76.16,5.48,25.31,29.05,54.49,57.55,57.5l-.09.9Z"/>
        <path class="cls-2" d="M96.32,139l-.72-.54c12.21-16.41,11.74-52.48,7.57-71.7S84.51,14.5,66.6,4.62l.44-.79c11.05,6.1,29.83,29.6,37.02,62.74,7.18,33.14-.2,62.31-7.73,72.43Z"/>
        <path class="cls-2" d="M98.06,139.28l-.52-.74c29.61-21.05,34.73-53.57,29.66-77-5.07-23.42-23.2-50.91-58.87-57.82l.17-.89c36.09,6.99,54.44,34.81,59.58,58.51,5.14,23.7-.05,56.62-30.02,77.92Z"/>
      </g>
      <rect class="cls-2" x="80.94" y="-5.69" width=".9" height="154.32" transform="translate(-13.29 18.85) rotate(-12.22)"/>
      <path class="cls-2" d="M40.25,51.67c-10.65,0-20.19-.76-25.41-2.14l.23-.87c9.93,2.63,40.66,3.35,61.14-1.08,20.48-4.44,48.15-17.81,56.11-24.32l.57.7c-8.99,7.35-37.38,20.36-56.49,24.5-10.22,2.21-23.91,3.22-36.15,3.22Z"/>
      <path class="cls-2" d="M53.44,26.59c-7.98,0-13.8-1.56-19.83-3.18l-1.79-.48.23-.87,1.79.48c9.64,2.59,18.74,5.03,37.17,1.04,18.42-3.99,25.7-9.98,33.4-16.32l1.44-1.18.57.7-1.43,1.18c-7.79,6.41-15.15,12.47-33.79,16.51-7.11,1.54-12.84,2.13-17.76,2.13Z"/>
      <rect class="cls-2" x="4.23" y="71.02" width="154.32" height=".9" transform="translate(-13.3 18.87) rotate(-12.23)"/>
      <g>
        <path class="cls-2" d="M30.46,119.69l-.57-.7c8.99-7.35,37.38-20.36,56.49-24.5,19.1-4.14,50.34-4.05,61.56-1.08l-.23.87c-9.93-2.63-40.66-3.35-61.14,1.08-20.48,4.44-48.15,17.81-56.11,24.32Z"/>
        <path class="cls-2" d="M56.92,136.86l-.57-.7,1.43-1.18c7.79-6.41,15.15-12.47,33.79-16.51,18.64-4.04,27.85-1.57,37.59,1.05l1.79.48-.23.87-1.79-.48c-9.64-2.59-18.74-5.03-37.17-1.04-18.43,3.99-25.7,9.98-33.4,16.33l-1.43,1.18Z"/>
      </g>
    </g>
  </g>
  <g>
    <polygon class="cls-3" points="59.79 18.15 59.78 18.15 59.77 18.15 59.77 18.15 59.79 18.15"/>
    <polygon points="59.79 18.15 59.78 18.15 59.77 18.15 59.77 18.15 59.79 18.15"/>
    <polygon class="cls-3" points="59.81 18.15 59.79 18.15 59.79 18.15 59.81 18.15 59.81 18.15"/>
    <polygon points="59.81 18.15 59.79 18.15 59.79 18.15 59.81 18.15 59.81 18.15"/>
    <path d="M159.31,62.92c1.61-3.07.72-7.07-.12-8.7-.84-1.63-2-.35-2.1,1.35-.11,1.7-.21,2.55-1.33,1.17s1.54-4.72-.27-8.23c-1.81-3.5-2.87-2.02-3.24-1.06-.37.96.16,6.64,0,6.85-.11.15-.82-.12-1.36-.61-.22-.85-.46-1.7-.71-2.54-.04-1.8.04-4.31-.1-5.08-.2-1.11-1.18-2.34-2.61-3.08-.13-.07-.25-.13-.36-.19C136.05,17.62,110.88,0,81.66,0S28.02,17.1,16.7,41.68c-.94-1.6-2.05-2.46-2.62-2.51-.88-.08-1.63.8-1.51,7.35.12,6.55-.84,1.79-.82,1.17.02-.62-.62-2.85-.62-2.85-2.35-5.95-2.87,3.19-2.83,4.72.04,1.53-.14,1.99-.46,2.01-.32.02-.46-.7-.66-1.43-.2-.74-1.04-.73-1.04-.73-3.4.21-2.02,12-2.23,12.53-.21.53-1.06,2.76-3.61,23.57-2.55,20.81,11.18,33.77,13.17,33.82,1.99.05,1.51-8.1,3.56-8.12,2.04-.03,6.33,11.48,6.9,12.71.37.8,2.64,1.75,2.64,1.75,2.87,1.67,2.95.84,2.95.84.31-.12,1.22-1.75,2.38-3.77,12.88,12.5,30.43,20.22,49.76,20.22,20.6,0,39.18-8.76,52.24-22.74,1.35.51,5.03-1.66,5.74-1.94.84-.34,1.69-2.09,1.69-2.09l4.26-8.39c.48-.61,2.84-7.09,2.73-1.04-.11,6.05,2.07.42,2.07.42,6-12.37,11.82-32.39,12.02-38.76.2-6.37-4.72-2.43-3.11-5.49ZM138.19,102.36c.29-1.35,1.51-7.61,3.72-7.86,2.21-.26,2.31-.44,1.1,2.09-1.21,2.53-3.9,7.96-3.9,7.96,0,0-.6,1.39-1.06,1.35-.46-.04-.17-2.11.14-3.54ZM81.66,2.71c34.96,0,63.91,26.22,68.21,60.03.42,5.04.19,9.01-.43,10.3-1.49,3.08-2.76,12.85-2.76,12.85,0,0-2.46.97-5.63,2.19.17-.35.33-.71.47-1.09,1.55-4.11.81-8.2-1.66-9.13-2.47-.93-5.73,1.64-7.29,5.75-1.12,2.96-1.04,5.91.02,7.67-2.18.81-3.99,1.44-4.81,1.66-1.64.44-5.51.65-9.39.73,1.62-1.15,2.68-3.05,2.68-5.19,0-3.52-2.85-6.37-6.37-6.37s-6.37,2.85-6.37,6.37c0,2.14,1.06,4.02,2.67,5.18-.34,0-.66-.02-.95-.03-2.6-.09-10.95.16-17.44.4,1.61-1.16,2.66-3.04,2.66-5.17,0-3.52-2.85-6.37-6.37-6.37s-6.37,2.85-6.37,6.37c0,2.3,1.22,4.31,3.05,5.43-.8.03-1.28.05-1.28.05,0,0-9.37.25-15.53.78-.33.03-.71.05-1.1.08,1.81-1.12,3.02-3.12,3.02-5.41,0-3.52-2.85-6.37-6.37-6.37s-6.37,2.85-6.37,6.37c0,2.38,1.3,4.45,3.23,5.54-7.05-.01-15.3-.34-15.3-.34-1.19-.06-2.31-.13-3.38-.21,2.12-1.04,3.58-3.2,3.58-5.72,0-3.52-2.85-6.37-6.37-6.37s-6.37,2.85-6.37,6.37c0,2.08,1,3.92,2.54,5.08-10.43-1.33-12.39-3.44-14.84-4.6-3.08-1.46-2.73-2.71-2.73-2.71.58-2.71,4.14-5.47,1.7-10.19-2.37-4.58-6.77-2.38-7.05-2.24-.04-.97-.07-1.95-.07-2.93C12.9,33.56,43.75,2.71,81.66,2.71ZM128.47,100.87c-.64,1.4-2.48,5.93-2.81,6.44-.33.5-5.57,10.13-7.06,9.83,0,0-.48.02-.74-.97-.27-.99-1.81-6.91-1.33-8.52.48-1.62,1.11-6.81,4.19-6.78,0,0,3.61-.25,7.54-1.24,0,0,.85-.16.21,1.24ZM107.21,108.27c-.56,1.16-2.85,4.33-2.98,4.51-.14.17-3.19,4.42-3.19,4.42,0,0-.26.38-.67.38h0c-.41-.04-.63-.44-.63-.44,0,0-2.68-4.5-2.8-4.68-.12-.18-2.37-3.47-2.59-4.75-.22-1.28-.24-5.59.51-6.06,0,0,.98-1.01,7.72-.91,0,0,4.94-.32,5.1.96.16,1.27.13,5.36-.46,6.57ZM84.64,108.69c-.28,1.5-2.8,5.28-2.94,5.49-.13.21-3.16,5.4-3.16,5.4,0,0-.25.46-.69.49h-.05c-.43-.03-.78-.49-.78-.49-4.95-5.65-6.01-9.09-6.01-9.09-.28-1.5-.49-8.41.28-9.01.75-.58,6.27-.51,6.52-.51h.01c.25,0,5.77-.08,6.52.51.77.6.56,5.7.28,7.2ZM46.15,101.49c.75-.58,6.27-.51,6.52-.51h.01c.25,0,5.77-.08,6.52.51.77.6.33,7.49.28,9.01,0,0-.83,3.71-4.29,9.99,0,0-.25.46-.69.49h-.05c-.43-.03-.69-.31-.69-.31-8.12-7.7-7.99-10.17-7.99-10.17-.28-1.5-.4-8.41.37-9.01ZM31.18,111.94c-.1.14-1.31,2.66-1.95,3.98-2.02-2.38-3.88-4.9-5.57-7.54-.55-1.12-1.06-2.33-1.06-3.01,0-1.47-.33-6.39.37-6.87.7-.48,5.28.3,5.28.3h0s4.61.63,5.13,1.3c.52.67.5,5.53.05,6.93-.45,1.4-2.12,4.71-2.26,4.9ZM8.9,65.36s.42.98.25,1.79c-.17.81-.4,1.26-.82.31,0,0-.21-.35-.2-1.21,0,0,.23-2.27.77-.89ZM7.57,78.25c.72.46,2.11,1.09,2.15,1.57.04.48.4,3.92-.34,3.09-.74-.84-1.67-1.55-1.99-2.53,0,0-.54-2.59.18-2.13ZM8.94,104.22c-.32-.05-2.52-6.66-3.33-8.49-.81-1.83-.47-3.85-.22-5.6.24-1.75,2.4.64,2.4.64,1.76,1.99,2.15,3.19,2.15,3.19,1.1,5.02-.69,10.33-1,10.27ZM81.66,140.24c-18.83,0-35.92-7.61-48.35-19.92,1.71-2.84,3.61-5.61,4.89-5.73,2.63-.24,11.93,12.29,11.93,12.29,2.02,3.19,4.08,2.75,6.59,2.55,2.51-.2,3.71-4.01,3.71-4.01,3.36-8.2,3.6-8.8,4.36-8.92.76-.12,2.71,2.47,6.13,6.45,3.42,3.98,3.62,3.54,9.36,3.38,5.73-.16,6.93-11.59,9.32-11.82,2.39-.24,5.46,11.15,9.56,11.19,4.1.04,7.01-9.81,10.55-9.93,3.54-.12,2.33,9.49,7.05,9.38,4.72-.12,3.44-.26,8.84-7.6,5.4-7.35,5.34-7.7,5.87-7.72.4-.01,1.02,4.34,1.5,7.38-12.6,14.13-30.94,23.04-51.32,23.04ZM156.3,66.68s-.2,1.62-.86,1.66c-.66.04-.08-3.11.24-3.08.32.03.7.96.62,1.41Z"/>
  </g>
  <g>
    <path class="cls-2" d="M88.03,14.95l-3.84,45.73h-10.82c-.99-7.02-1.87-15.01-2.63-23.97-.34,3.84-1.15,11.83-2.41,23.98h-10.75s-3.89-45.72-3.89-45.72h8.42s.92,15.95.92,15.95l.89,15.42c.32-7.98,1.11-18.44,2.38-31.38h9c.12,1.34.44,6.36.95,15.08l.96,17.4c.49-11.07,1.29-21.9,2.41-32.48h8.42Z"/>
    <path class="cls-2" d="M88.6,34.06h22.3s0,9.14,0,9.14h-13.64s0,8.68,0,8.68h12.98s0,8.69,0,8.69h-12.98s0,19.21,0,19.21h-8.66s-.01-45.72-.01-45.72Z"/>
  </g>
</svg>