<?xml version="1.0" encoding="UTF-8"?>
<svg id="_レイヤー_2" data-name="レイヤー 2" xmlns="http://www.w3.org/2000/svg" viewBox="0 0 168.85 128.84">
  <defs>
    <style>
      .cls-1 {
        fill: #23ab3a;
      }

      .cls-2 {
        fill: #231815;
      }

      .cls-3 {
        fill: #fff;
      }

      .cls-4 {
        fill: #feef12;
      }
    </style>
  </defs>
  <path class="cls-4" d="M84.43,128.84C37.8,128.84,0,111.33,0,89.72c0-14.89,17.95-27.83,44.36-34.44.13-4.07-2.02-8.12-5.05-11.29,5.76,1.13,13.07,4.76,17.72,8.72,8.6-1.37,17.81-2.12,27.4-2.12,46.63,0,84.42,17.52,84.42,39.12s-37.8,39.12-84.42,39.12Z"/>
  <g>
    <path class="cls-2" d="M33.61,67.19v2.66h3.06v4.98h-.7v-.35h-6.5v-.64h6.5v-1.37h-6.14v-.66h6.14v-1.33h-6.39v-.63h3.32v-2.66h.71ZM31.19,69.55c-.3-.6-.81-1.34-1.23-1.83l.55-.38c.49.54.88,1.11,1.28,1.84l-.6.37ZM34.68,69.2c.42-.48.94-1.22,1.21-1.86l.67.35c-.3.58-.86,1.39-1.32,1.9l-.57-.39Z"/>
    <path class="cls-2" d="M40.12,74.84h-.67v-3.33c-.52.48-.9.72-1.13.87l-.28-.67c1.37-.82,2.13-1.88,2.41-2.55h-2.3v-.62h1.3v-1.34h.67v1.34h1.06v.62c-.08.2-.3.71-.9,1.46.44.5.72.75,1.18,1.08l-.37.6c-.44-.35-.53-.45-.98-.99v3.53ZM43.76,67.2v2.38h1.81v.67h-1.81v3.62h2v.67h-4.79v-.67h2.11v-3.62h-1.72v-.67h1.72v-2.38h.69Z"/>
    <path class="cls-2" d="M48.41,67.57c-.11.57-.35,1.81-.35,3.79,0,1.6.17,2.48.27,2.98l-.73.11c-.08-.3-.26-.99-.26-2.99s.2-3.36.29-3.97l.79.08ZM51.73,68.94l-.02-1.44h.72l.02,1.44h1.61v.69h-1.59l.02,2.26c.77.39,1.14.69,1.74,1.25l-.49.66c-.48-.58-.92-.9-1.25-1.13v.23c0,.42,0,1.53-1.67,1.53-1.38,0-1.74-.89-1.74-1.41,0-.83.74-1.48,1.84-1.48.29,0,.57.03.85.12l-.03-2.02h-2.57v-.69h2.55ZM51.79,72.32c-.2-.08-.42-.17-.83-.17-.77,0-1.19.37-1.19.86,0,.27.14.8,1.1.8s.92-.63.92-.9v-.58Z"/>
    <path class="cls-2" d="M58.95,73.82c-.16-.26-.39-.63-1.01-1.4-.62,1.1-1.45,1.82-1.97,2.25l-.46-.61c.46-.34,1.29-1,1.94-2.2-.81-.86-1.36-1.28-1.63-1.49l.48-.48c.64.53,1.07.92,1.46,1.32.17-.43.39-1.05.49-2.13h-2.64v-.66h1.65v-1.24h.68v1.24h1.54v.66h-.53c-.17,1.48-.49,2.28-.67,2.67.36.39.87.99,1.25,1.63l-.57.43ZM60.51,72.83c-.25-.74-.63-1.53-1.09-2.2l.62-.33c.55.81.92,1.65,1.13,2.2l-.67.32ZM62.46,68.77h.76v.68h-.76v4.67c0,.44-.19.71-.84.71h-1.25l-.17-.71h1.3c.2,0,.26.02.26-.18v-4.49h-2.13v-.68h2.13v-1.58h.7v1.58Z"/>
    <path class="cls-2" d="M64.25,74.02c2.15-.38,3.36-1.01,4.14-1.56-.02-.08-.07-.19-.17-.37-.65.45-1.94,1.07-3.68,1.41l-.22-.6c1.86-.24,3.04-.88,3.58-1.22-.09-.1-.17-.17-.3-.26-1.09.53-2,.76-3,.92l-.21-.58c.49-.07,2.06-.3,3.19-.97h-2.67v-1.61c-.25.12-.26.12-.44.19l-.3-.58c1.04-.31,1.92-.89,2.53-1.64l.72.14c-.12.16-.19.23-.31.37h3v.53c-.19.22-.3.32-.63.61h1.87v1.98h-2.33c.23.54.39.8.52.99.68-.35,1.06-.71,1.28-.91l.52.44c-.52.44-1.26.84-1.46.95.82,1.04,1.74,1.46,2.14,1.63l-.39.63c-1.34-.78-2.43-1.65-3.16-3.65-.22.17-.33.24-.42.29.69.52,1.15,1.32,1.15,2.4s-.31,1.29-1.07,1.29h-.83l-.14-.66h.83c.41,0,.56-.08.56-.64,0-.02,0-.22-.05-.53-1.42.97-3.05,1.39-4.05,1.61l-.22-.6ZM67.81,69.32h-2.25v.93h2.25v-.93ZM66.55,68.19c-.25.2-.51.39-.9.62h2.87c.32-.25.45-.36.67-.62h-2.64ZM70.71,69.32h-2.28v.93h2.28v-.93Z"/>
    <path class="cls-2" d="M75.85,67.49c-.04.35-.1.75-.21,1.49h.95c1.25-.02,1.7.65,1.7,2.11,0,.76-.16,2.43-.63,2.91-.35.35-.76.44-1.14.44-.48,0-1.05-.15-1.4-.24l.06-.72c.4.12.9.26,1.23.26s.66-.1.81-.42c.26-.58.34-1.9.34-2.36,0-.84-.16-1.35-1.01-1.33l-1.02.02c-.5,2.74-1.19,4-1.6,4.73l-.69-.3c.49-.78,1-1.64,1.55-4.42l-1.51.02v-.7s1.64-.02,1.64-.02c.15-.9.16-1.26.16-1.5l.79.02ZM79.06,68.77c-.29-.78-.49-1.09-.6-1.28l.53-.17c.25.35.49.85.63,1.25l-.57.2ZM79.71,72.1c-.11-1.92-.74-2.57-.98-2.82l.68-.29c.55.64.95,1.36,1.11,3.02l-.81.09ZM80.13,68.58c-.12-.37-.39-.91-.61-1.26l.54-.17c.3.46.46.82.62,1.24l-.55.19Z"/>
    <path class="cls-2" d="M84.34,67.48c-.02.29-.06.56-.13,1.09h2.29v.69h-2.38c-.21,1.12-.68,3.68-1.43,5.31l-.75-.25c.78-1.51,1.24-3.99,1.41-5.06h-1.22v-.69h1.31c.05-.44.07-.83.08-1.13l.82.04ZM85.97,71.97c-.38.54-.49.69-.49.98,0,.73.78.83,1.91.83.9,0,1.41-.05,1.68-.07v.73c-.32.02-.58.03-1.25.03-1.2,0-3.03,0-3.03-1.47,0-.53.21-.87.62-1.39l.56.36ZM88.91,70.34c-.19-.02-.39-.02-.7-.02-.79,0-1.79.1-2.51.39l-.22-.63c.83-.31,1.58-.49,3.43-.47v.74Z"/>
    <path class="cls-2" d="M93.88,67.44c-.02.58-.03.99-.03,1.57,0,.64.12.86.2,1.01.53-.17,1.42-.45,3.04-.68l.08.77c-1.3.15-2.48.39-3.43.75-.54.21-1.91.75-1.91,1.79s1.07,1.09,3.08,1.09c1.34,0,2.11-.08,2.52-.13v.76c-.5.06-.81.09-2,.09-2.21,0-2.76-.12-3.34-.34-.67-.25-1.02-.8-1.02-1.4,0-1.22,1.17-2.02,2.31-2.47-.28-.44-.3-.58-.31-2.83h.8Z"/>
    <path class="cls-2" d="M104.8,69.23v.62c-.62.53-1.23,1.07-1.85,1.6.17-.05.25-.06.34-.06.7,0,.8.65.8,1.21v.34c0,.77.18.87,1.07.87.6,0,.97-.04,1.26-.07l.02.72c-.27.03-.58.05-1.18.05-1.02,0-1.88-.02-1.88-1.37v-.44c0-.45-.04-.72-.46-.72s-.68.2-.86.34c-.35.33-1.86,1.86-2.17,2.16l-.52-.56c.36-.33,1.93-1.83,2.26-2.14,1.02-.96,1.77-1.6,2.11-1.91l-3.78.07v-.71h4.85ZM104.83,68.65c-.59-.21-1.52-.49-3.94-.62l.11-.67c1.36.05,2.71.19,4.02.58l-.19.72Z"/>
    <path class="cls-2" d="M115.49,70.53v.78h-7.61v-.78h7.61Z"/>
    <path class="cls-2" d="M118.04,73.33c.31.02.53.02.86.02.94,0,2.86,0,3.77-1.04.36-.41.52-.9.52-1.4,0-.64-.23-1.88-2.01-1.88-.86,0-2.1.26-2.96.44-.77.16-1.04.24-1.3.3l-.14-.82c.32-.04,1.19-.19,2.11-.34.67-.12,1.59-.28,2.3-.28,1.99,0,2.8,1.26,2.8,2.58,0,1.74-1.26,2.45-2.38,2.81-.92.3-2.09.34-3.44.3l-.14-.71Z"/>
    <path class="cls-2" d="M132.61,68.58c-.26-.02-.52-.03-.85-.03-.45,0-.58.04-.76.1-1.56.51-3.08,1.84-3.08,3.26,0,1.03.83,1.55,2.24,1.73.74.1,1.32.08,1.69.07l-.11.79c-1.74-.03-2.7-.25-3.49-.67-.66-.36-1.09-1.11-1.09-1.84,0-1.5,1.22-2.67,2.52-3.4-1.62.07-2.4.14-4.14.28l-.04-.76c.68,0,4.42-.21,5.25-.22.23,0,1.68-.04,1.84-.05l.02.76ZM131.21,71.04c-.08-.17-.34-.7-.72-1.2l.49-.26c.4.49.61.9.74,1.17l-.52.3ZM132.19,70.56c-.29-.52-.4-.73-.72-1.13l.51-.26c.21.25.57.75.72,1.09l-.52.3Z"/>
    <path class="cls-2" d="M136.1,67.48h.75l-.06,1.17h2.64v.68h-2.68l-.07,1.55h.94c1.23,0,1.58-.25,1.79-.39l.27.63c-.21.14-.61.42-2.11.42h-.9c0,1.88,0,2.27,1.74,2.27.95,0,1.3-.15,1.53-.3.36-.24.65-.71.65-1.3,0-.19,0-.78-.51-1.6l.64-.3c.18.27.62.91.62,1.86,0,2.33-2.16,2.33-2.87,2.33-2.47,0-2.52-.91-2.52-2.95h-1.55v-.67h1.58l.07-1.55h-1.51v-.68h1.54l.06-1.17Z"/>
    <path class="cls-2" d="M144.36,74.58c-.58-.88-1.09-1.41-1.37-1.7l.62-.46c.54.49,1.12,1.18,1.46,1.65l-.72.51Z"/>
    <path class="cls-2" d="M32.53,80.84c.16-.35.3-.82.32-.91l.67.15c-.1.27-.21.54-.32.76h3.11v6.75h-.69v-.48h-4.75v.48h-.68v-6.75h2.34ZM30.88,82.69h4.75v-1.22h-4.75v1.22ZM30.88,84.53h4.75v-1.23h-4.75v1.23ZM35.62,85.14h-4.75v1.34h4.75v-1.34Z"/>
    <path class="cls-2" d="M40.12,87.6h-.67v-3.33c-.52.48-.9.72-1.13.87l-.28-.67c1.37-.82,2.13-1.88,2.41-2.55h-2.3v-.62h1.3v-1.34h.67v1.34h1.06v.62c-.08.2-.3.71-.9,1.46.44.5.72.75,1.18,1.08l-.37.6c-.44-.35-.53-.45-.98-.99v3.53ZM43.76,79.96v2.38h1.81v.67h-1.81v3.62h2v.67h-4.79v-.67h2.11v-3.62h-1.72v-.67h1.72v-2.38h.69Z"/>
    <path class="cls-2" d="M50.04,80.16v2.18c1.85.52,3.18,1.24,4.19,1.83l-.39.73c-1.5-.9-2.32-1.29-3.8-1.8v4.31h-.79v-7.25h.79Z"/>
    <path class="cls-2" d="M62.65,82.48c-.29,2.53-1.23,4.4-5.35,4.82l-.3-.68c2.4-.22,4.38-.83,4.79-3.45h-5.76v-.69h6.64ZM62.19,80.52v.69h-5.58v-.69h5.58Z"/>
    <path class="cls-2" d="M66.08,84.49c-.16-.9-.44-1.54-.66-1.97l.65-.18c.44.89.61,1.54.71,1.98l-.7.17ZM66.09,86.76c2.63-.57,3.65-1.67,4.14-4.61l.72.12c-.48,2.36-1.18,4.32-4.57,5.09l-.29-.61ZM67.86,84.15c-.07-.49-.21-1.18-.54-1.95l.66-.16c.39,1.04.47,1.27.58,1.94l-.69.16Z"/>
    <path class="cls-2" d="M80.03,81.32c-.6,3.41-2.36,5.43-5.82,6.01l-.31-.68c3.31-.55,4.54-2.2,5.17-4.64h-3.14c-.5.62-1.24,1.48-2.01,1.95l-.47-.57c1.57-1,2.3-2.29,2.69-3.27l.81.15c-.12.3-.2.49-.53,1.05h3.62Z"/>
    <path class="cls-2" d="M83.45,80.39c-.25,1.21-.35,2.43-.35,3.69,0,1.1.07,2.14.3,3.08l-.76.09c-.13-.53-.28-1.15-.28-3.02,0-2.21.22-3.41.31-3.92l.78.07ZM85.56,84.01c-.14.2-.39.57-.39,1.08,0,.72.5.95,1.83.95.41,0,1.13,0,1.83-.08v.74c-.3.02-.72.07-1.51.07-1.04,0-2.87,0-2.87-1.62,0-.66.31-1.18.45-1.42l.66.29ZM88.67,80.95v.71h-3.98v-.71h3.98Z"/>
    <path class="cls-2" d="M94.61,82.29h3.06v.66h-3.06v1.28h3.46v.65h-3.46v1.97c0,.34-.13.74-.71.74h-1.65l-.13-.69h1.51c.1,0,.27,0,.27-.23v-1.79h-3.47v-.65h3.47v-1.28h-3.07v-.66h3.07v-1.24c-1.48.09-2.41.1-3.07.1l-.07-.67c2.9.02,4.79-.15,6.52-.52l.2.65c-.41.09-1.23.25-2.88.39v1.29Z"/>
    <path class="cls-2" d="M100.94,82.06h.77v.62h-.77v.2c.15.37.46.99,1.13,1.67l-.38.6c-.43-.61-.67-1.14-.75-1.35v3.8h-.64v-3.52c-.34,1.04-.72,1.56-.95,1.86l-.35-.71c.68-.78,1.11-1.97,1.26-2.55h-1.09v-.62h1.12v-1.16c-.46.08-.76.1-1.01.12l-.11-.6c.69,0,1.81-.2,2.47-.44l.22.54c-.17.08-.3.14-.93.26v1.28ZM101.57,87.05c.32-.09,1.14-.33,1.75-.74l.43.42c-.55.41-1.34.72-1.85.86l-.33-.54ZM104.62,79.97v.44h1.98v.5h-1.98v.46h1.74v.44h-1.74v.47h2.14v.51h-4.86v-.51h2.06v-.47h-1.7v-.44h1.7v-.46h-1.92v-.5h1.92v-.44h.66ZM106.33,86.28h-4.07v-3.08h4.07v3.08ZM105.71,83.64h-2.81v.45h2.81v-.45ZM105.71,84.49h-2.81v.45h2.81v-.45ZM105.71,85.34h-2.81v.46h2.81v-.46ZM105.22,86.31c.49.34,1.09.59,1.63.74l-.34.54c-.57-.17-1.23-.51-1.69-.84l.4-.44Z"/>
    <path class="cls-2" d="M114.64,81.8c-.03.34-.09,1.14-.26,2,.46.16.59.23,1.06.45l-.26.73c-.38-.2-.64-.32-.98-.47-.6,2.22-1.91,2.65-2.43,2.82l-.43-.58c.94-.28,1.74-.76,2.18-2.52-1.08-.39-1.76-.45-2.01-.49-.46,1.92-.95,3.03-2.14,3.03-.93,0-1.33-.75-1.33-1.45,0-.91.68-2.18,2.9-2.25.17-.88.24-1.71.26-2l-2.63.02v-.7h3.45c-.23,1.8-.25,2-.39,2.7.88.07,1.71.34,2.03.44.02-.14.14-.75.19-1.82l.78.07ZM108.71,85.35c0,.34.16.78.66.78.58,0,1.01-.51,1.45-2.43-2.07.08-2.11,1.44-2.11,1.65Z"/>
    <path class="cls-2" d="M119.96,80.16c-.04.22-.07.44-.17.86h3.5v.68h-3.69c-.16.53-.31.78-.47,1.04.23-.16.6-.41,1.23-.41.43,0,1.05.11,1.27,1.01.79-.32,1.53-.57,2.07-.75l.29.72c-.62.16-1.37.37-2.25.71.03.34.04.7.04.95,0,.31,0,.51-.03.67h-.73c.02-.23.04-.37.04-.72,0-.18,0-.43-.02-.6-.42.21-1.65.81-1.65,1.52,0,.77,1,.77,1.87.77.36,0,1.14-.02,2.16-.12l.02.72c-.33.02-.93.07-2.01.07-.92,0-2.78,0-2.78-1.42,0-.81.78-1.49,2.32-2.22-.07-.43-.28-.67-.72-.67-.49,0-1.08.27-1.69.91-.55.76-.61.85-1.16,1.45l-.55-.49c1.18-1.07,1.72-2.39,1.96-3.13h-1.74v-.68h1.92c.1-.47.11-.68.12-.9l.83.05Z"/>
    <path class="cls-2" d="M29.28,96.97c1-.72,1.65-1.7,2.13-2.61l.58.3c-.39.77-.67,1.16-.87,1.43v4.26h-.7v-3.43c-.37.39-.65.62-.88.81l-.26-.76ZM29.31,94.56c1.02-.56,1.6-1.47,1.87-1.92l.58.27c-.39.77-1.16,1.72-2.09,2.31l-.36-.66ZM37.06,96h-1.32v3.68c0,.47-.15.67-.73.67h-1.42l-.12-.75,1.33.02c.17,0,.25-.03.25-.23v-3.39h-2.96v-.67h4.98v.67ZM36.74,93.71h-4.31v-.64h4.31v.64Z"/>
    <path class="cls-2" d="M39.41,93.46c-.06.4-.16,1.08-.16,2.08,0,1.25.1,2.57.54,3.28.08.14.29.29.55.29.62,0,1.08-.97,1.44-1.92l.61.4c-.5,1.34-1.17,2.32-2.12,2.32-1.61,0-1.79-2.9-1.79-4.26,0-.85.07-1.7.12-2.26l.81.08ZM44.77,99.04c0-.19.02-.38.02-.64,0-2.79-.81-3.65-1.53-4.43l.66-.36c.48.45,1.69,1.57,1.69,4.83,0,.22,0,.37-.02.53l-.82.08Z"/>
    <path class="cls-2" d="M50.51,93.87l-.02-.87h.72v.87h2.74v.66h-2.72v1.03h2.57v.64h-2.57v1.23c.95.39,1.76.91,2.52,1.58l-.49.64c-.76-.72-1.19-1.09-2.02-1.5v.37c0,1.46-1.33,1.54-1.79,1.54-1.09,0-1.83-.59-1.83-1.41,0-.64.53-1.51,2.1-1.51.4,0,.63.05.81.09v-1.02h-3.06v-.64h3.05v-1.03h-3.19v-.66h3.18ZM50.54,97.87c-.19-.06-.45-.14-.9-.14-.76,0-1.37.31-1.37.91s.67.77,1.16.77c1.09,0,1.11-.58,1.11-.95v-.58Z"/>
    <path class="cls-2" d="M59.9,92.94h.75v.95h2.32v.67h-2.32v1.73c.03.12.07.27.11.45.02.17.05.38.05.62,0,2.41-1.89,2.67-3.35,2.75l-.23-.7c2.35-.02,2.71-.78,2.87-1.57-.14.22-.43.64-1.23.64-1.01,0-1.62-.81-1.62-1.69,0-.94.67-1.69,1.74-1.69.58,0,.78.17.95.3v-.86h-4.13v-.67h4.11l-.02-.95ZM59.96,96.6c-.02-.18-.14-.81-.95-.81-.52,0-1.04.3-1.04,1.01,0,.45.25,1.03.96,1.03,1,0,1.03-.93,1.03-.95,0-.06,0-.19,0-.27Z"/>
    <path class="cls-2" d="M67.8,99.31c1.29-.12,1.97-.32,2.43-.78.63-.63.71-1.57.71-2.07,0-.96-.48-2.43-2.5-2.49-.02,1.65-.63,5.38-2.45,5.38-.96,0-1.54-1.15-1.54-2.36,0-2.04,1.43-3.68,3.87-3.68,2.29,0,3.42,1.4,3.42,3.21,0,3.13-2.63,3.41-3.72,3.5l-.24-.69ZM66.34,94.54c-1.18.86-1.18,2.29-1.18,2.51,0,.62.21,1.55.85,1.55.44,0,.71-.44.87-.75.25-.49.77-1.92.83-3.85-.3.05-.83.13-1.37.54Z"/>
    <path class="cls-2" d="M80.33,94.1c-.26-.02-.52-.03-.85-.03-.45,0-.58.04-.76.1-1.56.51-3.08,1.84-3.08,3.26,0,1.03.83,1.55,2.24,1.73.74.1,1.32.08,1.69.07l-.11.79c-1.74-.03-2.7-.25-3.49-.67-.66-.36-1.09-1.11-1.09-1.84,0-1.5,1.22-2.67,2.52-3.4-1.62.07-2.4.14-4.14.28l-.04-.76c.68,0,4.42-.21,5.25-.22.23,0,1.68-.04,1.84-.05l.02.76ZM78.92,96.55c-.08-.17-.34-.7-.72-1.2l.49-.26c.4.49.61.9.74,1.17l-.52.3ZM79.91,96.07c-.29-.52-.4-.73-.72-1.13l.51-.26c.21.25.57.75.72,1.09l-.52.3Z"/>
    <path class="cls-2" d="M83.36,100.09c-.58-.88-1.09-1.41-1.37-1.7l.62-.46c.54.49,1.12,1.18,1.46,1.65l-.72.51Z"/>
    <path class="cls-2" d="M31.9,105.73h.72v1.04h2.04v.68h-2.04v1.13c.27-.05.7-.14,1.35-.14.47,0,1.32.07,1.91.52.46.36.79,1,.79,1.7,0,2.16-2.62,2.11-3.36,2.1l-.14-.67c1.08,0,2.75,0,2.75-1.5s-1.45-1.51-2-1.51c-.27,0-.83.02-1.29.17v2.53c0,.29,0,.81-.95.81-1,0-1.87-.6-1.87-1.55s.74-1.82,2.09-2.29v-1.31h-1.99v-.68h1.99v-1.04ZM31.9,109.45c-1.13.45-1.37,1.21-1.37,1.53,0,.6.49.95,1.06.95.18,0,.31-.02.31-.25v-2.22ZM35.24,105.7c.7.52,1.37,1.31,1.79,2.23l-.67.38c-.45-.91-.81-1.41-1.66-2.17l.54-.44Z"/>
    <path class="cls-2" d="M45.73,106.06v.62h-6.06c-.41.53-.81.9-1.13,1.18l-.51-.5c.53-.41,1.18-.99,1.66-1.97l.72.16c-.12.21-.19.33-.31.52h5.63ZM39.16,109.55c.3.14.79.39,1.73,1.03.51-.53.77-.95.95-1.23l.62.3c-.16.24-.44.69-1.03,1.32.79.59,1.27,1.05,1.6,1.37l-.49.56c-.28-.3-.77-.82-1.59-1.46-1.16,1.06-2.13,1.5-2.46,1.65l-.45-.62c.38-.14,1.33-.5,2.37-1.42-.69-.49-1.25-.78-1.64-.99l.39-.51ZM44.49,108.51c-.08,1.09-.1,1.83-.1,2.08,0,.4,0,1.74.44,1.74.24,0,.4-1.05.44-1.33l.62.3c-.23,1.18-.47,1.78-1.09,1.78-1.08,0-1.08-2.08-1.08-2.58,0-.82.04-1.18.06-1.37h-5.59v-.62h6.3ZM45.15,107.88h-5.6v-.58h5.6v.58Z"/>
    <path class="cls-2" d="M48.39,106.16v-.68h.62v.68h1.46v.59h-1.46v.57h1.32v3.15h-1.32v.67h1.52v.59h-1.52v1.37h-.62v-1.37h-1.51v-.59h1.51v-.67h-1.31v-3.15h1.31v-.57h-1.44v-.59h1.44ZM48.39,107.87h-.75v.78h.75v-.78ZM48.39,109.15h-.75v.78h.75v-.78ZM49.75,107.87h-.75v.78h.75v-.78ZM49.75,109.15h-.75v.78h.75v-.78ZM52.86,110.2h1.46v.61h-1.46v1.42h1.63v.63h-4.19v-.63h1.91v-1.42h-1.54v-.61h1.54v-.8h.65v.8ZM50.4,109.06c.39-.13,1.01-.35,1.74-.9-.58-.67-.82-1.24-.93-1.5l.55-.23c.35.74.66,1.1.85,1.32.63-.63.84-1.13.93-1.36h-2.88v-.62h3.61v.59c-.12.34-.37,1.03-1.2,1.83.6.5,1.16.73,1.47.85l-.35.62c-.34-.15-.91-.42-1.61-1.04-.78.62-1.5.9-1.85,1.03l-.34-.58Z"/>
    <path class="cls-2" d="M57.31,105.9c-.25,1.21-.35,2.43-.35,3.69,0,1.1.07,2.14.3,3.08l-.76.09c-.13-.53-.28-1.15-.28-3.02,0-2.21.22-3.41.31-3.92l.78.07ZM59.42,109.52c-.14.2-.39.57-.39,1.08,0,.72.5.95,1.83.95.41,0,1.13,0,1.83-.08v.74c-.3.02-.72.07-1.51.07-1.04,0-2.87,0-2.87-1.62,0-.66.31-1.18.45-1.42l.66.29ZM62.53,106.46v.71h-3.98v-.71h3.98Z"/>
    <path class="cls-2" d="M66.52,109.09c-.45.44-.74.92-.74,1.52,0,1.13,1.32,1.24,2.73,1.24s2.23-.11,2.7-.16l.03.76c-.94.07-1.57.12-2.42.12-1.74,0-2.34-.18-2.8-.39-.58-.27-1-.88-1-1.54,0-.78.39-1.34.92-1.94l.57.4ZM70.68,106.76c-1.26.19-2.39.87-2.76,1.09l-.47-.49c.42-.26.61-.35,1.21-.58-2.47.03-2.86.05-3.32.07v-.76c.37.02,2.72.03,5.34,0v.66ZM70.24,109.09c-.21-.46-.41-.81-.71-1.22l.49-.26c.4.5.66,1.05.73,1.21l-.51.27ZM71.2,108.63c-.24-.5-.39-.76-.7-1.17l.5-.26c.3.38.54.8.7,1.15l-.5.28Z"/>
    <path class="cls-2" d="M74.6,108.68v2.41c.07.42.25.71.63.9.6.3.92.3,1.2.3h4.26l-.12.63h-4.11c-.41,0-1.38,0-2-.93-.46.59-1.04,1.05-1.19,1.17l-.32-.72c.21-.14.72-.49.99-.8v-2.31h-.9v-.64h1.56ZM74.35,107.41c-.23-.39-.67-.99-1.16-1.4l.46-.44c.18.16.79.65,1.23,1.39l-.53.45ZM80.54,106.62h-2.34v.57h2.09v2.92h-2.09v.62h2.42v.57h-2.42v.71h-.66v-.71h-2.43v-.57h2.43v-.62h-2.04v-2.92h2.04v-.57h-2.34v-.57h2.34v-.58h.66v.58h2.34v.57ZM77.55,107.72h-1.42v.65h1.42v-.65ZM77.55,108.88h-1.42v.7h1.42v-.7ZM79.66,107.72h-1.46v.65h1.46v-.65ZM79.66,108.88h-1.46v.7h1.46v-.7Z"/>
    <path class="cls-2" d="M81.62,112.32c.19-.53.35-1.16.41-2.2l.58.07c-.04.76-.13,1.57-.41,2.34l-.58-.21ZM84.58,106.54c-.21.38-.74,1.32-1.58,2.44.27-.02.82-.05,1.09-.06-.06-.18-.12-.33-.21-.55l.49-.2c.19.39.44,1.08.52,1.49l-.55.21c-.03-.17-.05-.26-.09-.43-.16.02-.43.05-.6.07v3.59h-.62v-3.54c-.31.02-1.2.07-1.32.07l-.05-.62c.19,0,.25,0,.65,0,.25-.35.38-.53.49-.69-.08-.09-.53-.61-1.13-1.08l.31-.5c.15.12.21.16.29.22.33-.54.62-1.19.76-1.47l.6.22c-.31.67-.88,1.56-.92,1.64.08.08.3.3.44.46.46-.72.65-1.09.86-1.5l.59.25ZM84.32,112.1c-.04-.43-.1-1.07-.31-1.89l.52-.11c.17.49.28.97.37,1.86l-.58.14ZM88.92,106.65c-.14.23-.49.82-1.35,1.58.84.46,1.5.67,1.9.78l-.3.64c-1.11-.34-1.7-.72-2.13-1.02-.94.62-1.56.84-1.89.95l-.35-.6c.34-.11.93-.3,1.71-.77-.48-.41-.71-.72-.86-.93-.27.25-.45.39-.62.51l-.39-.55c.43-.27,1.11-.76,1.6-1.79l.72.09c-.07.16-.11.25-.28.53h2.25v.58ZM88.86,113.09h-.64v-.38h-2.29v.38h-.64v-3.22h3.57v3.22ZM88.22,110.47h-2.29v1.63h2.29v-1.63ZM86.25,106.66c-.09.11-.12.14-.19.22.17.25.44.58.96.99.72-.53,1-.99,1.14-1.21h-1.92Z"/>
    <path class="cls-2" d="M96.3,112.91c-1.05-.89-2.2-1.65-3.4-2.34-1.17-.68-1.5-.88-1.5-1.33,0-.36.24-.6.93-1.14,2.16-1.69,2.4-1.88,3.02-2.53l.74.48c-.96.91-1.18,1.06-3.15,2.49-.42.3-.49.38-.55.44-.07.07-.11.14-.11.21,0,.14,0,.2.6.52.6.33,2.35,1.3,4.05,2.61l-.63.6Z"/>
    <path class="cls-2" d="M101.76,105.75c-.08.77-.09.85-.12,1.09h2.29v.67h-2.38c-.27,1.9-.77,3.56-1.46,5.36l-.7-.29c.76-1.6,1.28-3.96,1.44-5.07h-1.26v-.67h1.35c.05-.52.06-.83.07-1.11l.79.02ZM103.44,110.3c-.2.19-.49.48-.49.93,0,.53.24.83,1.88.83.65,0,1.18-.04,1.63-.07l.03.71c-.25.02-.57.04-1.33.04-.89,0-1.32-.02-1.81-.15-.62-.17-1.13-.62-1.13-1.31s.52-1.2.69-1.37l.53.39ZM106.34,108.61c-.22,0-.43-.02-.74-.02-1.27,0-1.88.18-2.44.39l-.25-.64c1.41-.49,2.71-.49,3.41-.46l.02.73ZM105.15,107.23c-.08-.25-.3-.86-.56-1.27l.53-.21c.27.37.51.97.6,1.25l-.57.23ZM106.18,106.91c-.21-.56-.29-.75-.6-1.23l.54-.21c.26.37.48.76.62,1.2l-.55.25Z"/>
    <path class="cls-2" d="M112.18,105.69c.05.32.14.84.32,1.47,1.37-.02,2.1-.2,2.46-.28l.14.69c-.34.08-1.01.24-2.36.28.44,1.16,1.09,1.86,1.34,2.12l-.62.42c-.25-.29-.93-1.07-1.46-2.53-.13,0-.19,0-.71,0h-3.02v-.69h3.5c-.12-.41-.17-.6-.35-1.42l.76-.07ZM111,109.52c-.88.27-1.61.7-1.61,1.42,0,1.1,1.61,1.1,2.69,1.1,1.17,0,1.83-.08,2.19-.13l-.02.73c-.67.07-1.39.09-2.09.09-1.67,0-2.19-.2-2.62-.43-.39-.21-.86-.64-.86-1.32s.46-1.56,2.01-2.03l.31.56Z"/>
    <path class="cls-2" d="M117.84,106.22c-.06.4-.16,1.08-.16,2.08,0,1.25.1,2.57.54,3.28.08.14.29.29.55.29.62,0,1.08-.97,1.44-1.92l.61.4c-.5,1.34-1.17,2.32-2.12,2.32-1.61,0-1.79-2.9-1.79-4.26,0-.85.07-1.7.12-2.26l.81.08ZM123.19,111.79c0-.19.02-.38.02-.64,0-2.79-.81-3.65-1.53-4.43l.66-.36c.48.45,1.69,1.57,1.69,4.83,0,.22,0,.37-.02.53l-.82.08Z"/>
    <path class="cls-2" d="M128.04,111.61c0,.67-.55,1.23-1.23,1.23s-1.23-.55-1.23-1.23.55-1.23,1.23-1.23,1.23.53,1.23,1.23ZM126,111.61c0,.44.36.81.81.81s.81-.36.81-.81-.37-.81-.81-.81-.81.36-.81.81Z"/>
  </g>
  <g>
    <g>
      <path class="cls-1" d="M77.23,33.56c-4.45-.39-8.38,2.9-8.77,7.35-.39,4.45,2.9,8.38,7.35,8.77,4.45.39,8.38-2.9,8.77-7.35.39-4.45-2.9-8.37-7.35-8.76ZM76.16,45.7c-2.25-.2-3.92-2.19-3.72-4.44.2-2.25,2.19-3.92,4.44-3.72,2.25.2,3.92,2.19,3.72,4.44-.2,2.25-2.19,3.92-4.44,3.72Z"/>
      <path class="cls-1" d="M130.48,38.24c-4.45-.39-8.38,2.9-8.77,7.35-.39,4.46,2.9,8.38,7.35,8.77,4.45.39,8.38-2.9,8.77-7.35.39-4.45-2.9-8.37-7.35-8.77ZM129.41,50.38c-2.25-.2-3.92-2.19-3.72-4.44.2-2.25,2.19-3.92,4.44-3.72,2.25.2,3.92,2.19,3.72,4.44-.2,2.25-2.19,3.92-4.44,3.72Z"/>
      <path class="cls-1" d="M146.37,37.03l-50.42-4.43c-2.91-.25-2.21-2.57-1.95-5.48l1.83-20.8c.42-4.77.23-9.32-17.52-3.77-6.49,2.03-20.62,15.99-23.02,20.73-.88,1.73-.5,8.52-.5,8.52-.26,2.91,1.9,5.48,4.81,5.73l5.13.45c.66.06,2.49.19,3.04.03,1.47-3.78,5.31-6.3,9.54-5.93,4.24.37,7.57,3.53,8.37,7.5.52.26,2.42.46,3.08.51l4.07.36,25.14,2.21c.66.06,2.64.44,3.18.28,1.46-3.72,5.23-6.21,9.41-5.85,4.18.37,7.47,3.48,8.25,7.4.51.25,6.01.53,6.67.59l.17.02c2.48.22,1.78-1.61,1.98-3.89.2-2.28,1.21-3.95-1.27-4.17ZM147.61,35.86c-.04.38-.55.65-1.14.6l-50.57-4.44c-.59-.05-1.05-.41-1.02-.79l.2-2.31c.03-.38.54-.65,1.14-.6l50.57,4.44c.59.05,1.05.41,1.02.78l-.2,2.31ZM147.98,31.62c-.03.38-.54.65-1.14.59l-50.57-4.44c-.59-.05-1.05-.4-1.02-.79l.29-3.29c.03-.38.55-.65,1.14-.6l50.57,4.44c.59.05,1.05.41,1.02.79l-.29,3.29ZM148.45,26.33c-.04.38-.55.65-1.14.6l-50.58-4.44c-.59-.05-1.05-.41-1.02-.79l.11-1.26c.03-.38.54-.65,1.14-.6l50.57,4.44c.6.05,1.05.41,1.02.79l-.11,1.26Z"/>
    </g>
    <path class="cls-3" d="M90.1,17.35c-.11,1.21-.59,1.36-1.17,1.54,0,0-13.13-1.17-13.72-1.22-.59-.05-1.74,1.41-1.74,1.41,0,0-.12.46-.59.41-.47-.04-5.14-.45-5.14-.45-.53-.05-.72-1.14-.29-1.73l9.55-8.79c.56-.51,2.17-2.02,3.93-1.86l9.05.79c.54.05.98.08.89,1.17l-.77,8.73Z"/>
  </g>
  <g>
    <g>
      <path class="cls-1" d="M100.48,26.61c.21-.02.39-.05.85-.15l.17-1.73-.67-.06.07-.69.67.06.15-1.52-.74-.07.07-.7,2.22.21-.07.7-.77-.07-.15,1.52.65.06-.07.69-.65-.06-.14,1.49c.44-.11.6-.16.8-.23l.09.68c-.67.24-1.65.49-2.38.58l-.09-.71ZM103.58,21.86l3.9.37-.38,4.04-1.21-.12-.13,1.33c-.02.2.01.26.21.28l.37.04c.13.01.16-.04.19-.16.06-.21.12-.61.13-.79l.64.2c-.13,1.04-.25,1.54-.73,1.5l-1.04-.1c-.3-.03-.59-.08-.54-.67l.16-1.68-.46-.04c-.47,1.44-1.25,1.88-2.48,2.17l-.28-.74c1.7-.27,1.95-1.18,2.04-1.5l-.79-.08.39-4.04ZM104.01,24.8l-.05.54,2.47.24.05-.54-2.47-.24ZM104.12,23.67l-.05.54,2.47.24.05-.54-2.47-.24ZM104.22,22.55l-.05.54,2.47.24.05-.54-2.47-.24Z"/>
      <path class="cls-1" d="M106.67,29.96c-.07,0-.15,0-.23-.01l-1.04-.1c-.7-.07-1.17-.36-1.45-.75-.45.23-.92.38-1.4.49-.7.17-1.41-.21-1.66-.88h0s-.1,0-.15,0c-.38.05-.75-.06-1.05-.29-.3-.23-.49-.57-.54-.94l-.09-.71c-.05-.38.06-.75.29-1.05.08-.1.18-.19.28-.27-.18-.26-.27-.59-.24-.93l.07-.69c.02-.25.11-.49.26-.69-.15-.25-.21-.55-.18-.84l.07-.7c.04-.37.22-.72.51-.96.29-.24.67-.35,1.04-.32l1.95.19c.19-.06.39-.09.6-.07l3.9.37c.78.07,1.35.77,1.28,1.55l-.38,3.94c.16.27.24.59.2.92-.11.83-.35,2.73-2.04,2.74Z"/>
    </g>
    <g>
      <path class="cls-1" d="M110.71,26.71c-.58.41-.98.53-1.25.61l-.15-.26c-.93.3-1.38.4-1.72.46v-.78c.17-.02.67-.12.78-.14l.22-2.33-.69-.07.07-.7.69.07.14-1.43.71.07-.14,1.43.53.05-.07.7-.53-.05-.2,2.1c.33-.07.37-.08.55-.13v.32c.69-.26,1-.57,1.25-.86l-1.19-.11.05-.56,4.74.45-.05.56-2.85-.27c-.11.14-.16.22-.3.36l2.91.28c0,.08-.21,1.96-.45,2.38-.22.38-.5.36-.71.34l-.95-.09-.08-.71.92.09c.21.02.24-.07.29-.25.08-.28.2-1.1.22-1.27l-.34-.03c-.71,1.23-1.66,1.78-2.47,2.08l-.38-.6c.98-.3,1.54-.66,2.19-1.53l-.5-.05c-.88.99-1.83,1.33-2.61,1.52l-.29-.55c.43-.09,1.32-.28,2.2-1.04l-.56-.05ZM110.37,22.51l3.93.38-.22,2.29-3.93-.38.22-2.29ZM110.9,23.96l-.04.42,2.59.25.04-.42-2.59-.25ZM110.99,23.1l-.04.41,2.59.25.04-.41-2.59-.25Z"/>
      <path class="cls-1" d="M113.19,30.62c-.08,0-.17,0-.26-.01l-.96-.09c-.24-.02-.47-.11-.66-.23-.05.02-.11.04-.16.06-.63.24-1.34,0-1.7-.58-.55.03-1.07-.25-1.34-.74l-.08-.15c-.05.01-.11.02-.16.03-.42.08-.85-.03-1.18-.3-.33-.27-.52-.67-.52-1.1v-.78c0-.59.37-1.1.89-1.31v-.07c-.38-.29-.62-.76-.57-1.28l.07-.7c.04-.37.22-.72.51-.96.09-.08.19-.14.3-.19l.02-.22c.04-.37.22-.72.51-.96.29-.24.67-.35,1.04-.32l.71.07c.28.03.53.13.73.29.04,0,.08,0,.12,0l3.93.38c.37.04.72.22.96.51.24.29.35.66.32,1.04l-.15,1.59s.03.03.04.05c.24.29.35.66.32,1.04l-.05.56c-.03.27-.12.51-.27.71-.07.65-.27,2.03-.6,2.61-.28.49-.82,1.05-1.81,1.05Z"/>
    </g>
    <g>
      <path class="cls-1" d="M114.97,25.47l1.45.14-.2,2.08c.2.93,1.11,1.02,1.77,1.08l3.36.32-.19.69-3.29-.31c-1.28-.12-1.71-.74-1.88-.98-.33.37-.82.72-1.1.9l-.29-.76c.2-.11.61-.35.87-.56l.17-1.83-.75-.07.07-.7ZM115.88,22.91c.39.42.77,1.08.92,1.38l-.64.37c-.3-.57-.5-.88-.88-1.36l.6-.38ZM118.9,23.21c-.31.84-.82,1.68-1.43,2.54.3.72.63,1.83.71,2.61l-.75.13c-.3-1.95-.53-2.46-.7-2.85.51-.62,1.19-1.89,1.44-2.6l.73.17ZM120.42,23.34c-.34.91-.86,1.72-1.42,2.51.27.58.74,1.78.85,2.66l-.74.11c-.26-1.25-.36-1.56-.88-2.84.98-1.51,1.24-1.89,1.48-2.62l.7.18ZM121.83,23.52c-.28.8-.87,1.84-1.31,2.48.19.41.74,1.9.81,2.68l-.75.11c-.11-.84-.43-2.03-.81-2.86.54-.79,1.07-1.79,1.37-2.61l.69.21Z"/>
      <path class="cls-1" d="M121.17,31.2s-.09,0-.14,0l-3.29-.31c-.67-.06-1.25-.24-1.75-.52-.14.1-.25.18-.33.23-.36.23-.8.29-1.21.15-.41-.13-.73-.44-.88-.84l-.29-.76c-.25-.66.02-1.4.63-1.74.05-.03.1-.06.15-.08-.39-.29-.62-.76-.57-1.27l.07-.7c.04-.37.22-.72.51-.96.05-.04.1-.08.16-.11-.02-.03-.05-.06-.07-.09-.25-.31-.35-.72-.28-1.11s.3-.74.64-.96l.6-.38c.58-.37,1.34-.27,1.8.24.05.06.11.12.16.18.33-.4.87-.6,1.41-.48l.73.17s.01,0,.02,0c.26-.09.55-.11.83-.04l.65.17c.26-.08.55-.09.82,0l.69.21c.37.11.68.37.86.72s.2.75.07,1.11c-.24.68-.66,1.49-1.06,2.16.25.68.57,1.67.64,2.41,0,.07,0,.15,0,.22.05.23.05.47-.02.7l-.19.69c-.17.62-.73,1.04-1.36,1.04Z"/>
    </g>
    <g>
      <path class="cls-1" d="M127.25,30.14l-4.57-.44-.04.42-.73-.07.6-6.29,6.01.57-.6,6.29-.72-.07.04-.42ZM127.75,24.95l-4.57-.44-.42,4.45,4.57.44.42-4.46ZM123.76,25.31l3.25.31-.28,2.93-3.25-.31.28-2.93ZM124.24,27.66l1.86.18.16-1.64-1.86-.18-.16,1.64Z"/>
      <path class="cls-1" d="M127.93,32.04s-.09,0-.14,0l-.72-.07c-.39-.04-.73-.23-.96-.51l-2.57-.24c-.28.23-.65.36-1.04.32l-.73-.07c-.37-.04-.72-.22-.96-.51s-.35-.66-.32-1.04l.6-6.29c.07-.78.76-1.35,1.55-1.28l6.01.57c.37.04.72.22.96.51.24.29.35.66.32,1.04l-.6,6.29c-.07.73-.69,1.28-1.41,1.28Z"/>
    </g>
    <g>
      <path class="cls-1" d="M99.86,34.62c1.21-1.08,1.74-2.96,2.03-4.89l.8.14c-.53,3.18-1.3,4.42-2.22,5.38l-.61-.63ZM105.08,30.01c-.01,1.64.22,3.58,1.26,5.23l-.77.49c-1.02-1.6-1.3-3.75-1.27-5.7l.78-.02ZM107.02,30.21c-.04.41-.4.7-.8.66-.41-.04-.7-.39-.66-.8.04-.41.4-.7.8-.66s.7.39.66.8ZM105.95,30.11c-.02.19.12.35.31.37.18.02.35-.12.37-.31.02-.19-.12-.35-.31-.37s-.35.12-.37.31Z"/>
      <path class="cls-1" d="M105.57,37.15c-.47,0-.93-.23-1.2-.65-.53-.84-.93-1.83-1.17-2.96-.48,1.21-1.05,2.01-1.71,2.69-.27.28-.63.43-1.02.43-.42-.03-.75-.15-1.02-.43l-.61-.63c-.27-.28-.41-.65-.4-1.04.01-.39.18-.75.47-1.01.75-.67,1.27-1.99,1.58-4.05.06-.38.26-.72.57-.94.31-.22.7-.31,1.07-.24l.8.14c.26.05.49.16.68.32.2-.11.42-.17.66-.18h.52c.44-.44,1.05-.68,1.71-.62.57.05,1.09.33,1.46.77.37.44.54,1,.48,1.58-.09.98-.83,1.74-1.75,1.91.17.85.45,1.59.86,2.23.42.66.22,1.54-.44,1.95l-.77.49c-.23.15-.5.22-.75.22ZM106.49,30.16c0,.21,0,.42.02.62.24-.08.43-.3.46-.58l-.47-.05ZM106.49,30.16l.47.04c.02-.18-.04-.35-.15-.49-.11-.13-.26-.22-.43-.24.07.17.11.36.11.56,0,.05,0,.09,0,.14Z"/>
    </g>
    <g>
      <path class="cls-1" d="M110.28,30.07l-.17,1.8c1.67.65,2.93,1.55,3.38,1.87l-.46.77c-.74-.55-2.06-1.46-3-1.8l-.34,3.58-.85-.08.59-6.22.85.08Z"/>
      <path class="cls-1" d="M109.68,37.71s-.09,0-.14,0l-.85-.08c-.78-.07-1.35-.77-1.28-1.55l.59-6.22c.07-.78.77-1.35,1.54-1.28l.85.08c.37.04.72.22.96.51.24.29.35.66.32,1.04l-.07.78c.91.43,1.82.97,2.7,1.61.6.43.77,1.24.39,1.87l-.46.77c-.2.34-.54.59-.94.67-.39.08-.8,0-1.12-.25-.33-.25-.65-.47-.95-.67l-.14,1.44c-.04.37-.22.72-.51.96-.25.21-.57.32-.9.32Z"/>
    </g>
    <g>
      <path class="cls-1" d="M120.34,31.65l-.49,5.15-5.24-.5.49-5.15,5.24.5ZM119.4,32.34l-3.54-.34-.34,3.61,3.54.34.34-3.61Z"/>
      <path class="cls-1" d="M119.85,38.22s-.09,0-.13,0l-5.24-.5c-.78-.07-1.35-.77-1.28-1.55l.49-5.15c.04-.37.22-.72.51-.96.29-.24.66-.35,1.04-.32l5.24.5c.78.07,1.35.77,1.28,1.55l-.49,5.15c-.04.37-.22.72-.51.96-.25.21-.57.32-.9.32ZM117.06,34.33l.71.07.08-.79-.71-.07-.08.79Z"/>
    </g>
    <g>
      <path class="cls-1" d="M127.72,34.36l-.08.85-6.26-.6.08-.85,6.26.6Z"/>
      <path class="cls-1" d="M127.64,36.63s-.09,0-.14,0l-6.26-.6c-.37-.04-.72-.22-.96-.51s-.35-.66-.32-1.04l.08-.85c.07-.78.76-1.35,1.55-1.28l6.26.6c.37.04.72.22.96.51s.35.66.32,1.04l-.08.85c-.07.73-.69,1.28-1.41,1.28Z"/>
    </g>
    <g>
      <path class="cls-1" d="M130.35,34.09c-.28,2.96-1.37,3.77-1.75,4.05l-.55-.67c.35-.23,1.23-.79,1.47-3.3l.19-1.96.82.08-.17,1.8ZM131.96,37.29c1.66-.23,2.21-2.18,2.32-2.53l.69.38c-.95,3.04-3.21,3.01-3.89,3.01l.57-5.96.79.08-.48,5.03Z"/>
      <path class="cls-1" d="M131.15,39.56s-.05,0-.08,0c-.4,0-.77-.17-1.04-.47-.05-.06-.1-.12-.14-.18-.18.17-.34.29-.45.37-.61.45-1.46.35-1.94-.24l-.55-.67c-.26-.31-.37-.71-.31-1.11.06-.4.29-.75.62-.97.17-.11.67-.44.84-2.25l.19-1.96c.07-.78.77-1.35,1.55-1.28l.82.08c.11.01.21.03.31.07.24-.13.53-.2.82-.17l.79.08c.37.04.72.22.96.51.24.29.35.66.32,1.04l-.1,1.05c.39-.16.84-.13,1.21.07l.69.38c.59.32.87,1.02.67,1.66-.47,1.5-1.76,4-5.17,4Z"/>
    </g>
    <g>
      <path class="cls-1" d="M142.1,34.04l-2.87-.27-.04.42,2.4.23-.27,2.85-2.4-.23-.04.46,2.93.28-.06.65-2.93-.28-.1,1.08-.72-.07.1-1.08-2.97-.28.06-.65,2.97.28.04-.46-2.38-.23.27-2.85,2.38.23.04-.42-2.87-.27.06-.65,2.87.27.05-.51.72.07-.05.51,2.87.27-.06.65ZM136.65,35.62l-.05.56,1.66.16.05-.56-1.66-.16ZM136.75,34.57l-.05.54,1.66.16.05-.54-1.66-.16ZM139.03,35.85l-.05.56,1.69.16.05-.56-1.69-.16ZM139.13,34.8l-.05.54,1.69.16.05-.54-1.69-.16Z"/>
      <path class="cls-1" d="M138.71,40.63s-.09,0-.14,0l-.72-.07c-.67-.06-1.18-.58-1.27-1.21l-1.6-.15c-.37-.04-.72-.22-.96-.51s-.35-.66-.32-1.04l.06-.65c.05-.47.32-.87.7-1.09l.14-1.51s-.05-.05-.07-.08c-.24-.29-.35-.66-.32-1.04l.06-.65c.07-.78.76-1.35,1.55-1.27l1.78.17s.06-.06.1-.09c.29-.24.67-.35,1.04-.32l.72.07c.43.04.8.28,1.03.61l1.79.17c.37.04.72.22.96.51.24.29.35.66.32,1.04l-.06.65c-.04.41-.25.77-.56,1l-.15,1.58s.07.07.1.11c.24.29.35.66.32,1.04l-.06.65c-.08.78-.77,1.35-1.54,1.28l-1.56-.15c-.19.56-.73.95-1.34.95Z"/>
    </g>
  </g>
  <g>
    <path class="cls-3" d="M100.48,26.61c.21-.02.39-.05.85-.15l.17-1.73-.67-.06.07-.69.67.06.15-1.52-.74-.07.07-.7,2.22.21-.07.7-.77-.07-.15,1.52.65.06-.07.69-.65-.06-.14,1.49c.44-.11.6-.16.8-.23l.09.68c-.67.24-1.65.49-2.38.58l-.09-.71ZM103.58,21.86l3.9.37-.38,4.04-1.21-.12-.13,1.33c-.02.2.01.26.21.28l.37.04c.13.01.16-.04.19-.16.06-.21.12-.61.13-.79l.64.2c-.13,1.04-.25,1.54-.73,1.5l-1.04-.1c-.3-.03-.59-.08-.54-.67l.16-1.68-.46-.04c-.47,1.44-1.25,1.88-2.48,2.17l-.28-.74c1.7-.27,1.95-1.18,2.04-1.5l-.79-.08.39-4.04ZM104.01,24.8l-.05.54,2.47.24.05-.54-2.47-.24ZM104.12,23.67l-.05.54,2.47.24.05-.54-2.47-.24ZM104.22,22.55l-.05.54,2.47.24.05-.54-2.47-.24Z"/>
    <path class="cls-3" d="M110.71,26.71c-.58.41-.98.53-1.25.61l-.15-.26c-.93.3-1.38.4-1.72.46v-.78c.17-.02.67-.12.78-.14l.22-2.33-.69-.07.07-.7.69.07.14-1.43.71.07-.14,1.43.53.05-.07.7-.53-.05-.2,2.1c.33-.07.37-.08.55-.13v.32c.69-.26,1-.57,1.25-.86l-1.19-.11.05-.56,4.74.45-.05.56-2.85-.27c-.11.14-.16.22-.3.36l2.91.28c0,.08-.21,1.96-.45,2.38-.22.38-.5.36-.71.34l-.95-.09-.08-.71.92.09c.21.02.24-.07.29-.25.08-.28.2-1.1.22-1.27l-.34-.03c-.71,1.23-1.66,1.78-2.47,2.08l-.38-.6c.98-.3,1.54-.66,2.19-1.53l-.5-.05c-.88.99-1.83,1.33-2.61,1.52l-.29-.55c.43-.09,1.32-.28,2.2-1.04l-.56-.05ZM110.37,22.51l3.93.38-.22,2.29-3.93-.38.22-2.29ZM110.9,23.96l-.04.42,2.59.25.04-.42-2.59-.25ZM110.99,23.1l-.04.41,2.59.25.04-.41-2.59-.25Z"/>
    <path class="cls-3" d="M114.97,25.47l1.45.14-.2,2.08c.2.93,1.11,1.02,1.77,1.08l3.36.32-.19.69-3.29-.31c-1.28-.12-1.71-.74-1.88-.98-.33.37-.82.72-1.1.9l-.29-.76c.2-.11.61-.35.87-.56l.17-1.83-.75-.07.07-.7ZM115.88,22.91c.39.42.77,1.08.92,1.38l-.64.37c-.3-.57-.5-.88-.88-1.36l.6-.38ZM118.9,23.21c-.31.84-.82,1.68-1.43,2.54.3.72.63,1.83.71,2.61l-.75.13c-.3-1.95-.53-2.46-.7-2.85.51-.62,1.19-1.89,1.44-2.6l.73.17ZM120.42,23.34c-.34.91-.86,1.72-1.42,2.51.27.58.74,1.78.85,2.66l-.74.11c-.26-1.25-.36-1.56-.88-2.84.98-1.51,1.24-1.89,1.48-2.62l.7.18ZM121.83,23.52c-.28.8-.87,1.84-1.31,2.48.19.41.74,1.9.81,2.68l-.75.11c-.11-.84-.43-2.03-.81-2.86.54-.79,1.07-1.79,1.37-2.61l.69.21Z"/>
    <path class="cls-3" d="M127.25,30.14l-4.57-.44-.04.42-.73-.07.6-6.29,6.01.57-.6,6.29-.72-.07.04-.42ZM127.75,24.95l-4.57-.44-.42,4.45,4.57.44.42-4.46ZM123.76,25.31l3.25.31-.28,2.93-3.25-.31.28-2.93ZM124.24,27.66l1.86.18.16-1.64-1.86-.18-.16,1.64Z"/>
    <path class="cls-3" d="M99.86,34.62c1.21-1.08,1.74-2.96,2.03-4.89l.8.14c-.53,3.18-1.3,4.42-2.22,5.38l-.61-.63ZM105.08,30.01c-.01,1.64.22,3.58,1.26,5.23l-.77.49c-1.02-1.6-1.3-3.75-1.27-5.7l.78-.02ZM107.02,30.21c-.04.41-.4.7-.8.66-.41-.04-.7-.39-.66-.8.04-.41.4-.7.8-.66s.7.39.66.8ZM105.95,30.11c-.02.19.12.35.31.37.18.02.35-.12.37-.31.02-.19-.12-.35-.31-.37s-.35.12-.37.31Z"/>
    <path class="cls-3" d="M110.28,30.07l-.17,1.8c1.67.65,2.93,1.55,3.38,1.87l-.46.77c-.74-.55-2.06-1.46-3-1.8l-.34,3.58-.85-.08.59-6.22.85.08Z"/>
    <path class="cls-3" d="M120.34,31.65l-.49,5.15-5.24-.5.49-5.15,5.24.5ZM119.4,32.34l-3.54-.34-.34,3.61,3.54.34.34-3.61Z"/>
    <path class="cls-3" d="M127.72,34.36l-.08.85-6.26-.6.08-.85,6.26.6Z"/>
    <path class="cls-3" d="M130.35,34.09c-.28,2.96-1.37,3.77-1.75,4.05l-.55-.67c.35-.23,1.23-.79,1.47-3.3l.19-1.96.82.08-.17,1.8ZM131.96,37.29c1.66-.23,2.21-2.18,2.32-2.53l.69.38c-.95,3.04-3.21,3.01-3.89,3.01l.57-5.96.79.08-.48,5.03Z"/>
    <path class="cls-3" d="M142.1,34.04l-2.87-.27-.04.42,2.4.23-.27,2.85-2.4-.23-.04.46,2.93.28-.06.65-2.93-.28-.1,1.08-.72-.07.1-1.08-2.97-.28.06-.65,2.97.28.04-.46-2.38-.23.27-2.85,2.38.23.04-.42-2.87-.27.06-.65,2.87.27.05-.51.72.07-.05.51,2.87.27-.06.65ZM136.65,35.62l-.05.56,1.66.16.05-.56-1.66-.16ZM136.75,34.57l-.05.54,1.66.16.05-.54-1.66-.16ZM139.03,35.85l-.05.56,1.69.16.05-.56-1.69-.16ZM139.13,34.8l-.05.54,1.69.16.05-.54-1.69-.16Z"/>
  </g>
  <g>
    <g>
      <path class="cls-3" d="M75.36,20.02l-.08-.09c0,.06-.05.39-.17.57l-.14-.18c.04-.07.11-.18.14-.44l.05-.45.2.02s0-.07,0-.11l-.19-.02.02-.19.44.05v-.08s.21.02.21.02v.08s.44.05.44.05l-.02.19-.18-.02s-.03.09-.04.1l.27.03-.02.19-.38-.04v.1s.32.04.32.04l-.02.18-.33-.04v.09s.28.03.28.03l-.02.17-.29-.03v.09s.37.04.37.04l-.02.2-.97-.1.02-.2.4.05v-.09s-.29-.03-.29-.03l.02-.17ZM75.31,19.64l-.03.24c.06-.06.11-.14.15-.23h-.12ZM75.68,19.78v-.1s-.24-.03-.24-.03l.16.05s-.02.04-.03.07h.11ZM75.66,20.05v-.09s-.18-.02-.18-.02c-.03.05-.05.07-.06.08l.23.03ZM75.54,19.37s0,.03.01.11l.27.03s.02-.07.03-.1l-.32-.03Z"/>
      <path class="cls-3" d="M76.26,20.41c.05,0,.22-.04.39-.12l-.36-.04.02-.17.51.05v-.06s-.42-.05-.42-.05l.02-.15.42.05v-.06s-.45-.05-.45-.05l.02-.17.26.03s-.01-.05-.02-.08l-.28-.03.02-.19.16.02s-.02-.09-.04-.14l.19-.02c.02.05.03.1.04.18h.05s.02-.17.02-.17l.17.02-.02.17h.07s.02-.17.02-.17l.17.02-.02.17h.05s.06-.12.07-.17l.18.06s-.04.09-.06.13l.15.02-.02.19-.28-.03-.03.07.26.03-.02.17-.46-.05v.06s.42.05.42.05l-.02.15-.43-.05v.06s.5.06.5.06l-.02.17-.36-.04c.14.12.28.17.36.2l-.12.2c-.19-.09-.28-.16-.4-.31l-.03.28-.19-.02.03-.27c-.1.09-.19.15-.45.21l-.07-.21ZM76.84,19.61s.01.07.02.08l.21.02s.01-.03.03-.08l-.25-.03Z"/>
      <path class="cls-3" d="M78.04,20.17s-.08.05-.14.08l-.05-.12c-.06.41-.16.59-.2.65l-.14-.19c.11-.19.14-.43.15-.51l.07-.64.46.05v-.1s.21.02.21.02v.1s.46.05.46.05l-.02.2-.94-.1-.04.41s.05-.02.11-.05c-.06-.07-.07-.08-.08-.1l.09-.07.02-.13.45.05s.02.05.04.08c.06-.05.07-.07.09-.1l.1.09c-.06.07-.06.07-.11.12.02.02.02.03.04.04.02-.02.08-.07.12-.13l.1.1c-.05.06-.06.07-.12.12.05.04.09.06.12.08l-.11.18s-.07-.05-.14-.12h0s-.06,0-.06,0v.1s.2.02.2.02l-.02.18-.22-.02v.11s-.02.03,0,.04h.07s.03,0,.05-.12l.15.07c-.03.23-.07.27-.17.26l-.21-.02s-.11-.01-.1-.12l.03-.24h-.1c-.04.1-.1.25-.36.32l-.08-.2c.06,0,.2-.03.26-.14l-.18-.02.02-.18.21.02v-.1s-.04,0-.04,0ZM78.02,19.85s.05.06.07.09c.04-.02.06-.05.09-.07l-.16-.02ZM78.43,20.05c-.04-.06-.07-.1-.08-.14-.03.03-.05.06-.11.12l.2.02ZM78.34,20.21h-.08s-.01.09-.01.09h.08s.01-.09.01-.09Z"/>
      <path class="cls-3" d="M79.95,20.05h0v.05s.15.02.15.02l-.02.17-.16-.02-.02.18-.36-.04v.05s.51.06.51.06l-.02.17-.34-.04c.15.12.27.15.33.16l-.12.19c-.21-.09-.33-.2-.4-.29l-.03.26-.18-.02.03-.27c-.08.06-.23.16-.46.22l-.07-.23c.07,0,.21-.01.36-.09l-.33-.03.02-.17.51.05v-.05s-.35-.04-.35-.04l.02-.18-.16-.02.02-.17.15.02v-.05s-.08,0-.1-.01v-.16s.19.02.22.02c.02-.03.03-.04.04-.06l-.28-.03.02-.18.5.06v-.08s.2.02.2.02v.08s.49.05.49.05l-.02.17-.16-.02c.06.06.09.08.13.15l-.15.08ZM79.23,20.03l.17.02v-.05s.19.02.19.02v.05s.17.02.17.02v-.05s.13.01.13.01c-.02-.02-.02-.02-.03-.04-.06,0-.33-.02-.39-.02-.03,0-.16,0-.23-.02v.06ZM79.21,20.18v.07s.17.02.17.02v-.06s-.17-.02-.17-.02ZM79.7,19.8l-.27-.03s-.03.05-.05.06c.12.01.29.03.35.03-.03-.03-.04-.03-.06-.06h.02ZM79.57,20.23v.06s.17.02.17.02v-.06s-.17-.02-.17-.02Z"/>
      <path class="cls-3" d="M80.56,20.9c.15-.09.39-.28.59-.81h-.06c-.11.29-.29.56-.49.69l-.05-.16h-.02s-.05.46-.05.46l-.18-.02.04-.39c-.14.03-.17.04-.21.04v-.24s.1-.01.24-.04l.03-.3h-.06c-.03.13-.06.2-.08.25l-.11-.18c.03-.07.08-.19.11-.49l.15.02c0,.05,0,.09-.02.18h.04s.03-.28.03-.28l.18.02-.03.28h.08s0,.09,0,.09c.07-.12.12-.25.15-.36l.19.04s-.02.07-.05.15l.43.05c-.05.48-.1.96-.16,1.13-.02.05-.06.13-.14.12l-.22-.02v-.23c-.09.09-.17.15-.24.2l-.08-.2ZM80.88,20.06c-.1.18-.16.25-.2.29l-.09-.19h0s-.02.24-.02.24c.03,0,.04-.01.09-.03v.15c.16-.15.25-.34.29-.44h-.06ZM81.01,20.92s.06,0,.07-.03c.02-.05.05-.28.07-.4-.09.2-.19.33-.28.42l.14.02Z"/>
      <path class="cls-3" d="M81.38,20.74s.05,0,.07-.01l.09-.87.17.02-.09.81s.05-.01.09-.02l.1-.89.19.02-.13,1.21c.14-.07.23-.15.27-.19-.03-.09-.1-.27-.12-.62l.18-.06c.01.25.05.4.09.5.04-.07.12-.21.17-.5l-.43-.05.03-.23.63.07c-.02.14-.08.6-.3.91.08.14.17.21.22.26l-.15.2s-.13-.13-.22-.29c-.13.13-.23.19-.3.23l-.07-.17-.02.15-.19-.02.04-.34c-.1.03-.22.07-.3.1v-.23Z"/>
      <path class="cls-3" d="M83.77,21.42c-.16-.06-.3-.16-.41-.29l-.03.26-.19-.02.03-.26c-.15.1-.28.15-.46.19l-.07-.23c.13,0,.25-.03.38-.08l-.34-.04.02-.18.51.05v-.06s-.37-.04-.37-.04l.04-.34s-.04.03-.07.05l-.07-.21c.11-.08.21-.19.28-.33l.2.04s-.02.05-.05.09l.17.02s.02-.03.04-.11l.2.03s-.03.06-.04.1l.39.04-.02.16-.41-.04v.06s.37.04.37.04v.1s-.39-.04-.39-.04v.07s.37.04.37.04v.1s-.39-.04-.39-.04v.06s.44.05.44.05l-.02.17-.48-.05v.06s.5.06.5.06l-.02.18-.34-.04c.18.13.28.15.35.16l-.11.21ZM83.08,20.18v.06s.22.03.22.03v-.06s-.22-.03-.22-.03ZM83.06,20.35v.06s.22.02.22.02v-.06s-.22-.03-.22-.03ZM83.04,20.52v.06s.22.02.22.02v-.06s-.22-.02-.22-.02Z"/>
      <path class="cls-3" d="M85.1,20.47v.06s-.25-.03-.25-.03v.05s.3.03.3.03l-.05.44-.31-.03v.05s.36.04.36.04l-.02.17-.37-.04v.09s.38.04.38.04l-.07.21-.62-.07c-.22-.02-.29-.13-.32-.19-.05.05-.12.12-.19.17l-.04-.27s.1-.07.12-.08l.03-.32h-.1s.02-.23.02-.23l.28.03-.05.46c0,.06,0,.17.26.2h.11s0-.08,0-.08l-.35-.04.02-.16.35.04v-.05s-.3-.03-.3-.03l.04-.44.31.03v-.05s-.24-.03-.24-.03v-.06s-.1,0-.1,0v-.07s-.13.15-.13.15c-.03-.06-.11-.2-.16-.26l.14-.15c.06.07.13.16.16.24l.02-.2.88.09-.03.3h-.1ZM84.53,20.26v.06s.16.02.16.02v-.07s-.16-.02-.16-.02ZM84.53,20.63v.06s.12.01.12.01v-.06s-.12-.01-.12-.01ZM84.51,20.78v.06s.12.01.12.01v-.06s-.12-.01-.12-.01ZM85.04,20.32l-.17-.02v.06s.16.02.16.02v-.06ZM84.83,20.66v.06s.12.01.12.01v-.06s-.12-.01-.12-.01ZM84.82,20.81v.06s.12.01.12.01v-.06s-.12-.02-.12-.02Z"/>
      <path class="cls-3" d="M85.57,20.91s.02,0,.03,0l.06-.57h.09s.04-.08.05-.13l.16.04s-.03.07-.05.12h.13s-.03.29-.03.29c.06-.08.07-.2.08-.28,0-.04,0-.06,0-.09l.32.04-.04.34s0,.03,0,.04c.02,0,.02,0,.02-.03,0-.05,0-.06.02-.12l.09.06c-.04.28-.08.29-.14.28h-.07c-.05-.01-.09-.04-.08-.12l.03-.25h-.05c-.03.24-.12.32-.15.36l-.06-.15-.02.15s.02,0,.04,0v.05s.41.04.41.04l-.02.2c-.02.06-.04.15-.13.28.05.06.1.08.14.1l-.09.2s-.1-.08-.17-.16c-.09.07-.13.1-.18.12l-.06-.2s.09-.04.14-.08c-.05-.1-.06-.18-.06-.24l.12-.04h-.13s.01-.1.01-.1c-.02,0-.02,0-.04,0l-.06.52c0,.09-.04.12-.11.11h-.12s0-.21,0-.21h.08s.04.01.04-.03l.04-.37s-.01,0-.03,0l-.04.34h-.07s.04-.33.04-.33c-.01,0-.02,0-.03,0-.05.38-.11.48-.15.55l-.09-.19c.05-.1.08-.16.11-.34,0,0-.02,0-.03,0v-.06s-.04.02-.05.02l-.04.4c-.01.1-.03.16-.14.15h-.11s0-.24,0-.24h.05s.03,0,.04-.03l.02-.22s-.04.01-.08.02v-.23s.04,0,.1-.02l.03-.27h-.08s.02-.22.02-.22h.08s.03-.24.03-.24l.17.02-.03.25h.05s-.02.21-.02.21h-.05s-.02.2-.02.2c.02,0,.03,0,.06-.02v.08ZM85.9,20.55h-.13s-.04.35-.04.35c.02,0,.11-.01.13-.01l.03-.33ZM85.85,20.59s0,.21,0,.25h-.08s0-.18,0-.24h.07ZM86.14,21.12c.02.08.04.12.05.16.04-.06.06-.1.08-.14h-.13Z"/>
      <path class="cls-3" d="M87.77,20.71l-.49-.05v.07s.41.04.41.04l-.07.62-.42-.05v.06s.5.06.5.06l-.02.2-.51-.06-.02.2-.19-.02.02-.2-.51-.05.02-.2.51.06v-.07s-.41-.04-.41-.04l.07-.62.41.04v-.06s-.48-.05-.48-.05l.02-.2.49.05v-.1s.2.02.2.02v.1s.48.05.48.05l-.02.19ZM86.84,20.83v.08s.22.02.22.02v-.08s-.22-.02-.22-.02ZM86.82,21.05v.09s.21.03.21.03v-.09s-.21-.02-.21-.02ZM87.26,20.88v.08s.22.02.22.02v-.08s-.22-.03-.22-.03ZM87.24,21.09v.09s.22.02.22.02v-.09s-.22-.03-.22-.03Z"/>
    </g>
    <path class="cls-3" d="M77.28,21.05l-.02.16.37.04v.08c-.02.13-.08.44-.3.58-.08.06-.24.14-.53.13l-.04-.18c.2.01.42-.02.55-.17.08-.09.11-.26.12-.29l-.54-.06-.03.25-.17-.02.05-.42.35.04.02-.16.18.02Z"/>
    <path class="cls-3" d="M79.24,21.59c-.06.52-.22.65-.28.7l-.13-.17c.06-.05.18-.15.23-.54l.03-.29.18.02-.03.27ZM79.5,22.08c.2-.04.27-.28.29-.38l.16.1c-.1.31-.3.52-.66.49l.11-1,.18.02-.08.77Z"/>
    <path class="cls-3" d="M81.15,21.54c-.05.31-.17.81-.86.87l-.06-.18c.51-.04.62-.3.69-.53l-.7-.08.02-.18.92.1Z"/>
    <path class="cls-3" d="M82.28,21.66l-.1.9-.89-.1.1-.9.89.1ZM82.08,21.82l-.52-.06-.06.55.52.06.06-.55Z"/>
    <path class="cls-3" d="M82.84,22.05c-.1-.08-.22-.16-.34-.22l.1-.15c.16.07.28.15.35.21l-.12.16ZM82.46,22.43c.44.01.69-.14.88-.6l.16.11c-.24.59-.61.68-1,.7l-.04-.21Z"/>
    <path class="cls-3" d="M84.68,22.18l-.02.17-.36-.04v.02c-.05.29-.2.43-.55.46l-.05-.17c.26-.01.38-.09.41-.31v-.02s-.41-.05-.41-.05l.02-.17.96.1ZM84.62,21.87l-.02.18-.78-.08.02-.17.78.08Z"/>
    <path class="cls-3" d="M85.41,22.98l-.17-.02.04-.39c-.16.07-.27.1-.33.11l-.07-.16c.12-.02.24-.06.4-.14.13-.07.25-.15.35-.26l.13.13s-.13.12-.29.22l-.05.5Z"/>
    <path class="cls-3" d="M85.93,22.88c.3-.09.39-.25.42-.56l.19.02s0,.07-.03.15c.15-.05.21-.14.25-.21l-.76-.08.02-.18.99.11c-.07.29-.2.42-.4.52l-.1-.14c-.05.22-.14.41-.47.54l-.1-.16Z"/>
    <g>
      <path class="cls-3" d="M75.12,22.6l-.34-.04v-.12s.4.04.4.04v.05c.05-.08.08-.16.11-.24l.14.04s-.01.04-.04.1l.33.04-.02.16-.18-.02-.02.2.19.02-.02.16-.2-.02-.04.39-.15-.02.04-.39-.2-.02.02-.16.2.02.02-.2h-.05c-.05.08-.09.13-.11.16l-.07-.1v.11s-.34-.04-.34-.04v-.12s.34.03.34.03l-.02-.02v-.02ZM74.83,22.29l.33.04v.12s-.34-.04-.34-.04v-.12ZM74.78,22.77l.33.04v.12s-.34-.04-.34-.04v-.12ZM74.76,22.93l.33.04-.03.31-.19-.02v.04s-.14-.01-.14-.01l.04-.35ZM74.88,23.06v.08s.07,0,.07,0v-.08s-.07,0-.07,0Z"/>
      <path class="cls-3" d="M76.56,22.64l-.67-.07.02-.16.92.1-.02.16h-.1s-.08.72-.08.72c0,.07-.06.1-.11.09l-.23-.03v-.17s.17.02.17.02c.02,0,.03-.01.03-.03l.07-.63ZM76.46,22.7l-.05.49-.36-.04v.06s-.15-.02-.15-.02l.06-.56.5.05ZM76.08,22.81l-.02.2.21.02.02-.21-.21-.02Z"/>
      <path class="cls-3" d="M77.16,22.76s0-.04-.01-.07h.06s-.12-.02-.14-.02v-.14s.08.01.15.02c.21.02.41.04.62.02l.04.13s-.1,0-.16,0h.05s-.03.08-.04.11l.17.02v.13s-.25-.03-.25-.03c.02.02.1.11.25.17l-.07.15s-.04-.02-.05-.03l-.04.38-.14-.02v-.03s-.46-.05-.46-.05v.03s-.14-.02-.14-.02l.04-.38s-.03.01-.05.02l-.04-.15c.11-.02.18-.04.27-.11l-.24-.03v-.13s.19.02.19.02ZM77.16,23.22l.16.02v-.06s-.16-.02-.16-.02v.06ZM77.14,23.38l.17.02v-.06s-.16-.02-.16-.02v.06ZM77.35,23.06v-.14c-.06.07-.11.11-.13.12h.13ZM77.38,22.79v-.09s-.08,0-.09,0c0,.03.01.08.01.09h.08ZM77.51,22.8h.09s.02-.05.04-.08c-.02,0-.09,0-.11,0v.09ZM77.48,23.08h.13c-.07-.06-.1-.11-.11-.13l-.02.13ZM77.46,23.25l.17.02v-.06s-.16-.02-.16-.02v.06ZM77.44,23.41l.17.02v-.06s-.16-.02-.16-.02v.06Z"/>
      <path class="cls-3" d="M78.28,23.38s-.03.05-.04.07l-.14-.08c.05-.08.08-.13.12-.2l-.16-.02v-.14s.94.1.94.1v.14s-.61-.06-.61-.06c0,.02-.02.04-.03.06l.54.06c-.02.12-.05.27-.08.33,0,.02-.05.08-.13.08l-.21-.02-.02-.16.19.02s.05-.03.07-.12l-.43-.05ZM78.95,22.74l-.03.31-.76-.08.03-.31.76.08ZM78.32,22.8v.07s.46.05.46.05v-.07s-.46-.05-.46-.05Z"/>
      <path class="cls-3" d="M80.24,23.13l-.03.28-.33-.04v.06s.37.04.37.04c-.03.2-.04.28-.07.31-.03.04-.06.04-.08.04l-.17-.02v-.16s.11.01.11.01c.03,0,.03,0,.05-.08l-.22-.02-.03.28h-.14s.02-.23.02-.23c-.15.12-.3.15-.36.16l-.05-.16c.07,0,.17-.02.29-.07l-.25-.02c.04-.09.07-.17.09-.28l.31.03v-.06s-.34-.04-.34-.04v-.12s.02,0,.02,0l-.06-.1c.07-.04.13-.11.17-.18l.15.03s-.01.03-.02.05l.18.02v.09c.06-.07.08-.11.1-.15l.15.03s-.01.03-.02.04l.25.03v.14s-.17-.02-.17-.02c0,0,.02.04.03.06l-.07.02h.13ZM79.6,23.06s0-.05-.02-.09h-.01s-.07.06-.08.07h.11ZM79.56,23.34s0,.03-.02.05l.18.02v-.06s-.17-.02-.17-.02ZM79.86,23.09l-.08-.09h0s-.07,0-.07,0c0,0,.01.03.02.06h-.08s.19.04.19.04ZM80.02,23.11c-.01-.06-.02-.07-.02-.09h-.02s-.06.06-.08.07h.12ZM80.08,23.29v-.06s-.18-.02-.18-.02v.06s.18.02.18.02Z"/>
      <path class="cls-3" d="M86.64,24.29s-.03.05-.04.07l-.14-.07c.06-.08.08-.13.12-.21l-.16-.02.02-.14.92.1-.02.14-.6-.06s-.02.04-.03.06l.54.06c-.02.12-.05.27-.08.33,0,.01-.05.08-.13.08l-.21-.02-.02-.16.19.02s.05-.03.07-.12l-.43-.05ZM87.31,23.64l-.04.31-.76-.08.03-.31.76.08ZM86.68,23.7v.07s.46.05.46.05v-.07s-.46-.05-.46-.05Z"/>
    </g>
    <g>
      <path class="cls-3" d="M75.47,20.85c-.08.09-.18.24-.2.5-.03.26.03.43.09.54h-.12c-.03-.07-.11-.25-.08-.55.03-.3.15-.46.19-.5h.12Z"/>
      <path class="cls-3" d="M75.93,21.04v-.14s.14.01.14.01l-.02.14.18.02-.02.16-.18-.02v.11s.18.02.18.02l-.02.16-.16-.02c.05.15.12.22.15.25l-.07.18c-.06-.08-.11-.17-.13-.27l-.03.32h-.13s.04-.36.04-.36c-.05.1-.12.19-.2.26l-.06-.16c.11-.07.18-.16.23-.24l-.16-.02s.02.04.04.06l-.09.12c-.03-.09-.03-.11-.04-.16l-.05.46h-.12s.04-.43.04-.43c-.04.12-.08.18-.11.22l-.02-.22c.06-.07.09-.14.15-.29h-.1s.02-.16.02-.16h.11s.02-.17.02-.17h.12s-.02.19-.02.19h.09s0,.08,0,.08c.06-.1.08-.19.08-.22l.12.03s-.01.05-.03.1h.05ZM75.76,21.29l-.07-.08h-.08s0,.04,0,.04c.01.05.04.12.07.18l.02-.15h.07ZM75.9,21.3v-.1s-.08-.01-.08-.01c-.02.05-.05.09-.05.1h.13Z"/>
      <path class="cls-3" d="M76.33,20.94c.03.05.11.23.08.54-.03.3-.15.46-.19.51h-.12c.08-.1.18-.26.21-.52.03-.26-.03-.44-.09-.54h.12Z"/>
    </g>
    <path class="cls-3" d="M78.33,22.18l-.16-.02.04-.38c-.15.07-.26.09-.32.11l-.07-.15c.11-.03.23-.06.38-.14.13-.07.24-.15.34-.25l.12.12s-.13.12-.28.21l-.05.49Z"/>
    <g>
      <path class="cls-3" d="M80.7,23.84l.07-.62-.19-.02.02-.16c.11,0,.19,0,.25-.15l.16.02-.1.95-.2-.02Z"/>
      <path class="cls-3" d="M81.42,23.14l.02-.18.71.08-.02.17c-.05.03-.15.1-.27.31-.09.17-.11.31-.13.43l-.2-.02c.01-.07.03-.23.14-.43.09-.16.17-.23.25-.3l-.5-.05Z"/>
      <path class="cls-3" d="M82.91,23.36s-.02-.08-.12-.09c-.17-.02-.2.14-.21.23.04-.03.1-.08.24-.07.18.02.29.15.27.34-.02.18-.15.33-.39.31-.1-.01-.16-.05-.2-.08-.14-.12-.15-.32-.13-.46.05-.47.36-.47.44-.46.1.01.3.08.31.3l-.21-.02ZM82.89,23.76c0-.1-.06-.16-.14-.17-.09-.01-.17.03-.18.13,0,.08.04.16.15.17.11.01.17-.06.18-.14Z"/>
      <path class="cls-3" d="M84.11,23.43l-.37-.04-.05.19c.06-.04.13-.04.18-.03.14.01.29.12.26.34-.02.2-.17.33-.4.31-.31-.03-.32-.25-.33-.33l.21.02c0,.11.12.12.14.13.1,0,.17-.05.18-.14.01-.11-.06-.17-.13-.18-.08,0-.11.02-.13.04l-.21-.02.14-.51.55.06-.02.18Z"/>
      <path class="cls-3" d="M84.66,24.03s.03.09.12.1c.17.02.2-.14.21-.23-.04.03-.1.08-.24.06-.18-.02-.29-.15-.27-.34.02-.18.15-.34.39-.31.1.01.16.05.2.08.14.12.14.32.13.46-.05.47-.36.47-.43.46-.1,0-.3-.08-.31-.3l.21.02ZM84.68,23.63c-.01.1.06.16.15.17.09,0,.17-.03.18-.13,0-.08-.04-.16-.14-.17-.11-.01-.17.06-.18.14Z"/>
      <path class="cls-3" d="M86.17,23.65l-.38-.04-.05.19c.06-.04.14-.04.18-.03.14.02.29.12.26.34-.02.2-.17.33-.4.31-.31-.03-.32-.25-.33-.33l.21.02c0,.12.12.13.14.13.1.01.17-.05.18-.14.01-.1-.06-.17-.14-.18-.07,0-.1.01-.13.04l-.22-.02.15-.51.55.06-.02.18Z"/>
    </g>
  </g>
</svg>