<?xml version="1.0" encoding="UTF-8"?>
<svg id="_レイヤー_2" data-name="レイヤー 2" xmlns="http://www.w3.org/2000/svg" viewBox="0 0 163.15 103.8">
  <defs>
    <style>
      .cls-1 {
        fill: #23ab3a;
      }

      .cls-2 {
        fill: #231815;
      }

      .cls-3 {
        fill: #fff;
      }

      .cls-4 {
        fill: #feef12;
      }
    </style>
  </defs>
  <path class="cls-4" d="M81.57,24.42C36.52,24.42,0,42.19,0,64.11c0,18.09,24.88,33.34,58.88,38.12,3.49.4,9.49,1.64,11.59,1.19,3.63.24,7.34.38,11.11.38,45.05,0,81.57-17.77,81.57-39.69S126.62,24.42,81.57,24.42Z"/>
  <g>
    <path class="cls-3" d="M127.61,19.11c1.56,8.98-4.45,17.52-13.43,19.09-8.98,1.56-17.52-4.45-19.08-13.43-1.56-8.98,4.45-17.52,13.43-19.09,8.98-1.56,17.52,4.45,19.08,13.43Z"/>
    <path class="cls-3" d="M158.14,29.78c-1.59,5.79-7.58,9.19-13.37,7.6-5.79-1.59-9.19-7.58-7.6-13.37,1.59-5.79,7.58-9.19,13.37-7.59,5.79,1.59,9.19,7.58,7.59,13.37Z"/>
    <g>
      <g>
        <path class="cls-1" d="M111.32,39.62c-3.61,0-7.12-1.1-10.13-3.22-3.86-2.72-6.43-6.77-7.24-11.42-.81-4.65.24-9.34,2.95-13.2,2.72-3.86,6.77-6.43,11.42-7.24,9.6-1.67,18.76,4.78,20.44,14.38h0c.81,4.65-.24,9.34-2.95,13.2-2.72,3.86-6.77,6.43-11.42,7.24-1.02.18-2.05.27-3.07.27ZM111.36,6.61c-.87,0-1.75.07-2.63.23-4.04.7-7.55,2.93-9.91,6.28-2.36,3.35-3.27,7.42-2.56,11.45.7,4.03,2.93,7.55,6.28,9.91,3.35,2.36,7.41,3.27,11.45,2.56,4.04-.7,7.55-2.93,9.91-6.28,2.36-3.35,3.27-7.42,2.56-11.45h0c-1.3-7.44-7.79-12.7-15.1-12.7Z"/>
        <polygon class="cls-1" points="119.29 18.18 119.78 20.97 114.03 21.97 113.34 23.63 113.65 25.41 120.35 24.24 120.84 27.03 114.13 28.2 114.98 33.06 111.71 33.63 110.86 28.77 104.16 29.94 103.67 27.15 110.38 25.98 110.07 24.2 108.85 22.88 103.1 23.88 102.62 21.09 106.57 20.4 100.59 13.91 103.94 13.32 111.24 21.25 115.42 11.32 118.77 10.74 115.34 18.87 119.29 18.18"/>
      </g>
      <g>
        <path class="cls-1" d="M147.66,38.54c-1.02,0-2.06-.14-3.09-.42-6.19-1.7-9.84-8.13-8.13-14.31,1.7-6.19,8.13-9.84,14.31-8.13,6.19,1.7,9.84,8.13,8.13,14.31h0c-1.42,5.16-6.12,8.55-11.23,8.55ZM147.66,16.79c-4.43,0-8.51,2.94-9.74,7.42-1.48,5.37,1.69,10.94,7.06,12.42,5.37,1.48,10.94-1.69,12.42-7.06h0c1.48-5.37-1.69-10.94-7.06-12.42-.89-.25-1.79-.36-2.68-.36Z"/>
        <polygon class="cls-1" points="153.45 26.89 152.95 28.69 149.25 27.67 148.37 28.46 148.05 29.6 152.37 30.79 151.88 32.59 147.55 31.4 146.69 34.54 144.58 33.95 145.44 30.82 141.12 29.63 141.62 27.83 145.94 29.02 146.26 27.88 145.9 26.74 142.2 25.72 142.69 23.93 145.24 24.63 143.51 19.08 145.67 19.67 147.78 26.45 153.07 21.71 155.23 22.31 150.9 26.19 153.45 26.89"/>
      </g>
      <polygon class="cls-1" points="126.44 9.33 125.45 7.89 132.93 0 134.38 2.12 126.44 9.33"/>
      <polygon class="cls-1" points="130.96 15.92 129.97 14.48 139.56 9.68 141.01 11.79 130.96 15.92"/>
    </g>
  </g>
  <path class="cls-4" d="M31.43,92.12c-4.91,4.12-12.91,7.39-18.53,8.29,3.07-2.86,5.1-6.07,6.95-9.48-.15-7.24,15.65-4.71,11.59,1.19Z"/>
  <g>
    <path class="cls-2" d="M23.41,44.37c.16-.35.3-.82.32-.91l.67.15c-.1.27-.21.54-.32.76h3.11v6.75h-.69v-.49h-4.75v.49h-.68v-6.75h2.34ZM21.76,46.22h4.75v-1.22h-4.75v1.22ZM21.76,48.07h4.75v-1.23h-4.75v1.23ZM26.5,48.67h-4.75v1.34h4.75v-1.34Z"/>
    <path class="cls-2" d="M30.92,51.13h-.67v-3.33c-.52.48-.9.72-1.13.87l-.28-.67c1.37-.82,2.13-1.88,2.41-2.55h-2.3v-.62h1.3v-1.34h.67v1.34h1.06v.63c-.08.2-.3.71-.9,1.46.44.5.72.75,1.18,1.08l-.37.6c-.44-.35-.53-.45-.98-.99v3.53ZM34.57,43.49v2.38h1.81v.67h-1.81v3.62h2v.67h-4.79v-.67h2.11v-3.62h-1.72v-.67h1.72v-2.38h.69Z"/>
    <path class="cls-2" d="M41.18,50.09c1.29-.12,1.97-.32,2.43-.78.63-.63.71-1.57.71-2.07,0-.96-.48-2.43-2.5-2.49-.02,1.65-.63,5.38-2.45,5.38-.96,0-1.54-1.15-1.54-2.36,0-2.04,1.43-3.68,3.87-3.68,2.29,0,3.42,1.4,3.42,3.21,0,3.12-2.63,3.41-3.72,3.5l-.24-.69ZM39.72,45.32c-1.18.86-1.18,2.29-1.18,2.51,0,.62.21,1.55.85,1.55.44,0,.71-.44.87-.75.25-.49.77-1.92.83-3.85-.3.05-.83.13-1.37.53Z"/>
    <path class="cls-2" d="M48.18,45.59h.77v.62h-.77v.2c.15.37.46.99,1.13,1.67l-.38.6c-.43-.61-.67-1.13-.75-1.35v3.8h-.64v-3.52c-.34,1.04-.72,1.56-.95,1.86l-.35-.71c.68-.78,1.11-1.97,1.26-2.55h-1.09v-.62h1.12v-1.16c-.46.08-.76.1-1.01.12l-.11-.6c.69,0,1.81-.2,2.47-.44l.22.54c-.17.08-.3.14-.93.26v1.27ZM48.8,50.58c.32-.09,1.14-.33,1.75-.74l.43.42c-.55.41-1.34.72-1.85.86l-.33-.54ZM51.86,43.51v.44h1.98v.5h-1.98v.46h1.74v.44h-1.74v.47h2.14v.51h-4.86v-.51h2.06v-.47h-1.7v-.44h1.7v-.46h-1.92v-.5h1.92v-.44h.66ZM53.57,49.82h-4.07v-3.08h4.07v3.08ZM52.94,47.18h-2.81v.45h2.81v-.45ZM52.94,48.03h-2.81v.45h2.81v-.45ZM52.94,48.87h-2.81v.46h2.81v-.46ZM52.46,49.84c.49.34,1.09.59,1.63.74l-.34.54c-.57-.17-1.23-.51-1.69-.84l.4-.44Z"/>
    <path class="cls-2" d="M58,47.53c-.27-.24-.64-.58-1.03-1.29-.49,1.04-1.23,1.5-1.6,1.71l-.37-.58c.32-.16,1.08-.57,1.45-1.47h-1.34v-.55h1.52c.07-.33.07-.5.07-.72h-1.41v-.57h1.41v-.55h.63v.55h1.18v.57h-1.18c0,.19,0,.39-.07.72h1.39v.55h-1.27c.41.68.82.98,1.04,1.14l-.44.49ZM61.81,47.7v3.44h-.67v-.35h-4.46v.35h-.69v-3.44h5.82ZM56.68,48.26v.67h4.46v-.67h-4.46ZM56.68,49.46v.75h4.46v-.75h-4.46ZM62.44,47.94c-1.09-.64-1.52-1.41-1.7-1.79-.3.63-.8,1.08-1.63,1.44l-.43-.59c.3-.1,1.09-.36,1.46-1.09h-1.11v-.55h1.3c.07-.31.07-.53.07-.72h-1.25v-.57h1.25v-.55h.62v.55h1.5v.57h-1.5c0,.4-.04.63-.06.72h1.74v.55h-1.48c.26.5.72,1.05,1.59,1.44l-.38.6Z"/>
    <path class="cls-2" d="M69.3,45.52v.62c-.62.53-1.23,1.07-1.85,1.6.17-.05.25-.06.34-.06.7,0,.8.65.8,1.21v.35c0,.77.18.87,1.07.87.6,0,.97-.04,1.26-.07l.02.72c-.27.02-.58.05-1.18.05-1.02,0-1.88-.02-1.88-1.37v-.44c0-.45-.04-.72-.46-.72s-.68.2-.86.34c-.35.33-1.86,1.86-2.17,2.16l-.52-.56c.36-.33,1.93-1.83,2.26-2.14,1.02-.96,1.77-1.6,2.11-1.91l-3.78.07v-.71h4.85ZM69.33,44.94c-.59-.21-1.52-.49-3.94-.62l.11-.67c1.36.05,2.71.19,4.02.58l-.19.72Z"/>
    <path class="cls-2" d="M73.69,47.31c0,.4-.32.7-.7.7s-.7-.31-.7-.7.31-.7.7-.7.7.3.7.7Z"/>
    <path class="cls-2" d="M76.57,51.13h-.67v-4.29c-.28.44-.47.63-.65.83l-.35-.77c.85-.94,1.43-2.29,1.65-3.44l.69.12c-.07.32-.2.98-.67,2.02v5.52ZM76.92,50.12c1.55-.8,2.27-2.05,2.4-2.26h-2.17v-.62h2.42v-.88h-1.88v-2.62h4.46v2.62h-1.91v.88h2.39v.62h-2.16c.39.73,1.16,1.6,2.29,2.28l-.43.58c-.76-.52-1.46-1.13-2.09-2.25v2.66h-.67v-2.62c-.39.66-1.08,1.5-2.25,2.2l-.39-.58ZM81.49,44.35h-3.15v1.41h3.15v-1.41Z"/>
    <path class="cls-2" d="M87.36,44.06v.58h-1.29c.09.17.21.46.28.69l-.63.2c-.07-.3-.22-.67-.32-.89h-.38c-.29.4-.57.72-.92.97l-.46-.46c.67-.48,1.13-1.21,1.3-1.71l.66.12c-.07.17-.11.27-.22.49h1.99ZM87.83,45.4v.44h3.34v1.53h-.64v-.98h-6.01v.98h-.63v-1.53h3.31v-.44h.4l-.46-.33c.49-.44.87-.96,1.1-1.62l.63.11c-.06.16-.11.3-.2.5h2.64v.58h-1.74c.18.29.23.39.36.72l-.63.2c-.08-.24-.27-.67-.4-.91h-.56c-.07.11-.31.49-.63.76h.12ZM90.15,46.83v1.64h-4.65v.55h5.22v2.1h-.65v-.34h-4.57v.34h-.66v-4.29h5.31ZM85.5,47.33v.65h3.99v-.65h-3.99ZM85.5,49.51v.74h4.57v-.74h-4.57Z"/>
    <path class="cls-2" d="M97.22,43.57c-.07.21-.14.46-.31.78h3.12v.61h-3.5c-.42.59-.77.88-.97,1.06l-.42-.51c.15-.12.2-.15.34-.28h-1.65v1.09h1.46c-.02,2.06-.07,3.93-.29,4.43-.08.18-.22.36-.79.36h-.63l-.12-.66h.65c.15,0,.28,0,.35-.22.1-.31.17-2.22.18-3.28h-.81v.16c0,1.55-.27,2.9-1.01,3.97l-.47-.54c.3-.49.86-1.36.86-3.44v-1.87h-.74v-.63h1.18v-1.08h.67v1.08h1.18v.62c.07-.07.7-.67,1.08-1.74l.65.09ZM97.57,46.52v-1.23h.62v1.07l1.55-.39c-.03,2.21-.03,2.45-.1,2.71-.07.22-.2.4-.69.4h-.5l-.09-.62h.46c.14,0,.25-.02.27-.29.03-.21.03-1.01.03-1.39l-.93.23v2.67h-.62v-2.51l-.85.21v2.57c0,.36.12.4.41.4h1.74c.39,0,.51,0,.51-1.01l.65.19c-.07,1.15-.17,1.45-.88,1.45h-2.28c-.42,0-.79-.1-.79-.66v-2.8l-.49.12-.11-.59.6-.16v-1.16h.63v1l.85-.21Z"/>
    <path class="cls-2" d="M104.23,44.9v.59h-3.09v-.59h3.09ZM103.95,43.74v.58h-2.55v-.58h2.55ZM103.95,46.06v.59h-2.55v-.59h2.55ZM103.95,47.23v.59h-2.55v-.59h2.55ZM103.95,48.41v2.34h-1.95v.37h-.6v-2.71h2.55ZM103.35,48.96h-1.35v1.23h1.35v-1.23ZM108.6,51.13c-.58-.18-1.32-.45-2.14-1.04-.96.72-1.73.93-2.15,1.04l-.35-.64c1.05-.25,1.59-.57,1.97-.83-.72-.66-.98-1.26-1.13-1.59l.56-.24c.14.31.43.9,1.05,1.43.39-.36.78-.83,1.16-1.62h-3.13v-.65h3.83v.64c-.14.36-.45,1.18-1.32,2.02.77.49,1.5.71,1.94.83l-.3.65ZM107.58,43.74v1.82c0,.08.02.21.2.21h.19c.12,0,.17-.05.2-.18.03-.12.08-.62.1-.9l.62.15c-.02,1.52-.44,1.57-.73,1.57h-.66c-.12,0-.55,0-.55-.53v-1.51h-1.32c-.07,1.24-.3,1.74-.96,2.27l-.49-.5c.58-.37.82-1.06.82-2.03,0-.15,0-.25,0-.37h2.6Z"/>
    <path class="cls-2" d="M112.86,43.73c-.02.58-.03.99-.03,1.57,0,.64.12.86.2,1.01.53-.16,1.42-.45,3.04-.68l.08.77c-1.3.15-2.48.39-3.43.75-.54.21-1.91.75-1.91,1.79s1.07,1.09,3.08,1.09c1.34,0,2.11-.08,2.52-.13v.76c-.5.06-.81.09-2,.09-2.21,0-2.76-.12-3.34-.34-.67-.25-1.02-.8-1.02-1.4,0-1.22,1.17-2.02,2.31-2.47-.28-.44-.3-.58-.31-2.83h.8Z"/>
    <path class="cls-2" d="M121.8,43.5v1.45h3.18v4.11h-.69v-.45h-2.49v2.51h-.71v-2.51h-2.46v.45h-.69v-4.11h3.15v-1.45h.71ZM121.09,45.62h-2.46v2.33h2.46v-2.33ZM124.29,45.62h-2.49v2.33h2.49v-2.33Z"/>
    <path class="cls-2" d="M129.74,43.8v2.86h-2.39v4.47h-.66v-7.33h3.05ZM129.1,44.34h-1.75v.62h1.75v-.62ZM129.1,45.44h-1.75v.67h1.75v-.67ZM132.04,50.23h-3.75v-3h3.75v3ZM131.42,47.77h-2.51v.69h2.51v-.69ZM131.42,48.93h-2.51v.76h2.51v-.76ZM133.66,50.44c0,.16,0,.68-.58.68h-1.2l-.12-.66h1.01c.15,0,.24-.02.24-.22v-3.59h-2.47v-2.86h3.12v6.65ZM133.01,44.34h-1.83v.62h1.83v-.62ZM133.01,45.44h-1.83v.67h1.83v-.67Z"/>
    <path class="cls-2" d="M142.82,50.35l-.12.66h-2.43c-1.53,0-2.6-.62-3.26-1.38-.58.82-1.24,1.3-1.58,1.55l-.44-.57c.37-.25,1.02-.68,1.61-1.55-.3-.49-.54-1.03-.71-1.73-.19.41-.34.65-.48.86l-.5-.52c.43-.61,1.06-1.72,1.16-4.19l.62.02c-.02.24-.03.39-.07.88h1.74c-.02.65-.05,2.08-.56,3.7-.15.46-.35.82-.44,1,.02.04.4.49,1.04.82.29.16.86.45,1.82.45h2.6ZM136.54,45.02c-.09.52-.18.96-.28,1.29.13.72.34,1.47.69,2.13.66-1.4.72-2.9.75-3.42h-1.16ZM141.61,48.66c0,.15.03.19.16.19h.19c.12,0,.14-.14.15-.2.03-.32.04-.45.06-1.19l.61.1c0,.64-.08,1.46-.21,1.66-.11.17-.28.26-.49.26h-.49c-.12,0-.62,0-.62-.51v-4.56h-1.31v1.69c0,2.2-.74,3.07-1.05,3.42l-.57-.44c.36-.39.97-1.03.97-3.04v-2.29h2.6v4.9Z"/>
    <path class="cls-2" d="M23.04,62.34c-.81.35-1.98.67-2.64.86l-.11-.67c.29-.07.74-.2,1.12-.3v-2.4h-.93v-.64h.93v-1.88h-1.01v-.63h2.63v.63h-.96v1.88h.81v.64h-.81v2.2c.4-.14.66-.24.96-.35v.67ZM27.78,56.47v3.87h-1.91v.94h1.99v.61h-1.99v1.16h2.14v.62h-5.22v-.62h2.44v-1.16h-1.97v-.61h1.97v-.94h-1.92v-3.87h4.47ZM25.23,57.06h-1.28v1.06h1.28v-1.06ZM25.23,58.68h-1.28v1.08h1.28v-1.08ZM27.15,57.06h-1.28v1.06h1.28v-1.06ZM27.15,58.68h-1.28v1.08h1.28v-1.08Z"/>
    <path class="cls-2" d="M34.38,56.32c-.07.21-.14.46-.31.78h3.12v.61h-3.5c-.42.59-.77.88-.97,1.06l-.42-.51c.15-.12.2-.15.34-.28h-1.65v1.09h1.46c-.02,2.06-.07,3.93-.29,4.43-.08.18-.22.36-.79.36h-.63l-.12-.66h.65c.15,0,.28,0,.35-.22.1-.31.17-2.22.18-3.28h-.81v.16c0,1.55-.27,2.9-1.01,3.97l-.47-.54c.3-.49.86-1.36.86-3.44v-1.87h-.74v-.63h1.18v-1.08h.67v1.08h1.18v.62c.07-.07.7-.67,1.08-1.74l.65.09ZM34.73,59.28v-1.23h.62v1.07l1.55-.39c-.03,2.21-.03,2.45-.1,2.71-.07.22-.2.4-.69.4h-.5l-.09-.62h.46c.14,0,.25-.02.27-.29.03-.21.03-1.01.03-1.39l-.93.23v2.67h-.62v-2.51l-.85.21v2.57c0,.36.12.4.41.4h1.74c.39,0,.51,0,.51-1.01l.65.19c-.07,1.15-.17,1.45-.88,1.45h-2.28c-.42,0-.79-.1-.79-.66v-2.8l-.49.12-.11-.59.6-.16v-1.16h.63v1l.85-.21Z"/>
    <path class="cls-2" d="M41.86,57.66v.59h-3.09v-.59h3.09ZM41.58,56.5v.58h-2.55v-.58h2.55ZM41.58,58.82v.59h-2.55v-.59h2.55ZM41.58,59.98v.59h-2.55v-.59h2.55ZM41.58,61.17v2.34h-1.95v.37h-.6v-2.71h2.55ZM40.98,61.72h-1.35v1.23h1.35v-1.23ZM46.23,63.88c-.58-.18-1.32-.45-2.14-1.04-.96.72-1.73.93-2.15,1.04l-.35-.64c1.05-.25,1.59-.57,1.97-.83-.72-.66-.98-1.26-1.13-1.59l.56-.24c.14.31.43.9,1.05,1.43.39-.36.78-.83,1.16-1.62h-3.13v-.65h3.83v.64c-.14.36-.45,1.18-1.32,2.02.77.49,1.5.71,1.94.83l-.3.65ZM45.21,56.5v1.82c0,.08.02.21.2.21h.19c.12,0,.17-.05.2-.18.03-.12.08-.62.1-.9l.62.15c-.02,1.52-.44,1.57-.73,1.57h-.66c-.12,0-.55,0-.55-.53v-1.51h-1.32c-.07,1.24-.3,1.74-.96,2.27l-.49-.5c.58-.37.82-1.06.82-2.03,0-.15,0-.25,0-.37h2.6Z"/>
    <path class="cls-2" d="M49.41,56.68c-.25,1.21-.35,2.43-.35,3.69,0,1.1.07,2.14.3,3.08l-.76.09c-.13-.53-.28-1.15-.28-3.02,0-2.21.22-3.41.31-3.92l.78.07ZM51.53,60.3c-.14.2-.39.57-.39,1.08,0,.72.5.95,1.83.95.41,0,1.13,0,1.83-.08v.74c-.3.02-.72.07-1.51.07-1.04,0-2.87,0-2.87-1.62,0-.66.31-1.18.45-1.42l.66.29ZM54.64,57.24v.71h-3.98v-.71h3.98Z"/>
    <path class="cls-2" d="M63.78,57.63c-.26-.02-.52-.03-.85-.03-.45,0-.58.04-.76.1-1.56.51-3.08,1.84-3.08,3.26,0,1.03.83,1.55,2.24,1.73.74.1,1.32.08,1.69.07l-.11.79c-1.74-.03-2.7-.25-3.49-.67-.66-.36-1.09-1.11-1.09-1.84,0-1.5,1.22-2.66,2.52-3.4-1.62.07-2.4.14-4.14.28l-.04-.76c.68,0,4.42-.21,5.25-.22.23,0,1.68-.04,1.84-.05l.02.76Z"/>
    <path class="cls-2" d="M67.21,63.63c-.58-.88-1.09-1.41-1.37-1.7l.62-.46c.54.49,1.12,1.18,1.46,1.65l-.72.51Z"/>
    <path class="cls-2" d="M74.25,56.84v-.59h.71v.59h3.01v.6h-1.23c-.09.43-.24.82-.28.94h1.98v.59h-6.4v1.68c0,1.03-.21,2.38-.79,3.21l-.55-.48c.49-.68.67-1.91.67-2.66v-2.34h1.4c0-.08-.11-.59-.24-.94h-1.29v-.6h3.01ZM75,59.93v-.74h.67v.74h2.43v.6h-2.43v.9h2.09v.58h-2.09v.99h2.71v.62h-6.28v-.62h2.89v-.99h-2.11v-.58h2.11v-.9h-1.65c-.26.41-.4.57-.58.75l-.53-.44c.58-.56.93-1.32,1.06-1.7l.65.12c-.07.23-.13.39-.27.67h1.32ZM75.81,58.38c.11-.3.19-.62.24-.94h-2.88c.15.51.19.67.25.94h2.39Z"/>
    <path class="cls-2" d="M87.24,63.75c-1.4-.51-2.09-.86-3.08-1.77v1.91h-.65v-1.92c-.96.93-1.92,1.36-3.08,1.76l-.36-.59c.76-.21,1.9-.58,2.95-1.47h-2.98v-.55h3.47v-.6h-2.93v-.53h2.93v-.58h-3.12v-.54h1.93c-.05-.2-.19-.61-.27-.79h-2.01v-.56h1.42c-.16-.36-.25-.53-.55-1.04l.67-.22c.1.16.3.48.58,1.27h.61v-1.27h.64v1.27h.85v-1.27h.64v1.27h.58c.25-.43.46-.92.6-1.27l.67.22c-.12.25-.37.72-.58,1.04h1.45v.56h-2.04c-.11.35-.17.53-.25.79h1.98v.54h-3.15v.58h2.95v.53h-2.95v.6h3.46v.55h-2.96c.93.79,1.66,1.12,2.96,1.46l-.39.62ZM84.65,58.87c.03-.08.17-.46.23-.79h-2.15c.04.12.22.67.27.79h1.64Z"/>
    <path class="cls-2" d="M92.74,56.86v-.61h.68v.61h3.37v.59h-6.35v2.62c0,1.51-.38,2.89-.85,3.72l-.55-.49c.37-.72.73-1.72.73-3.27v-3.18h2.96ZM95.16,60.21h-.44v.94h1.65v.58h-1.65v1.19c0,.09,0,.24.24.24h.84c.32,0,.35-.15.36-.93l.65.15c-.03.48-.08.85-.15,1-.15.34-.52.38-.64.38h-1.3c-.38,0-.63-.11-.63-.56v-1.47h-1.13c-.22,1.01-.99,1.72-2.15,2.13l-.39-.6c.88-.25,1.59-.64,1.88-1.53h-1.45v-.58h1.55c0-.07,0-.11,0-.21v-.72h-.41v-.17c-.56.38-.86.5-1.14.62l-.31-.54c.29-.11.6-.24,1.14-.58-.35-.3-.44-.38-.81-.6l.45-.37c.35.21.67.47.85.64.5-.38.63-.54.81-.77h-1.84v-.53h2.85c.14.2.27.38.53.65.09-.08.36-.37.64-.76l.49.3c-.22.33-.38.52-.72.85.17.15.25.22.37.3.07-.07.5-.49.81-.95l.5.32c-.25.37-.46.59-.86.95.51.33.86.44,1.13.53l-.3.58c-.33-.14-.81-.36-1.42-.8v.34ZM94.86,59.65c-.61-.5-.95-.94-1.18-1.24-.17.24-.45.66-1.18,1.24h2.36ZM93.04,61.14h1.04v-.94h-1.04v.94Z"/>
    <path class="cls-2" d="M105.63,63.73c-1.76-.52-2.6-1.14-3.15-1.68v1.81h-.61v-1.82c-.39.37-1.37,1.19-3.16,1.72l-.31-.63c1.15-.25,2.19-.66,2.96-1.32h-2.99v-.56h3.5v-.44h-2.22v-1.12h-1.28v-.53h1.28v-.44h.61v.44h1.61v-.44h.61v.44h1.62v-.44h.62v.44h1.26v.53h-1.26v1.12h-2.24v.44h3.5v.56h-2.99c.93.72,1.68,1,2.97,1.28l-.32.63ZM104.91,58.8c-.15-.13-.31-.27-.58-.47-3.48.23-3.81.26-5.62.26l-.04-.54c.22,0,1.32,0,1.57-.02.3-.39.34-.46.42-.62h-2.27v-.57h3.44v-.57h.68v.57h3.4v.57h-1.88c.17.09.91.55,1.42,1l-.53.39ZM101.87,59.69h-1.61v.61h1.61v-.61ZM103.84,57.41h-2.35c-.32.44-.35.49-.46.62.14,0,2.44-.07,2.75-.08-.22-.14-.26-.16-.43-.27l.49-.26ZM104.1,59.69h-1.62v.61h1.62v-.61Z"/>
    <path class="cls-2" d="M109.06,57.82v-1.56h.67v1.56h.8v.64h-.8v1.87c.49-.15.62-.21.85-.3l.07.64c-.23.1-.49.2-.91.33v2.87h-.67v-2.67c-.74.2-1.09.28-1.46.36l-.12-.68c.3-.05.72-.12,1.59-.36v-2.06h-.63c-.07.43-.19,1.01-.42,1.47l-.53-.38c.38-.82.48-1.88.5-2.84l.62.03c0,.26-.02.49-.08,1.07h.55ZM110.5,63.28c1.78-1.16,2.8-3.12,3.18-5.22h-.69c-.36,1.91-1.59,3.62-2.54,4.23l-.44-.52c1.22-.88,2.04-2.25,2.34-3.71h-.71c-.18.47-.51,1.19-.98,1.74l-.53-.46c.29-.32.97-1.08,1.33-3.09l.68.04c-.05.28-.12.63-.29,1.16h3.19c.03,2.67-.15,5.11-.36,5.73-.07.18-.24.69-1,.69h-1.16l-.12-.68h1.14c.17,0,.37,0,.47-.19.34-.7.38-3.97.39-4.94h-.1c-.34,1.61-.93,4.1-3.33,5.76l-.47-.53Z"/>
    <path class="cls-2" d="M120.25,62.85c1.29-.12,1.97-.32,2.43-.78.63-.63.71-1.57.71-2.07,0-.96-.48-2.43-2.5-2.49-.02,1.65-.63,5.38-2.45,5.38-.96,0-1.54-1.15-1.54-2.36,0-2.04,1.43-3.68,3.87-3.68,2.29,0,3.42,1.4,3.42,3.21,0,3.12-2.63,3.41-3.72,3.5l-.24-.69ZM118.8,58.08c-1.18.86-1.18,2.29-1.18,2.51,0,.62.21,1.55.85,1.55.44,0,.71-.44.87-.75.25-.49.77-1.92.83-3.85-.3.05-.83.13-1.37.53Z"/>
    <path class="cls-2" d="M133.64,63.05l-.13.63h-4.11c-1.35,0-1.86-.69-2.04-.93-.53.6-.57.65-1.15,1.16l-.33-.7c.15-.09.62-.4.98-.78v-2.32h-.89v-.67h1.54v2.49c.16,1,1.66,1.12,1.9,1.12h4.24ZM127.27,58.17c-.15-.22-.44-.67-1.18-1.39l.45-.41c.39.33.86.81,1.26,1.37l-.53.44ZM131.05,56.25v.52h2.48v.56h-1.24c-.08.28-.15.47-.26.75h1.2v4.02c0,.39-.18.63-.61.63h-.87l-.09-.62h.76c.11,0,.18,0,.18-.2v-3.3h-1.59v.62h1.33v.51h-1.33v.57h1.05v1.7h-2.7v-1.7h1.04v-.57h-1.34v-.51h1.34v-.62h-1.6v4.01h-.62v-4.55h1.13c-.03-.13-.18-.68-.21-.75h-1.2v-.56h2.46v-.52h.67ZM131.46,58.08c.09-.21.21-.64.24-.75h-1.95c.1.39.11.43.18.75h1.53ZM131.51,60.8h-1.57v.71h1.57v-.71Z"/>
    <path class="cls-2" d="M142.48,56.55v.65h-3.03v2.32h2.71v.64h-2.71v2.78h3.28v.66h-7.57v-.66h1.19v-4.42h.7v4.42h1.69v-5.74h-3.32v-.65h7.06Z"/>
    <path class="cls-2" d="M28.14,75.87l-.12.66h-2.43c-1.53,0-2.6-.62-3.26-1.38-.58.82-1.24,1.3-1.58,1.55l-.44-.57c.37-.25,1.02-.68,1.61-1.55-.3-.49-.54-1.03-.71-1.73-.19.41-.34.65-.48.86l-.5-.52c.43-.61,1.06-1.72,1.16-4.19l.62.02c-.02.24-.03.39-.07.88h1.74c-.02.65-.05,2.08-.56,3.7-.15.46-.35.82-.44,1,.02.04.4.49,1.04.82.29.16.86.45,1.82.45h2.6ZM21.86,70.54c-.09.52-.18.96-.28,1.29.13.72.34,1.47.69,2.13.66-1.4.72-2.9.75-3.42h-1.16ZM26.93,74.17c0,.15.03.19.16.19h.19c.12,0,.14-.14.15-.2.03-.32.04-.45.06-1.19l.61.1c0,.64-.08,1.46-.21,1.66-.11.17-.28.26-.49.26h-.49c-.12,0-.62,0-.62-.51v-4.56h-1.31v1.69c0,2.2-.74,3.07-1.05,3.42l-.57-.44c.36-.39.97-1.03.97-3.04v-2.29h2.6v4.9Z"/>
    <path class="cls-2" d="M32.21,75.09c-.81.35-1.98.67-2.64.86l-.11-.67c.29-.07.74-.2,1.12-.3v-2.4h-.93v-.64h.93v-1.88h-1.01v-.63h2.63v.63h-.96v1.88h.81v.64h-.81v2.2c.4-.14.66-.24.96-.35v.67ZM36.94,69.23v3.87h-1.91v.94h1.99v.61h-1.99v1.16h2.14v.62h-5.22v-.62h2.44v-1.16h-1.97v-.61h1.97v-.94h-1.92v-3.87h4.47ZM34.39,69.82h-1.28v1.06h1.28v-1.06ZM34.39,71.43h-1.28v1.08h1.28v-1.08ZM36.31,69.82h-1.28v1.06h1.28v-1.06ZM36.31,71.43h-1.28v1.08h1.28v-1.08Z"/>
    <path class="cls-2" d="M41.87,69.2c-.04.22-.07.44-.17.86h3.5v.68h-3.69c-.16.53-.31.78-.47,1.04.23-.16.6-.41,1.23-.41.43,0,1.05.11,1.27,1.01.79-.32,1.53-.57,2.07-.75l.29.72c-.62.16-1.37.37-2.25.71.03.34.04.7.04.95,0,.31,0,.51-.03.67h-.73c.02-.23.04-.37.04-.72,0-.18,0-.43-.02-.6-.42.21-1.65.81-1.65,1.52,0,.77,1,.77,1.87.77.36,0,1.14-.02,2.16-.12l.02.72c-.33.02-.93.07-2.01.07-.92,0-2.78,0-2.78-1.41,0-.81.78-1.49,2.32-2.22-.07-.43-.28-.67-.72-.67-.49,0-1.08.27-1.69.91-.55.77-.61.85-1.16,1.45l-.55-.49c1.18-1.07,1.72-2.38,1.96-3.13h-1.74v-.68h1.92c.1-.47.11-.68.12-.9l.83.05Z"/>
    <path class="cls-2" d="M47.27,73.26c1-.72,1.65-1.7,2.13-2.61l.58.3c-.39.76-.67,1.16-.87,1.43v4.26h-.7v-3.43c-.37.4-.65.62-.88.81l-.26-.76ZM47.3,70.85c1.02-.56,1.6-1.47,1.87-1.92l.58.27c-.39.77-1.16,1.72-2.09,2.31l-.36-.66ZM55.05,72.29h-1.32v3.68c0,.47-.15.67-.73.67h-1.42l-.12-.75,1.33.02c.17,0,.25-.03.25-.23v-3.39h-2.96v-.67h4.98v.67ZM54.73,70h-4.31v-.64h4.31v.64Z"/>
    <path class="cls-2" d="M57.85,69.75c-.06.39-.16,1.08-.16,2.08,0,1.25.1,2.57.54,3.28.08.14.29.29.55.29.62,0,1.08-.97,1.44-1.92l.61.39c-.5,1.34-1.17,2.32-2.12,2.32-1.61,0-1.79-2.9-1.79-4.26,0-.85.07-1.7.12-2.26l.81.08ZM63.2,75.33c0-.19.02-.38.02-.64,0-2.79-.81-3.65-1.53-4.43l.66-.36c.49.45,1.69,1.57,1.69,4.83,0,.22,0,.37-.02.53l-.82.08Z"/>
    <path class="cls-2" d="M67.4,76.38c-.58-.88-1.09-1.41-1.37-1.7l.62-.46c.54.49,1.12,1.18,1.46,1.65l-.72.51Z"/>
    <path class="cls-2" d="M77.81,71.58c-.02,2-.13,3.9-.6,4.58-.24.35-.7.47-1.12.47h-1.26l-.14-.72h1.37c.21,0,.49-.07.62-.31.24-.47.39-1.87.4-3.36h-3c-.21,1.68-.74,3.1-2.68,4.41l-.48-.63c1.59-1,2.52-2.13,2.52-4.87v-1.18h-2.44v-.67h7.62v.67h-4.47v1.2c0,.18,0,.31,0,.41h3.68Z"/>
    <path class="cls-2" d="M86.38,72.34h-2.07v1.25h2.63v.62h-2.63v1.55h3.41v.66h-7.53v-.66h3.42v-1.55h-2.62v-.62h2.62v-1.25h-2.05v-.62c-.56.34-.9.49-1.2.63l-.35-.67c1.31-.5,2.66-1.39,3.57-2.66h.75c.83,1.12,2.05,2.11,3.56,2.66l-.35.67c-.29-.13-.66-.3-1.17-.62v.62ZM86.35,71.71c-.51-.33-1.52-1.02-2.4-2.11-.67.84-1.47,1.56-2.38,2.11h4.79Z"/>
    <path class="cls-2" d="M92.8,75.6c1.29-.12,1.97-.32,2.43-.78.63-.63.71-1.57.71-2.07,0-.96-.48-2.43-2.5-2.49-.02,1.65-.63,5.38-2.45,5.38-.96,0-1.54-1.15-1.54-2.36,0-2.04,1.43-3.68,3.87-3.68,2.29,0,3.42,1.4,3.42,3.21,0,3.12-2.63,3.41-3.72,3.5l-.24-.69ZM91.35,70.83c-1.18.86-1.18,2.29-1.18,2.51,0,.62.21,1.55.85,1.55.44,0,.71-.44.87-.75.25-.49.77-1.92.83-3.85-.3.05-.83.13-1.37.53Z"/>
    <path class="cls-2" d="M101.9,69.6v-.59h.71v.59h3.01v.6h-1.23c-.09.43-.24.82-.28.94h1.98v.59h-6.4v1.68c0,1.03-.21,2.38-.79,3.21l-.55-.48c.49-.68.67-1.91.67-2.66v-2.34h1.4c0-.08-.11-.59-.24-.94h-1.29v-.6h3.01ZM102.66,72.68v-.74h.67v.74h2.43v.6h-2.43v.9h2.09v.58h-2.09v.99h2.71v.62h-6.28v-.62h2.89v-.99h-2.11v-.58h2.11v-.9h-1.65c-.26.41-.4.57-.58.75l-.53-.44c.58-.56.93-1.32,1.06-1.7l.65.12c-.07.23-.13.39-.27.67h1.32ZM103.47,71.14c.11-.3.19-.62.24-.94h-2.88c.15.51.19.67.25.94h2.39Z"/>
    <path class="cls-2" d="M114.87,76.51c-1.4-.51-2.09-.86-3.08-1.77v1.91h-.65v-1.92c-.96.93-1.92,1.36-3.08,1.76l-.36-.59c.76-.21,1.9-.58,2.95-1.47h-2.98v-.55h3.47v-.6h-2.93v-.53h2.93v-.58h-3.12v-.54h1.93c-.05-.2-.19-.61-.27-.79h-2.01v-.56h1.42c-.16-.36-.25-.53-.55-1.04l.67-.22c.1.16.3.49.58,1.27h.61v-1.27h.64v1.27h.85v-1.27h.64v1.27h.58c.25-.43.46-.92.6-1.27l.67.22c-.12.25-.37.72-.58,1.04h1.45v.56h-2.04c-.11.35-.17.53-.25.79h1.98v.54h-3.15v.58h2.95v.53h-2.95v.6h3.46v.55h-2.96c.93.79,1.66,1.12,2.96,1.46l-.39.62ZM112.29,71.63c.03-.08.17-.46.23-.79h-2.15c.04.12.22.67.27.79h1.64Z"/>
    <path class="cls-2" d="M120.35,69.61v-.61h.68v.61h3.37v.59h-6.35v2.62c0,1.51-.38,2.89-.85,3.72l-.55-.49c.37-.72.73-1.72.73-3.27v-3.18h2.96ZM122.77,72.96h-.44v.94h1.65v.58h-1.65v1.19c0,.09,0,.24.24.24h.84c.32,0,.35-.15.36-.93l.65.15c-.03.48-.08.85-.15,1-.15.34-.52.38-.64.38h-1.3c-.38,0-.63-.11-.63-.56v-1.47h-1.13c-.22,1.01-.99,1.72-2.15,2.13l-.39-.6c.88-.25,1.59-.64,1.88-1.53h-1.45v-.58h1.55c0-.07,0-.11,0-.21v-.72h-.41v-.17c-.56.38-.86.5-1.14.62l-.31-.54c.29-.11.6-.24,1.14-.58-.35-.3-.44-.38-.81-.6l.45-.37c.35.21.67.47.85.64.5-.38.63-.54.81-.77h-1.84v-.53h2.85c.14.2.27.38.53.65.09-.08.36-.37.64-.76l.49.3c-.22.33-.38.52-.72.85.17.15.25.22.37.3.07-.07.5-.49.81-.95l.5.32c-.25.37-.46.59-.86.95.51.33.86.44,1.13.53l-.3.58c-.33-.14-.81-.36-1.42-.8v.34ZM122.47,72.4c-.61-.5-.95-.94-1.18-1.24-.17.24-.45.66-1.18,1.24h2.36ZM120.65,73.9h1.04v-.94h-1.04v.94Z"/>
    <path class="cls-2" d="M133.22,76.48c-1.76-.52-2.6-1.14-3.15-1.68v1.81h-.61v-1.82c-.39.37-1.37,1.19-3.16,1.72l-.31-.63c1.15-.25,2.19-.66,2.96-1.32h-2.99v-.56h3.5v-.44h-2.22v-1.12h-1.28v-.53h1.28v-.44h.61v.44h1.61v-.44h.61v.44h1.62v-.44h.62v.44h1.26v.53h-1.26v1.12h-2.24v.44h3.5v.56h-2.99c.93.72,1.68,1,2.97,1.28l-.32.63ZM132.5,71.56c-.15-.13-.31-.27-.58-.47-3.48.23-3.81.25-5.62.25l-.04-.54c.22,0,1.32,0,1.57-.02.3-.39.34-.46.42-.62h-2.27v-.57h3.44v-.57h.68v.57h3.4v.57h-1.88c.17.09.91.55,1.42,1l-.53.39ZM129.46,72.44h-1.61v.61h1.61v-.61ZM131.42,70.17h-2.35c-.32.44-.35.49-.46.62.14,0,2.44-.07,2.75-.08-.22-.14-.26-.16-.43-.27l.49-.26ZM131.69,72.44h-1.62v.61h1.62v-.61Z"/>
    <path class="cls-2" d="M136.62,70.58v-1.56h.67v1.56h.8v.64h-.8v1.87c.49-.15.62-.21.85-.3l.07.64c-.23.1-.49.2-.91.33v2.87h-.67v-2.67c-.74.2-1.09.28-1.46.36l-.12-.68c.3-.05.72-.12,1.59-.36v-2.06h-.63c-.07.43-.19,1.01-.42,1.47l-.53-.38c.38-.82.48-1.88.5-2.84l.62.03c0,.26-.02.49-.08,1.07h.55ZM138.06,76.04c1.78-1.16,2.8-3.12,3.18-5.22h-.69c-.36,1.91-1.59,3.62-2.54,4.23l-.44-.52c1.22-.88,2.04-2.25,2.34-3.71h-.71c-.18.47-.51,1.19-.98,1.74l-.53-.46c.29-.32.97-1.08,1.33-3.09l.68.04c-.05.28-.12.63-.29,1.16h3.19c.03,2.67-.15,5.11-.36,5.73-.07.18-.24.69-1,.69h-1.16l-.12-.68h1.14c.17,0,.37,0,.47-.19.34-.7.38-3.97.39-4.94h-.1c-.34,1.61-.93,4.1-3.33,5.76l-.47-.53Z"/>
    <path class="cls-2" d="M24.04,82.33v.58h-1.29c.09.17.21.46.28.69l-.63.2c-.07-.3-.22-.67-.32-.89h-.38c-.29.4-.57.72-.92.97l-.46-.46c.67-.48,1.13-1.21,1.3-1.71l.66.12c-.07.17-.11.27-.22.49h1.99ZM24.51,83.67v.44h3.34v1.53h-.64v-.98h-6.01v.98h-.63v-1.53h3.31v-.44h.4l-.46-.33c.49-.44.87-.96,1.1-1.62l.63.11c-.06.16-.11.3-.2.5h2.64v.58h-1.74c.18.29.23.39.36.72l-.63.2c-.08-.24-.27-.67-.4-.91h-.56c-.07.11-.31.49-.63.76h.12ZM26.83,85.1v1.64h-4.65v.55h5.22v2.1h-.65v-.34h-4.57v.34h-.66v-4.29h5.31ZM22.19,85.59v.65h3.99v-.65h-3.99ZM22.19,87.78v.74h4.57v-.74h-4.57Z"/>
    <path class="cls-2" d="M31.75,87.85c-.81.35-1.98.67-2.64.86l-.11-.67c.29-.07.74-.2,1.12-.3v-2.4h-.93v-.64h.93v-1.88h-1.01v-.63h2.63v.63h-.96v1.88h.81v.64h-.81v2.2c.4-.14.66-.24.96-.35v.67ZM36.49,81.98v3.87h-1.91v.94h1.99v.61h-1.99v1.16h2.14v.62h-5.22v-.62h2.44v-1.16h-1.97v-.61h1.97v-.94h-1.92v-3.87h4.47ZM33.94,82.58h-1.28v1.06h1.28v-1.06ZM33.94,84.19h-1.28v1.08h1.28v-1.08ZM35.86,82.58h-1.28v1.06h1.28v-1.06ZM35.86,84.19h-1.28v1.08h1.28v-1.08Z"/>
    <path class="cls-2" d="M40.97,81.96c-.04.22-.07.44-.17.86h3.5v.68h-3.69c-.16.53-.31.78-.47,1.04.23-.16.6-.41,1.23-.41.43,0,1.05.11,1.27,1.01.79-.32,1.53-.57,2.07-.75l.29.72c-.62.16-1.37.37-2.25.71.03.34.04.7.04.95,0,.31,0,.51-.03.67h-.73c.02-.23.04-.37.04-.72,0-.18,0-.43-.02-.6-.42.21-1.65.81-1.65,1.52,0,.77,1,.77,1.87.77.36,0,1.14-.02,2.16-.12l.02.72c-.33.02-.93.07-2.01.07-.92,0-2.78,0-2.78-1.41,0-.81.78-1.49,2.32-2.22-.07-.43-.28-.67-.72-.67-.49,0-1.08.27-1.69.91-.55.77-.61.85-1.16,1.45l-.55-.49c1.18-1.07,1.72-2.38,1.96-3.13h-1.74v-.68h1.92c.1-.47.11-.68.12-.9l.83.05Z"/>
    <path class="cls-2" d="M45.92,86.01c1-.72,1.65-1.7,2.13-2.61l.58.3c-.39.76-.67,1.16-.87,1.43v4.26h-.7v-3.43c-.37.4-.65.62-.88.81l-.26-.76ZM45.94,83.6c1.02-.56,1.6-1.47,1.87-1.92l.58.27c-.39.77-1.16,1.72-2.09,2.31l-.36-.66ZM53.7,85.04h-1.32v3.68c0,.47-.15.67-.73.67h-1.42l-.12-.75,1.33.02c.17,0,.25-.03.25-.23v-3.39h-2.96v-.67h4.98v.67ZM53.38,82.76h-4.31v-.64h4.31v.64Z"/>
    <path class="cls-2" d="M56.05,82.51c-.06.39-.16,1.08-.16,2.08,0,1.25.1,2.57.54,3.28.08.14.29.29.55.29.62,0,1.08-.97,1.44-1.92l.61.39c-.5,1.34-1.17,2.32-2.12,2.32-1.61,0-1.79-2.9-1.79-4.26,0-.85.07-1.7.12-2.26l.81.08ZM61.4,88.09c0-.19.02-.38.02-.64,0-2.79-.81-3.65-1.53-4.43l.66-.36c.49.45,1.69,1.57,1.69,4.83,0,.22,0,.37-.02.53l-.82.08Z"/>
    <path class="cls-2" d="M66.88,82.91l-.02-.87h.72v.87h2.74v.66h-2.72v1.03h2.57v.64h-2.57v1.23c.95.39,1.76.9,2.52,1.58l-.49.64c-.76-.72-1.19-1.09-2.02-1.5v.37c0,1.46-1.33,1.54-1.79,1.54-1.09,0-1.83-.59-1.83-1.41,0-.64.53-1.51,2.1-1.51.4,0,.63.05.81.09v-1.02h-3.06v-.64h3.05v-1.03h-3.19v-.66h3.18ZM66.91,86.92c-.19-.06-.45-.14-.9-.14-.76,0-1.37.31-1.37.9s.67.77,1.16.77c1.09,0,1.11-.58,1.11-.95v-.58Z"/>
    <path class="cls-2" d="M75.85,81.98h.75v.95h2.32v.67h-2.32v1.73c.03.12.07.27.11.45.02.17.05.38.05.62,0,2.41-1.89,2.67-3.35,2.76l-.23-.7c2.35-.02,2.71-.78,2.87-1.57-.14.22-.43.64-1.23.64-1.01,0-1.62-.81-1.62-1.69,0-.94.67-1.69,1.74-1.69.58,0,.78.17.95.3v-.86h-4.13v-.67h4.11l-.02-.95ZM75.91,85.64c-.02-.18-.14-.81-.95-.81-.52,0-1.04.3-1.04,1.01,0,.45.25,1.03.96,1.03,1,0,1.03-.93,1.03-.95,0-.06,0-.19,0-.27Z"/>
    <path class="cls-2" d="M82.92,87.9c0,.67-.55,1.23-1.23,1.23s-1.23-.55-1.23-1.23.55-1.23,1.23-1.23,1.23.53,1.23,1.23ZM80.88,87.9c0,.44.36.81.81.81s.81-.36.81-.81-.37-.81-.81-.81-.81.36-.81.81Z"/>
  </g>
</svg>