<?xml version="1.0" encoding="UTF-8"?>
<svg id="_レイヤー_2" data-name="レイヤー 2" xmlns="http://www.w3.org/2000/svg" viewBox="0 0 148.13 126.65">
  <defs>
    <style>
      .cls-1 {
        fill: #23ab3a;
      }

      .cls-2 {
        fill: #231815;
      }

      .cls-3 {
        fill: #fff;
      }

      .cls-4 {
        fill: #feef12;
      }
    </style>
  </defs>
  <g>
    <path class="cls-4" d="M50.02,124.07c7.54,1.67,15.62,2.58,24.04,2.58,40.91,0,74.07-21.37,74.07-47.73S114.97,31.18,74.07,31.18,0,52.56,0,78.92c0,18.16,15.74,33.96,38.91,42.02"/>
    <path class="cls-4" d="M18.37,109.45c.12,4.07-1.95,8.12-4.88,11.29,5.57-1.13,12.63-4.76,17.12-8.72"/>
  </g>
  <g>
    <path class="cls-3" d="M132.69,19.66c-.99-3.46-19.21-1.23-40.68,4.97-21.47,6.2-38.07,14.03-37.08,17.48,1,3.45,19.21,1.23,40.68-4.97,21.47-6.2,38.07-14.03,37.08-17.48Z"/>
    <g>
      <path class="cls-1" d="M122.07,15.2l1.33,2.92c4.73-.1,7.37.5,7.64,1.42.65,2.22-11.43,10.46-35.91,17.62-24.47,7.17-39.09,6.75-39.74,4.53-.27-.92,1.63-2.85,5.67-5.32l-.46-3.17c-5.4,3.14-8.89,6.41-8.04,9.32,2.17,7.42,29.33,1.59,43.4-2.53,14.06-4.11,40.08-13.86,37.91-21.28-.85-2.91-5.56-3.78-11.8-3.51Z"/>
      <path class="cls-1" d="M100.23,6.58c0,3.64-2.95,6.58-6.58,6.58s-6.58-2.95-6.58-6.58,2.95-6.58,6.58-6.58,6.58,2.95,6.58,6.58Z"/>
      <path class="cls-1" d="M121.71,6.58c0,3.64-2.95,6.58-6.58,6.58s-6.58-2.95-6.58-6.58,2.95-6.58,6.58-6.58,6.58,2.95,6.58,6.58Z"/>
      <g>
        <path class="cls-1" d="M72.16,13.16c3.64,0,6.58-2.95,6.58-6.58s-2.95-6.58-6.58-6.58-6.58,2.95-6.58,6.58,2.95,6.58,6.58,6.58Z"/>
        <path class="cls-1" d="M81.13,31.51c0-3.73-.49-16.55-8.97-16.55s-8.96,12.82-8.97,16.55v8.81c4.39-.15,10.44-.88,17.94-2.48v-6.32Z"/>
        <path class="cls-1" d="M102.62,31.88v-.37h0c0-3.73-.49-16.55-8.97-16.55s-8.97,13-8.97,16.63h0v5.45c3.12-.74,6.45-1.61,9.99-2.65,2.82-.82,5.46-1.66,7.95-2.51Z"/>
        <path class="cls-1" d="M115.13,14.95c-7.91,0-8.86,11.15-8.96,15.68,7.28-2.64,12.95-5.26,16.99-7.53-1.06-4.17-3.3-8.15-8.02-8.15Z"/>
      </g>
    </g>
  </g>
  <g>
    <path class="cls-2" d="M24.07,56.23c-.21.1-.29.13-.9.39v2.46c0,.42-.2.67-.69.67h-.86l-.11-.68h.7c.15,0,.29-.02.29-.23v-1.97c-.69.25-.78.28-1.03.35l-.11-.69c.23-.07.49-.13,1.14-.35v-1.99h-1.07v-.62h1.07v-1.51h.67v1.51h.81v.62h-.81v1.75c.45-.17.58-.24.82-.34l.07.62ZM23.64,57.21c.57-.1,1.32-.25,1.77-.35.04-.29.05-.6.05-.87v-.15h-1.29v-.62h1.29v-1.26h-1.39v-.64h1.39v-1.25h.65v3.94c0,2.01-.59,3-1.91,3.77l-.41-.56c.7-.39,1.23-.86,1.49-1.71-.25.07-.37.11-1.47.39l-.16-.67ZM27.54,52.06v1.25h1.49v.64h-1.49v1.26h1.39v.62h-1.39v1.28h1.55v.64h-1.55v2.01h-.66v-7.71h.66Z"/>
    <path class="cls-2" d="M32.25,52.7v2.32h2.08v-2.91h.7v2.91h2.11v-2.32h.7v2.97h-2.8v2.98h2.42v-2.42h.7v3.5h-.7v-.44h-5.53v.44h-.69v-3.5h.69v2.42h2.42v-2.98h-2.78v-2.97h.7Z"/>
    <path class="cls-2" d="M47.86,53.24h-3.44v.49h2.72v1.57h-2.72v.43h2.9v1.02h.58v.56h-.58v1.45h-.67v-.39h-2.24v.65c0,.44-.2.72-.72.72h-1.32l-.09-.67h1.2c.21,0,.27-.05.27-.25v-.45h-2.99v-.52h2.99v-.54h-3.49v-.53h3.49v-.53h-2.96v-.5h2.96v-.43h-2.7v-1.57h2.7v-.49h-3.4v-.56h3.4v-.57h.66v.57h3.44v.56ZM43.77,54.19h-2.04v.62h2.04v-.62ZM46.46,54.19h-2.04v.62h2.04v-.62ZM46.66,56.22h-2.24v.53h2.24v-.53ZM46.66,57.29h-2.24v.54h2.24v-.54Z"/>
    <path class="cls-2" d="M56.92,59.59c-1.4-.51-2.09-.86-3.08-1.77v1.91h-.65v-1.92c-.96.93-1.92,1.36-3.08,1.76l-.36-.59c.76-.21,1.9-.58,2.95-1.47h-2.98v-.55h3.47v-.6h-2.93v-.53h2.93v-.58h-3.13v-.54h1.93c-.05-.2-.19-.61-.27-.79h-2.01v-.56h1.42c-.16-.36-.26-.53-.55-1.04l.67-.22c.1.16.3.49.58,1.27h.61v-1.27h.64v1.27h.85v-1.27h.64v1.27h.58c.25-.43.46-.92.6-1.27l.67.22c-.12.25-.37.72-.58,1.04h1.45v.56h-2.04c-.11.35-.16.53-.25.79h1.98v.54h-3.15v.58h2.95v.53h-2.95v.6h3.46v.55h-2.96c.93.79,1.66,1.12,2.96,1.46l-.39.62ZM54.34,54.72c.03-.08.17-.46.23-.79h-2.15c.04.12.22.67.27.79h1.65Z"/>
    <path class="cls-2" d="M66.26,52.42c-.3.39-.9,1.18-2.01,2.08h2.46v.6h-3.25c-.39.28-.81.53-1.23.76h3.54v3.87h-.67v-.4h-3.84v.4h-.67v-3.09c-.71.28-.99.37-1.32.47l-.3-.62c.63-.16,1.87-.49,3.34-1.38h-3.22v-.6h2.88v-1.04h-2.28v-.57h2.28v-.8h.67v.8h1.87v.53c.62-.61.96-1.08,1.15-1.34l.59.33ZM65.11,56.44h-3.84v.84h3.84v-.84ZM65.11,57.83h-3.84v.92h3.84v-.92ZM63.23,54.5c.19-.13.64-.45,1.26-1.04h-1.83v1.04h.58Z"/>
    <path class="cls-2" d="M70.73,56.63c-.31-.49-.41-.73-.53-1.04v4.14h-.66v-3.92c-.18.67-.37,1.29-.9,2.06l-.29-.83c.53-.67.95-1.63,1.17-2.71h-1.04v-.61h1.05v-1.61h.66v1.61h.83v.61h-.83v.3c.16.48.48,1.02.91,1.5l-.38.53ZM70.66,58.91c.27-.11,1.14-.47,2.07-1.15l.15.58c-.46.34-1.33.86-1.97,1.14l-.25-.58ZM75.88,59.45c-.84-.49-1.46-1.04-1.92-1.83v1.44c0,.17,0,.67-.63.67h-.95l-.11-.66h.77c.16,0,.26,0,.26-.26v-2.62h-2.11v-.59h2.11v-.73h-1.78v-.57h1.78v-.67h-1.98v-.58h1.11c-.08-.26-.22-.57-.37-.86l.62-.09c.16.3.32.64.42.95h1.12c.09-.17.25-.49.39-.95l.64.1c-.18.49-.35.79-.4.86h1.13v.58h-2.02v.67h1.83v.57h-1.83v.73h2.16v.59h-2.16v.3c.27.76,1.04,1.81,2.25,2.36l-.34.61ZM71.67,56.35c.13.08.58.37,1.01.86l-.45.44c-.23-.27-.61-.63-.98-.86l.42-.44ZM74.73,57.24c.29-.23.62-.6.81-.9l.52.36c-.25.36-.53.66-.85.92l-.48-.38Z"/>
    <path class="cls-2" d="M80.59,52.38c-.03.26-.07.59-.22,1.51h.99c1.27-.02,1.79.63,1.79,2.21,0,.83-.17,2.25-.62,2.79-.4.49-.92.5-1.23.5-.52,0-1.09-.1-1.29-.13l-.05-.74c.72.13,1.19.17,1.36.17.12,0,.53,0,.74-.43.25-.49.36-1.64.36-2.24,0-1.36-.44-1.49-1.34-1.47l-.83.02c-.31,1.53-.64,3.05-1.51,4.78l-.73-.3c.75-1.31,1.22-2.86,1.51-4.47l-1.37.02-.02-.71h1.5c.11-.73.15-1.16.19-1.59l.77.07ZM84.59,56.82c-.21-2.21-.95-3.03-1.25-3.37l.57-.36c.39.38,1.2,1.23,1.46,3.6l-.78.13Z"/>
    <path class="cls-2" d="M88.54,53.57c-.21.78-.24,1.05-.25,2.34,1.23-1,2.9-1,3.03-1,1.35,0,2.24.81,2.24,2.02,0,2.45-2.9,2.45-3.92,2.45-.26,0-1.07,0-1.94-.15l-.03-.7c.4.07.95.16,1.98.16,1.32,0,2.1-.12,2.7-.69.29-.27.44-.68.44-1.08,0-.77-.58-1.35-1.58-1.35s-2.19.37-2.89,1.16c-.02.07-.02.09-.02.16l-.73-.02c0-.28.02-1.56.02-1.75.02-.93.14-1.36.22-1.69l.72.12ZM92.27,53.56c-.72-.26-1.44-.48-3.43-.56l.12-.7c1.69.06,2.62.25,3.48.53l-.17.73Z"/>
    <path class="cls-2" d="M99.63,53.53h3.47v.58h-2.8c.49.37,1.46.93,2.9,1.27l-.3.64c-1.81-.58-2.63-1.17-3.27-1.78v1.35h-.64v-1.38c-1.09,1-2.18,1.48-3.25,1.83l-.26-.64c.77-.2,1.8-.53,2.79-1.29h-2.71v-.58h3.44v-.58c-1.54.07-2.34.06-2.8.06l-.14-.59c.22,0,.5.02.94.02,1.56,0,3.62-.1,5.12-.42l.32.58c-.41.07-1.27.24-2.8.33v.62ZM102.33,59.76c-.81-.43-1.78-.76-2.32-.92-.77.47-2.19.85-4.03.91l-.2-.67c2.06-.02,3.09-.41,3.31-.5-1.29-.35-2.11-.47-2.67-.55.37-.31.68-.6,1.05-1h-1.97v-.62h2.5c.31-.39.45-.62.58-.81l.65.25c-.22.3-.31.43-.43.57h4.3v.62h-1.58c-.16.34-.4.81-.93,1.34,1.1.32,1.82.67,2.13.82l-.41.58ZM98.32,57.02c-.31.36-.44.5-.61.66.66.13,1.45.29,2.14.48.58-.45.82-.9.95-1.14h-2.48Z"/>
    <path class="cls-2" d="M108.02,53.49v.58h-3.08v-.58h3.08ZM107.75,52.31v.59h-2.57v-.59h2.57ZM107.75,54.66v.58h-2.57v-.58h2.57ZM107.75,55.83v.59h-2.57v-.59h2.57ZM107.75,57.01v2.35h-1.92v.37h-.65v-2.72h2.57ZM107.11,57.58h-1.29v1.21h1.29v-1.21ZM110.17,55.41l2.34-.16.02.64-2.36.16v2.7c0,.17.04.25.27.25h1.04c.18,0,.28-.07.31-.25.05-.34.06-.93.06-1.13l.67.18c-.04,1.67-.21,1.87-.88,1.87h-1.38c-.42,0-.79-.09-.79-.62v-2.94l-1.44.1-.02-.64,1.46-.11v-2.12c-.63.07-1,.1-1.32.12l-.12-.63c.63-.02,2.39-.08,3.96-.75l.35.57c-.89.36-1.46.46-2.18.6v2.17Z"/>
    <path class="cls-2" d="M118.41,52.32c.05.32.14.84.32,1.47,1.37-.02,2.1-.2,2.46-.28l.14.69c-.34.08-1.01.24-2.36.28.44,1.16,1.09,1.86,1.34,2.12l-.62.42c-.25-.29-.93-1.07-1.46-2.53-.13,0-.19,0-.71,0h-3.02v-.69h3.5c-.12-.41-.17-.6-.35-1.41l.76-.07ZM117.23,56.14c-.88.27-1.61.7-1.61,1.42,0,1.1,1.61,1.1,2.69,1.1,1.17,0,1.83-.08,2.19-.13l-.02.73c-.67.07-1.39.09-2.09.09-1.67,0-2.19-.2-2.62-.43-.39-.21-.86-.64-.86-1.32s.46-1.56,2.01-2.03l.31.56Z"/>
    <path class="cls-2" d="M125.83,52.37c-.05.89-.06,1.12-.07,1.91.07-.07,1.41-1.41,2.6-1.41,1.42,0,1.37,1.4,1.34,1.88l-.07,1.67c0,.25-.03.67-.03.91,0,.53.06.8.37.9.19.06.57.12.88.12l-.18.69c-1.18-.1-1.81-.18-1.81-1.81,0-.19.02-.61.02-.82l.08-1.67c.02-.51.04-1.19-.73-1.19-1.08,0-2.43,1.55-2.48,1.63-.02,1.1-.02,1.54-.02,2.56,0,.9,0,1.29.02,1.65h-.74c.02-.77.02-1,.04-2.93-.34.68-.61,1.04-1.23,1.77l-.48-.67c.76-.63,1.34-1.48,1.71-2.41v-.79h-1.42s0-.68,0-.68h1.43c0-.14.02-1.27.02-1.31h.77Z"/>
    <path class="cls-2" d="M23.93,65.13c-.02.29-.06.56-.13,1.09h2.29v.69h-2.39c-.21,1.12-.68,3.68-1.43,5.31l-.75-.25c.78-1.51,1.24-3.99,1.42-5.06h-1.22v-.69h1.31c.05-.44.07-.83.08-1.13l.82.04ZM25.56,69.62c-.38.54-.49.69-.49.98,0,.73.78.83,1.91.83.9,0,1.41-.05,1.68-.07v.73c-.32.02-.58.03-1.25.03-1.2,0-3.03,0-3.03-1.47,0-.53.21-.87.62-1.39l.56.36ZM28.51,67.99c-.19-.02-.39-.02-.7-.02-.79,0-1.78.1-2.51.39l-.22-.63c.83-.31,1.58-.49,3.43-.47v.74Z"/>
    <path class="cls-2" d="M33.45,65.44v-.59h.72v.59h3.01v.6h-1.23c-.09.43-.24.82-.28.94h1.98v.59h-6.4v1.68c0,1.03-.21,2.38-.79,3.21l-.55-.48c.49-.68.67-1.91.67-2.66v-2.34h1.4c0-.08-.11-.59-.24-.94h-1.29v-.6h3.01ZM34.21,68.53v-.74h.67v.74h2.43v.6h-2.43v.9h2.09v.58h-2.09v.99h2.71v.62h-6.27v-.62h2.9v-.99h-2.11v-.58h2.11v-.9h-1.65c-.25.41-.4.57-.58.75l-.53-.44c.58-.56.93-1.32,1.06-1.7l.65.12c-.07.23-.13.39-.27.67h1.32ZM35.01,66.98c.11-.3.19-.62.24-.94h-2.88c.15.51.19.67.25.94h2.39Z"/>
    <path class="cls-2" d="M46.1,72.35c-1.4-.51-2.09-.86-3.08-1.77v1.91h-.65v-1.92c-.96.93-1.92,1.36-3.08,1.76l-.36-.59c.76-.21,1.9-.58,2.95-1.47h-2.98v-.55h3.47v-.6h-2.93v-.53h2.93v-.58h-3.13v-.54h1.93c-.05-.2-.19-.61-.27-.79h-2.01v-.56h1.42c-.16-.36-.26-.53-.55-1.04l.67-.22c.1.16.3.49.58,1.27h.61v-1.27h.64v1.27h.85v-1.27h.64v1.27h.58c.25-.43.46-.92.6-1.27l.67.22c-.12.25-.37.72-.58,1.04h1.45v.56h-2.04c-.11.35-.16.53-.25.79h1.98v.54h-3.15v.58h2.95v.53h-2.95v.6h3.46v.55h-2.96c.93.79,1.66,1.12,2.96,1.46l-.39.62ZM43.52,67.47c.03-.08.17-.46.23-.79h-2.15c.04.12.22.67.27.79h1.65Z"/>
    <path class="cls-2" d="M51.27,65.46v-.61h.68v.61h3.37v.59h-6.35v2.62c0,1.51-.38,2.89-.85,3.72l-.55-.49c.37-.72.73-1.72.73-3.27v-3.18h2.96ZM53.69,68.81h-.44v.94h1.65v.58h-1.65v1.19c0,.09,0,.24.24.24h.84c.32,0,.35-.15.36-.93l.65.15c-.03.48-.08.85-.15,1-.15.34-.52.38-.64.38h-1.3c-.38,0-.63-.11-.63-.56v-1.47h-1.13c-.22,1.01-.99,1.72-2.15,2.13l-.4-.6c.88-.25,1.59-.64,1.88-1.53h-1.45v-.58h1.55c0-.07,0-.11,0-.21v-.72h-.41v-.17c-.56.38-.86.5-1.14.62l-.31-.54c.29-.11.6-.24,1.14-.58-.35-.3-.44-.38-.81-.6l.45-.37c.35.21.67.47.85.64.5-.38.63-.54.81-.77h-1.84v-.53h2.85c.14.2.27.38.53.65.09-.08.36-.37.64-.76l.49.3c-.22.33-.38.52-.72.85.17.15.26.22.37.3.07-.07.5-.49.81-.95l.5.32c-.25.37-.46.59-.85.95.51.33.86.44,1.13.53l-.3.58c-.33-.14-.81-.36-1.41-.8v.34ZM53.39,68.25c-.61-.5-.95-.94-1.18-1.24-.16.24-.45.66-1.18,1.24h2.36ZM51.56,69.74h1.04v-.94h-1.04v.94Z"/>
    <path class="cls-2" d="M63.82,72.33c-1.76-.52-2.6-1.14-3.15-1.68v1.81h-.61v-1.82c-.4.37-1.37,1.19-3.16,1.72l-.31-.63c1.15-.25,2.19-.66,2.96-1.32h-2.99v-.56h3.5v-.44h-2.22v-1.12h-1.28v-.53h1.28v-.44h.61v.44h1.61v-.44h.61v.44h1.62v-.44h.62v.44h1.26v.53h-1.26v1.12h-2.24v.44h3.5v.56h-2.99c.93.72,1.68,1,2.97,1.28l-.32.63ZM63.1,67.4c-.15-.13-.31-.27-.58-.47-3.48.23-3.81.25-5.62.25l-.04-.54c.22,0,1.32,0,1.57-.02.3-.39.34-.46.42-.62h-2.27v-.57h3.44v-.57h.68v.57h3.4v.57h-1.88c.16.09.9.55,1.41,1l-.53.39ZM60.06,68.29h-1.61v.61h1.61v-.61ZM62.03,66.01h-2.35c-.32.44-.35.49-.46.62.14,0,2.44-.07,2.76-.08-.22-.14-.26-.16-.43-.27l.49-.26ZM62.29,68.29h-1.62v.61h1.62v-.61Z"/>
    <path class="cls-2" d="M66.91,66.42v-1.56h.67v1.56h.8v.64h-.8v1.87c.49-.15.62-.21.85-.3l.07.64c-.23.1-.49.2-.91.33v2.87h-.67v-2.67c-.74.2-1.09.28-1.46.36l-.12-.68c.3-.05.72-.12,1.59-.36v-2.06h-.63c-.07.43-.19,1.01-.42,1.47l-.53-.38c.38-.82.49-1.88.5-2.84l.62.03c0,.26-.02.49-.08,1.07h.55ZM68.35,71.88c1.78-1.16,2.8-3.12,3.18-5.22h-.69c-.36,1.91-1.59,3.62-2.54,4.23l-.44-.52c1.22-.88,2.04-2.25,2.34-3.71h-.72c-.18.47-.51,1.19-.98,1.74l-.53-.46c.29-.32.97-1.08,1.33-3.09l.68.04c-.05.28-.12.63-.29,1.16h3.19c.03,2.67-.15,5.11-.36,5.73-.07.18-.24.69-1,.69h-1.16l-.11-.68h1.14c.16,0,.37,0,.47-.19.34-.7.38-3.97.4-4.94h-.1c-.34,1.61-.93,4.1-3.33,5.76l-.47-.53Z"/>
    <path class="cls-2" d="M75.73,65.22c-.12.57-.35,1.81-.35,3.79,0,1.6.17,2.48.27,2.98l-.73.11c-.08-.3-.26-.99-.26-2.99s.2-3.36.29-3.97l.79.08ZM79.05,66.59l-.02-1.44h.72l.02,1.44h1.61v.69h-1.59l.02,2.26c.77.39,1.14.69,1.74,1.25l-.49.66c-.48-.58-.92-.9-1.25-1.14v.23c0,.42,0,1.53-1.67,1.53-1.38,0-1.74-.89-1.74-1.41,0-.83.74-1.48,1.84-1.48.29,0,.57.03.86.11l-.03-2.01h-2.57v-.69h2.55ZM79.11,69.97c-.2-.08-.42-.17-.83-.17-.77,0-1.19.37-1.19.86,0,.27.14.8,1.1.8s.92-.63.92-.9v-.58Z"/>
    <path class="cls-2" d="M84.45,72.23c-.58-.88-1.09-1.41-1.37-1.7l.62-.46c.53.49,1.12,1.18,1.46,1.65l-.72.51Z"/>
    <path class="cls-2" d="M91.88,64.84v2.66h3.06v4.98h-.7v-.35h-6.5v-.64h6.5v-1.37h-6.14v-.66h6.14v-1.33h-6.39v-.63h3.32v-2.66h.71ZM89.47,67.2c-.3-.6-.81-1.34-1.23-1.83l.55-.38c.49.54.88,1.11,1.27,1.84l-.6.37ZM92.95,66.85c.42-.48.94-1.23,1.21-1.86l.67.35c-.3.58-.86,1.39-1.32,1.9l-.57-.39Z"/>
    <path class="cls-2" d="M98.53,72.49h-.67v-3.33c-.52.48-.9.72-1.13.87l-.28-.67c1.37-.82,2.13-1.88,2.41-2.55h-2.3v-.62h1.3v-1.34h.67v1.34h1.06v.63c-.08.2-.3.71-.9,1.46.44.5.72.75,1.18,1.08l-.37.6c-.44-.35-.53-.45-.98-.99v3.53ZM102.18,64.85v2.38h1.81v.67h-1.81v3.62h2v.67h-4.79v-.67h2.11v-3.62h-1.72v-.67h1.72v-2.38h.69Z"/>
    <path class="cls-2" d="M108.92,71.45c1.29-.12,1.97-.32,2.43-.78.63-.63.72-1.57.72-2.07,0-.96-.48-2.43-2.5-2.49-.02,1.65-.63,5.38-2.45,5.38-.96,0-1.54-1.15-1.54-2.36,0-2.04,1.43-3.68,3.87-3.68,2.29,0,3.42,1.4,3.42,3.21,0,3.12-2.63,3.41-3.72,3.5l-.24-.69ZM107.47,66.68c-1.18.86-1.18,2.29-1.18,2.51,0,.62.21,1.55.85,1.55.44,0,.71-.44.87-.75.25-.49.77-1.92.83-3.85-.3.05-.83.13-1.37.53Z"/>
    <path class="cls-2" d="M122.02,71.71l-.12.66h-2.43c-1.53,0-2.6-.62-3.26-1.38-.58.82-1.24,1.3-1.58,1.55l-.44-.57c.37-.25,1.02-.68,1.61-1.55-.3-.49-.53-1.03-.71-1.73-.19.41-.34.65-.48.86l-.5-.52c.43-.61,1.06-1.72,1.16-4.19l.62.02c-.02.24-.02.39-.07.88h1.74c-.02.65-.05,2.08-.56,3.7-.15.46-.35.82-.44,1,.02.04.4.49,1.04.82.29.16.86.45,1.82.45h2.6ZM115.74,66.38c-.09.52-.18.96-.28,1.29.13.72.34,1.47.69,2.13.66-1.4.72-2.9.75-3.42h-1.16ZM120.81,70.02c0,.15.03.19.16.19h.19c.12,0,.14-.14.15-.2.03-.32.04-.45.06-1.19l.61.1c0,.64-.08,1.46-.21,1.66-.11.17-.28.26-.49.26h-.49c-.11,0-.62,0-.62-.51v-4.56h-1.31v1.69c0,2.2-.74,3.07-1.05,3.42l-.57-.44c.36-.39.97-1.03.97-3.04v-2.29h2.6v4.9Z"/>
    <path class="cls-2" d="M125.77,70.94c-.81.35-1.98.67-2.64.86l-.11-.67c.29-.07.74-.2,1.12-.3v-2.4h-.93v-.64h.93v-1.88h-1.01v-.63h2.63v.63h-.96v1.88h.81v.64h-.81v2.2c.4-.14.66-.24.96-.35v.67ZM130.51,65.07v3.87h-1.91v.94h1.99v.61h-1.99v1.16h2.14v.62h-5.22v-.62h2.44v-1.16h-1.97v-.61h1.97v-.94h-1.92v-3.87h4.47ZM127.96,65.66h-1.28v1.06h1.28v-1.06ZM127.96,67.28h-1.28v1.08h1.28v-1.08ZM129.87,65.66h-1.27v1.06h1.27v-1.06ZM129.87,67.28h-1.27v1.08h1.27v-1.08Z"/>
    <path class="cls-2" d="M25.48,85.03h-.77v-2.68c-1.25.76-2.38,1.11-2.94,1.27l-.33-.68c2.38-.6,4.32-1.86,5.46-3.29h-4.88v-.67h2.7v-1.15h.77v1.15h2.31v.67c-.35.44-1,1.27-2.32,2.2v3.18ZM28.46,83.63c-.9-.67-1.58-1.05-2.56-1.5l.44-.53c.62.25,1.82.85,2.54,1.36l-.43.67Z"/>
    <path class="cls-2" d="M30.61,82.14c-.16-.9-.44-1.54-.66-1.97l.65-.18c.44.89.61,1.54.71,1.98l-.7.17ZM30.62,84.41c2.63-.57,3.65-1.67,4.14-4.61l.72.12c-.48,2.36-1.18,4.32-4.57,5.09l-.29-.61ZM32.38,81.8c-.07-.49-.21-1.18-.54-1.95l.66-.16c.39,1.04.47,1.27.58,1.94l-.69.16Z"/>
    <path class="cls-2" d="M37.98,77.81v2.18c1.85.52,3.18,1.24,4.19,1.83l-.39.73c-1.5-.9-2.32-1.29-3.8-1.8v4.31h-.79v-7.25h.79Z"/>
    <path class="cls-2" d="M49.86,78.33v.67c0,1.09-.17,2.18-.63,3.17-.79,1.72-2.67,2.44-4.4,2.74l-.27-.68c4.01-.63,4.42-2.8,4.49-5.2h-4.69v2.35h-.77v-3.05h6.28Z"/>
    <path class="cls-2" d="M58.77,81v.79h-7.3v-.79h7.3Z"/>
    <path class="cls-2" d="M66.66,78.97c-.6,3.41-2.36,5.43-5.82,6.01l-.31-.68c3.31-.55,4.54-2.2,5.17-4.64h-3.14c-.5.62-1.24,1.48-2.02,1.95l-.47-.57c1.57-1,2.3-2.29,2.69-3.27l.81.15c-.12.3-.2.49-.53,1.05h3.62Z"/>
    <path class="cls-2" d="M71.12,77.8c-.04.22-.07.44-.16.86h3.5v.68h-3.69c-.16.53-.31.78-.47,1.04.23-.16.6-.41,1.23-.41.43,0,1.05.11,1.27,1.01.79-.32,1.53-.57,2.07-.75l.29.72c-.62.16-1.37.37-2.25.71.03.34.04.7.04.95,0,.31,0,.51-.02.67h-.73c.02-.23.04-.37.04-.72,0-.18,0-.43-.02-.6-.42.21-1.65.81-1.65,1.52,0,.77,1,.77,1.87.77.36,0,1.14-.02,2.15-.12l.02.72c-.33.02-.93.07-2.01.07-.92,0-2.78,0-2.78-1.41,0-.81.78-1.49,2.32-2.22-.07-.43-.28-.67-.72-.67-.49,0-1.08.27-1.69.91-.55.76-.61.85-1.16,1.45l-.55-.49c1.18-1.07,1.72-2.38,1.97-3.13h-1.74v-.68h1.92c.1-.47.11-.68.12-.9l.83.05Z"/>
    <path class="cls-2" d="M77.52,81.28c-.51-.44-.9-.68-1.35-.9l.35-.57c.48.19,1,.5,1.41.88l-.4.58ZM76.18,84.52c.78-.92,1.37-2.22,1.55-2.66l.53.39c-.43,1.05-1.11,2.32-1.67,2.92l-.42-.66ZM77.92,79.07c-.39-.35-1.02-.72-1.4-.9l.37-.54c.56.22,1.13.62,1.43.87l-.4.58ZM81.49,79.8h2.34v.62h-2.34v1.32h1.96v3.5h-.66v-.44h-3.25v.44h-.67v-3.5h1.94v-1.32h-2.35v-.62h2.35v-1.18c-.75.06-1.48.07-2.07.07l-.12-.63c1.39.02,3.25-.06,4.65-.48l.24.61c-.36.1-1.02.27-2.02.37v1.24ZM82.78,82.35h-3.24v1.83h3.24v-1.83Z"/>
    <path class="cls-2" d="M87.63,77.89c-.03.26-.07.59-.22,1.51h.99c1.27-.02,1.79.63,1.79,2.21,0,.83-.17,2.25-.62,2.79-.39.49-.92.5-1.23.5-.52,0-1.09-.1-1.29-.13l-.05-.74c.72.13,1.19.17,1.36.17.12,0,.53,0,.74-.43.25-.49.36-1.64.36-2.24,0-1.36-.44-1.49-1.34-1.47l-.83.02c-.31,1.53-.64,3.05-1.51,4.78l-.73-.3c.75-1.31,1.22-2.86,1.51-4.47l-1.37.02-.02-.71h1.5c.11-.73.15-1.16.19-1.59l.77.07ZM91.62,82.34c-.21-2.21-.95-3.03-1.25-3.37l.57-.36c.39.38,1.2,1.23,1.46,3.6l-.78.13Z"/>
    <path class="cls-2" d="M94.93,77.92c0,.07-.09,3.62-.09,4.3,0,.98.03,1.98,1.68,1.98,2.06,0,2.37-1.52,2.6-2.68l.74.2c-.19.99-.61,3.18-3.29,3.18-.77,0-1.72-.18-2.17-1-.31-.57-.32-1.42-.32-2.41,0-.57.05-3.06.03-3.57h.82Z"/>
    <path class="cls-2" d="M102.48,84.98c-.58-.88-1.09-1.41-1.37-1.7l.62-.46c.53.49,1.12,1.18,1.46,1.65l-.72.51Z"/>
    <path class="cls-2" d="M113.31,84.41l-.13.63h-4.11c-1.35,0-1.86-.69-2.04-.93-.53.6-.57.65-1.15,1.16l-.33-.7c.15-.09.62-.4.98-.78v-2.32h-.89v-.67h1.54v2.49c.16,1,1.66,1.12,1.9,1.12h4.24ZM106.94,79.52c-.15-.22-.44-.67-1.18-1.39l.45-.41c.39.33.86.81,1.26,1.37l-.53.44ZM110.72,77.61v.52h2.48v.56h-1.24c-.08.28-.15.47-.26.75h1.2v4.02c0,.39-.18.63-.61.63h-.87l-.09-.62h.76c.11,0,.18,0,.18-.2v-3.3h-1.59v.62h1.33v.51h-1.33v.57h1.05v1.7h-2.7v-1.7h1.04v-.57h-1.34v-.51h1.34v-.62h-1.6v4.01h-.63v-4.55h1.14c-.03-.13-.18-.68-.21-.75h-1.2v-.56h2.46v-.52h.67ZM111.12,79.43c.09-.21.21-.64.24-.75h-1.95c.1.39.11.43.18.75h1.53ZM111.17,82.15h-1.57v.71h1.57v-.71Z"/>
    <path class="cls-2" d="M121.67,77.9v.65h-3.04v2.32h2.71v.64h-2.71v2.78h3.28v.66h-7.57v-.66h1.19v-4.42h.7v4.42h1.69v-5.74h-3.32v-.65h7.06Z"/>
    <path class="cls-2" d="M130.65,84.91h-7.6v-.64h1.07v-6.41h5.46v6.41h1.07v.64ZM124.8,78.5v1.47h4.09v-1.47h-4.09ZM124.8,80.6v1.48h4.09v-1.48h-4.09ZM124.8,82.71v1.56h4.09v-1.56h-4.09Z"/>
    <path class="cls-2" d="M22.82,96.49c.31.02.53.02.86.02.94,0,2.86,0,3.77-1.04.36-.41.52-.9.52-1.4,0-.64-.23-1.88-2.01-1.88-.86,0-2.1.26-2.96.44-.77.16-1.04.24-1.3.3l-.14-.82c.32-.04,1.19-.19,2.11-.35.67-.12,1.59-.28,2.3-.28,1.99,0,2.8,1.26,2.8,2.58,0,1.74-1.26,2.45-2.38,2.81-.92.3-2.09.34-3.44.3l-.14-.71Z"/>
    <path class="cls-2" d="M37.18,97.99c-.37-.25-1.1-.73-2.45-1.32-.45.33-1.72,1.08-3.86,1.3l-.24-.72c1.1-.1,2.34-.3,3.36-.87-.67-.26-1.4-.51-2.68-.86.25-.29.65-.77,1.1-1.55h-1.98v-.65h2.34c.29-.56.43-.95.53-1.23l.76.14c-.09.22-.2.49-.49,1.09h4.46v.65h-1.46c-.4,1.26-.94,1.88-1.26,2.2,1.04.44,1.85.9,2.33,1.18l-.45.64ZM33.86,91.1v-.74h.71v.74h3.27v1.79h-.7v-1.16h-5.8v1.16h-.7v-1.79h3.22ZM33.21,93.97c-.39.69-.63,1-.8,1.22.59.17,1.42.41,2.24.72.79-.72,1.1-1.67,1.19-1.94h-2.63Z"/>
    <path class="cls-2" d="M45.76,93.7h-2.07v1.25h2.63v.62h-2.63v1.55h3.41v.66h-7.53v-.66h3.42v-1.55h-2.62v-.62h2.62v-1.25h-2.05v-.62c-.56.34-.9.49-1.2.63l-.35-.67c1.31-.5,2.66-1.39,3.57-2.66h.75c.83,1.12,2.05,2.11,3.56,2.66l-.35.67c-.29-.13-.66-.3-1.17-.62v.62ZM45.74,93.07c-.51-.33-1.52-1.02-2.4-2.11-.67.84-1.47,1.56-2.39,2.11h4.79Z"/>
    <path class="cls-2" d="M50.25,94.18c0,.4-.32.7-.7.7s-.7-.31-.7-.7.31-.7.7-.7.7.3.7.7Z"/>
    <path class="cls-2" d="M58.71,97.99c-.37-.25-1.1-.73-2.45-1.32-.45.33-1.72,1.08-3.86,1.3l-.24-.72c1.1-.1,2.34-.3,3.36-.87-.67-.26-1.4-.51-2.68-.86.25-.29.65-.77,1.1-1.55h-1.98v-.65h2.34c.29-.56.43-.95.53-1.23l.76.14c-.09.22-.2.49-.49,1.09h4.46v.65h-1.46c-.39,1.26-.94,1.88-1.26,2.2,1.04.44,1.85.9,2.33,1.18l-.45.64ZM55.39,91.1v-.74h.71v.74h3.27v1.79h-.7v-1.16h-5.8v1.16h-.7v-1.79h3.22ZM54.74,93.97c-.39.69-.63,1-.8,1.22.59.17,1.42.41,2.24.72.79-.72,1.1-1.67,1.19-1.94h-2.63Z"/>
    <path class="cls-2" d="M60.94,96.37c.34-.58.68-1.41.83-3.4l.71.08c-.11,1.27-.34,2.77-.92,3.81l-.62-.49ZM66.2,92.11c-.59-.33-1.47-.74-3.27-1.09l.21-.63c1.21.19,2.14.46,3.37,1.01l-.3.71ZM63.96,92.57v4.33c0,.11.02.25.24.25h1.68c.29,0,.35-.16.39-.25.1-.25.16-.96.2-1.31l.7.23c-.21,1.95-.62,2.01-1.13,2.01h-2.06c-.44,0-.72-.13-.72-.7v-4.56h.71ZM68.04,96.83c-.21-1.36-.72-2.85-1.24-3.92l.65-.26c.51.95,1.13,2.62,1.35,4l-.76.18Z"/>
    <path class="cls-2" d="M71.41,91.11c-.06.39-.16,1.08-.16,2.08,0,1.25.1,2.57.54,3.28.08.14.29.29.55.29.62,0,1.08-.97,1.44-1.92l.61.39c-.5,1.34-1.17,2.32-2.12,2.32-1.61,0-1.78-2.9-1.78-4.26,0-.85.07-1.7.12-2.26l.81.08ZM76.77,96.69c0-.19.02-.38.02-.64,0-2.79-.81-3.65-1.53-4.43l.66-.36c.49.45,1.69,1.57,1.69,4.83,0,.22,0,.37-.02.53l-.82.08Z"/>
    <path class="cls-2" d="M81.73,90.64c-.02.29-.06.56-.13,1.09h2.29v.69h-2.39c-.21,1.12-.68,3.68-1.43,5.31l-.75-.25c.78-1.51,1.24-3.99,1.42-5.06h-1.22v-.69h1.31c.05-.44.07-.83.08-1.13l.82.04ZM83.36,95.13c-.38.54-.49.69-.49.98,0,.73.78.83,1.91.83.9,0,1.41-.05,1.68-.07v.73c-.32.02-.58.03-1.25.03-1.2,0-3.03,0-3.03-1.47,0-.53.21-.87.62-1.39l.56.36ZM86.3,93.5c-.19-.02-.39-.02-.7-.02-.79,0-1.78.1-2.51.39l-.22-.63c.83-.31,1.58-.49,3.43-.47v.74Z"/>
    <path class="cls-2" d="M90.52,90.64c-.08.76-.09.85-.12,1.09h2.29v.67h-2.39c-.27,1.9-.76,3.56-1.46,5.36l-.7-.29c.77-1.6,1.28-3.96,1.44-5.07h-1.26v-.67h1.35c.05-.52.06-.83.07-1.11l.79.02ZM92.2,95.19c-.2.19-.49.48-.49.93,0,.53.24.83,1.88.83.65,0,1.18-.04,1.63-.07l.03.71c-.25.02-.57.04-1.33.04-.89,0-1.32-.02-1.81-.15-.62-.16-1.14-.62-1.14-1.31s.52-1.2.69-1.37l.53.39ZM95.1,93.5c-.22,0-.43-.02-.74-.02-1.27,0-1.88.18-2.44.39l-.25-.64c1.41-.49,2.71-.48,3.41-.46l.02.73ZM93.91,92.12c-.08-.25-.3-.85-.56-1.27l.53-.21c.27.37.51.97.6,1.25l-.57.23ZM94.95,91.8c-.21-.56-.29-.75-.6-1.23l.53-.21c.26.37.48.77.62,1.2l-.55.25Z"/>
    <path class="cls-2" d="M98.27,90.74c-.21,1.29-.31,2.46-.31,3.77,0,1.82.21,2.66.29,3.01l-.77.1c-.11-.63-.25-1.56-.25-3.13,0-1.32.09-2.48.25-3.8l.8.05ZM102,92.37c0-.27-.02-1.48-.03-1.73h.74c0,.28,0,1.48.02,1.73h1.41v.67h-1.4c.03,1.41.04,2.18-.33,3.02-.49,1.11-1.47,1.49-2.91,1.69l-.28-.66c1.04-.12,2.09-.32,2.5-1.31.32-.78.31-1.34.29-2.75h-2.94v-.67h2.94Z"/>
    <path class="cls-2" d="M110.98,90.75v.62c-.34.3-1.76,1.6-2.07,1.88.31-.13.6-.24,1.23-.24,2.11,0,2.26,1.67,2.26,2.15,0,.87-.5,2.51-3.03,2.51-1.65,0-2.14-.77-2.14-1.37,0-.73.69-1.23,1.46-1.23,1.47,0,1.56,1.4,1.56,1.53,0,.16-.02.24-.07.37,1.1-.25,1.5-1.05,1.5-1.8,0-.9-.52-1.52-1.73-1.52-1.28,0-2.19.75-2.23.79-.38.32-.97.92-1.46,1.46l-.62-.49c.23-.2,1.28-1.19,1.66-1.55.41-.39,2.25-2.09,2.62-2.45l-3.54.04v-.69h4.59ZM109.58,96.69c0-.58-.36-1.02-.91-1.02-.44,0-.77.29-.77.62,0,.79,1.24.77,1.61.76.06-.15.07-.22.07-.36Z"/>
    <path class="cls-2" d="M121.76,97.22l-.12.66h-2.43c-1.53,0-2.6-.62-3.26-1.38-.58.82-1.24,1.3-1.58,1.55l-.44-.57c.37-.25,1.02-.68,1.61-1.55-.3-.49-.53-1.03-.71-1.73-.19.41-.34.65-.48.86l-.5-.52c.43-.61,1.06-1.72,1.16-4.19l.62.02c-.02.24-.02.39-.07.88h1.74c-.02.65-.05,2.08-.56,3.7-.15.46-.35.82-.44,1,.02.04.4.49,1.04.82.29.16.86.45,1.82.45h2.6ZM115.49,91.89c-.09.52-.18.96-.28,1.29.13.72.34,1.47.69,2.13.66-1.4.72-2.9.75-3.42h-1.16ZM120.55,95.53c0,.15.03.19.16.19h.19c.12,0,.14-.14.15-.2.03-.32.04-.45.06-1.19l.61.1c0,.64-.08,1.46-.21,1.66-.11.17-.28.26-.49.26h-.49c-.11,0-.62,0-.62-.51v-4.56h-1.31v1.69c0,2.2-.74,3.07-1.05,3.42l-.57-.44c.36-.39.97-1.03.97-3.04v-2.29h2.6v4.9Z"/>
    <path class="cls-2" d="M122.96,93.38c1.36-.88,1.97-1.69,2.53-3.08l.69.16c-.58,1.43-1.29,2.44-2.74,3.47l-.49-.56ZM126.76,97.99l-.12-.72h1.22c.36,0,.5-.21.54-.27.28-.49.33-1.89.36-3.07h-2.08c-.22,2.09-1.02,3.24-3.11,4.05l-.39-.62c1.67-.6,2.64-1.47,2.77-3.43h-1.65v-.65h5.15c0,2.53-.24,3.74-.44,4.17-.23.46-.63.53-1.09.53h-1.17ZM128.4,90.31c.44,1.04,1.21,2.16,2.51,3.07l-.46.56c-1.1-.74-2.25-2.26-2.74-3.42l.69-.21Z"/>
    <path class="cls-2" d="M23.91,108.12c-.65.39-1.61.81-2.41,1.07l-.09-.7c.26-.07.55-.16,1-.32v-2.66h-.92v-.63h.92v-1.74h.65v1.74h.75v.63h-.75v2.4c.41-.18.62-.29.81-.4l.04.61ZM28.83,107.62c0,.82-.07,2.29-.25,2.65-.11.22-.27.47-.76.47h-1.06l-.09-.64h1.03c.23,0,.3-.16.33-.3.06-.26.11-.67.15-1.64h-.55c-.46,1.22-1.27,2.09-2.43,2.65l-.41-.51c1.18-.56,1.88-1.33,2.25-2.14h-.7c-.87,1.43-2.19,1.93-2.7,2.12l-.3-.52c.52-.17,1.46-.52,2.33-1.6h-.78c-.57.58-1.06.82-1.35.97l-.3-.49c.89-.39,1.34-.79,1.83-1.58h-1.29v-.53h5.31v.53h-3.41c-.13.23-.21.37-.35.56h3.5ZM28.54,103.39v2.65h-4.28v-2.65h4.28ZM27.91,103.9h-3.04v.6h3.04v-.6ZM27.91,104.95h-3.04v.6h3.04v-.6Z"/>
    <path class="cls-2" d="M37.42,104.5c-.26-.02-.52-.03-.85-.03-.45,0-.58.04-.76.1-1.56.51-3.08,1.84-3.08,3.26,0,1.03.83,1.55,2.24,1.73.74.1,1.32.08,1.69.07l-.12.79c-1.74-.03-2.7-.25-3.49-.67-.66-.36-1.09-1.11-1.09-1.84,0-1.5,1.22-2.66,2.52-3.4-1.62.07-2.4.14-4.14.28l-.04-.76c.68,0,4.42-.21,5.25-.22.23,0,1.68-.04,1.84-.05l.02.76ZM36.02,106.95c-.08-.16-.34-.7-.72-1.2l.49-.26c.4.49.61.9.74,1.17l-.52.3ZM37.01,106.47c-.29-.52-.4-.73-.72-1.13l.51-.26c.21.25.57.75.72,1.09l-.52.3Z"/>
    <path class="cls-2" d="M46.45,109.92l-.13.63h-4.11c-1.35,0-1.86-.69-2.04-.93-.53.6-.57.65-1.15,1.16l-.33-.7c.15-.09.62-.4.98-.78v-2.32h-.89v-.67h1.54v2.49c.16,1,1.66,1.12,1.9,1.12h4.24ZM40.08,105.03c-.15-.22-.44-.67-1.18-1.39l.45-.41c.39.33.86.81,1.26,1.37l-.53.44ZM43.86,103.12v.52h2.48v.56h-1.24c-.08.28-.15.47-.26.75h1.2v4.02c0,.39-.18.63-.61.63h-.87l-.09-.62h.76c.11,0,.18,0,.18-.2v-3.3h-1.59v.62h1.33v.51h-1.33v.57h1.05v1.7h-2.7v-1.7h1.04v-.57h-1.34v-.51h1.34v-.62h-1.6v4.01h-.63v-4.55h1.14c-.03-.13-.18-.68-.21-.75h-1.2v-.56h2.46v-.52h.67ZM44.26,104.94c.09-.21.21-.64.24-.75h-1.95c.1.39.11.43.18.75h1.53ZM44.31,107.67h-1.57v.71h1.57v-.71Z"/>
    <path class="cls-2" d="M54.81,103.41v.65h-3.04v2.32h2.71v.64h-2.71v2.78h3.28v.66h-7.57v-.66h1.19v-4.42h.7v4.42h1.69v-5.74h-3.32v-.65h7.06Z"/>
    <path class="cls-2" d="M63.92,109.98l-.12.66h-2.43c-1.53,0-2.6-.62-3.26-1.38-.58.82-1.24,1.3-1.58,1.55l-.44-.57c.37-.25,1.02-.68,1.61-1.55-.3-.49-.53-1.03-.71-1.73-.19.41-.34.65-.48.86l-.5-.52c.43-.61,1.06-1.72,1.16-4.19l.62.02c-.02.24-.02.39-.07.88h1.74c-.02.65-.05,2.08-.56,3.7-.15.46-.35.82-.44,1,.02.04.4.49,1.04.82.29.16.86.45,1.82.45h2.6ZM57.64,104.65c-.09.52-.18.96-.28,1.29.13.72.34,1.47.69,2.13.66-1.4.72-2.9.75-3.42h-1.16ZM62.71,108.28c0,.15.03.19.16.19h.19c.12,0,.14-.14.15-.2.03-.32.04-.45.06-1.19l.61.1c0,.64-.08,1.46-.21,1.66-.11.17-.28.26-.49.26h-.49c-.11,0-.62,0-.62-.51v-4.56h-1.31v1.69c0,2.2-.74,3.07-1.05,3.42l-.57-.44c.36-.39.97-1.03.97-3.04v-2.29h2.6v4.9Z"/>
    <path class="cls-2" d="M67.53,109.2c-.81.35-1.98.67-2.64.86l-.11-.67c.29-.07.74-.2,1.12-.3v-2.4h-.93v-.64h.93v-1.88h-1.01v-.63h2.63v.63h-.96v1.88h.81v.64h-.81v2.2c.4-.14.66-.24.96-.35v.67ZM72.27,103.34v3.87h-1.91v.94h1.99v.61h-1.99v1.16h2.14v.62h-5.22v-.62h2.44v-1.16h-1.97v-.61h1.97v-.94h-1.92v-3.87h4.47ZM69.72,103.93h-1.28v1.06h1.28v-1.06ZM69.72,105.54h-1.28v1.08h1.28v-1.08ZM71.64,103.93h-1.27v1.06h1.27v-1.06ZM71.64,105.54h-1.27v1.08h1.27v-1.08Z"/>
    <path class="cls-2" d="M76.75,103.32c-.04.22-.07.44-.16.86h3.5v.68h-3.69c-.16.53-.31.78-.47,1.04.23-.16.6-.41,1.23-.41.43,0,1.05.11,1.27,1.01.79-.32,1.53-.57,2.07-.75l.29.72c-.62.16-1.37.37-2.25.71.03.34.04.7.04.95,0,.31,0,.51-.02.67h-.73c.02-.23.04-.37.04-.72,0-.18,0-.43-.02-.6-.42.21-1.65.81-1.65,1.52,0,.77,1,.77,1.87.77.36,0,1.14-.02,2.15-.12l.02.72c-.33.02-.93.07-2.01.07-.92,0-2.78,0-2.78-1.41,0-.81.78-1.49,2.32-2.22-.07-.43-.28-.67-.72-.67-.49,0-1.08.27-1.69.91-.55.76-.61.85-1.16,1.45l-.55-.49c1.18-1.07,1.72-2.38,1.97-3.13h-1.74v-.68h1.92c.1-.47.11-.68.12-.9l.83.05Z"/>
    <path class="cls-2" d="M81.7,107.37c1-.72,1.65-1.7,2.13-2.61l.58.3c-.4.76-.67,1.16-.87,1.43v4.26h-.7v-3.43c-.37.4-.65.62-.88.81l-.26-.76ZM81.72,104.96c1.02-.56,1.6-1.47,1.87-1.92l.58.27c-.39.77-1.16,1.72-2.09,2.31l-.36-.66ZM89.48,106.4h-1.32v3.68c0,.47-.15.67-.73.67h-1.42l-.12-.75,1.33.02c.17,0,.25-.03.25-.23v-3.39h-2.96v-.67h4.98v.67ZM89.16,104.11h-4.31v-.64h4.31v.64Z"/>
    <path class="cls-2" d="M91.83,103.87c-.06.39-.16,1.08-.16,2.08,0,1.25.1,2.57.54,3.28.08.14.29.29.55.29.62,0,1.08-.97,1.44-1.92l.61.39c-.5,1.34-1.17,2.32-2.12,2.32-1.61,0-1.78-2.9-1.78-4.26,0-.85.07-1.7.12-2.26l.81.08ZM97.18,109.44c0-.19.02-.38.02-.64,0-2.79-.81-3.65-1.53-4.43l.66-.36c.49.45,1.69,1.57,1.69,4.83,0,.22,0,.37-.02.53l-.82.08Z"/>
    <path class="cls-2" d="M102.66,104.27l-.02-.87h.72v.87h2.74v.66h-2.72v1.03h2.57v.64h-2.57v1.23c.95.39,1.76.9,2.52,1.58l-.48.64c-.76-.72-1.19-1.09-2.02-1.5v.37c0,1.46-1.33,1.54-1.79,1.54-1.09,0-1.83-.59-1.83-1.41,0-.64.53-1.51,2.1-1.51.4,0,.63.05.81.09v-1.02h-3.06v-.64h3.05v-1.03h-3.19v-.66h3.18ZM102.69,108.27c-.19-.06-.45-.14-.9-.14-.76,0-1.37.31-1.37.9s.67.77,1.16.77c1.09,0,1.11-.58,1.11-.95v-.58Z"/>
    <path class="cls-2" d="M111.63,103.34h.75v.95h2.32v.67h-2.32v1.73c.03.12.07.27.11.45.02.17.05.38.05.62,0,2.41-1.89,2.67-3.35,2.76l-.23-.7c2.35-.02,2.71-.78,2.87-1.57-.14.22-.43.64-1.23.64-1.01,0-1.62-.81-1.62-1.69,0-.94.67-1.69,1.74-1.69.58,0,.78.17.95.3v-.86h-4.13v-.67h4.11l-.02-.95ZM111.69,107c-.02-.18-.14-.81-.95-.81-.52,0-1.04.3-1.04,1.01,0,.45.25,1.03.96,1.03,1,0,1.03-.93,1.03-.95,0-.06,0-.19,0-.27Z"/>
    <path class="cls-2" d="M118.7,109.25c0,.67-.55,1.23-1.23,1.23s-1.23-.55-1.23-1.23.55-1.23,1.23-1.23,1.23.53,1.23,1.23ZM116.66,109.25c0,.44.36.81.81.81s.81-.36.81-.81-.37-.81-.81-.81-.81.36-.81.81Z"/>
  </g>
</svg>