<?xml version="1.0" encoding="UTF-8"?>
<svg id="_レイヤー_2" data-name="レイヤー 2" xmlns="http://www.w3.org/2000/svg" viewBox="0 0 234.31 76.67">
  <defs>
    <style>
      .cls-1 {
        fill: #2e270f;
      }

      .cls-2 {
        fill: #23ab3a;
      }

      .cls-3 {
        fill: #8cae27;
      }

      .cls-4 {
        fill: #231815;
      }

      .cls-5 {
        fill: #fff;
      }

      .cls-6 {
        fill: #094;
      }

      .cls-7 {
        fill: #feef12;
      }
    </style>
  </defs>
  <path class="cls-7" d="M139.5,9.26C134.15,4.95,125.12-.72,118.73.07c3.86,2.46,8.23,10.81,11.72,17.57"/>
  <path class="cls-7" d="M84.34,40.92c0-.18-.03-.36-.03-.54,0-19.79,35.54-36.29,75-36.29,41.42,0,75,16.24,75,36.29s-33.58,36.28-75,36.28c-34.89,0-64.22-11.53-72.59-27.14"/>
  <g>
    <path class="cls-4" d="M107.74,21.91v6.48h-.8v-5.77h-1.23v-.71h2.03Z"/>
    <path class="cls-4" d="M116.45,21.91v.71h-3.92l-.06,1.96c.23-.2.62-.54,1.86-.54,1.18,0,2.37.3,2.37,2.19,0,1.38-.51,2.22-2.59,2.22s-2.54-.73-2.57-2.04h.79c0,.65.02,1.33,1.79,1.33,1.25,0,1.8-.31,1.8-1.43,0-.88-.18-1.57-1.69-1.57-1.33,0-1.6.35-1.78.72h-.74l.07-3.56h4.66Z"/>
    <path class="cls-4" d="M123.82,25.29v3.73h-.63v-.36h-1.9v.42h-.63v-3.78h3.17ZM121.29,25.89v2.17h1.9v-2.17h-1.9ZM121.46,21.71h5.54v2.84h-5.54v-2.84ZM122.12,23.94h4.24v-1.63h-4.24v1.63ZM127.81,25.29v3.78h-.63v-.42h-2.01v.42h-.62v-3.78h3.26ZM125.16,25.89v2.17h2.01v-2.17h-2.01Z"/>
    <path class="cls-4" d="M136.3,21.78v7.29h-.7v-.4h-4.67v.4h-.68v-7.29h6.05ZM130.94,23.82h4.66v-1.41h-4.66v1.41ZM130.94,25.87h4.66v-1.45h-4.66v1.45ZM130.94,26.49v1.54h4.66v-1.54h-4.66Z"/>
    <path class="cls-4" d="M142.01,28.04c1.29-.12,1.97-.32,2.43-.78.63-.63.71-1.57.71-2.07,0-.96-.48-2.43-2.5-2.49-.02,1.65-.63,5.38-2.45,5.38-.96,0-1.54-1.15-1.54-2.36,0-2.04,1.43-3.68,3.87-3.68,2.29,0,3.42,1.4,3.42,3.21,0,3.13-2.63,3.41-3.72,3.5l-.24-.69ZM140.55,23.27c-1.18.86-1.18,2.29-1.18,2.51,0,.62.21,1.55.85,1.55.44,0,.71-.44.87-.75.25-.49.77-1.92.83-3.85-.3.05-.83.13-1.37.54Z"/>
    <path class="cls-4" d="M150.98,22.04v-.59h.71v.59h3.01v.6h-1.23c-.09.43-.24.82-.28.94h1.98v.59h-6.4v1.68c0,1.03-.21,2.38-.79,3.21l-.55-.49c.49-.68.67-1.91.67-2.66v-2.34h1.4c0-.08-.11-.59-.24-.94h-1.29v-.6h3.01ZM151.74,25.12v-.74h.67v.74h2.43v.6h-2.43v.91h2.09v.58h-2.09v.99h2.71v.62h-6.28v-.62h2.89v-.99h-2.11v-.58h2.11v-.91h-1.65c-.26.41-.4.57-.58.75l-.53-.44c.58-.56.93-1.32,1.06-1.7l.65.12c-.07.23-.13.39-.27.67h1.32ZM152.55,23.58c.11-.3.19-.62.24-.94h-2.88c.15.51.19.67.25.94h2.39Z"/>
    <path class="cls-4" d="M163.83,28.95c-1.4-.51-2.09-.86-3.08-1.77v1.91h-.65v-1.92c-.96.93-1.92,1.36-3.08,1.76l-.36-.59c.76-.21,1.9-.58,2.95-1.47h-2.98v-.55h3.47v-.6h-2.93v-.53h2.93v-.58h-3.12v-.54h1.93c-.05-.2-.19-.61-.27-.79h-2.01v-.56h1.42c-.16-.36-.25-.53-.55-1.04l.67-.22c.1.17.3.49.58,1.27h.61v-1.27h.64v1.27h.85v-1.27h.64v1.27h.58c.25-.43.46-.92.6-1.27l.67.22c-.12.25-.37.71-.58,1.04h1.45v.56h-2.04c-.11.35-.17.53-.25.79h1.98v.54h-3.15v.58h2.95v.53h-2.95v.6h3.46v.55h-2.96c.93.79,1.66,1.12,2.96,1.46l-.39.62ZM161.24,24.07c.03-.08.17-.46.23-.79h-2.15c.04.12.22.67.27.79h1.64Z"/>
    <path class="cls-4" d="M169.19,22.06v-.61h.68v.61h3.37v.59h-6.35v2.62c0,1.51-.38,2.89-.85,3.72l-.55-.49c.37-.72.73-1.72.73-3.27v-3.18h2.96ZM171.6,25.4h-.44v.94h1.65v.58h-1.65v1.19c0,.09,0,.24.24.24h.84c.32,0,.35-.15.36-.93l.65.15c-.03.49-.08.85-.15,1-.15.34-.52.38-.64.38h-1.3c-.38,0-.63-.11-.63-.56v-1.47h-1.13c-.22,1.01-.99,1.72-2.15,2.13l-.39-.6c.88-.25,1.59-.64,1.88-1.53h-1.45v-.58h1.55c0-.07,0-.11,0-.21v-.72h-.41v-.17c-.56.38-.86.5-1.14.62l-.31-.54c.29-.12.6-.24,1.14-.58-.35-.3-.44-.38-.81-.6l.45-.37c.35.21.67.47.85.64.5-.38.63-.54.81-.77h-1.84v-.53h2.85c.14.2.27.38.53.65.09-.08.36-.37.64-.76l.49.3c-.22.33-.38.52-.72.85.17.15.25.22.37.3.07-.07.5-.49.81-.95l.5.32c-.25.37-.46.59-.86.95.51.33.86.44,1.13.53l-.3.58c-.33-.14-.81-.36-1.42-.8v.34ZM171.31,24.84c-.61-.5-.95-.94-1.18-1.24-.17.24-.45.66-1.18,1.24h2.36ZM169.48,26.34h1.04v-.94h-1.04v.94Z"/>
    <path class="cls-4" d="M181.93,28.92c-1.76-.52-2.6-1.14-3.15-1.68v1.81h-.61v-1.82c-.39.37-1.37,1.19-3.16,1.72l-.31-.63c1.15-.25,2.19-.66,2.96-1.32h-2.99v-.56h3.5v-.44h-2.22v-1.12h-1.28v-.53h1.28v-.44h.61v.44h1.61v-.44h.61v.44h1.62v-.44h.62v.44h1.26v.53h-1.26v1.12h-2.24v.44h3.5v.56h-2.99c.93.72,1.68,1,2.97,1.28l-.32.63ZM181.21,24c-.15-.13-.31-.27-.58-.47-3.48.23-3.81.25-5.62.25l-.04-.54c.22,0,1.32,0,1.57-.02.3-.39.34-.46.42-.62h-2.27v-.57h3.44v-.57h.68v.57h3.4v.57h-1.88c.17.09.91.55,1.42,1l-.53.39ZM178.17,24.88h-1.61v.61h1.61v-.61ZM180.14,22.61h-2.35c-.32.44-.35.49-.46.62.14,0,2.44-.07,2.75-.08-.22-.14-.26-.17-.43-.27l.49-.26ZM180.4,24.88h-1.62v.61h1.62v-.61Z"/>
    <path class="cls-4" d="M185.21,23.02v-1.56h.67v1.56h.8v.64h-.8v1.87c.49-.15.62-.21.85-.3l.07.64c-.23.1-.49.2-.91.33v2.87h-.67v-2.67c-.74.2-1.09.28-1.46.36l-.12-.68c.3-.05.72-.12,1.59-.36v-2.06h-.63c-.07.43-.19,1.01-.42,1.47l-.53-.38c.38-.82.48-1.88.5-2.84l.62.03c0,.26-.02.49-.08,1.07h.55ZM186.65,28.48c1.78-1.16,2.8-3.13,3.18-5.22h-.69c-.36,1.91-1.59,3.62-2.54,4.23l-.44-.52c1.22-.88,2.04-2.25,2.34-3.71h-.71c-.18.47-.51,1.19-.98,1.74l-.53-.46c.29-.32.97-1.08,1.33-3.09l.68.04c-.05.28-.12.63-.29,1.16h3.19c.03,2.67-.15,5.11-.36,5.73-.07.18-.24.69-1,.69h-1.16l-.12-.68h1.14c.17,0,.37,0,.47-.19.34-.7.38-3.97.39-4.94h-.1c-.34,1.61-.93,4.1-3.33,5.76l-.47-.53Z"/>
    <path class="cls-4" d="M200.19,22.12v.52c-.17,1.59-.56,2.99-1.31,4.22.64.81,1.27,1.27,1.6,1.5l-.37.69c-.4-.3-1.01-.77-1.64-1.59-.63.84-1.32,1.35-1.69,1.62l-.44-.62c.53-.36,1.15-.85,1.7-1.62-.5-.81-.97-2.02-1.16-3.63l.64-.1c.09,1.09.35,2.17.92,3.1.79-1.41.97-2.76,1.04-3.43h-2.79v-.53h-.42v6.82h-.65v-1.59c-.52.17-2.03.52-2.79.59l-.1-.66c.28-.03.4-.04.57-.07v-5.08h-.53v-.62h4v.49h3.41ZM195.63,22.26h-1.68v1.18h1.68v-1.18ZM195.63,24.02h-1.68v1.18h1.68v-1.18ZM193.95,27.23c1.14-.23,1.26-.26,1.68-.38v-1.04h-1.68v1.42Z"/>
    <path class="cls-4" d="M204.58,25.54c-.2.11-.39.21-1,.45v2.4c0,.19,0,.67-.6.67h-.96l-.1-.71h.76c.11,0,.23.02.23-.2v-1.92c-.67.24-.8.27-1.03.34l-.08-.69c.29-.08.51-.15,1.11-.35v-1.98h-1.09v-.62h1.09v-1.5h.67v1.5h.93v.62h-.93v1.74c.46-.17.71-.29.95-.4l.06.64ZM205.2,28.47c.47-.16,1.21-.43,1.93-1.09-.78-.98-1.05-1.97-1.16-2.38-.16,1.14-.36,2.57-1.77,4.1l-.47-.51c1.19-1.29,1.72-2.6,1.74-6.19h-1.07v-.62h4.22c-.12.78-.32,1.5-.55,2.25h1.23c-.1,1.08-.39,2.25-1.29,3.35.61.59,1.22.88,1.54,1.03l-.41.67c-.36-.22-.93-.57-1.58-1.22-.77.72-1.58,1.05-1.99,1.22l-.37-.6ZM206.14,22.39c0,.44,0,.49-.02.63.14,1.71.76,3,1.47,3.89.78-.94.91-1.85.97-2.27h-1.35c.33-.85.53-1.72.62-2.25h-1.7Z"/>
    <path class="cls-4" d="M212.1,22.2c-.06.4-.16,1.08-.16,2.08,0,1.25.1,2.57.54,3.28.08.14.29.29.55.29.62,0,1.08-.97,1.44-1.92l.61.4c-.5,1.34-1.17,2.32-2.12,2.32-1.61,0-1.79-2.9-1.79-4.26,0-.85.07-1.7.12-2.26l.81.08ZM217.46,27.77c0-.19.02-.38.02-.64,0-2.79-.81-3.65-1.53-4.43l.66-.36c.48.45,1.69,1.57,1.69,4.83,0,.22,0,.37-.02.53l-.82.08Z"/>
    <path class="cls-4" d="M107.31,34.17v.59h-3.07v-.59h3.07ZM107.04,32.99v.59h-2.53v-.59h2.53ZM107.04,35.34v.58h-2.53v-.58h2.53ZM107.04,36.51v.59h-2.53v-.59h2.53ZM107.04,37.7v2.36h-1.89v.35h-.63v-2.71h2.53ZM106.4,38.25h-1.25v1.25h1.25v-1.25ZM107.17,35.43c.88-1.01,1.18-2.06,1.32-2.69l.7.12c-.08.27-.16.57-.34,1.01h2.89v.64h-1.69v1.98h1.79v.65h-1.79v3.27h-.67v-3.27h-1.97v-.65h1.97v-1.98h-.81c-.39.82-.67,1.18-.85,1.4l-.57-.48Z"/>
    <path class="cls-4" d="M119.82,39.69c0,.49-.21.72-.8.72h-1.58l-.12-.71h1.55c.17,0,.25-.05.25-.28v-5.67h-5.85v-.67h7.62v.67h-1.08v5.93ZM117.79,38.3h-3.11v.49h-.66v-4.05h3.77v3.56ZM117.12,35.36h-2.43v2.34h2.43v-2.34Z"/>
    <path class="cls-4" d="M125.71,32.98c-.04.22-.07.44-.17.86h3.5v.68h-3.69c-.16.53-.31.78-.47,1.04.23-.16.6-.41,1.23-.41.43,0,1.05.11,1.27,1.01.79-.32,1.53-.57,2.07-.75l.29.72c-.62.16-1.37.37-2.25.71.03.34.04.7.04.95,0,.31,0,.51-.03.67h-.73c.02-.23.04-.37.04-.72,0-.18,0-.43-.02-.6-.42.21-1.65.81-1.65,1.52,0,.77,1,.77,1.87.77.36,0,1.14-.02,2.16-.12l.02.72c-.33.02-.93.07-2.01.07-.92,0-2.78,0-2.78-1.42,0-.81.78-1.49,2.32-2.22-.07-.43-.28-.67-.72-.67-.49,0-1.08.27-1.69.91-.55.76-.61.85-1.16,1.45l-.55-.49c1.18-1.07,1.72-2.39,1.96-3.13h-1.74v-.68h1.92c.1-.47.11-.68.12-.9l.83.05Z"/>
    <path class="cls-4" d="M138.8,33.46v.52c-.17,1.59-.56,2.99-1.31,4.22.64.81,1.27,1.27,1.6,1.5l-.37.69c-.4-.3-1.01-.77-1.64-1.59-.63.84-1.32,1.35-1.69,1.62l-.44-.62c.53-.36,1.15-.85,1.7-1.62-.5-.81-.97-2.02-1.16-3.63l.64-.1c.09,1.09.35,2.17.92,3.1.79-1.41.97-2.76,1.04-3.43h-2.79v-.53h-.42v6.82h-.65v-1.59c-.52.17-2.03.52-2.79.59l-.1-.66c.28-.03.4-.04.57-.07v-5.08h-.53v-.62h4v.49h3.41ZM134.24,33.6h-1.68v1.18h1.68v-1.18ZM134.24,35.36h-1.68v1.18h1.68v-1.18ZM132.56,38.57c1.14-.23,1.26-.26,1.68-.38v-1.04h-1.68v1.42Z"/>
    <path class="cls-4" d="M142.03,33.01c-.46.96-1.2,1.81-1.88,2.25l-.27-.66c.58-.36,1.23-1.1,1.57-1.86l.58.26ZM139.9,36.96c1.07-.76,1.62-2.04,1.76-2.35l.57.25c-.1.25-.28.7-.77,1.41v4.14h-.67v-3.3c-.3.32-.48.45-.64.58l-.25-.73ZM147.46,36.93h-.94v.59h1.12v.58h-1.12v1.63c0,.33-.04.67-.66.67h-1.09l-.11-.68h.94c.18,0,.24-.03.24-.25v-1.37h-3.85v-.58h3.85v-.59h-3.59v-.56h5.2v.56ZM147.07,35.86h-4.42v-2.82h4.42v2.82ZM143.21,38.23c.39.39.69.76.99,1.22l-.55.4c-.2-.31-.59-.86-.96-1.25l.53-.37ZM146.43,33.61h-3.15v.6h3.15v-.6ZM146.43,34.69h-3.15v.61h3.15v-.61Z"/>
    <path class="cls-4" d="M150.87,33.1c0,.07-.09,3.62-.09,4.3,0,.98.03,1.98,1.68,1.98,2.06,0,2.37-1.52,2.6-2.68l.74.2c-.19.99-.61,3.18-3.29,3.18-.76,0-1.72-.18-2.17-1-.31-.57-.32-1.42-.32-2.41,0-.57.05-3.06.03-3.57h.82Z"/>
    <path class="cls-4" d="M164.58,34.17c-.26-.02-.52-.03-.85-.03-.45,0-.58.04-.76.1-1.56.51-3.08,1.84-3.08,3.26,0,1.03.83,1.55,2.24,1.73.74.1,1.32.08,1.69.07l-.11.79c-1.74-.03-2.7-.25-3.49-.67-.66-.36-1.09-1.11-1.09-1.84,0-1.5,1.22-2.67,2.52-3.4-1.62.07-2.4.14-4.14.28l-.04-.76c.68,0,4.42-.21,5.25-.22.23,0,1.68-.04,1.84-.05l.02.76Z"/>
    <path class="cls-4" d="M168.35,33.05h.72v1.04h2.04v.68h-2.04v1.13c.27-.05.7-.14,1.35-.14.47,0,1.32.07,1.91.52.46.36.79,1,.79,1.7,0,2.16-2.62,2.11-3.36,2.1l-.14-.67c1.08,0,2.75,0,2.75-1.5s-1.45-1.51-2-1.51c-.27,0-.83.02-1.29.17v2.53c0,.29,0,.81-.95.81-1,0-1.87-.6-1.87-1.55s.74-1.82,2.09-2.29v-1.31h-1.99v-.68h1.99v-1.04ZM168.35,36.77c-1.13.45-1.37,1.21-1.37,1.53,0,.6.49.95,1.06.95.18,0,.31-.02.31-.25v-2.22ZM171.69,33.02c.7.52,1.37,1.31,1.79,2.23l-.67.38c-.45-.91-.81-1.41-1.66-2.17l.54-.44Z"/>
    <path class="cls-4" d="M176.86,33.14c-.26,1.04-.35,1.84-.38,2.23.47-.96,1.29-1.61,2.35-1.61,1.2,0,2.11,1.02,2.11,2.94,0,2.53-1.43,3.41-4.54,3.41l-.14-.7c2.33.02,3.93-.33,3.93-2.67,0-.4,0-2.33-1.45-2.33-1.15,0-1.85,1.28-2.03,1.63-.17.32-.29.67-.29,1.02,0,.09.07.86.08.96l-.73.11c-.03-.26-.06-.58-.06-1.09,0-.39,0-1.95.36-3.98l.77.08Z"/>
    <path class="cls-4" d="M184.8,40.16c-.58-.88-1.09-1.41-1.37-1.7l.62-.46c.54.49,1.12,1.18,1.46,1.65l-.72.51Z"/>
    <path class="cls-4" d="M191.77,33.07c0,.25,0,.54,0,1.01,0,.96.02,1.23.17,1.57.45-.14,1.09-.35,2.99-.68l.13.77c-.76.08-5.33.62-5.33,2.51,0,.95.85,1.12,2.94,1.12.49,0,1.52,0,2.64-.12v.76c-.82.05-1.8.07-2.64.07-1.43,0-2.03-.06-2.68-.32-.67-.26-1.02-.84-1.02-1.41,0-1.52,1.75-2.23,2.3-2.46-.27-.6-.3-1.02-.3-2.82h.81ZM194.11,34.47c-.21-.82-.4-1.14-.51-1.33l.56-.16c.24.37.46.91.55,1.31l-.6.18ZM195.15,34.17c-.15-.54-.26-.82-.51-1.27l.57-.17c.19.3.45.88.55,1.24l-.61.19Z"/>
    <path class="cls-4" d="M200.19,33.2c-.31.67-1.14,3.04-1.22,3.27.23-.18.6-.49,1.27-.49,1.35,0,1.35,1.31,1.35,1.93v.32c0,.47,0,1.1.74,1.1.44,0,1.22-.08,1.42-2.7l.72.2c-.14,1.41-.37,3.22-2.16,3.22-.73,0-1.21-.41-1.38-.97-.05-.17-.07-.33-.07-.91v-.22c0-.62-.03-1.29-.75-1.29-.56,0-1.23.44-1.63,1.34-.16.36-.33,1.01-.62,2.07l-.79-.23c.32-.78,1.45-4.36,1.69-5.08.25-.74.42-1.25.57-1.76l.87.18Z"/>
    <path class="cls-4" d="M208.32,33.03s-.18.94-.21,1.06h1.82v.68h-1.94c-.16.76-.65,2.38-.81,2.85-.25.72-.51,1.23-.67,1.57l-.71-.34c.86-1.47,1.37-3.74,1.45-4.08h-1.44v-.68h1.56c.06-.37.09-.68.13-1.09l.81.03ZM212.99,34.76c-.25-.02-.39-.02-.67-.02-.62,0-.89.04-1.05.07l.09,2.62c.84.44,1.27.74,1.82,1.23l-.45.67c-.5-.55-.73-.7-1.37-1.12v.24c0,.56,0,1.69-1.67,1.69s-1.92-1.02-1.92-1.49c0-.99.92-1.55,1.92-1.55.39,0,.76.06.97.09l-.13-3.02c.34-.06.96-.18,2.46-.18v.76ZM210.66,37.88c-.22-.07-.52-.15-.92-.15-.78,0-1.27.37-1.27.91,0,.82,1.03.82,1.18.82.76,0,1.01-.32,1.01-.99v-.6Z"/>
    <path class="cls-4" d="M107.68,44.72v-.59h.71v.59h3.01v.6h-1.23c-.09.43-.24.82-.28.94h1.98v.59h-6.4v1.68c0,1.03-.21,2.38-.79,3.21l-.55-.49c.49-.68.67-1.91.67-2.66v-2.34h1.4c0-.08-.11-.59-.24-.94h-1.29v-.6h3.01ZM108.44,47.8v-.74h.67v.74h2.43v.6h-2.43v.91h2.09v.58h-2.09v.99h2.71v.62h-6.28v-.62h2.89v-.99h-2.11v-.58h2.11v-.91h-1.65c-.26.41-.4.57-.58.75l-.53-.44c.58-.56.93-1.32,1.06-1.7l.65.12c-.07.23-.13.39-.27.67h1.32ZM109.24,46.25c.11-.3.19-.62.24-.94h-2.88c.15.51.19.67.25.94h2.39Z"/>
    <path class="cls-4" d="M120.11,51.62c-1.4-.51-2.09-.86-3.08-1.77v1.91h-.65v-1.92c-.96.93-1.92,1.36-3.08,1.76l-.36-.59c.76-.21,1.9-.58,2.95-1.47h-2.98v-.55h3.47v-.6h-2.93v-.53h2.93v-.58h-3.12v-.54h1.93c-.05-.2-.19-.61-.27-.79h-2.01v-.56h1.42c-.16-.36-.25-.53-.55-1.04l.67-.22c.1.17.3.49.58,1.27h.61v-1.27h.64v1.27h.85v-1.27h.64v1.27h.58c.25-.43.46-.92.6-1.27l.67.22c-.12.25-.37.71-.58,1.04h1.45v.56h-2.04c-.11.35-.17.53-.25.79h1.98v.54h-3.15v.58h2.95v.53h-2.95v.6h3.46v.55h-2.96c.93.79,1.66,1.12,2.96,1.46l-.39.62ZM117.53,46.75c.03-.08.17-.46.23-.79h-2.15c.04.12.22.67.27.79h1.64Z"/>
    <path class="cls-4" d="M125.06,44.73v-.61h.68v.61h3.37v.59h-6.35v2.62c0,1.51-.38,2.89-.85,3.72l-.55-.49c.37-.72.73-1.72.73-3.27v-3.18h2.96ZM127.48,48.08h-.44v.94h1.65v.58h-1.65v1.19c0,.09,0,.24.24.24h.84c.32,0,.35-.15.36-.93l.65.15c-.03.49-.08.85-.15,1-.15.34-.52.38-.64.38h-1.3c-.38,0-.63-.11-.63-.56v-1.47h-1.13c-.22,1.01-.99,1.72-2.15,2.13l-.39-.6c.88-.25,1.59-.64,1.88-1.53h-1.45v-.58h1.55c0-.07,0-.11,0-.21v-.72h-.41v-.17c-.56.38-.86.5-1.14.62l-.31-.54c.29-.12.6-.24,1.14-.58-.35-.3-.44-.38-.81-.6l.45-.37c.35.21.67.47.85.64.5-.38.63-.54.81-.77h-1.84v-.53h2.85c.14.2.27.38.53.65.09-.08.36-.37.64-.76l.49.3c-.22.33-.38.52-.72.85.17.15.25.22.37.3.07-.07.5-.49.81-.95l.5.32c-.25.37-.46.59-.86.95.51.33.86.44,1.13.53l-.3.58c-.33-.14-.81-.36-1.42-.8v.34ZM127.18,47.52c-.61-.5-.95-.94-1.18-1.24-.17.24-.45.66-1.18,1.24h2.36ZM125.35,49.02h1.04v-.94h-1.04v.94Z"/>
    <path class="cls-4" d="M137.39,51.6c-1.76-.52-2.6-1.14-3.15-1.68v1.81h-.61v-1.82c-.39.37-1.37,1.19-3.16,1.72l-.31-.63c1.15-.25,2.19-.66,2.96-1.32h-2.99v-.56h3.5v-.44h-2.22v-1.12h-1.28v-.53h1.28v-.44h.61v.44h1.61v-.44h.61v.44h1.62v-.44h.62v.44h1.26v.53h-1.26v1.12h-2.24v.44h3.5v.56h-2.99c.93.72,1.68,1,2.97,1.28l-.32.63ZM136.68,46.67c-.15-.13-.31-.27-.58-.47-3.48.23-3.81.25-5.62.25l-.04-.54c.22,0,1.32,0,1.57-.02.3-.39.34-.46.42-.62h-2.27v-.57h3.44v-.57h.68v.57h3.4v.57h-1.88c.17.09.91.55,1.42,1l-.53.39ZM133.63,47.56h-1.61v.61h1.61v-.61ZM135.6,45.28h-2.35c-.32.44-.35.49-.46.62.14,0,2.44-.07,2.75-.08-.22-.14-.26-.17-.43-.27l.49-.26ZM135.86,47.56h-1.62v.61h1.62v-.61Z"/>
    <path class="cls-4" d="M140.27,45.7v-1.56h.67v1.56h.8v.64h-.8v1.87c.49-.15.62-.21.85-.3l.07.64c-.23.1-.49.2-.91.33v2.87h-.67v-2.67c-.74.2-1.09.28-1.46.36l-.12-.68c.3-.05.72-.12,1.59-.36v-2.06h-.63c-.07.43-.19,1.01-.42,1.47l-.53-.38c.38-.82.48-1.88.5-2.84l.62.03c0,.26-.02.49-.08,1.07h.55ZM141.7,51.16c1.78-1.16,2.8-3.13,3.18-5.22h-.69c-.36,1.91-1.59,3.62-2.54,4.23l-.44-.52c1.22-.88,2.04-2.25,2.34-3.71h-.71c-.18.47-.51,1.19-.98,1.74l-.53-.46c.29-.32.97-1.08,1.33-3.09l.68.04c-.05.28-.12.63-.29,1.16h3.19c.03,2.67-.15,5.11-.36,5.73-.07.18-.24.69-1,.69h-1.16l-.12-.68h1.14c.17,0,.37,0,.47-.19.34-.7.38-3.97.39-4.94h-.1c-.34,1.61-.93,4.1-3.33,5.76l-.47-.53Z"/>
    <path class="cls-4" d="M154.72,45.51c-.26-.02-.52-.03-.85-.03-.45,0-.58.04-.76.1-1.56.51-3.08,1.84-3.08,3.26,0,1.03.83,1.55,2.24,1.73.74.1,1.32.08,1.69.07l-.11.79c-1.74-.03-2.7-.25-3.49-.67-.66-.36-1.09-1.11-1.09-1.84,0-1.5,1.22-2.67,2.52-3.4-1.62.07-2.4.14-4.14.28l-.04-.76c.68,0,4.42-.21,5.25-.22.23,0,1.68-.04,1.84-.05l.02.76ZM153.31,47.96c-.08-.17-.34-.7-.72-1.2l.49-.26c.4.49.61.9.74,1.17l-.52.3ZM154.3,47.48c-.29-.52-.4-.73-.72-1.13l.51-.26c.21.25.57.75.72,1.09l-.52.3Z"/>
    <path class="cls-4" d="M158.13,44.4h.75l-.06,1.17h2.64v.68h-2.68l-.07,1.55h.94c1.23,0,1.58-.25,1.79-.39l.27.63c-.21.14-.61.42-2.11.42h-.9c0,1.88,0,2.27,1.74,2.27.95,0,1.3-.15,1.53-.3.36-.24.65-.71.65-1.3,0-.19,0-.78-.51-1.6l.64-.3c.18.27.62.91.62,1.86,0,2.33-2.16,2.33-2.87,2.33-2.47,0-2.52-.91-2.52-2.95h-1.55v-.67h1.58l.07-1.55h-1.51v-.68h1.54l.06-1.17Z"/>
    <path class="cls-4" d="M172.37,50.93l-.13.63h-4.11c-1.35,0-1.86-.69-2.04-.93-.53.6-.57.65-1.15,1.16l-.33-.7c.15-.09.62-.39.98-.78v-2.32h-.89v-.67h1.54v2.49c.16,1,1.66,1.12,1.9,1.12h4.24ZM166,46.04c-.15-.22-.44-.67-1.18-1.39l.45-.41c.39.33.86.81,1.26,1.37l-.53.44ZM169.78,44.12v.52h2.48v.56h-1.24c-.08.28-.15.47-.26.75h1.2v4.02c0,.39-.18.63-.61.63h-.87l-.09-.62h.76c.11,0,.18,0,.18-.2v-3.3h-1.59v.62h1.33v.51h-1.33v.57h1.05v1.7h-2.7v-1.7h1.04v-.57h-1.34v-.51h1.34v-.62h-1.6v4.01h-.62v-4.55h1.13c-.03-.13-.18-.68-.21-.75h-1.2v-.56h2.46v-.52h.67ZM170.18,45.95c.09-.21.21-.64.24-.75h-1.95c.1.39.11.43.18.75h1.53ZM170.23,48.67h-1.57v.71h1.57v-.71Z"/>
    <path class="cls-4" d="M174.95,44.13h.67v2.18l1.77-.29.04.67-1.81.3v2.47c0,.18.04.24.25.24h.51c.35,0,.41-.94.43-1.25l.67.16c-.13,1.08-.29,1.73-.96,1.73h-.96c-.39,0-.59-.21-.59-.6v-2.63l-.81.13-.04-.67.85-.14v-2.29ZM181.6,44.49c0,2.01,0,5.7-.45,6.67-.1.21-.32.58-1.05.58h-1.19l-.15-.7h1.23c.08,0,.35.02.49-.21.44-.71.44-4.74.44-5.67h-1.55c-.03,3.59-.6,5.22-2.88,6.61l-.48-.59c2.4-1.28,2.66-3.13,2.66-6.02h-1.47v-.67h4.41Z"/>
    <path class="cls-4" d="M185.46,44.55c-.25,1.21-.35,2.43-.35,3.69,0,1.1.07,2.14.3,3.08l-.76.09c-.13-.53-.28-1.15-.28-3.02,0-2.21.22-3.41.31-3.92l.78.07ZM187.58,48.18c-.14.2-.39.57-.39,1.08,0,.72.5.95,1.83.95.41,0,1.13,0,1.83-.08v.74c-.3.02-.72.07-1.51.07-1.04,0-2.87,0-2.87-1.62,0-.66.31-1.18.45-1.42l.66.29ZM190.69,45.12v.71h-3.98v-.71h3.98Z"/>
    <path class="cls-4" d="M194.78,47.32v2.38c0,.3.49,1.21,2.06,1.21h4.15l-.12.63h-4.04c-1.32,0-1.84-.46-2.21-.88-.13.16-.57.68-1.08,1.09l-.34-.7c.21-.13.63-.44.9-.76v-2.32h-.81v-.65h1.48ZM194.51,45.97c-.23-.35-.72-.95-1.17-1.31l.46-.41c.53.43.86.8,1.22,1.28l-.52.44ZM200.87,49.98h-2.62v.71h-.63v-.71h-2.5v-.52h2.5v-.5h-2.16v-2.53h2.16v-.5h-1.6v-.51h1.6v-.56h-1.8v.9h-.63v-1.44h5.54v1.44h-.65v-.9h-1.83v.56h1.63v.51h-1.63v.5h2.19v2.53h-2.19v.5h2.62v.52ZM197.62,46.9h-1.55v.57h1.55v-.57ZM197.62,47.9h-1.55v.58h1.55v-.58ZM199.82,46.9h-1.56v.57h1.56v-.57ZM199.82,47.9h-1.56v.58h1.56v-.58Z"/>
    <path class="cls-4" d="M205.02,45.06h.7c.07-.18.14-.35.27-.92l.64.08c-.07.25-.21.63-.29.84h.98v2.55c.08-.02.12-.02.25-.07v.23h2.57v.58c-.21.98-.49,1.51-.84,2.03.48.49.9.7,1.18.85l-.34.57c-.3-.18-.68-.4-1.22-.95-.44.49-.86.76-1.13.95l-.35-.55c.27-.17.65-.41,1.09-.89-.55-.77-.66-1.37-.72-1.71l.53-.15c.06.26.17.79.55,1.39.44-.69.56-1.28.61-1.54h-1.96v-.3l-.25.07v3.07c0,.27-.07.58-.57.58h-.77l-.1-.66h.62c.13,0,.26,0,.26-.21v-2.66c-.16.03-.26.06-.43.09v2.29h-.44v-2.2l-.34.07c-.02.85-.12,2.15-.65,3.27l-.49-.47c.53-1.03.57-1.94.59-2.7-.08.02-.12.03-.27.06l-.07-.48c-.07.06-.17.13-.45.3v2.59c0,.27,0,.69-.67.69h-.65l-.07-.7h.51c.18,0,.25-.02.25-.21v-2.03c-.39.21-.55.26-.73.33l-.11-.68c.19-.07.43-.15.84-.35v-1.87h-.76v-.59h.76v-1.52h.64v1.52h.53v.59h-.53v1.55c.26-.13.37-.2.52-.29v.56c.07-.02.17-.03.28-.05v-2.96ZM205.57,47.93c.53-.08.6-.1,1.2-.21v-2.11h-1.2v2.32ZM206.11,47.44c-.06-.37-.13-.7-.35-1.34l.43-.12c.15.34.34.98.39,1.32l-.48.15ZM209.65,44.43v2.11c0,.16.07.16.25.16.1,0,.16,0,.16-.88l.49.17c0,1.13-.2,1.27-.56,1.27h-.39c-.33,0-.52-.05-.52-.57v-1.7h-.68c-.02,1.46-.27,1.93-.65,2.36l-.38-.53c.4-.54.49-1,.46-2.4h1.83Z"/>
    <path class="cls-4" d="M105.5,56.21c-.06.4-.16,1.08-.16,2.08,0,1.25.1,2.57.54,3.28.08.14.29.29.55.29.62,0,1.08-.97,1.44-1.92l.61.4c-.5,1.34-1.17,2.32-2.12,2.32-1.61,0-1.79-2.9-1.79-4.26,0-.85.07-1.7.12-2.26l.81.08ZM110.85,61.79c0-.19.02-.38.02-.64,0-2.79-.81-3.65-1.53-4.43l.66-.36c.48.45,1.69,1.57,1.69,4.83,0,.22,0,.37-.02.53l-.82.08Z"/>
    <path class="cls-4" d="M115.57,55.74c-.02.29-.06.56-.13,1.09h2.29v.69h-2.38c-.21,1.12-.68,3.68-1.43,5.31l-.75-.25c.78-1.51,1.24-3.99,1.41-5.06h-1.22v-.69h1.31c.05-.44.07-.83.08-1.13l.82.04ZM117.2,60.23c-.38.54-.49.69-.49.98,0,.73.78.83,1.91.83.9,0,1.41-.05,1.68-.07v.73c-.32.02-.58.03-1.25.03-1.2,0-3.03,0-3.03-1.47,0-.53.21-.87.62-1.39l.56.36ZM120.14,58.6c-.19-.02-.39-.02-.7-.02-.79,0-1.79.1-2.51.39l-.22-.63c.83-.31,1.58-.49,3.43-.47v.74Z"/>
    <path class="cls-4" d="M123.91,55.78c0,.07-.09,3.62-.09,4.3,0,.98.03,1.98,1.68,1.98,2.06,0,2.37-1.52,2.6-2.68l.74.2c-.19.99-.61,3.18-3.29,3.18-.76,0-1.72-.18-2.17-1-.31-.57-.32-1.42-.32-2.41,0-.57.05-3.06.03-3.57h.82Z"/>
    <path class="cls-4" d="M134.03,56.61l-.02-.87h.72v.87h2.74v.66h-2.72v1.03h2.57v.64h-2.57v1.23c.95.39,1.76.91,2.52,1.58l-.49.64c-.76-.72-1.19-1.09-2.02-1.5v.37c0,1.46-1.33,1.54-1.79,1.54-1.09,0-1.83-.59-1.83-1.41,0-.64.53-1.51,2.1-1.51.4,0,.63.05.81.09v-1.02h-3.06v-.64h3.05v-1.03h-3.19v-.66h3.18ZM134.05,60.62c-.19-.06-.45-.14-.9-.14-.76,0-1.37.31-1.37.91s.67.77,1.16.77c1.09,0,1.11-.58,1.11-.95v-.58Z"/>
    <path class="cls-4" d="M143.41,55.68h.75v.95h2.32v.67h-2.32v1.73c.03.12.07.27.11.45.02.17.05.38.05.62,0,2.41-1.89,2.67-3.35,2.75l-.23-.7c2.35-.02,2.71-.78,2.87-1.57-.14.22-.43.64-1.23.64-1.01,0-1.62-.81-1.62-1.69,0-.94.67-1.69,1.74-1.69.58,0,.78.17.95.3v-.86h-4.13v-.67h4.11l-.02-.95ZM143.47,59.34c-.02-.18-.14-.81-.95-.81-.52,0-1.04.3-1.04,1.01,0,.45.25,1.03.96,1.03,1,0,1.03-.93,1.03-.95,0-.06,0-.19,0-.27Z"/>
    <path class="cls-4" d="M150.56,61.6c0,.67-.55,1.23-1.23,1.23s-1.23-.55-1.23-1.23.55-1.23,1.23-1.23,1.23.53,1.23,1.23ZM148.52,61.6c0,.44.36.81.81.81s.81-.36.81-.81-.37-.81-.81-.81-.81.36-.81.81Z"/>
  </g>
  <g>
    <rect class="cls-2" x="79.23" y="49.31" width="18.19" height=".97"/>
    <rect class="cls-2" x="73.12" y="54.57" width="18.19" height=".97"/>
  </g>
  <g>
    <path class="cls-1" d="M14.82,52.36c-2.94,0-5.33,2.4-5.33,5.34s2.38,5.32,5.33,5.32,5.33-2.38,5.33-5.32-2.39-5.34-5.33-5.34ZM14.82,60.39c-1.49,0-2.7-1.21-2.7-2.69s1.21-2.7,2.7-2.7,2.7,1.21,2.7,2.7-1.21,2.69-2.7,2.69Z"/>
    <path class="cls-1" d="M52.12,52.36c-2.95,0-5.33,2.4-5.33,5.34s2.38,5.32,5.33,5.32,5.32-2.38,5.32-5.32-2.38-5.34-5.32-5.34ZM52.12,60.39c-1.49,0-2.7-1.21-2.7-2.69s1.21-2.7,2.7-2.7,2.69,1.21,2.69,2.7-1.21,2.69-2.69,2.69Z"/>
    <g>
      <path class="cls-1" d="M66.01,48.03c0,.54-.44.99-.99.99h-27.86c-.55,0-.99-.45-.99-.99v-3.31c0-.54.45-.99.99-.99h27.86c.55,0,.99.45.99.99v3.31Z"/>
      <path class="cls-3" d="M66.01,41.95c0,.54-.44.99-.99.99h-27.86c-.55,0-.99-.45-.99-.99v-4.71c0-.54.45-.99.99-.99h27.86c.55,0,.99.44.99.99v4.71Z"/>
      <path class="cls-1" d="M37.15,31.58h27.87c.54,0,.99.44.99.99v1.81c0,.55-.44.99-.99.99h-27.87c-.55,0-.99-.44-.99-.99v-1.81c0-.54.44-.99.99-.99Z"/>
      <path class="cls-1" d="M31.99,31.58h2.37c.55,0,.99.44.99.99v15.46c0,.55-.44.99-.99.99h-2.37c-.55,0-.99-.44-.99-.99v-15.46c0-.55.44-.99.99-.99Z"/>
      <path class="cls-1" d="M71.13,32.57c0-.54-.45-.99-.99-.99h-2.37c-.54,0-.99.45-.99.99v15.46c0,.54.44.99.99.99h2.37c.55,0,.99-.45.99-.99v-15.46Z"/>
      <path class="cls-1" d="M30.15,48.03c0,.54-.45.99-1,.99h-.99c-.54,0-.99-.45-.99-.99v-13.09c0-.55.44-1,.99-1h.99c.55,0,1,.45,1,1v13.09Z"/>
      <path class="cls-1" d="M63.36,50.01H25.45v-19.02c0-.54-.44-.99-.99-.99H5.44c-.54,0-1.16.41-1.35.92l-2.23,5.72c-.2.5-.51,1.34-.7,1.85l-.82,2.28c-.19.51-.34,1.38-.34,1.92v12.36c0,.55.45,1,.99,1h7.13c.77-2.99,3.48-5.2,6.7-5.2s5.93,2.21,6.7,5.2h23.9c.77-2.99,3.47-5.2,6.7-5.2s5.93,2.21,6.7,5.2h4.54c.55,0,.99-.45.99-1v-4.06c0-.55-.44-.99-.99-.99ZM14.63,42.03c0,.54-.4,1.17-.89,1.41l-9.12,4.29c-.49.23-.9-.02-.9-.57v-3.27c0-.54.44-1.08.97-1.17l8.97-1.62c.53-.1.97.28.97.82v.11ZM17.92,36.87c0,.54-.44,1.07-.98,1.17l-12.25,2.24c-.54.1-.81-.23-.62-.74l2.33-5.99c.2-.51.81-.92,1.36-.92h9.17c.55,0,.99.44.99.99v3.25Z"/>
    </g>
  </g>
  <g>
    <g>
      <path class="cls-5" d="M40.53,38.53s.05.03.05.07c0,.06-.04.06-.14.07-.03.07-.17.39-.19.46h1.96v.59h-.71s0,.02,0,.04c0,.06-.04.08-.12.09-.16.37-.27.53-.36.66.51.29.9.62,1.03.73-.25.18-.3.26-.48.53-.32-.28-.61-.52-.99-.76-.52.46-1.16.67-1.82.77-.07-.28-.14-.41-.29-.68.72,0,1.19-.2,1.49-.4-.21-.08-.34-.13-.46-.16-.02.03-.08.12-.12.19-.21-.17-.49-.25-.62-.29.24-.29.41-.57.48-.71h-.9v-.59h1.21c.09-.19.2-.46.28-.69h-.75v.47h-.65v-1.08h1.51v-.4l.7.02s.09,0,.09.08c0,.06-.07.08-.12.08v.22h1.51v1.08h-.62v-.47h-1.16l.2.09ZM39.99,39.71c-.05.09-.1.18-.16.28.17.05.38.12.62.23.07-.09.16-.22.29-.51h-.75Z"/>
      <path class="cls-5" d="M46.02,40.02h.86v.63h-.86v.41h1.45v.62h-3.58v-.62h1.46v-.41h-.83v-.63h.83v-.38h-.87v-.25c-.27.21-.36.26-.42.3-.04-.08-.11-.25-.49-.52.23-.1,1.22-.62,1.77-1.75l.66.09s.08.02.08.07c0,.08-.06.1-.08.11.14.23.45.5.71.72.35.3.63.46.99.62-.19.21-.29.34-.41.57-.1-.05-.21-.1-.38-.2v.25h-.91v.38ZM46.41,39c-.32-.26-.58-.51-.79-.79-.04.07-.26.4-.68.79h1.47Z"/>
      <path class="cls-5" d="M55.44,40.69s-.03.14-.04.17c-.21-.04-.34-.05-.62-.07.13-.53.19-.9.22-1.43l.58.07h.64v-.17h-1.38v-.56h.05c-.2-.11-.35-.15-.46-.18.35-.46.51-.84.59-1.12l.58.12s.06.01.06.06c0,.06-.05.07-.1.08-.02.05-.03.08-.04.11h.93v.31c.23-.33.31-.56.35-.7l.56.13s.09.02.09.07c0,.05-.07.08-.12.09-.02.04-.02.05-.04.09h1.12v.52h-.58c.05.12.06.18.09.25-.31.04-.49.1-.61.15-.04-.21-.06-.28-.1-.4h-.19c-.11.18-.17.29-.27.42h1.41v1.25h-1.34v.16h1.58c-.02.28-.08,1.06-.26,1.31-.06.09-.18.22-.79.18-.03-.25-.1-.46-.2-.66.23.05.33.06.38.06.11,0,.14-.07.19-.32h-.9v1.08h-.59v-.8c-.38.41-.79.66-1.3.83-.19-.36-.35-.45-.44-.5.28-.07.81-.2,1.22-.61h-.27ZM56,38.29s.12.24.14.29c-.18.02-.51.11-.58.12-.05-.17-.13-.35-.15-.41h-.12c-.1.18-.16.28-.25.42h1.59s-.24-.15-.51-.23c.06-.06.11-.1.17-.18h-.29ZM56.22,39.96h-.67s-.02.13-.02.16h.69v-.16ZM56.81,39.44h.74v-.17h-.74v.17Z"/>
      <path class="cls-5" d="M63.83,39.24v.79h-3.82v-.79h3.82Z"/>
    </g>
    <g>
      <rect class="cls-6" x="49.01" y="39.08" width="4.09" height="1.16"/>
      <rect class="cls-6" x="50.47" y="37.62" width="1.16" height="4.09"/>
    </g>
  </g>
</svg>