<?xml version="1.0" encoding="UTF-8"?>
<svg id="_レイヤー_2" xmlns="http://www.w3.org/2000/svg" version="1.1" viewBox="0 0 525.7 28.9">
  <!-- Generator: Adobe Illustrator 30.2.1, SVG Export Plug-In . SVG Version: 2.1.1 Build 1)  -->
  <defs>
    <style>
      .st0 {
        fill: #23ab3a;
      }
    </style>
  </defs>
  <g>
    <path class="st0" d="M87.8,10.4l-1.7,10.5h-3.8l-2.7-13.4h2.9l1.7,10.6,1.7-10.6h3.7l1.7,10.6,1.7-10.6h2.9l-2.7,13.4h-3.8l-1.7-10.5h0Z"/>
    <path class="st0" d="M117.9,7.4v2.5h-7.5v3.2h7.2v2.6h-7.2v5.1h-2.8V7.4h10.3Z"/>
    <path class="st0" d="M134.3,14.5v2.6h-5.4v-2.6s5.4,0,5.4,0Z"/>
    <path class="st0" d="M155.1,17.9h-5.6l-1.1,2.9h-3.2l5.2-13.4h3.7l5.2,13.4h-3.2l-1.1-2.9h0ZM150.3,15.5h3.9l-1.9-5.4-1.9,5.4Z"/>
    <path class="st0" d="M174,18v2.9h-2.9v-2.9h2.9Z"/>
    <path class="st0" d="M195.1,7.4c.8,0,3.2,0,3.2,3.5s-.2,2.4-1.8,2.9c1.6.3,2.3,1.4,2.3,3.3s-.1,2.5-1.3,3.1c-.2.1-1.1.6-2.4.6h-8.4V7.4h8.5ZM189.3,9.9v3h4.7c1.3,0,1.5-.7,1.5-1.6s-.5-1.4-1.4-1.4h-4.8,0ZM189.3,15.2v3.2h5.2c1,0,1.6-.2,1.6-1.6s-1-1.6-1.6-1.6h-5.1Z"/>
    <path class="st0" d="M219.7,17.9h-5.6l-1.1,2.9h-3.2l5.2-13.4h3.7l5.2,13.4h-3.2l-1.1-2.9h0ZM215,15.5h3.9l-1.9-5.4-1.9,5.4Z"/>
    <path class="st0" d="M244.1,11.7c0-1.5-.2-2-2.9-2s-3,0-3,1.6.2,1.2,1.4,1.3l4.2.4c3.5.3,3.6,2.9,3.6,3.8,0,3.8-2.7,4.2-5.8,4.2-4.9,0-6.1-.9-6.2-4.8h2.8c0,1.7,0,2.2,3.1,2.2s3.3,0,3.3-1.6-.5-1.4-1.3-1.4l-4.9-.5c-2.4-.2-3-2.1-3-3.6,0-3.8,2.9-4,5.6-4,5.3,0,5.8,1.5,5.9,4.4h-2.8Z"/>
    <path class="st0" d="M270.6,7.4v2.5h-8v2.8h7.7v2.4h-7.7v3h8.2v2.5h-11V7.4h10.8Z"/>
    <path class="st0" d="M291,6.3c-1.7,1.5-3.7,4-3.7,8.1s2,6.6,3.7,8.1h-3c-.8-.8-3.3-3.4-3.3-8.1s2.5-7.2,3.3-8.1c0,0,3,0,3,0Z"/>
    <path class="st0" d="M302.8,8.9h6.1v-2.6h2.6v2.6h6.2v9.5h-2.6v-.7h-3.6v4.7h-2.6v-4.7h-3.5v.7h-2.6v-9.5ZM305.4,11.4v3.8h3.5v-3.8h-3.5ZM311.5,11.4v3.8h3.6v-3.8h-3.6Z"/>
    <path class="st0" d="M329.9,6.8h7v6.6h-4.6v9h-2.4V6.8h0ZM332.3,8.6v.8h2.2v-.8h-2.2ZM332.3,10.9v.8h2.2v-.8h-2.2ZM341.3,20h.8c.5,0,.5-.2.5-.6v-6h-4.7v-6.6h7.1v13.8c0,1.8-1.4,1.8-1.5,1.8h-3.3l-.3-1.6h-6.4v-6.7h7.6v5.8h0ZM335.9,16v.8h3v-.8h-3ZM335.9,18.1v.9h3v-.9h-3ZM340.3,8.6v.8h2.4v-.8h-2.4ZM340.3,10.9v.8h2.4v-.8h-2.4Z"/>
    <path class="st0" d="M356.3,14.1c.9-1.4,1.9-3.2,2-7.8h2.4c0,1,0,1.4-.1,1.9h3.4c0,3.2-.4,7.2-1.8,10,1.1,1,2.9,1.6,4.6,1.6h6.2l-.5,2.5h-5.5c-3.7,0-5.6-1.6-6.1-2.1-1.1,1.3-2.2,2.1-2.8,2.5l-1.5-2.3c.7-.5,1.7-1.2,2.8-2.5-.1-.3-.4-.9-.8-2.1-.4.6-.5.8-.7,1.1l-1.5-2.7h0ZM360.3,10.5c-.1.5-.2,1.2-.5,1.9.3,1.6.6,2.6.8,3,.4-1.1.9-2.4,1-4.9h-1.3ZM370.5,6.8v9.2c0,.2,0,.4.1.4.4,0,.4,0,.5-.1s0-2.4,0-2.6l1.8.4c0,2.2-.2,3.4-.3,3.6-.1.5-.2,1.2-1.3,1.2h-1.9c-1,0-1.3-.8-1.3-1.3v-8.2h-1.2v2c0,1.1,0,4.9-1.9,7.7l-2.1-1.3c1.7-2.2,1.7-5.5,1.7-6.5v-4.4h5.8Z"/>
    <path class="st0" d="M389,19.9c-.9.4-3.8,1.2-5,1.5l-.3-2.6c0,0,1.7-.4,2-.5v-3.7h-1.5v-2.4h1.5v-2.7h-1.7v-2.4h5.6v2.4h-1.4v2.7h1.3v2.4h-1.3v3.1c.8-.2,1-.3,1.4-.5v2.5c-.1,0,4,0,4,0v-1.2h-3.5v-2.1h3.5v-1.2h-3.5V6.7h9.6v8.5h-3.7v1.2h3.8v2.1h-3.8v1.2h4.1v2.3h-11v-2.1h0ZM392.1,8.9v1.2h1.4v-1.2h-1.4ZM392.1,11.8v1.3h1.4v-1.3h-1.4ZM395.8,8.9v1.2h1.4v-1.2h-1.4ZM395.8,11.8v1.3h1.4v-1.3h-1.4Z"/>
    <path class="st0" d="M418.1,17.4c-.8.6-1.4.9-1.9,1.1l-.3-.4v.2c-1.4.6-2.9,1.2-4.8,1.7l-.3-2.6c.5,0,.6-.1,1.6-.4v-4.5h-1.4v-2.4h1.4v-3.7h2.4v3.7h1v2.4h-1v3.8c.3-.1.5-.2,1-.4v.7c1.2-.5,1.8-1.1,2.3-1.7h-2.4v-1.9h11.5v1.9h-6.8c-.2.3-.3.4-.4.6h6.9c0,1.2,0,4.8-.5,5.9-.4,1-1.1,1-1.6,1h-2.6l-.3-1.6c-1,1-2.1,1.5-2.8,1.9l-1.5-1.5c3.2-1.4,4.1-3,4.5-3.8h-.8c-.6,1-2,2.9-5.7,4l-.9-1.7c1.9-.5,3-1,4.4-2.2h-.9,0ZM416.4,6.8h9.8v5.6h-9.8v-5.6ZM418.8,8.3v.8h5v-.8h-5ZM418.8,10.1v.8h5v-.8h-5ZM423.5,20.3c.6,0,.8-.1.9-2.9h-.5c-.4,1-.8,1.8-1.8,2.9h1.4,0Z"/>
    <path class="st0" d="M438.4,22.4c1.7-1.5,3.7-4,3.7-8.1s-2-6.6-3.7-8.1h3c.8.8,3.3,3.4,3.3,8.1s-2.5,7.2-3.3,8.1h-3Z"/>
  </g>
  <rect class="st0" width="525.7" height="2.8"/>
  <rect class="st0" y="26" width="525.7" height="2.8"/>
</svg>