<?xml version="1.0" encoding="UTF-8"?>
<svg id="_レイヤー_2" xmlns="http://www.w3.org/2000/svg" version="1.1" viewBox="0 0 525.7 28.9">
  <!-- Generator: Adobe Illustrator 30.2.1, SVG Export Plug-In . SVG Version: 2.1.1 Build 1)  -->
  <defs>
    <style>
      .st0 {
        fill: #23ab3a;
      }
    </style>
  </defs>
  <g>
    <path class="st0" d="M118.2,15.1l-.9,2.2c-.4-.8-.8-1.3-.9-1.8v7.3h-2.4v-6c-.3,1-.5,1.7-1.2,2.9l-.8-3.5c.8-1.2,1.5-2.5,2-4.5h-1.7v-2.4h1.7v-2.8h2.4v2.8h1.2v2.4h-1.2v.6c.6,1.2,1.9,2.6,1.9,2.6v-1.8h3.7v-.7h-4.1v-1.9h2v-.9h-1.6v-2h1.6v-1h2.2v1h2.2v-1h2.3v1h1.6v2h-1.6v.9h2v1.9h-4.3v.7h3.8v6.6h-2.3c1,.6,1.8.9,2.9,1.2l-1.2,1.9c-1.5-.4-3-1.3-3.9-2l1.2-1.2h-3.8l1.2,1.1c-1.5,1.1-2.9,1.7-4.1,2l-1.1-1.9c.5-.1,1.8-.4,3.2-1.2h-1.9v-4.7h0ZM120.4,15v.8h1.5v-.8s-1.5,0-1.5,0ZM120.4,17.2v.8h1.5v-.8h-1.5ZM121.9,9.7v.9h2.2v-.9h-2.2ZM125.6,15.7v-.8h-1.6v.8h1.6ZM125.6,18v-.8h-1.6v.8h1.6Z"/>
    <path class="st0" d="M142.9,20.9c2-1,3.1-2.1,3.7-2.8h-2.8v-.6c-.5,1.3-1.4,3.1-3,5.3l-1.6-2.4c1.7-2,2.7-4.5,2.9-5l1.7,1.2v-.9h1.1V7.2c.6,0,6.8,0,9.5-.8l.9,2.3c-2.5.5-6.3.7-7.9.7v1.1h7.8v2.3h-2v2.8h2.3v2.4h-2.7c.9,1.1,1.8,2,3,2.8l-1.7,1.9c-1.1-.9-2.5-2.3-3.4-3.8l1.6-.9h-5.2l1.6,1c-1.5,2.1-3.6,3.4-4.1,3.8l-1.7-2h0ZM140.6,10.9c.3.1,1.8.8,3,1.8l-1.5,2.1c-1-1-2.5-1.7-2.8-1.9l1.3-2h0ZM141,6.5c1.2.5,2.1,1,3.1,1.7l-1.5,2.1c-.9-.8-2.1-1.4-2.9-1.8l1.4-2ZM147.4,12.9v2.8h3.4v-2.8h-3.4Z"/>
    <path class="st0" d="M170.4,18.4c-1.3,1.3-2,1.9-2.5,2.2l-1.5-2.6c3-2,4.6-4,5.9-6.5h-5.7v-2.5h6.8v-2.4h2.6v2.4h6.8v2.5h-5.7c1.1,2.5,3.7,5.1,6,6.5l-1.5,2.6c-.5-.4-1.4-1-2.6-2.2v1.7h-3.1v2.8h-2.5v-2.8h-3v-1.7h0ZM173.4,17.7v-3.6c-.3.7-.9,1.9-2.4,3.6h2.4ZM178.4,17.7c-1.1-1.3-1.7-2.3-2.4-3.6v3.6h2.4Z"/>
    <path class="st0" d="M198.6,22.8h-2.6v-5.7c-.7.6-1.3,1-1.8,1.4l-.6-3c1.9-1.1,3.5-3,4-4.1h-3.7v-2.4h2.1v-2.3h2.6v2.3h1.7v2.4c-.2.6-.5,1.3-1.4,2.5.9,1,1.7,1.5,2.3,1.8l-1.3,2.4c-.4-.3-.8-.8-1.4-1.6v6.3h0ZM203.7,6.7h2.6v4.2h3.3v2.6h-3.3v6.2h3.6v2.6h-10.1v-2.6h3.9v-6.2h-3.1v-2.6h3.1v-4.2Z"/>
    <path class="st0" d="M231.3,6.6c-1.7,1.5-3.7,4-3.7,8.1s2,6.6,3.7,8.1h-3c-.8-.8-3.3-3.4-3.3-8.1s2.5-7.2,3.3-8.1c0,0,3,0,3,0Z"/>
    <path class="st0" d="M244.4,9.5c-.8,0-1.2,0-1.6.1l-.3-2.2c.8,0,3,0,5.2-.8l.6,2.3c-.4.1-.8.2-1.6.4v1.7h1.3v2.4h-1.3v.3c.7,1.3,1.6,2.1,1.9,2.5l-.8,2.3c-.3-.4-.8-1.1-1.1-1.7v6.2h-2.3v-5.4c-.5,1.5-.9,2.2-1.3,2.9l-.9-3.3c.8-1,1.4-1.9,2-3.8h-1.6v-2.4h1.9v-1.4h0ZM247.3,20.9c1.4-.3,2.5-.6,3.2-1h-1.6v-6.6h9v6.6h-1.9c1.2.5,2.4.7,2.9.8l-1,2c-1.3-.4-2.7-1-3.9-1.8l1-1.1h-3.4l1,1.1c-1,.7-2,1.3-4.1,1.8l-1.2-2h0ZM252.2,6.6h2.4v.7h3.6v1.7h-3.6v.6h3.2v1.1h-3.2v.6h4v1.6h-10.3v-1.6h3.9v-.6h-3.2v-1.1h3.2v-.6h-3.7v-1.7h3.7v-.7ZM251.2,14.6v.6h4.3v-.6h-4.3ZM251.2,16.2v.6h4.3v-.6h-4.3ZM251.2,17.7v.6h4.3v-.6h-4.3Z"/>
    <path class="st0" d="M284.3,10.3c-.1,1.4-.2,2.7-.4,4.2,1,.4,1.4.6,1.9.9l-.8,2.9c-.5-.3-.5-.3-1.5-.9-1,3.6-3.4,4.4-5,4.9l-1.6-2.1c1.1-.2,3.4-.7,4.1-3.9-2-.6-2.2-.7-3-.8-.6,2.3-1.6,5.7-4.6,5.7s-3.1-1.4-3.1-3.3,2.4-4.8,5.6-4.9c.1-1,.3-2.4.3-2.9h-4.9c0,0,0-2.5,0-2.5h7.9c-.1.9-.6,4.7-.7,5.5,1.4.1,2.6.5,2.9.6,0-1.4,0-2.3.1-3.5l3,.2h0ZM272.4,17.8c0,.4.2.9.7.9,1.2,0,1.8-2.4,2-3.3-2.4.3-2.8,1.8-2.8,2.5h0Z"/>
    <path class="st0" d="M311.4,22.8h-2.6v-.6h-7.8v.6h-2.5v-6.8c-.2.1-.3.2-.7.4l-1.2-2.3c.4-.2,1.5-.7,2.2-1.8h-2v-2h2.7c0-.2,0-.5,0-.8h-2.5v-2h2.5v-.8h2.5v.8h2.1v2h-2.2v.3c0,.4,0,.4,0,.5h2.4v2h-2c.6.7,1.3,1.2,1.7,1.4.6-.2,1.6-.5,2.4-1.4h-1.6v-2h2.5c0-.2,0-.3,0-.5v-.3h-2.4v-2h2.4v-.8h2.5v.8h2.6v2h-2.6v.3c0,.1,0,.3,0,.5h3v2h-2.4c1.1,1.2,2.2,1.6,2.7,1.8l-1.3,2.4c-.4-.2-.4-.3-.7-.4v6.8h0ZM302.5,15.2c-.7-.7-1.1-1.3-1.5-1.8-.3.5-.7,1.1-1.5,1.8h3ZM301.1,17.8h7.8v-.8h-7.8v.8ZM301.1,20.3h7.8v-.8h-7.8v.8ZM305.4,15.2l-1-1.4-1,1.4h1.9ZM310.5,15.2c-.3-.2-1-.9-1.6-1.9-.3.4-.8,1.1-2,1.9h3.6Z"/>
    <path class="st0" d="M336.1,10.9v2.1c-.4.2-.5.3-1.7,1.2-1.3,1-1.4,1.1-1.8,1.4.2,0,.6-.2,1-.2,1.5,0,1.5,1.6,1.5,2.1v.6c0,.9,0,1.3,1.5,1.3s2.1,0,2.8-.1v2.6c-.4,0-1.1,0-2.3,0-2.7,0-4.5-.1-4.5-2.7v-.8c0-.5,0-1.1-.8-1.1s-1.2.3-1.5.6c-.4.3-3.8,3.9-3.9,4l-1.9-2c.7-.6,3.5-3.2,4.1-3.8,1.8-1.6,2.8-2.4,3.5-3l-6.3.2v-2.6h10.3c0,0,0,0,0,0ZM336.3,10.2c-2.3-.5-5.9-1-8.4-.9l.3-2.3c1.6,0,4.5,0,8.5.8l-.4,2.4h0Z"/>
    <path class="st0" d="M352.5,15.4c-.3.3-.4.5-.8.9l-.6-3.7c.5-.7,1.9-2.6,2.4-6l2.5.2c-.1.8-.3,2.2-1,4.2v11.8h-2.4v-7.4h0ZM355.2,20c1.6-.9,2.7-1.8,3.9-3.5h-3.3v-2.4h4.6v-1.1h-3.7v-5.9h9.9v5.9h-3.8v1.1h4.6v2.4h-3.2c1.3,1.9,2.6,2.9,3.5,3.6l-1.5,2.3c-.7-.6-2.1-1.8-3.4-4v4.4h-2.4v-4.3c-1.9,2.6-3.1,3.4-3.7,3.7l-1.5-2.2h0ZM359.2,9.3v1.6h4.9v-1.6h-4.9Z"/>
    <path class="st0" d="M387.8,11.2h6.5v3.7h-2.1v2.5h-9v.6h10.3v4.7h-2.6v-.6h-7.7v.6h-2.5v-7.8h-1.7v-3.7h.7l-1.3-1.6c.9-.7,1.9-1.6,2.6-3.1l2.6.2c0,.3-.1.3-.3.8h3.1v1.6c1-1.1,1.4-2.1,1.6-2.7l2.6.2c0,.2-.1.3-.3.8h4.4v2.1h-2.6c.1.2.5.8.6,1l-2.7.4c-.2-.6-.3-.9-.6-1.5h-.3c-.4.6-.9,1.1-1.2,1.4h0c0,.1,0,.1,0,.1ZM386.5,10.5l-.8-.7c0,0,0,0,.1-.1h-1.5c.2.4.3.6.4,1.1l-2.3.4c-.2-.8-.3-1-.5-1.5h-.1c-.8.9-1.3,1.3-1.6,1.5h5.2v-.7h1.1,0ZM391.8,13.1h-10.4v.6h10.4v-.6ZM383.2,15.9h6.5v-.7h-6.5v.7ZM383.2,20.5h7.7v-.8h-7.7v.8Z"/>
    <path class="st0" d="M405.9,22.8c1.7-1.5,3.7-4,3.7-8.1s-2-6.6-3.7-8.1h3c.8.8,3.3,3.4,3.3,8.1s-2.5,7.2-3.3,8.1h-3Z"/>
  </g>
  <rect class="st0" width="525.7" height="2.8"/>
  <rect class="st0" y="26" width="525.7" height="2.8"/>
</svg>